G04 EAGLE Gerber RS-274X export*
G75*
%MOMM*%
%FSLAX34Y34*%
%LPD*%
%INBottom Copper*%
%IPPOS*%
%AMOC8*
5,1,8,0,0,1.08239X$1,22.5*%
G01*
%ADD10C,1.879600*%
%ADD11C,0.304800*%
%ADD12C,0.254000*%


D10*
X170180Y297180D03*
X144780Y297180D03*
X119380Y297180D03*
X93980Y297180D03*
X68580Y297180D03*
X43180Y297180D03*
X43180Y228600D03*
X68580Y228600D03*
X93980Y228600D03*
X119380Y228600D03*
X144780Y228600D03*
X170180Y228600D03*
D11*
X114300Y228600D02*
X114300Y279400D01*
X107950Y279400D01*
X95250Y292100D01*
X114300Y228600D02*
X119380Y228600D01*
X95250Y292100D02*
X93980Y297180D01*
D12*
X63500Y241300D02*
X63500Y228600D01*
X63500Y241300D02*
X19050Y285750D01*
X19050Y317500D01*
X120650Y317500D01*
X139700Y298450D01*
X68580Y228600D02*
X63500Y228600D01*
X139700Y298450D02*
X144780Y297180D01*
X63500Y209550D02*
X44450Y228600D01*
X63500Y209550D02*
X171450Y209550D01*
X184150Y222250D01*
X184150Y292100D01*
X171450Y292100D01*
X44450Y228600D02*
X43180Y228600D01*
X171450Y292100D02*
X170180Y297180D01*
X88900Y228600D02*
X25400Y292100D01*
X25400Y311150D01*
X101600Y311150D01*
X114300Y298450D01*
X93980Y228600D02*
X88900Y228600D01*
X114300Y298450D02*
X119380Y297180D01*
M02*
