G04 EAGLE Gerber RS-274X export*
G75*
%MOMM*%
%FSLAX34Y34*%
%LPD*%
%INSilkscreen Top*%
%IPPOS*%
%AMOC8*
5,1,8,0,0,1.08239X$1,22.5*%
G01*
%ADD10C,0.177800*%
%ADD11C,0.203200*%
%ADD12C,0.152400*%
%ADD13C,0.050800*%
%ADD14C,0.101600*%
%ADD15R,1.270000X0.889000*%


D10*
X254889Y635889D02*
X254889Y649278D01*
X261583Y655972D01*
X268278Y649278D01*
X268278Y635889D01*
X268278Y645931D02*
X254889Y645931D01*
X275003Y649278D02*
X275003Y635889D01*
X275003Y649278D02*
X285044Y649278D01*
X288391Y645931D01*
X288391Y635889D01*
X298464Y639236D02*
X298464Y652625D01*
X298464Y639236D02*
X301811Y635889D01*
X301811Y649278D02*
X295116Y649278D01*
X311873Y635889D02*
X318567Y635889D01*
X311873Y635889D02*
X308525Y639236D01*
X308525Y645931D01*
X311873Y649278D01*
X318567Y649278D01*
X321914Y645931D01*
X321914Y642583D01*
X308525Y642583D01*
X328639Y635889D02*
X328639Y649278D01*
X338681Y649278D01*
X342028Y645931D01*
X342028Y635889D01*
X348753Y635889D02*
X348753Y649278D01*
X358794Y649278D01*
X362141Y645931D01*
X362141Y635889D01*
X372214Y649278D02*
X378908Y649278D01*
X382255Y645931D01*
X382255Y635889D01*
X372214Y635889D01*
X368866Y639236D01*
X372214Y642583D01*
X382255Y642583D01*
D11*
X388052Y316504D02*
X388052Y300912D01*
X395848Y293116D01*
X403644Y300912D01*
X403644Y316504D01*
X423134Y316504D02*
X427032Y312606D01*
X423134Y316504D02*
X415338Y316504D01*
X411440Y312606D01*
X411440Y297014D01*
X415338Y293116D01*
X423134Y293116D01*
X427032Y297014D01*
X446522Y316504D02*
X450420Y312606D01*
X446522Y316504D02*
X438726Y316504D01*
X434828Y312606D01*
X434828Y297014D01*
X438726Y293116D01*
X446522Y293116D01*
X450420Y297014D01*
X339188Y363406D02*
X335290Y367304D01*
X327494Y367304D01*
X323596Y363406D01*
X323596Y347814D01*
X327494Y343916D01*
X335290Y343916D01*
X339188Y347814D01*
X339188Y355610D01*
X331392Y355610D01*
X346984Y359508D02*
X346984Y343916D01*
X346984Y359508D02*
X358678Y359508D01*
X362576Y355610D01*
X362576Y343916D01*
X385964Y343916D02*
X385964Y367304D01*
X385964Y343916D02*
X374270Y343916D01*
X370372Y347814D01*
X370372Y355610D01*
X374270Y359508D01*
X385964Y359508D01*
D10*
X267589Y534289D02*
X267589Y554372D01*
X274283Y540983D02*
X267589Y534289D01*
X274283Y540983D02*
X280978Y534289D01*
X280978Y554372D01*
X291050Y534289D02*
X297744Y534289D01*
X291050Y534289D02*
X287703Y537636D01*
X287703Y544331D01*
X291050Y547678D01*
X297744Y547678D01*
X301091Y544331D01*
X301091Y540983D01*
X287703Y540983D01*
X307816Y534289D02*
X307816Y547678D01*
X311164Y547678D01*
X314511Y544331D01*
X314511Y534289D01*
X314511Y544331D02*
X317858Y547678D01*
X321205Y544331D01*
X321205Y534289D01*
X331277Y534289D02*
X337972Y534289D01*
X341319Y537636D01*
X341319Y544331D01*
X337972Y547678D01*
X331277Y547678D01*
X327930Y544331D01*
X327930Y537636D01*
X331277Y534289D01*
X348044Y534289D02*
X358085Y534289D01*
X361432Y537636D01*
X358085Y540983D01*
X351391Y540983D01*
X348044Y544331D01*
X351391Y547678D01*
X361432Y547678D01*
D11*
X209550Y419100D02*
X196850Y419100D01*
X196850Y622300D02*
X209550Y622300D01*
X425450Y622300D02*
X438150Y622300D01*
X438150Y419100D02*
X425450Y419100D01*
X266700Y311150D02*
X266700Y298450D01*
X368300Y298450D02*
X368300Y311150D01*
D12*
X331470Y723900D02*
X227330Y723900D01*
X227330Y882650D02*
X331470Y882650D01*
X331470Y848360D02*
X331470Y723900D01*
X331470Y848360D02*
X322580Y848360D01*
X322580Y863600D01*
X331470Y863600D01*
X331470Y882650D01*
X227330Y848360D02*
X227330Y723900D01*
X227330Y848360D02*
X236220Y848360D01*
X236220Y863600D01*
X227330Y863600D01*
X227330Y882650D01*
D13*
X233680Y730250D02*
X325120Y730250D01*
X325120Y812800D01*
X233680Y812800D01*
X233680Y730250D01*
D12*
X261366Y848360D02*
X261371Y848803D01*
X261388Y849245D01*
X261415Y849687D01*
X261453Y850128D01*
X261502Y850568D01*
X261561Y851006D01*
X261632Y851443D01*
X261713Y851878D01*
X261804Y852311D01*
X261906Y852742D01*
X262019Y853170D01*
X262143Y853595D01*
X262276Y854017D01*
X262420Y854435D01*
X262574Y854850D01*
X262739Y855261D01*
X262913Y855668D01*
X263097Y856071D01*
X263292Y856468D01*
X263495Y856861D01*
X263709Y857249D01*
X263932Y857631D01*
X264164Y858008D01*
X264405Y858379D01*
X264656Y858744D01*
X264915Y859103D01*
X265183Y859455D01*
X265460Y859801D01*
X265744Y860139D01*
X266038Y860471D01*
X266339Y860795D01*
X266648Y861112D01*
X266965Y861421D01*
X267289Y861722D01*
X267621Y862016D01*
X267959Y862300D01*
X268305Y862577D01*
X268657Y862845D01*
X269016Y863104D01*
X269381Y863355D01*
X269752Y863596D01*
X270129Y863828D01*
X270511Y864051D01*
X270899Y864265D01*
X271292Y864468D01*
X271689Y864663D01*
X272092Y864847D01*
X272499Y865021D01*
X272910Y865186D01*
X273325Y865340D01*
X273743Y865484D01*
X274165Y865617D01*
X274590Y865741D01*
X275018Y865854D01*
X275449Y865956D01*
X275882Y866047D01*
X276317Y866128D01*
X276754Y866199D01*
X277192Y866258D01*
X277632Y866307D01*
X278073Y866345D01*
X278515Y866372D01*
X278957Y866389D01*
X279400Y866394D01*
X279843Y866389D01*
X280285Y866372D01*
X280727Y866345D01*
X281168Y866307D01*
X281608Y866258D01*
X282046Y866199D01*
X282483Y866128D01*
X282918Y866047D01*
X283351Y865956D01*
X283782Y865854D01*
X284210Y865741D01*
X284635Y865617D01*
X285057Y865484D01*
X285475Y865340D01*
X285890Y865186D01*
X286301Y865021D01*
X286708Y864847D01*
X287111Y864663D01*
X287508Y864468D01*
X287901Y864265D01*
X288289Y864051D01*
X288671Y863828D01*
X289048Y863596D01*
X289419Y863355D01*
X289784Y863104D01*
X290143Y862845D01*
X290495Y862577D01*
X290841Y862300D01*
X291179Y862016D01*
X291511Y861722D01*
X291835Y861421D01*
X292152Y861112D01*
X292461Y860795D01*
X292762Y860471D01*
X293056Y860139D01*
X293340Y859801D01*
X293617Y859455D01*
X293885Y859103D01*
X294144Y858744D01*
X294395Y858379D01*
X294636Y858008D01*
X294868Y857631D01*
X295091Y857249D01*
X295305Y856861D01*
X295508Y856468D01*
X295703Y856071D01*
X295887Y855668D01*
X296061Y855261D01*
X296226Y854850D01*
X296380Y854435D01*
X296524Y854017D01*
X296657Y853595D01*
X296781Y853170D01*
X296894Y852742D01*
X296996Y852311D01*
X297087Y851878D01*
X297168Y851443D01*
X297239Y851006D01*
X297298Y850568D01*
X297347Y850128D01*
X297385Y849687D01*
X297412Y849245D01*
X297429Y848803D01*
X297434Y848360D01*
X297429Y847917D01*
X297412Y847475D01*
X297385Y847033D01*
X297347Y846592D01*
X297298Y846152D01*
X297239Y845714D01*
X297168Y845277D01*
X297087Y844842D01*
X296996Y844409D01*
X296894Y843978D01*
X296781Y843550D01*
X296657Y843125D01*
X296524Y842703D01*
X296380Y842285D01*
X296226Y841870D01*
X296061Y841459D01*
X295887Y841052D01*
X295703Y840649D01*
X295508Y840252D01*
X295305Y839859D01*
X295091Y839471D01*
X294868Y839089D01*
X294636Y838712D01*
X294395Y838341D01*
X294144Y837976D01*
X293885Y837617D01*
X293617Y837265D01*
X293340Y836919D01*
X293056Y836581D01*
X292762Y836249D01*
X292461Y835925D01*
X292152Y835608D01*
X291835Y835299D01*
X291511Y834998D01*
X291179Y834704D01*
X290841Y834420D01*
X290495Y834143D01*
X290143Y833875D01*
X289784Y833616D01*
X289419Y833365D01*
X289048Y833124D01*
X288671Y832892D01*
X288289Y832669D01*
X287901Y832455D01*
X287508Y832252D01*
X287111Y832057D01*
X286708Y831873D01*
X286301Y831699D01*
X285890Y831534D01*
X285475Y831380D01*
X285057Y831236D01*
X284635Y831103D01*
X284210Y830979D01*
X283782Y830866D01*
X283351Y830764D01*
X282918Y830673D01*
X282483Y830592D01*
X282046Y830521D01*
X281608Y830462D01*
X281168Y830413D01*
X280727Y830375D01*
X280285Y830348D01*
X279843Y830331D01*
X279400Y830326D01*
X278957Y830331D01*
X278515Y830348D01*
X278073Y830375D01*
X277632Y830413D01*
X277192Y830462D01*
X276754Y830521D01*
X276317Y830592D01*
X275882Y830673D01*
X275449Y830764D01*
X275018Y830866D01*
X274590Y830979D01*
X274165Y831103D01*
X273743Y831236D01*
X273325Y831380D01*
X272910Y831534D01*
X272499Y831699D01*
X272092Y831873D01*
X271689Y832057D01*
X271292Y832252D01*
X270899Y832455D01*
X270511Y832669D01*
X270129Y832892D01*
X269752Y833124D01*
X269381Y833365D01*
X269016Y833616D01*
X268657Y833875D01*
X268305Y834143D01*
X267959Y834420D01*
X267621Y834704D01*
X267289Y834998D01*
X266965Y835299D01*
X266648Y835608D01*
X266339Y835925D01*
X266038Y836249D01*
X265744Y836581D01*
X265460Y836919D01*
X265183Y837265D01*
X264915Y837617D01*
X264656Y837976D01*
X264405Y838341D01*
X264164Y838712D01*
X263932Y839089D01*
X263709Y839471D01*
X263495Y839859D01*
X263292Y840252D01*
X263097Y840649D01*
X262913Y841052D01*
X262739Y841459D01*
X262574Y841870D01*
X262420Y842285D01*
X262276Y842703D01*
X262143Y843125D01*
X262019Y843550D01*
X261906Y843978D01*
X261804Y844409D01*
X261713Y844842D01*
X261632Y845277D01*
X261561Y845714D01*
X261502Y846152D01*
X261453Y846592D01*
X261415Y847033D01*
X261388Y847475D01*
X261371Y847917D01*
X261366Y848360D01*
D14*
X235458Y821780D02*
X235458Y815848D01*
X235458Y821780D02*
X238424Y824746D01*
X241390Y821780D01*
X241390Y815848D01*
X241390Y820297D02*
X235458Y820297D01*
X244579Y821780D02*
X247545Y824746D01*
X247545Y815848D01*
X244579Y815848D02*
X250511Y815848D01*
X253701Y824746D02*
X259632Y824746D01*
X253701Y824746D02*
X253701Y820297D01*
X256666Y821780D01*
X258149Y821780D01*
X259632Y820297D01*
X259632Y817331D01*
X258149Y815848D01*
X255184Y815848D01*
X253701Y817331D01*
X262822Y812882D02*
X265788Y815848D01*
X265788Y817331D01*
X264305Y817331D01*
X264305Y815848D01*
X265788Y815848D01*
X268903Y815848D02*
X274835Y815848D01*
X268903Y815848D02*
X274835Y821780D01*
X274835Y823263D01*
X273352Y824746D01*
X270386Y824746D01*
X268903Y823263D01*
X278024Y821780D02*
X278024Y815848D01*
X278024Y821780D02*
X279507Y821780D01*
X280990Y820297D01*
X280990Y815848D01*
X280990Y820297D02*
X282473Y821780D01*
X283956Y820297D01*
X283956Y815848D01*
X287145Y815848D02*
X287145Y821780D01*
X288628Y821780D01*
X290111Y820297D01*
X290111Y815848D01*
X290111Y820297D02*
X291594Y821780D01*
X293077Y820297D01*
X293077Y815848D01*
D15*
X304800Y719455D03*
X279400Y719455D03*
X254000Y719455D03*
D11*
X400050Y690880D02*
X412750Y690880D01*
X386600Y673100D02*
X386610Y673898D01*
X386639Y674695D01*
X386688Y675491D01*
X386756Y676286D01*
X386844Y677078D01*
X386952Y677869D01*
X387078Y678656D01*
X387224Y679440D01*
X387390Y680221D01*
X387574Y680997D01*
X387777Y681768D01*
X387999Y682534D01*
X388240Y683295D01*
X388500Y684049D01*
X388778Y684797D01*
X389074Y685537D01*
X389388Y686270D01*
X389720Y686996D01*
X390070Y687712D01*
X390438Y688420D01*
X390822Y689119D01*
X391224Y689808D01*
X391642Y690487D01*
X392077Y691156D01*
X392528Y691814D01*
X392996Y692460D01*
X393479Y693095D01*
X393977Y693718D01*
X394491Y694328D01*
X395019Y694926D01*
X395562Y695510D01*
X396119Y696081D01*
X396690Y696638D01*
X397274Y697181D01*
X397872Y697709D01*
X398482Y698223D01*
X399105Y698721D01*
X399740Y699204D01*
X400386Y699672D01*
X401044Y700123D01*
X401713Y700558D01*
X402392Y700976D01*
X403081Y701378D01*
X403780Y701762D01*
X404488Y702130D01*
X405204Y702480D01*
X405930Y702812D01*
X406663Y703126D01*
X407403Y703422D01*
X408151Y703700D01*
X408905Y703960D01*
X409666Y704201D01*
X410432Y704423D01*
X411203Y704626D01*
X411979Y704810D01*
X412760Y704976D01*
X413544Y705122D01*
X414331Y705248D01*
X415122Y705356D01*
X415914Y705444D01*
X416709Y705512D01*
X417505Y705561D01*
X418302Y705590D01*
X419100Y705600D01*
X419898Y705590D01*
X420695Y705561D01*
X421491Y705512D01*
X422286Y705444D01*
X423078Y705356D01*
X423869Y705248D01*
X424656Y705122D01*
X425440Y704976D01*
X426221Y704810D01*
X426997Y704626D01*
X427768Y704423D01*
X428534Y704201D01*
X429295Y703960D01*
X430049Y703700D01*
X430797Y703422D01*
X431537Y703126D01*
X432270Y702812D01*
X432996Y702480D01*
X433712Y702130D01*
X434420Y701762D01*
X435119Y701378D01*
X435808Y700976D01*
X436487Y700558D01*
X437156Y700123D01*
X437814Y699672D01*
X438460Y699204D01*
X439095Y698721D01*
X439718Y698223D01*
X440328Y697709D01*
X440926Y697181D01*
X441510Y696638D01*
X442081Y696081D01*
X442638Y695510D01*
X443181Y694926D01*
X443709Y694328D01*
X444223Y693718D01*
X444721Y693095D01*
X445204Y692460D01*
X445672Y691814D01*
X446123Y691156D01*
X446558Y690487D01*
X446976Y689808D01*
X447378Y689119D01*
X447762Y688420D01*
X448130Y687712D01*
X448480Y686996D01*
X448812Y686270D01*
X449126Y685537D01*
X449422Y684797D01*
X449700Y684049D01*
X449960Y683295D01*
X450201Y682534D01*
X450423Y681768D01*
X450626Y680997D01*
X450810Y680221D01*
X450976Y679440D01*
X451122Y678656D01*
X451248Y677869D01*
X451356Y677078D01*
X451444Y676286D01*
X451512Y675491D01*
X451561Y674695D01*
X451590Y673898D01*
X451600Y673100D01*
X451590Y672302D01*
X451561Y671505D01*
X451512Y670709D01*
X451444Y669914D01*
X451356Y669122D01*
X451248Y668331D01*
X451122Y667544D01*
X450976Y666760D01*
X450810Y665979D01*
X450626Y665203D01*
X450423Y664432D01*
X450201Y663666D01*
X449960Y662905D01*
X449700Y662151D01*
X449422Y661403D01*
X449126Y660663D01*
X448812Y659930D01*
X448480Y659204D01*
X448130Y658488D01*
X447762Y657780D01*
X447378Y657081D01*
X446976Y656392D01*
X446558Y655713D01*
X446123Y655044D01*
X445672Y654386D01*
X445204Y653740D01*
X444721Y653105D01*
X444223Y652482D01*
X443709Y651872D01*
X443181Y651274D01*
X442638Y650690D01*
X442081Y650119D01*
X441510Y649562D01*
X440926Y649019D01*
X440328Y648491D01*
X439718Y647977D01*
X439095Y647479D01*
X438460Y646996D01*
X437814Y646528D01*
X437156Y646077D01*
X436487Y645642D01*
X435808Y645224D01*
X435119Y644822D01*
X434420Y644438D01*
X433712Y644070D01*
X432996Y643720D01*
X432270Y643388D01*
X431537Y643074D01*
X430797Y642778D01*
X430049Y642500D01*
X429295Y642240D01*
X428534Y641999D01*
X427768Y641777D01*
X426997Y641574D01*
X426221Y641390D01*
X425440Y641224D01*
X424656Y641078D01*
X423869Y640952D01*
X423078Y640844D01*
X422286Y640756D01*
X421491Y640688D01*
X420695Y640639D01*
X419898Y640610D01*
X419100Y640600D01*
X418302Y640610D01*
X417505Y640639D01*
X416709Y640688D01*
X415914Y640756D01*
X415122Y640844D01*
X414331Y640952D01*
X413544Y641078D01*
X412760Y641224D01*
X411979Y641390D01*
X411203Y641574D01*
X410432Y641777D01*
X409666Y641999D01*
X408905Y642240D01*
X408151Y642500D01*
X407403Y642778D01*
X406663Y643074D01*
X405930Y643388D01*
X405204Y643720D01*
X404488Y644070D01*
X403780Y644438D01*
X403081Y644822D01*
X402392Y645224D01*
X401713Y645642D01*
X401044Y646077D01*
X400386Y646528D01*
X399740Y646996D01*
X399105Y647479D01*
X398482Y647977D01*
X397872Y648491D01*
X397274Y649019D01*
X396690Y649562D01*
X396119Y650119D01*
X395562Y650690D01*
X395019Y651274D01*
X394491Y651872D01*
X393977Y652482D01*
X393479Y653105D01*
X392996Y653740D01*
X392528Y654386D01*
X392077Y655044D01*
X391642Y655713D01*
X391224Y656392D01*
X390822Y657081D01*
X390438Y657780D01*
X390070Y658488D01*
X389720Y659204D01*
X389388Y659930D01*
X389074Y660663D01*
X388778Y661403D01*
X388500Y662151D01*
X388240Y662905D01*
X387999Y663666D01*
X387777Y664432D01*
X387574Y665203D01*
X387390Y665979D01*
X387224Y666760D01*
X387078Y667544D01*
X386952Y668331D01*
X386844Y669122D01*
X386756Y669914D01*
X386688Y670709D01*
X386639Y671505D01*
X386610Y672302D01*
X386600Y673100D01*
X425450Y690880D02*
X438150Y690880D01*
X431800Y697230D02*
X431800Y684530D01*
M02*
