G04 EAGLE Gerber RS-274X export*
G75*
%MOMM*%
%FSLAX34Y34*%
%LPD*%
%INSoldermask Top*%
%IPPOS*%
%AMOC8*
5,1,8,0,0,1.08239X$1,22.5*%
G01*
%ADD10C,1.981200*%
%ADD11C,1.625600*%
%ADD12C,3.403600*%
%ADD13C,1.752600*%
%ADD14R,1.752600X1.752600*%
%ADD15P,1.539592X8X112.500000*%
%ADD16C,1.501600*%
%ADD17C,1.981200*%


D10*
X212598Y431800D02*
X193802Y431800D01*
X193802Y457200D02*
X212598Y457200D01*
X212598Y482600D02*
X193802Y482600D01*
X193802Y508000D02*
X212598Y508000D01*
X212598Y533400D02*
X193802Y533400D01*
X193802Y558800D02*
X212598Y558800D01*
X212598Y584200D02*
X193802Y584200D01*
X193802Y609600D02*
X212598Y609600D01*
X422402Y609600D02*
X441198Y609600D01*
X441198Y584200D02*
X422402Y584200D01*
X422402Y558800D02*
X441198Y558800D01*
X441198Y533400D02*
X422402Y533400D01*
X422402Y508000D02*
X441198Y508000D01*
X441198Y482600D02*
X422402Y482600D01*
X422402Y457200D02*
X441198Y457200D01*
X441198Y431800D02*
X422402Y431800D01*
X317500Y314198D02*
X317500Y295402D01*
X342900Y295402D02*
X342900Y314198D01*
X368300Y314198D02*
X368300Y295402D01*
X393700Y295402D02*
X393700Y314198D01*
D11*
X381000Y754380D02*
X381000Y769620D01*
X406400Y769620D02*
X406400Y754380D01*
X431800Y754380D02*
X431800Y769620D01*
D12*
X406400Y911860D03*
D13*
X419100Y660600D03*
D14*
X419100Y685600D03*
D15*
X330200Y787400D03*
X311150Y774700D03*
X330200Y762000D03*
D16*
X190500Y774700D03*
X292100Y774700D03*
X228600Y723900D03*
X330200Y723900D03*
D17*
X254000Y304800D03*
X228600Y304800D03*
M02*
