G04 EAGLE Gerber RS-274X export*
G75*
%MOMM*%
%FSLAX34Y34*%
%LPD*%
%INTop Copper*%
%IPPOS*%
%AMOC8*
5,1,8,0,0,1.08239X$1,22.5*%
G01*
%ADD10C,1.879600*%
%ADD11C,0.254000*%
%ADD12C,1.066800*%


D10*
X381000Y812800D03*
X406400Y812800D03*
X431800Y812800D03*
X457200Y812800D03*
X482600Y812800D03*
X508000Y812800D03*
X533400Y812800D03*
X558800Y812800D03*
X584200Y812800D03*
X609600Y812800D03*
X635000Y812800D03*
X660400Y812800D03*
X660400Y660400D03*
X635000Y660400D03*
X609600Y660400D03*
X584200Y660400D03*
X558800Y660400D03*
X533400Y660400D03*
X508000Y660400D03*
X482600Y660400D03*
X457200Y660400D03*
X431800Y660400D03*
X406400Y660400D03*
X381000Y660400D03*
X685800Y673100D03*
X685800Y698500D03*
X685800Y723900D03*
X685800Y749300D03*
X685800Y774700D03*
X685800Y800100D03*
X327660Y754380D03*
X327660Y728980D03*
X327660Y703580D03*
X546100Y685800D03*
X571500Y685800D03*
X302260Y754380D03*
X302260Y728980D03*
X302260Y703580D03*
X276860Y754380D03*
X276860Y728980D03*
X276860Y703580D03*
X251460Y754380D03*
X251460Y728980D03*
X251460Y703580D03*
X226060Y754380D03*
X226060Y728980D03*
X226060Y703580D03*
X200660Y754380D03*
X200660Y728980D03*
X200660Y703580D03*
X139700Y795020D03*
X139700Y769620D03*
X139700Y744220D03*
X139700Y718820D03*
X139700Y693420D03*
X139700Y668020D03*
X139700Y642620D03*
X139700Y617220D03*
D11*
X584200Y812800D02*
X666750Y730250D01*
X666750Y717550D01*
X685800Y698500D01*
X323850Y704850D02*
X304800Y704850D01*
X302260Y703580D01*
X323850Y704850D02*
X327660Y703580D01*
X273050Y704850D02*
X254000Y704850D01*
X251460Y703580D01*
X273050Y704850D02*
X276860Y703580D01*
X247650Y704850D02*
X228600Y704850D01*
X247650Y704850D02*
X251460Y703580D01*
X228600Y704850D02*
X226060Y703580D01*
X279400Y704850D02*
X298450Y704850D01*
X302260Y703580D01*
X279400Y704850D02*
X276860Y703580D01*
X635000Y800100D02*
X685800Y749300D01*
X635000Y800100D02*
X635000Y812800D01*
X660400Y800100D02*
X685800Y774700D01*
X660400Y800100D02*
X660400Y812800D01*
X533400Y793750D02*
X425450Y793750D01*
X533400Y793750D02*
X533400Y812800D01*
D12*
X425450Y793750D03*
D11*
X139700Y742950D02*
X107950Y711200D01*
X107950Y603250D01*
X120650Y590550D01*
X558800Y590550D01*
X558800Y660400D01*
X139700Y742950D02*
X139700Y744220D01*
X139700Y717550D02*
X114300Y692150D01*
X114300Y609600D01*
X127000Y596900D01*
X533400Y596900D01*
X533400Y660400D01*
X139700Y717550D02*
X139700Y718820D01*
X139700Y692150D02*
X120650Y673100D01*
X120650Y615950D01*
X133350Y603250D01*
X508000Y603250D01*
X508000Y660400D01*
X139700Y692150D02*
X139700Y693420D01*
X139700Y666750D02*
X361950Y666750D01*
X361950Y660400D01*
X381000Y641350D01*
X482600Y641350D01*
X482600Y660400D01*
X139700Y666750D02*
X139700Y668020D01*
X228600Y755650D02*
X241300Y768350D01*
X381000Y768350D01*
X381000Y660400D01*
X228600Y755650D02*
X226060Y754380D01*
X222250Y774700D02*
X203200Y755650D01*
X222250Y774700D02*
X406400Y774700D01*
X406400Y660400D01*
X203200Y755650D02*
X200660Y754380D01*
X209550Y774700D02*
X139700Y774700D01*
X209550Y774700D02*
X215900Y781050D01*
X546100Y781050D01*
X546100Y685800D01*
X139700Y769620D02*
X139700Y774700D01*
M02*
