G04 EAGLE Gerber RS-274X export*
G75*
%MOMM*%
%FSLAX34Y34*%
%LPD*%
%INSilkscreen Top*%
%IPPOS*%
%AMOC8*
5,1,8,0,0,1.08239X$1,22.5*%
G01*
%ADD10C,0.152400*%
%ADD11C,0.203200*%


D10*
X335205Y790717D02*
X323342Y790717D01*
X323342Y781820D01*
X329274Y784785D01*
X332240Y784785D01*
X335205Y781820D01*
X335205Y775888D01*
X332240Y772922D01*
X326308Y772922D01*
X323342Y775888D01*
X309805Y790717D02*
X303874Y787751D01*
X297942Y781820D01*
X297942Y775888D01*
X300908Y772922D01*
X306840Y772922D01*
X309805Y775888D01*
X309805Y778854D01*
X306840Y781820D01*
X297942Y781820D01*
X275508Y790717D02*
X272542Y787751D01*
X275508Y790717D02*
X281440Y790717D01*
X284405Y787751D01*
X284405Y784785D01*
X281440Y781820D01*
X278474Y781820D01*
X281440Y781820D02*
X284405Y778854D01*
X284405Y775888D01*
X281440Y772922D01*
X275508Y772922D01*
X272542Y775888D01*
X250108Y772922D02*
X247142Y775888D01*
X250108Y772922D02*
X256040Y772922D01*
X259005Y775888D01*
X259005Y787751D01*
X256040Y790717D01*
X250108Y790717D01*
X247142Y787751D01*
X247142Y784785D01*
X250108Y781820D01*
X259005Y781820D01*
X225119Y762772D02*
X219187Y768704D01*
X236982Y768704D01*
X236982Y762772D02*
X236982Y774636D01*
X234016Y780547D02*
X222153Y780547D01*
X219187Y783513D01*
X219187Y789445D01*
X222153Y792411D01*
X234016Y792411D01*
X236982Y789445D01*
X236982Y783513D01*
X234016Y780547D01*
X222153Y792411D01*
X197179Y762772D02*
X191247Y768704D01*
X209042Y768704D01*
X209042Y762772D02*
X209042Y774636D01*
X197179Y780547D02*
X191247Y786479D01*
X209042Y786479D01*
X209042Y780547D02*
X209042Y792411D01*
X177300Y628157D02*
X180265Y625191D01*
X177300Y628157D02*
X171368Y628157D01*
X168402Y625191D01*
X168402Y613328D01*
X171368Y610362D01*
X177300Y610362D01*
X180265Y613328D01*
X180265Y619260D01*
X174334Y619260D01*
X186177Y628157D02*
X186177Y610362D01*
X198040Y610362D02*
X186177Y628157D01*
X198040Y628157D02*
X198040Y610362D01*
X203952Y610362D02*
X203952Y628157D01*
X203952Y610362D02*
X212849Y610362D01*
X215815Y613328D01*
X215815Y625191D01*
X212849Y628157D01*
X203952Y628157D01*
X170942Y644234D02*
X170942Y656097D01*
X170942Y644234D02*
X176874Y638302D01*
X182805Y644234D01*
X182805Y656097D01*
X197614Y656097D02*
X200580Y653131D01*
X197614Y656097D02*
X191683Y656097D01*
X188717Y653131D01*
X188717Y641268D01*
X191683Y638302D01*
X197614Y638302D01*
X200580Y641268D01*
X215389Y656097D02*
X218355Y653131D01*
X215389Y656097D02*
X209458Y656097D01*
X206492Y653131D01*
X206492Y641268D01*
X209458Y638302D01*
X215389Y638302D01*
X218355Y641268D01*
X165862Y658622D02*
X165862Y670485D01*
X171794Y676417D01*
X177725Y670485D01*
X177725Y658622D01*
X177725Y667520D02*
X165862Y667520D01*
X183637Y661588D02*
X183637Y673451D01*
X186603Y676417D01*
X192534Y676417D01*
X195500Y673451D01*
X195500Y661588D01*
X192534Y658622D01*
X186603Y658622D01*
X183637Y661588D01*
X195500Y673451D01*
X163322Y793242D02*
X163322Y805105D01*
X169254Y811037D01*
X175185Y805105D01*
X175185Y793242D01*
X175185Y802140D02*
X163322Y802140D01*
X181097Y811037D02*
X192960Y811037D01*
X181097Y811037D02*
X181097Y802140D01*
X187029Y805105D01*
X189994Y805105D01*
X192960Y802140D01*
X192960Y796208D01*
X189994Y793242D01*
X184063Y793242D01*
X181097Y796208D01*
D11*
X527050Y825500D02*
X539750Y825500D01*
X546100Y819150D01*
X546100Y806450D02*
X539750Y800100D01*
X501650Y825500D02*
X495300Y819150D01*
X501650Y825500D02*
X514350Y825500D01*
X520700Y819150D01*
X520700Y806450D02*
X514350Y800100D01*
X501650Y800100D01*
X495300Y806450D01*
X520700Y819150D02*
X527050Y825500D01*
X520700Y806450D02*
X527050Y800100D01*
X539750Y800100D01*
X463550Y825500D02*
X450850Y825500D01*
X463550Y825500D02*
X469900Y819150D01*
X469900Y806450D02*
X463550Y800100D01*
X469900Y819150D02*
X476250Y825500D01*
X488950Y825500D01*
X495300Y819150D01*
X495300Y806450D02*
X488950Y800100D01*
X476250Y800100D01*
X469900Y806450D01*
X425450Y825500D02*
X419100Y819150D01*
X425450Y825500D02*
X438150Y825500D01*
X444500Y819150D01*
X444500Y806450D02*
X438150Y800100D01*
X425450Y800100D01*
X419100Y806450D01*
X444500Y819150D02*
X450850Y825500D01*
X444500Y806450D02*
X450850Y800100D01*
X463550Y800100D01*
X387350Y825500D02*
X374650Y825500D01*
X387350Y825500D02*
X393700Y819150D01*
X393700Y806450D02*
X387350Y800100D01*
X393700Y819150D02*
X400050Y825500D01*
X412750Y825500D01*
X419100Y819150D01*
X419100Y806450D02*
X412750Y800100D01*
X400050Y800100D01*
X393700Y806450D01*
X368300Y806450D02*
X368300Y819150D01*
X374650Y825500D01*
X368300Y806450D02*
X374650Y800100D01*
X387350Y800100D01*
X552450Y825500D02*
X565150Y825500D01*
X571500Y819150D01*
X571500Y806450D02*
X565150Y800100D01*
X546100Y819150D02*
X552450Y825500D01*
X546100Y806450D02*
X552450Y800100D01*
X565150Y800100D01*
X577850Y825500D02*
X590550Y825500D01*
X596900Y819150D01*
X596900Y806450D02*
X590550Y800100D01*
X571500Y819150D02*
X577850Y825500D01*
X571500Y806450D02*
X577850Y800100D01*
X590550Y800100D01*
X603250Y825500D02*
X615950Y825500D01*
X622300Y819150D01*
X622300Y806450D02*
X615950Y800100D01*
X596900Y819150D02*
X603250Y825500D01*
X596900Y806450D02*
X603250Y800100D01*
X615950Y800100D01*
X628650Y825500D02*
X641350Y825500D01*
X647700Y819150D01*
X647700Y806450D02*
X641350Y800100D01*
X622300Y819150D02*
X628650Y825500D01*
X622300Y806450D02*
X628650Y800100D01*
X641350Y800100D01*
X654050Y825500D02*
X666750Y825500D01*
X673100Y819150D01*
X673100Y806450D01*
X666750Y800100D01*
X647700Y819150D02*
X654050Y825500D01*
X647700Y806450D02*
X654050Y800100D01*
X666750Y800100D01*
X514350Y647700D02*
X501650Y647700D01*
X495300Y654050D01*
X495300Y666750D02*
X501650Y673100D01*
X539750Y647700D02*
X546100Y654050D01*
X539750Y647700D02*
X527050Y647700D01*
X520700Y654050D01*
X520700Y666750D02*
X527050Y673100D01*
X539750Y673100D01*
X546100Y666750D01*
X520700Y654050D02*
X514350Y647700D01*
X520700Y666750D02*
X514350Y673100D01*
X501650Y673100D01*
X577850Y647700D02*
X590550Y647700D01*
X577850Y647700D02*
X571500Y654050D01*
X571500Y666750D02*
X577850Y673100D01*
X571500Y654050D02*
X565150Y647700D01*
X552450Y647700D01*
X546100Y654050D01*
X546100Y666750D02*
X552450Y673100D01*
X565150Y673100D01*
X571500Y666750D01*
X615950Y647700D02*
X622300Y654050D01*
X615950Y647700D02*
X603250Y647700D01*
X596900Y654050D01*
X596900Y666750D02*
X603250Y673100D01*
X615950Y673100D01*
X622300Y666750D01*
X596900Y654050D02*
X590550Y647700D01*
X596900Y666750D02*
X590550Y673100D01*
X577850Y673100D01*
X654050Y647700D02*
X666750Y647700D01*
X654050Y647700D02*
X647700Y654050D01*
X647700Y666750D02*
X654050Y673100D01*
X647700Y654050D02*
X641350Y647700D01*
X628650Y647700D01*
X622300Y654050D01*
X622300Y666750D02*
X628650Y673100D01*
X641350Y673100D01*
X647700Y666750D01*
X673100Y666750D02*
X673100Y654050D01*
X666750Y647700D01*
X673100Y666750D02*
X666750Y673100D01*
X654050Y673100D01*
X488950Y647700D02*
X476250Y647700D01*
X469900Y654050D01*
X469900Y666750D02*
X476250Y673100D01*
X495300Y654050D02*
X488950Y647700D01*
X495300Y666750D02*
X488950Y673100D01*
X476250Y673100D01*
X463550Y647700D02*
X450850Y647700D01*
X444500Y654050D01*
X444500Y666750D02*
X450850Y673100D01*
X469900Y654050D02*
X463550Y647700D01*
X469900Y666750D02*
X463550Y673100D01*
X450850Y673100D01*
X438150Y647700D02*
X425450Y647700D01*
X419100Y654050D01*
X419100Y666750D02*
X425450Y673100D01*
X444500Y654050D02*
X438150Y647700D01*
X444500Y666750D02*
X438150Y673100D01*
X425450Y673100D01*
X412750Y647700D02*
X400050Y647700D01*
X393700Y654050D01*
X393700Y666750D02*
X400050Y673100D01*
X419100Y654050D02*
X412750Y647700D01*
X419100Y666750D02*
X412750Y673100D01*
X400050Y673100D01*
X387350Y647700D02*
X374650Y647700D01*
X368300Y654050D01*
X368300Y666750D01*
X374650Y673100D01*
X393700Y654050D02*
X387350Y647700D01*
X393700Y666750D02*
X387350Y673100D01*
X374650Y673100D01*
X673100Y793750D02*
X679450Y787400D01*
X673100Y793750D02*
X673100Y806450D01*
X679450Y812800D01*
X692150Y812800D02*
X698500Y806450D01*
X698500Y793750D01*
X692150Y787400D01*
X673100Y755650D02*
X673100Y742950D01*
X673100Y755650D02*
X679450Y762000D01*
X692150Y762000D02*
X698500Y755650D01*
X679450Y762000D02*
X673100Y768350D01*
X673100Y781050D01*
X679450Y787400D01*
X692150Y787400D02*
X698500Y781050D01*
X698500Y768350D01*
X692150Y762000D01*
X673100Y717550D02*
X679450Y711200D01*
X673100Y717550D02*
X673100Y730250D01*
X679450Y736600D01*
X692150Y736600D02*
X698500Y730250D01*
X698500Y717550D01*
X692150Y711200D01*
X679450Y736600D02*
X673100Y742950D01*
X692150Y736600D02*
X698500Y742950D01*
X698500Y755650D01*
X673100Y679450D02*
X673100Y666750D01*
X673100Y679450D02*
X679450Y685800D01*
X692150Y685800D02*
X698500Y679450D01*
X679450Y685800D02*
X673100Y692150D01*
X673100Y704850D01*
X679450Y711200D01*
X692150Y711200D02*
X698500Y704850D01*
X698500Y692150D01*
X692150Y685800D01*
X692150Y660400D02*
X679450Y660400D01*
X673100Y666750D01*
X692150Y660400D02*
X698500Y666750D01*
X698500Y679450D01*
X692150Y812800D02*
X679450Y812800D01*
X340360Y709930D02*
X334010Y716280D01*
X340360Y709930D02*
X340360Y697230D01*
X334010Y690880D01*
X321310Y690880D02*
X314960Y697230D01*
X314960Y709930D01*
X321310Y716280D01*
X340360Y748030D02*
X340360Y760730D01*
X340360Y748030D02*
X334010Y741680D01*
X321310Y741680D02*
X314960Y748030D01*
X334010Y741680D02*
X340360Y735330D01*
X340360Y722630D01*
X334010Y716280D01*
X321310Y716280D02*
X314960Y722630D01*
X314960Y735330D01*
X321310Y741680D01*
X321310Y767080D02*
X334010Y767080D01*
X340360Y760730D01*
X321310Y767080D02*
X314960Y760730D01*
X314960Y748030D01*
X321310Y690880D02*
X334010Y690880D01*
X539750Y698500D02*
X552450Y698500D01*
X558800Y692150D01*
X558800Y679450D02*
X552450Y673100D01*
X558800Y692150D02*
X565150Y698500D01*
X577850Y698500D01*
X584200Y692150D01*
X584200Y679450D02*
X577850Y673100D01*
X565150Y673100D01*
X558800Y679450D01*
X533400Y679450D02*
X533400Y692150D01*
X539750Y698500D01*
X533400Y679450D02*
X539750Y673100D01*
X552450Y673100D01*
X584200Y679450D02*
X584200Y692150D01*
X314960Y709930D02*
X308610Y716280D01*
X314960Y709930D02*
X314960Y697230D01*
X308610Y690880D01*
X295910Y690880D02*
X289560Y697230D01*
X289560Y709930D01*
X295910Y716280D01*
X314960Y748030D02*
X314960Y760730D01*
X314960Y748030D02*
X308610Y741680D01*
X295910Y741680D02*
X289560Y748030D01*
X308610Y741680D02*
X314960Y735330D01*
X314960Y722630D01*
X308610Y716280D01*
X295910Y716280D02*
X289560Y722630D01*
X289560Y735330D01*
X295910Y741680D01*
X295910Y767080D02*
X308610Y767080D01*
X314960Y760730D01*
X295910Y767080D02*
X289560Y760730D01*
X289560Y748030D01*
X295910Y690880D02*
X308610Y690880D01*
X289560Y709930D02*
X283210Y716280D01*
X289560Y709930D02*
X289560Y697230D01*
X283210Y690880D01*
X270510Y690880D02*
X264160Y697230D01*
X264160Y709930D01*
X270510Y716280D01*
X289560Y748030D02*
X289560Y760730D01*
X289560Y748030D02*
X283210Y741680D01*
X270510Y741680D02*
X264160Y748030D01*
X283210Y741680D02*
X289560Y735330D01*
X289560Y722630D01*
X283210Y716280D01*
X270510Y716280D02*
X264160Y722630D01*
X264160Y735330D01*
X270510Y741680D01*
X270510Y767080D02*
X283210Y767080D01*
X289560Y760730D01*
X270510Y767080D02*
X264160Y760730D01*
X264160Y748030D01*
X270510Y690880D02*
X283210Y690880D01*
X264160Y709930D02*
X257810Y716280D01*
X264160Y709930D02*
X264160Y697230D01*
X257810Y690880D01*
X245110Y690880D02*
X238760Y697230D01*
X238760Y709930D01*
X245110Y716280D01*
X264160Y748030D02*
X264160Y760730D01*
X264160Y748030D02*
X257810Y741680D01*
X245110Y741680D02*
X238760Y748030D01*
X257810Y741680D02*
X264160Y735330D01*
X264160Y722630D01*
X257810Y716280D01*
X245110Y716280D02*
X238760Y722630D01*
X238760Y735330D01*
X245110Y741680D01*
X245110Y767080D02*
X257810Y767080D01*
X264160Y760730D01*
X245110Y767080D02*
X238760Y760730D01*
X238760Y748030D01*
X245110Y690880D02*
X257810Y690880D01*
X238760Y709930D02*
X232410Y716280D01*
X238760Y709930D02*
X238760Y697230D01*
X232410Y690880D01*
X219710Y690880D02*
X213360Y697230D01*
X213360Y709930D01*
X219710Y716280D01*
X238760Y748030D02*
X238760Y760730D01*
X238760Y748030D02*
X232410Y741680D01*
X219710Y741680D02*
X213360Y748030D01*
X232410Y741680D02*
X238760Y735330D01*
X238760Y722630D01*
X232410Y716280D01*
X219710Y716280D02*
X213360Y722630D01*
X213360Y735330D01*
X219710Y741680D01*
X219710Y767080D02*
X232410Y767080D01*
X238760Y760730D01*
X219710Y767080D02*
X213360Y760730D01*
X213360Y748030D01*
X219710Y690880D02*
X232410Y690880D01*
X213360Y709930D02*
X207010Y716280D01*
X213360Y709930D02*
X213360Y697230D01*
X207010Y690880D01*
X194310Y690880D02*
X187960Y697230D01*
X187960Y709930D01*
X194310Y716280D01*
X213360Y748030D02*
X213360Y760730D01*
X213360Y748030D02*
X207010Y741680D01*
X194310Y741680D02*
X187960Y748030D01*
X207010Y741680D02*
X213360Y735330D01*
X213360Y722630D01*
X207010Y716280D01*
X194310Y716280D02*
X187960Y722630D01*
X187960Y735330D01*
X194310Y741680D01*
X194310Y767080D02*
X207010Y767080D01*
X213360Y760730D01*
X194310Y767080D02*
X187960Y760730D01*
X187960Y748030D01*
X194310Y690880D02*
X207010Y690880D01*
X152400Y648970D02*
X152400Y636270D01*
X146050Y629920D01*
X133350Y629920D02*
X127000Y636270D01*
X152400Y674370D02*
X146050Y680720D01*
X152400Y674370D02*
X152400Y661670D01*
X146050Y655320D01*
X133350Y655320D02*
X127000Y661670D01*
X127000Y674370D01*
X133350Y680720D01*
X146050Y655320D02*
X152400Y648970D01*
X133350Y655320D02*
X127000Y648970D01*
X127000Y636270D01*
X152400Y712470D02*
X152400Y725170D01*
X152400Y712470D02*
X146050Y706120D01*
X133350Y706120D02*
X127000Y712470D01*
X146050Y706120D02*
X152400Y699770D01*
X152400Y687070D01*
X146050Y680720D01*
X133350Y680720D02*
X127000Y687070D01*
X127000Y699770D01*
X133350Y706120D01*
X152400Y750570D02*
X146050Y756920D01*
X152400Y750570D02*
X152400Y737870D01*
X146050Y731520D01*
X133350Y731520D02*
X127000Y737870D01*
X127000Y750570D01*
X133350Y756920D01*
X146050Y731520D02*
X152400Y725170D01*
X133350Y731520D02*
X127000Y725170D01*
X127000Y712470D01*
X152400Y788670D02*
X152400Y801370D01*
X152400Y788670D02*
X146050Y782320D01*
X133350Y782320D02*
X127000Y788670D01*
X146050Y782320D02*
X152400Y775970D01*
X152400Y763270D01*
X146050Y756920D01*
X133350Y756920D02*
X127000Y763270D01*
X127000Y775970D01*
X133350Y782320D01*
X133350Y807720D02*
X146050Y807720D01*
X152400Y801370D01*
X133350Y807720D02*
X127000Y801370D01*
X127000Y788670D01*
X152400Y623570D02*
X152400Y610870D01*
X146050Y604520D01*
X133350Y604520D01*
X127000Y610870D01*
X146050Y629920D02*
X152400Y623570D01*
X133350Y629920D02*
X127000Y623570D01*
X127000Y610870D01*
M02*
