G04 EAGLE Gerber RS-274X export*
G75*
%MOMM*%
%FSLAX34Y34*%
%LPD*%
%INSoldermask Top*%
%IPPOS*%
%AMOC8*
5,1,8,0,0,1.08239X$1,22.5*%
G01*
%ADD10C,2.082800*%
%ADD11C,1.270000*%


D10*
X381000Y812800D03*
X406400Y812800D03*
X431800Y812800D03*
X457200Y812800D03*
X482600Y812800D03*
X508000Y812800D03*
X533400Y812800D03*
X558800Y812800D03*
X584200Y812800D03*
X609600Y812800D03*
X635000Y812800D03*
X660400Y812800D03*
X660400Y660400D03*
X635000Y660400D03*
X609600Y660400D03*
X584200Y660400D03*
X558800Y660400D03*
X533400Y660400D03*
X508000Y660400D03*
X482600Y660400D03*
X457200Y660400D03*
X431800Y660400D03*
X406400Y660400D03*
X381000Y660400D03*
X685800Y673100D03*
X685800Y698500D03*
X685800Y723900D03*
X685800Y749300D03*
X685800Y774700D03*
X685800Y800100D03*
X327660Y754380D03*
X327660Y728980D03*
X327660Y703580D03*
X546100Y685800D03*
X571500Y685800D03*
X302260Y754380D03*
X302260Y728980D03*
X302260Y703580D03*
X276860Y754380D03*
X276860Y728980D03*
X276860Y703580D03*
X251460Y754380D03*
X251460Y728980D03*
X251460Y703580D03*
X226060Y754380D03*
X226060Y728980D03*
X226060Y703580D03*
X200660Y754380D03*
X200660Y728980D03*
X200660Y703580D03*
X139700Y795020D03*
X139700Y769620D03*
X139700Y744220D03*
X139700Y718820D03*
X139700Y693420D03*
X139700Y668020D03*
X139700Y642620D03*
X139700Y617220D03*
D11*
X425450Y793750D03*
M02*
