M48
;GenerationSoftware,Autodesk,EAGLE,9.5.1*%
;CreationDate,2020-05-21T06:27:49Z*%
FMAT,2
ICI,OFF
METRIC,TZ,000.000
T7C0.559
T6C0.800
T5C0.813
T4C1.016
T3C1.194
T2C1.803
T1C2.000
%
G90
M71
T1
X13462Y24384
X85090Y24638
T2
X20828Y35484
X20828Y26492
X77724Y26746
X77724Y35738
X20828Y22022
X20828Y13030
X77978Y13284
X77978Y22276
T3
X14580Y33477
X83972Y28753
X71476Y28753
X27076Y28499
X14580Y28499
X71730Y20269
X27076Y33477
X71476Y33731
X83972Y33731
X27076Y20015
X14580Y20015
X27076Y15037
X14580Y15037
X71730Y15291
X84226Y15291
X84226Y20269
T4
X58928Y18542
X61468Y18542
X64008Y18542
X66548Y18542
X66548Y33782
X61468Y33782
X58928Y33782
X56388Y33782
X53848Y33782
X51308Y33782
X48768Y33782
X46228Y33782
X43688Y33782
X41148Y33782
X38608Y33782
X36068Y33782
X33528Y33782
X30988Y33782
X38608Y13462
X41148Y13462
X43688Y13462
X46228Y13462
X56388Y13462
X58928Y13462
X61468Y13462
X64008Y13462
X66548Y13462
X64008Y33782
X38608Y18542
X30988Y18542
X90932Y23876
X9144Y12700
X33528Y18542
X36068Y18542
X41148Y18542
X43688Y18542
X46228Y18542
X48768Y18542
X36068Y13462
X51308Y18542
X8382Y23114
X9144Y34544
X53848Y18542
X56388Y18542
X96012Y42672
X93472Y42672
X90932Y42672
X88392Y42672
X35560Y56388
X35560Y38608
X35560Y41148
X35560Y43688
X35560Y46228
X35560Y48768
X35560Y51308
X35560Y53848
T5
X2286Y33274
X2286Y23114
X87884Y40132
X87884Y29972
X91186Y40132
X91186Y29972
X96012Y40132
X96012Y29972
T6
X40640Y38974
X40640Y40974
X48498Y37592
X40640Y44974
X40640Y46974
X40640Y48974
X40640Y50974
X40640Y52974
X42498Y37592
X44498Y37592
X46498Y37592
X50498Y37592
X52498Y37592
X40640Y42974
T7
X34290Y30480
X42545Y24765
M30