M48
;GenerationSoftware,Autodesk,EAGLE,9.6.1*%
;CreationDate,2020-06-09T20:48:56Z*%
FMAT,2
ICI,OFF
METRIC,TZ,000.000
T7C0.559
T6C0.800
T5C0.813
T4C1.016
T3C1.194
T2C1.803
T1C2.000
%
G90
M71
T1
X13462Y24384
X85090Y24638
T2
X77978Y13284
X20828Y35484
X20828Y26492
X77724Y26746
X77724Y35738
X20828Y22022
X20828Y13030
X77978Y22276
T3
X71476Y33731
X83972Y28753
X71476Y28753
X14580Y28499
X27076Y28499
X14580Y33477
X27076Y33477
X27076Y20015
X83972Y33731
X14580Y20015
X27076Y15037
X14580Y15037
X71730Y15291
X84226Y15291
X71730Y20269
X84226Y20269
T4
X54356Y18542
X56896Y18542
X61976Y18542
X64516Y18542
X67056Y18542
X67056Y33782
X64516Y33782
X61976Y33782
X59436Y33782
X56896Y33782
X54356Y33782
X51816Y33782
X49276Y33782
X46736Y33782
X41656Y33782
X39116Y33782
X36576Y33782
X34036Y33782
X31496Y33782
X36068Y10160
X38608Y10160
X41148Y10160
X43688Y10160
X46228Y10160
X56388Y10160
X58928Y10160
X44196Y33782
X64008Y10160
X66548Y10160
X59436Y18542
X90932Y23876
X7620Y12700
X61468Y10160
X31496Y18542
X34036Y18542
X36576Y18542
X39116Y18542
X41656Y18542
X44196Y18542
X46736Y18542
X8382Y23114
X7620Y33782
X49276Y18542
X51816Y18542
X96012Y42672
X93472Y42672
X90932Y42672
X88392Y42672
X14732Y44958
X3048Y57912
X3048Y55372
X3048Y52832
X3048Y50292
X3048Y47752
X3048Y45212
X9652Y44958
X12192Y44958
T5
X3048Y40640
X13208Y40640
X87884Y40132
X91186Y40132
X91186Y29972
X96012Y40132
X96012Y29972
X87884Y29972
T6
X46498Y37592
X48498Y37592
X50498Y37592
X52498Y37592
X42498Y37592
X44498Y37592
T7
X35878Y29527
X43180Y24765
X41275Y40640
X58102Y13652
X49847Y13652
X55245Y14922
X43815Y16510
M30