M48
;GenerationSoftware,Autodesk,EAGLE,9.5.1*%
;CreationDate,2020-05-15T19:22:48Z*%
FMAT,2
ICI,OFF
METRIC,TZ,000.000
T2C0.559
T1C1.016
%
G90
M71
T1
X53340Y81280
X38100Y81280
X40640Y81280
X43180Y81280
X45720Y81280
X48260Y81280
X50800Y81280
X63500Y66040
X55880Y81280
X58420Y81280
X60960Y81280
X63500Y81280
X66040Y81280
X66040Y66040
X13970Y61722
X60960Y66040
X58420Y66040
X55880Y66040
X53340Y66040
X50800Y66040
X48260Y66040
X45720Y66040
X43180Y66040
X40640Y66040
X38100Y66040
X68580Y67310
X68580Y69850
X68580Y72390
X68580Y74930
X68580Y77470
X68580Y80010
X32766Y75438
X32766Y72898
X32766Y70358
X54610Y68580
X57150Y68580
X30226Y75438
X30226Y72898
X30226Y70358
X27686Y75438
X27686Y72898
X27686Y70358
X25146Y75438
X25146Y72898
X25146Y70358
X22606Y75438
X22606Y72898
X22606Y70358
X20066Y75438
X20066Y72898
X20066Y70358
X13970Y79502
X13970Y76962
X13970Y74422
X13970Y71882
X13970Y69342
X13970Y66802
X13970Y64262
T2
X42545Y79375
M30