M48
;GenerationSoftware,Autodesk,EAGLE,9.6.1*%
;CreationDate,2020-04-18T18:16:22Z*%
FMAT,2
ICI,OFF
METRIC,TZ,000.000
T7C0.500
T6C0.559
T5C0.813
T4C1.016
T3C1.100
T2C1.194
T1C1.803
%
G90
M71
T1
X31750Y81966
X31750Y72974
X89916Y72212
X89916Y81204
T2
X83668Y74219
X96164Y74219
X83668Y79197
X96164Y79197
X37998Y79959
X25502Y79959
X37998Y74981
X25502Y74981
T3
X74676Y37084
X11684Y59182
X26924Y59182
X17018Y50292
X1778Y50292
X96012Y32766
X96012Y17526
X89916Y37084
T4
X5588Y9652
X82804Y17780
X85344Y17780
X47498Y20574
X44450Y18288
X41910Y18288
X39370Y18288
X36830Y18288
X34290Y18288
X31750Y18288
X29210Y18288
X26670Y18288
X24130Y18288
X21590Y18288
X19050Y18288
X16510Y18288
X13970Y18288
X11430Y18288
X8890Y18288
X8890Y3048
X11430Y3048
X13970Y3048
X16510Y3048
X19050Y3048
X21590Y3048
X24130Y3048
X26670Y3048
X29210Y3048
X31750Y3048
X34290Y3048
X36830Y3048
X39370Y3048
X41910Y3048
X44450Y3048
X5588Y7112
X66040Y60960
X5588Y12192
X5588Y14732
X49022Y12446
X49022Y9906
X49022Y7366
X49022Y4826
X56642Y8890
X56642Y3302
X2032Y13970
X2032Y8890
X43180Y66040
X45720Y66040
X48260Y66040
X50800Y66040
X53340Y66040
X55880Y66040
X58420Y66040
X60960Y66040
X63500Y66040
X66040Y66040
X68580Y66040
X71120Y66040
X73660Y66040
X76200Y66040
X78740Y66040
X78740Y81280
X76200Y81280
X73660Y81280
X71120Y81280
X68580Y81280
X66040Y81280
X63500Y81280
X60960Y81280
X58420Y81280
X55880Y81280
X53340Y81280
X50800Y81280
X48260Y81280
X45720Y81280
X43180Y81280
X45720Y60960
X48260Y60960
X50800Y60960
X53340Y60960
X55880Y60960
X68580Y60960
X71120Y60960
X73660Y60960
X76200Y60960
X38608Y8382
X36068Y8382
X33528Y8382
X30988Y8382
X28448Y8382
X25908Y8382
X23368Y8382
X20828Y8382
X18288Y8382
X15748Y8382
X13208Y8382
X35814Y56134
X38354Y56134
X40894Y56134
X43434Y56134
X45974Y56134
X48514Y56134
X51054Y56134
X53594Y56134
X56134Y56134
X58674Y56134
X61214Y56134
X63754Y56134
X66294Y56134
X68834Y56134
X71374Y56134
X9652Y22606
X12192Y22606
X14732Y22606
X17272Y22606
X19812Y22606
X22352Y22606
X24892Y22606
X27432Y22606
X29972Y22606
X32512Y22606
X35052Y22606
X37592Y22606
X40132Y22606
X42672Y22606
X45212Y22606
X60960Y2032
X60960Y4572
X60960Y7112
X2032Y22606
X4572Y22606
X7112Y22606
X27432Y63500
X29972Y63500
X32512Y63500
X92964Y4064
X90424Y4064
X87884Y4064
X12446Y66294
X9906Y66294
X7366Y66294
X53340Y18034
X55880Y18034
X58420Y18034
X60452Y10414
X60452Y12954
X60452Y15494
X51054Y18034
X48514Y18034
X14478Y77470
X14478Y74930
X32766Y25146
X32766Y27686
X32766Y30226
X32766Y32766
X32766Y35306
X32766Y37846
X32766Y40386
X32766Y42926
X32766Y45466
X32766Y48006
X32766Y50546
X32766Y53086
X32766Y55626
X32766Y58166
X32766Y60706
X83312Y66040
X83312Y60706
X97282Y10160
X94742Y10160
X92202Y10160
X89662Y10160
X87122Y10160
X84582Y10160
X82042Y10160
X79502Y10160
X76962Y10160
X74422Y10160
X71882Y10160
X69342Y10160
X66802Y10160
X64262Y10160
X74422Y56134
X76962Y56134
X79502Y56134
X82042Y56134
X84582Y56134
X87122Y56134
X89662Y56134
X92202Y56134
X94742Y56134
X97282Y56134
X63754Y75946
X61214Y75946
X58674Y75946
X56134Y75946
X96266Y50292
X93726Y50292
X91186Y50292
X88646Y50292
X86106Y50292
X83566Y50292
X81026Y50292
X78486Y50292
X75946Y50292
X73406Y50292
X70866Y50292
X68326Y50292
X65786Y50292
X63246Y50292
X60706Y50292
X58166Y50292
X55626Y50292
X53086Y50292
X50546Y50292
X48006Y50292
X48006Y47752
X50546Y47752
X53086Y47752
X55626Y47752
X58166Y47752
X60706Y47752
X63246Y47752
X65786Y47752
X68326Y47752
X70866Y47752
X73406Y47752
X75946Y47752
X78486Y47752
X81026Y47752
X83566Y47752
X86106Y47752
X88646Y47752
X91186Y47752
X93726Y47752
X96266Y47752
X38100Y48260
X38100Y43180
X88900Y43180
X86360Y43180
X83820Y43180
X81280Y43180
X78740Y43180
X76200Y43180
X73660Y43180
X71120Y43180
X68580Y43180
X66040Y43180
X63500Y43180
X60960Y43180
X58420Y43180
X55880Y43180
X53340Y43180
X53340Y27940
X55880Y27940
X58420Y27940
X60960Y27940
X63500Y27940
X66040Y27940
X68580Y27940
X71120Y27940
X73660Y27940
X76200Y27940
X78740Y27940
X81280Y27940
X83820Y27940
X86360Y27940
X88900Y27940
X21590Y27178
X19050Y27178
X16510Y27178
X13970Y27178
X11430Y27178
X8890Y27178
X28448Y39624
X28448Y42164
X28448Y44704
X3048Y44196
X3048Y41656
X3048Y39116
X10668Y55372
X8128Y55372
X26924Y54864
X24384Y54864
X21844Y54864
X1778Y63500
X4318Y63500
X6858Y63500
X9398Y63500
X11938Y63500
X14478Y63500
X17018Y63500
X19558Y63500
X22098Y63500
X24638Y63500
X19558Y63754
X19558Y66294
X19558Y68834
X19558Y71374
X19558Y73914
X19558Y76454
X19558Y78994
X19558Y81534
X65532Y24384
X68072Y24384
X70612Y24384
X73152Y24384
X75692Y24384
X78232Y24384
X80772Y24384
X83312Y24384
X85852Y24384
X88392Y24384
X90932Y24384
X38354Y33020
X38100Y27940
X72644Y17780
X75184Y17780
X77724Y17780
X80264Y17780
T5
X96012Y38354
X94107Y37084
X96012Y35814
X18796Y46482
X16891Y45212
X18796Y43942
T6
X23812Y15399
X21590Y11589
X12859Y14287
X31750Y14287
X45085Y47149
X96202Y52864
X97631Y27781
X80804Y21749
X76994Y22860
X11589Y33179
X84614Y45085
T7
X21744Y35248
X20494Y35248
X19244Y35248
X17994Y35248
X16744Y35248
X15494Y35248
X14244Y35248
X12994Y35248
X11744Y35248
X10494Y35248
X9244Y35248
M30