M48
;GenerationSoftware,Autodesk,EAGLE,9.5.1*%
;CreationDate,2020-05-15T19:10:42Z*%
FMAT,2
ICI,OFF
METRIC,TZ,000.000
T4C0.559
T3C0.813
T2C1.016
T1C1.100
%
G90
M71
T1
X74676Y37084
X2032Y34544
X96012Y32766
X96012Y17526
X89916Y37084
X17272Y34544
X28956Y40132
X13716Y40132
T2
X40894Y56134
X43434Y56134
X45974Y56134
X48514Y56134
X51054Y56134
X53594Y56134
X56134Y56134
X58674Y56134
X61214Y56134
X63754Y56134
X66294Y56134
X68834Y56134
X71374Y56134
X7620Y11430
X10160Y11430
X12700Y11430
X15240Y11430
X17780Y11430
X20320Y11430
X22860Y11430
X25400Y11430
X27940Y11430
X30480Y11430
X33020Y11430
X35560Y11430
X38100Y11430
X40640Y11430
X43180Y11430
X58928Y6350
X58928Y8890
X58928Y11430
X82042Y11430
X4826Y8636
X7366Y8636
X27178Y56134
X29718Y56134
X32258Y56134
X61468Y11430
X61468Y8890
X61468Y6350
X51054Y11430
X53594Y11430
X56134Y11430
X34036Y3556
X34036Y6096
X34036Y8636
X48514Y11430
X45974Y11430
X33020Y18288
X33020Y20828
X33020Y23368
X33020Y25908
X33020Y28448
X33020Y30988
X33020Y33528
X33020Y36068
X33020Y38608
X33020Y41148
X33020Y43688
X33020Y46228
X33020Y48768
X33020Y51308
X33020Y53848
X97282Y11430
X94742Y11430
X92202Y11430
X89662Y11430
X87122Y11430
X84582Y11430
X79502Y11430
X76962Y11430
X74422Y11430
X71882Y11430
X69342Y11430
X66802Y11430
X64262Y11430
X74422Y56134
X76962Y56134
X79502Y56134
X82042Y56134
X84582Y56134
X87122Y56134
X89662Y56134
X92202Y56134
X94742Y56134
X97282Y56134
X96266Y50292
X93726Y50292
X91186Y50292
X88646Y50292
X86106Y50292
X83566Y50292
X81026Y50292
X78486Y50292
X75946Y50292
X73406Y50292
X70866Y50292
X68326Y50292
X65786Y50292
X63246Y50292
X60706Y50292
X58166Y50292
X55626Y50292
X53086Y50292
X50546Y50292
X48006Y50292
X48006Y47752
X50546Y47752
X53086Y47752
X55626Y47752
X58166Y47752
X60706Y47752
X63246Y47752
X65786Y47752
X68326Y47752
X70866Y47752
X73406Y47752
X75946Y47752
X78486Y47752
X81026Y47752
X83566Y47752
X86106Y47752
X88646Y47752
X91186Y47752
X93726Y47752
X96266Y47752
X38100Y48260
X38100Y43180
X88900Y43180
X86360Y43180
X83820Y43180
X81280Y43180
X78740Y43180
X76200Y43180
X73660Y43180
X71120Y43180
X68580Y43180
X66040Y43180
X63500Y43180
X60960Y43180
X58420Y43180
X55880Y43180
X53340Y43180
X53340Y27940
X55880Y27940
X58420Y27940
X60960Y27940
X63500Y27940
X66040Y27940
X68580Y27940
X71120Y27940
X73660Y27940
X76200Y27940
X78740Y27940
X81280Y27940
X83820Y27940
X86360Y27940
X88900Y27940
X2032Y28956
X2032Y26416
X2032Y23876
X8636Y39878
X6096Y39878
X28194Y29972
X25654Y29972
X23114Y29972
X1778Y56134
X4318Y56134
X6858Y56134
X9398Y56134
X11938Y56134
X14478Y56134
X17018Y56134
X19558Y56134
X22098Y56134
X24638Y56134
X75438Y64008
X75438Y66548
X75438Y69088
X75438Y71628
X75438Y74168
X75438Y76708
X75438Y79248
X75438Y81788
X65532Y24384
X68072Y24384
X70612Y24384
X73152Y24384
X75692Y24384
X78232Y24384
X80772Y24384
X83312Y24384
X85852Y24384
X88392Y24384
X90932Y24384
X38354Y33020
X38100Y27940
X72644Y17780
X75184Y17780
X77724Y17780
X80264Y17780
X82804Y17780
X85344Y17780
X2286Y8636
X35814Y56134
X38354Y56134
X33782Y14986
X21336Y20574
X18796Y20574
X16256Y20574
X13716Y20574
X11176Y20574
X8636Y20574
X38100Y81280
X40640Y81280
X43180Y81280
X45720Y81280
X48260Y81280
X50800Y81280
X53340Y81280
X55880Y81280
X58420Y81280
X60960Y81280
X63500Y81280
X66040Y81280
X66040Y66040
X63500Y66040
X60960Y66040
X58420Y66040
X55880Y66040
X53340Y66040
X50800Y66040
X48260Y66040
X45720Y66040
X43180Y66040
X40640Y66040
X38100Y66040
X68580Y67310
X68580Y69850
X68580Y72390
X68580Y74930
X68580Y77470
X68580Y80010
X32766Y75438
X32766Y72898
X32766Y70358
X54610Y68580
X57150Y68580
X30226Y75438
X30226Y72898
X30226Y70358
X27686Y75438
X27686Y72898
X27686Y70358
X25146Y75438
X25146Y72898
X25146Y70358
X22606Y75438
X22606Y72898
X22606Y70358
X20066Y75438
X20066Y72898
X20066Y70358
X13970Y79502
X13970Y76962
X13970Y74422
X13970Y71882
X13970Y69342
X13970Y66802
X13970Y64262
X13970Y61722
X72898Y58674
X72898Y61214
X72898Y63754
X72898Y66294
X72898Y68834
X72898Y71374
X72898Y73914
X72898Y76454
X72898Y78994
X72898Y81534
X8382Y58928
X8382Y61468
X8382Y64008
X8382Y66548
X8382Y69088
X8382Y71628
X8382Y74168
X8382Y76708
X8382Y79248
X8382Y81788
T3
X96012Y38354
X94107Y37084
X96012Y35814
X17526Y29464
X15621Y28194
X17526Y26924
T4
X50165Y40640
X42545Y79375
X95250Y53340
X45085Y53340
X88265Y19685
M30