M48
;GenerationSoftware,Autodesk,EAGLE,9.6.1*%
;CreationDate,2020-10-15T15:15:41Z*%
FMAT,2
ICI,OFF
METRIC,TZ,000.000
T4C0.559
T3C1.016
T2C1.118
T1C2.540
%
G90
M71
T1
X56896Y27432
X56896Y30734
X56896Y18288
X56896Y24384
X56896Y21336
X56896Y46228
X56896Y43180
X56896Y39878
X56896Y36830
X56896Y33782
T2
X50800Y20320
X50800Y13970
X50800Y11430
X50800Y8890
X50800Y6350
X50800Y36830
X50800Y22860
X50800Y25400
X50800Y27940
X50800Y31750
X50800Y34290
X50800Y39370
X22860Y45212
X22860Y3810
X5080Y45212
X5080Y3810
X11430Y53340
X25400Y53340
X50800Y53340
X8890Y53340
X22860Y53340
X48260Y53340
X45720Y53340
X20320Y53340
X6350Y53340
T3
X43180Y16510
X43180Y19050
X43180Y21590
X43180Y24130
X43180Y26670
X43180Y29210
X43180Y31750
X43180Y34290
X43180Y36830
X43180Y11430
X27940Y21590
X27940Y39370
X27940Y36830
X27940Y34290
X27940Y31750
X43180Y39370
X27940Y29210
X42418Y47498
X39878Y47498
X37338Y47498
X34798Y47498
X32258Y47498
X29718Y47498
X27940Y26670
X27940Y24130
X27940Y19050
X27940Y16510
X27940Y13970
X27940Y11430
X27940Y8890
X27940Y6350
X27940Y3810
X43180Y3810
X43180Y6350
X43180Y8890
X43180Y13970
X61214Y44450
X63754Y44450
X66294Y44450
X68834Y44450
X71374Y44450
X73914Y44450
X61214Y36830
X63754Y36830
X66294Y36830
X68834Y36830
X71374Y36830
X73914Y36830
T4
X30480Y40640
X41275Y8255
X29210Y41593
X46037Y40958
X50800Y42228
M30