M48
;GenerationSoftware,Autodesk,EAGLE,9.6.1*%
;CreationDate,2020-09-29T21:44:49Z*%
FMAT,2
ICI,OFF
METRIC,TZ,000.000
T4C0.559
T3C1.016
T2C1.118
T1C1.200
%
G90
M71
T1
X24440Y53340
X7930Y53340
X11430Y53340
X60960Y53340
X57460Y53340
X27940Y53340
T2
X27940Y31750
X27940Y22860
X27940Y20320
X27940Y17780
X27940Y40640
X59690Y24130
X27940Y25400
X59690Y21590
X59690Y26670
X59690Y29210
X59690Y35560
X59690Y38100
X59690Y40640
X59690Y43180
X59690Y5080
X59690Y7620
X59690Y10160
X59690Y12700
X22860Y44450
X22860Y3810
X5080Y44450
X5080Y3810
T3
X49530Y24130
X49530Y26670
X49530Y29210
X49530Y31750
X49530Y34290
X49530Y36830
X34290Y11430
X34290Y31750
X34290Y39370
X49530Y39370
X34290Y36830
X34290Y34290
X34290Y29210
X34290Y26670
X34290Y24130
X34290Y21590
X48768Y44958
X46228Y44958
X43688Y44958
X34290Y19050
X38608Y44958
X36068Y44958
X34290Y16510
X34290Y13970
X34290Y8890
X34290Y6350
X34290Y3810
X49530Y19050
X49530Y3810
X49530Y6350
X49530Y8890
X49530Y11430
X49530Y13970
X49530Y16510
X49530Y21590
X41148Y44958
T4
X43180Y25400
X51435Y48260
X55245Y33655
X45720Y36195
X43180Y41910
M30