M48
;GenerationSoftware,Autodesk,EAGLE,9.6.1*%
;CreationDate,2020-07-20T15:15:04Z*%
FMAT,2
ICI,OFF
METRIC,TZ,000.000
T5C0.559
T4C0.700
T3C1.016
T2C1.118
T1C1.200
%
G90
M71
T1
X18740Y46990
X15240Y46990
X2540Y30170
X2540Y26670
T2
X2540Y45720
X3810Y5080
X2540Y38100
X3810Y7620
X3810Y10160
X31750Y3810
X31750Y6350
X31750Y8890
X31750Y11430
X31750Y21590
X31750Y24130
X31750Y29210
X31750Y36830
X31750Y39370
X31750Y41910
X31750Y44450
X31750Y26670
T3
X24638Y7620
X24638Y10160
X24638Y12700
X24638Y15240
X24638Y17780
X24638Y20320
X24638Y22860
X9398Y12700
X24638Y27940
X24638Y30480
X24638Y33020
X24638Y35560
X24638Y38100
X9398Y30480
X9398Y38100
X9398Y35560
X9398Y33020
X9398Y27940
X9398Y25400
X9398Y22860
X9398Y20320
X9398Y17780
X24638Y25400
X9398Y15240
X9398Y10160
X9398Y7620
X9398Y5080
X9398Y2540
X24638Y2540
X24638Y5080
T4
X5080Y16510
X2540Y16510
T5
X26035Y16510
X25400Y40005
X25082Y44767
X27940Y39370
M30