M48
;GenerationSoftware,Autodesk,EAGLE,9.6.1*%
;CreationDate,2020-09-21T19:37:55Z*%
FMAT,2
ICI,OFF
METRIC,TZ,000.000
T4C0.559
T3C1.016
T2C1.118
T1C1.200
%
G90
M71
T1
X2540Y12700
X2540Y9200
T2
X2540Y30480
X31750Y21590
X31750Y11430
X31750Y8890
X31750Y6350
X31750Y3810
X31750Y24130
X2540Y38100
X31750Y26670
X31750Y29210
X31750Y36830
X31750Y39370
X31750Y41910
X31750Y44450
T3
X9398Y20320
X9398Y17780
X9398Y15240
X9398Y12700
X9398Y10160
X9398Y7620
X9398Y5080
X9398Y2540
X24638Y2540
X24638Y5080
X24638Y7620
X24638Y10160
X24638Y12700
X24638Y15240
X24638Y17780
X24638Y20320
X24638Y22860
X24638Y25400
X24638Y27940
X24638Y30480
X24638Y33020
X24638Y35560
X24638Y38100
X9398Y25400
X9398Y38100
X9398Y35560
X9398Y33020
X9398Y30480
X9398Y27940
X9398Y22860
X23368Y44958
X20828Y44958
X18288Y44958
X15748Y44958
X13208Y44958
X10668Y44958
T4
X14922Y40005
X13652Y31591
X12700Y20955
X20955Y31750
X15875Y34766
X19368Y39688
X14764Y29527
X23019Y3651
X19050Y7620
M30