G04 EAGLE Gerber RS-274X export*
G75*
%MOMM*%
%FSLAX34Y34*%
%LPD*%
%INBottom Copper*%
%IPPOS*%
%AMOC8*
5,1,8,0,0,1.08239X$1,22.5*%
G01*
%ADD10C,1.879600*%
%ADD11C,2.095500*%
%ADD12C,1.422400*%
%ADD13C,0.304800*%
%ADD14C,0.254000*%


D10*
X124460Y266700D03*
X149860Y266700D03*
X175260Y266700D03*
X200660Y266700D03*
X177800Y20320D03*
X124460Y20320D03*
X175260Y109220D03*
X149860Y109220D03*
D11*
X22860Y190183D02*
X22860Y211138D01*
X22860Y58738D02*
X22860Y37783D01*
X284480Y30163D02*
X284480Y51118D01*
X284480Y182563D02*
X284480Y203518D01*
D12*
X91440Y35880D03*
X91440Y55880D03*
X91440Y75880D03*
D10*
X91440Y223520D03*
X91440Y198120D03*
X91440Y172720D03*
X91440Y147320D03*
X91440Y121920D03*
X91440Y96520D03*
X215900Y40640D03*
X215900Y66040D03*
X215900Y91440D03*
X215900Y116840D03*
X215900Y142240D03*
X215900Y167640D03*
D12*
X215900Y228280D03*
X215900Y208280D03*
X215900Y188280D03*
D13*
X215900Y190500D02*
X203200Y203200D01*
X203200Y225425D02*
X203200Y266700D01*
X203200Y225425D02*
X203200Y203200D01*
X215900Y190500D02*
X215900Y188280D01*
X203200Y266700D02*
X200660Y266700D01*
X203200Y225425D02*
X136525Y225425D01*
X92075Y225425D01*
X91440Y223520D01*
X149225Y107950D02*
X215900Y41275D01*
X215900Y40640D01*
X136525Y107950D02*
X136525Y225425D01*
X136525Y107950D02*
X149225Y107950D01*
X149860Y109220D01*
D14*
X146050Y238125D02*
X174625Y266700D01*
X146050Y238125D02*
X60325Y238125D01*
X22860Y200660D01*
X174625Y266700D02*
X175260Y266700D01*
X215900Y114300D02*
X212725Y111125D01*
X177800Y111125D01*
X215900Y114300D02*
X215900Y116840D01*
X177800Y111125D02*
X175260Y109220D01*
X88900Y53975D02*
X85725Y50800D01*
X25400Y50800D01*
X88900Y53975D02*
X91440Y55880D01*
X25400Y50800D02*
X22860Y48260D01*
X215900Y206375D02*
X228600Y193675D01*
X282575Y193675D01*
X215900Y206375D02*
X215900Y208280D01*
X282575Y193675D02*
X284480Y193040D01*
M02*
