G04 EAGLE Gerber RS-274X export*
G75*
%MOMM*%
%FSLAX34Y34*%
%LPD*%
%INSilkscreen Top*%
%IPPOS*%
%AMOC8*
5,1,8,0,0,1.08239X$1,22.5*%
G01*
%ADD10C,0.203200*%
%ADD11C,0.152400*%
%ADD12C,0.177800*%
%ADD13R,3.556000X0.508000*%
%ADD14R,1.066800X1.371600*%


D10*
X130556Y68590D02*
X146148Y68590D01*
D11*
X168402Y75452D02*
X179249Y75452D01*
X179249Y72740D01*
X168402Y61894D01*
X168402Y59182D01*
X184774Y64605D02*
X184774Y75452D01*
X184774Y64605D02*
X190197Y59182D01*
X195620Y64605D01*
X195620Y75452D01*
D12*
X50148Y75238D02*
X50148Y61849D01*
X70231Y61849D01*
X70231Y75238D01*
X60189Y68543D02*
X60189Y61849D01*
X50148Y92004D02*
X53495Y95351D01*
X50148Y92004D02*
X50148Y85310D01*
X53495Y81963D01*
X56842Y81963D01*
X60189Y85310D01*
X60189Y92004D01*
X63537Y95351D01*
X66884Y95351D01*
X70231Y92004D01*
X70231Y85310D01*
X66884Y81963D01*
X50148Y112118D02*
X53495Y115465D01*
X50148Y112118D02*
X50148Y105424D01*
X53495Y102076D01*
X66884Y102076D01*
X70231Y105424D01*
X70231Y112118D01*
X66884Y115465D01*
X70231Y142304D02*
X50148Y142304D01*
X70231Y142304D02*
X70231Y155692D01*
X70231Y165764D02*
X70231Y172459D01*
X70231Y165764D02*
X66884Y162417D01*
X60189Y162417D01*
X56842Y165764D01*
X56842Y172459D01*
X60189Y175806D01*
X63537Y175806D01*
X63537Y162417D01*
X70231Y185878D02*
X53495Y185878D01*
X50148Y189225D01*
X60189Y189225D02*
X60189Y182531D01*
X53495Y199287D02*
X66884Y199287D01*
X70231Y202634D01*
X56842Y202634D02*
X56842Y195940D01*
D11*
X117602Y310657D02*
X129465Y310657D01*
X117602Y310657D02*
X117602Y301760D01*
X123534Y304725D01*
X126500Y304725D01*
X129465Y301760D01*
X129465Y295828D01*
X126500Y292862D01*
X120568Y292862D01*
X117602Y295828D01*
X141309Y307691D02*
X147240Y310657D01*
X141309Y307691D02*
X135377Y301760D01*
X135377Y295828D01*
X138343Y292862D01*
X144274Y292862D01*
X147240Y295828D01*
X147240Y298794D01*
X144274Y301760D01*
X135377Y301760D01*
X153152Y298794D02*
X153152Y310657D01*
X153152Y298794D02*
X159083Y292862D01*
X165015Y298794D01*
X165015Y310657D01*
X173892Y304725D02*
X182790Y304725D01*
X173892Y304725D02*
X170927Y301760D01*
X170927Y295828D01*
X173892Y292862D01*
X182790Y292862D01*
X191667Y304725D02*
X200565Y304725D01*
X191667Y304725D02*
X188701Y301760D01*
X188701Y295828D01*
X191667Y292862D01*
X200565Y292862D01*
X218340Y307691D02*
X215374Y310657D01*
X209442Y310657D01*
X206476Y307691D01*
X206476Y295828D01*
X209442Y292862D01*
X215374Y292862D01*
X218340Y295828D01*
X218340Y301760D01*
X212408Y301760D01*
X224251Y304725D02*
X224251Y292862D01*
X224251Y304725D02*
X233149Y304725D01*
X236115Y301760D01*
X236115Y292862D01*
X253889Y292862D02*
X253889Y310657D01*
X253889Y292862D02*
X244992Y292862D01*
X242026Y295828D01*
X242026Y301760D01*
X244992Y304725D01*
X253889Y304725D01*
D12*
X238108Y62538D02*
X238108Y49149D01*
X258191Y49149D01*
X258191Y62538D01*
X248149Y55843D02*
X248149Y49149D01*
X238108Y79304D02*
X241455Y82651D01*
X238108Y79304D02*
X238108Y72610D01*
X241455Y69263D01*
X244802Y69263D01*
X248149Y72610D01*
X248149Y79304D01*
X251497Y82651D01*
X254844Y82651D01*
X258191Y79304D01*
X258191Y72610D01*
X254844Y69263D01*
X238108Y99418D02*
X241455Y102765D01*
X238108Y99418D02*
X238108Y92724D01*
X241455Y89376D01*
X254844Y89376D01*
X258191Y92724D01*
X258191Y99418D01*
X254844Y102765D01*
X258191Y129604D02*
X238108Y129604D01*
X238108Y139645D01*
X241455Y142992D01*
X248149Y142992D01*
X251497Y139645D01*
X251497Y129604D01*
X251497Y136298D02*
X258191Y142992D01*
X244802Y149717D02*
X244802Y153064D01*
X258191Y153064D01*
X258191Y149717D02*
X258191Y156412D01*
X238108Y153064D02*
X234761Y153064D01*
X264885Y169821D02*
X264885Y173168D01*
X261538Y176515D01*
X244802Y176515D01*
X244802Y166474D01*
X248149Y163126D01*
X254844Y163126D01*
X258191Y166474D01*
X258191Y176515D01*
X258191Y183240D02*
X238108Y183240D01*
X244802Y186587D02*
X248149Y183240D01*
X244802Y186587D02*
X244802Y193282D01*
X248149Y196629D01*
X258191Y196629D01*
X254844Y206701D02*
X241455Y206701D01*
X254844Y206701D02*
X258191Y210048D01*
X244802Y210048D02*
X244802Y203354D01*
D10*
X207010Y279400D02*
X194310Y279400D01*
X207010Y279400D02*
X213360Y273050D01*
X213360Y260350D02*
X207010Y254000D01*
X168910Y279400D02*
X162560Y273050D01*
X168910Y279400D02*
X181610Y279400D01*
X187960Y273050D01*
X187960Y260350D02*
X181610Y254000D01*
X168910Y254000D01*
X162560Y260350D01*
X187960Y273050D02*
X194310Y279400D01*
X187960Y260350D02*
X194310Y254000D01*
X207010Y254000D01*
X130810Y279400D02*
X118110Y279400D01*
X130810Y279400D02*
X137160Y273050D01*
X137160Y260350D02*
X130810Y254000D01*
X137160Y273050D02*
X143510Y279400D01*
X156210Y279400D01*
X162560Y273050D01*
X162560Y260350D02*
X156210Y254000D01*
X143510Y254000D01*
X137160Y260350D01*
X111760Y260350D02*
X111760Y273050D01*
X118110Y279400D01*
X111760Y260350D02*
X118110Y254000D01*
X130810Y254000D01*
X213360Y260350D02*
X213360Y273050D01*
X184150Y33020D02*
X190500Y26670D01*
X184150Y33020D02*
X171450Y33020D01*
X165100Y26670D01*
X165100Y13970D01*
X171450Y7620D01*
X184150Y7620D01*
X190500Y13970D01*
X190500Y26670D01*
X137160Y26670D02*
X130810Y33020D01*
X118110Y33020D01*
X111760Y26670D01*
X111760Y13970D01*
X118110Y7620D01*
X130810Y7620D01*
X137160Y13970D01*
X137160Y26670D01*
X168910Y96520D02*
X181610Y96520D01*
X168910Y96520D02*
X162560Y102870D01*
X162560Y115570D02*
X168910Y121920D01*
X162560Y102870D02*
X156210Y96520D01*
X143510Y96520D01*
X137160Y102870D01*
X137160Y115570D02*
X143510Y121920D01*
X156210Y121920D01*
X162560Y115570D01*
X187960Y115570D02*
X187960Y102870D01*
X181610Y96520D01*
X187960Y115570D02*
X181610Y121920D01*
X168910Y121920D01*
X137160Y115570D02*
X137160Y102870D01*
D11*
X40640Y170180D02*
X5080Y170180D01*
X40640Y170180D02*
X40640Y78740D01*
X5080Y78740D01*
X5080Y170180D01*
D13*
X22860Y160020D03*
D14*
X22860Y71882D03*
X22860Y177038D03*
D10*
X104140Y77470D02*
X104140Y64770D01*
X97790Y58420D01*
X85090Y58420D02*
X78740Y64770D01*
X104140Y102870D02*
X97790Y109220D01*
X104140Y102870D02*
X104140Y90170D01*
X97790Y83820D01*
X85090Y83820D02*
X78740Y90170D01*
X78740Y102870D01*
X85090Y109220D01*
X97790Y83820D02*
X104140Y77470D01*
X85090Y83820D02*
X78740Y77470D01*
X78740Y64770D01*
X104140Y140970D02*
X104140Y153670D01*
X104140Y140970D02*
X97790Y134620D01*
X85090Y134620D02*
X78740Y140970D01*
X97790Y134620D02*
X104140Y128270D01*
X104140Y115570D01*
X97790Y109220D01*
X85090Y109220D02*
X78740Y115570D01*
X78740Y128270D01*
X85090Y134620D01*
X104140Y179070D02*
X97790Y185420D01*
X104140Y179070D02*
X104140Y166370D01*
X97790Y160020D01*
X85090Y160020D02*
X78740Y166370D01*
X78740Y179070D01*
X85090Y185420D01*
X97790Y160020D02*
X104140Y153670D01*
X85090Y160020D02*
X78740Y153670D01*
X78740Y140970D01*
X104140Y217170D02*
X104140Y229870D01*
X104140Y217170D02*
X97790Y210820D01*
X85090Y210820D02*
X78740Y217170D01*
X97790Y210820D02*
X104140Y204470D01*
X104140Y191770D01*
X97790Y185420D01*
X85090Y185420D02*
X78740Y191770D01*
X78740Y204470D01*
X85090Y210820D01*
X85090Y236220D02*
X97790Y236220D01*
X104140Y229870D01*
X85090Y236220D02*
X78740Y229870D01*
X78740Y217170D01*
X104140Y52070D02*
X104140Y39370D01*
X97790Y33020D01*
X85090Y33020D02*
X78740Y39370D01*
X97790Y58420D02*
X104140Y52070D01*
X85090Y58420D02*
X78740Y52070D01*
X78740Y39370D01*
X104140Y26670D02*
X104140Y13970D01*
X97790Y7620D01*
X85090Y7620D02*
X78740Y13970D01*
X97790Y33020D02*
X104140Y26670D01*
X85090Y33020D02*
X78740Y26670D01*
X78740Y13970D01*
X85090Y7620D02*
X97790Y7620D01*
X205740Y166370D02*
X205740Y179070D01*
X212090Y185420D01*
X224790Y185420D02*
X231140Y179070D01*
X205740Y140970D02*
X212090Y134620D01*
X205740Y140970D02*
X205740Y153670D01*
X212090Y160020D01*
X224790Y160020D02*
X231140Y153670D01*
X231140Y140970D01*
X224790Y134620D01*
X212090Y160020D02*
X205740Y166370D01*
X224790Y160020D02*
X231140Y166370D01*
X231140Y179070D01*
X205740Y102870D02*
X205740Y90170D01*
X205740Y102870D02*
X212090Y109220D01*
X224790Y109220D02*
X231140Y102870D01*
X212090Y109220D02*
X205740Y115570D01*
X205740Y128270D01*
X212090Y134620D01*
X224790Y134620D02*
X231140Y128270D01*
X231140Y115570D01*
X224790Y109220D01*
X205740Y64770D02*
X212090Y58420D01*
X205740Y64770D02*
X205740Y77470D01*
X212090Y83820D01*
X224790Y83820D02*
X231140Y77470D01*
X231140Y64770D01*
X224790Y58420D01*
X212090Y83820D02*
X205740Y90170D01*
X224790Y83820D02*
X231140Y90170D01*
X231140Y102870D01*
X205740Y26670D02*
X205740Y13970D01*
X205740Y26670D02*
X212090Y33020D01*
X224790Y33020D02*
X231140Y26670D01*
X212090Y33020D02*
X205740Y39370D01*
X205740Y52070D01*
X212090Y58420D01*
X224790Y58420D02*
X231140Y52070D01*
X231140Y39370D01*
X224790Y33020D01*
X224790Y7620D02*
X212090Y7620D01*
X205740Y13970D01*
X224790Y7620D02*
X231140Y13970D01*
X231140Y26670D01*
X205740Y191770D02*
X205740Y204470D01*
X212090Y210820D01*
X224790Y210820D02*
X231140Y204470D01*
X212090Y185420D02*
X205740Y191770D01*
X224790Y185420D02*
X231140Y191770D01*
X231140Y204470D01*
X205740Y217170D02*
X205740Y229870D01*
X212090Y236220D01*
X224790Y236220D02*
X231140Y229870D01*
X212090Y210820D02*
X205740Y217170D01*
X224790Y210820D02*
X231140Y217170D01*
X231140Y229870D01*
X224790Y236220D02*
X212090Y236220D01*
D11*
X266700Y71120D02*
X302260Y71120D01*
X266700Y71120D02*
X266700Y162560D01*
X302260Y162560D01*
X302260Y71120D01*
D13*
X284480Y81280D03*
D14*
X284480Y169418D03*
X284480Y64262D03*
M02*
