G04 EAGLE Gerber RS-274X export*
G75*
%MOMM*%
%FSLAX34Y34*%
%LPD*%
%INTop Copper*%
%IPPOS*%
%AMOC8*
5,1,8,0,0,1.08239X$1,22.5*%
G01*
%ADD10C,1.879600*%
%ADD11C,1.879600*%
%ADD12R,2.032000X2.032000*%
%ADD13C,2.032000*%
%ADD14C,0.304800*%
%ADD15C,0.254000*%
%ADD16C,1.066800*%


D10*
X342900Y393700D03*
X342900Y368300D03*
X342900Y342900D03*
X342900Y317500D03*
X342900Y292100D03*
X342900Y266700D03*
X342900Y241300D03*
X342900Y215900D03*
X342900Y190500D03*
X342900Y165100D03*
X342900Y139700D03*
X342900Y114300D03*
X342900Y88900D03*
X342900Y63500D03*
X342900Y38100D03*
X495300Y38100D03*
X495300Y63500D03*
X495300Y88900D03*
X495300Y114300D03*
X495300Y139700D03*
X495300Y165100D03*
X495300Y190500D03*
X495300Y215900D03*
X495300Y241300D03*
X495300Y266700D03*
X495300Y292100D03*
X495300Y317500D03*
X495300Y342900D03*
X495300Y368300D03*
X495300Y393700D03*
D11*
X279400Y326898D02*
X279400Y308102D01*
X279400Y397002D02*
X279400Y415798D01*
X288798Y177800D02*
X270002Y177800D01*
X270002Y203200D02*
X288798Y203200D01*
X288798Y228600D02*
X270002Y228600D01*
X270002Y254000D02*
X288798Y254000D01*
X587502Y215900D02*
X606298Y215900D01*
X606298Y241300D02*
X587502Y241300D01*
X587502Y266700D02*
X606298Y266700D01*
X606298Y292100D02*
X587502Y292100D01*
X587502Y355600D02*
X606298Y355600D01*
X606298Y381000D02*
X587502Y381000D01*
X587502Y406400D02*
X606298Y406400D01*
X606298Y431800D02*
X587502Y431800D01*
D10*
X487680Y449580D03*
X462280Y449580D03*
X436880Y449580D03*
X411480Y449580D03*
X386080Y449580D03*
X360680Y449580D03*
D11*
X587502Y50800D02*
X606298Y50800D01*
X606298Y76200D02*
X587502Y76200D01*
X587502Y101600D02*
X606298Y101600D01*
X606298Y127000D02*
X587502Y127000D01*
D12*
X114300Y533400D03*
D13*
X79300Y533400D03*
D12*
X609600Y533400D03*
D13*
X574600Y533400D03*
D11*
X228600Y453898D02*
X228600Y435102D01*
X228600Y47498D02*
X228600Y28702D01*
X50800Y435102D02*
X50800Y453898D01*
X50800Y47498D02*
X50800Y28702D01*
D12*
X279400Y533400D03*
D13*
X244400Y533400D03*
D14*
X76200Y469900D02*
X50800Y444500D01*
X76200Y469900D02*
X76200Y533400D01*
X79300Y533400D01*
D15*
X298450Y266700D02*
X342900Y266700D01*
X298450Y266700D02*
X260350Y304800D01*
X260350Y419100D01*
X323850Y482600D01*
X514350Y482600D01*
D16*
X514350Y482600D03*
D15*
X431800Y419100D02*
X431800Y254000D01*
D16*
X431800Y254000D03*
X431800Y419100D03*
D15*
X476250Y381000D02*
X457200Y361950D01*
X476250Y381000D02*
X476250Y438150D01*
X487680Y449580D01*
D16*
X457200Y361950D03*
D15*
X444500Y438150D02*
X438150Y444500D01*
X444500Y438150D02*
X444500Y349250D01*
X476250Y317500D01*
X495300Y317500D01*
X438150Y444500D02*
X436880Y449580D01*
X317500Y38100D02*
X228600Y38100D01*
X317500Y38100D02*
X317500Y31750D01*
X336550Y12700D01*
X571500Y12700D02*
X596900Y12700D01*
X571500Y12700D02*
X336550Y12700D01*
X596900Y12700D02*
X596900Y50800D01*
X571500Y190500D02*
X596900Y215900D01*
X571500Y190500D02*
X571500Y12700D01*
X571500Y330200D02*
X596900Y355600D01*
X571500Y330200D02*
X571500Y190500D01*
X342900Y241300D02*
X323850Y222250D01*
X323850Y38100D01*
X342900Y19050D01*
X565150Y19050D01*
X565150Y406400D01*
X590550Y431800D01*
X596900Y431800D01*
X342900Y450850D02*
X342900Y393700D01*
X342900Y450850D02*
X355600Y463550D01*
X552450Y463550D01*
X552450Y336550D01*
D16*
X552450Y336550D03*
D15*
X342900Y368300D02*
X323850Y387350D01*
X323850Y444500D01*
X349250Y469900D01*
X622300Y469900D01*
X622300Y285750D01*
X603250Y266700D01*
X596900Y266700D01*
X342900Y292100D02*
X279400Y355600D01*
X279400Y406400D01*
X361950Y57150D02*
X342900Y38100D01*
X361950Y57150D02*
X361950Y444500D01*
X360680Y449580D01*
X279400Y495300D02*
X228600Y444500D01*
X279400Y514350D02*
X279400Y533400D01*
X279400Y514350D02*
X279400Y495300D01*
X590550Y514350D02*
X609600Y533400D01*
X590550Y514350D02*
X279400Y514350D01*
M02*
