G04 EAGLE Gerber RS-274X export*
G75*
%MOMM*%
%FSLAX34Y34*%
%LPD*%
%INBottom Copper*%
%IPPOS*%
%AMOC8*
5,1,8,0,0,1.08239X$1,22.5*%
G01*
%ADD10C,1.879600*%
%ADD11C,1.879600*%
%ADD12C,0.304800*%
%ADD13C,0.254000*%
%ADD14C,1.066800*%


D10*
X279400Y393700D03*
X279400Y368300D03*
X279400Y342900D03*
X279400Y317500D03*
X279400Y292100D03*
X279400Y266700D03*
X279400Y241300D03*
X279400Y215900D03*
X279400Y190500D03*
X279400Y165100D03*
X279400Y139700D03*
X279400Y114300D03*
X279400Y88900D03*
X279400Y63500D03*
X279400Y38100D03*
X431800Y38100D03*
X431800Y63500D03*
X431800Y88900D03*
X431800Y114300D03*
X431800Y139700D03*
X431800Y165100D03*
X431800Y190500D03*
X431800Y215900D03*
X431800Y241300D03*
X431800Y266700D03*
X431800Y292100D03*
X431800Y317500D03*
X431800Y342900D03*
X431800Y368300D03*
X431800Y393700D03*
D11*
X498602Y63500D02*
X517398Y63500D01*
X517398Y88900D02*
X498602Y88900D01*
X498602Y114300D02*
X517398Y114300D01*
X517398Y139700D02*
X498602Y139700D01*
X498602Y203200D02*
X517398Y203200D01*
X517398Y228600D02*
X498602Y228600D01*
X498602Y254000D02*
X517398Y254000D01*
X517398Y279400D02*
X498602Y279400D01*
X498602Y317500D02*
X517398Y317500D01*
X517398Y342900D02*
X498602Y342900D01*
X498602Y368300D02*
X517398Y368300D01*
X517398Y393700D02*
X498602Y393700D01*
D10*
X424180Y474980D03*
X398780Y474980D03*
X373380Y474980D03*
X347980Y474980D03*
X322580Y474980D03*
X297180Y474980D03*
D11*
X228600Y461518D02*
X228600Y442722D01*
X228600Y47498D02*
X228600Y28702D01*
X50800Y442722D02*
X50800Y461518D01*
X50800Y47498D02*
X50800Y28702D01*
X114300Y524002D02*
X114300Y542798D01*
X254000Y542798D02*
X254000Y524002D01*
X508000Y524002D02*
X508000Y542798D01*
X88900Y542798D02*
X88900Y524002D01*
X228600Y524002D02*
X228600Y542798D01*
X482600Y542798D02*
X482600Y524002D01*
X457200Y524002D02*
X457200Y542798D01*
X203200Y542798D02*
X203200Y524002D01*
X63500Y524002D02*
X63500Y542798D01*
D10*
X612140Y444500D03*
X637540Y444500D03*
X662940Y444500D03*
X688340Y444500D03*
X713740Y444500D03*
X739140Y444500D03*
X612140Y368300D03*
X637540Y368300D03*
X662940Y368300D03*
X688340Y368300D03*
X713740Y368300D03*
X739140Y368300D03*
D12*
X406400Y533400D02*
X381000Y508000D01*
X347980Y474980D01*
X406400Y533400D02*
X457200Y533400D01*
X228600Y533400D02*
X228600Y508000D01*
X263525Y508000D02*
X381000Y508000D01*
X263525Y508000D02*
X228600Y508000D01*
X508000Y228600D02*
X517525Y238125D01*
X520700Y238125D01*
X533400Y250825D01*
X533400Y342900D01*
X508000Y342900D01*
X457200Y342900D02*
X431800Y368300D01*
X457200Y342900D02*
X508000Y342900D01*
X79375Y66675D02*
X50800Y38100D01*
X79375Y66675D02*
X247650Y66675D01*
X250825Y69850D01*
X250825Y317500D01*
X263525Y317500D02*
X279400Y317500D01*
X263525Y317500D02*
X250825Y317500D01*
X381000Y317500D02*
X431800Y368300D01*
X381000Y317500D02*
X279400Y317500D01*
X263525Y317500D02*
X263525Y508000D01*
D13*
X317500Y441325D02*
X292100Y415925D01*
X317500Y441325D02*
X514350Y441325D01*
X533400Y422275D01*
X533400Y368300D01*
X508000Y368300D01*
D14*
X292100Y415925D03*
D13*
X279400Y215900D02*
X412750Y82550D01*
D14*
X412750Y82550D03*
D13*
X279400Y190500D02*
X257175Y168275D01*
X257175Y9525D01*
X492125Y9525D01*
X539750Y57150D01*
X539750Y114300D01*
X508000Y114300D01*
X279400Y114300D02*
X263525Y98425D01*
X263525Y15875D01*
X488950Y15875D01*
X533400Y60325D01*
X533400Y88900D01*
X508000Y88900D01*
X346075Y22225D02*
X279400Y88900D01*
X346075Y22225D02*
X466725Y22225D01*
X508000Y63500D01*
X508000Y317500D02*
X431800Y317500D01*
X333375Y434975D02*
X304800Y406400D01*
X333375Y434975D02*
X511175Y434975D01*
X520700Y425450D01*
X520700Y393700D01*
X508000Y393700D01*
D14*
X304800Y406400D03*
D13*
X279400Y393700D02*
X403225Y393700D01*
X431800Y422275D01*
X508000Y422275D01*
D14*
X508000Y422275D03*
D13*
X298450Y387350D02*
X279400Y368300D01*
X298450Y387350D02*
X406400Y387350D01*
X428625Y409575D01*
X460375Y409575D01*
D14*
X460375Y409575D03*
D13*
X193675Y454025D02*
X114300Y533400D01*
X193675Y454025D02*
X228600Y454025D01*
X228600Y452120D01*
X508000Y533400D02*
X508000Y558800D01*
X279400Y558800D01*
X254000Y533400D01*
X663575Y428625D02*
X663575Y368300D01*
X663575Y428625D02*
X669925Y428625D01*
X685800Y444500D01*
X663575Y368300D02*
X662940Y368300D01*
X685800Y444500D02*
X688340Y444500D01*
X752475Y431800D02*
X688975Y368300D01*
X752475Y431800D02*
X752475Y460375D01*
X679450Y460375D01*
X663575Y444500D01*
X688340Y368300D02*
X688975Y368300D01*
X663575Y444500D02*
X662940Y444500D01*
M02*
