G04 EAGLE Gerber RS-274X export*
G75*
%MOMM*%
%FSLAX34Y34*%
%LPD*%
%INTop Copper*%
%IPPOS*%
%AMOC8*
5,1,8,0,0,1.08239X$1,22.5*%
G01*
%ADD10C,1.879600*%
%ADD11C,1.879600*%
%ADD12C,0.304800*%
%ADD13C,0.254000*%
%ADD14C,1.066800*%


D10*
X279400Y393700D03*
X279400Y368300D03*
X279400Y342900D03*
X279400Y317500D03*
X279400Y292100D03*
X279400Y266700D03*
X279400Y241300D03*
X279400Y215900D03*
X279400Y190500D03*
X279400Y165100D03*
X279400Y139700D03*
X279400Y114300D03*
X279400Y88900D03*
X279400Y63500D03*
X279400Y38100D03*
X431800Y38100D03*
X431800Y63500D03*
X431800Y88900D03*
X431800Y114300D03*
X431800Y139700D03*
X431800Y165100D03*
X431800Y190500D03*
X431800Y215900D03*
X431800Y241300D03*
X431800Y266700D03*
X431800Y292100D03*
X431800Y317500D03*
X431800Y342900D03*
X431800Y368300D03*
X431800Y393700D03*
D11*
X498602Y63500D02*
X517398Y63500D01*
X517398Y88900D02*
X498602Y88900D01*
X498602Y114300D02*
X517398Y114300D01*
X517398Y139700D02*
X498602Y139700D01*
X498602Y203200D02*
X517398Y203200D01*
X517398Y228600D02*
X498602Y228600D01*
X498602Y254000D02*
X517398Y254000D01*
X517398Y279400D02*
X498602Y279400D01*
X498602Y317500D02*
X517398Y317500D01*
X517398Y342900D02*
X498602Y342900D01*
X498602Y368300D02*
X517398Y368300D01*
X517398Y393700D02*
X498602Y393700D01*
D10*
X424180Y474980D03*
X398780Y474980D03*
X373380Y474980D03*
X347980Y474980D03*
X322580Y474980D03*
X297180Y474980D03*
D11*
X228600Y461518D02*
X228600Y442722D01*
X228600Y47498D02*
X228600Y28702D01*
X50800Y442722D02*
X50800Y461518D01*
X50800Y47498D02*
X50800Y28702D01*
X114300Y524002D02*
X114300Y542798D01*
X254000Y542798D02*
X254000Y524002D01*
X508000Y524002D02*
X508000Y542798D01*
X88900Y542798D02*
X88900Y524002D01*
X228600Y524002D02*
X228600Y542798D01*
X482600Y542798D02*
X482600Y524002D01*
X457200Y524002D02*
X457200Y542798D01*
X203200Y542798D02*
X203200Y524002D01*
X63500Y524002D02*
X63500Y542798D01*
D10*
X612140Y444500D03*
X637540Y444500D03*
X662940Y444500D03*
X688340Y444500D03*
X713740Y444500D03*
X739140Y444500D03*
X612140Y368300D03*
X637540Y368300D03*
X662940Y368300D03*
X688340Y368300D03*
X713740Y368300D03*
X739140Y368300D03*
D12*
X63500Y466725D02*
X50800Y454025D01*
X63500Y501650D02*
X63500Y533400D01*
X63500Y501650D02*
X63500Y466725D01*
X50800Y454025D02*
X50800Y452120D01*
X63500Y533400D02*
X88900Y533400D01*
X203200Y533400D02*
X228600Y533400D01*
X457200Y533400D02*
X482600Y533400D01*
X203200Y501650D02*
X63500Y501650D01*
X203200Y501650D02*
X203200Y533400D01*
D13*
X295275Y282575D02*
X279400Y266700D01*
X295275Y282575D02*
X295275Y400050D01*
X292100Y403225D01*
X292100Y415925D01*
D14*
X292100Y415925D03*
D13*
X412750Y82550D02*
X415925Y79375D01*
X415925Y34925D01*
X428625Y22225D01*
X482600Y22225D01*
X482600Y117475D01*
X504825Y139700D01*
X508000Y139700D01*
D14*
X412750Y82550D03*
D13*
X279400Y165100D02*
X263525Y180975D01*
X263525Y460375D01*
X292100Y488950D01*
X396875Y488950D01*
X396875Y476250D01*
X398780Y474980D01*
X257175Y161925D02*
X279400Y139700D01*
X257175Y161925D02*
X257175Y463550D01*
X288925Y495300D01*
X422275Y495300D01*
X422275Y476250D01*
X424180Y474980D01*
X279400Y63500D02*
X263525Y47625D01*
X263525Y34925D01*
X276225Y22225D01*
X323850Y22225D01*
X323850Y473075D01*
X322580Y474980D01*
X228600Y38100D02*
X257175Y9525D01*
X387350Y9525D01*
X387350Y273050D01*
X415925Y301625D02*
X428625Y314325D01*
X415925Y301625D02*
X387350Y273050D01*
X415925Y431800D02*
X374650Y473075D01*
X415925Y431800D02*
X415925Y301625D01*
X374650Y473075D02*
X373380Y474980D01*
X447675Y203200D02*
X508000Y203200D01*
X447675Y203200D02*
X447675Y295275D01*
X428625Y314325D01*
X431800Y317500D01*
X304800Y266700D02*
X279400Y241300D01*
X304800Y266700D02*
X304800Y406400D01*
D14*
X304800Y406400D03*
D13*
X508000Y422275D02*
X533400Y396875D01*
X533400Y304800D01*
X508000Y279400D01*
D14*
X508000Y422275D03*
D13*
X482600Y387350D02*
X460375Y409575D01*
X482600Y387350D02*
X482600Y276225D01*
X504825Y254000D01*
X508000Y254000D01*
D14*
X460375Y409575D03*
D13*
X317500Y76200D02*
X279400Y38100D01*
X317500Y76200D02*
X317500Y454025D01*
X298450Y473075D01*
X297180Y474980D01*
X254000Y479425D02*
X228600Y454025D01*
X254000Y479425D02*
X254000Y533400D01*
X228600Y454025D02*
X228600Y452120D01*
X596900Y381000D02*
X609600Y368300D01*
X596900Y381000D02*
X596900Y450850D01*
X606425Y460375D01*
X736600Y460375D01*
X736600Y444500D01*
X612140Y368300D02*
X609600Y368300D01*
X736600Y444500D02*
X739140Y444500D01*
X660400Y346075D02*
X638175Y368300D01*
X660400Y346075D02*
X758825Y346075D01*
X758825Y400050D01*
X714375Y444500D01*
X638175Y368300D02*
X637540Y368300D01*
X713740Y444500D02*
X714375Y444500D01*
X714375Y368300D02*
X730250Y352425D01*
X752475Y352425D01*
X752475Y374650D01*
X698500Y428625D01*
X638175Y428625D01*
X638175Y444500D01*
X713740Y368300D02*
X714375Y368300D01*
X638175Y444500D02*
X637540Y444500D01*
X612775Y444500D02*
X673100Y384175D01*
X733425Y384175D01*
X733425Y371475D01*
X736600Y368300D01*
X612775Y444500D02*
X612140Y444500D01*
X736600Y368300D02*
X739140Y368300D01*
M02*
