G04 EAGLE Gerber RS-274X export*
G75*
%MOMM*%
%FSLAX34Y34*%
%LPD*%
%INBottom Copper*%
%IPPOS*%
%AMOC8*
5,1,8,0,0,1.08239X$1,22.5*%
G01*
%ADD10C,1.879600*%
%ADD11C,1.879600*%
%ADD12R,2.032000X2.032000*%
%ADD13C,2.032000*%
%ADD14C,0.304800*%
%ADD15C,0.254000*%
%ADD16C,1.066800*%


D10*
X342900Y393700D03*
X342900Y368300D03*
X342900Y342900D03*
X342900Y317500D03*
X342900Y292100D03*
X342900Y266700D03*
X342900Y241300D03*
X342900Y215900D03*
X342900Y190500D03*
X342900Y165100D03*
X342900Y139700D03*
X342900Y114300D03*
X342900Y88900D03*
X342900Y63500D03*
X342900Y38100D03*
X495300Y38100D03*
X495300Y63500D03*
X495300Y88900D03*
X495300Y114300D03*
X495300Y139700D03*
X495300Y165100D03*
X495300Y190500D03*
X495300Y215900D03*
X495300Y241300D03*
X495300Y266700D03*
X495300Y292100D03*
X495300Y317500D03*
X495300Y342900D03*
X495300Y368300D03*
X495300Y393700D03*
D11*
X279400Y326898D02*
X279400Y308102D01*
X279400Y397002D02*
X279400Y415798D01*
X288798Y177800D02*
X270002Y177800D01*
X270002Y203200D02*
X288798Y203200D01*
X288798Y228600D02*
X270002Y228600D01*
X270002Y254000D02*
X288798Y254000D01*
X587502Y215900D02*
X606298Y215900D01*
X606298Y241300D02*
X587502Y241300D01*
X587502Y266700D02*
X606298Y266700D01*
X606298Y292100D02*
X587502Y292100D01*
X587502Y355600D02*
X606298Y355600D01*
X606298Y381000D02*
X587502Y381000D01*
X587502Y406400D02*
X606298Y406400D01*
X606298Y431800D02*
X587502Y431800D01*
D10*
X487680Y449580D03*
X462280Y449580D03*
X436880Y449580D03*
X411480Y449580D03*
X386080Y449580D03*
X360680Y449580D03*
D11*
X587502Y50800D02*
X606298Y50800D01*
X606298Y76200D02*
X587502Y76200D01*
X587502Y101600D02*
X606298Y101600D01*
X606298Y127000D02*
X587502Y127000D01*
D12*
X114300Y533400D03*
D13*
X79300Y533400D03*
D12*
X609600Y533400D03*
D13*
X574600Y533400D03*
D11*
X228600Y453898D02*
X228600Y435102D01*
X228600Y47498D02*
X228600Y28702D01*
X50800Y435102D02*
X50800Y453898D01*
X50800Y47498D02*
X50800Y28702D01*
D12*
X279400Y533400D03*
D13*
X244400Y533400D03*
D14*
X50800Y38100D02*
X76200Y12700D01*
X527050Y12700D01*
X590550Y76200D01*
X596900Y76200D01*
X241300Y533400D02*
X222250Y552450D01*
X101600Y552450D01*
X82550Y533400D01*
X241300Y533400D02*
X244400Y533400D01*
X82550Y533400D02*
X79300Y533400D01*
X279400Y317500D02*
X342900Y317500D01*
X501650Y374650D02*
X508000Y381000D01*
X596900Y381000D01*
X412750Y374650D02*
X412750Y444500D01*
X412750Y374650D02*
X501650Y374650D01*
X412750Y444500D02*
X411480Y449580D01*
X495300Y368300D02*
X501650Y374650D01*
X603250Y247650D02*
X596900Y241300D01*
X603250Y247650D02*
X609600Y247650D01*
X622300Y260350D01*
X622300Y381000D01*
X596900Y381000D01*
X533400Y495300D02*
X571500Y533400D01*
X533400Y495300D02*
X457200Y495300D01*
X425450Y463550D02*
X411480Y449580D01*
X425450Y463550D02*
X457200Y495300D01*
X571500Y533400D02*
X574600Y533400D01*
X400050Y374650D02*
X342900Y317500D01*
X400050Y374650D02*
X412750Y374650D01*
X317500Y463550D02*
X247650Y533400D01*
X317500Y463550D02*
X425450Y463550D01*
X247650Y533400D02*
X244400Y533400D01*
X603250Y82550D02*
X596900Y76200D01*
X603250Y82550D02*
X609600Y82550D01*
X622300Y95250D01*
X622300Y247650D01*
X609600Y247650D01*
X596900Y241300D01*
D15*
X590550Y406400D02*
X514350Y482600D01*
X590550Y406400D02*
X596900Y406400D01*
D16*
X514350Y482600D03*
D15*
X285750Y247650D02*
X279400Y254000D01*
X285750Y247650D02*
X311150Y247650D01*
X342900Y215900D01*
X285750Y222250D02*
X279400Y228600D01*
X285750Y222250D02*
X311150Y222250D01*
X342900Y190500D01*
X342900Y165100D02*
X431800Y254000D01*
X431800Y419100D02*
X462280Y449580D01*
D16*
X431800Y254000D03*
X431800Y419100D03*
D15*
X457200Y254000D02*
X342900Y139700D01*
X457200Y254000D02*
X457200Y361950D01*
D16*
X457200Y361950D03*
D15*
X304800Y152400D02*
X342900Y114300D01*
X304800Y152400D02*
X304800Y203200D01*
X279400Y203200D01*
X254000Y152400D02*
X342900Y63500D01*
X254000Y152400D02*
X254000Y431800D01*
X368300Y431800D01*
X386080Y449580D01*
X279400Y152400D02*
X342900Y88900D01*
X279400Y152400D02*
X279400Y177800D01*
X495300Y317500D02*
X533400Y355600D01*
X596900Y355600D01*
X552450Y336550D02*
X596900Y292100D01*
D16*
X552450Y336550D03*
D15*
X590550Y107950D02*
X596900Y101600D01*
X590550Y107950D02*
X584200Y107950D01*
X514350Y177800D01*
X514350Y215900D01*
X495300Y215900D01*
X520700Y203200D02*
X596900Y127000D01*
X520700Y203200D02*
X520700Y241300D01*
X495300Y241300D01*
X203200Y444500D02*
X114300Y533400D01*
X203200Y444500D02*
X228600Y444500D01*
M02*
