G04 EAGLE Gerber RS-274X export*
G75*
%MOMM*%
%FSLAX34Y34*%
%LPD*%
%INTop Copper*%
%IPPOS*%
%AMOC8*
5,1,8,0,0,1.08239X$1,22.5*%
G01*
%ADD10C,1.879600*%
%ADD11R,1.651000X1.651000*%
%ADD12C,1.651000*%
%ADD13C,1.879600*%
%ADD14R,2.032000X2.032000*%
%ADD15C,2.032000*%
%ADD16C,0.304800*%
%ADD17C,0.254000*%
%ADD18C,1.066800*%


D10*
X93980Y381000D03*
X93980Y355600D03*
X93980Y330200D03*
X93980Y304800D03*
X93980Y279400D03*
X93980Y254000D03*
X93980Y228600D03*
X93980Y203200D03*
X93980Y177800D03*
X93980Y152400D03*
X93980Y127000D03*
X93980Y101600D03*
X93980Y76200D03*
X93980Y50800D03*
X93980Y25400D03*
X246380Y25400D03*
X246380Y50800D03*
X246380Y76200D03*
X246380Y101600D03*
X246380Y127000D03*
X246380Y152400D03*
X246380Y177800D03*
X246380Y203200D03*
X246380Y228600D03*
X246380Y254000D03*
X246380Y279400D03*
X246380Y304800D03*
X246380Y330200D03*
X246380Y355600D03*
X246380Y381000D03*
D11*
X50800Y165100D03*
D12*
X25400Y165100D03*
D13*
X25400Y371602D02*
X25400Y390398D01*
D14*
X152400Y469900D03*
D15*
X187400Y469900D03*
D13*
X47498Y50800D02*
X28702Y50800D01*
X28702Y76200D02*
X47498Y76200D01*
X47498Y101600D02*
X28702Y101600D01*
X25400Y447802D02*
X25400Y466598D01*
X308102Y38100D02*
X326898Y38100D01*
X326898Y63500D02*
X308102Y63500D01*
X308102Y88900D02*
X326898Y88900D01*
X326898Y114300D02*
X308102Y114300D01*
X308102Y215900D02*
X326898Y215900D01*
X326898Y241300D02*
X308102Y241300D01*
X308102Y266700D02*
X326898Y266700D01*
X326898Y292100D02*
X308102Y292100D01*
X308102Y368300D02*
X326898Y368300D01*
X326898Y393700D02*
X308102Y393700D01*
X308102Y419100D02*
X326898Y419100D01*
X326898Y444500D02*
X308102Y444500D01*
D14*
X25400Y266700D03*
D15*
X25400Y301700D03*
D16*
X9525Y180975D02*
X12700Y177800D01*
X25400Y165100D01*
X9525Y180975D02*
X9525Y285750D01*
X25400Y301625D01*
X25400Y301700D01*
X12700Y50800D02*
X38100Y50800D01*
X12700Y50800D02*
X12700Y177800D01*
X25400Y301700D02*
X25400Y381000D01*
D17*
X95250Y254000D02*
X219075Y377825D01*
X219075Y400050D01*
X279400Y460375D01*
X342900Y460375D01*
X342900Y441325D01*
X320675Y419100D01*
X317500Y419100D01*
X95250Y254000D02*
X93980Y254000D01*
X254000Y400050D02*
X260350Y393700D01*
X260350Y165100D01*
D18*
X254000Y400050D03*
X260350Y165100D03*
D17*
X231775Y314325D02*
X95250Y177800D01*
X231775Y314325D02*
X231775Y393700D01*
X250825Y412750D01*
X266700Y412750D01*
X266700Y174625D01*
X292100Y149225D01*
X292100Y111125D01*
X314325Y88900D01*
X317500Y88900D01*
X95250Y177800D02*
X93980Y177800D01*
X95250Y101600D02*
X187325Y9525D01*
X292100Y9525D01*
X292100Y41275D01*
X314325Y63500D01*
X317500Y63500D01*
X95250Y101600D02*
X93980Y101600D01*
X342900Y342900D02*
X320675Y365125D01*
X342900Y342900D02*
X342900Y238125D01*
X320675Y215900D01*
X317500Y215900D01*
X320675Y365125D02*
X349250Y393700D01*
X349250Y463550D01*
X346075Y466725D01*
X203200Y466725D01*
X203200Y463550D01*
X193675Y454025D01*
X152400Y454025D01*
X152400Y469900D01*
X317500Y368300D02*
X320675Y365125D01*
X209550Y342900D02*
X95250Y228600D01*
X209550Y342900D02*
X225425Y342900D01*
X225425Y396875D01*
X273050Y444500D01*
X317500Y444500D01*
X95250Y228600D02*
X93980Y228600D01*
X285750Y323850D02*
X317500Y292100D01*
X285750Y323850D02*
X285750Y387350D01*
X279400Y393700D01*
D18*
X279400Y393700D03*
D17*
X187325Y447675D02*
X95250Y355600D01*
X187325Y447675D02*
X250825Y447675D01*
X95250Y355600D02*
X93980Y355600D01*
D18*
X250825Y447675D03*
D17*
X92075Y279400D02*
X41275Y330200D01*
X41275Y441325D01*
X25400Y457200D01*
X92075Y279400D02*
X93980Y279400D01*
X25400Y190500D02*
X50800Y165100D01*
X25400Y190500D02*
X25400Y266700D01*
X38100Y76200D02*
X63500Y76200D01*
X63500Y152400D01*
X50800Y165100D01*
M02*
