G04 EAGLE Gerber RS-274X export*
G75*
%MOMM*%
%FSLAX34Y34*%
%LPD*%
%IN*%
%IPPOS*%
%AMOC8*
5,1,8,0,0,1.08239X$1,22.5*%
G01*
%ADD10C,0.254000*%


D10*
X0Y0D02*
X320294Y0D01*
X559308Y-508D01*
X558800Y0D01*
X558800Y165100D01*
X787400Y165100D01*
X787400Y482600D01*
X558800Y482600D01*
X558800Y571500D01*
X559308Y583438D01*
X0Y582168D01*
X0Y406400D01*
X241300Y406400D01*
X241300Y76200D01*
X0Y76200D01*
X0Y0D01*
X581660Y461781D02*
X581582Y460786D01*
X581426Y459800D01*
X581193Y458830D01*
X580884Y457881D01*
X580502Y456959D01*
X580049Y456070D01*
X579528Y455219D01*
X578941Y454411D01*
X578293Y453653D01*
X577587Y452947D01*
X576829Y452299D01*
X576021Y451712D01*
X575170Y451191D01*
X574281Y450738D01*
X573359Y450356D01*
X572410Y450047D01*
X571440Y449814D01*
X570454Y449658D01*
X569459Y449580D01*
X568461Y449580D01*
X567466Y449658D01*
X566480Y449814D01*
X565510Y450047D01*
X564561Y450356D01*
X563639Y450738D01*
X562750Y451191D01*
X561899Y451712D01*
X561091Y452299D01*
X560333Y452947D01*
X559627Y453653D01*
X558979Y454411D01*
X558392Y455219D01*
X557871Y456070D01*
X557418Y456959D01*
X557036Y457881D01*
X556727Y458830D01*
X556494Y459800D01*
X556338Y460786D01*
X556260Y461781D01*
X556260Y462779D01*
X556338Y463774D01*
X556494Y464760D01*
X556727Y465730D01*
X557036Y466679D01*
X557418Y467601D01*
X557871Y468490D01*
X558392Y469341D01*
X558979Y470149D01*
X559627Y470907D01*
X560333Y471613D01*
X561091Y472261D01*
X561899Y472848D01*
X562750Y473369D01*
X563639Y473822D01*
X564561Y474204D01*
X565510Y474513D01*
X566480Y474746D01*
X567466Y474902D01*
X568461Y474980D01*
X569459Y474980D01*
X570454Y474902D01*
X571440Y474746D01*
X572410Y474513D01*
X573359Y474204D01*
X574281Y473822D01*
X575170Y473369D01*
X576021Y472848D01*
X576829Y472261D01*
X577587Y471613D01*
X578293Y470907D01*
X578941Y470149D01*
X579528Y469341D01*
X580049Y468490D01*
X580502Y467601D01*
X580884Y466679D01*
X581193Y465730D01*
X581426Y464760D01*
X581582Y463774D01*
X581660Y462779D01*
X581660Y461781D01*
X581660Y431301D02*
X581582Y430306D01*
X581426Y429320D01*
X581193Y428350D01*
X580884Y427401D01*
X580502Y426479D01*
X580049Y425590D01*
X579528Y424739D01*
X578941Y423931D01*
X578293Y423173D01*
X577587Y422467D01*
X576829Y421819D01*
X576021Y421232D01*
X575170Y420711D01*
X574281Y420258D01*
X573359Y419876D01*
X572410Y419567D01*
X571440Y419334D01*
X570454Y419178D01*
X569459Y419100D01*
X568461Y419100D01*
X567466Y419178D01*
X566480Y419334D01*
X565510Y419567D01*
X564561Y419876D01*
X563639Y420258D01*
X562750Y420711D01*
X561899Y421232D01*
X561091Y421819D01*
X560333Y422467D01*
X559627Y423173D01*
X558979Y423931D01*
X558392Y424739D01*
X557871Y425590D01*
X557418Y426479D01*
X557036Y427401D01*
X556727Y428350D01*
X556494Y429320D01*
X556338Y430306D01*
X556260Y431301D01*
X556260Y432299D01*
X556338Y433294D01*
X556494Y434280D01*
X556727Y435250D01*
X557036Y436199D01*
X557418Y437121D01*
X557871Y438010D01*
X558392Y438861D01*
X558979Y439669D01*
X559627Y440427D01*
X560333Y441133D01*
X561091Y441781D01*
X561899Y442368D01*
X562750Y442889D01*
X563639Y443342D01*
X564561Y443724D01*
X565510Y444033D01*
X566480Y444266D01*
X567466Y444422D01*
X568461Y444500D01*
X569459Y444500D01*
X570454Y444422D01*
X571440Y444266D01*
X572410Y444033D01*
X573359Y443724D01*
X574281Y443342D01*
X575170Y442889D01*
X576021Y442368D01*
X576829Y441781D01*
X577587Y441133D01*
X578293Y440427D01*
X578941Y439669D01*
X579528Y438861D01*
X580049Y438010D01*
X580502Y437121D01*
X580884Y436199D01*
X581193Y435250D01*
X581426Y434280D01*
X581582Y433294D01*
X581660Y432299D01*
X581660Y431301D01*
X581660Y398281D02*
X581582Y397286D01*
X581426Y396300D01*
X581193Y395330D01*
X580884Y394381D01*
X580502Y393459D01*
X580049Y392570D01*
X579528Y391719D01*
X578941Y390911D01*
X578293Y390153D01*
X577587Y389447D01*
X576829Y388799D01*
X576021Y388212D01*
X575170Y387691D01*
X574281Y387238D01*
X573359Y386856D01*
X572410Y386547D01*
X571440Y386314D01*
X570454Y386158D01*
X569459Y386080D01*
X568461Y386080D01*
X567466Y386158D01*
X566480Y386314D01*
X565510Y386547D01*
X564561Y386856D01*
X563639Y387238D01*
X562750Y387691D01*
X561899Y388212D01*
X561091Y388799D01*
X560333Y389447D01*
X559627Y390153D01*
X558979Y390911D01*
X558392Y391719D01*
X557871Y392570D01*
X557418Y393459D01*
X557036Y394381D01*
X556727Y395330D01*
X556494Y396300D01*
X556338Y397286D01*
X556260Y398281D01*
X556260Y399279D01*
X556338Y400274D01*
X556494Y401260D01*
X556727Y402230D01*
X557036Y403179D01*
X557418Y404101D01*
X557871Y404990D01*
X558392Y405841D01*
X558979Y406649D01*
X559627Y407407D01*
X560333Y408113D01*
X561091Y408761D01*
X561899Y409348D01*
X562750Y409869D01*
X563639Y410322D01*
X564561Y410704D01*
X565510Y411013D01*
X566480Y411246D01*
X567466Y411402D01*
X568461Y411480D01*
X569459Y411480D01*
X570454Y411402D01*
X571440Y411246D01*
X572410Y411013D01*
X573359Y410704D01*
X574281Y410322D01*
X575170Y409869D01*
X576021Y409348D01*
X576829Y408761D01*
X577587Y408113D01*
X578293Y407407D01*
X578941Y406649D01*
X579528Y405841D01*
X580049Y404990D01*
X580502Y404101D01*
X580884Y403179D01*
X581193Y402230D01*
X581426Y401260D01*
X581582Y400274D01*
X581660Y399279D01*
X581660Y398281D01*
X581660Y367801D02*
X581582Y366806D01*
X581426Y365820D01*
X581193Y364850D01*
X580884Y363901D01*
X580502Y362979D01*
X580049Y362090D01*
X579528Y361239D01*
X578941Y360431D01*
X578293Y359673D01*
X577587Y358967D01*
X576829Y358319D01*
X576021Y357732D01*
X575170Y357211D01*
X574281Y356758D01*
X573359Y356376D01*
X572410Y356067D01*
X571440Y355834D01*
X570454Y355678D01*
X569459Y355600D01*
X568461Y355600D01*
X567466Y355678D01*
X566480Y355834D01*
X565510Y356067D01*
X564561Y356376D01*
X563639Y356758D01*
X562750Y357211D01*
X561899Y357732D01*
X561091Y358319D01*
X560333Y358967D01*
X559627Y359673D01*
X558979Y360431D01*
X558392Y361239D01*
X557871Y362090D01*
X557418Y362979D01*
X557036Y363901D01*
X556727Y364850D01*
X556494Y365820D01*
X556338Y366806D01*
X556260Y367801D01*
X556260Y368799D01*
X556338Y369794D01*
X556494Y370780D01*
X556727Y371750D01*
X557036Y372699D01*
X557418Y373621D01*
X557871Y374510D01*
X558392Y375361D01*
X558979Y376169D01*
X559627Y376927D01*
X560333Y377633D01*
X561091Y378281D01*
X561899Y378868D01*
X562750Y379389D01*
X563639Y379842D01*
X564561Y380224D01*
X565510Y380533D01*
X566480Y380766D01*
X567466Y380922D01*
X568461Y381000D01*
X569459Y381000D01*
X570454Y380922D01*
X571440Y380766D01*
X572410Y380533D01*
X573359Y380224D01*
X574281Y379842D01*
X575170Y379389D01*
X576021Y378868D01*
X576829Y378281D01*
X577587Y377633D01*
X578293Y376927D01*
X578941Y376169D01*
X579528Y375361D01*
X580049Y374510D01*
X580502Y373621D01*
X580884Y372699D01*
X581193Y371750D01*
X581426Y370780D01*
X581582Y369794D01*
X581660Y368799D01*
X581660Y367801D01*
X581660Y337321D02*
X581582Y336326D01*
X581426Y335340D01*
X581193Y334370D01*
X580884Y333421D01*
X580502Y332499D01*
X580049Y331610D01*
X579528Y330759D01*
X578941Y329951D01*
X578293Y329193D01*
X577587Y328487D01*
X576829Y327839D01*
X576021Y327252D01*
X575170Y326731D01*
X574281Y326278D01*
X573359Y325896D01*
X572410Y325587D01*
X571440Y325354D01*
X570454Y325198D01*
X569459Y325120D01*
X568461Y325120D01*
X567466Y325198D01*
X566480Y325354D01*
X565510Y325587D01*
X564561Y325896D01*
X563639Y326278D01*
X562750Y326731D01*
X561899Y327252D01*
X561091Y327839D01*
X560333Y328487D01*
X559627Y329193D01*
X558979Y329951D01*
X558392Y330759D01*
X557871Y331610D01*
X557418Y332499D01*
X557036Y333421D01*
X556727Y334370D01*
X556494Y335340D01*
X556338Y336326D01*
X556260Y337321D01*
X556260Y338319D01*
X556338Y339314D01*
X556494Y340300D01*
X556727Y341270D01*
X557036Y342219D01*
X557418Y343141D01*
X557871Y344030D01*
X558392Y344881D01*
X558979Y345689D01*
X559627Y346447D01*
X560333Y347153D01*
X561091Y347801D01*
X561899Y348388D01*
X562750Y348909D01*
X563639Y349362D01*
X564561Y349744D01*
X565510Y350053D01*
X566480Y350286D01*
X567466Y350442D01*
X568461Y350520D01*
X569459Y350520D01*
X570454Y350442D01*
X571440Y350286D01*
X572410Y350053D01*
X573359Y349744D01*
X574281Y349362D01*
X575170Y348909D01*
X576021Y348388D01*
X576829Y347801D01*
X577587Y347153D01*
X578293Y346447D01*
X578941Y345689D01*
X579528Y344881D01*
X580049Y344030D01*
X580502Y343141D01*
X580884Y342219D01*
X581193Y341270D01*
X581426Y340300D01*
X581582Y339314D01*
X581660Y338319D01*
X581660Y337321D01*
X581660Y306841D02*
X581582Y305846D01*
X581426Y304860D01*
X581193Y303890D01*
X580884Y302941D01*
X580502Y302019D01*
X580049Y301130D01*
X579528Y300279D01*
X578941Y299471D01*
X578293Y298713D01*
X577587Y298007D01*
X576829Y297359D01*
X576021Y296772D01*
X575170Y296251D01*
X574281Y295798D01*
X573359Y295416D01*
X572410Y295107D01*
X571440Y294874D01*
X570454Y294718D01*
X569459Y294640D01*
X568461Y294640D01*
X567466Y294718D01*
X566480Y294874D01*
X565510Y295107D01*
X564561Y295416D01*
X563639Y295798D01*
X562750Y296251D01*
X561899Y296772D01*
X561091Y297359D01*
X560333Y298007D01*
X559627Y298713D01*
X558979Y299471D01*
X558392Y300279D01*
X557871Y301130D01*
X557418Y302019D01*
X557036Y302941D01*
X556727Y303890D01*
X556494Y304860D01*
X556338Y305846D01*
X556260Y306841D01*
X556260Y307839D01*
X556338Y308834D01*
X556494Y309820D01*
X556727Y310790D01*
X557036Y311739D01*
X557418Y312661D01*
X557871Y313550D01*
X558392Y314401D01*
X558979Y315209D01*
X559627Y315967D01*
X560333Y316673D01*
X561091Y317321D01*
X561899Y317908D01*
X562750Y318429D01*
X563639Y318882D01*
X564561Y319264D01*
X565510Y319573D01*
X566480Y319806D01*
X567466Y319962D01*
X568461Y320040D01*
X569459Y320040D01*
X570454Y319962D01*
X571440Y319806D01*
X572410Y319573D01*
X573359Y319264D01*
X574281Y318882D01*
X575170Y318429D01*
X576021Y317908D01*
X576829Y317321D01*
X577587Y316673D01*
X578293Y315967D01*
X578941Y315209D01*
X579528Y314401D01*
X580049Y313550D01*
X580502Y312661D01*
X580884Y311739D01*
X581193Y310790D01*
X581426Y309820D01*
X581582Y308834D01*
X581660Y307839D01*
X581660Y306841D01*
X581660Y273821D02*
X581582Y272826D01*
X581426Y271840D01*
X581193Y270870D01*
X580884Y269921D01*
X580502Y268999D01*
X580049Y268110D01*
X579528Y267259D01*
X578941Y266451D01*
X578293Y265693D01*
X577587Y264987D01*
X576829Y264339D01*
X576021Y263752D01*
X575170Y263231D01*
X574281Y262778D01*
X573359Y262396D01*
X572410Y262087D01*
X571440Y261854D01*
X570454Y261698D01*
X569459Y261620D01*
X568461Y261620D01*
X567466Y261698D01*
X566480Y261854D01*
X565510Y262087D01*
X564561Y262396D01*
X563639Y262778D01*
X562750Y263231D01*
X561899Y263752D01*
X561091Y264339D01*
X560333Y264987D01*
X559627Y265693D01*
X558979Y266451D01*
X558392Y267259D01*
X557871Y268110D01*
X557418Y268999D01*
X557036Y269921D01*
X556727Y270870D01*
X556494Y271840D01*
X556338Y272826D01*
X556260Y273821D01*
X556260Y274819D01*
X556338Y275814D01*
X556494Y276800D01*
X556727Y277770D01*
X557036Y278719D01*
X557418Y279641D01*
X557871Y280530D01*
X558392Y281381D01*
X558979Y282189D01*
X559627Y282947D01*
X560333Y283653D01*
X561091Y284301D01*
X561899Y284888D01*
X562750Y285409D01*
X563639Y285862D01*
X564561Y286244D01*
X565510Y286553D01*
X566480Y286786D01*
X567466Y286942D01*
X568461Y287020D01*
X569459Y287020D01*
X570454Y286942D01*
X571440Y286786D01*
X572410Y286553D01*
X573359Y286244D01*
X574281Y285862D01*
X575170Y285409D01*
X576021Y284888D01*
X576829Y284301D01*
X577587Y283653D01*
X578293Y282947D01*
X578941Y282189D01*
X579528Y281381D01*
X580049Y280530D01*
X580502Y279641D01*
X580884Y278719D01*
X581193Y277770D01*
X581426Y276800D01*
X581582Y275814D01*
X581660Y274819D01*
X581660Y273821D01*
X581660Y243341D02*
X581582Y242346D01*
X581426Y241360D01*
X581193Y240390D01*
X580884Y239441D01*
X580502Y238519D01*
X580049Y237630D01*
X579528Y236779D01*
X578941Y235971D01*
X578293Y235213D01*
X577587Y234507D01*
X576829Y233859D01*
X576021Y233272D01*
X575170Y232751D01*
X574281Y232298D01*
X573359Y231916D01*
X572410Y231607D01*
X571440Y231374D01*
X570454Y231218D01*
X569459Y231140D01*
X568461Y231140D01*
X567466Y231218D01*
X566480Y231374D01*
X565510Y231607D01*
X564561Y231916D01*
X563639Y232298D01*
X562750Y232751D01*
X561899Y233272D01*
X561091Y233859D01*
X560333Y234507D01*
X559627Y235213D01*
X558979Y235971D01*
X558392Y236779D01*
X557871Y237630D01*
X557418Y238519D01*
X557036Y239441D01*
X556727Y240390D01*
X556494Y241360D01*
X556338Y242346D01*
X556260Y243341D01*
X556260Y244339D01*
X556338Y245334D01*
X556494Y246320D01*
X556727Y247290D01*
X557036Y248239D01*
X557418Y249161D01*
X557871Y250050D01*
X558392Y250901D01*
X558979Y251709D01*
X559627Y252467D01*
X560333Y253173D01*
X561091Y253821D01*
X561899Y254408D01*
X562750Y254929D01*
X563639Y255382D01*
X564561Y255764D01*
X565510Y256073D01*
X566480Y256306D01*
X567466Y256462D01*
X568461Y256540D01*
X569459Y256540D01*
X570454Y256462D01*
X571440Y256306D01*
X572410Y256073D01*
X573359Y255764D01*
X574281Y255382D01*
X575170Y254929D01*
X576021Y254408D01*
X576829Y253821D01*
X577587Y253173D01*
X578293Y252467D01*
X578941Y251709D01*
X579528Y250901D01*
X580049Y250050D01*
X580502Y249161D01*
X580884Y248239D01*
X581193Y247290D01*
X581426Y246320D01*
X581582Y245334D01*
X581660Y244339D01*
X581660Y243341D01*
X581660Y212861D02*
X581582Y211866D01*
X581426Y210880D01*
X581193Y209910D01*
X580884Y208961D01*
X580502Y208039D01*
X580049Y207150D01*
X579528Y206299D01*
X578941Y205491D01*
X578293Y204733D01*
X577587Y204027D01*
X576829Y203379D01*
X576021Y202792D01*
X575170Y202271D01*
X574281Y201818D01*
X573359Y201436D01*
X572410Y201127D01*
X571440Y200894D01*
X570454Y200738D01*
X569459Y200660D01*
X568461Y200660D01*
X567466Y200738D01*
X566480Y200894D01*
X565510Y201127D01*
X564561Y201436D01*
X563639Y201818D01*
X562750Y202271D01*
X561899Y202792D01*
X561091Y203379D01*
X560333Y204027D01*
X559627Y204733D01*
X558979Y205491D01*
X558392Y206299D01*
X557871Y207150D01*
X557418Y208039D01*
X557036Y208961D01*
X556727Y209910D01*
X556494Y210880D01*
X556338Y211866D01*
X556260Y212861D01*
X556260Y213859D01*
X556338Y214854D01*
X556494Y215840D01*
X556727Y216810D01*
X557036Y217759D01*
X557418Y218681D01*
X557871Y219570D01*
X558392Y220421D01*
X558979Y221229D01*
X559627Y221987D01*
X560333Y222693D01*
X561091Y223341D01*
X561899Y223928D01*
X562750Y224449D01*
X563639Y224902D01*
X564561Y225284D01*
X565510Y225593D01*
X566480Y225826D01*
X567466Y225982D01*
X568461Y226060D01*
X569459Y226060D01*
X570454Y225982D01*
X571440Y225826D01*
X572410Y225593D01*
X573359Y225284D01*
X574281Y224902D01*
X575170Y224449D01*
X576021Y223928D01*
X576829Y223341D01*
X577587Y222693D01*
X578293Y221987D01*
X578941Y221229D01*
X579528Y220421D01*
X580049Y219570D01*
X580502Y218681D01*
X580884Y217759D01*
X581193Y216810D01*
X581426Y215840D01*
X581582Y214854D01*
X581660Y213859D01*
X581660Y212861D01*
X581660Y182381D02*
X581582Y181386D01*
X581426Y180400D01*
X581193Y179430D01*
X580884Y178481D01*
X580502Y177559D01*
X580049Y176670D01*
X579528Y175819D01*
X578941Y175011D01*
X578293Y174253D01*
X577587Y173547D01*
X576829Y172899D01*
X576021Y172312D01*
X575170Y171791D01*
X574281Y171338D01*
X573359Y170956D01*
X572410Y170647D01*
X571440Y170414D01*
X570454Y170258D01*
X569459Y170180D01*
X568461Y170180D01*
X567466Y170258D01*
X566480Y170414D01*
X565510Y170647D01*
X564561Y170956D01*
X563639Y171338D01*
X562750Y171791D01*
X561899Y172312D01*
X561091Y172899D01*
X560333Y173547D01*
X559627Y174253D01*
X558979Y175011D01*
X558392Y175819D01*
X557871Y176670D01*
X557418Y177559D01*
X557036Y178481D01*
X556727Y179430D01*
X556494Y180400D01*
X556338Y181386D01*
X556260Y182381D01*
X556260Y183379D01*
X556338Y184374D01*
X556494Y185360D01*
X556727Y186330D01*
X557036Y187279D01*
X557418Y188201D01*
X557871Y189090D01*
X558392Y189941D01*
X558979Y190749D01*
X559627Y191507D01*
X560333Y192213D01*
X561091Y192861D01*
X561899Y193448D01*
X562750Y193969D01*
X563639Y194422D01*
X564561Y194804D01*
X565510Y195113D01*
X566480Y195346D01*
X567466Y195502D01*
X568461Y195580D01*
X569459Y195580D01*
X570454Y195502D01*
X571440Y195346D01*
X572410Y195113D01*
X573359Y194804D01*
X574281Y194422D01*
X575170Y193969D01*
X576021Y193448D01*
X576829Y192861D01*
X577587Y192213D01*
X578293Y191507D01*
X578941Y190749D01*
X579528Y189941D01*
X580049Y189090D01*
X580502Y188201D01*
X580884Y187279D01*
X581193Y186330D01*
X581426Y185360D01*
X581582Y184374D01*
X581660Y183379D01*
X581660Y182381D01*
M02*
