G04 EAGLE Gerber RS-274X export*
G75*
%MOMM*%
%FSLAX34Y34*%
%LPD*%
%INSilkscreen Top*%
%IPPOS*%
%AMOC8*
5,1,8,0,0,1.08239X$1,22.5*%
G01*
%ADD10C,0.152400*%
%ADD11C,0.203200*%


D10*
X330962Y42432D02*
X330962Y28874D01*
X333674Y26162D01*
X339097Y26162D01*
X341809Y28874D01*
X341809Y42432D01*
X355469Y42432D02*
X358180Y39720D01*
X355469Y42432D02*
X350045Y42432D01*
X347334Y39720D01*
X347334Y37009D01*
X350045Y34297D01*
X355469Y34297D01*
X358180Y31585D01*
X358180Y28874D01*
X355469Y26162D01*
X350045Y26162D01*
X347334Y28874D01*
X363705Y26162D02*
X363705Y42432D01*
X371840Y42432D01*
X374552Y39720D01*
X374552Y37009D01*
X371840Y34297D01*
X374552Y31585D01*
X374552Y28874D01*
X371840Y26162D01*
X363705Y26162D01*
X363705Y34297D02*
X371840Y34297D01*
D11*
X458196Y51816D02*
X481584Y51816D01*
X469890Y51816D02*
X469890Y67408D01*
X458196Y67408D02*
X481584Y67408D01*
X481584Y75204D02*
X458196Y75204D01*
X458196Y86898D01*
X462094Y90796D01*
X465992Y90796D01*
X469890Y86898D01*
X473788Y90796D01*
X477686Y90796D01*
X481584Y86898D01*
X481584Y75204D01*
X469890Y75204D02*
X469890Y86898D01*
X465992Y98592D02*
X481584Y98592D01*
X473788Y98592D02*
X465992Y106388D01*
X465992Y110286D01*
X458196Y133674D02*
X481584Y133674D01*
X481584Y121980D01*
X477686Y118082D01*
X469890Y118082D01*
X465992Y121980D01*
X465992Y133674D01*
X489380Y149266D02*
X489380Y153164D01*
X485482Y157062D01*
X465992Y157062D01*
X465992Y145368D01*
X469890Y141470D01*
X477686Y141470D01*
X481584Y145368D01*
X481584Y157062D01*
X469890Y209296D02*
X469890Y224888D01*
X462094Y217092D02*
X477686Y217092D01*
X469890Y232684D02*
X469890Y248276D01*
X481584Y279460D02*
X458196Y279460D01*
X458196Y291154D01*
X462094Y295052D01*
X469890Y295052D01*
X473788Y291154D01*
X473788Y279460D01*
X473788Y287256D02*
X481584Y295052D01*
X469890Y310896D02*
X469890Y326488D01*
X462094Y318692D02*
X477686Y318692D01*
X469890Y334284D02*
X469890Y349876D01*
X481584Y357672D02*
X458196Y357672D01*
X469890Y357672D02*
X469890Y373264D01*
X458196Y373264D02*
X481584Y373264D01*
X465992Y381060D02*
X465992Y384958D01*
X481584Y384958D01*
X481584Y381060D02*
X481584Y388856D01*
X458196Y384958D02*
X454298Y384958D01*
X462094Y400550D02*
X477686Y400550D01*
X481584Y404448D01*
X465992Y404448D02*
X465992Y396652D01*
X458196Y412244D02*
X481584Y412244D01*
X458196Y412244D02*
X458196Y427836D01*
X469890Y420040D02*
X469890Y412244D01*
X465992Y435632D02*
X465992Y439530D01*
X481584Y439530D01*
X481584Y435632D02*
X481584Y443428D01*
X458196Y439530D02*
X454298Y439530D01*
X465992Y451224D02*
X481584Y451224D01*
X473788Y451224D02*
X465992Y459020D01*
X465992Y462918D01*
X481584Y474612D02*
X481584Y482408D01*
X481584Y474612D02*
X477686Y470714D01*
X469890Y470714D01*
X465992Y474612D01*
X465992Y482408D01*
X469890Y486306D01*
X473788Y486306D01*
X473788Y470714D01*
X246214Y29484D02*
X242316Y25586D01*
X246214Y29484D02*
X254010Y29484D01*
X257908Y25586D01*
X257908Y21688D01*
X254010Y17790D01*
X250112Y17790D01*
X254010Y17790D02*
X257908Y13892D01*
X257908Y9994D01*
X254010Y6096D01*
X246214Y6096D01*
X242316Y9994D01*
X265704Y9994D02*
X265704Y6096D01*
X265704Y9994D02*
X269602Y9994D01*
X269602Y6096D01*
X265704Y6096D01*
X277398Y25586D02*
X281296Y29484D01*
X289092Y29484D01*
X292990Y25586D01*
X292990Y21688D01*
X289092Y17790D01*
X285194Y17790D01*
X289092Y17790D02*
X292990Y13892D01*
X292990Y9994D01*
X289092Y6096D01*
X281296Y6096D01*
X277398Y9994D01*
D10*
X252475Y432562D02*
X252475Y448832D01*
X252475Y432562D02*
X263321Y432562D01*
X285218Y432562D02*
X285218Y448832D01*
X293353Y448832D01*
X296064Y446120D01*
X296064Y440697D01*
X293353Y437985D01*
X285218Y437985D01*
X290641Y437985D02*
X296064Y432562D01*
X326096Y448832D02*
X328807Y446120D01*
X326096Y448832D02*
X320672Y448832D01*
X317961Y446120D01*
X317961Y435274D01*
X320672Y432562D01*
X326096Y432562D01*
X328807Y435274D01*
X328807Y440697D01*
X323384Y440697D01*
X350704Y437985D02*
X350704Y448832D01*
X350704Y437985D02*
X356127Y432562D01*
X361550Y437985D01*
X361550Y448832D01*
X383447Y448832D02*
X383447Y435274D01*
X386159Y432562D01*
X391582Y432562D01*
X394294Y435274D01*
X394294Y448832D01*
X416190Y448832D02*
X416190Y432562D01*
X424325Y432562D01*
X427037Y435274D01*
X427037Y446120D01*
X424325Y448832D01*
X416190Y448832D01*
D11*
X47088Y533410D02*
X31496Y533410D01*
X501396Y507004D02*
X516988Y507004D01*
X516988Y503106D01*
X501396Y487514D01*
X501396Y483616D01*
X524784Y483616D02*
X524784Y487514D01*
X528682Y487514D01*
X528682Y483616D01*
X524784Y483616D01*
X548172Y483616D02*
X548172Y507004D01*
X536478Y495310D01*
X552070Y495310D01*
X148688Y532404D02*
X133096Y532404D01*
X148688Y532404D02*
X148688Y528506D01*
X133096Y512914D01*
X133096Y509016D01*
X156484Y509016D02*
X156484Y512914D01*
X160382Y512914D01*
X160382Y509016D01*
X156484Y509016D01*
X179872Y509016D02*
X179872Y532404D01*
X168178Y520710D01*
X183770Y520710D01*
X344092Y509016D02*
X344092Y532404D01*
X336296Y532404D02*
X351888Y532404D01*
X363582Y509016D02*
X371378Y509016D01*
X375276Y512914D01*
X375276Y520710D01*
X371378Y524608D01*
X363582Y524608D01*
X359684Y520710D01*
X359684Y512914D01*
X363582Y509016D01*
X336296Y494304D02*
X336296Y470916D01*
X336296Y482610D02*
X351888Y482610D01*
X351888Y494304D02*
X351888Y470916D01*
X359684Y470916D02*
X359684Y494304D01*
X359684Y470916D02*
X371378Y470916D01*
X375276Y474814D01*
X375276Y482610D01*
X371378Y486508D01*
X359684Y486508D01*
X383072Y486508D02*
X383072Y470916D01*
X383072Y478712D02*
X390868Y486508D01*
X394766Y486508D01*
X418154Y494304D02*
X418154Y470916D01*
X406460Y470916D01*
X402562Y474814D01*
X402562Y482610D01*
X406460Y486508D01*
X418154Y486508D01*
X433746Y463120D02*
X437644Y463120D01*
X441542Y467018D01*
X441542Y486508D01*
X429848Y486508D01*
X425950Y482610D01*
X425950Y474814D01*
X429848Y470916D01*
X441542Y470916D01*
X453236Y470916D02*
X461032Y470916D01*
X453236Y470916D02*
X449338Y474814D01*
X449338Y482610D01*
X453236Y486508D01*
X461032Y486508D01*
X464930Y482610D01*
X464930Y478712D01*
X449338Y478712D01*
X250288Y508010D02*
X234696Y508010D01*
X272796Y545104D02*
X288388Y545104D01*
X288388Y541206D01*
X272796Y525614D01*
X272796Y521716D01*
X296184Y521716D02*
X296184Y525614D01*
X300082Y525614D01*
X300082Y521716D01*
X296184Y521716D01*
X319572Y521716D02*
X319572Y545104D01*
X307878Y533410D01*
X323470Y533410D01*
X425196Y546110D02*
X440788Y546110D01*
X186788Y546110D02*
X171196Y546110D01*
X97888Y508010D02*
X82296Y508010D01*
X475996Y508010D02*
X491588Y508010D01*
X292100Y247650D02*
X292100Y234950D01*
X285750Y228600D01*
X273050Y228600D02*
X266700Y234950D01*
X292100Y273050D02*
X285750Y279400D01*
X292100Y273050D02*
X292100Y260350D01*
X285750Y254000D01*
X273050Y254000D02*
X266700Y260350D01*
X266700Y273050D01*
X273050Y279400D01*
X285750Y254000D02*
X292100Y247650D01*
X273050Y254000D02*
X266700Y247650D01*
X266700Y234950D01*
X292100Y311150D02*
X292100Y323850D01*
X292100Y311150D02*
X285750Y304800D01*
X273050Y304800D02*
X266700Y311150D01*
X285750Y304800D02*
X292100Y298450D01*
X292100Y285750D01*
X285750Y279400D01*
X273050Y279400D02*
X266700Y285750D01*
X266700Y298450D01*
X273050Y304800D01*
X292100Y349250D02*
X285750Y355600D01*
X292100Y349250D02*
X292100Y336550D01*
X285750Y330200D01*
X273050Y330200D02*
X266700Y336550D01*
X266700Y349250D01*
X273050Y355600D01*
X285750Y330200D02*
X292100Y323850D01*
X273050Y330200D02*
X266700Y323850D01*
X266700Y311150D01*
X292100Y387350D02*
X292100Y400050D01*
X292100Y387350D02*
X285750Y381000D01*
X273050Y381000D02*
X266700Y387350D01*
X285750Y381000D02*
X292100Y374650D01*
X292100Y361950D01*
X285750Y355600D01*
X273050Y355600D02*
X266700Y361950D01*
X266700Y374650D01*
X273050Y381000D01*
X273050Y406400D02*
X285750Y406400D01*
X292100Y400050D01*
X273050Y406400D02*
X266700Y400050D01*
X266700Y387350D01*
X292100Y69850D02*
X292100Y57150D01*
X285750Y50800D01*
X273050Y50800D02*
X266700Y57150D01*
X292100Y95250D02*
X285750Y101600D01*
X292100Y95250D02*
X292100Y82550D01*
X285750Y76200D01*
X273050Y76200D02*
X266700Y82550D01*
X266700Y95250D01*
X273050Y101600D01*
X285750Y76200D02*
X292100Y69850D01*
X273050Y76200D02*
X266700Y69850D01*
X266700Y57150D01*
X292100Y133350D02*
X292100Y146050D01*
X292100Y133350D02*
X285750Y127000D01*
X273050Y127000D02*
X266700Y133350D01*
X285750Y127000D02*
X292100Y120650D01*
X292100Y107950D01*
X285750Y101600D01*
X273050Y101600D02*
X266700Y107950D01*
X266700Y120650D01*
X273050Y127000D01*
X292100Y171450D02*
X285750Y177800D01*
X292100Y171450D02*
X292100Y158750D01*
X285750Y152400D01*
X273050Y152400D02*
X266700Y158750D01*
X266700Y171450D01*
X273050Y177800D01*
X285750Y152400D02*
X292100Y146050D01*
X273050Y152400D02*
X266700Y146050D01*
X266700Y133350D01*
X292100Y209550D02*
X292100Y222250D01*
X292100Y209550D02*
X285750Y203200D01*
X273050Y203200D02*
X266700Y209550D01*
X285750Y203200D02*
X292100Y196850D01*
X292100Y184150D01*
X285750Y177800D01*
X273050Y177800D02*
X266700Y184150D01*
X266700Y196850D01*
X273050Y203200D01*
X292100Y222250D02*
X285750Y228600D01*
X273050Y228600D02*
X266700Y222250D01*
X266700Y209550D01*
X285750Y50800D02*
X292100Y44450D01*
X292100Y31750D01*
X285750Y25400D01*
X273050Y25400D01*
X266700Y31750D01*
X266700Y44450D01*
X273050Y50800D01*
X419100Y184150D02*
X419100Y196850D01*
X425450Y203200D01*
X438150Y203200D02*
X444500Y196850D01*
X419100Y158750D02*
X425450Y152400D01*
X419100Y158750D02*
X419100Y171450D01*
X425450Y177800D01*
X438150Y177800D02*
X444500Y171450D01*
X444500Y158750D01*
X438150Y152400D01*
X425450Y177800D02*
X419100Y184150D01*
X438150Y177800D02*
X444500Y184150D01*
X444500Y196850D01*
X419100Y120650D02*
X419100Y107950D01*
X419100Y120650D02*
X425450Y127000D01*
X438150Y127000D02*
X444500Y120650D01*
X425450Y127000D02*
X419100Y133350D01*
X419100Y146050D01*
X425450Y152400D01*
X438150Y152400D02*
X444500Y146050D01*
X444500Y133350D01*
X438150Y127000D01*
X419100Y82550D02*
X425450Y76200D01*
X419100Y82550D02*
X419100Y95250D01*
X425450Y101600D01*
X438150Y101600D02*
X444500Y95250D01*
X444500Y82550D01*
X438150Y76200D01*
X425450Y101600D02*
X419100Y107950D01*
X438150Y101600D02*
X444500Y107950D01*
X444500Y120650D01*
X419100Y44450D02*
X419100Y31750D01*
X419100Y44450D02*
X425450Y50800D01*
X438150Y50800D02*
X444500Y44450D01*
X425450Y50800D02*
X419100Y57150D01*
X419100Y69850D01*
X425450Y76200D01*
X438150Y76200D02*
X444500Y69850D01*
X444500Y57150D01*
X438150Y50800D01*
X438150Y25400D02*
X425450Y25400D01*
X419100Y31750D01*
X438150Y25400D02*
X444500Y31750D01*
X444500Y44450D01*
X419100Y361950D02*
X419100Y374650D01*
X425450Y381000D01*
X438150Y381000D02*
X444500Y374650D01*
X419100Y336550D02*
X425450Y330200D01*
X419100Y336550D02*
X419100Y349250D01*
X425450Y355600D01*
X438150Y355600D02*
X444500Y349250D01*
X444500Y336550D01*
X438150Y330200D01*
X425450Y355600D02*
X419100Y361950D01*
X438150Y355600D02*
X444500Y361950D01*
X444500Y374650D01*
X419100Y298450D02*
X419100Y285750D01*
X419100Y298450D02*
X425450Y304800D01*
X438150Y304800D02*
X444500Y298450D01*
X425450Y304800D02*
X419100Y311150D01*
X419100Y323850D01*
X425450Y330200D01*
X438150Y330200D02*
X444500Y323850D01*
X444500Y311150D01*
X438150Y304800D01*
X419100Y260350D02*
X425450Y254000D01*
X419100Y260350D02*
X419100Y273050D01*
X425450Y279400D01*
X438150Y279400D02*
X444500Y273050D01*
X444500Y260350D01*
X438150Y254000D01*
X425450Y279400D02*
X419100Y285750D01*
X438150Y279400D02*
X444500Y285750D01*
X444500Y298450D01*
X419100Y222250D02*
X419100Y209550D01*
X419100Y222250D02*
X425450Y228600D01*
X438150Y228600D02*
X444500Y222250D01*
X425450Y228600D02*
X419100Y234950D01*
X419100Y247650D01*
X425450Y254000D01*
X438150Y254000D02*
X444500Y247650D01*
X444500Y234950D01*
X438150Y228600D01*
X419100Y209550D02*
X425450Y203200D01*
X438150Y203200D02*
X444500Y209550D01*
X444500Y222250D01*
X425450Y381000D02*
X419100Y387350D01*
X419100Y400050D01*
X425450Y406400D01*
X438150Y406400D01*
X444500Y400050D01*
X444500Y387350D01*
X438150Y381000D01*
X501650Y50800D02*
X514350Y50800D01*
X514350Y152400D02*
X501650Y152400D01*
X501650Y190500D02*
X514350Y190500D01*
X514350Y292100D02*
X501650Y292100D01*
X501650Y304800D02*
X514350Y304800D01*
X514350Y406400D02*
X501650Y406400D01*
X309880Y468630D02*
X303530Y462280D01*
X290830Y462280D01*
X284480Y468630D01*
X284480Y481330D02*
X290830Y487680D01*
X303530Y487680D01*
X309880Y481330D01*
X341630Y462280D02*
X354330Y462280D01*
X341630Y462280D02*
X335280Y468630D01*
X335280Y481330D02*
X341630Y487680D01*
X335280Y468630D02*
X328930Y462280D01*
X316230Y462280D01*
X309880Y468630D01*
X309880Y481330D02*
X316230Y487680D01*
X328930Y487680D01*
X335280Y481330D01*
X379730Y462280D02*
X386080Y468630D01*
X379730Y462280D02*
X367030Y462280D01*
X360680Y468630D01*
X360680Y481330D02*
X367030Y487680D01*
X379730Y487680D01*
X386080Y481330D01*
X360680Y468630D02*
X354330Y462280D01*
X360680Y481330D02*
X354330Y487680D01*
X341630Y487680D01*
X417830Y462280D02*
X430530Y462280D01*
X417830Y462280D02*
X411480Y468630D01*
X411480Y481330D02*
X417830Y487680D01*
X411480Y468630D02*
X405130Y462280D01*
X392430Y462280D01*
X386080Y468630D01*
X386080Y481330D02*
X392430Y487680D01*
X405130Y487680D01*
X411480Y481330D01*
X436880Y481330D02*
X436880Y468630D01*
X430530Y462280D01*
X436880Y481330D02*
X430530Y487680D01*
X417830Y487680D01*
X284480Y481330D02*
X284480Y468630D01*
X215900Y458470D02*
X215900Y445770D01*
X241300Y445770D02*
X241300Y458470D01*
X215900Y44450D02*
X215900Y31750D01*
X241300Y31750D02*
X241300Y44450D01*
X38100Y445770D02*
X38100Y458470D01*
X63500Y458470D02*
X63500Y445770D01*
X38100Y44450D02*
X38100Y31750D01*
X63500Y31750D02*
X63500Y44450D01*
X101600Y527050D02*
X101600Y539750D01*
X127000Y539750D02*
X127000Y527050D01*
X241300Y527050D02*
X241300Y539750D01*
X266700Y539750D02*
X266700Y527050D01*
X520700Y527050D02*
X520700Y539750D01*
X495300Y539750D02*
X495300Y527050D01*
X76200Y527050D02*
X76200Y539750D01*
X101600Y539750D02*
X101600Y527050D01*
X215900Y527050D02*
X215900Y539750D01*
X241300Y539750D02*
X241300Y527050D01*
X469900Y527050D02*
X469900Y539750D01*
X495300Y539750D02*
X495300Y527050D01*
X444500Y527050D02*
X444500Y539750D01*
X469900Y539750D02*
X469900Y527050D01*
X190500Y527050D02*
X190500Y539750D01*
X215900Y539750D02*
X215900Y527050D01*
X50800Y527050D02*
X50800Y539750D01*
X76200Y539750D02*
X76200Y527050D01*
X726440Y450850D02*
X732790Y457200D01*
X745490Y457200D01*
X751840Y450850D01*
X751840Y438150D02*
X745490Y431800D01*
X732790Y431800D01*
X726440Y438150D01*
X694690Y457200D02*
X681990Y457200D01*
X694690Y457200D02*
X701040Y450850D01*
X701040Y438150D02*
X694690Y431800D01*
X701040Y450850D02*
X707390Y457200D01*
X720090Y457200D01*
X726440Y450850D01*
X726440Y438150D02*
X720090Y431800D01*
X707390Y431800D01*
X701040Y438150D01*
X656590Y457200D02*
X650240Y450850D01*
X656590Y457200D02*
X669290Y457200D01*
X675640Y450850D01*
X675640Y438150D02*
X669290Y431800D01*
X656590Y431800D01*
X650240Y438150D01*
X675640Y450850D02*
X681990Y457200D01*
X675640Y438150D02*
X681990Y431800D01*
X694690Y431800D01*
X618490Y457200D02*
X605790Y457200D01*
X618490Y457200D02*
X624840Y450850D01*
X624840Y438150D02*
X618490Y431800D01*
X624840Y450850D02*
X631190Y457200D01*
X643890Y457200D01*
X650240Y450850D01*
X650240Y438150D02*
X643890Y431800D01*
X631190Y431800D01*
X624840Y438150D01*
X599440Y438150D02*
X599440Y450850D01*
X605790Y457200D01*
X599440Y438150D02*
X605790Y431800D01*
X618490Y431800D01*
X751840Y438150D02*
X751840Y450850D01*
X732790Y381000D02*
X726440Y374650D01*
X732790Y381000D02*
X745490Y381000D01*
X751840Y374650D01*
X751840Y361950D02*
X745490Y355600D01*
X732790Y355600D01*
X726440Y361950D01*
X694690Y381000D02*
X681990Y381000D01*
X694690Y381000D02*
X701040Y374650D01*
X701040Y361950D02*
X694690Y355600D01*
X701040Y374650D02*
X707390Y381000D01*
X720090Y381000D01*
X726440Y374650D01*
X726440Y361950D02*
X720090Y355600D01*
X707390Y355600D01*
X701040Y361950D01*
X656590Y381000D02*
X650240Y374650D01*
X656590Y381000D02*
X669290Y381000D01*
X675640Y374650D01*
X675640Y361950D02*
X669290Y355600D01*
X656590Y355600D01*
X650240Y361950D01*
X675640Y374650D02*
X681990Y381000D01*
X675640Y361950D02*
X681990Y355600D01*
X694690Y355600D01*
X618490Y381000D02*
X605790Y381000D01*
X618490Y381000D02*
X624840Y374650D01*
X624840Y361950D02*
X618490Y355600D01*
X624840Y374650D02*
X631190Y381000D01*
X643890Y381000D01*
X650240Y374650D01*
X650240Y361950D02*
X643890Y355600D01*
X631190Y355600D01*
X624840Y361950D01*
X599440Y361950D02*
X599440Y374650D01*
X605790Y381000D01*
X599440Y361950D02*
X605790Y355600D01*
X618490Y355600D01*
X751840Y361950D02*
X751840Y374650D01*
M02*
