G04 EAGLE Gerber RS-274X export*
G75*
%MOMM*%
%FSLAX34Y34*%
%LPD*%
%INSilkscreen Top*%
%IPPOS*%
%AMOC8*
5,1,8,0,0,1.08239X$1,22.5*%
G01*
%ADD10C,0.152400*%
%ADD11C,0.203200*%
%ADD12C,0.177800*%


D10*
X153162Y29732D02*
X153162Y16174D01*
X155874Y13462D01*
X161297Y13462D01*
X164009Y16174D01*
X164009Y29732D01*
X177669Y29732D02*
X180380Y27020D01*
X177669Y29732D02*
X172245Y29732D01*
X169534Y27020D01*
X169534Y24309D01*
X172245Y21597D01*
X177669Y21597D01*
X180380Y18885D01*
X180380Y16174D01*
X177669Y13462D01*
X172245Y13462D01*
X169534Y16174D01*
X185905Y13462D02*
X185905Y29732D01*
X194040Y29732D01*
X196752Y27020D01*
X196752Y24309D01*
X194040Y21597D01*
X196752Y18885D01*
X196752Y16174D01*
X194040Y13462D01*
X185905Y13462D01*
X185905Y21597D02*
X194040Y21597D01*
X54603Y305562D02*
X54603Y316409D01*
X62738Y321934D02*
X46468Y321934D01*
X46468Y330069D01*
X49180Y332780D01*
X54603Y332780D01*
X57315Y330069D01*
X57315Y321934D01*
X51891Y338305D02*
X51891Y341017D01*
X62738Y341017D01*
X62738Y343728D02*
X62738Y338305D01*
X46468Y341017D02*
X43756Y341017D01*
X62738Y351931D02*
X62738Y357354D01*
X62738Y351931D02*
X60026Y349220D01*
X54603Y349220D01*
X51891Y351931D01*
X51891Y357354D01*
X54603Y360066D01*
X57315Y360066D01*
X57315Y349220D01*
X51891Y365591D02*
X51891Y376438D01*
X62738Y365591D01*
X62738Y376438D01*
X54603Y381963D02*
X54603Y392809D01*
X49180Y387386D02*
X60026Y387386D01*
D11*
X267696Y26416D02*
X291084Y26416D01*
X279390Y26416D02*
X279390Y42008D01*
X267696Y42008D02*
X291084Y42008D01*
X291084Y49804D02*
X267696Y49804D01*
X267696Y61498D01*
X271594Y65396D01*
X275492Y65396D01*
X279390Y61498D01*
X283288Y65396D01*
X287186Y65396D01*
X291084Y61498D01*
X291084Y49804D01*
X279390Y49804D02*
X279390Y61498D01*
X275492Y73192D02*
X291084Y73192D01*
X283288Y73192D02*
X275492Y80988D01*
X275492Y84886D01*
X267696Y108274D02*
X291084Y108274D01*
X291084Y96580D01*
X287186Y92682D01*
X279390Y92682D01*
X275492Y96580D01*
X275492Y108274D01*
X298880Y123866D02*
X298880Y127764D01*
X294982Y131662D01*
X275492Y131662D01*
X275492Y119968D01*
X279390Y116070D01*
X287186Y116070D01*
X291084Y119968D01*
X291084Y131662D01*
X279390Y209296D02*
X279390Y224888D01*
X271594Y217092D02*
X287186Y217092D01*
X279390Y232684D02*
X279390Y248276D01*
X291084Y279460D02*
X267696Y279460D01*
X267696Y291154D01*
X271594Y295052D01*
X279390Y295052D01*
X283288Y291154D01*
X283288Y279460D01*
X283288Y287256D02*
X291084Y295052D01*
X279390Y323596D02*
X279390Y339188D01*
X271594Y331392D02*
X287186Y331392D01*
X279390Y346984D02*
X279390Y362576D01*
X291084Y370372D02*
X267696Y370372D01*
X279390Y370372D02*
X279390Y385964D01*
X267696Y385964D02*
X291084Y385964D01*
X275492Y393760D02*
X275492Y397658D01*
X291084Y397658D01*
X291084Y393760D02*
X291084Y401556D01*
X267696Y397658D02*
X263798Y397658D01*
X271594Y413250D02*
X287186Y413250D01*
X291084Y417148D01*
X275492Y417148D02*
X275492Y409352D01*
X267696Y424944D02*
X291084Y424944D01*
X267696Y424944D02*
X267696Y440536D01*
X279390Y432740D02*
X279390Y424944D01*
X275492Y448332D02*
X275492Y452230D01*
X291084Y452230D01*
X291084Y448332D02*
X291084Y456128D01*
X267696Y452230D02*
X263798Y452230D01*
X275492Y463924D02*
X291084Y463924D01*
X283288Y463924D02*
X275492Y471720D01*
X275492Y475618D01*
X291084Y487312D02*
X291084Y495108D01*
X291084Y487312D02*
X287186Y483414D01*
X279390Y483414D01*
X275492Y487312D01*
X275492Y495108D01*
X279390Y499006D01*
X283288Y499006D01*
X283288Y483414D01*
X34388Y63510D02*
X18796Y63510D01*
X13716Y190686D02*
X17614Y194584D01*
X25410Y194584D01*
X29308Y190686D01*
X29308Y186788D01*
X25410Y182890D01*
X21512Y182890D01*
X25410Y182890D02*
X29308Y178992D01*
X29308Y175094D01*
X25410Y171196D01*
X17614Y171196D01*
X13716Y175094D01*
X37104Y175094D02*
X37104Y171196D01*
X37104Y175094D02*
X41002Y175094D01*
X41002Y171196D01*
X37104Y171196D01*
X48798Y190686D02*
X52696Y194584D01*
X60492Y194584D01*
X64390Y190686D01*
X64390Y186788D01*
X60492Y182890D01*
X56594Y182890D01*
X60492Y182890D02*
X64390Y178992D01*
X64390Y175094D01*
X60492Y171196D01*
X52696Y171196D01*
X48798Y175094D01*
D12*
X33639Y403225D02*
X33639Y423308D01*
X33639Y403225D02*
X47027Y403225D01*
X73866Y403225D02*
X73866Y423308D01*
X83908Y423308D01*
X87255Y419961D01*
X87255Y413267D01*
X83908Y409919D01*
X73866Y409919D01*
X80560Y409919D02*
X87255Y403225D01*
X124135Y423308D02*
X127482Y419961D01*
X124135Y423308D02*
X117440Y423308D01*
X114093Y419961D01*
X114093Y406572D01*
X117440Y403225D01*
X124135Y403225D01*
X127482Y406572D01*
X127482Y413267D01*
X120788Y413267D01*
X154321Y409919D02*
X154321Y423308D01*
X154321Y409919D02*
X161015Y403225D01*
X167709Y409919D01*
X167709Y423308D01*
X194548Y423308D02*
X194548Y406572D01*
X197895Y403225D01*
X204589Y403225D01*
X207937Y406572D01*
X207937Y423308D01*
X234775Y423308D02*
X234775Y403225D01*
X244817Y403225D01*
X248164Y406572D01*
X248164Y419961D01*
X244817Y423308D01*
X234775Y423308D01*
D11*
X106680Y234950D02*
X106680Y222250D01*
X100330Y215900D01*
X87630Y215900D02*
X81280Y222250D01*
X106680Y260350D02*
X100330Y266700D01*
X106680Y260350D02*
X106680Y247650D01*
X100330Y241300D01*
X87630Y241300D02*
X81280Y247650D01*
X81280Y260350D01*
X87630Y266700D01*
X100330Y241300D02*
X106680Y234950D01*
X87630Y241300D02*
X81280Y234950D01*
X81280Y222250D01*
X106680Y298450D02*
X106680Y311150D01*
X106680Y298450D02*
X100330Y292100D01*
X87630Y292100D02*
X81280Y298450D01*
X100330Y292100D02*
X106680Y285750D01*
X106680Y273050D01*
X100330Y266700D01*
X87630Y266700D02*
X81280Y273050D01*
X81280Y285750D01*
X87630Y292100D01*
X106680Y336550D02*
X100330Y342900D01*
X106680Y336550D02*
X106680Y323850D01*
X100330Y317500D01*
X87630Y317500D02*
X81280Y323850D01*
X81280Y336550D01*
X87630Y342900D01*
X100330Y317500D02*
X106680Y311150D01*
X87630Y317500D02*
X81280Y311150D01*
X81280Y298450D01*
X106680Y374650D02*
X106680Y387350D01*
X106680Y374650D02*
X100330Y368300D01*
X87630Y368300D02*
X81280Y374650D01*
X100330Y368300D02*
X106680Y361950D01*
X106680Y349250D01*
X100330Y342900D01*
X87630Y342900D02*
X81280Y349250D01*
X81280Y361950D01*
X87630Y368300D01*
X87630Y393700D02*
X100330Y393700D01*
X106680Y387350D01*
X87630Y393700D02*
X81280Y387350D01*
X81280Y374650D01*
X106680Y57150D02*
X106680Y44450D01*
X100330Y38100D01*
X87630Y38100D02*
X81280Y44450D01*
X106680Y82550D02*
X100330Y88900D01*
X106680Y82550D02*
X106680Y69850D01*
X100330Y63500D01*
X87630Y63500D02*
X81280Y69850D01*
X81280Y82550D01*
X87630Y88900D01*
X100330Y63500D02*
X106680Y57150D01*
X87630Y63500D02*
X81280Y57150D01*
X81280Y44450D01*
X106680Y120650D02*
X106680Y133350D01*
X106680Y120650D02*
X100330Y114300D01*
X87630Y114300D02*
X81280Y120650D01*
X100330Y114300D02*
X106680Y107950D01*
X106680Y95250D01*
X100330Y88900D01*
X87630Y88900D02*
X81280Y95250D01*
X81280Y107950D01*
X87630Y114300D01*
X106680Y158750D02*
X100330Y165100D01*
X106680Y158750D02*
X106680Y146050D01*
X100330Y139700D01*
X87630Y139700D02*
X81280Y146050D01*
X81280Y158750D01*
X87630Y165100D01*
X100330Y139700D02*
X106680Y133350D01*
X87630Y139700D02*
X81280Y133350D01*
X81280Y120650D01*
X106680Y196850D02*
X106680Y209550D01*
X106680Y196850D02*
X100330Y190500D01*
X87630Y190500D02*
X81280Y196850D01*
X100330Y190500D02*
X106680Y184150D01*
X106680Y171450D01*
X100330Y165100D01*
X87630Y165100D02*
X81280Y171450D01*
X81280Y184150D01*
X87630Y190500D01*
X106680Y209550D02*
X100330Y215900D01*
X87630Y215900D02*
X81280Y209550D01*
X81280Y196850D01*
X100330Y38100D02*
X106680Y31750D01*
X106680Y19050D01*
X100330Y12700D01*
X87630Y12700D01*
X81280Y19050D01*
X81280Y31750D01*
X87630Y38100D01*
X233680Y171450D02*
X233680Y184150D01*
X240030Y190500D01*
X252730Y190500D02*
X259080Y184150D01*
X233680Y146050D02*
X240030Y139700D01*
X233680Y146050D02*
X233680Y158750D01*
X240030Y165100D01*
X252730Y165100D02*
X259080Y158750D01*
X259080Y146050D01*
X252730Y139700D01*
X240030Y165100D02*
X233680Y171450D01*
X252730Y165100D02*
X259080Y171450D01*
X259080Y184150D01*
X233680Y107950D02*
X233680Y95250D01*
X233680Y107950D02*
X240030Y114300D01*
X252730Y114300D02*
X259080Y107950D01*
X240030Y114300D02*
X233680Y120650D01*
X233680Y133350D01*
X240030Y139700D01*
X252730Y139700D02*
X259080Y133350D01*
X259080Y120650D01*
X252730Y114300D01*
X233680Y69850D02*
X240030Y63500D01*
X233680Y69850D02*
X233680Y82550D01*
X240030Y88900D01*
X252730Y88900D02*
X259080Y82550D01*
X259080Y69850D01*
X252730Y63500D01*
X240030Y88900D02*
X233680Y95250D01*
X252730Y88900D02*
X259080Y95250D01*
X259080Y107950D01*
X233680Y31750D02*
X233680Y19050D01*
X233680Y31750D02*
X240030Y38100D01*
X252730Y38100D02*
X259080Y31750D01*
X240030Y38100D02*
X233680Y44450D01*
X233680Y57150D01*
X240030Y63500D01*
X252730Y63500D02*
X259080Y57150D01*
X259080Y44450D01*
X252730Y38100D01*
X252730Y12700D02*
X240030Y12700D01*
X233680Y19050D01*
X252730Y12700D02*
X259080Y19050D01*
X259080Y31750D01*
X233680Y349250D02*
X233680Y361950D01*
X240030Y368300D01*
X252730Y368300D02*
X259080Y361950D01*
X233680Y323850D02*
X240030Y317500D01*
X233680Y323850D02*
X233680Y336550D01*
X240030Y342900D01*
X252730Y342900D02*
X259080Y336550D01*
X259080Y323850D01*
X252730Y317500D01*
X240030Y342900D02*
X233680Y349250D01*
X252730Y342900D02*
X259080Y349250D01*
X259080Y361950D01*
X233680Y285750D02*
X233680Y273050D01*
X233680Y285750D02*
X240030Y292100D01*
X252730Y292100D02*
X259080Y285750D01*
X240030Y292100D02*
X233680Y298450D01*
X233680Y311150D01*
X240030Y317500D01*
X252730Y317500D02*
X259080Y311150D01*
X259080Y298450D01*
X252730Y292100D01*
X233680Y247650D02*
X240030Y241300D01*
X233680Y247650D02*
X233680Y260350D01*
X240030Y266700D01*
X252730Y266700D02*
X259080Y260350D01*
X259080Y247650D01*
X252730Y241300D01*
X240030Y266700D02*
X233680Y273050D01*
X252730Y266700D02*
X259080Y273050D01*
X259080Y285750D01*
X233680Y209550D02*
X233680Y196850D01*
X233680Y209550D02*
X240030Y215900D01*
X252730Y215900D02*
X259080Y209550D01*
X240030Y215900D02*
X233680Y222250D01*
X233680Y234950D01*
X240030Y241300D01*
X252730Y241300D02*
X259080Y234950D01*
X259080Y222250D01*
X252730Y215900D01*
X233680Y196850D02*
X240030Y190500D01*
X252730Y190500D02*
X259080Y196850D01*
X259080Y209550D01*
X240030Y368300D02*
X233680Y374650D01*
X233680Y387350D01*
X240030Y393700D01*
X252730Y393700D01*
X259080Y387350D01*
X259080Y374650D01*
X252730Y368300D01*
X12700Y311150D02*
X12700Y298450D01*
X38100Y298450D02*
X38100Y311150D01*
X12700Y374650D02*
X12700Y387350D01*
X38100Y387350D02*
X38100Y374650D01*
X311150Y25400D02*
X323850Y25400D01*
X323850Y127000D02*
X311150Y127000D01*
X311150Y203200D02*
X323850Y203200D01*
X323850Y304800D02*
X311150Y304800D01*
X311150Y355600D02*
X323850Y355600D01*
X323850Y457200D02*
X311150Y457200D01*
X59400Y144500D02*
X59400Y74500D01*
X-2600Y74500D01*
X-10600Y74500D01*
X-10600Y144500D01*
X-2600Y144500D01*
X59400Y144500D01*
X-2600Y144500D02*
X-2600Y74500D01*
X113030Y436880D02*
X119380Y443230D01*
X113030Y436880D02*
X100330Y436880D01*
X93980Y443230D01*
X93980Y455930D02*
X100330Y462280D01*
X113030Y462280D01*
X119380Y455930D01*
X151130Y436880D02*
X163830Y436880D01*
X151130Y436880D02*
X144780Y443230D01*
X144780Y455930D02*
X151130Y462280D01*
X144780Y443230D02*
X138430Y436880D01*
X125730Y436880D01*
X119380Y443230D01*
X119380Y455930D02*
X125730Y462280D01*
X138430Y462280D01*
X144780Y455930D01*
X189230Y436880D02*
X195580Y443230D01*
X189230Y436880D02*
X176530Y436880D01*
X170180Y443230D01*
X170180Y455930D02*
X176530Y462280D01*
X189230Y462280D01*
X195580Y455930D01*
X170180Y443230D02*
X163830Y436880D01*
X170180Y455930D02*
X163830Y462280D01*
X151130Y462280D01*
X227330Y436880D02*
X240030Y436880D01*
X227330Y436880D02*
X220980Y443230D01*
X220980Y455930D02*
X227330Y462280D01*
X220980Y443230D02*
X214630Y436880D01*
X201930Y436880D01*
X195580Y443230D01*
X195580Y455930D02*
X201930Y462280D01*
X214630Y462280D01*
X220980Y455930D01*
X246380Y455930D02*
X246380Y443230D01*
X240030Y436880D01*
X246380Y455930D02*
X240030Y462280D01*
X227330Y462280D01*
X93980Y455930D02*
X93980Y443230D01*
M02*
