G04 EAGLE Gerber RS-274X export*
G75*
%MOMM*%
%FSLAX34Y34*%
%LPD*%
%INSilkscreen Top*%
%IPPOS*%
%AMOC8*
5,1,8,0,0,1.08239X$1,22.5*%
G01*
%ADD10C,0.203200*%
%ADD11C,0.152400*%


D10*
X92808Y486684D02*
X77216Y486684D01*
X77216Y474990D01*
X85012Y478888D01*
X88910Y478888D01*
X92808Y474990D01*
X92808Y467194D01*
X88910Y463296D01*
X81114Y463296D01*
X77216Y467194D01*
X100604Y478888D02*
X108400Y463296D01*
X116196Y478888D01*
X123992Y474990D02*
X139584Y474990D01*
X131788Y482786D02*
X131788Y467194D01*
D11*
X153162Y29732D02*
X153162Y16174D01*
X155874Y13462D01*
X161297Y13462D01*
X164009Y16174D01*
X164009Y29732D01*
X177669Y29732D02*
X180380Y27020D01*
X177669Y29732D02*
X172245Y29732D01*
X169534Y27020D01*
X169534Y24309D01*
X172245Y21597D01*
X177669Y21597D01*
X180380Y18885D01*
X180380Y16174D01*
X177669Y13462D01*
X172245Y13462D01*
X169534Y16174D01*
X185905Y13462D02*
X185905Y29732D01*
X194040Y29732D01*
X196752Y27020D01*
X196752Y24309D01*
X194040Y21597D01*
X196752Y18885D01*
X196752Y16174D01*
X194040Y13462D01*
X185905Y13462D01*
X185905Y21597D02*
X194040Y21597D01*
X54603Y394462D02*
X54603Y405309D01*
X62738Y410834D02*
X46468Y410834D01*
X46468Y418969D01*
X49180Y421680D01*
X54603Y421680D01*
X57315Y418969D01*
X57315Y410834D01*
X51891Y427205D02*
X51891Y429917D01*
X62738Y429917D01*
X62738Y432628D02*
X62738Y427205D01*
X46468Y429917D02*
X43756Y429917D01*
X62738Y440831D02*
X62738Y446254D01*
X62738Y440831D02*
X60026Y438120D01*
X54603Y438120D01*
X51891Y440831D01*
X51891Y446254D01*
X54603Y448966D01*
X57315Y448966D01*
X57315Y438120D01*
X51891Y454491D02*
X51891Y465338D01*
X62738Y454491D01*
X62738Y465338D01*
X54603Y470863D02*
X54603Y481709D01*
X49180Y476286D02*
X60026Y476286D01*
D10*
X267716Y202204D02*
X267716Y178816D01*
X267716Y190510D02*
X283308Y190510D01*
X283308Y202204D02*
X283308Y178816D01*
X267716Y164104D02*
X267716Y140716D01*
X267716Y164104D02*
X279410Y164104D01*
X283308Y160206D01*
X283308Y156308D01*
X279410Y152410D01*
X283308Y148512D01*
X283308Y144614D01*
X279410Y140716D01*
X267716Y140716D01*
X267716Y152410D02*
X279410Y152410D01*
X291104Y156308D02*
X291104Y140716D01*
X291104Y148512D02*
X298900Y156308D01*
X302798Y156308D01*
X310594Y156308D02*
X314492Y156308D01*
X314492Y140716D01*
X310594Y140716D02*
X318390Y140716D01*
X314492Y164104D02*
X314492Y168002D01*
X341778Y164104D02*
X341778Y140716D01*
X330084Y140716D01*
X326186Y144614D01*
X326186Y152410D01*
X330084Y156308D01*
X341778Y156308D01*
X357370Y132920D02*
X361268Y132920D01*
X365166Y136818D01*
X365166Y156308D01*
X353472Y156308D01*
X349574Y152410D01*
X349574Y144614D01*
X353472Y140716D01*
X365166Y140716D01*
X376860Y140716D02*
X384656Y140716D01*
X376860Y140716D02*
X372962Y144614D01*
X372962Y152410D01*
X376860Y156308D01*
X384656Y156308D01*
X388554Y152410D01*
X388554Y148512D01*
X372962Y148512D01*
X232508Y482786D02*
X228610Y486684D01*
X220814Y486684D01*
X216916Y482786D01*
X216916Y467194D01*
X220814Y463296D01*
X228610Y463296D01*
X232508Y467194D01*
X232508Y474990D01*
X224712Y474990D01*
X240304Y478888D02*
X240304Y463296D01*
X240304Y478888D02*
X251998Y478888D01*
X255896Y474990D01*
X255896Y463296D01*
X279284Y463296D02*
X279284Y486684D01*
X279284Y463296D02*
X267590Y463296D01*
X263692Y467194D01*
X263692Y474990D01*
X267590Y478888D01*
X279284Y478888D01*
X287080Y474990D02*
X302672Y474990D01*
X279390Y224888D02*
X279390Y209296D01*
X271594Y217092D02*
X287186Y217092D01*
X279390Y232684D02*
X279390Y248276D01*
X291084Y279460D02*
X267696Y279460D01*
X267696Y291154D01*
X271594Y295052D01*
X279390Y295052D01*
X283288Y291154D01*
X283288Y279460D01*
X283288Y287256D02*
X291084Y295052D01*
X279390Y361696D02*
X279390Y377288D01*
X271594Y369492D02*
X287186Y369492D01*
X279390Y385084D02*
X279390Y400676D01*
X291084Y431860D02*
X267696Y431860D01*
X279390Y431860D02*
X279390Y447452D01*
X267696Y447452D02*
X291084Y447452D01*
X291084Y478636D02*
X267696Y478636D01*
X267696Y494228D01*
X279390Y486432D02*
X279390Y478636D01*
X16608Y355786D02*
X12710Y359684D01*
X4914Y359684D01*
X1016Y355786D01*
X1016Y340194D01*
X4914Y336296D01*
X12710Y336296D01*
X16608Y340194D01*
X16608Y347990D01*
X8812Y347990D01*
X24404Y351888D02*
X24404Y336296D01*
X24404Y351888D02*
X36098Y351888D01*
X39996Y347990D01*
X39996Y336296D01*
X63384Y336296D02*
X63384Y359684D01*
X63384Y336296D02*
X51690Y336296D01*
X47792Y340194D01*
X47792Y347990D01*
X51690Y351888D01*
X63384Y351888D01*
X71180Y347990D02*
X86772Y347990D01*
X17614Y245384D02*
X13716Y241486D01*
X17614Y245384D02*
X25410Y245384D01*
X29308Y241486D01*
X29308Y237588D01*
X25410Y233690D01*
X21512Y233690D01*
X25410Y233690D02*
X29308Y229792D01*
X29308Y225894D01*
X25410Y221996D01*
X17614Y221996D01*
X13716Y225894D01*
X37104Y225894D02*
X37104Y221996D01*
X37104Y225894D02*
X41002Y225894D01*
X41002Y221996D01*
X37104Y221996D01*
X48798Y241486D02*
X52696Y245384D01*
X60492Y245384D01*
X64390Y241486D01*
X64390Y237588D01*
X60492Y233690D01*
X56594Y233690D01*
X60492Y233690D02*
X64390Y229792D01*
X64390Y225894D01*
X60492Y221996D01*
X52696Y221996D01*
X48798Y225894D01*
X72186Y229792D02*
X72186Y245384D01*
X72186Y229792D02*
X79982Y221996D01*
X87778Y229792D01*
X87778Y245384D01*
X106680Y234950D02*
X106680Y222250D01*
X100330Y215900D01*
X87630Y215900D02*
X81280Y222250D01*
X106680Y260350D02*
X100330Y266700D01*
X106680Y260350D02*
X106680Y247650D01*
X100330Y241300D01*
X87630Y241300D02*
X81280Y247650D01*
X81280Y260350D01*
X87630Y266700D01*
X100330Y241300D02*
X106680Y234950D01*
X87630Y241300D02*
X81280Y234950D01*
X81280Y222250D01*
X106680Y298450D02*
X106680Y311150D01*
X106680Y298450D02*
X100330Y292100D01*
X87630Y292100D02*
X81280Y298450D01*
X100330Y292100D02*
X106680Y285750D01*
X106680Y273050D01*
X100330Y266700D01*
X87630Y266700D02*
X81280Y273050D01*
X81280Y285750D01*
X87630Y292100D01*
X106680Y336550D02*
X100330Y342900D01*
X106680Y336550D02*
X106680Y323850D01*
X100330Y317500D01*
X87630Y317500D02*
X81280Y323850D01*
X81280Y336550D01*
X87630Y342900D01*
X100330Y317500D02*
X106680Y311150D01*
X87630Y317500D02*
X81280Y311150D01*
X81280Y298450D01*
X106680Y374650D02*
X106680Y387350D01*
X106680Y374650D02*
X100330Y368300D01*
X87630Y368300D02*
X81280Y374650D01*
X100330Y368300D02*
X106680Y361950D01*
X106680Y349250D01*
X100330Y342900D01*
X87630Y342900D02*
X81280Y349250D01*
X81280Y361950D01*
X87630Y368300D01*
X87630Y393700D02*
X100330Y393700D01*
X106680Y387350D01*
X87630Y393700D02*
X81280Y387350D01*
X81280Y374650D01*
X106680Y57150D02*
X106680Y44450D01*
X100330Y38100D01*
X87630Y38100D02*
X81280Y44450D01*
X106680Y82550D02*
X100330Y88900D01*
X106680Y82550D02*
X106680Y69850D01*
X100330Y63500D01*
X87630Y63500D02*
X81280Y69850D01*
X81280Y82550D01*
X87630Y88900D01*
X100330Y63500D02*
X106680Y57150D01*
X87630Y63500D02*
X81280Y57150D01*
X81280Y44450D01*
X106680Y120650D02*
X106680Y133350D01*
X106680Y120650D02*
X100330Y114300D01*
X87630Y114300D02*
X81280Y120650D01*
X100330Y114300D02*
X106680Y107950D01*
X106680Y95250D01*
X100330Y88900D01*
X87630Y88900D02*
X81280Y95250D01*
X81280Y107950D01*
X87630Y114300D01*
X106680Y158750D02*
X100330Y165100D01*
X106680Y158750D02*
X106680Y146050D01*
X100330Y139700D01*
X87630Y139700D02*
X81280Y146050D01*
X81280Y158750D01*
X87630Y165100D01*
X100330Y139700D02*
X106680Y133350D01*
X87630Y139700D02*
X81280Y133350D01*
X81280Y120650D01*
X106680Y196850D02*
X106680Y209550D01*
X106680Y196850D02*
X100330Y190500D01*
X87630Y190500D02*
X81280Y196850D01*
X100330Y190500D02*
X106680Y184150D01*
X106680Y171450D01*
X100330Y165100D01*
X87630Y165100D02*
X81280Y171450D01*
X81280Y184150D01*
X87630Y190500D01*
X106680Y209550D02*
X100330Y215900D01*
X87630Y215900D02*
X81280Y209550D01*
X81280Y196850D01*
X100330Y38100D02*
X106680Y31750D01*
X106680Y19050D01*
X100330Y12700D01*
X87630Y12700D01*
X81280Y19050D01*
X81280Y31750D01*
X87630Y38100D01*
X233680Y171450D02*
X233680Y184150D01*
X240030Y190500D01*
X252730Y190500D02*
X259080Y184150D01*
X233680Y146050D02*
X240030Y139700D01*
X233680Y146050D02*
X233680Y158750D01*
X240030Y165100D01*
X252730Y165100D02*
X259080Y158750D01*
X259080Y146050D01*
X252730Y139700D01*
X240030Y165100D02*
X233680Y171450D01*
X252730Y165100D02*
X259080Y171450D01*
X259080Y184150D01*
X233680Y107950D02*
X233680Y95250D01*
X233680Y107950D02*
X240030Y114300D01*
X252730Y114300D02*
X259080Y107950D01*
X240030Y114300D02*
X233680Y120650D01*
X233680Y133350D01*
X240030Y139700D01*
X252730Y139700D02*
X259080Y133350D01*
X259080Y120650D01*
X252730Y114300D01*
X233680Y69850D02*
X240030Y63500D01*
X233680Y69850D02*
X233680Y82550D01*
X240030Y88900D01*
X252730Y88900D02*
X259080Y82550D01*
X259080Y69850D01*
X252730Y63500D01*
X240030Y88900D02*
X233680Y95250D01*
X252730Y88900D02*
X259080Y95250D01*
X259080Y107950D01*
X233680Y31750D02*
X233680Y19050D01*
X233680Y31750D02*
X240030Y38100D01*
X252730Y38100D02*
X259080Y31750D01*
X240030Y38100D02*
X233680Y44450D01*
X233680Y57150D01*
X240030Y63500D01*
X252730Y63500D02*
X259080Y57150D01*
X259080Y44450D01*
X252730Y38100D01*
X252730Y12700D02*
X240030Y12700D01*
X233680Y19050D01*
X252730Y12700D02*
X259080Y19050D01*
X259080Y31750D01*
X233680Y349250D02*
X233680Y361950D01*
X240030Y368300D01*
X252730Y368300D02*
X259080Y361950D01*
X233680Y323850D02*
X240030Y317500D01*
X233680Y323850D02*
X233680Y336550D01*
X240030Y342900D01*
X252730Y342900D02*
X259080Y336550D01*
X259080Y323850D01*
X252730Y317500D01*
X240030Y342900D02*
X233680Y349250D01*
X252730Y342900D02*
X259080Y349250D01*
X259080Y361950D01*
X233680Y285750D02*
X233680Y273050D01*
X233680Y285750D02*
X240030Y292100D01*
X252730Y292100D02*
X259080Y285750D01*
X240030Y292100D02*
X233680Y298450D01*
X233680Y311150D01*
X240030Y317500D01*
X252730Y317500D02*
X259080Y311150D01*
X259080Y298450D01*
X252730Y292100D01*
X233680Y247650D02*
X240030Y241300D01*
X233680Y247650D02*
X233680Y260350D01*
X240030Y266700D01*
X252730Y266700D02*
X259080Y260350D01*
X259080Y247650D01*
X252730Y241300D01*
X240030Y266700D02*
X233680Y273050D01*
X252730Y266700D02*
X259080Y273050D01*
X259080Y285750D01*
X233680Y209550D02*
X233680Y196850D01*
X233680Y209550D02*
X240030Y215900D01*
X252730Y215900D02*
X259080Y209550D01*
X240030Y215900D02*
X233680Y222250D01*
X233680Y234950D01*
X240030Y241300D01*
X252730Y241300D02*
X259080Y234950D01*
X259080Y222250D01*
X252730Y215900D01*
X233680Y196850D02*
X240030Y190500D01*
X252730Y190500D02*
X259080Y196850D01*
X259080Y209550D01*
X240030Y368300D02*
X233680Y374650D01*
X233680Y387350D01*
X240030Y393700D01*
X252730Y393700D01*
X259080Y387350D01*
X259080Y374650D01*
X252730Y368300D01*
X30480Y179070D02*
X20320Y179070D01*
X13100Y165100D02*
X13108Y165714D01*
X13130Y166327D01*
X13168Y166939D01*
X13220Y167550D01*
X13288Y168160D01*
X13371Y168768D01*
X13468Y169374D01*
X13580Y169977D01*
X13707Y170578D01*
X13849Y171175D01*
X14006Y171768D01*
X14176Y172357D01*
X14362Y172942D01*
X14561Y173522D01*
X14775Y174097D01*
X15003Y174667D01*
X15245Y175231D01*
X15500Y175789D01*
X15769Y176340D01*
X16052Y176885D01*
X16348Y177422D01*
X16657Y177953D01*
X16979Y178475D01*
X17313Y178989D01*
X17660Y179495D01*
X18020Y179992D01*
X18391Y180481D01*
X18775Y180960D01*
X19170Y181429D01*
X19576Y181889D01*
X19994Y182339D01*
X20422Y182778D01*
X20861Y183206D01*
X21311Y183624D01*
X21771Y184030D01*
X22240Y184425D01*
X22719Y184809D01*
X23208Y185180D01*
X23705Y185540D01*
X24211Y185887D01*
X24725Y186221D01*
X25247Y186543D01*
X25778Y186852D01*
X26315Y187148D01*
X26860Y187431D01*
X27411Y187700D01*
X27969Y187955D01*
X28533Y188197D01*
X29103Y188425D01*
X29678Y188639D01*
X30258Y188838D01*
X30843Y189024D01*
X31432Y189194D01*
X32025Y189351D01*
X32622Y189493D01*
X33223Y189620D01*
X33826Y189732D01*
X34432Y189829D01*
X35040Y189912D01*
X35650Y189980D01*
X36261Y190032D01*
X36873Y190070D01*
X37486Y190092D01*
X38100Y190100D01*
X38714Y190092D01*
X39327Y190070D01*
X39939Y190032D01*
X40550Y189980D01*
X41160Y189912D01*
X41768Y189829D01*
X42374Y189732D01*
X42977Y189620D01*
X43578Y189493D01*
X44175Y189351D01*
X44768Y189194D01*
X45357Y189024D01*
X45942Y188838D01*
X46522Y188639D01*
X47097Y188425D01*
X47667Y188197D01*
X48231Y187955D01*
X48789Y187700D01*
X49340Y187431D01*
X49885Y187148D01*
X50422Y186852D01*
X50953Y186543D01*
X51475Y186221D01*
X51989Y185887D01*
X52495Y185540D01*
X52992Y185180D01*
X53481Y184809D01*
X53960Y184425D01*
X54429Y184030D01*
X54889Y183624D01*
X55339Y183206D01*
X55778Y182778D01*
X56206Y182339D01*
X56624Y181889D01*
X57030Y181429D01*
X57425Y180960D01*
X57809Y180481D01*
X58180Y179992D01*
X58540Y179495D01*
X58887Y178989D01*
X59221Y178475D01*
X59543Y177953D01*
X59852Y177422D01*
X60148Y176885D01*
X60431Y176340D01*
X60700Y175789D01*
X60955Y175231D01*
X61197Y174667D01*
X61425Y174097D01*
X61639Y173522D01*
X61838Y172942D01*
X62024Y172357D01*
X62194Y171768D01*
X62351Y171175D01*
X62493Y170578D01*
X62620Y169977D01*
X62732Y169374D01*
X62829Y168768D01*
X62912Y168160D01*
X62980Y167550D01*
X63032Y166939D01*
X63070Y166327D01*
X63092Y165714D01*
X63100Y165100D01*
X63092Y164486D01*
X63070Y163873D01*
X63032Y163261D01*
X62980Y162650D01*
X62912Y162040D01*
X62829Y161432D01*
X62732Y160826D01*
X62620Y160223D01*
X62493Y159622D01*
X62351Y159025D01*
X62194Y158432D01*
X62024Y157843D01*
X61838Y157258D01*
X61639Y156678D01*
X61425Y156103D01*
X61197Y155533D01*
X60955Y154969D01*
X60700Y154411D01*
X60431Y153860D01*
X60148Y153315D01*
X59852Y152778D01*
X59543Y152247D01*
X59221Y151725D01*
X58887Y151211D01*
X58540Y150705D01*
X58180Y150208D01*
X57809Y149719D01*
X57425Y149240D01*
X57030Y148771D01*
X56624Y148311D01*
X56206Y147861D01*
X55778Y147422D01*
X55339Y146994D01*
X54889Y146576D01*
X54429Y146170D01*
X53960Y145775D01*
X53481Y145391D01*
X52992Y145020D01*
X52495Y144660D01*
X51989Y144313D01*
X51475Y143979D01*
X50953Y143657D01*
X50422Y143348D01*
X49885Y143052D01*
X49340Y142769D01*
X48789Y142500D01*
X48231Y142245D01*
X47667Y142003D01*
X47097Y141775D01*
X46522Y141561D01*
X45942Y141362D01*
X45357Y141176D01*
X44768Y141006D01*
X44175Y140849D01*
X43578Y140707D01*
X42977Y140580D01*
X42374Y140468D01*
X41768Y140371D01*
X41160Y140288D01*
X40550Y140220D01*
X39939Y140168D01*
X39327Y140130D01*
X38714Y140108D01*
X38100Y140100D01*
X37486Y140108D01*
X36873Y140130D01*
X36261Y140168D01*
X35650Y140220D01*
X35040Y140288D01*
X34432Y140371D01*
X33826Y140468D01*
X33223Y140580D01*
X32622Y140707D01*
X32025Y140849D01*
X31432Y141006D01*
X30843Y141176D01*
X30258Y141362D01*
X29678Y141561D01*
X29103Y141775D01*
X28533Y142003D01*
X27969Y142245D01*
X27411Y142500D01*
X26860Y142769D01*
X26315Y143052D01*
X25778Y143348D01*
X25247Y143657D01*
X24725Y143979D01*
X24211Y144313D01*
X23705Y144660D01*
X23208Y145020D01*
X22719Y145391D01*
X22240Y145775D01*
X21771Y146170D01*
X21311Y146576D01*
X20861Y146994D01*
X20422Y147422D01*
X19994Y147861D01*
X19576Y148311D01*
X19170Y148771D01*
X18775Y149240D01*
X18391Y149719D01*
X18020Y150208D01*
X17660Y150705D01*
X17313Y151211D01*
X16979Y151725D01*
X16657Y152247D01*
X16348Y152778D01*
X16052Y153315D01*
X15769Y153860D01*
X15500Y154411D01*
X15245Y154969D01*
X15003Y155533D01*
X14775Y156103D01*
X14561Y156678D01*
X14362Y157258D01*
X14176Y157843D01*
X14006Y158432D01*
X13849Y159025D01*
X13707Y159622D01*
X13580Y160223D01*
X13468Y160826D01*
X13371Y161432D01*
X13288Y162040D01*
X13220Y162650D01*
X13168Y163261D01*
X13130Y163873D01*
X13108Y164486D01*
X13100Y165100D01*
X12700Y374650D02*
X12700Y387350D01*
X38100Y387350D02*
X38100Y374650D01*
X134900Y503900D02*
X204900Y503900D01*
X204900Y441900D01*
X204900Y433900D01*
X134900Y433900D01*
X134900Y441900D01*
X134900Y503900D01*
X134900Y441900D02*
X204900Y441900D01*
X44450Y38100D02*
X31750Y38100D01*
X31750Y114300D02*
X44450Y114300D01*
X12700Y450850D02*
X12700Y463550D01*
X38100Y463550D02*
X38100Y450850D01*
X311150Y25400D02*
X323850Y25400D01*
X323850Y127000D02*
X311150Y127000D01*
X311150Y203200D02*
X323850Y203200D01*
X323850Y304800D02*
X311150Y304800D01*
X311150Y355600D02*
X323850Y355600D01*
X323850Y457200D02*
X311150Y457200D01*
X-8600Y319200D02*
X-8600Y249200D01*
X-8600Y319200D02*
X53400Y319200D01*
X61400Y319200D01*
X61400Y249200D01*
X53400Y249200D01*
X-8600Y249200D01*
X53400Y249200D02*
X53400Y319200D01*
M02*
