G04 EAGLE Gerber RS-274X export*
G75*
%MOMM*%
%FSLAX34Y34*%
%LPD*%
%INSoldermask Bottom*%
%IPPOS*%
%AMOC8*
5,1,8,0,0,1.08239X$1,22.5*%
G01*
%ADD10C,2.082800*%
%ADD11C,2.082800*%
%ADD12R,2.235200X2.235200*%
%ADD13C,2.235200*%
%ADD14C,1.270000*%


D10*
X93980Y381000D03*
X93980Y355600D03*
X93980Y330200D03*
X93980Y304800D03*
X93980Y279400D03*
X93980Y254000D03*
X93980Y228600D03*
X93980Y203200D03*
X93980Y177800D03*
X93980Y152400D03*
X93980Y127000D03*
X93980Y101600D03*
X93980Y76200D03*
X93980Y50800D03*
X93980Y25400D03*
X246380Y25400D03*
X246380Y50800D03*
X246380Y76200D03*
X246380Y101600D03*
X246380Y127000D03*
X246380Y152400D03*
X246380Y177800D03*
X246380Y203200D03*
X246380Y228600D03*
X246380Y254000D03*
X246380Y279400D03*
X246380Y304800D03*
X246380Y330200D03*
X246380Y355600D03*
X246380Y381000D03*
D11*
X25400Y314198D02*
X25400Y295402D01*
X25400Y371602D02*
X25400Y390398D01*
X308102Y38100D02*
X326898Y38100D01*
X326898Y63500D02*
X308102Y63500D01*
X308102Y88900D02*
X326898Y88900D01*
X326898Y114300D02*
X308102Y114300D01*
X308102Y215900D02*
X326898Y215900D01*
X326898Y241300D02*
X308102Y241300D01*
X308102Y266700D02*
X326898Y266700D01*
X326898Y292100D02*
X308102Y292100D01*
X308102Y368300D02*
X326898Y368300D01*
X326898Y393700D02*
X308102Y393700D01*
X308102Y419100D02*
X326898Y419100D01*
X326898Y444500D02*
X308102Y444500D01*
D12*
X25400Y127000D03*
D13*
X25400Y92000D03*
D10*
X233680Y449580D03*
X208280Y449580D03*
X182880Y449580D03*
X157480Y449580D03*
X132080Y449580D03*
X106680Y449580D03*
D14*
X136525Y315913D03*
X209550Y317500D03*
X127000Y209550D03*
X149225Y400050D03*
X190500Y76200D03*
X230188Y36513D03*
X147638Y295275D03*
X158750Y347663D03*
X193675Y396875D03*
M02*
