M48
;GenerationSoftware,Autodesk,EAGLE,9.6.1*%
;CreationDate,2020-06-17T21:38:54Z*%
FMAT,2
ICI,OFF
METRIC,TZ,000.000
T3C0.800
T2C1.016
T1C1.397
%
G90
M71
T1
X2286Y20066
X2286Y4826
X28448Y4064
X28448Y19304
T2
X12446Y26670
X14986Y26670
X17526Y26670
X20066Y26670
X17780Y2032
X12446Y2032
X17526Y10922
X14986Y10922
X9144Y22352
X9144Y19812
X9144Y17272
X9144Y14732
X9144Y12192
X9144Y9652
X21590Y4064
X21590Y6604
X21590Y9144
X21590Y11684
X21590Y14224
X21590Y16764
T3
X9144Y3588
X9144Y5588
X9144Y7588
X21590Y22828
X21590Y20828
X21590Y18828
M30