M48
;GenerationSoftware,Autodesk,EAGLE,9.6.1*%
;CreationDate,2020-06-08T18:47:22Z*%
FMAT,2
ICI,OFF
METRIC,TZ,000.000
T2C1.016
T1C1.397
%
G90
M71
T1
X2286Y20066
X2286Y4826
X28448Y4064
X28448Y19304
T2
X12446Y26670
X14986Y26670
X17526Y26670
X20066Y26670
X17780Y2032
X12446Y2032
X17526Y10922
X14986Y10922
X9144Y22352
X9144Y19812
X9144Y17272
X9144Y14732
X9144Y12192
X9144Y9652
X9144Y7112
X9144Y4572
X9144Y2032
X21844Y2032
X21844Y4572
X21844Y7112
X21844Y9652
X21844Y12192
X21844Y14732
X21844Y17272
X21844Y19812
X21844Y22352
M30