G04 EAGLE Gerber RS-274X export*
G75*
%MOMM*%
%FSLAX34Y34*%
%LPD*%
%INTop Copper*%
%IPPOS*%
%AMOC8*
5,1,8,0,0,1.08239X$1,22.5*%
G01*
%ADD10C,1.879600*%
%ADD11C,1.790700*%
%ADD12C,3.302000*%
%ADD13C,1.422400*%
%ADD14C,1.320800*%
%ADD15P,1.429621X8X292.500000*%
%ADD16C,0.254000*%
%ADD17C,1.066800*%


D10*
X309880Y185420D03*
X335280Y185420D03*
X360680Y185420D03*
X386080Y185420D03*
X411480Y185420D03*
X436880Y185420D03*
X462280Y185420D03*
X487680Y185420D03*
X513080Y185420D03*
X538480Y185420D03*
X563880Y185420D03*
X589280Y185420D03*
X614680Y185420D03*
X640080Y185420D03*
X665480Y185420D03*
X665480Y337820D03*
X640080Y337820D03*
X614680Y337820D03*
X589280Y337820D03*
X563880Y337820D03*
X538480Y337820D03*
X513080Y337820D03*
X487680Y337820D03*
X462280Y337820D03*
X436880Y337820D03*
X411480Y337820D03*
X386080Y337820D03*
X360680Y337820D03*
X335280Y337820D03*
X309880Y337820D03*
X360680Y134620D03*
X386080Y134620D03*
X411480Y134620D03*
X436880Y134620D03*
X462280Y134620D03*
X563880Y134620D03*
X589280Y134620D03*
X614680Y134620D03*
X640080Y134620D03*
X665480Y134620D03*
D11*
X279718Y334772D02*
X261811Y334772D01*
X154750Y334772D02*
X136843Y334772D01*
X261811Y284988D02*
X279718Y284988D01*
X154750Y284988D02*
X136843Y284988D01*
X705803Y287528D02*
X723710Y287528D01*
X830771Y287528D02*
X848678Y287528D01*
X723710Y337312D02*
X705803Y337312D01*
X830771Y337312D02*
X848678Y337312D01*
D10*
X909320Y238760D03*
X91440Y127000D03*
D11*
X261811Y200152D02*
X279718Y200152D01*
X154750Y200152D02*
X136843Y200152D01*
X261811Y150368D02*
X279718Y150368D01*
X154750Y150368D02*
X136843Y150368D01*
X708343Y152908D02*
X726250Y152908D01*
X833311Y152908D02*
X851218Y152908D01*
X726250Y202692D02*
X708343Y202692D01*
X833311Y202692D02*
X851218Y202692D01*
D10*
X83820Y231140D03*
X91440Y345440D03*
D12*
X134620Y243840D03*
X850900Y246380D03*
D10*
X960120Y426720D03*
X934720Y426720D03*
X909320Y426720D03*
X883920Y426720D03*
D13*
X424980Y375920D03*
X444980Y375920D03*
X464980Y375920D03*
X484980Y375920D03*
X504980Y375920D03*
X524980Y375920D03*
D14*
X22860Y339344D02*
X22860Y326136D01*
X22860Y237744D02*
X22860Y224536D01*
D15*
X878840Y401320D03*
X878840Y299720D03*
X911860Y401320D03*
X911860Y299720D03*
X960120Y401320D03*
X960120Y299720D03*
D13*
X406400Y389740D03*
X406400Y409740D03*
X406400Y429740D03*
X406400Y449740D03*
X406400Y469740D03*
X406400Y489740D03*
X406400Y509740D03*
X406400Y529740D03*
D10*
X355600Y386080D03*
X355600Y411480D03*
X355600Y436880D03*
X355600Y462280D03*
X355600Y487680D03*
X355600Y513080D03*
X355600Y538480D03*
X355600Y563880D03*
D16*
X269875Y282575D02*
X247650Y260350D01*
X247650Y174625D01*
X269875Y152400D01*
X269875Y282575D02*
X270764Y284988D01*
X269875Y152400D02*
X270764Y150368D01*
X508000Y377825D02*
X523875Y377825D01*
X508000Y377825D02*
X504980Y375920D01*
X523875Y377825D02*
X524980Y375920D01*
X717550Y336550D02*
X736600Y317500D01*
X736600Y222250D01*
X717550Y203200D01*
X717550Y336550D02*
X714756Y337312D01*
X717550Y203200D02*
X717296Y202692D01*
X590550Y184150D02*
X590550Y136525D01*
X589280Y134620D01*
X590550Y184150D02*
X589280Y185420D01*
X717550Y542925D02*
X958850Y301625D01*
X717550Y542925D02*
X371475Y542925D01*
X371475Y349250D01*
X361950Y339725D01*
X958850Y301625D02*
X960120Y299720D01*
X361950Y339725D02*
X360680Y337820D01*
X335280Y337820D02*
X425450Y247650D01*
D17*
X425450Y247650D03*
D16*
X342900Y304800D02*
X309880Y337820D01*
D17*
X342900Y304800D03*
D16*
X434975Y133350D02*
X422275Y120650D01*
X346075Y120650D01*
X346075Y139700D01*
X377825Y171450D01*
X409575Y171450D01*
X409575Y184150D01*
X436880Y134620D02*
X434975Y133350D01*
X409575Y184150D02*
X411480Y185420D01*
X462280Y185420D02*
X533400Y114300D01*
X638175Y114300D01*
X638175Y133350D01*
X640080Y134620D01*
X504825Y133350D02*
X463550Y133350D01*
X504825Y133350D02*
X530225Y107950D01*
X663575Y107950D01*
X663575Y133350D01*
X463550Y133350D02*
X462280Y134620D01*
X663575Y133350D02*
X665480Y134620D01*
X482600Y317500D02*
X462280Y337820D01*
X482600Y317500D02*
X482600Y314325D01*
X596900Y200025D01*
X679450Y200025D01*
X679450Y149225D01*
X666750Y136525D01*
X665480Y134620D01*
X714375Y288925D02*
X609600Y288925D01*
X574675Y323850D01*
X539750Y323850D01*
X539750Y336550D01*
X714375Y288925D02*
X714756Y287528D01*
X539750Y336550D02*
X538480Y337820D01*
X434975Y158750D02*
X412750Y136525D01*
X434975Y158750D02*
X434975Y184150D01*
X412750Y136525D02*
X411480Y134620D01*
X434975Y184150D02*
X436880Y185420D01*
X487680Y185420D02*
X552450Y120650D01*
X612775Y120650D01*
X612775Y133350D01*
X614680Y134620D01*
X482600Y358775D02*
X466725Y374650D01*
X482600Y358775D02*
X663575Y358775D01*
X663575Y339725D01*
X466725Y374650D02*
X464980Y375920D01*
X663575Y339725D02*
X665480Y337820D01*
X469900Y352425D02*
X447675Y374650D01*
X469900Y352425D02*
X638175Y352425D01*
X638175Y339725D01*
X447675Y374650D02*
X444980Y375920D01*
X638175Y339725D02*
X640080Y337820D01*
X685800Y184150D02*
X714375Y155575D01*
X685800Y184150D02*
X685800Y203200D01*
X571500Y317500D01*
X488950Y317500D01*
X488950Y336550D01*
X714375Y155575D02*
X717296Y152908D01*
X488950Y336550D02*
X487680Y337820D01*
X82550Y231775D02*
X25400Y231775D01*
X22860Y231140D01*
X82550Y231775D02*
X83820Y231140D01*
X879475Y403225D02*
X882650Y406400D01*
X882650Y425450D01*
X879475Y403225D02*
X878840Y401320D01*
X882650Y425450D02*
X883920Y426720D01*
X911225Y425450D02*
X911225Y403225D01*
X911860Y401320D01*
X911225Y425450D02*
X909320Y426720D01*
X962025Y425450D02*
X962025Y403225D01*
X960120Y401320D01*
X962025Y425450D02*
X960120Y426720D01*
M02*
