G04 EAGLE Gerber RS-274X export*
G75*
%MOMM*%
%FSLAX34Y34*%
%LPD*%
%INTop Copper*%
%IPPOS*%
%AMOC8*
5,1,8,0,0,1.08239X$1,22.5*%
G01*
%ADD10C,1.879600*%
%ADD11C,1.790700*%
%ADD12C,3.302000*%
%ADD13C,1.422400*%
%ADD14C,1.320800*%
%ADD15P,1.429621X8X292.500000*%
%ADD16C,0.254000*%
%ADD17C,1.066800*%


D10*
X314960Y185420D03*
X340360Y185420D03*
X365760Y185420D03*
X391160Y185420D03*
X416560Y185420D03*
X441960Y185420D03*
X467360Y185420D03*
X492760Y185420D03*
X518160Y185420D03*
X543560Y185420D03*
X568960Y185420D03*
X594360Y185420D03*
X619760Y185420D03*
X645160Y185420D03*
X670560Y185420D03*
X670560Y337820D03*
X645160Y337820D03*
X619760Y337820D03*
X594360Y337820D03*
X568960Y337820D03*
X543560Y337820D03*
X518160Y337820D03*
X492760Y337820D03*
X467360Y337820D03*
X441960Y337820D03*
X416560Y337820D03*
X391160Y337820D03*
X365760Y337820D03*
X340360Y337820D03*
X314960Y337820D03*
X360680Y101600D03*
X386080Y101600D03*
X411480Y101600D03*
X436880Y101600D03*
X462280Y101600D03*
X563880Y101600D03*
X589280Y101600D03*
X614680Y101600D03*
X640080Y101600D03*
X665480Y101600D03*
D11*
X279718Y334772D02*
X261811Y334772D01*
X154750Y334772D02*
X136843Y334772D01*
X261811Y284988D02*
X279718Y284988D01*
X154750Y284988D02*
X136843Y284988D01*
X705803Y287528D02*
X723710Y287528D01*
X830771Y287528D02*
X848678Y287528D01*
X723710Y337312D02*
X705803Y337312D01*
X830771Y337312D02*
X848678Y337312D01*
D10*
X909320Y238760D03*
X76200Y127000D03*
D11*
X261811Y200152D02*
X279718Y200152D01*
X154750Y200152D02*
X136843Y200152D01*
X261811Y150368D02*
X279718Y150368D01*
X154750Y150368D02*
X136843Y150368D01*
X708343Y152908D02*
X726250Y152908D01*
X833311Y152908D02*
X851218Y152908D01*
X726250Y202692D02*
X708343Y202692D01*
X833311Y202692D02*
X851218Y202692D01*
D10*
X83820Y231140D03*
X76200Y337820D03*
D12*
X134620Y243840D03*
X850900Y246380D03*
D10*
X960120Y426720D03*
X934720Y426720D03*
X909320Y426720D03*
X883920Y426720D03*
D13*
X424980Y375920D03*
X444980Y375920D03*
X464980Y375920D03*
X484980Y375920D03*
X504980Y375920D03*
X524980Y375920D03*
D14*
X37084Y406400D02*
X23876Y406400D01*
X125476Y406400D02*
X138684Y406400D01*
D15*
X878840Y401320D03*
X878840Y299720D03*
X911860Y401320D03*
X911860Y299720D03*
X960120Y401320D03*
X960120Y299720D03*
D10*
X30480Y579120D03*
X30480Y553720D03*
X30480Y528320D03*
X30480Y502920D03*
X30480Y477520D03*
X30480Y452120D03*
X96520Y449580D03*
X121920Y449580D03*
X147320Y449580D03*
D16*
X508000Y377825D02*
X523875Y377825D01*
X508000Y377825D02*
X504980Y375920D01*
X523875Y377825D02*
X524980Y375920D01*
X717550Y203200D02*
X736600Y222250D01*
X736600Y247650D02*
X736600Y317500D01*
X736600Y247650D02*
X736600Y222250D01*
X736600Y317500D02*
X717550Y336550D01*
X717550Y203200D02*
X717296Y202692D01*
X717550Y336550D02*
X714756Y337312D01*
X736600Y247650D02*
X850900Y247650D01*
X850900Y246380D01*
X95250Y450850D02*
X31750Y450850D01*
X95250Y450850D02*
X96520Y449580D01*
X31750Y450850D02*
X30480Y452120D01*
X273050Y149225D02*
X327025Y149225D01*
X327025Y133350D01*
X358775Y101600D01*
X273050Y149225D02*
X270764Y150368D01*
X358775Y101600D02*
X360680Y101600D01*
X247650Y260350D02*
X269875Y282575D01*
X247650Y260350D02*
X247650Y174625D01*
X269875Y152400D01*
X269875Y282575D02*
X270764Y284988D01*
X269875Y152400D02*
X270764Y150368D01*
X114300Y165100D02*
X76200Y127000D01*
X114300Y165100D02*
X114300Y415925D01*
X146050Y447675D01*
X147320Y449580D01*
X314325Y171450D02*
X384175Y101600D01*
X314325Y171450D02*
X301625Y171450D01*
X301625Y193675D01*
X307975Y200025D01*
X593725Y200025D01*
X593725Y187325D01*
X386080Y101600D02*
X384175Y101600D01*
X594360Y185420D02*
X593725Y187325D01*
X412750Y406400D02*
X368300Y361950D01*
X368300Y339725D01*
X365760Y337820D01*
D17*
X412750Y406400D03*
D16*
X342900Y336550D02*
X431800Y247650D01*
X342900Y336550D02*
X340360Y337820D01*
D17*
X431800Y247650D03*
D16*
X358775Y295275D02*
X317500Y336550D01*
X314960Y337820D01*
D17*
X358775Y295275D03*
D16*
X438150Y165100D02*
X438150Y101600D01*
X436880Y101600D01*
D17*
X438150Y165100D03*
D16*
X552450Y149225D02*
X577850Y123825D01*
X638175Y123825D01*
X638175Y101600D01*
X640080Y101600D01*
D17*
X552450Y149225D03*
D16*
X498475Y136525D02*
X463550Y101600D01*
X581025Y136525D02*
X663575Y136525D01*
X663575Y101600D01*
X463550Y101600D02*
X462280Y101600D01*
X663575Y101600D02*
X665480Y101600D01*
X488950Y317500D02*
X469900Y336550D01*
X488950Y317500D02*
X488950Y314325D01*
X603250Y200025D01*
X685800Y200025D01*
X685800Y158750D01*
X663575Y136525D01*
X469900Y336550D02*
X467360Y337820D01*
D17*
X498475Y136525D03*
X581025Y136525D03*
D16*
X622300Y288925D02*
X714375Y288925D01*
X622300Y288925D02*
X587375Y323850D01*
X546100Y323850D01*
X546100Y336550D01*
X714375Y288925D02*
X714756Y287528D01*
X546100Y336550D02*
X543560Y337820D01*
X425450Y114300D02*
X412750Y101600D01*
X425450Y114300D02*
X425450Y168275D01*
X441325Y184150D01*
X412750Y101600D02*
X411480Y101600D01*
X441325Y184150D02*
X441960Y185420D01*
X495300Y184150D02*
X561975Y117475D01*
X612775Y117475D01*
X612775Y101600D01*
X495300Y184150D02*
X492760Y185420D01*
X612775Y101600D02*
X614680Y101600D01*
X482600Y358775D02*
X466725Y374650D01*
X482600Y358775D02*
X644525Y358775D01*
X644525Y339725D01*
X466725Y374650D02*
X464980Y375920D01*
X644525Y339725D02*
X645160Y337820D01*
X120650Y463550D02*
X30480Y553720D01*
X120650Y463550D02*
X463550Y463550D01*
X463550Y377825D01*
X464980Y375920D01*
X301625Y231775D02*
X273050Y203200D01*
X301625Y231775D02*
X301625Y346075D01*
X374650Y419100D01*
X425450Y419100D01*
X425450Y393700D01*
X412750Y381000D01*
X412750Y371475D01*
X431800Y352425D01*
X517525Y352425D01*
X517525Y339725D01*
X273050Y203200D02*
X270764Y200152D01*
X518160Y337820D02*
X517525Y339725D01*
X692150Y177800D02*
X714375Y155575D01*
X692150Y177800D02*
X692150Y209550D01*
X584200Y317500D01*
X495300Y317500D01*
X495300Y336550D01*
X714375Y155575D02*
X717296Y152908D01*
X495300Y336550D02*
X492760Y337820D01*
X130175Y406400D02*
X123825Y400050D01*
X123825Y254000D01*
X133350Y244475D01*
X132080Y406400D02*
X130175Y406400D01*
X133350Y244475D02*
X134620Y243840D01*
X76200Y361950D02*
X31750Y406400D01*
X76200Y361950D02*
X76200Y337820D01*
X31750Y406400D02*
X30480Y406400D01*
X879475Y403225D02*
X882650Y406400D01*
X882650Y425450D01*
X879475Y403225D02*
X878840Y401320D01*
X882650Y425450D02*
X883920Y426720D01*
X911225Y425450D02*
X911225Y403225D01*
X911860Y401320D01*
X911225Y425450D02*
X909320Y426720D01*
X962025Y425450D02*
X962025Y403225D01*
X960120Y401320D01*
X962025Y425450D02*
X960120Y426720D01*
M02*
