G04 EAGLE Gerber RS-274X export*
G75*
%MOMM*%
%FSLAX34Y34*%
%LPD*%
%IN*%
%IPPOS*%
%AMOC8*
5,1,8,0,0,1.08239X$1,22.5*%
G01*
%ADD10C,0.254000*%


D10*
X0Y76200D02*
X990600Y81280D01*
X993140Y596900D01*
X5080Y596900D01*
X0Y76200D01*
X199263Y355232D02*
X199332Y356016D01*
X199468Y356792D01*
X199672Y357552D01*
X199941Y358292D01*
X200274Y359006D01*
X200668Y359687D01*
X201120Y360332D01*
X201626Y360936D01*
X202182Y361492D01*
X202786Y361998D01*
X203431Y362450D01*
X204112Y362844D01*
X204826Y363177D01*
X205566Y363446D01*
X206327Y363650D01*
X207102Y363786D01*
X207886Y363855D01*
X208674Y363855D01*
X209458Y363786D01*
X210234Y363650D01*
X210994Y363446D01*
X211734Y363177D01*
X212448Y362844D01*
X213129Y362450D01*
X213774Y361998D01*
X214378Y361492D01*
X214934Y360936D01*
X215440Y360332D01*
X215892Y359687D01*
X216286Y359006D01*
X216619Y358292D01*
X216888Y357552D01*
X217092Y356792D01*
X217228Y356016D01*
X217297Y355232D01*
X217297Y354444D01*
X217228Y353660D01*
X217092Y352885D01*
X216888Y352124D01*
X216619Y351384D01*
X216286Y350670D01*
X215892Y349989D01*
X215440Y349344D01*
X214934Y348740D01*
X214378Y348184D01*
X213774Y347678D01*
X213129Y347226D01*
X212448Y346832D01*
X211734Y346499D01*
X210994Y346230D01*
X210234Y346026D01*
X209458Y345890D01*
X208674Y345821D01*
X207886Y345821D01*
X207102Y345890D01*
X206327Y346026D01*
X205566Y346230D01*
X204826Y346499D01*
X204112Y346832D01*
X203431Y347226D01*
X202786Y347678D01*
X202182Y348184D01*
X201626Y348740D01*
X201120Y349344D01*
X200668Y349989D01*
X200274Y350670D01*
X199941Y351384D01*
X199672Y352124D01*
X199468Y352885D01*
X199332Y353660D01*
X199263Y354444D01*
X199263Y355232D01*
X199263Y265316D02*
X199332Y266100D01*
X199468Y266876D01*
X199672Y267636D01*
X199941Y268376D01*
X200274Y269090D01*
X200668Y269771D01*
X201120Y270416D01*
X201626Y271020D01*
X202182Y271576D01*
X202786Y272082D01*
X203431Y272534D01*
X204112Y272928D01*
X204826Y273261D01*
X205566Y273530D01*
X206327Y273734D01*
X207102Y273870D01*
X207886Y273939D01*
X208674Y273939D01*
X209458Y273870D01*
X210234Y273734D01*
X210994Y273530D01*
X211734Y273261D01*
X212448Y272928D01*
X213129Y272534D01*
X213774Y272082D01*
X214378Y271576D01*
X214934Y271020D01*
X215440Y270416D01*
X215892Y269771D01*
X216286Y269090D01*
X216619Y268376D01*
X216888Y267636D01*
X217092Y266876D01*
X217228Y266100D01*
X217297Y265316D01*
X217297Y264528D01*
X217228Y263744D01*
X217092Y262969D01*
X216888Y262208D01*
X216619Y261468D01*
X216286Y260754D01*
X215892Y260073D01*
X215440Y259428D01*
X214934Y258824D01*
X214378Y258268D01*
X213774Y257762D01*
X213129Y257310D01*
X212448Y256916D01*
X211734Y256583D01*
X210994Y256314D01*
X210234Y256110D01*
X209458Y255974D01*
X208674Y255905D01*
X207886Y255905D01*
X207102Y255974D01*
X206327Y256110D01*
X205566Y256314D01*
X204826Y256583D01*
X204112Y256916D01*
X203431Y257310D01*
X202786Y257762D01*
X202182Y258268D01*
X201626Y258824D01*
X201120Y259428D01*
X200668Y260073D01*
X200274Y260754D01*
X199941Y261468D01*
X199672Y262208D01*
X199468Y262969D01*
X199332Y263744D01*
X199263Y264528D01*
X199263Y265316D01*
X786257Y267068D02*
X786188Y266284D01*
X786052Y265509D01*
X785848Y264748D01*
X785579Y264008D01*
X785246Y263294D01*
X784852Y262613D01*
X784400Y261968D01*
X783894Y261364D01*
X783338Y260808D01*
X782734Y260302D01*
X782089Y259850D01*
X781408Y259456D01*
X780694Y259123D01*
X779954Y258854D01*
X779194Y258650D01*
X778418Y258514D01*
X777634Y258445D01*
X776846Y258445D01*
X776062Y258514D01*
X775287Y258650D01*
X774526Y258854D01*
X773786Y259123D01*
X773072Y259456D01*
X772391Y259850D01*
X771746Y260302D01*
X771142Y260808D01*
X770586Y261364D01*
X770080Y261968D01*
X769628Y262613D01*
X769234Y263294D01*
X768901Y264008D01*
X768632Y264748D01*
X768428Y265509D01*
X768292Y266284D01*
X768223Y267068D01*
X768223Y267856D01*
X768292Y268640D01*
X768428Y269416D01*
X768632Y270176D01*
X768901Y270916D01*
X769234Y271630D01*
X769628Y272311D01*
X770080Y272956D01*
X770586Y273560D01*
X771142Y274116D01*
X771746Y274622D01*
X772391Y275074D01*
X773072Y275468D01*
X773786Y275801D01*
X774526Y276070D01*
X775287Y276274D01*
X776062Y276410D01*
X776846Y276479D01*
X777634Y276479D01*
X778418Y276410D01*
X779194Y276274D01*
X779954Y276070D01*
X780694Y275801D01*
X781408Y275468D01*
X782089Y275074D01*
X782734Y274622D01*
X783338Y274116D01*
X783894Y273560D01*
X784400Y272956D01*
X784852Y272311D01*
X785246Y271630D01*
X785579Y270916D01*
X785848Y270176D01*
X786052Y269416D01*
X786188Y268640D01*
X786257Y267856D01*
X786257Y267068D01*
X786257Y356984D02*
X786188Y356200D01*
X786052Y355425D01*
X785848Y354664D01*
X785579Y353924D01*
X785246Y353210D01*
X784852Y352529D01*
X784400Y351884D01*
X783894Y351280D01*
X783338Y350724D01*
X782734Y350218D01*
X782089Y349766D01*
X781408Y349372D01*
X780694Y349039D01*
X779954Y348770D01*
X779194Y348566D01*
X778418Y348430D01*
X777634Y348361D01*
X776846Y348361D01*
X776062Y348430D01*
X775287Y348566D01*
X774526Y348770D01*
X773786Y349039D01*
X773072Y349372D01*
X772391Y349766D01*
X771746Y350218D01*
X771142Y350724D01*
X770586Y351280D01*
X770080Y351884D01*
X769628Y352529D01*
X769234Y353210D01*
X768901Y353924D01*
X768632Y354664D01*
X768428Y355425D01*
X768292Y356200D01*
X768223Y356984D01*
X768223Y357772D01*
X768292Y358556D01*
X768428Y359332D01*
X768632Y360092D01*
X768901Y360832D01*
X769234Y361546D01*
X769628Y362227D01*
X770080Y362872D01*
X770586Y363476D01*
X771142Y364032D01*
X771746Y364538D01*
X772391Y364990D01*
X773072Y365384D01*
X773786Y365717D01*
X774526Y365986D01*
X775287Y366190D01*
X776062Y366326D01*
X776846Y366395D01*
X777634Y366395D01*
X778418Y366326D01*
X779194Y366190D01*
X779954Y365986D01*
X780694Y365717D01*
X781408Y365384D01*
X782089Y364990D01*
X782734Y364538D01*
X783338Y364032D01*
X783894Y363476D01*
X784400Y362872D01*
X784852Y362227D01*
X785246Y361546D01*
X785579Y360832D01*
X785848Y360092D01*
X786052Y359332D01*
X786188Y358556D01*
X786257Y357772D01*
X786257Y356984D01*
X199263Y220612D02*
X199332Y221396D01*
X199468Y222172D01*
X199672Y222932D01*
X199941Y223672D01*
X200274Y224386D01*
X200668Y225067D01*
X201120Y225712D01*
X201626Y226316D01*
X202182Y226872D01*
X202786Y227378D01*
X203431Y227830D01*
X204112Y228224D01*
X204826Y228557D01*
X205566Y228826D01*
X206327Y229030D01*
X207102Y229166D01*
X207886Y229235D01*
X208674Y229235D01*
X209458Y229166D01*
X210234Y229030D01*
X210994Y228826D01*
X211734Y228557D01*
X212448Y228224D01*
X213129Y227830D01*
X213774Y227378D01*
X214378Y226872D01*
X214934Y226316D01*
X215440Y225712D01*
X215892Y225067D01*
X216286Y224386D01*
X216619Y223672D01*
X216888Y222932D01*
X217092Y222172D01*
X217228Y221396D01*
X217297Y220612D01*
X217297Y219824D01*
X217228Y219040D01*
X217092Y218265D01*
X216888Y217504D01*
X216619Y216764D01*
X216286Y216050D01*
X215892Y215369D01*
X215440Y214724D01*
X214934Y214120D01*
X214378Y213564D01*
X213774Y213058D01*
X213129Y212606D01*
X212448Y212212D01*
X211734Y211879D01*
X210994Y211610D01*
X210234Y211406D01*
X209458Y211270D01*
X208674Y211201D01*
X207886Y211201D01*
X207102Y211270D01*
X206327Y211406D01*
X205566Y211610D01*
X204826Y211879D01*
X204112Y212212D01*
X203431Y212606D01*
X202786Y213058D01*
X202182Y213564D01*
X201626Y214120D01*
X201120Y214724D01*
X200668Y215369D01*
X200274Y216050D01*
X199941Y216764D01*
X199672Y217504D01*
X199468Y218265D01*
X199332Y219040D01*
X199263Y219824D01*
X199263Y220612D01*
X199263Y130696D02*
X199332Y131480D01*
X199468Y132256D01*
X199672Y133016D01*
X199941Y133756D01*
X200274Y134470D01*
X200668Y135151D01*
X201120Y135796D01*
X201626Y136400D01*
X202182Y136956D01*
X202786Y137462D01*
X203431Y137914D01*
X204112Y138308D01*
X204826Y138641D01*
X205566Y138910D01*
X206327Y139114D01*
X207102Y139250D01*
X207886Y139319D01*
X208674Y139319D01*
X209458Y139250D01*
X210234Y139114D01*
X210994Y138910D01*
X211734Y138641D01*
X212448Y138308D01*
X213129Y137914D01*
X213774Y137462D01*
X214378Y136956D01*
X214934Y136400D01*
X215440Y135796D01*
X215892Y135151D01*
X216286Y134470D01*
X216619Y133756D01*
X216888Y133016D01*
X217092Y132256D01*
X217228Y131480D01*
X217297Y130696D01*
X217297Y129908D01*
X217228Y129124D01*
X217092Y128349D01*
X216888Y127588D01*
X216619Y126848D01*
X216286Y126134D01*
X215892Y125453D01*
X215440Y124808D01*
X214934Y124204D01*
X214378Y123648D01*
X213774Y123142D01*
X213129Y122690D01*
X212448Y122296D01*
X211734Y121963D01*
X210994Y121694D01*
X210234Y121490D01*
X209458Y121354D01*
X208674Y121285D01*
X207886Y121285D01*
X207102Y121354D01*
X206327Y121490D01*
X205566Y121694D01*
X204826Y121963D01*
X204112Y122296D01*
X203431Y122690D01*
X202786Y123142D01*
X202182Y123648D01*
X201626Y124204D01*
X201120Y124808D01*
X200668Y125453D01*
X200274Y126134D01*
X199941Y126848D01*
X199672Y127588D01*
X199468Y128349D01*
X199332Y129124D01*
X199263Y129908D01*
X199263Y130696D01*
X788797Y132448D02*
X788728Y131664D01*
X788592Y130889D01*
X788388Y130128D01*
X788119Y129388D01*
X787786Y128674D01*
X787392Y127993D01*
X786940Y127348D01*
X786434Y126744D01*
X785878Y126188D01*
X785274Y125682D01*
X784629Y125230D01*
X783948Y124836D01*
X783234Y124503D01*
X782494Y124234D01*
X781734Y124030D01*
X780958Y123894D01*
X780174Y123825D01*
X779386Y123825D01*
X778602Y123894D01*
X777827Y124030D01*
X777066Y124234D01*
X776326Y124503D01*
X775612Y124836D01*
X774931Y125230D01*
X774286Y125682D01*
X773682Y126188D01*
X773126Y126744D01*
X772620Y127348D01*
X772168Y127993D01*
X771774Y128674D01*
X771441Y129388D01*
X771172Y130128D01*
X770968Y130889D01*
X770832Y131664D01*
X770763Y132448D01*
X770763Y133236D01*
X770832Y134020D01*
X770968Y134796D01*
X771172Y135556D01*
X771441Y136296D01*
X771774Y137010D01*
X772168Y137691D01*
X772620Y138336D01*
X773126Y138940D01*
X773682Y139496D01*
X774286Y140002D01*
X774931Y140454D01*
X775612Y140848D01*
X776326Y141181D01*
X777066Y141450D01*
X777827Y141654D01*
X778602Y141790D01*
X779386Y141859D01*
X780174Y141859D01*
X780958Y141790D01*
X781734Y141654D01*
X782494Y141450D01*
X783234Y141181D01*
X783948Y140848D01*
X784629Y140454D01*
X785274Y140002D01*
X785878Y139496D01*
X786434Y138940D01*
X786940Y138336D01*
X787392Y137691D01*
X787786Y137010D01*
X788119Y136296D01*
X788388Y135556D01*
X788592Y134796D01*
X788728Y134020D01*
X788797Y133236D01*
X788797Y132448D01*
X788797Y222364D02*
X788728Y221580D01*
X788592Y220805D01*
X788388Y220044D01*
X788119Y219304D01*
X787786Y218590D01*
X787392Y217909D01*
X786940Y217264D01*
X786434Y216660D01*
X785878Y216104D01*
X785274Y215598D01*
X784629Y215146D01*
X783948Y214752D01*
X783234Y214419D01*
X782494Y214150D01*
X781734Y213946D01*
X780958Y213810D01*
X780174Y213741D01*
X779386Y213741D01*
X778602Y213810D01*
X777827Y213946D01*
X777066Y214150D01*
X776326Y214419D01*
X775612Y214752D01*
X774931Y215146D01*
X774286Y215598D01*
X773682Y216104D01*
X773126Y216660D01*
X772620Y217264D01*
X772168Y217909D01*
X771774Y218590D01*
X771441Y219304D01*
X771172Y220044D01*
X770968Y220805D01*
X770832Y221580D01*
X770763Y222364D01*
X770763Y223152D01*
X770832Y223936D01*
X770968Y224712D01*
X771172Y225472D01*
X771441Y226212D01*
X771774Y226926D01*
X772168Y227607D01*
X772620Y228252D01*
X773126Y228856D01*
X773682Y229412D01*
X774286Y229918D01*
X774931Y230370D01*
X775612Y230764D01*
X776326Y231097D01*
X777066Y231366D01*
X777827Y231570D01*
X778602Y231706D01*
X779386Y231775D01*
X780174Y231775D01*
X780958Y231706D01*
X781734Y231570D01*
X782494Y231366D01*
X783234Y231097D01*
X783948Y230764D01*
X784629Y230370D01*
X785274Y229918D01*
X785878Y229412D01*
X786434Y228856D01*
X786940Y228252D01*
X787392Y227607D01*
X787786Y226926D01*
X788119Y226212D01*
X788388Y225472D01*
X788592Y224712D01*
X788728Y223936D01*
X788797Y223152D01*
X788797Y222364D01*
M02*
