G04 EAGLE Gerber RS-274X export*
G75*
%MOMM*%
%FSLAX34Y34*%
%LPD*%
%INSilkscreen Top*%
%IPPOS*%
%AMOC8*
5,1,8,0,0,1.08239X$1,22.5*%
G01*
%ADD10C,0.152400*%
%ADD11C,0.203200*%
%ADD12C,0.050800*%
%ADD13C,0.127000*%
%ADD14R,2.159000X0.508000*%
%ADD15R,0.508000X0.508000*%
%ADD16R,0.508000X2.032000*%
%ADD17R,1.905000X0.508000*%


D10*
X187885Y256891D02*
X184920Y259857D01*
X178988Y259857D01*
X176022Y256891D01*
X176022Y245028D01*
X178988Y242062D01*
X184920Y242062D01*
X187885Y245028D01*
X187885Y250960D01*
X181954Y250960D01*
X193797Y259857D02*
X193797Y242062D01*
X205660Y242062D02*
X193797Y259857D01*
X205660Y259857D02*
X205660Y242062D01*
X211572Y242062D02*
X211572Y259857D01*
X211572Y242062D02*
X220469Y242062D01*
X223435Y245028D01*
X223435Y256891D01*
X220469Y259857D01*
X211572Y259857D01*
X57068Y165877D02*
X54102Y162911D01*
X57068Y165877D02*
X63000Y165877D01*
X65965Y162911D01*
X65965Y159945D01*
X63000Y156980D01*
X60034Y156980D01*
X63000Y156980D02*
X65965Y154014D01*
X65965Y151048D01*
X63000Y148082D01*
X57068Y148082D01*
X54102Y151048D01*
X71877Y151048D02*
X71877Y148082D01*
X71877Y151048D02*
X74843Y151048D01*
X74843Y148082D01*
X71877Y148082D01*
X80764Y159945D02*
X86696Y165877D01*
X86696Y148082D01*
X80764Y148082D02*
X92628Y148082D01*
X98539Y154014D02*
X98539Y165877D01*
X98539Y154014D02*
X104471Y148082D01*
X110403Y154014D01*
X110403Y165877D01*
X298943Y247142D02*
X313772Y247142D01*
X316738Y250108D01*
X316738Y256040D01*
X313772Y259005D01*
X298943Y259005D01*
X298943Y273814D02*
X301909Y276780D01*
X298943Y273814D02*
X298943Y267883D01*
X301909Y264917D01*
X304875Y264917D01*
X307840Y267883D01*
X307840Y273814D01*
X310806Y276780D01*
X313772Y276780D01*
X316738Y273814D01*
X316738Y267883D01*
X313772Y264917D01*
X316738Y282692D02*
X298943Y282692D01*
X298943Y291589D01*
X301909Y294555D01*
X304875Y294555D01*
X307840Y291589D01*
X310806Y294555D01*
X313772Y294555D01*
X316738Y291589D01*
X316738Y282692D01*
X307840Y282692D02*
X307840Y291589D01*
X18568Y263413D02*
X18568Y245618D01*
X18568Y263413D02*
X27465Y263413D01*
X30431Y260447D01*
X30431Y257481D01*
X27465Y254516D01*
X30431Y251550D01*
X30431Y248584D01*
X27465Y245618D01*
X18568Y245618D01*
X18568Y254516D02*
X27465Y254516D01*
X36343Y257481D02*
X36343Y245618D01*
X36343Y257481D02*
X42274Y263413D01*
X48206Y257481D01*
X48206Y245618D01*
X48206Y254516D02*
X36343Y254516D01*
X60049Y245618D02*
X60049Y263413D01*
X54117Y263413D02*
X65981Y263413D01*
X77824Y263413D02*
X77824Y245618D01*
X71892Y263413D02*
X83756Y263413D01*
X89667Y254516D02*
X101531Y254516D01*
X95599Y260447D02*
X95599Y248584D01*
X71892Y469138D02*
X71892Y481001D01*
X77824Y486933D01*
X83756Y481001D01*
X83756Y469138D01*
X83756Y478036D02*
X71892Y478036D01*
X95599Y469138D02*
X95599Y486933D01*
X89667Y486933D02*
X101531Y486933D01*
X151474Y488457D02*
X151474Y470662D01*
X145542Y488457D02*
X157405Y488457D01*
X163317Y488457D02*
X175180Y470662D01*
X163317Y470662D02*
X175180Y488457D01*
D11*
X461010Y198120D02*
X473710Y198120D01*
X480060Y191770D01*
X480060Y179070D02*
X473710Y172720D01*
X435610Y198120D02*
X429260Y191770D01*
X435610Y198120D02*
X448310Y198120D01*
X454660Y191770D01*
X454660Y179070D02*
X448310Y172720D01*
X435610Y172720D01*
X429260Y179070D01*
X454660Y191770D02*
X461010Y198120D01*
X454660Y179070D02*
X461010Y172720D01*
X473710Y172720D01*
X397510Y198120D02*
X384810Y198120D01*
X397510Y198120D02*
X403860Y191770D01*
X403860Y179070D02*
X397510Y172720D01*
X403860Y191770D02*
X410210Y198120D01*
X422910Y198120D01*
X429260Y191770D01*
X429260Y179070D02*
X422910Y172720D01*
X410210Y172720D01*
X403860Y179070D01*
X359410Y198120D02*
X353060Y191770D01*
X359410Y198120D02*
X372110Y198120D01*
X378460Y191770D01*
X378460Y179070D02*
X372110Y172720D01*
X359410Y172720D01*
X353060Y179070D01*
X378460Y191770D02*
X384810Y198120D01*
X378460Y179070D02*
X384810Y172720D01*
X397510Y172720D01*
X321310Y198120D02*
X308610Y198120D01*
X321310Y198120D02*
X327660Y191770D01*
X327660Y179070D02*
X321310Y172720D01*
X327660Y191770D02*
X334010Y198120D01*
X346710Y198120D01*
X353060Y191770D01*
X353060Y179070D02*
X346710Y172720D01*
X334010Y172720D01*
X327660Y179070D01*
X302260Y179070D02*
X302260Y191770D01*
X308610Y198120D01*
X302260Y179070D02*
X308610Y172720D01*
X321310Y172720D01*
X638810Y198120D02*
X651510Y198120D01*
X657860Y191770D01*
X657860Y179070D02*
X651510Y172720D01*
X613410Y198120D02*
X607060Y191770D01*
X613410Y198120D02*
X626110Y198120D01*
X632460Y191770D01*
X632460Y179070D02*
X626110Y172720D01*
X613410Y172720D01*
X607060Y179070D01*
X632460Y191770D02*
X638810Y198120D01*
X632460Y179070D02*
X638810Y172720D01*
X651510Y172720D01*
X575310Y198120D02*
X562610Y198120D01*
X575310Y198120D02*
X581660Y191770D01*
X581660Y179070D02*
X575310Y172720D01*
X581660Y191770D02*
X588010Y198120D01*
X600710Y198120D01*
X607060Y191770D01*
X607060Y179070D02*
X600710Y172720D01*
X588010Y172720D01*
X581660Y179070D01*
X537210Y198120D02*
X530860Y191770D01*
X537210Y198120D02*
X549910Y198120D01*
X556260Y191770D01*
X556260Y179070D02*
X549910Y172720D01*
X537210Y172720D01*
X530860Y179070D01*
X556260Y191770D02*
X562610Y198120D01*
X556260Y179070D02*
X562610Y172720D01*
X575310Y172720D01*
X499110Y198120D02*
X486410Y198120D01*
X499110Y198120D02*
X505460Y191770D01*
X505460Y179070D02*
X499110Y172720D01*
X505460Y191770D02*
X511810Y198120D01*
X524510Y198120D01*
X530860Y191770D01*
X530860Y179070D02*
X524510Y172720D01*
X511810Y172720D01*
X505460Y179070D01*
X486410Y198120D02*
X480060Y191770D01*
X480060Y179070D02*
X486410Y172720D01*
X499110Y172720D01*
X657860Y191770D02*
X664210Y198120D01*
X676910Y198120D01*
X683260Y191770D01*
X683260Y179070D01*
X676910Y172720D01*
X664210Y172720D01*
X657860Y179070D01*
X524510Y325120D02*
X511810Y325120D01*
X505460Y331470D01*
X505460Y344170D02*
X511810Y350520D01*
X549910Y325120D02*
X556260Y331470D01*
X549910Y325120D02*
X537210Y325120D01*
X530860Y331470D01*
X530860Y344170D02*
X537210Y350520D01*
X549910Y350520D01*
X556260Y344170D01*
X530860Y331470D02*
X524510Y325120D01*
X530860Y344170D02*
X524510Y350520D01*
X511810Y350520D01*
X588010Y325120D02*
X600710Y325120D01*
X588010Y325120D02*
X581660Y331470D01*
X581660Y344170D02*
X588010Y350520D01*
X581660Y331470D02*
X575310Y325120D01*
X562610Y325120D01*
X556260Y331470D01*
X556260Y344170D02*
X562610Y350520D01*
X575310Y350520D01*
X581660Y344170D01*
X626110Y325120D02*
X632460Y331470D01*
X626110Y325120D02*
X613410Y325120D01*
X607060Y331470D01*
X607060Y344170D02*
X613410Y350520D01*
X626110Y350520D01*
X632460Y344170D01*
X607060Y331470D02*
X600710Y325120D01*
X607060Y344170D02*
X600710Y350520D01*
X588010Y350520D01*
X664210Y325120D02*
X676910Y325120D01*
X664210Y325120D02*
X657860Y331470D01*
X657860Y344170D02*
X664210Y350520D01*
X657860Y331470D02*
X651510Y325120D01*
X638810Y325120D01*
X632460Y331470D01*
X632460Y344170D02*
X638810Y350520D01*
X651510Y350520D01*
X657860Y344170D01*
X683260Y344170D02*
X683260Y331470D01*
X676910Y325120D01*
X683260Y344170D02*
X676910Y350520D01*
X664210Y350520D01*
X346710Y325120D02*
X334010Y325120D01*
X327660Y331470D01*
X327660Y344170D02*
X334010Y350520D01*
X372110Y325120D02*
X378460Y331470D01*
X372110Y325120D02*
X359410Y325120D01*
X353060Y331470D01*
X353060Y344170D02*
X359410Y350520D01*
X372110Y350520D01*
X378460Y344170D01*
X353060Y331470D02*
X346710Y325120D01*
X353060Y344170D02*
X346710Y350520D01*
X334010Y350520D01*
X410210Y325120D02*
X422910Y325120D01*
X410210Y325120D02*
X403860Y331470D01*
X403860Y344170D02*
X410210Y350520D01*
X403860Y331470D02*
X397510Y325120D01*
X384810Y325120D01*
X378460Y331470D01*
X378460Y344170D02*
X384810Y350520D01*
X397510Y350520D01*
X403860Y344170D01*
X448310Y325120D02*
X454660Y331470D01*
X448310Y325120D02*
X435610Y325120D01*
X429260Y331470D01*
X429260Y344170D02*
X435610Y350520D01*
X448310Y350520D01*
X454660Y344170D01*
X429260Y331470D02*
X422910Y325120D01*
X429260Y344170D02*
X422910Y350520D01*
X410210Y350520D01*
X486410Y325120D02*
X499110Y325120D01*
X486410Y325120D02*
X480060Y331470D01*
X480060Y344170D02*
X486410Y350520D01*
X480060Y331470D02*
X473710Y325120D01*
X461010Y325120D01*
X454660Y331470D01*
X454660Y344170D02*
X461010Y350520D01*
X473710Y350520D01*
X480060Y344170D01*
X499110Y325120D02*
X505460Y331470D01*
X505460Y344170D02*
X499110Y350520D01*
X486410Y350520D01*
X327660Y331470D02*
X321310Y325120D01*
X308610Y325120D01*
X302260Y331470D01*
X302260Y344170D01*
X308610Y350520D01*
X321310Y350520D01*
X327660Y344170D01*
X430530Y114300D02*
X443230Y114300D01*
X449580Y107950D01*
X449580Y95250D02*
X443230Y88900D01*
X449580Y107950D02*
X455930Y114300D01*
X468630Y114300D01*
X474980Y107950D01*
X474980Y95250D02*
X468630Y88900D01*
X455930Y88900D01*
X449580Y95250D01*
X405130Y114300D02*
X398780Y107950D01*
X405130Y114300D02*
X417830Y114300D01*
X424180Y107950D01*
X424180Y95250D02*
X417830Y88900D01*
X405130Y88900D01*
X398780Y95250D01*
X424180Y107950D02*
X430530Y114300D01*
X424180Y95250D02*
X430530Y88900D01*
X443230Y88900D01*
X367030Y114300D02*
X354330Y114300D01*
X367030Y114300D02*
X373380Y107950D01*
X373380Y95250D02*
X367030Y88900D01*
X373380Y107950D02*
X379730Y114300D01*
X392430Y114300D01*
X398780Y107950D01*
X398780Y95250D02*
X392430Y88900D01*
X379730Y88900D01*
X373380Y95250D01*
X347980Y95250D02*
X347980Y107950D01*
X354330Y114300D01*
X347980Y95250D02*
X354330Y88900D01*
X367030Y88900D01*
X474980Y95250D02*
X474980Y107950D01*
X633730Y114300D02*
X646430Y114300D01*
X652780Y107950D01*
X652780Y95250D02*
X646430Y88900D01*
X652780Y107950D02*
X659130Y114300D01*
X671830Y114300D01*
X678180Y107950D01*
X678180Y95250D02*
X671830Y88900D01*
X659130Y88900D01*
X652780Y95250D01*
X608330Y114300D02*
X601980Y107950D01*
X608330Y114300D02*
X621030Y114300D01*
X627380Y107950D01*
X627380Y95250D02*
X621030Y88900D01*
X608330Y88900D01*
X601980Y95250D01*
X627380Y107950D02*
X633730Y114300D01*
X627380Y95250D02*
X633730Y88900D01*
X646430Y88900D01*
X570230Y114300D02*
X557530Y114300D01*
X570230Y114300D02*
X576580Y107950D01*
X576580Y95250D02*
X570230Y88900D01*
X576580Y107950D02*
X582930Y114300D01*
X595630Y114300D01*
X601980Y107950D01*
X601980Y95250D02*
X595630Y88900D01*
X582930Y88900D01*
X576580Y95250D01*
X551180Y95250D02*
X551180Y107950D01*
X557530Y114300D01*
X551180Y95250D02*
X557530Y88900D01*
X570230Y88900D01*
X678180Y95250D02*
X678180Y107950D01*
D10*
X227330Y290830D02*
X189230Y290830D01*
X189230Y328930D01*
X227330Y328930D01*
X227330Y290830D01*
D12*
X224790Y293370D02*
X191770Y293370D01*
X191770Y326390D01*
X224790Y326390D01*
X224790Y293370D01*
D10*
X218440Y248920D02*
X218440Y245110D01*
X218440Y248920D02*
X198120Y248920D01*
X198120Y245110D02*
X218440Y245110D01*
X198120Y245110D02*
X198120Y248920D01*
X157480Y248920D02*
X147320Y259080D01*
X157480Y248920D02*
X190500Y248920D01*
X147320Y259080D02*
X147320Y271780D01*
X147320Y298450D02*
X147320Y321310D01*
X147320Y360680D02*
X157480Y370840D01*
X147320Y360680D02*
X147320Y347980D01*
X269240Y321310D02*
X269240Y298450D01*
X269240Y347980D02*
X269240Y360680D01*
X259080Y370840D01*
X226060Y370840D01*
X226060Y248920D02*
X259080Y248920D01*
X269240Y259080D01*
X269240Y271780D01*
X218440Y374650D02*
X198120Y374650D01*
X218440Y374650D02*
X218440Y370840D01*
X198120Y370840D02*
X198120Y374650D01*
X157480Y248920D02*
X160020Y246380D01*
X190500Y246380D01*
X190500Y248920D01*
X198120Y248920D01*
X226060Y248920D02*
X226060Y246380D01*
X226060Y248920D02*
X218440Y248920D01*
X226060Y246380D02*
X256540Y246380D01*
X259080Y248920D01*
X218440Y370840D02*
X198120Y370840D01*
X190500Y370840D01*
X226060Y370840D02*
X226060Y373380D01*
X226060Y370840D02*
X218440Y370840D01*
X226060Y373380D02*
X256540Y373380D01*
X259080Y370840D01*
X190500Y370840D02*
X190500Y373380D01*
X190500Y370840D02*
X157480Y370840D01*
X160020Y373380D02*
X190500Y373380D01*
X160020Y373380D02*
X157480Y370840D01*
X172720Y309880D02*
X172731Y310753D01*
X172763Y311625D01*
X172816Y312496D01*
X172891Y313365D01*
X172987Y314233D01*
X173105Y315098D01*
X173244Y315959D01*
X173403Y316817D01*
X173584Y317671D01*
X173786Y318520D01*
X174008Y319364D01*
X174251Y320203D01*
X174515Y321035D01*
X174799Y321860D01*
X175103Y322678D01*
X175427Y323488D01*
X175771Y324290D01*
X176134Y325084D01*
X176517Y325868D01*
X176919Y326643D01*
X177340Y327407D01*
X177779Y328161D01*
X178237Y328905D01*
X178713Y329636D01*
X179207Y330356D01*
X179718Y331063D01*
X180246Y331758D01*
X180792Y332439D01*
X181354Y333107D01*
X181932Y333761D01*
X182526Y334400D01*
X183135Y335025D01*
X183760Y335634D01*
X184399Y336228D01*
X185053Y336806D01*
X185721Y337368D01*
X186402Y337914D01*
X187097Y338442D01*
X187804Y338953D01*
X188524Y339447D01*
X189255Y339923D01*
X189999Y340381D01*
X190753Y340820D01*
X191517Y341241D01*
X192292Y341643D01*
X193076Y342026D01*
X193870Y342389D01*
X194672Y342733D01*
X195482Y343057D01*
X196300Y343361D01*
X197125Y343645D01*
X197957Y343909D01*
X198796Y344152D01*
X199640Y344374D01*
X200489Y344576D01*
X201343Y344757D01*
X202201Y344916D01*
X203062Y345055D01*
X203927Y345173D01*
X204795Y345269D01*
X205664Y345344D01*
X206535Y345397D01*
X207407Y345429D01*
X208280Y345440D01*
X209153Y345429D01*
X210025Y345397D01*
X210896Y345344D01*
X211765Y345269D01*
X212633Y345173D01*
X213498Y345055D01*
X214359Y344916D01*
X215217Y344757D01*
X216071Y344576D01*
X216920Y344374D01*
X217764Y344152D01*
X218603Y343909D01*
X219435Y343645D01*
X220260Y343361D01*
X221078Y343057D01*
X221888Y342733D01*
X222690Y342389D01*
X223484Y342026D01*
X224268Y341643D01*
X225043Y341241D01*
X225807Y340820D01*
X226561Y340381D01*
X227305Y339923D01*
X228036Y339447D01*
X228756Y338953D01*
X229463Y338442D01*
X230158Y337914D01*
X230839Y337368D01*
X231507Y336806D01*
X232161Y336228D01*
X232800Y335634D01*
X233425Y335025D01*
X234034Y334400D01*
X234628Y333761D01*
X235206Y333107D01*
X235768Y332439D01*
X236314Y331758D01*
X236842Y331063D01*
X237353Y330356D01*
X237847Y329636D01*
X238323Y328905D01*
X238781Y328161D01*
X239220Y327407D01*
X239641Y326643D01*
X240043Y325868D01*
X240426Y325084D01*
X240789Y324290D01*
X241133Y323488D01*
X241457Y322678D01*
X241761Y321860D01*
X242045Y321035D01*
X242309Y320203D01*
X242552Y319364D01*
X242774Y318520D01*
X242976Y317671D01*
X243157Y316817D01*
X243316Y315959D01*
X243455Y315098D01*
X243573Y314233D01*
X243669Y313365D01*
X243744Y312496D01*
X243797Y311625D01*
X243829Y310753D01*
X243840Y309880D01*
X243829Y309007D01*
X243797Y308135D01*
X243744Y307264D01*
X243669Y306395D01*
X243573Y305527D01*
X243455Y304662D01*
X243316Y303801D01*
X243157Y302943D01*
X242976Y302089D01*
X242774Y301240D01*
X242552Y300396D01*
X242309Y299557D01*
X242045Y298725D01*
X241761Y297900D01*
X241457Y297082D01*
X241133Y296272D01*
X240789Y295470D01*
X240426Y294676D01*
X240043Y293892D01*
X239641Y293117D01*
X239220Y292353D01*
X238781Y291599D01*
X238323Y290855D01*
X237847Y290124D01*
X237353Y289404D01*
X236842Y288697D01*
X236314Y288002D01*
X235768Y287321D01*
X235206Y286653D01*
X234628Y285999D01*
X234034Y285360D01*
X233425Y284735D01*
X232800Y284126D01*
X232161Y283532D01*
X231507Y282954D01*
X230839Y282392D01*
X230158Y281846D01*
X229463Y281318D01*
X228756Y280807D01*
X228036Y280313D01*
X227305Y279837D01*
X226561Y279379D01*
X225807Y278940D01*
X225043Y278519D01*
X224268Y278117D01*
X223484Y277734D01*
X222690Y277371D01*
X221888Y277027D01*
X221078Y276703D01*
X220260Y276399D01*
X219435Y276115D01*
X218603Y275851D01*
X217764Y275608D01*
X216920Y275386D01*
X216071Y275184D01*
X215217Y275003D01*
X214359Y274844D01*
X213498Y274705D01*
X212633Y274587D01*
X211765Y274491D01*
X210896Y274416D01*
X210025Y274363D01*
X209153Y274331D01*
X208280Y274320D01*
X207407Y274331D01*
X206535Y274363D01*
X205664Y274416D01*
X204795Y274491D01*
X203927Y274587D01*
X203062Y274705D01*
X202201Y274844D01*
X201343Y275003D01*
X200489Y275184D01*
X199640Y275386D01*
X198796Y275608D01*
X197957Y275851D01*
X197125Y276115D01*
X196300Y276399D01*
X195482Y276703D01*
X194672Y277027D01*
X193870Y277371D01*
X193076Y277734D01*
X192292Y278117D01*
X191517Y278519D01*
X190753Y278940D01*
X189999Y279379D01*
X189255Y279837D01*
X188524Y280313D01*
X187804Y280807D01*
X187097Y281318D01*
X186402Y281846D01*
X185721Y282392D01*
X185053Y282954D01*
X184399Y283532D01*
X183760Y284126D01*
X183135Y284735D01*
X182526Y285360D01*
X181932Y285999D01*
X181354Y286653D01*
X180792Y287321D01*
X180246Y288002D01*
X179718Y288697D01*
X179207Y289404D01*
X178713Y290124D01*
X178237Y290855D01*
X177779Y291599D01*
X177340Y292353D01*
X176919Y293117D01*
X176517Y293892D01*
X176134Y294676D01*
X175771Y295470D01*
X175427Y296272D01*
X175103Y297082D01*
X174799Y297900D01*
X174515Y298725D01*
X174251Y299557D01*
X174008Y300396D01*
X173786Y301240D01*
X173584Y302089D01*
X173403Y302943D01*
X173244Y303801D01*
X173105Y304662D01*
X172987Y305527D01*
X172891Y306395D01*
X172816Y307264D01*
X172763Y308135D01*
X172731Y309007D01*
X172720Y309880D01*
D12*
X198120Y309880D02*
X198123Y310129D01*
X198132Y310379D01*
X198148Y310627D01*
X198169Y310876D01*
X198196Y311124D01*
X198230Y311371D01*
X198270Y311617D01*
X198315Y311862D01*
X198367Y312106D01*
X198424Y312349D01*
X198488Y312590D01*
X198557Y312829D01*
X198633Y313067D01*
X198714Y313303D01*
X198801Y313537D01*
X198893Y313768D01*
X198992Y313997D01*
X199095Y314224D01*
X199205Y314448D01*
X199320Y314669D01*
X199440Y314888D01*
X199565Y315103D01*
X199696Y315316D01*
X199832Y315525D01*
X199973Y315730D01*
X200119Y315932D01*
X200270Y316131D01*
X200426Y316325D01*
X200587Y316516D01*
X200752Y316703D01*
X200922Y316886D01*
X201096Y317064D01*
X201274Y317238D01*
X201457Y317408D01*
X201644Y317573D01*
X201835Y317734D01*
X202029Y317890D01*
X202228Y318041D01*
X202430Y318187D01*
X202635Y318328D01*
X202844Y318464D01*
X203057Y318595D01*
X203272Y318720D01*
X203491Y318840D01*
X203712Y318955D01*
X203936Y319065D01*
X204163Y319168D01*
X204392Y319267D01*
X204623Y319359D01*
X204857Y319446D01*
X205093Y319527D01*
X205331Y319603D01*
X205570Y319672D01*
X205811Y319736D01*
X206054Y319793D01*
X206298Y319845D01*
X206543Y319890D01*
X206789Y319930D01*
X207036Y319964D01*
X207284Y319991D01*
X207533Y320012D01*
X207781Y320028D01*
X208031Y320037D01*
X208280Y320040D01*
X208529Y320037D01*
X208779Y320028D01*
X209027Y320012D01*
X209276Y319991D01*
X209524Y319964D01*
X209771Y319930D01*
X210017Y319890D01*
X210262Y319845D01*
X210506Y319793D01*
X210749Y319736D01*
X210990Y319672D01*
X211229Y319603D01*
X211467Y319527D01*
X211703Y319446D01*
X211937Y319359D01*
X212168Y319267D01*
X212397Y319168D01*
X212624Y319065D01*
X212848Y318955D01*
X213069Y318840D01*
X213288Y318720D01*
X213503Y318595D01*
X213716Y318464D01*
X213925Y318328D01*
X214130Y318187D01*
X214332Y318041D01*
X214531Y317890D01*
X214725Y317734D01*
X214916Y317573D01*
X215103Y317408D01*
X215286Y317238D01*
X215464Y317064D01*
X215638Y316886D01*
X215808Y316703D01*
X215973Y316516D01*
X216134Y316325D01*
X216290Y316131D01*
X216441Y315932D01*
X216587Y315730D01*
X216728Y315525D01*
X216864Y315316D01*
X216995Y315103D01*
X217120Y314888D01*
X217240Y314669D01*
X217355Y314448D01*
X217465Y314224D01*
X217568Y313997D01*
X217667Y313768D01*
X217759Y313537D01*
X217846Y313303D01*
X217927Y313067D01*
X218003Y312829D01*
X218072Y312590D01*
X218136Y312349D01*
X218193Y312106D01*
X218245Y311862D01*
X218290Y311617D01*
X218330Y311371D01*
X218364Y311124D01*
X218391Y310876D01*
X218412Y310627D01*
X218428Y310379D01*
X218437Y310129D01*
X218440Y309880D01*
X218437Y309631D01*
X218428Y309381D01*
X218412Y309133D01*
X218391Y308884D01*
X218364Y308636D01*
X218330Y308389D01*
X218290Y308143D01*
X218245Y307898D01*
X218193Y307654D01*
X218136Y307411D01*
X218072Y307170D01*
X218003Y306931D01*
X217927Y306693D01*
X217846Y306457D01*
X217759Y306223D01*
X217667Y305992D01*
X217568Y305763D01*
X217465Y305536D01*
X217355Y305312D01*
X217240Y305091D01*
X217120Y304872D01*
X216995Y304657D01*
X216864Y304444D01*
X216728Y304235D01*
X216587Y304030D01*
X216441Y303828D01*
X216290Y303629D01*
X216134Y303435D01*
X215973Y303244D01*
X215808Y303057D01*
X215638Y302874D01*
X215464Y302696D01*
X215286Y302522D01*
X215103Y302352D01*
X214916Y302187D01*
X214725Y302026D01*
X214531Y301870D01*
X214332Y301719D01*
X214130Y301573D01*
X213925Y301432D01*
X213716Y301296D01*
X213503Y301165D01*
X213288Y301040D01*
X213069Y300920D01*
X212848Y300805D01*
X212624Y300695D01*
X212397Y300592D01*
X212168Y300493D01*
X211937Y300401D01*
X211703Y300314D01*
X211467Y300233D01*
X211229Y300157D01*
X210990Y300088D01*
X210749Y300024D01*
X210506Y299967D01*
X210262Y299915D01*
X210017Y299870D01*
X209771Y299830D01*
X209524Y299796D01*
X209276Y299769D01*
X209027Y299748D01*
X208779Y299732D01*
X208529Y299723D01*
X208280Y299720D01*
X208031Y299723D01*
X207781Y299732D01*
X207533Y299748D01*
X207284Y299769D01*
X207036Y299796D01*
X206789Y299830D01*
X206543Y299870D01*
X206298Y299915D01*
X206054Y299967D01*
X205811Y300024D01*
X205570Y300088D01*
X205331Y300157D01*
X205093Y300233D01*
X204857Y300314D01*
X204623Y300401D01*
X204392Y300493D01*
X204163Y300592D01*
X203936Y300695D01*
X203712Y300805D01*
X203491Y300920D01*
X203272Y301040D01*
X203057Y301165D01*
X202844Y301296D01*
X202635Y301432D01*
X202430Y301573D01*
X202228Y301719D01*
X202029Y301870D01*
X201835Y302026D01*
X201644Y302187D01*
X201457Y302352D01*
X201274Y302522D01*
X201096Y302696D01*
X200922Y302874D01*
X200752Y303057D01*
X200587Y303244D01*
X200426Y303435D01*
X200270Y303629D01*
X200119Y303828D01*
X199973Y304030D01*
X199832Y304235D01*
X199696Y304444D01*
X199565Y304657D01*
X199440Y304872D01*
X199320Y305091D01*
X199205Y305312D01*
X199095Y305536D01*
X198992Y305763D01*
X198893Y305992D01*
X198801Y306223D01*
X198714Y306457D01*
X198633Y306693D01*
X198557Y306931D01*
X198488Y307170D01*
X198424Y307411D01*
X198367Y307654D01*
X198315Y307898D01*
X198270Y308143D01*
X198230Y308389D01*
X198196Y308636D01*
X198169Y308884D01*
X198148Y309133D01*
X198132Y309381D01*
X198123Y309631D01*
X198120Y309880D01*
X200660Y309880D02*
X200662Y310067D01*
X200669Y310254D01*
X200681Y310441D01*
X200697Y310627D01*
X200717Y310813D01*
X200742Y310998D01*
X200772Y311183D01*
X200806Y311367D01*
X200845Y311550D01*
X200888Y311732D01*
X200936Y311912D01*
X200988Y312092D01*
X201045Y312270D01*
X201105Y312447D01*
X201171Y312622D01*
X201240Y312796D01*
X201314Y312968D01*
X201392Y313138D01*
X201474Y313306D01*
X201560Y313472D01*
X201650Y313636D01*
X201744Y313797D01*
X201842Y313957D01*
X201944Y314113D01*
X202050Y314268D01*
X202160Y314419D01*
X202273Y314568D01*
X202390Y314714D01*
X202510Y314857D01*
X202634Y314997D01*
X202761Y315134D01*
X202892Y315268D01*
X203026Y315399D01*
X203163Y315526D01*
X203303Y315650D01*
X203446Y315770D01*
X203592Y315887D01*
X203741Y316000D01*
X203892Y316110D01*
X204047Y316216D01*
X204203Y316318D01*
X204363Y316416D01*
X204524Y316510D01*
X204688Y316600D01*
X204854Y316686D01*
X205022Y316768D01*
X205192Y316846D01*
X205364Y316920D01*
X205538Y316989D01*
X205713Y317055D01*
X205890Y317115D01*
X206068Y317172D01*
X206248Y317224D01*
X206428Y317272D01*
X206610Y317315D01*
X206793Y317354D01*
X206977Y317388D01*
X207162Y317418D01*
X207347Y317443D01*
X207533Y317463D01*
X207719Y317479D01*
X207906Y317491D01*
X208093Y317498D01*
X208280Y317500D01*
X208467Y317498D01*
X208654Y317491D01*
X208841Y317479D01*
X209027Y317463D01*
X209213Y317443D01*
X209398Y317418D01*
X209583Y317388D01*
X209767Y317354D01*
X209950Y317315D01*
X210132Y317272D01*
X210312Y317224D01*
X210492Y317172D01*
X210670Y317115D01*
X210847Y317055D01*
X211022Y316989D01*
X211196Y316920D01*
X211368Y316846D01*
X211538Y316768D01*
X211706Y316686D01*
X211872Y316600D01*
X212036Y316510D01*
X212197Y316416D01*
X212357Y316318D01*
X212513Y316216D01*
X212668Y316110D01*
X212819Y316000D01*
X212968Y315887D01*
X213114Y315770D01*
X213257Y315650D01*
X213397Y315526D01*
X213534Y315399D01*
X213668Y315268D01*
X213799Y315134D01*
X213926Y314997D01*
X214050Y314857D01*
X214170Y314714D01*
X214287Y314568D01*
X214400Y314419D01*
X214510Y314268D01*
X214616Y314113D01*
X214718Y313957D01*
X214816Y313797D01*
X214910Y313636D01*
X215000Y313472D01*
X215086Y313306D01*
X215168Y313138D01*
X215246Y312968D01*
X215320Y312796D01*
X215389Y312622D01*
X215455Y312447D01*
X215515Y312270D01*
X215572Y312092D01*
X215624Y311912D01*
X215672Y311732D01*
X215715Y311550D01*
X215754Y311367D01*
X215788Y311183D01*
X215818Y310998D01*
X215843Y310813D01*
X215863Y310627D01*
X215879Y310441D01*
X215891Y310254D01*
X215898Y310067D01*
X215900Y309880D01*
X215898Y309693D01*
X215891Y309506D01*
X215879Y309319D01*
X215863Y309133D01*
X215843Y308947D01*
X215818Y308762D01*
X215788Y308577D01*
X215754Y308393D01*
X215715Y308210D01*
X215672Y308028D01*
X215624Y307848D01*
X215572Y307668D01*
X215515Y307490D01*
X215455Y307313D01*
X215389Y307138D01*
X215320Y306964D01*
X215246Y306792D01*
X215168Y306622D01*
X215086Y306454D01*
X215000Y306288D01*
X214910Y306124D01*
X214816Y305963D01*
X214718Y305803D01*
X214616Y305647D01*
X214510Y305492D01*
X214400Y305341D01*
X214287Y305192D01*
X214170Y305046D01*
X214050Y304903D01*
X213926Y304763D01*
X213799Y304626D01*
X213668Y304492D01*
X213534Y304361D01*
X213397Y304234D01*
X213257Y304110D01*
X213114Y303990D01*
X212968Y303873D01*
X212819Y303760D01*
X212668Y303650D01*
X212513Y303544D01*
X212357Y303442D01*
X212197Y303344D01*
X212036Y303250D01*
X211872Y303160D01*
X211706Y303074D01*
X211538Y302992D01*
X211368Y302914D01*
X211196Y302840D01*
X211022Y302771D01*
X210847Y302705D01*
X210670Y302645D01*
X210492Y302588D01*
X210312Y302536D01*
X210132Y302488D01*
X209950Y302445D01*
X209767Y302406D01*
X209583Y302372D01*
X209398Y302342D01*
X209213Y302317D01*
X209027Y302297D01*
X208841Y302281D01*
X208654Y302269D01*
X208467Y302262D01*
X208280Y302260D01*
X208093Y302262D01*
X207906Y302269D01*
X207719Y302281D01*
X207533Y302297D01*
X207347Y302317D01*
X207162Y302342D01*
X206977Y302372D01*
X206793Y302406D01*
X206610Y302445D01*
X206428Y302488D01*
X206248Y302536D01*
X206068Y302588D01*
X205890Y302645D01*
X205713Y302705D01*
X205538Y302771D01*
X205364Y302840D01*
X205192Y302914D01*
X205022Y302992D01*
X204854Y303074D01*
X204688Y303160D01*
X204524Y303250D01*
X204363Y303344D01*
X204203Y303442D01*
X204047Y303544D01*
X203892Y303650D01*
X203741Y303760D01*
X203592Y303873D01*
X203446Y303990D01*
X203303Y304110D01*
X203163Y304234D01*
X203026Y304361D01*
X202892Y304492D01*
X202761Y304626D01*
X202634Y304763D01*
X202510Y304903D01*
X202390Y305046D01*
X202273Y305192D01*
X202160Y305341D01*
X202050Y305492D01*
X201944Y305647D01*
X201842Y305803D01*
X201744Y305963D01*
X201650Y306124D01*
X201560Y306288D01*
X201474Y306454D01*
X201392Y306622D01*
X201314Y306792D01*
X201240Y306964D01*
X201171Y307138D01*
X201105Y307313D01*
X201045Y307490D01*
X200988Y307668D01*
X200936Y307848D01*
X200888Y308028D01*
X200845Y308210D01*
X200806Y308393D01*
X200772Y308577D01*
X200742Y308762D01*
X200717Y308947D01*
X200697Y309133D01*
X200681Y309319D01*
X200669Y309506D01*
X200662Y309693D01*
X200660Y309880D01*
D13*
X249291Y272422D02*
X253104Y276235D01*
X253104Y264795D01*
X249291Y264795D02*
X256918Y264795D01*
X165478Y264795D02*
X157851Y264795D01*
X165478Y272422D01*
X165478Y274328D01*
X163571Y276235D01*
X159758Y276235D01*
X157851Y274328D01*
X249291Y354338D02*
X251198Y356245D01*
X255011Y356245D01*
X256918Y354338D01*
X256918Y352432D01*
X255011Y350525D01*
X253104Y350525D01*
X255011Y350525D02*
X256918Y348618D01*
X256918Y346712D01*
X255011Y344805D01*
X251198Y344805D01*
X249291Y346712D01*
X162301Y344805D02*
X162301Y356245D01*
X156581Y350525D01*
X164208Y350525D01*
D14*
X174625Y248920D03*
X241935Y248920D03*
X174625Y370840D03*
X241935Y370840D03*
D10*
X758190Y331470D02*
X796290Y331470D01*
X796290Y293370D01*
X758190Y293370D01*
X758190Y331470D01*
D12*
X760730Y328930D02*
X793750Y328930D01*
X793750Y295910D01*
X760730Y295910D01*
X760730Y328930D01*
D10*
X767080Y373380D02*
X767080Y377190D01*
X767080Y373380D02*
X787400Y373380D01*
X787400Y377190D02*
X767080Y377190D01*
X787400Y377190D02*
X787400Y373380D01*
X828040Y373380D02*
X838200Y363220D01*
X828040Y373380D02*
X795020Y373380D01*
X838200Y363220D02*
X838200Y350520D01*
X838200Y323850D02*
X838200Y300990D01*
X838200Y261620D02*
X828040Y251460D01*
X838200Y261620D02*
X838200Y274320D01*
X716280Y300990D02*
X716280Y323850D01*
X716280Y274320D02*
X716280Y261620D01*
X726440Y251460D01*
X759460Y251460D01*
X759460Y373380D02*
X726440Y373380D01*
X716280Y363220D01*
X716280Y350520D01*
X767080Y247650D02*
X787400Y247650D01*
X767080Y247650D02*
X767080Y251460D01*
X787400Y251460D02*
X787400Y247650D01*
X828040Y373380D02*
X825500Y375920D01*
X795020Y375920D01*
X795020Y373380D01*
X787400Y373380D01*
X759460Y373380D02*
X759460Y375920D01*
X759460Y373380D02*
X767080Y373380D01*
X759460Y375920D02*
X728980Y375920D01*
X726440Y373380D01*
X767080Y251460D02*
X787400Y251460D01*
X795020Y251460D01*
X759460Y251460D02*
X759460Y248920D01*
X759460Y251460D02*
X767080Y251460D01*
X759460Y248920D02*
X728980Y248920D01*
X726440Y251460D01*
X795020Y251460D02*
X795020Y248920D01*
X795020Y251460D02*
X828040Y251460D01*
X825500Y248920D02*
X795020Y248920D01*
X825500Y248920D02*
X828040Y251460D01*
X741680Y312420D02*
X741691Y313293D01*
X741723Y314165D01*
X741776Y315036D01*
X741851Y315905D01*
X741947Y316773D01*
X742065Y317638D01*
X742204Y318499D01*
X742363Y319357D01*
X742544Y320211D01*
X742746Y321060D01*
X742968Y321904D01*
X743211Y322743D01*
X743475Y323575D01*
X743759Y324400D01*
X744063Y325218D01*
X744387Y326028D01*
X744731Y326830D01*
X745094Y327624D01*
X745477Y328408D01*
X745879Y329183D01*
X746300Y329947D01*
X746739Y330701D01*
X747197Y331445D01*
X747673Y332176D01*
X748167Y332896D01*
X748678Y333603D01*
X749206Y334298D01*
X749752Y334979D01*
X750314Y335647D01*
X750892Y336301D01*
X751486Y336940D01*
X752095Y337565D01*
X752720Y338174D01*
X753359Y338768D01*
X754013Y339346D01*
X754681Y339908D01*
X755362Y340454D01*
X756057Y340982D01*
X756764Y341493D01*
X757484Y341987D01*
X758215Y342463D01*
X758959Y342921D01*
X759713Y343360D01*
X760477Y343781D01*
X761252Y344183D01*
X762036Y344566D01*
X762830Y344929D01*
X763632Y345273D01*
X764442Y345597D01*
X765260Y345901D01*
X766085Y346185D01*
X766917Y346449D01*
X767756Y346692D01*
X768600Y346914D01*
X769449Y347116D01*
X770303Y347297D01*
X771161Y347456D01*
X772022Y347595D01*
X772887Y347713D01*
X773755Y347809D01*
X774624Y347884D01*
X775495Y347937D01*
X776367Y347969D01*
X777240Y347980D01*
X778113Y347969D01*
X778985Y347937D01*
X779856Y347884D01*
X780725Y347809D01*
X781593Y347713D01*
X782458Y347595D01*
X783319Y347456D01*
X784177Y347297D01*
X785031Y347116D01*
X785880Y346914D01*
X786724Y346692D01*
X787563Y346449D01*
X788395Y346185D01*
X789220Y345901D01*
X790038Y345597D01*
X790848Y345273D01*
X791650Y344929D01*
X792444Y344566D01*
X793228Y344183D01*
X794003Y343781D01*
X794767Y343360D01*
X795521Y342921D01*
X796265Y342463D01*
X796996Y341987D01*
X797716Y341493D01*
X798423Y340982D01*
X799118Y340454D01*
X799799Y339908D01*
X800467Y339346D01*
X801121Y338768D01*
X801760Y338174D01*
X802385Y337565D01*
X802994Y336940D01*
X803588Y336301D01*
X804166Y335647D01*
X804728Y334979D01*
X805274Y334298D01*
X805802Y333603D01*
X806313Y332896D01*
X806807Y332176D01*
X807283Y331445D01*
X807741Y330701D01*
X808180Y329947D01*
X808601Y329183D01*
X809003Y328408D01*
X809386Y327624D01*
X809749Y326830D01*
X810093Y326028D01*
X810417Y325218D01*
X810721Y324400D01*
X811005Y323575D01*
X811269Y322743D01*
X811512Y321904D01*
X811734Y321060D01*
X811936Y320211D01*
X812117Y319357D01*
X812276Y318499D01*
X812415Y317638D01*
X812533Y316773D01*
X812629Y315905D01*
X812704Y315036D01*
X812757Y314165D01*
X812789Y313293D01*
X812800Y312420D01*
X812789Y311547D01*
X812757Y310675D01*
X812704Y309804D01*
X812629Y308935D01*
X812533Y308067D01*
X812415Y307202D01*
X812276Y306341D01*
X812117Y305483D01*
X811936Y304629D01*
X811734Y303780D01*
X811512Y302936D01*
X811269Y302097D01*
X811005Y301265D01*
X810721Y300440D01*
X810417Y299622D01*
X810093Y298812D01*
X809749Y298010D01*
X809386Y297216D01*
X809003Y296432D01*
X808601Y295657D01*
X808180Y294893D01*
X807741Y294139D01*
X807283Y293395D01*
X806807Y292664D01*
X806313Y291944D01*
X805802Y291237D01*
X805274Y290542D01*
X804728Y289861D01*
X804166Y289193D01*
X803588Y288539D01*
X802994Y287900D01*
X802385Y287275D01*
X801760Y286666D01*
X801121Y286072D01*
X800467Y285494D01*
X799799Y284932D01*
X799118Y284386D01*
X798423Y283858D01*
X797716Y283347D01*
X796996Y282853D01*
X796265Y282377D01*
X795521Y281919D01*
X794767Y281480D01*
X794003Y281059D01*
X793228Y280657D01*
X792444Y280274D01*
X791650Y279911D01*
X790848Y279567D01*
X790038Y279243D01*
X789220Y278939D01*
X788395Y278655D01*
X787563Y278391D01*
X786724Y278148D01*
X785880Y277926D01*
X785031Y277724D01*
X784177Y277543D01*
X783319Y277384D01*
X782458Y277245D01*
X781593Y277127D01*
X780725Y277031D01*
X779856Y276956D01*
X778985Y276903D01*
X778113Y276871D01*
X777240Y276860D01*
X776367Y276871D01*
X775495Y276903D01*
X774624Y276956D01*
X773755Y277031D01*
X772887Y277127D01*
X772022Y277245D01*
X771161Y277384D01*
X770303Y277543D01*
X769449Y277724D01*
X768600Y277926D01*
X767756Y278148D01*
X766917Y278391D01*
X766085Y278655D01*
X765260Y278939D01*
X764442Y279243D01*
X763632Y279567D01*
X762830Y279911D01*
X762036Y280274D01*
X761252Y280657D01*
X760477Y281059D01*
X759713Y281480D01*
X758959Y281919D01*
X758215Y282377D01*
X757484Y282853D01*
X756764Y283347D01*
X756057Y283858D01*
X755362Y284386D01*
X754681Y284932D01*
X754013Y285494D01*
X753359Y286072D01*
X752720Y286666D01*
X752095Y287275D01*
X751486Y287900D01*
X750892Y288539D01*
X750314Y289193D01*
X749752Y289861D01*
X749206Y290542D01*
X748678Y291237D01*
X748167Y291944D01*
X747673Y292664D01*
X747197Y293395D01*
X746739Y294139D01*
X746300Y294893D01*
X745879Y295657D01*
X745477Y296432D01*
X745094Y297216D01*
X744731Y298010D01*
X744387Y298812D01*
X744063Y299622D01*
X743759Y300440D01*
X743475Y301265D01*
X743211Y302097D01*
X742968Y302936D01*
X742746Y303780D01*
X742544Y304629D01*
X742363Y305483D01*
X742204Y306341D01*
X742065Y307202D01*
X741947Y308067D01*
X741851Y308935D01*
X741776Y309804D01*
X741723Y310675D01*
X741691Y311547D01*
X741680Y312420D01*
D12*
X767080Y312420D02*
X767083Y312669D01*
X767092Y312919D01*
X767108Y313167D01*
X767129Y313416D01*
X767156Y313664D01*
X767190Y313911D01*
X767230Y314157D01*
X767275Y314402D01*
X767327Y314646D01*
X767384Y314889D01*
X767448Y315130D01*
X767517Y315369D01*
X767593Y315607D01*
X767674Y315843D01*
X767761Y316077D01*
X767853Y316308D01*
X767952Y316537D01*
X768055Y316764D01*
X768165Y316988D01*
X768280Y317209D01*
X768400Y317428D01*
X768525Y317643D01*
X768656Y317856D01*
X768792Y318065D01*
X768933Y318270D01*
X769079Y318472D01*
X769230Y318671D01*
X769386Y318865D01*
X769547Y319056D01*
X769712Y319243D01*
X769882Y319426D01*
X770056Y319604D01*
X770234Y319778D01*
X770417Y319948D01*
X770604Y320113D01*
X770795Y320274D01*
X770989Y320430D01*
X771188Y320581D01*
X771390Y320727D01*
X771595Y320868D01*
X771804Y321004D01*
X772017Y321135D01*
X772232Y321260D01*
X772451Y321380D01*
X772672Y321495D01*
X772896Y321605D01*
X773123Y321708D01*
X773352Y321807D01*
X773583Y321899D01*
X773817Y321986D01*
X774053Y322067D01*
X774291Y322143D01*
X774530Y322212D01*
X774771Y322276D01*
X775014Y322333D01*
X775258Y322385D01*
X775503Y322430D01*
X775749Y322470D01*
X775996Y322504D01*
X776244Y322531D01*
X776493Y322552D01*
X776741Y322568D01*
X776991Y322577D01*
X777240Y322580D01*
X777489Y322577D01*
X777739Y322568D01*
X777987Y322552D01*
X778236Y322531D01*
X778484Y322504D01*
X778731Y322470D01*
X778977Y322430D01*
X779222Y322385D01*
X779466Y322333D01*
X779709Y322276D01*
X779950Y322212D01*
X780189Y322143D01*
X780427Y322067D01*
X780663Y321986D01*
X780897Y321899D01*
X781128Y321807D01*
X781357Y321708D01*
X781584Y321605D01*
X781808Y321495D01*
X782029Y321380D01*
X782248Y321260D01*
X782463Y321135D01*
X782676Y321004D01*
X782885Y320868D01*
X783090Y320727D01*
X783292Y320581D01*
X783491Y320430D01*
X783685Y320274D01*
X783876Y320113D01*
X784063Y319948D01*
X784246Y319778D01*
X784424Y319604D01*
X784598Y319426D01*
X784768Y319243D01*
X784933Y319056D01*
X785094Y318865D01*
X785250Y318671D01*
X785401Y318472D01*
X785547Y318270D01*
X785688Y318065D01*
X785824Y317856D01*
X785955Y317643D01*
X786080Y317428D01*
X786200Y317209D01*
X786315Y316988D01*
X786425Y316764D01*
X786528Y316537D01*
X786627Y316308D01*
X786719Y316077D01*
X786806Y315843D01*
X786887Y315607D01*
X786963Y315369D01*
X787032Y315130D01*
X787096Y314889D01*
X787153Y314646D01*
X787205Y314402D01*
X787250Y314157D01*
X787290Y313911D01*
X787324Y313664D01*
X787351Y313416D01*
X787372Y313167D01*
X787388Y312919D01*
X787397Y312669D01*
X787400Y312420D01*
X787397Y312171D01*
X787388Y311921D01*
X787372Y311673D01*
X787351Y311424D01*
X787324Y311176D01*
X787290Y310929D01*
X787250Y310683D01*
X787205Y310438D01*
X787153Y310194D01*
X787096Y309951D01*
X787032Y309710D01*
X786963Y309471D01*
X786887Y309233D01*
X786806Y308997D01*
X786719Y308763D01*
X786627Y308532D01*
X786528Y308303D01*
X786425Y308076D01*
X786315Y307852D01*
X786200Y307631D01*
X786080Y307412D01*
X785955Y307197D01*
X785824Y306984D01*
X785688Y306775D01*
X785547Y306570D01*
X785401Y306368D01*
X785250Y306169D01*
X785094Y305975D01*
X784933Y305784D01*
X784768Y305597D01*
X784598Y305414D01*
X784424Y305236D01*
X784246Y305062D01*
X784063Y304892D01*
X783876Y304727D01*
X783685Y304566D01*
X783491Y304410D01*
X783292Y304259D01*
X783090Y304113D01*
X782885Y303972D01*
X782676Y303836D01*
X782463Y303705D01*
X782248Y303580D01*
X782029Y303460D01*
X781808Y303345D01*
X781584Y303235D01*
X781357Y303132D01*
X781128Y303033D01*
X780897Y302941D01*
X780663Y302854D01*
X780427Y302773D01*
X780189Y302697D01*
X779950Y302628D01*
X779709Y302564D01*
X779466Y302507D01*
X779222Y302455D01*
X778977Y302410D01*
X778731Y302370D01*
X778484Y302336D01*
X778236Y302309D01*
X777987Y302288D01*
X777739Y302272D01*
X777489Y302263D01*
X777240Y302260D01*
X776991Y302263D01*
X776741Y302272D01*
X776493Y302288D01*
X776244Y302309D01*
X775996Y302336D01*
X775749Y302370D01*
X775503Y302410D01*
X775258Y302455D01*
X775014Y302507D01*
X774771Y302564D01*
X774530Y302628D01*
X774291Y302697D01*
X774053Y302773D01*
X773817Y302854D01*
X773583Y302941D01*
X773352Y303033D01*
X773123Y303132D01*
X772896Y303235D01*
X772672Y303345D01*
X772451Y303460D01*
X772232Y303580D01*
X772017Y303705D01*
X771804Y303836D01*
X771595Y303972D01*
X771390Y304113D01*
X771188Y304259D01*
X770989Y304410D01*
X770795Y304566D01*
X770604Y304727D01*
X770417Y304892D01*
X770234Y305062D01*
X770056Y305236D01*
X769882Y305414D01*
X769712Y305597D01*
X769547Y305784D01*
X769386Y305975D01*
X769230Y306169D01*
X769079Y306368D01*
X768933Y306570D01*
X768792Y306775D01*
X768656Y306984D01*
X768525Y307197D01*
X768400Y307412D01*
X768280Y307631D01*
X768165Y307852D01*
X768055Y308076D01*
X767952Y308303D01*
X767853Y308532D01*
X767761Y308763D01*
X767674Y308997D01*
X767593Y309233D01*
X767517Y309471D01*
X767448Y309710D01*
X767384Y309951D01*
X767327Y310194D01*
X767275Y310438D01*
X767230Y310683D01*
X767190Y310929D01*
X767156Y311176D01*
X767129Y311424D01*
X767108Y311673D01*
X767092Y311921D01*
X767083Y312171D01*
X767080Y312420D01*
X769620Y312420D02*
X769622Y312607D01*
X769629Y312794D01*
X769641Y312981D01*
X769657Y313167D01*
X769677Y313353D01*
X769702Y313538D01*
X769732Y313723D01*
X769766Y313907D01*
X769805Y314090D01*
X769848Y314272D01*
X769896Y314452D01*
X769948Y314632D01*
X770005Y314810D01*
X770065Y314987D01*
X770131Y315162D01*
X770200Y315336D01*
X770274Y315508D01*
X770352Y315678D01*
X770434Y315846D01*
X770520Y316012D01*
X770610Y316176D01*
X770704Y316337D01*
X770802Y316497D01*
X770904Y316653D01*
X771010Y316808D01*
X771120Y316959D01*
X771233Y317108D01*
X771350Y317254D01*
X771470Y317397D01*
X771594Y317537D01*
X771721Y317674D01*
X771852Y317808D01*
X771986Y317939D01*
X772123Y318066D01*
X772263Y318190D01*
X772406Y318310D01*
X772552Y318427D01*
X772701Y318540D01*
X772852Y318650D01*
X773007Y318756D01*
X773163Y318858D01*
X773323Y318956D01*
X773484Y319050D01*
X773648Y319140D01*
X773814Y319226D01*
X773982Y319308D01*
X774152Y319386D01*
X774324Y319460D01*
X774498Y319529D01*
X774673Y319595D01*
X774850Y319655D01*
X775028Y319712D01*
X775208Y319764D01*
X775388Y319812D01*
X775570Y319855D01*
X775753Y319894D01*
X775937Y319928D01*
X776122Y319958D01*
X776307Y319983D01*
X776493Y320003D01*
X776679Y320019D01*
X776866Y320031D01*
X777053Y320038D01*
X777240Y320040D01*
X777427Y320038D01*
X777614Y320031D01*
X777801Y320019D01*
X777987Y320003D01*
X778173Y319983D01*
X778358Y319958D01*
X778543Y319928D01*
X778727Y319894D01*
X778910Y319855D01*
X779092Y319812D01*
X779272Y319764D01*
X779452Y319712D01*
X779630Y319655D01*
X779807Y319595D01*
X779982Y319529D01*
X780156Y319460D01*
X780328Y319386D01*
X780498Y319308D01*
X780666Y319226D01*
X780832Y319140D01*
X780996Y319050D01*
X781157Y318956D01*
X781317Y318858D01*
X781473Y318756D01*
X781628Y318650D01*
X781779Y318540D01*
X781928Y318427D01*
X782074Y318310D01*
X782217Y318190D01*
X782357Y318066D01*
X782494Y317939D01*
X782628Y317808D01*
X782759Y317674D01*
X782886Y317537D01*
X783010Y317397D01*
X783130Y317254D01*
X783247Y317108D01*
X783360Y316959D01*
X783470Y316808D01*
X783576Y316653D01*
X783678Y316497D01*
X783776Y316337D01*
X783870Y316176D01*
X783960Y316012D01*
X784046Y315846D01*
X784128Y315678D01*
X784206Y315508D01*
X784280Y315336D01*
X784349Y315162D01*
X784415Y314987D01*
X784475Y314810D01*
X784532Y314632D01*
X784584Y314452D01*
X784632Y314272D01*
X784675Y314090D01*
X784714Y313907D01*
X784748Y313723D01*
X784778Y313538D01*
X784803Y313353D01*
X784823Y313167D01*
X784839Y312981D01*
X784851Y312794D01*
X784858Y312607D01*
X784860Y312420D01*
X784858Y312233D01*
X784851Y312046D01*
X784839Y311859D01*
X784823Y311673D01*
X784803Y311487D01*
X784778Y311302D01*
X784748Y311117D01*
X784714Y310933D01*
X784675Y310750D01*
X784632Y310568D01*
X784584Y310388D01*
X784532Y310208D01*
X784475Y310030D01*
X784415Y309853D01*
X784349Y309678D01*
X784280Y309504D01*
X784206Y309332D01*
X784128Y309162D01*
X784046Y308994D01*
X783960Y308828D01*
X783870Y308664D01*
X783776Y308503D01*
X783678Y308343D01*
X783576Y308187D01*
X783470Y308032D01*
X783360Y307881D01*
X783247Y307732D01*
X783130Y307586D01*
X783010Y307443D01*
X782886Y307303D01*
X782759Y307166D01*
X782628Y307032D01*
X782494Y306901D01*
X782357Y306774D01*
X782217Y306650D01*
X782074Y306530D01*
X781928Y306413D01*
X781779Y306300D01*
X781628Y306190D01*
X781473Y306084D01*
X781317Y305982D01*
X781157Y305884D01*
X780996Y305790D01*
X780832Y305700D01*
X780666Y305614D01*
X780498Y305532D01*
X780328Y305454D01*
X780156Y305380D01*
X779982Y305311D01*
X779807Y305245D01*
X779630Y305185D01*
X779452Y305128D01*
X779272Y305076D01*
X779092Y305028D01*
X778910Y304985D01*
X778727Y304946D01*
X778543Y304912D01*
X778358Y304882D01*
X778173Y304857D01*
X777987Y304837D01*
X777801Y304821D01*
X777614Y304809D01*
X777427Y304802D01*
X777240Y304800D01*
X777053Y304802D01*
X776866Y304809D01*
X776679Y304821D01*
X776493Y304837D01*
X776307Y304857D01*
X776122Y304882D01*
X775937Y304912D01*
X775753Y304946D01*
X775570Y304985D01*
X775388Y305028D01*
X775208Y305076D01*
X775028Y305128D01*
X774850Y305185D01*
X774673Y305245D01*
X774498Y305311D01*
X774324Y305380D01*
X774152Y305454D01*
X773982Y305532D01*
X773814Y305614D01*
X773648Y305700D01*
X773484Y305790D01*
X773323Y305884D01*
X773163Y305982D01*
X773007Y306084D01*
X772852Y306190D01*
X772701Y306300D01*
X772552Y306413D01*
X772406Y306530D01*
X772263Y306650D01*
X772123Y306774D01*
X771986Y306901D01*
X771852Y307032D01*
X771721Y307166D01*
X771594Y307303D01*
X771470Y307443D01*
X771350Y307586D01*
X771233Y307732D01*
X771120Y307881D01*
X771010Y308032D01*
X770904Y308187D01*
X770802Y308343D01*
X770704Y308503D01*
X770610Y308664D01*
X770520Y308828D01*
X770434Y308994D01*
X770352Y309162D01*
X770274Y309332D01*
X770200Y309504D01*
X770131Y309678D01*
X770065Y309853D01*
X770005Y310030D01*
X769948Y310208D01*
X769896Y310388D01*
X769848Y310568D01*
X769805Y310750D01*
X769766Y310933D01*
X769732Y311117D01*
X769702Y311302D01*
X769677Y311487D01*
X769657Y311673D01*
X769641Y311859D01*
X769629Y312046D01*
X769622Y312233D01*
X769620Y312420D01*
D13*
X725805Y353702D02*
X729618Y357515D01*
X729618Y346075D01*
X725805Y346075D02*
X733432Y346075D01*
X817245Y346075D02*
X824872Y346075D01*
X817245Y346075D02*
X824872Y353702D01*
X824872Y355608D01*
X822965Y357515D01*
X819152Y357515D01*
X817245Y355608D01*
X727712Y277505D02*
X725805Y275598D01*
X727712Y277505D02*
X731525Y277505D01*
X733432Y275598D01*
X733432Y273692D01*
X731525Y271785D01*
X729618Y271785D01*
X731525Y271785D02*
X733432Y269878D01*
X733432Y267972D01*
X731525Y266065D01*
X727712Y266065D01*
X725805Y267972D01*
X824235Y266065D02*
X824235Y277505D01*
X818515Y271785D01*
X826142Y271785D01*
D14*
X810895Y373380D03*
X743585Y373380D03*
X810895Y251460D03*
X743585Y251460D03*
D11*
X915670Y251460D02*
X922020Y245110D01*
X915670Y251460D02*
X902970Y251460D01*
X896620Y245110D01*
X896620Y232410D01*
X902970Y226060D01*
X915670Y226060D01*
X922020Y232410D01*
X922020Y245110D01*
X88900Y133350D02*
X82550Y139700D01*
X69850Y139700D01*
X63500Y133350D01*
X63500Y120650D01*
X69850Y114300D01*
X82550Y114300D01*
X88900Y120650D01*
X88900Y133350D01*
D10*
X189230Y156210D02*
X227330Y156210D01*
X189230Y156210D02*
X189230Y194310D01*
X227330Y194310D01*
X227330Y156210D01*
D12*
X224790Y158750D02*
X191770Y158750D01*
X191770Y191770D01*
X224790Y191770D01*
X224790Y158750D01*
D10*
X218440Y114300D02*
X218440Y110490D01*
X218440Y114300D02*
X198120Y114300D01*
X198120Y110490D02*
X218440Y110490D01*
X198120Y110490D02*
X198120Y114300D01*
X157480Y114300D02*
X147320Y124460D01*
X157480Y114300D02*
X190500Y114300D01*
X147320Y124460D02*
X147320Y137160D01*
X147320Y163830D02*
X147320Y186690D01*
X147320Y226060D02*
X157480Y236220D01*
X147320Y226060D02*
X147320Y213360D01*
X269240Y186690D02*
X269240Y163830D01*
X269240Y213360D02*
X269240Y226060D01*
X259080Y236220D01*
X226060Y236220D01*
X226060Y114300D02*
X259080Y114300D01*
X269240Y124460D01*
X269240Y137160D01*
X218440Y240030D02*
X198120Y240030D01*
X218440Y240030D02*
X218440Y236220D01*
X198120Y236220D02*
X198120Y240030D01*
X157480Y114300D02*
X160020Y111760D01*
X190500Y111760D01*
X190500Y114300D01*
X198120Y114300D01*
X226060Y114300D02*
X226060Y111760D01*
X226060Y114300D02*
X218440Y114300D01*
X226060Y111760D02*
X256540Y111760D01*
X259080Y114300D01*
X218440Y236220D02*
X198120Y236220D01*
X190500Y236220D01*
X226060Y236220D02*
X226060Y238760D01*
X226060Y236220D02*
X218440Y236220D01*
X226060Y238760D02*
X256540Y238760D01*
X259080Y236220D01*
X190500Y236220D02*
X190500Y238760D01*
X190500Y236220D02*
X157480Y236220D01*
X160020Y238760D02*
X190500Y238760D01*
X160020Y238760D02*
X157480Y236220D01*
X172720Y175260D02*
X172731Y176133D01*
X172763Y177005D01*
X172816Y177876D01*
X172891Y178745D01*
X172987Y179613D01*
X173105Y180478D01*
X173244Y181339D01*
X173403Y182197D01*
X173584Y183051D01*
X173786Y183900D01*
X174008Y184744D01*
X174251Y185583D01*
X174515Y186415D01*
X174799Y187240D01*
X175103Y188058D01*
X175427Y188868D01*
X175771Y189670D01*
X176134Y190464D01*
X176517Y191248D01*
X176919Y192023D01*
X177340Y192787D01*
X177779Y193541D01*
X178237Y194285D01*
X178713Y195016D01*
X179207Y195736D01*
X179718Y196443D01*
X180246Y197138D01*
X180792Y197819D01*
X181354Y198487D01*
X181932Y199141D01*
X182526Y199780D01*
X183135Y200405D01*
X183760Y201014D01*
X184399Y201608D01*
X185053Y202186D01*
X185721Y202748D01*
X186402Y203294D01*
X187097Y203822D01*
X187804Y204333D01*
X188524Y204827D01*
X189255Y205303D01*
X189999Y205761D01*
X190753Y206200D01*
X191517Y206621D01*
X192292Y207023D01*
X193076Y207406D01*
X193870Y207769D01*
X194672Y208113D01*
X195482Y208437D01*
X196300Y208741D01*
X197125Y209025D01*
X197957Y209289D01*
X198796Y209532D01*
X199640Y209754D01*
X200489Y209956D01*
X201343Y210137D01*
X202201Y210296D01*
X203062Y210435D01*
X203927Y210553D01*
X204795Y210649D01*
X205664Y210724D01*
X206535Y210777D01*
X207407Y210809D01*
X208280Y210820D01*
X209153Y210809D01*
X210025Y210777D01*
X210896Y210724D01*
X211765Y210649D01*
X212633Y210553D01*
X213498Y210435D01*
X214359Y210296D01*
X215217Y210137D01*
X216071Y209956D01*
X216920Y209754D01*
X217764Y209532D01*
X218603Y209289D01*
X219435Y209025D01*
X220260Y208741D01*
X221078Y208437D01*
X221888Y208113D01*
X222690Y207769D01*
X223484Y207406D01*
X224268Y207023D01*
X225043Y206621D01*
X225807Y206200D01*
X226561Y205761D01*
X227305Y205303D01*
X228036Y204827D01*
X228756Y204333D01*
X229463Y203822D01*
X230158Y203294D01*
X230839Y202748D01*
X231507Y202186D01*
X232161Y201608D01*
X232800Y201014D01*
X233425Y200405D01*
X234034Y199780D01*
X234628Y199141D01*
X235206Y198487D01*
X235768Y197819D01*
X236314Y197138D01*
X236842Y196443D01*
X237353Y195736D01*
X237847Y195016D01*
X238323Y194285D01*
X238781Y193541D01*
X239220Y192787D01*
X239641Y192023D01*
X240043Y191248D01*
X240426Y190464D01*
X240789Y189670D01*
X241133Y188868D01*
X241457Y188058D01*
X241761Y187240D01*
X242045Y186415D01*
X242309Y185583D01*
X242552Y184744D01*
X242774Y183900D01*
X242976Y183051D01*
X243157Y182197D01*
X243316Y181339D01*
X243455Y180478D01*
X243573Y179613D01*
X243669Y178745D01*
X243744Y177876D01*
X243797Y177005D01*
X243829Y176133D01*
X243840Y175260D01*
X243829Y174387D01*
X243797Y173515D01*
X243744Y172644D01*
X243669Y171775D01*
X243573Y170907D01*
X243455Y170042D01*
X243316Y169181D01*
X243157Y168323D01*
X242976Y167469D01*
X242774Y166620D01*
X242552Y165776D01*
X242309Y164937D01*
X242045Y164105D01*
X241761Y163280D01*
X241457Y162462D01*
X241133Y161652D01*
X240789Y160850D01*
X240426Y160056D01*
X240043Y159272D01*
X239641Y158497D01*
X239220Y157733D01*
X238781Y156979D01*
X238323Y156235D01*
X237847Y155504D01*
X237353Y154784D01*
X236842Y154077D01*
X236314Y153382D01*
X235768Y152701D01*
X235206Y152033D01*
X234628Y151379D01*
X234034Y150740D01*
X233425Y150115D01*
X232800Y149506D01*
X232161Y148912D01*
X231507Y148334D01*
X230839Y147772D01*
X230158Y147226D01*
X229463Y146698D01*
X228756Y146187D01*
X228036Y145693D01*
X227305Y145217D01*
X226561Y144759D01*
X225807Y144320D01*
X225043Y143899D01*
X224268Y143497D01*
X223484Y143114D01*
X222690Y142751D01*
X221888Y142407D01*
X221078Y142083D01*
X220260Y141779D01*
X219435Y141495D01*
X218603Y141231D01*
X217764Y140988D01*
X216920Y140766D01*
X216071Y140564D01*
X215217Y140383D01*
X214359Y140224D01*
X213498Y140085D01*
X212633Y139967D01*
X211765Y139871D01*
X210896Y139796D01*
X210025Y139743D01*
X209153Y139711D01*
X208280Y139700D01*
X207407Y139711D01*
X206535Y139743D01*
X205664Y139796D01*
X204795Y139871D01*
X203927Y139967D01*
X203062Y140085D01*
X202201Y140224D01*
X201343Y140383D01*
X200489Y140564D01*
X199640Y140766D01*
X198796Y140988D01*
X197957Y141231D01*
X197125Y141495D01*
X196300Y141779D01*
X195482Y142083D01*
X194672Y142407D01*
X193870Y142751D01*
X193076Y143114D01*
X192292Y143497D01*
X191517Y143899D01*
X190753Y144320D01*
X189999Y144759D01*
X189255Y145217D01*
X188524Y145693D01*
X187804Y146187D01*
X187097Y146698D01*
X186402Y147226D01*
X185721Y147772D01*
X185053Y148334D01*
X184399Y148912D01*
X183760Y149506D01*
X183135Y150115D01*
X182526Y150740D01*
X181932Y151379D01*
X181354Y152033D01*
X180792Y152701D01*
X180246Y153382D01*
X179718Y154077D01*
X179207Y154784D01*
X178713Y155504D01*
X178237Y156235D01*
X177779Y156979D01*
X177340Y157733D01*
X176919Y158497D01*
X176517Y159272D01*
X176134Y160056D01*
X175771Y160850D01*
X175427Y161652D01*
X175103Y162462D01*
X174799Y163280D01*
X174515Y164105D01*
X174251Y164937D01*
X174008Y165776D01*
X173786Y166620D01*
X173584Y167469D01*
X173403Y168323D01*
X173244Y169181D01*
X173105Y170042D01*
X172987Y170907D01*
X172891Y171775D01*
X172816Y172644D01*
X172763Y173515D01*
X172731Y174387D01*
X172720Y175260D01*
D12*
X198120Y175260D02*
X198123Y175509D01*
X198132Y175759D01*
X198148Y176007D01*
X198169Y176256D01*
X198196Y176504D01*
X198230Y176751D01*
X198270Y176997D01*
X198315Y177242D01*
X198367Y177486D01*
X198424Y177729D01*
X198488Y177970D01*
X198557Y178209D01*
X198633Y178447D01*
X198714Y178683D01*
X198801Y178917D01*
X198893Y179148D01*
X198992Y179377D01*
X199095Y179604D01*
X199205Y179828D01*
X199320Y180049D01*
X199440Y180268D01*
X199565Y180483D01*
X199696Y180696D01*
X199832Y180905D01*
X199973Y181110D01*
X200119Y181312D01*
X200270Y181511D01*
X200426Y181705D01*
X200587Y181896D01*
X200752Y182083D01*
X200922Y182266D01*
X201096Y182444D01*
X201274Y182618D01*
X201457Y182788D01*
X201644Y182953D01*
X201835Y183114D01*
X202029Y183270D01*
X202228Y183421D01*
X202430Y183567D01*
X202635Y183708D01*
X202844Y183844D01*
X203057Y183975D01*
X203272Y184100D01*
X203491Y184220D01*
X203712Y184335D01*
X203936Y184445D01*
X204163Y184548D01*
X204392Y184647D01*
X204623Y184739D01*
X204857Y184826D01*
X205093Y184907D01*
X205331Y184983D01*
X205570Y185052D01*
X205811Y185116D01*
X206054Y185173D01*
X206298Y185225D01*
X206543Y185270D01*
X206789Y185310D01*
X207036Y185344D01*
X207284Y185371D01*
X207533Y185392D01*
X207781Y185408D01*
X208031Y185417D01*
X208280Y185420D01*
X208529Y185417D01*
X208779Y185408D01*
X209027Y185392D01*
X209276Y185371D01*
X209524Y185344D01*
X209771Y185310D01*
X210017Y185270D01*
X210262Y185225D01*
X210506Y185173D01*
X210749Y185116D01*
X210990Y185052D01*
X211229Y184983D01*
X211467Y184907D01*
X211703Y184826D01*
X211937Y184739D01*
X212168Y184647D01*
X212397Y184548D01*
X212624Y184445D01*
X212848Y184335D01*
X213069Y184220D01*
X213288Y184100D01*
X213503Y183975D01*
X213716Y183844D01*
X213925Y183708D01*
X214130Y183567D01*
X214332Y183421D01*
X214531Y183270D01*
X214725Y183114D01*
X214916Y182953D01*
X215103Y182788D01*
X215286Y182618D01*
X215464Y182444D01*
X215638Y182266D01*
X215808Y182083D01*
X215973Y181896D01*
X216134Y181705D01*
X216290Y181511D01*
X216441Y181312D01*
X216587Y181110D01*
X216728Y180905D01*
X216864Y180696D01*
X216995Y180483D01*
X217120Y180268D01*
X217240Y180049D01*
X217355Y179828D01*
X217465Y179604D01*
X217568Y179377D01*
X217667Y179148D01*
X217759Y178917D01*
X217846Y178683D01*
X217927Y178447D01*
X218003Y178209D01*
X218072Y177970D01*
X218136Y177729D01*
X218193Y177486D01*
X218245Y177242D01*
X218290Y176997D01*
X218330Y176751D01*
X218364Y176504D01*
X218391Y176256D01*
X218412Y176007D01*
X218428Y175759D01*
X218437Y175509D01*
X218440Y175260D01*
X218437Y175011D01*
X218428Y174761D01*
X218412Y174513D01*
X218391Y174264D01*
X218364Y174016D01*
X218330Y173769D01*
X218290Y173523D01*
X218245Y173278D01*
X218193Y173034D01*
X218136Y172791D01*
X218072Y172550D01*
X218003Y172311D01*
X217927Y172073D01*
X217846Y171837D01*
X217759Y171603D01*
X217667Y171372D01*
X217568Y171143D01*
X217465Y170916D01*
X217355Y170692D01*
X217240Y170471D01*
X217120Y170252D01*
X216995Y170037D01*
X216864Y169824D01*
X216728Y169615D01*
X216587Y169410D01*
X216441Y169208D01*
X216290Y169009D01*
X216134Y168815D01*
X215973Y168624D01*
X215808Y168437D01*
X215638Y168254D01*
X215464Y168076D01*
X215286Y167902D01*
X215103Y167732D01*
X214916Y167567D01*
X214725Y167406D01*
X214531Y167250D01*
X214332Y167099D01*
X214130Y166953D01*
X213925Y166812D01*
X213716Y166676D01*
X213503Y166545D01*
X213288Y166420D01*
X213069Y166300D01*
X212848Y166185D01*
X212624Y166075D01*
X212397Y165972D01*
X212168Y165873D01*
X211937Y165781D01*
X211703Y165694D01*
X211467Y165613D01*
X211229Y165537D01*
X210990Y165468D01*
X210749Y165404D01*
X210506Y165347D01*
X210262Y165295D01*
X210017Y165250D01*
X209771Y165210D01*
X209524Y165176D01*
X209276Y165149D01*
X209027Y165128D01*
X208779Y165112D01*
X208529Y165103D01*
X208280Y165100D01*
X208031Y165103D01*
X207781Y165112D01*
X207533Y165128D01*
X207284Y165149D01*
X207036Y165176D01*
X206789Y165210D01*
X206543Y165250D01*
X206298Y165295D01*
X206054Y165347D01*
X205811Y165404D01*
X205570Y165468D01*
X205331Y165537D01*
X205093Y165613D01*
X204857Y165694D01*
X204623Y165781D01*
X204392Y165873D01*
X204163Y165972D01*
X203936Y166075D01*
X203712Y166185D01*
X203491Y166300D01*
X203272Y166420D01*
X203057Y166545D01*
X202844Y166676D01*
X202635Y166812D01*
X202430Y166953D01*
X202228Y167099D01*
X202029Y167250D01*
X201835Y167406D01*
X201644Y167567D01*
X201457Y167732D01*
X201274Y167902D01*
X201096Y168076D01*
X200922Y168254D01*
X200752Y168437D01*
X200587Y168624D01*
X200426Y168815D01*
X200270Y169009D01*
X200119Y169208D01*
X199973Y169410D01*
X199832Y169615D01*
X199696Y169824D01*
X199565Y170037D01*
X199440Y170252D01*
X199320Y170471D01*
X199205Y170692D01*
X199095Y170916D01*
X198992Y171143D01*
X198893Y171372D01*
X198801Y171603D01*
X198714Y171837D01*
X198633Y172073D01*
X198557Y172311D01*
X198488Y172550D01*
X198424Y172791D01*
X198367Y173034D01*
X198315Y173278D01*
X198270Y173523D01*
X198230Y173769D01*
X198196Y174016D01*
X198169Y174264D01*
X198148Y174513D01*
X198132Y174761D01*
X198123Y175011D01*
X198120Y175260D01*
X200660Y175260D02*
X200662Y175447D01*
X200669Y175634D01*
X200681Y175821D01*
X200697Y176007D01*
X200717Y176193D01*
X200742Y176378D01*
X200772Y176563D01*
X200806Y176747D01*
X200845Y176930D01*
X200888Y177112D01*
X200936Y177292D01*
X200988Y177472D01*
X201045Y177650D01*
X201105Y177827D01*
X201171Y178002D01*
X201240Y178176D01*
X201314Y178348D01*
X201392Y178518D01*
X201474Y178686D01*
X201560Y178852D01*
X201650Y179016D01*
X201744Y179177D01*
X201842Y179337D01*
X201944Y179493D01*
X202050Y179648D01*
X202160Y179799D01*
X202273Y179948D01*
X202390Y180094D01*
X202510Y180237D01*
X202634Y180377D01*
X202761Y180514D01*
X202892Y180648D01*
X203026Y180779D01*
X203163Y180906D01*
X203303Y181030D01*
X203446Y181150D01*
X203592Y181267D01*
X203741Y181380D01*
X203892Y181490D01*
X204047Y181596D01*
X204203Y181698D01*
X204363Y181796D01*
X204524Y181890D01*
X204688Y181980D01*
X204854Y182066D01*
X205022Y182148D01*
X205192Y182226D01*
X205364Y182300D01*
X205538Y182369D01*
X205713Y182435D01*
X205890Y182495D01*
X206068Y182552D01*
X206248Y182604D01*
X206428Y182652D01*
X206610Y182695D01*
X206793Y182734D01*
X206977Y182768D01*
X207162Y182798D01*
X207347Y182823D01*
X207533Y182843D01*
X207719Y182859D01*
X207906Y182871D01*
X208093Y182878D01*
X208280Y182880D01*
X208467Y182878D01*
X208654Y182871D01*
X208841Y182859D01*
X209027Y182843D01*
X209213Y182823D01*
X209398Y182798D01*
X209583Y182768D01*
X209767Y182734D01*
X209950Y182695D01*
X210132Y182652D01*
X210312Y182604D01*
X210492Y182552D01*
X210670Y182495D01*
X210847Y182435D01*
X211022Y182369D01*
X211196Y182300D01*
X211368Y182226D01*
X211538Y182148D01*
X211706Y182066D01*
X211872Y181980D01*
X212036Y181890D01*
X212197Y181796D01*
X212357Y181698D01*
X212513Y181596D01*
X212668Y181490D01*
X212819Y181380D01*
X212968Y181267D01*
X213114Y181150D01*
X213257Y181030D01*
X213397Y180906D01*
X213534Y180779D01*
X213668Y180648D01*
X213799Y180514D01*
X213926Y180377D01*
X214050Y180237D01*
X214170Y180094D01*
X214287Y179948D01*
X214400Y179799D01*
X214510Y179648D01*
X214616Y179493D01*
X214718Y179337D01*
X214816Y179177D01*
X214910Y179016D01*
X215000Y178852D01*
X215086Y178686D01*
X215168Y178518D01*
X215246Y178348D01*
X215320Y178176D01*
X215389Y178002D01*
X215455Y177827D01*
X215515Y177650D01*
X215572Y177472D01*
X215624Y177292D01*
X215672Y177112D01*
X215715Y176930D01*
X215754Y176747D01*
X215788Y176563D01*
X215818Y176378D01*
X215843Y176193D01*
X215863Y176007D01*
X215879Y175821D01*
X215891Y175634D01*
X215898Y175447D01*
X215900Y175260D01*
X215898Y175073D01*
X215891Y174886D01*
X215879Y174699D01*
X215863Y174513D01*
X215843Y174327D01*
X215818Y174142D01*
X215788Y173957D01*
X215754Y173773D01*
X215715Y173590D01*
X215672Y173408D01*
X215624Y173228D01*
X215572Y173048D01*
X215515Y172870D01*
X215455Y172693D01*
X215389Y172518D01*
X215320Y172344D01*
X215246Y172172D01*
X215168Y172002D01*
X215086Y171834D01*
X215000Y171668D01*
X214910Y171504D01*
X214816Y171343D01*
X214718Y171183D01*
X214616Y171027D01*
X214510Y170872D01*
X214400Y170721D01*
X214287Y170572D01*
X214170Y170426D01*
X214050Y170283D01*
X213926Y170143D01*
X213799Y170006D01*
X213668Y169872D01*
X213534Y169741D01*
X213397Y169614D01*
X213257Y169490D01*
X213114Y169370D01*
X212968Y169253D01*
X212819Y169140D01*
X212668Y169030D01*
X212513Y168924D01*
X212357Y168822D01*
X212197Y168724D01*
X212036Y168630D01*
X211872Y168540D01*
X211706Y168454D01*
X211538Y168372D01*
X211368Y168294D01*
X211196Y168220D01*
X211022Y168151D01*
X210847Y168085D01*
X210670Y168025D01*
X210492Y167968D01*
X210312Y167916D01*
X210132Y167868D01*
X209950Y167825D01*
X209767Y167786D01*
X209583Y167752D01*
X209398Y167722D01*
X209213Y167697D01*
X209027Y167677D01*
X208841Y167661D01*
X208654Y167649D01*
X208467Y167642D01*
X208280Y167640D01*
X208093Y167642D01*
X207906Y167649D01*
X207719Y167661D01*
X207533Y167677D01*
X207347Y167697D01*
X207162Y167722D01*
X206977Y167752D01*
X206793Y167786D01*
X206610Y167825D01*
X206428Y167868D01*
X206248Y167916D01*
X206068Y167968D01*
X205890Y168025D01*
X205713Y168085D01*
X205538Y168151D01*
X205364Y168220D01*
X205192Y168294D01*
X205022Y168372D01*
X204854Y168454D01*
X204688Y168540D01*
X204524Y168630D01*
X204363Y168724D01*
X204203Y168822D01*
X204047Y168924D01*
X203892Y169030D01*
X203741Y169140D01*
X203592Y169253D01*
X203446Y169370D01*
X203303Y169490D01*
X203163Y169614D01*
X203026Y169741D01*
X202892Y169872D01*
X202761Y170006D01*
X202634Y170143D01*
X202510Y170283D01*
X202390Y170426D01*
X202273Y170572D01*
X202160Y170721D01*
X202050Y170872D01*
X201944Y171027D01*
X201842Y171183D01*
X201744Y171343D01*
X201650Y171504D01*
X201560Y171668D01*
X201474Y171834D01*
X201392Y172002D01*
X201314Y172172D01*
X201240Y172344D01*
X201171Y172518D01*
X201105Y172693D01*
X201045Y172870D01*
X200988Y173048D01*
X200936Y173228D01*
X200888Y173408D01*
X200845Y173590D01*
X200806Y173773D01*
X200772Y173957D01*
X200742Y174142D01*
X200717Y174327D01*
X200697Y174513D01*
X200681Y174699D01*
X200669Y174886D01*
X200662Y175073D01*
X200660Y175260D01*
D13*
X249291Y137802D02*
X253104Y141615D01*
X253104Y130175D01*
X249291Y130175D02*
X256918Y130175D01*
X165478Y130175D02*
X157851Y130175D01*
X165478Y137802D01*
X165478Y139708D01*
X163571Y141615D01*
X159758Y141615D01*
X157851Y139708D01*
X249291Y219718D02*
X251198Y221625D01*
X255011Y221625D01*
X256918Y219718D01*
X256918Y217812D01*
X255011Y215905D01*
X253104Y215905D01*
X255011Y215905D02*
X256918Y213998D01*
X256918Y212092D01*
X255011Y210185D01*
X251198Y210185D01*
X249291Y212092D01*
X162301Y210185D02*
X162301Y221625D01*
X156581Y215905D01*
X164208Y215905D01*
D14*
X174625Y114300D03*
X241935Y114300D03*
X174625Y236220D03*
X241935Y236220D03*
D10*
X760730Y196850D02*
X798830Y196850D01*
X798830Y158750D01*
X760730Y158750D01*
X760730Y196850D01*
D12*
X763270Y194310D02*
X796290Y194310D01*
X796290Y161290D01*
X763270Y161290D01*
X763270Y194310D01*
D10*
X769620Y238760D02*
X769620Y242570D01*
X769620Y238760D02*
X789940Y238760D01*
X789940Y242570D02*
X769620Y242570D01*
X789940Y242570D02*
X789940Y238760D01*
X830580Y238760D02*
X840740Y228600D01*
X830580Y238760D02*
X797560Y238760D01*
X840740Y228600D02*
X840740Y215900D01*
X840740Y189230D02*
X840740Y166370D01*
X840740Y127000D02*
X830580Y116840D01*
X840740Y127000D02*
X840740Y139700D01*
X718820Y166370D02*
X718820Y189230D01*
X718820Y139700D02*
X718820Y127000D01*
X728980Y116840D01*
X762000Y116840D01*
X762000Y238760D02*
X728980Y238760D01*
X718820Y228600D01*
X718820Y215900D01*
X769620Y113030D02*
X789940Y113030D01*
X769620Y113030D02*
X769620Y116840D01*
X789940Y116840D02*
X789940Y113030D01*
X830580Y238760D02*
X828040Y241300D01*
X797560Y241300D01*
X797560Y238760D01*
X789940Y238760D01*
X762000Y238760D02*
X762000Y241300D01*
X762000Y238760D02*
X769620Y238760D01*
X762000Y241300D02*
X731520Y241300D01*
X728980Y238760D01*
X769620Y116840D02*
X789940Y116840D01*
X797560Y116840D01*
X762000Y116840D02*
X762000Y114300D01*
X762000Y116840D02*
X769620Y116840D01*
X762000Y114300D02*
X731520Y114300D01*
X728980Y116840D01*
X797560Y116840D02*
X797560Y114300D01*
X797560Y116840D02*
X830580Y116840D01*
X828040Y114300D02*
X797560Y114300D01*
X828040Y114300D02*
X830580Y116840D01*
X744220Y177800D02*
X744231Y178673D01*
X744263Y179545D01*
X744316Y180416D01*
X744391Y181285D01*
X744487Y182153D01*
X744605Y183018D01*
X744744Y183879D01*
X744903Y184737D01*
X745084Y185591D01*
X745286Y186440D01*
X745508Y187284D01*
X745751Y188123D01*
X746015Y188955D01*
X746299Y189780D01*
X746603Y190598D01*
X746927Y191408D01*
X747271Y192210D01*
X747634Y193004D01*
X748017Y193788D01*
X748419Y194563D01*
X748840Y195327D01*
X749279Y196081D01*
X749737Y196825D01*
X750213Y197556D01*
X750707Y198276D01*
X751218Y198983D01*
X751746Y199678D01*
X752292Y200359D01*
X752854Y201027D01*
X753432Y201681D01*
X754026Y202320D01*
X754635Y202945D01*
X755260Y203554D01*
X755899Y204148D01*
X756553Y204726D01*
X757221Y205288D01*
X757902Y205834D01*
X758597Y206362D01*
X759304Y206873D01*
X760024Y207367D01*
X760755Y207843D01*
X761499Y208301D01*
X762253Y208740D01*
X763017Y209161D01*
X763792Y209563D01*
X764576Y209946D01*
X765370Y210309D01*
X766172Y210653D01*
X766982Y210977D01*
X767800Y211281D01*
X768625Y211565D01*
X769457Y211829D01*
X770296Y212072D01*
X771140Y212294D01*
X771989Y212496D01*
X772843Y212677D01*
X773701Y212836D01*
X774562Y212975D01*
X775427Y213093D01*
X776295Y213189D01*
X777164Y213264D01*
X778035Y213317D01*
X778907Y213349D01*
X779780Y213360D01*
X780653Y213349D01*
X781525Y213317D01*
X782396Y213264D01*
X783265Y213189D01*
X784133Y213093D01*
X784998Y212975D01*
X785859Y212836D01*
X786717Y212677D01*
X787571Y212496D01*
X788420Y212294D01*
X789264Y212072D01*
X790103Y211829D01*
X790935Y211565D01*
X791760Y211281D01*
X792578Y210977D01*
X793388Y210653D01*
X794190Y210309D01*
X794984Y209946D01*
X795768Y209563D01*
X796543Y209161D01*
X797307Y208740D01*
X798061Y208301D01*
X798805Y207843D01*
X799536Y207367D01*
X800256Y206873D01*
X800963Y206362D01*
X801658Y205834D01*
X802339Y205288D01*
X803007Y204726D01*
X803661Y204148D01*
X804300Y203554D01*
X804925Y202945D01*
X805534Y202320D01*
X806128Y201681D01*
X806706Y201027D01*
X807268Y200359D01*
X807814Y199678D01*
X808342Y198983D01*
X808853Y198276D01*
X809347Y197556D01*
X809823Y196825D01*
X810281Y196081D01*
X810720Y195327D01*
X811141Y194563D01*
X811543Y193788D01*
X811926Y193004D01*
X812289Y192210D01*
X812633Y191408D01*
X812957Y190598D01*
X813261Y189780D01*
X813545Y188955D01*
X813809Y188123D01*
X814052Y187284D01*
X814274Y186440D01*
X814476Y185591D01*
X814657Y184737D01*
X814816Y183879D01*
X814955Y183018D01*
X815073Y182153D01*
X815169Y181285D01*
X815244Y180416D01*
X815297Y179545D01*
X815329Y178673D01*
X815340Y177800D01*
X815329Y176927D01*
X815297Y176055D01*
X815244Y175184D01*
X815169Y174315D01*
X815073Y173447D01*
X814955Y172582D01*
X814816Y171721D01*
X814657Y170863D01*
X814476Y170009D01*
X814274Y169160D01*
X814052Y168316D01*
X813809Y167477D01*
X813545Y166645D01*
X813261Y165820D01*
X812957Y165002D01*
X812633Y164192D01*
X812289Y163390D01*
X811926Y162596D01*
X811543Y161812D01*
X811141Y161037D01*
X810720Y160273D01*
X810281Y159519D01*
X809823Y158775D01*
X809347Y158044D01*
X808853Y157324D01*
X808342Y156617D01*
X807814Y155922D01*
X807268Y155241D01*
X806706Y154573D01*
X806128Y153919D01*
X805534Y153280D01*
X804925Y152655D01*
X804300Y152046D01*
X803661Y151452D01*
X803007Y150874D01*
X802339Y150312D01*
X801658Y149766D01*
X800963Y149238D01*
X800256Y148727D01*
X799536Y148233D01*
X798805Y147757D01*
X798061Y147299D01*
X797307Y146860D01*
X796543Y146439D01*
X795768Y146037D01*
X794984Y145654D01*
X794190Y145291D01*
X793388Y144947D01*
X792578Y144623D01*
X791760Y144319D01*
X790935Y144035D01*
X790103Y143771D01*
X789264Y143528D01*
X788420Y143306D01*
X787571Y143104D01*
X786717Y142923D01*
X785859Y142764D01*
X784998Y142625D01*
X784133Y142507D01*
X783265Y142411D01*
X782396Y142336D01*
X781525Y142283D01*
X780653Y142251D01*
X779780Y142240D01*
X778907Y142251D01*
X778035Y142283D01*
X777164Y142336D01*
X776295Y142411D01*
X775427Y142507D01*
X774562Y142625D01*
X773701Y142764D01*
X772843Y142923D01*
X771989Y143104D01*
X771140Y143306D01*
X770296Y143528D01*
X769457Y143771D01*
X768625Y144035D01*
X767800Y144319D01*
X766982Y144623D01*
X766172Y144947D01*
X765370Y145291D01*
X764576Y145654D01*
X763792Y146037D01*
X763017Y146439D01*
X762253Y146860D01*
X761499Y147299D01*
X760755Y147757D01*
X760024Y148233D01*
X759304Y148727D01*
X758597Y149238D01*
X757902Y149766D01*
X757221Y150312D01*
X756553Y150874D01*
X755899Y151452D01*
X755260Y152046D01*
X754635Y152655D01*
X754026Y153280D01*
X753432Y153919D01*
X752854Y154573D01*
X752292Y155241D01*
X751746Y155922D01*
X751218Y156617D01*
X750707Y157324D01*
X750213Y158044D01*
X749737Y158775D01*
X749279Y159519D01*
X748840Y160273D01*
X748419Y161037D01*
X748017Y161812D01*
X747634Y162596D01*
X747271Y163390D01*
X746927Y164192D01*
X746603Y165002D01*
X746299Y165820D01*
X746015Y166645D01*
X745751Y167477D01*
X745508Y168316D01*
X745286Y169160D01*
X745084Y170009D01*
X744903Y170863D01*
X744744Y171721D01*
X744605Y172582D01*
X744487Y173447D01*
X744391Y174315D01*
X744316Y175184D01*
X744263Y176055D01*
X744231Y176927D01*
X744220Y177800D01*
D12*
X769620Y177800D02*
X769623Y178049D01*
X769632Y178299D01*
X769648Y178547D01*
X769669Y178796D01*
X769696Y179044D01*
X769730Y179291D01*
X769770Y179537D01*
X769815Y179782D01*
X769867Y180026D01*
X769924Y180269D01*
X769988Y180510D01*
X770057Y180749D01*
X770133Y180987D01*
X770214Y181223D01*
X770301Y181457D01*
X770393Y181688D01*
X770492Y181917D01*
X770595Y182144D01*
X770705Y182368D01*
X770820Y182589D01*
X770940Y182808D01*
X771065Y183023D01*
X771196Y183236D01*
X771332Y183445D01*
X771473Y183650D01*
X771619Y183852D01*
X771770Y184051D01*
X771926Y184245D01*
X772087Y184436D01*
X772252Y184623D01*
X772422Y184806D01*
X772596Y184984D01*
X772774Y185158D01*
X772957Y185328D01*
X773144Y185493D01*
X773335Y185654D01*
X773529Y185810D01*
X773728Y185961D01*
X773930Y186107D01*
X774135Y186248D01*
X774344Y186384D01*
X774557Y186515D01*
X774772Y186640D01*
X774991Y186760D01*
X775212Y186875D01*
X775436Y186985D01*
X775663Y187088D01*
X775892Y187187D01*
X776123Y187279D01*
X776357Y187366D01*
X776593Y187447D01*
X776831Y187523D01*
X777070Y187592D01*
X777311Y187656D01*
X777554Y187713D01*
X777798Y187765D01*
X778043Y187810D01*
X778289Y187850D01*
X778536Y187884D01*
X778784Y187911D01*
X779033Y187932D01*
X779281Y187948D01*
X779531Y187957D01*
X779780Y187960D01*
X780029Y187957D01*
X780279Y187948D01*
X780527Y187932D01*
X780776Y187911D01*
X781024Y187884D01*
X781271Y187850D01*
X781517Y187810D01*
X781762Y187765D01*
X782006Y187713D01*
X782249Y187656D01*
X782490Y187592D01*
X782729Y187523D01*
X782967Y187447D01*
X783203Y187366D01*
X783437Y187279D01*
X783668Y187187D01*
X783897Y187088D01*
X784124Y186985D01*
X784348Y186875D01*
X784569Y186760D01*
X784788Y186640D01*
X785003Y186515D01*
X785216Y186384D01*
X785425Y186248D01*
X785630Y186107D01*
X785832Y185961D01*
X786031Y185810D01*
X786225Y185654D01*
X786416Y185493D01*
X786603Y185328D01*
X786786Y185158D01*
X786964Y184984D01*
X787138Y184806D01*
X787308Y184623D01*
X787473Y184436D01*
X787634Y184245D01*
X787790Y184051D01*
X787941Y183852D01*
X788087Y183650D01*
X788228Y183445D01*
X788364Y183236D01*
X788495Y183023D01*
X788620Y182808D01*
X788740Y182589D01*
X788855Y182368D01*
X788965Y182144D01*
X789068Y181917D01*
X789167Y181688D01*
X789259Y181457D01*
X789346Y181223D01*
X789427Y180987D01*
X789503Y180749D01*
X789572Y180510D01*
X789636Y180269D01*
X789693Y180026D01*
X789745Y179782D01*
X789790Y179537D01*
X789830Y179291D01*
X789864Y179044D01*
X789891Y178796D01*
X789912Y178547D01*
X789928Y178299D01*
X789937Y178049D01*
X789940Y177800D01*
X789937Y177551D01*
X789928Y177301D01*
X789912Y177053D01*
X789891Y176804D01*
X789864Y176556D01*
X789830Y176309D01*
X789790Y176063D01*
X789745Y175818D01*
X789693Y175574D01*
X789636Y175331D01*
X789572Y175090D01*
X789503Y174851D01*
X789427Y174613D01*
X789346Y174377D01*
X789259Y174143D01*
X789167Y173912D01*
X789068Y173683D01*
X788965Y173456D01*
X788855Y173232D01*
X788740Y173011D01*
X788620Y172792D01*
X788495Y172577D01*
X788364Y172364D01*
X788228Y172155D01*
X788087Y171950D01*
X787941Y171748D01*
X787790Y171549D01*
X787634Y171355D01*
X787473Y171164D01*
X787308Y170977D01*
X787138Y170794D01*
X786964Y170616D01*
X786786Y170442D01*
X786603Y170272D01*
X786416Y170107D01*
X786225Y169946D01*
X786031Y169790D01*
X785832Y169639D01*
X785630Y169493D01*
X785425Y169352D01*
X785216Y169216D01*
X785003Y169085D01*
X784788Y168960D01*
X784569Y168840D01*
X784348Y168725D01*
X784124Y168615D01*
X783897Y168512D01*
X783668Y168413D01*
X783437Y168321D01*
X783203Y168234D01*
X782967Y168153D01*
X782729Y168077D01*
X782490Y168008D01*
X782249Y167944D01*
X782006Y167887D01*
X781762Y167835D01*
X781517Y167790D01*
X781271Y167750D01*
X781024Y167716D01*
X780776Y167689D01*
X780527Y167668D01*
X780279Y167652D01*
X780029Y167643D01*
X779780Y167640D01*
X779531Y167643D01*
X779281Y167652D01*
X779033Y167668D01*
X778784Y167689D01*
X778536Y167716D01*
X778289Y167750D01*
X778043Y167790D01*
X777798Y167835D01*
X777554Y167887D01*
X777311Y167944D01*
X777070Y168008D01*
X776831Y168077D01*
X776593Y168153D01*
X776357Y168234D01*
X776123Y168321D01*
X775892Y168413D01*
X775663Y168512D01*
X775436Y168615D01*
X775212Y168725D01*
X774991Y168840D01*
X774772Y168960D01*
X774557Y169085D01*
X774344Y169216D01*
X774135Y169352D01*
X773930Y169493D01*
X773728Y169639D01*
X773529Y169790D01*
X773335Y169946D01*
X773144Y170107D01*
X772957Y170272D01*
X772774Y170442D01*
X772596Y170616D01*
X772422Y170794D01*
X772252Y170977D01*
X772087Y171164D01*
X771926Y171355D01*
X771770Y171549D01*
X771619Y171748D01*
X771473Y171950D01*
X771332Y172155D01*
X771196Y172364D01*
X771065Y172577D01*
X770940Y172792D01*
X770820Y173011D01*
X770705Y173232D01*
X770595Y173456D01*
X770492Y173683D01*
X770393Y173912D01*
X770301Y174143D01*
X770214Y174377D01*
X770133Y174613D01*
X770057Y174851D01*
X769988Y175090D01*
X769924Y175331D01*
X769867Y175574D01*
X769815Y175818D01*
X769770Y176063D01*
X769730Y176309D01*
X769696Y176556D01*
X769669Y176804D01*
X769648Y177053D01*
X769632Y177301D01*
X769623Y177551D01*
X769620Y177800D01*
X772160Y177800D02*
X772162Y177987D01*
X772169Y178174D01*
X772181Y178361D01*
X772197Y178547D01*
X772217Y178733D01*
X772242Y178918D01*
X772272Y179103D01*
X772306Y179287D01*
X772345Y179470D01*
X772388Y179652D01*
X772436Y179832D01*
X772488Y180012D01*
X772545Y180190D01*
X772605Y180367D01*
X772671Y180542D01*
X772740Y180716D01*
X772814Y180888D01*
X772892Y181058D01*
X772974Y181226D01*
X773060Y181392D01*
X773150Y181556D01*
X773244Y181717D01*
X773342Y181877D01*
X773444Y182033D01*
X773550Y182188D01*
X773660Y182339D01*
X773773Y182488D01*
X773890Y182634D01*
X774010Y182777D01*
X774134Y182917D01*
X774261Y183054D01*
X774392Y183188D01*
X774526Y183319D01*
X774663Y183446D01*
X774803Y183570D01*
X774946Y183690D01*
X775092Y183807D01*
X775241Y183920D01*
X775392Y184030D01*
X775547Y184136D01*
X775703Y184238D01*
X775863Y184336D01*
X776024Y184430D01*
X776188Y184520D01*
X776354Y184606D01*
X776522Y184688D01*
X776692Y184766D01*
X776864Y184840D01*
X777038Y184909D01*
X777213Y184975D01*
X777390Y185035D01*
X777568Y185092D01*
X777748Y185144D01*
X777928Y185192D01*
X778110Y185235D01*
X778293Y185274D01*
X778477Y185308D01*
X778662Y185338D01*
X778847Y185363D01*
X779033Y185383D01*
X779219Y185399D01*
X779406Y185411D01*
X779593Y185418D01*
X779780Y185420D01*
X779967Y185418D01*
X780154Y185411D01*
X780341Y185399D01*
X780527Y185383D01*
X780713Y185363D01*
X780898Y185338D01*
X781083Y185308D01*
X781267Y185274D01*
X781450Y185235D01*
X781632Y185192D01*
X781812Y185144D01*
X781992Y185092D01*
X782170Y185035D01*
X782347Y184975D01*
X782522Y184909D01*
X782696Y184840D01*
X782868Y184766D01*
X783038Y184688D01*
X783206Y184606D01*
X783372Y184520D01*
X783536Y184430D01*
X783697Y184336D01*
X783857Y184238D01*
X784013Y184136D01*
X784168Y184030D01*
X784319Y183920D01*
X784468Y183807D01*
X784614Y183690D01*
X784757Y183570D01*
X784897Y183446D01*
X785034Y183319D01*
X785168Y183188D01*
X785299Y183054D01*
X785426Y182917D01*
X785550Y182777D01*
X785670Y182634D01*
X785787Y182488D01*
X785900Y182339D01*
X786010Y182188D01*
X786116Y182033D01*
X786218Y181877D01*
X786316Y181717D01*
X786410Y181556D01*
X786500Y181392D01*
X786586Y181226D01*
X786668Y181058D01*
X786746Y180888D01*
X786820Y180716D01*
X786889Y180542D01*
X786955Y180367D01*
X787015Y180190D01*
X787072Y180012D01*
X787124Y179832D01*
X787172Y179652D01*
X787215Y179470D01*
X787254Y179287D01*
X787288Y179103D01*
X787318Y178918D01*
X787343Y178733D01*
X787363Y178547D01*
X787379Y178361D01*
X787391Y178174D01*
X787398Y177987D01*
X787400Y177800D01*
X787398Y177613D01*
X787391Y177426D01*
X787379Y177239D01*
X787363Y177053D01*
X787343Y176867D01*
X787318Y176682D01*
X787288Y176497D01*
X787254Y176313D01*
X787215Y176130D01*
X787172Y175948D01*
X787124Y175768D01*
X787072Y175588D01*
X787015Y175410D01*
X786955Y175233D01*
X786889Y175058D01*
X786820Y174884D01*
X786746Y174712D01*
X786668Y174542D01*
X786586Y174374D01*
X786500Y174208D01*
X786410Y174044D01*
X786316Y173883D01*
X786218Y173723D01*
X786116Y173567D01*
X786010Y173412D01*
X785900Y173261D01*
X785787Y173112D01*
X785670Y172966D01*
X785550Y172823D01*
X785426Y172683D01*
X785299Y172546D01*
X785168Y172412D01*
X785034Y172281D01*
X784897Y172154D01*
X784757Y172030D01*
X784614Y171910D01*
X784468Y171793D01*
X784319Y171680D01*
X784168Y171570D01*
X784013Y171464D01*
X783857Y171362D01*
X783697Y171264D01*
X783536Y171170D01*
X783372Y171080D01*
X783206Y170994D01*
X783038Y170912D01*
X782868Y170834D01*
X782696Y170760D01*
X782522Y170691D01*
X782347Y170625D01*
X782170Y170565D01*
X781992Y170508D01*
X781812Y170456D01*
X781632Y170408D01*
X781450Y170365D01*
X781267Y170326D01*
X781083Y170292D01*
X780898Y170262D01*
X780713Y170237D01*
X780527Y170217D01*
X780341Y170201D01*
X780154Y170189D01*
X779967Y170182D01*
X779780Y170180D01*
X779593Y170182D01*
X779406Y170189D01*
X779219Y170201D01*
X779033Y170217D01*
X778847Y170237D01*
X778662Y170262D01*
X778477Y170292D01*
X778293Y170326D01*
X778110Y170365D01*
X777928Y170408D01*
X777748Y170456D01*
X777568Y170508D01*
X777390Y170565D01*
X777213Y170625D01*
X777038Y170691D01*
X776864Y170760D01*
X776692Y170834D01*
X776522Y170912D01*
X776354Y170994D01*
X776188Y171080D01*
X776024Y171170D01*
X775863Y171264D01*
X775703Y171362D01*
X775547Y171464D01*
X775392Y171570D01*
X775241Y171680D01*
X775092Y171793D01*
X774946Y171910D01*
X774803Y172030D01*
X774663Y172154D01*
X774526Y172281D01*
X774392Y172412D01*
X774261Y172546D01*
X774134Y172683D01*
X774010Y172823D01*
X773890Y172966D01*
X773773Y173112D01*
X773660Y173261D01*
X773550Y173412D01*
X773444Y173567D01*
X773342Y173723D01*
X773244Y173883D01*
X773150Y174044D01*
X773060Y174208D01*
X772974Y174374D01*
X772892Y174542D01*
X772814Y174712D01*
X772740Y174884D01*
X772671Y175058D01*
X772605Y175233D01*
X772545Y175410D01*
X772488Y175588D01*
X772436Y175768D01*
X772388Y175948D01*
X772345Y176130D01*
X772306Y176313D01*
X772272Y176497D01*
X772242Y176682D01*
X772217Y176867D01*
X772197Y177053D01*
X772181Y177239D01*
X772169Y177426D01*
X772162Y177613D01*
X772160Y177800D01*
D13*
X728345Y219082D02*
X732158Y222895D01*
X732158Y211455D01*
X728345Y211455D02*
X735972Y211455D01*
X819785Y211455D02*
X827412Y211455D01*
X819785Y211455D02*
X827412Y219082D01*
X827412Y220988D01*
X825505Y222895D01*
X821692Y222895D01*
X819785Y220988D01*
X730252Y142885D02*
X728345Y140978D01*
X730252Y142885D02*
X734065Y142885D01*
X735972Y140978D01*
X735972Y139072D01*
X734065Y137165D01*
X732158Y137165D01*
X734065Y137165D02*
X735972Y135258D01*
X735972Y133352D01*
X734065Y131445D01*
X730252Y131445D01*
X728345Y133352D01*
X826775Y131445D02*
X826775Y142885D01*
X821055Y137165D01*
X828682Y137165D01*
D14*
X813435Y238760D03*
X746125Y238760D03*
X813435Y116840D03*
X746125Y116840D03*
D11*
X96520Y237490D02*
X90170Y243840D01*
X77470Y243840D01*
X71120Y237490D01*
X71120Y224790D01*
X77470Y218440D01*
X90170Y218440D01*
X96520Y224790D01*
X96520Y237490D01*
X88900Y344170D02*
X82550Y350520D01*
X69850Y350520D01*
X63500Y344170D01*
X63500Y331470D01*
X69850Y325120D01*
X82550Y325120D01*
X88900Y331470D01*
X88900Y344170D01*
X877570Y414020D02*
X890270Y414020D01*
X877570Y414020D02*
X871220Y420370D01*
X871220Y433070D02*
X877570Y439420D01*
X915670Y414020D02*
X922020Y420370D01*
X915670Y414020D02*
X902970Y414020D01*
X896620Y420370D01*
X896620Y433070D02*
X902970Y439420D01*
X915670Y439420D01*
X922020Y433070D01*
X896620Y420370D02*
X890270Y414020D01*
X896620Y433070D02*
X890270Y439420D01*
X877570Y439420D01*
X953770Y414020D02*
X966470Y414020D01*
X953770Y414020D02*
X947420Y420370D01*
X947420Y433070D02*
X953770Y439420D01*
X947420Y420370D02*
X941070Y414020D01*
X928370Y414020D01*
X922020Y420370D01*
X922020Y433070D02*
X928370Y439420D01*
X941070Y439420D01*
X947420Y433070D01*
X972820Y433070D02*
X972820Y420370D01*
X966470Y414020D01*
X972820Y433070D02*
X966470Y439420D01*
X953770Y439420D01*
X871220Y433070D02*
X871220Y420370D01*
D15*
X424980Y375920D03*
X444980Y375920D03*
X464980Y375920D03*
X484980Y375920D03*
X504980Y375920D03*
X524980Y375920D03*
D10*
X81280Y406400D02*
X74930Y406400D01*
X91440Y412750D02*
X91440Y400050D01*
X81280Y406400D01*
X96520Y406400D01*
X91440Y412750D02*
X81280Y406400D01*
X81280Y400050D01*
X81280Y412750D02*
X83820Y412750D01*
X81280Y412750D02*
X81280Y406400D01*
X101600Y416560D02*
X101700Y416558D01*
X101799Y416552D01*
X101899Y416542D01*
X101997Y416529D01*
X102096Y416511D01*
X102193Y416490D01*
X102289Y416465D01*
X102385Y416436D01*
X102479Y416403D01*
X102572Y416367D01*
X102663Y416327D01*
X102753Y416283D01*
X102841Y416236D01*
X102927Y416186D01*
X103011Y416132D01*
X103093Y416075D01*
X103172Y416015D01*
X103250Y415951D01*
X103324Y415885D01*
X103396Y415816D01*
X103465Y415744D01*
X103531Y415670D01*
X103595Y415592D01*
X103655Y415513D01*
X103712Y415431D01*
X103766Y415347D01*
X103816Y415261D01*
X103863Y415173D01*
X103907Y415083D01*
X103947Y414992D01*
X103983Y414899D01*
X104016Y414805D01*
X104045Y414709D01*
X104070Y414613D01*
X104091Y414516D01*
X104109Y414417D01*
X104122Y414319D01*
X104132Y414219D01*
X104138Y414120D01*
X104140Y414020D01*
X60960Y416560D02*
X60860Y416558D01*
X60761Y416552D01*
X60661Y416542D01*
X60563Y416529D01*
X60464Y416511D01*
X60367Y416490D01*
X60271Y416465D01*
X60175Y416436D01*
X60081Y416403D01*
X59988Y416367D01*
X59897Y416327D01*
X59807Y416283D01*
X59719Y416236D01*
X59633Y416186D01*
X59549Y416132D01*
X59467Y416075D01*
X59388Y416015D01*
X59310Y415951D01*
X59236Y415885D01*
X59164Y415816D01*
X59095Y415744D01*
X59029Y415670D01*
X58965Y415592D01*
X58905Y415513D01*
X58848Y415431D01*
X58794Y415347D01*
X58744Y415261D01*
X58697Y415173D01*
X58653Y415083D01*
X58613Y414992D01*
X58577Y414899D01*
X58544Y414805D01*
X58515Y414709D01*
X58490Y414613D01*
X58469Y414516D01*
X58451Y414417D01*
X58438Y414319D01*
X58428Y414219D01*
X58422Y414120D01*
X58420Y414020D01*
X58420Y398780D02*
X58422Y398680D01*
X58428Y398581D01*
X58438Y398481D01*
X58451Y398383D01*
X58469Y398284D01*
X58490Y398187D01*
X58515Y398091D01*
X58544Y397995D01*
X58577Y397901D01*
X58613Y397808D01*
X58653Y397717D01*
X58697Y397627D01*
X58744Y397539D01*
X58794Y397453D01*
X58848Y397369D01*
X58905Y397287D01*
X58965Y397208D01*
X59029Y397130D01*
X59095Y397056D01*
X59164Y396984D01*
X59236Y396915D01*
X59310Y396849D01*
X59388Y396785D01*
X59467Y396725D01*
X59549Y396668D01*
X59633Y396614D01*
X59719Y396564D01*
X59807Y396517D01*
X59897Y396473D01*
X59988Y396433D01*
X60081Y396397D01*
X60175Y396364D01*
X60271Y396335D01*
X60367Y396310D01*
X60464Y396289D01*
X60563Y396271D01*
X60661Y396258D01*
X60761Y396248D01*
X60860Y396242D01*
X60960Y396240D01*
X101600Y396240D02*
X101700Y396242D01*
X101799Y396248D01*
X101899Y396258D01*
X101997Y396271D01*
X102096Y396289D01*
X102193Y396310D01*
X102289Y396335D01*
X102385Y396364D01*
X102479Y396397D01*
X102572Y396433D01*
X102663Y396473D01*
X102753Y396517D01*
X102841Y396564D01*
X102927Y396614D01*
X103011Y396668D01*
X103093Y396725D01*
X103172Y396785D01*
X103250Y396849D01*
X103324Y396915D01*
X103396Y396984D01*
X103465Y397056D01*
X103531Y397130D01*
X103595Y397208D01*
X103655Y397287D01*
X103712Y397369D01*
X103766Y397453D01*
X103816Y397539D01*
X103863Y397627D01*
X103907Y397717D01*
X103947Y397808D01*
X103983Y397901D01*
X104016Y397995D01*
X104045Y398091D01*
X104070Y398187D01*
X104091Y398284D01*
X104109Y398383D01*
X104122Y398481D01*
X104132Y398581D01*
X104138Y398680D01*
X104140Y398780D01*
X104140Y414020D01*
X58420Y414020D02*
X58420Y398780D01*
X60960Y416560D02*
X101600Y416560D01*
X101600Y396240D02*
X60960Y396240D01*
D16*
X64770Y406400D03*
D17*
X113665Y406400D03*
X48895Y406400D03*
D10*
X891540Y393700D02*
X891640Y393698D01*
X891739Y393692D01*
X891839Y393682D01*
X891937Y393669D01*
X892036Y393651D01*
X892133Y393630D01*
X892229Y393605D01*
X892325Y393576D01*
X892419Y393543D01*
X892512Y393507D01*
X892603Y393467D01*
X892693Y393423D01*
X892781Y393376D01*
X892867Y393326D01*
X892951Y393272D01*
X893033Y393215D01*
X893112Y393155D01*
X893190Y393091D01*
X893264Y393025D01*
X893336Y392956D01*
X893405Y392884D01*
X893471Y392810D01*
X893535Y392732D01*
X893595Y392653D01*
X893652Y392571D01*
X893706Y392487D01*
X893756Y392401D01*
X893803Y392313D01*
X893847Y392223D01*
X893887Y392132D01*
X893923Y392039D01*
X893956Y391945D01*
X893985Y391849D01*
X894010Y391753D01*
X894031Y391656D01*
X894049Y391557D01*
X894062Y391459D01*
X894072Y391359D01*
X894078Y391260D01*
X894080Y391160D01*
X866140Y393700D02*
X866040Y393698D01*
X865941Y393692D01*
X865841Y393682D01*
X865743Y393669D01*
X865644Y393651D01*
X865547Y393630D01*
X865451Y393605D01*
X865355Y393576D01*
X865261Y393543D01*
X865168Y393507D01*
X865077Y393467D01*
X864987Y393423D01*
X864899Y393376D01*
X864813Y393326D01*
X864729Y393272D01*
X864647Y393215D01*
X864568Y393155D01*
X864490Y393091D01*
X864416Y393025D01*
X864344Y392956D01*
X864275Y392884D01*
X864209Y392810D01*
X864145Y392732D01*
X864085Y392653D01*
X864028Y392571D01*
X863974Y392487D01*
X863924Y392401D01*
X863877Y392313D01*
X863833Y392223D01*
X863793Y392132D01*
X863757Y392039D01*
X863724Y391945D01*
X863695Y391849D01*
X863670Y391753D01*
X863649Y391656D01*
X863631Y391557D01*
X863618Y391459D01*
X863608Y391359D01*
X863602Y391260D01*
X863600Y391160D01*
X863600Y309880D02*
X863602Y309780D01*
X863608Y309681D01*
X863618Y309581D01*
X863631Y309483D01*
X863649Y309384D01*
X863670Y309287D01*
X863695Y309191D01*
X863724Y309095D01*
X863757Y309001D01*
X863793Y308908D01*
X863833Y308817D01*
X863877Y308727D01*
X863924Y308639D01*
X863974Y308553D01*
X864028Y308469D01*
X864085Y308387D01*
X864145Y308308D01*
X864209Y308230D01*
X864275Y308156D01*
X864344Y308084D01*
X864416Y308015D01*
X864490Y307949D01*
X864568Y307885D01*
X864647Y307825D01*
X864729Y307768D01*
X864813Y307714D01*
X864899Y307664D01*
X864987Y307617D01*
X865077Y307573D01*
X865168Y307533D01*
X865261Y307497D01*
X865355Y307464D01*
X865451Y307435D01*
X865547Y307410D01*
X865644Y307389D01*
X865743Y307371D01*
X865841Y307358D01*
X865941Y307348D01*
X866040Y307342D01*
X866140Y307340D01*
X891540Y307340D02*
X891640Y307342D01*
X891739Y307348D01*
X891839Y307358D01*
X891937Y307371D01*
X892036Y307389D01*
X892133Y307410D01*
X892229Y307435D01*
X892325Y307464D01*
X892419Y307497D01*
X892512Y307533D01*
X892603Y307573D01*
X892693Y307617D01*
X892781Y307664D01*
X892867Y307714D01*
X892951Y307768D01*
X893033Y307825D01*
X893112Y307885D01*
X893190Y307949D01*
X893264Y308015D01*
X893336Y308084D01*
X893405Y308156D01*
X893471Y308230D01*
X893535Y308308D01*
X893595Y308387D01*
X893652Y308469D01*
X893706Y308553D01*
X893756Y308639D01*
X893803Y308727D01*
X893847Y308817D01*
X893887Y308908D01*
X893923Y309001D01*
X893956Y309095D01*
X893985Y309191D01*
X894010Y309287D01*
X894031Y309384D01*
X894049Y309483D01*
X894062Y309581D01*
X894072Y309681D01*
X894078Y309780D01*
X894080Y309880D01*
X894080Y384810D02*
X894080Y391160D01*
X894080Y384810D02*
X892810Y383540D01*
X863600Y384810D02*
X863600Y391160D01*
X863600Y384810D02*
X864870Y383540D01*
X892810Y317500D02*
X894080Y316230D01*
X892810Y317500D02*
X892810Y383540D01*
X864870Y317500D02*
X863600Y316230D01*
X864870Y317500D02*
X864870Y383540D01*
X894080Y316230D02*
X894080Y309880D01*
X863600Y309880D02*
X863600Y316230D01*
X927100Y391160D02*
X927098Y391260D01*
X927092Y391359D01*
X927082Y391459D01*
X927069Y391557D01*
X927051Y391656D01*
X927030Y391753D01*
X927005Y391849D01*
X926976Y391945D01*
X926943Y392039D01*
X926907Y392132D01*
X926867Y392223D01*
X926823Y392313D01*
X926776Y392401D01*
X926726Y392487D01*
X926672Y392571D01*
X926615Y392653D01*
X926555Y392732D01*
X926491Y392810D01*
X926425Y392884D01*
X926356Y392956D01*
X926284Y393025D01*
X926210Y393091D01*
X926132Y393155D01*
X926053Y393215D01*
X925971Y393272D01*
X925887Y393326D01*
X925801Y393376D01*
X925713Y393423D01*
X925623Y393467D01*
X925532Y393507D01*
X925439Y393543D01*
X925345Y393576D01*
X925249Y393605D01*
X925153Y393630D01*
X925056Y393651D01*
X924957Y393669D01*
X924859Y393682D01*
X924759Y393692D01*
X924660Y393698D01*
X924560Y393700D01*
X899160Y393700D02*
X899060Y393698D01*
X898961Y393692D01*
X898861Y393682D01*
X898763Y393669D01*
X898664Y393651D01*
X898567Y393630D01*
X898471Y393605D01*
X898375Y393576D01*
X898281Y393543D01*
X898188Y393507D01*
X898097Y393467D01*
X898007Y393423D01*
X897919Y393376D01*
X897833Y393326D01*
X897749Y393272D01*
X897667Y393215D01*
X897588Y393155D01*
X897510Y393091D01*
X897436Y393025D01*
X897364Y392956D01*
X897295Y392884D01*
X897229Y392810D01*
X897165Y392732D01*
X897105Y392653D01*
X897048Y392571D01*
X896994Y392487D01*
X896944Y392401D01*
X896897Y392313D01*
X896853Y392223D01*
X896813Y392132D01*
X896777Y392039D01*
X896744Y391945D01*
X896715Y391849D01*
X896690Y391753D01*
X896669Y391656D01*
X896651Y391557D01*
X896638Y391459D01*
X896628Y391359D01*
X896622Y391260D01*
X896620Y391160D01*
X896620Y309880D02*
X896622Y309780D01*
X896628Y309681D01*
X896638Y309581D01*
X896651Y309483D01*
X896669Y309384D01*
X896690Y309287D01*
X896715Y309191D01*
X896744Y309095D01*
X896777Y309001D01*
X896813Y308908D01*
X896853Y308817D01*
X896897Y308727D01*
X896944Y308639D01*
X896994Y308553D01*
X897048Y308469D01*
X897105Y308387D01*
X897165Y308308D01*
X897229Y308230D01*
X897295Y308156D01*
X897364Y308084D01*
X897436Y308015D01*
X897510Y307949D01*
X897588Y307885D01*
X897667Y307825D01*
X897749Y307768D01*
X897833Y307714D01*
X897919Y307664D01*
X898007Y307617D01*
X898097Y307573D01*
X898188Y307533D01*
X898281Y307497D01*
X898375Y307464D01*
X898471Y307435D01*
X898567Y307410D01*
X898664Y307389D01*
X898763Y307371D01*
X898861Y307358D01*
X898961Y307348D01*
X899060Y307342D01*
X899160Y307340D01*
X924560Y307340D02*
X924660Y307342D01*
X924759Y307348D01*
X924859Y307358D01*
X924957Y307371D01*
X925056Y307389D01*
X925153Y307410D01*
X925249Y307435D01*
X925345Y307464D01*
X925439Y307497D01*
X925532Y307533D01*
X925623Y307573D01*
X925713Y307617D01*
X925801Y307664D01*
X925887Y307714D01*
X925971Y307768D01*
X926053Y307825D01*
X926132Y307885D01*
X926210Y307949D01*
X926284Y308015D01*
X926356Y308084D01*
X926425Y308156D01*
X926491Y308230D01*
X926555Y308308D01*
X926615Y308387D01*
X926672Y308469D01*
X926726Y308553D01*
X926776Y308639D01*
X926823Y308727D01*
X926867Y308817D01*
X926907Y308908D01*
X926943Y309001D01*
X926976Y309095D01*
X927005Y309191D01*
X927030Y309287D01*
X927051Y309384D01*
X927069Y309483D01*
X927082Y309581D01*
X927092Y309681D01*
X927098Y309780D01*
X927100Y309880D01*
X927100Y384810D02*
X927100Y391160D01*
X927100Y384810D02*
X925830Y383540D01*
X896620Y384810D02*
X896620Y391160D01*
X896620Y384810D02*
X897890Y383540D01*
X925830Y317500D02*
X927100Y316230D01*
X925830Y317500D02*
X925830Y383540D01*
X897890Y317500D02*
X896620Y316230D01*
X897890Y317500D02*
X897890Y383540D01*
X927100Y316230D02*
X927100Y309880D01*
X896620Y309880D02*
X896620Y316230D01*
X972820Y393700D02*
X972920Y393698D01*
X973019Y393692D01*
X973119Y393682D01*
X973217Y393669D01*
X973316Y393651D01*
X973413Y393630D01*
X973509Y393605D01*
X973605Y393576D01*
X973699Y393543D01*
X973792Y393507D01*
X973883Y393467D01*
X973973Y393423D01*
X974061Y393376D01*
X974147Y393326D01*
X974231Y393272D01*
X974313Y393215D01*
X974392Y393155D01*
X974470Y393091D01*
X974544Y393025D01*
X974616Y392956D01*
X974685Y392884D01*
X974751Y392810D01*
X974815Y392732D01*
X974875Y392653D01*
X974932Y392571D01*
X974986Y392487D01*
X975036Y392401D01*
X975083Y392313D01*
X975127Y392223D01*
X975167Y392132D01*
X975203Y392039D01*
X975236Y391945D01*
X975265Y391849D01*
X975290Y391753D01*
X975311Y391656D01*
X975329Y391557D01*
X975342Y391459D01*
X975352Y391359D01*
X975358Y391260D01*
X975360Y391160D01*
X947420Y393700D02*
X947320Y393698D01*
X947221Y393692D01*
X947121Y393682D01*
X947023Y393669D01*
X946924Y393651D01*
X946827Y393630D01*
X946731Y393605D01*
X946635Y393576D01*
X946541Y393543D01*
X946448Y393507D01*
X946357Y393467D01*
X946267Y393423D01*
X946179Y393376D01*
X946093Y393326D01*
X946009Y393272D01*
X945927Y393215D01*
X945848Y393155D01*
X945770Y393091D01*
X945696Y393025D01*
X945624Y392956D01*
X945555Y392884D01*
X945489Y392810D01*
X945425Y392732D01*
X945365Y392653D01*
X945308Y392571D01*
X945254Y392487D01*
X945204Y392401D01*
X945157Y392313D01*
X945113Y392223D01*
X945073Y392132D01*
X945037Y392039D01*
X945004Y391945D01*
X944975Y391849D01*
X944950Y391753D01*
X944929Y391656D01*
X944911Y391557D01*
X944898Y391459D01*
X944888Y391359D01*
X944882Y391260D01*
X944880Y391160D01*
X944880Y309880D02*
X944882Y309780D01*
X944888Y309681D01*
X944898Y309581D01*
X944911Y309483D01*
X944929Y309384D01*
X944950Y309287D01*
X944975Y309191D01*
X945004Y309095D01*
X945037Y309001D01*
X945073Y308908D01*
X945113Y308817D01*
X945157Y308727D01*
X945204Y308639D01*
X945254Y308553D01*
X945308Y308469D01*
X945365Y308387D01*
X945425Y308308D01*
X945489Y308230D01*
X945555Y308156D01*
X945624Y308084D01*
X945696Y308015D01*
X945770Y307949D01*
X945848Y307885D01*
X945927Y307825D01*
X946009Y307768D01*
X946093Y307714D01*
X946179Y307664D01*
X946267Y307617D01*
X946357Y307573D01*
X946448Y307533D01*
X946541Y307497D01*
X946635Y307464D01*
X946731Y307435D01*
X946827Y307410D01*
X946924Y307389D01*
X947023Y307371D01*
X947121Y307358D01*
X947221Y307348D01*
X947320Y307342D01*
X947420Y307340D01*
X972820Y307340D02*
X972920Y307342D01*
X973019Y307348D01*
X973119Y307358D01*
X973217Y307371D01*
X973316Y307389D01*
X973413Y307410D01*
X973509Y307435D01*
X973605Y307464D01*
X973699Y307497D01*
X973792Y307533D01*
X973883Y307573D01*
X973973Y307617D01*
X974061Y307664D01*
X974147Y307714D01*
X974231Y307768D01*
X974313Y307825D01*
X974392Y307885D01*
X974470Y307949D01*
X974544Y308015D01*
X974616Y308084D01*
X974685Y308156D01*
X974751Y308230D01*
X974815Y308308D01*
X974875Y308387D01*
X974932Y308469D01*
X974986Y308553D01*
X975036Y308639D01*
X975083Y308727D01*
X975127Y308817D01*
X975167Y308908D01*
X975203Y309001D01*
X975236Y309095D01*
X975265Y309191D01*
X975290Y309287D01*
X975311Y309384D01*
X975329Y309483D01*
X975342Y309581D01*
X975352Y309681D01*
X975358Y309780D01*
X975360Y309880D01*
X975360Y384810D02*
X975360Y391160D01*
X975360Y384810D02*
X974090Y383540D01*
X944880Y384810D02*
X944880Y391160D01*
X944880Y384810D02*
X946150Y383540D01*
X974090Y317500D02*
X975360Y316230D01*
X974090Y317500D02*
X974090Y383540D01*
X946150Y317500D02*
X944880Y316230D01*
X946150Y317500D02*
X946150Y383540D01*
X975360Y316230D02*
X975360Y309880D01*
X944880Y309880D02*
X944880Y316230D01*
D11*
X43180Y458470D02*
X36830Y464820D01*
X43180Y458470D02*
X43180Y445770D01*
X36830Y439420D01*
X24130Y439420D02*
X17780Y445770D01*
X17780Y458470D01*
X24130Y464820D01*
X43180Y496570D02*
X43180Y509270D01*
X43180Y496570D02*
X36830Y490220D01*
X24130Y490220D02*
X17780Y496570D01*
X36830Y490220D02*
X43180Y483870D01*
X43180Y471170D01*
X36830Y464820D01*
X24130Y464820D02*
X17780Y471170D01*
X17780Y483870D01*
X24130Y490220D01*
X43180Y534670D02*
X36830Y541020D01*
X43180Y534670D02*
X43180Y521970D01*
X36830Y515620D01*
X24130Y515620D02*
X17780Y521970D01*
X17780Y534670D01*
X24130Y541020D01*
X36830Y515620D02*
X43180Y509270D01*
X24130Y515620D02*
X17780Y509270D01*
X17780Y496570D01*
X43180Y572770D02*
X43180Y585470D01*
X43180Y572770D02*
X36830Y566420D01*
X24130Y566420D02*
X17780Y572770D01*
X36830Y566420D02*
X43180Y560070D01*
X43180Y547370D01*
X36830Y541020D01*
X24130Y541020D02*
X17780Y547370D01*
X17780Y560070D01*
X24130Y566420D01*
X24130Y591820D02*
X36830Y591820D01*
X43180Y585470D01*
X24130Y591820D02*
X17780Y585470D01*
X17780Y572770D01*
X24130Y439420D02*
X36830Y439420D01*
X134620Y455930D02*
X140970Y462280D01*
X153670Y462280D01*
X160020Y455930D01*
X160020Y443230D02*
X153670Y436880D01*
X140970Y436880D01*
X134620Y443230D01*
X102870Y462280D02*
X90170Y462280D01*
X102870Y462280D02*
X109220Y455930D01*
X109220Y443230D02*
X102870Y436880D01*
X109220Y455930D02*
X115570Y462280D01*
X128270Y462280D01*
X134620Y455930D01*
X134620Y443230D02*
X128270Y436880D01*
X115570Y436880D01*
X109220Y443230D01*
X83820Y443230D02*
X83820Y455930D01*
X90170Y462280D01*
X83820Y443230D02*
X90170Y436880D01*
X102870Y436880D01*
X160020Y443230D02*
X160020Y455930D01*
M02*
