G04 EAGLE Gerber RS-274X export*
G75*
%MOMM*%
%FSLAX34Y34*%
%LPD*%
%INSoldermask Bottom*%
%IPPOS*%
%AMOC8*
5,1,8,0,0,1.08239X$1,22.5*%
G01*
%ADD10C,2.082800*%
%ADD11C,1.993900*%
%ADD12C,2.006600*%
%ADD13C,3.505200*%
%ADD14C,1.625600*%
%ADD15C,1.524000*%
%ADD16P,1.649562X8X292.500000*%
%ADD17C,1.270000*%


D10*
X309880Y185420D03*
X335280Y185420D03*
X360680Y185420D03*
X386080Y185420D03*
X411480Y185420D03*
X436880Y185420D03*
X462280Y185420D03*
X487680Y185420D03*
X513080Y185420D03*
X538480Y185420D03*
X563880Y185420D03*
X589280Y185420D03*
X614680Y185420D03*
X640080Y185420D03*
X665480Y185420D03*
X665480Y337820D03*
X640080Y337820D03*
X614680Y337820D03*
X589280Y337820D03*
X563880Y337820D03*
X538480Y337820D03*
X513080Y337820D03*
X487680Y337820D03*
X462280Y337820D03*
X436880Y337820D03*
X411480Y337820D03*
X386080Y337820D03*
X360680Y337820D03*
X335280Y337820D03*
X309880Y337820D03*
X360680Y134620D03*
X386080Y134620D03*
X411480Y134620D03*
X436880Y134620D03*
X462280Y134620D03*
X563880Y134620D03*
X589280Y134620D03*
X614680Y134620D03*
X640080Y134620D03*
X665480Y134620D03*
D11*
X279718Y334772D02*
X261811Y334772D01*
X154750Y334772D02*
X136843Y334772D01*
X261811Y284988D02*
X279718Y284988D01*
X154750Y284988D02*
X136843Y284988D01*
D12*
X208280Y354838D03*
X208280Y264922D03*
D11*
X705803Y287528D02*
X723710Y287528D01*
X830771Y287528D02*
X848678Y287528D01*
X723710Y337312D02*
X705803Y337312D01*
X830771Y337312D02*
X848678Y337312D01*
D12*
X777240Y267462D03*
X777240Y357378D03*
D10*
X909320Y238760D03*
X91440Y127000D03*
D11*
X261811Y200152D02*
X279718Y200152D01*
X154750Y200152D02*
X136843Y200152D01*
X261811Y150368D02*
X279718Y150368D01*
X154750Y150368D02*
X136843Y150368D01*
D12*
X208280Y220218D03*
X208280Y130302D03*
D11*
X708343Y152908D02*
X726250Y152908D01*
X833311Y152908D02*
X851218Y152908D01*
X726250Y202692D02*
X708343Y202692D01*
X833311Y202692D02*
X851218Y202692D01*
D12*
X779780Y132842D03*
X779780Y222758D03*
D10*
X83820Y231140D03*
X91440Y345440D03*
D13*
X134620Y243840D03*
X850900Y246380D03*
D10*
X960120Y426720D03*
X934720Y426720D03*
X909320Y426720D03*
X883920Y426720D03*
D14*
X424980Y375920D03*
X444980Y375920D03*
X464980Y375920D03*
X484980Y375920D03*
X504980Y375920D03*
X524980Y375920D03*
D15*
X22860Y339344D02*
X22860Y326136D01*
X22860Y237744D02*
X22860Y224536D01*
D16*
X878840Y401320D03*
X878840Y299720D03*
X911860Y401320D03*
X911860Y299720D03*
X960120Y401320D03*
X960120Y299720D03*
D14*
X406400Y389740D03*
X406400Y409740D03*
X406400Y429740D03*
X406400Y449740D03*
X406400Y469740D03*
X406400Y489740D03*
X406400Y509740D03*
X406400Y529740D03*
D10*
X355600Y386080D03*
X355600Y411480D03*
X355600Y436880D03*
X355600Y462280D03*
X355600Y487680D03*
X355600Y513080D03*
X355600Y538480D03*
X355600Y563880D03*
D17*
X425450Y247650D03*
X342900Y304800D03*
M02*
