M48
;GenerationSoftware,Autodesk,EAGLE,9.6.1*%
;CreationDate,2020-06-12T13:44:59Z*%
FMAT,2
ICI,OFF
METRIC,TZ,000.000
T6C0.700
T5C0.800
T4C0.813
T3C1.016
T2C1.118
T1C3.302
%
G90
M71
T1
X40640Y91186
T2
X20320Y43180
X20320Y45720
X20320Y48260
X20320Y50800
X20320Y53340
X20320Y55880
X20320Y58420
X20320Y60960
X43180Y60960
X43180Y58420
X43180Y55880
X43180Y53340
X43180Y50800
X43180Y48260
X43180Y45720
X43180Y43180
X31750Y30480
X34290Y30480
X36830Y30480
X39370Y30480
T3
X38100Y76200
X40640Y76200
X43180Y76200
X25400Y30480
X22860Y30480
T4
X33020Y78740
X31115Y77470
X33020Y76200
T5
X19050Y77470
X29210Y77470
X22860Y72390
X33020Y72390
T6
X41910Y66060
X41910Y68560
M30