M48
;GenerationSoftware,Autodesk,EAGLE,9.5.1*%
;CreationDate,2020-06-01T21:24:14Z*%
FMAT,2
ICI,OFF
METRIC,TZ,000.000
T1C1.118
%
G90
M71
T1
X20320Y43180
X20320Y45720
X20320Y48260
X20320Y50800
X20320Y53340
X20320Y55880
X20320Y58420
X20320Y60960
X43180Y60960
X43180Y58420
X43180Y55880
X43180Y53340
X43180Y50800
X43180Y48260
X43180Y45720
X43180Y43180
X27940Y30480
X30480Y30480
X33020Y30480
X35560Y30480
M30