M48
;GenerationSoftware,Autodesk,EAGLE,9.6.1*%
;CreationDate,2020-06-11T03:49:01Z*%
FMAT,2
ICI,OFF
METRIC,TZ,000.000
T4C0.700
T3C1.016
T2C1.118
T1C3.302
%
G90
M71
T1
X27940Y84836
T2
X20320Y43180
X20320Y45720
X20320Y48260
X20320Y50800
X20320Y53340
X20320Y55880
X20320Y58420
X20320Y60960
X43180Y60960
X43180Y58420
X43180Y55880
X43180Y53340
X43180Y50800
X43180Y48260
X43180Y45720
X43180Y43180
X27940Y30480
X30480Y30480
X33020Y30480
X35560Y30480
T3
X25400Y69850
X27940Y69850
X30480Y69850
T4
X40660Y67310
X43160Y67310
M30