G04 EAGLE Gerber RS-274X export*
G75*
%MOMM*%
%FSLAX34Y34*%
%LPD*%
%INBottom Copper*%
%IPPOS*%
%AMOC8*
5,1,8,0,0,1.08239X$1,22.5*%
G01*
%ADD10C,1.879600*%
%ADD11C,1.790700*%
%ADD12P,1.429621X8X112.500000*%
%ADD13C,2.000000*%
%ADD14C,1.524000*%
%ADD15R,1.651000X1.651000*%
%ADD16C,1.651000*%
%ADD17C,0.304800*%
%ADD18C,0.254000*%
%ADD19C,1.066800*%


D10*
X444500Y182880D03*
X419100Y182880D03*
X393700Y182880D03*
X368300Y182880D03*
X342900Y182880D03*
X317500Y182880D03*
X292100Y182880D03*
X266700Y182880D03*
X241300Y182880D03*
X215900Y182880D03*
X190500Y182880D03*
X165100Y182880D03*
X139700Y182880D03*
X114300Y182880D03*
X88900Y182880D03*
X88900Y30480D03*
X114300Y30480D03*
X139700Y30480D03*
X165100Y30480D03*
X190500Y30480D03*
X215900Y30480D03*
X241300Y30480D03*
X266700Y30480D03*
X292100Y30480D03*
X317500Y30480D03*
X342900Y30480D03*
X368300Y30480D03*
X393700Y30480D03*
X419100Y30480D03*
X444500Y30480D03*
X916940Y134620D03*
X916940Y109220D03*
X916940Y83820D03*
X916940Y58420D03*
X622300Y25400D03*
X571500Y25400D03*
X406400Y660400D03*
X431800Y660400D03*
X457200Y660400D03*
X482600Y660400D03*
X508000Y660400D03*
X533400Y660400D03*
X558800Y660400D03*
X584200Y660400D03*
X609600Y660400D03*
X635000Y660400D03*
X660400Y660400D03*
X685800Y660400D03*
X711200Y660400D03*
X736600Y660400D03*
X762000Y660400D03*
X762000Y812800D03*
X736600Y812800D03*
X711200Y812800D03*
X685800Y812800D03*
X660400Y812800D03*
X635000Y812800D03*
X609600Y812800D03*
X584200Y812800D03*
X558800Y812800D03*
X533400Y812800D03*
X508000Y812800D03*
X482600Y812800D03*
X457200Y812800D03*
X431800Y812800D03*
X406400Y812800D03*
X457200Y609600D03*
X482600Y609600D03*
X508000Y609600D03*
X533400Y609600D03*
X558800Y609600D03*
X660400Y609600D03*
X685800Y609600D03*
X711200Y609600D03*
X736600Y609600D03*
X762000Y609600D03*
D11*
X373698Y807212D02*
X355791Y807212D01*
X248730Y807212D02*
X230823Y807212D01*
X355791Y757428D02*
X373698Y757428D01*
X248730Y757428D02*
X230823Y757428D01*
X830263Y759968D02*
X848170Y759968D01*
X955231Y759968D02*
X973138Y759968D01*
X848170Y809752D02*
X830263Y809752D01*
X955231Y809752D02*
X973138Y809752D01*
D10*
X347980Y91440D03*
X322580Y91440D03*
X297180Y91440D03*
X271780Y91440D03*
X246380Y91440D03*
X220980Y91440D03*
X195580Y91440D03*
X170180Y91440D03*
X144780Y91440D03*
X119380Y91440D03*
X93980Y91440D03*
X358140Y561340D03*
X383540Y561340D03*
X408940Y561340D03*
X434340Y561340D03*
X459740Y561340D03*
X485140Y561340D03*
X510540Y561340D03*
X535940Y561340D03*
X561340Y561340D03*
X586740Y561340D03*
X612140Y561340D03*
X637540Y561340D03*
X662940Y561340D03*
X688340Y561340D03*
X713740Y561340D03*
X96520Y223520D03*
X121920Y223520D03*
X147320Y223520D03*
X172720Y223520D03*
X198120Y223520D03*
X223520Y223520D03*
X248920Y223520D03*
X274320Y223520D03*
X299720Y223520D03*
X325120Y223520D03*
X350520Y223520D03*
X375920Y223520D03*
X401320Y223520D03*
X426720Y223520D03*
X452120Y223520D03*
X20320Y223520D03*
X45720Y223520D03*
X71120Y223520D03*
X281940Y561340D03*
X307340Y561340D03*
X332740Y561340D03*
X66040Y734060D03*
X66040Y708660D03*
X66040Y683260D03*
X502920Y223520D03*
X528320Y223520D03*
X553720Y223520D03*
X604520Y223520D03*
X579120Y223520D03*
X147320Y614680D03*
X147320Y589280D03*
X73660Y251460D03*
X73660Y276860D03*
X73660Y302260D03*
X73660Y327660D03*
X73660Y353060D03*
X73660Y378460D03*
X73660Y403860D03*
X73660Y429260D03*
X73660Y454660D03*
X73660Y480060D03*
X73660Y505460D03*
X73660Y530860D03*
X73660Y556260D03*
X73660Y581660D03*
X73660Y607060D03*
X190500Y698500D03*
X190500Y635000D03*
X962660Y223520D03*
X937260Y223520D03*
X911860Y223520D03*
X886460Y223520D03*
X861060Y223520D03*
X835660Y223520D03*
X810260Y223520D03*
X784860Y223520D03*
X759460Y223520D03*
X734060Y223520D03*
X708660Y223520D03*
X683260Y223520D03*
X657860Y223520D03*
X632460Y223520D03*
X744220Y561340D03*
X769620Y561340D03*
X795020Y561340D03*
X820420Y561340D03*
X845820Y561340D03*
X871220Y561340D03*
X896620Y561340D03*
X922020Y561340D03*
X947420Y561340D03*
X972820Y561340D03*
X637540Y759460D03*
X612140Y759460D03*
X586740Y759460D03*
X561340Y759460D03*
X22860Y561340D03*
X48260Y561340D03*
X73660Y561340D03*
X99060Y561340D03*
X124460Y561340D03*
X149860Y561340D03*
X175260Y561340D03*
X200660Y561340D03*
X226060Y561340D03*
X251460Y561340D03*
X147320Y640080D03*
X147320Y665480D03*
X147320Y690880D03*
X147320Y716280D03*
X147320Y741680D03*
X147320Y767080D03*
X147320Y792480D03*
X147320Y817880D03*
X20320Y187960D03*
X20320Y162560D03*
X20320Y137160D03*
X20320Y111760D03*
X20320Y86360D03*
X20320Y60960D03*
D12*
X828040Y66040D03*
X808990Y53340D03*
X828040Y40640D03*
D13*
X612140Y124460D03*
X764540Y124460D03*
D10*
X477520Y223520D03*
X490220Y142240D03*
X490220Y116840D03*
X490220Y91440D03*
X515620Y91440D03*
X515620Y116840D03*
X515620Y142240D03*
X721360Y60960D03*
X746760Y60960D03*
D13*
X764540Y175260D03*
X612140Y175260D03*
D10*
X858520Y167640D03*
X833120Y167640D03*
X807720Y167640D03*
X533400Y30480D03*
X508000Y30480D03*
X482600Y30480D03*
X604520Y73660D03*
X579120Y73660D03*
X919480Y322580D03*
X919480Y347980D03*
X919480Y373380D03*
X919480Y398780D03*
X919480Y424180D03*
X919480Y449580D03*
X419100Y419100D03*
X419100Y393700D03*
X419100Y368300D03*
X419100Y342900D03*
X419100Y317500D03*
X419100Y292100D03*
X698500Y495300D03*
X673100Y495300D03*
X647700Y495300D03*
X622300Y495300D03*
X596900Y495300D03*
X571500Y495300D03*
X546100Y495300D03*
X520700Y495300D03*
X520700Y266700D03*
X546100Y266700D03*
X571500Y266700D03*
X596900Y266700D03*
X622300Y266700D03*
X647700Y266700D03*
X673100Y266700D03*
X698500Y266700D03*
X861060Y304800D03*
X886460Y304800D03*
X393700Y292100D03*
X393700Y317500D03*
X393700Y342900D03*
X393700Y368300D03*
X393700Y393700D03*
X393700Y419100D03*
X368300Y292100D03*
X368300Y317500D03*
X368300Y342900D03*
X368300Y368300D03*
X368300Y393700D03*
X368300Y419100D03*
X454660Y502920D03*
X454660Y477520D03*
X419100Y444500D03*
X157480Y279400D03*
X157480Y304800D03*
X157480Y330200D03*
X157480Y355600D03*
X284480Y342900D03*
X284480Y368300D03*
X284480Y393700D03*
X254000Y393700D03*
X254000Y368300D03*
X254000Y342900D03*
X858520Y368300D03*
X883920Y368300D03*
D11*
X376238Y672592D02*
X358331Y672592D01*
X251270Y672592D02*
X233363Y672592D01*
X358331Y622808D02*
X376238Y622808D01*
X251270Y622808D02*
X233363Y622808D01*
X830263Y622808D02*
X848170Y622808D01*
X955231Y622808D02*
X973138Y622808D01*
X848170Y672592D02*
X830263Y672592D01*
X955231Y672592D02*
X973138Y672592D01*
D14*
X218440Y462280D02*
X203200Y462280D01*
X203200Y487680D02*
X218440Y487680D01*
X218440Y513080D02*
X203200Y513080D01*
D15*
X274320Y487480D03*
D16*
X274320Y462480D03*
D10*
X114300Y406400D03*
X114300Y381000D03*
X114300Y355600D03*
X114300Y330200D03*
X114300Y304800D03*
X114300Y279400D03*
D17*
X721360Y60960D02*
X825500Y165100D01*
X831850Y165100D01*
X833120Y167640D01*
X34925Y76200D02*
X22225Y63500D01*
X34925Y107950D02*
X34925Y111125D01*
X34925Y107950D02*
X34925Y76200D01*
X34925Y111125D02*
X22225Y111125D01*
X22225Y63500D02*
X20320Y60960D01*
X22225Y111125D02*
X20320Y111760D01*
X368300Y92075D02*
X488950Y92075D01*
X368300Y92075D02*
X349250Y92075D01*
X347980Y91440D01*
X488950Y92075D02*
X490220Y91440D01*
X368300Y92075D02*
X368300Y107950D01*
X368300Y182880D01*
X368300Y107950D02*
X34925Y107950D01*
X565150Y88900D02*
X577850Y76200D01*
X565150Y88900D02*
X517525Y88900D01*
X577850Y76200D02*
X579120Y73660D01*
X517525Y88900D02*
X515620Y91440D01*
X695325Y88900D02*
X720725Y63500D01*
X695325Y88900D02*
X565150Y88900D01*
X720725Y63500D02*
X721360Y60960D01*
D18*
X317500Y168275D02*
X273050Y123825D01*
X317500Y168275D02*
X317500Y182880D01*
D19*
X273050Y123825D03*
D18*
X241300Y184150D02*
X254000Y196850D01*
X460375Y196850D01*
X514350Y142875D01*
X241300Y182880D02*
X241300Y184150D01*
X514350Y142875D02*
X515620Y142240D01*
X215900Y180975D02*
X155575Y120650D01*
X215900Y180975D02*
X215900Y182880D01*
D19*
X155575Y120650D03*
D18*
X85725Y203200D02*
X22225Y139700D01*
X85725Y203200D02*
X584200Y203200D01*
X596900Y190500D02*
X612140Y175260D01*
X596900Y190500D02*
X593725Y193675D01*
X584200Y203200D01*
X22225Y139700D02*
X20320Y137160D01*
X517525Y117475D02*
X593725Y193675D01*
X517525Y117475D02*
X515620Y116840D01*
X784225Y190500D02*
X806450Y168275D01*
X784225Y190500D02*
X596900Y190500D01*
X806450Y168275D02*
X807720Y167640D01*
X285750Y180975D02*
X266700Y161925D01*
X285750Y180975D02*
X292100Y180975D01*
X292100Y182880D01*
D19*
X266700Y161925D03*
D18*
X298450Y133350D02*
X342900Y177800D01*
X342900Y182880D01*
X520700Y15875D02*
X533400Y28575D01*
X520700Y15875D02*
X82550Y15875D01*
X73025Y25400D01*
X73025Y76200D01*
X206375Y76200D01*
X219075Y88900D01*
X533400Y30480D02*
X533400Y28575D01*
X220980Y91440D02*
X219075Y88900D01*
D19*
X298450Y133350D03*
D18*
X298450Y88900D02*
X342900Y44450D01*
X469900Y44450D01*
X482600Y31750D01*
X298450Y88900D02*
X297180Y91440D01*
X482600Y31750D02*
X482600Y30480D01*
X603250Y44450D02*
X622300Y25400D01*
X603250Y44450D02*
X469900Y44450D01*
X612775Y762000D02*
X641350Y790575D01*
X663575Y790575D01*
X685800Y812800D01*
X612775Y762000D02*
X612140Y759460D01*
X835025Y676275D02*
X838200Y673100D01*
X777875Y676275D02*
X752475Y676275D01*
X777875Y676275D02*
X835025Y676275D01*
X752475Y676275D02*
X736600Y660400D01*
X838200Y673100D02*
X839216Y672592D01*
X777875Y676275D02*
X663575Y790575D01*
X381000Y609600D02*
X368300Y622300D01*
X381000Y609600D02*
X457200Y609600D01*
X368300Y622300D02*
X367284Y622808D01*
X209550Y717550D02*
X190500Y698500D01*
X209550Y717550D02*
X323850Y717550D01*
X352425Y746125D02*
X361950Y755650D01*
X352425Y746125D02*
X323850Y717550D01*
X361950Y755650D02*
X364744Y757428D01*
X644525Y625475D02*
X660400Y609600D01*
X644525Y625475D02*
X473075Y625475D01*
X457200Y609600D01*
X596900Y746125D02*
X609600Y758825D01*
X596900Y746125D02*
X352425Y746125D01*
X609600Y758825D02*
X612140Y759460D01*
X482600Y609600D02*
X498475Y593725D01*
X669925Y593725D01*
X685800Y609600D01*
X193675Y638175D02*
X190500Y635000D01*
X193675Y638175D02*
X323850Y638175D01*
X368300Y593725D01*
X498475Y593725D01*
X685800Y609600D02*
X685800Y660400D01*
X638175Y676275D02*
X638175Y758825D01*
X638175Y676275D02*
X669925Y676275D01*
X685800Y660400D01*
X638175Y758825D02*
X637540Y759460D01*
X374650Y796925D02*
X365125Y806450D01*
X374650Y796925D02*
X644525Y796925D01*
X660400Y812800D01*
X365125Y806450D02*
X364744Y807212D01*
X771525Y828675D02*
X838200Y762000D01*
X771525Y828675D02*
X650875Y828675D01*
X635000Y812800D01*
X838200Y762000D02*
X839216Y759968D01*
X762000Y812800D02*
X733425Y784225D01*
D19*
X733425Y784225D03*
D18*
X698500Y495300D02*
X742950Y450850D01*
X917575Y450850D01*
X919480Y449580D01*
X139700Y304800D02*
X114300Y279400D01*
X139700Y304800D02*
X157480Y304800D01*
X139700Y304800D02*
X114300Y330200D01*
X212725Y463550D02*
X273050Y463550D01*
X212725Y463550D02*
X210820Y462280D01*
X273050Y463550D02*
X274320Y462480D01*
X276225Y460375D02*
X288925Y447675D01*
X339725Y447675D01*
X368300Y419100D01*
X276225Y460375D02*
X274320Y462480D01*
X682625Y511175D02*
X698500Y495300D01*
X682625Y511175D02*
X508000Y511175D01*
X457200Y460375D01*
X409575Y460375D01*
X368300Y419100D01*
X885825Y368300D02*
X914400Y396875D01*
X917575Y396875D01*
X885825Y368300D02*
X883920Y368300D01*
X917575Y396875D02*
X919480Y398780D01*
X520700Y266700D02*
X511175Y276225D01*
X409575Y276225D01*
X393700Y292100D01*
X673100Y495300D02*
X819150Y349250D01*
X917575Y349250D01*
X919480Y347980D01*
X822325Y320675D02*
X647700Y495300D01*
X822325Y320675D02*
X901700Y320675D01*
X914400Y307975D01*
X923925Y307975D01*
X933450Y317500D01*
X933450Y371475D01*
X920750Y371475D01*
X919480Y373380D01*
X327025Y434975D02*
X285750Y393700D01*
X284480Y393700D01*
X495300Y444500D02*
X546100Y495300D01*
X495300Y444500D02*
X419100Y444500D01*
D19*
X327025Y434975D03*
D18*
X273050Y488950D02*
X212725Y488950D01*
X210820Y487680D01*
X273050Y488950D02*
X274320Y487480D01*
X276225Y485775D02*
X282575Y479425D01*
X454025Y479425D01*
X276225Y485775D02*
X274320Y487480D01*
X454025Y479425D02*
X454660Y477520D01*
X571500Y285750D02*
X571500Y266700D01*
X571500Y285750D02*
X568325Y285750D01*
X473075Y381000D01*
X457200Y381000D01*
X419100Y419100D01*
X473075Y393700D02*
X596900Y269875D01*
X596900Y266700D01*
D19*
X473075Y393700D03*
D18*
X123825Y371475D02*
X114300Y381000D01*
X123825Y371475D02*
X206375Y371475D01*
X327025Y250825D01*
X606425Y250825D01*
X619125Y263525D01*
X514350Y368300D01*
X619125Y263525D02*
X622300Y266700D01*
D19*
X514350Y368300D03*
D18*
X114300Y406400D02*
X98425Y390525D01*
X98425Y244475D01*
X625475Y244475D01*
X647700Y266700D01*
X425450Y285750D02*
X419100Y292100D01*
X425450Y285750D02*
X552450Y285750D01*
D19*
X552450Y285750D03*
M02*
