G04 EAGLE Gerber RS-274X export*
G75*
%MOMM*%
%FSLAX34Y34*%
%LPD*%
%INSilkscreen Top*%
%IPPOS*%
%AMOC8*
5,1,8,0,0,1.08239X$1,22.5*%
G01*
%ADD10C,0.203200*%
%ADD11C,0.152400*%
%ADD12C,0.228600*%
%ADD13C,0.101600*%
%ADD14C,0.050800*%
%ADD15C,0.127000*%
%ADD16R,2.159000X0.508000*%
%ADD17R,0.850000X0.812800*%
%ADD18R,0.889000X1.270000*%


D10*
X569976Y53350D02*
X585568Y53350D01*
D11*
X605282Y57672D02*
X616129Y57672D01*
X616129Y54960D01*
X605282Y44114D01*
X605282Y41402D01*
X621654Y46825D02*
X621654Y57672D01*
X621654Y46825D02*
X627077Y41402D01*
X632500Y46825D01*
X632500Y57672D01*
D12*
X82423Y107823D02*
X82423Y133499D01*
X82423Y107823D02*
X99540Y107823D01*
X108150Y107823D02*
X108150Y133499D01*
X120988Y133499D01*
X125267Y129220D01*
X125267Y120661D01*
X120988Y116382D01*
X108150Y116382D01*
X116708Y116382D02*
X125267Y107823D01*
X133877Y112102D02*
X133877Y133499D01*
X133877Y112102D02*
X138156Y107823D01*
X146715Y107823D01*
X150994Y112102D01*
X150994Y133499D01*
X159603Y133499D02*
X159603Y107823D01*
X172441Y107823D01*
X176721Y112102D01*
X176721Y129220D01*
X172441Y133499D01*
X159603Y133499D01*
X185330Y133499D02*
X202447Y133499D01*
X185330Y133499D02*
X185330Y107823D01*
X202447Y107823D01*
X193889Y120661D02*
X185330Y120661D01*
X211057Y107823D02*
X211057Y133499D01*
X223895Y133499D01*
X228174Y129220D01*
X228174Y120661D01*
X223895Y116382D01*
X211057Y116382D01*
X249622Y133499D02*
X253901Y129220D01*
X249622Y133499D02*
X241063Y133499D01*
X236784Y129220D01*
X236784Y112102D01*
X241063Y107823D01*
X249622Y107823D01*
X253901Y112102D01*
X271069Y107823D02*
X271069Y133499D01*
X262510Y133499D02*
X279628Y133499D01*
X288237Y133499D02*
X305355Y133499D01*
X305355Y129220D01*
X288237Y112102D01*
X288237Y107823D01*
X313964Y133499D02*
X331081Y133499D01*
X313964Y133499D02*
X313964Y120661D01*
X322523Y124940D01*
X326802Y124940D01*
X331081Y120661D01*
X331081Y112102D01*
X326802Y107823D01*
X318243Y107823D01*
X313964Y112102D01*
X352529Y133499D02*
X356808Y129220D01*
X352529Y133499D02*
X343970Y133499D01*
X339691Y129220D01*
X339691Y112102D01*
X343970Y107823D01*
X352529Y107823D01*
X356808Y112102D01*
X356808Y120661D01*
X348249Y120661D01*
D13*
X455158Y90125D02*
X457107Y92074D01*
X455158Y90125D02*
X455158Y86227D01*
X457107Y84278D01*
X464903Y84278D01*
X466852Y86227D01*
X466852Y90125D01*
X464903Y92074D01*
X461005Y92074D01*
X461005Y88176D01*
X462954Y107666D02*
X455158Y107666D01*
X462954Y107666D02*
X466852Y111564D01*
X462954Y115462D01*
X455158Y115462D01*
X455158Y131054D02*
X466852Y131054D01*
X466852Y136901D01*
X464903Y138850D01*
X457107Y138850D01*
X455158Y136901D01*
X455158Y131054D01*
D11*
X182805Y731871D02*
X179840Y734837D01*
X173908Y734837D01*
X170942Y731871D01*
X170942Y720008D01*
X173908Y717042D01*
X179840Y717042D01*
X182805Y720008D01*
X182805Y725940D01*
X176874Y725940D01*
X188717Y734837D02*
X188717Y717042D01*
X200580Y717042D02*
X188717Y734837D01*
X200580Y734837D02*
X200580Y717042D01*
X206492Y717042D02*
X206492Y734837D01*
X206492Y717042D02*
X215389Y717042D01*
X218355Y720008D01*
X218355Y731871D01*
X215389Y734837D01*
X206492Y734837D01*
X187885Y617997D02*
X176022Y617997D01*
X176022Y609100D01*
X181954Y612065D01*
X184920Y612065D01*
X187885Y609100D01*
X187885Y603168D01*
X184920Y600202D01*
X178988Y600202D01*
X176022Y603168D01*
X193797Y606134D02*
X193797Y617997D01*
X193797Y606134D02*
X199729Y600202D01*
X205660Y606134D01*
X205660Y617997D01*
X564642Y711962D02*
X564642Y729757D01*
X564642Y720860D02*
X576505Y720860D01*
X576505Y729757D02*
X576505Y711962D01*
X594280Y726791D02*
X591314Y729757D01*
X585383Y729757D01*
X582417Y726791D01*
X582417Y714928D01*
X585383Y711962D01*
X591314Y711962D01*
X594280Y714928D01*
X600192Y720860D02*
X612055Y720860D01*
X617967Y714928D02*
X617967Y726791D01*
X620932Y729757D01*
X626864Y729757D01*
X629830Y726791D01*
X629830Y714928D01*
X626864Y711962D01*
X620932Y711962D01*
X617967Y714928D01*
X629830Y726791D01*
X641673Y726791D02*
X647605Y729757D01*
X641673Y726791D02*
X635741Y720860D01*
X635741Y714928D01*
X638707Y711962D01*
X644639Y711962D01*
X647605Y714928D01*
X647605Y717894D01*
X644639Y720860D01*
X635741Y720860D01*
X314460Y351297D02*
X317425Y348331D01*
X314460Y351297D02*
X308528Y351297D01*
X305562Y348331D01*
X305562Y336468D01*
X308528Y333502D01*
X314460Y333502D01*
X317425Y336468D01*
X317425Y342400D01*
X311494Y342400D01*
X323337Y351297D02*
X323337Y333502D01*
X335200Y333502D02*
X323337Y351297D01*
X335200Y351297D02*
X335200Y333502D01*
X407162Y539257D02*
X419025Y539257D01*
X407162Y539257D02*
X407162Y521462D01*
X419025Y521462D01*
X413094Y530360D02*
X407162Y530360D01*
X433834Y539257D02*
X436800Y536291D01*
X433834Y539257D02*
X427903Y539257D01*
X424937Y536291D01*
X424937Y533325D01*
X427903Y530360D01*
X433834Y530360D01*
X436800Y527394D01*
X436800Y524428D01*
X433834Y521462D01*
X427903Y521462D01*
X424937Y524428D01*
X442712Y521462D02*
X442712Y539257D01*
X451609Y539257D01*
X454575Y536291D01*
X454575Y530360D01*
X451609Y527394D01*
X442712Y527394D01*
X460487Y536291D02*
X463452Y539257D01*
X469384Y539257D01*
X472350Y536291D01*
X472350Y533325D01*
X469384Y530360D01*
X466418Y530360D01*
X469384Y530360D02*
X472350Y527394D01*
X472350Y524428D01*
X469384Y521462D01*
X463452Y521462D01*
X460487Y524428D01*
X478261Y521462D02*
X490125Y521462D01*
X490125Y533325D02*
X478261Y521462D01*
X490125Y533325D02*
X490125Y536291D01*
X487159Y539257D01*
X481227Y539257D01*
X478261Y536291D01*
X522709Y539257D02*
X525675Y536291D01*
X522709Y539257D02*
X516777Y539257D01*
X513811Y536291D01*
X513811Y524428D01*
X516777Y521462D01*
X522709Y521462D01*
X525675Y524428D01*
X534552Y533325D02*
X540484Y533325D01*
X543449Y530360D01*
X543449Y521462D01*
X534552Y521462D01*
X531586Y524428D01*
X534552Y527394D01*
X543449Y527394D01*
X549361Y521462D02*
X549361Y533325D01*
X552327Y533325D01*
X555292Y530360D01*
X555292Y521462D01*
X555292Y530360D02*
X558258Y533325D01*
X561224Y530360D01*
X561224Y521462D01*
X587876Y524428D02*
X587876Y536291D01*
X587876Y524428D02*
X590842Y521462D01*
X590842Y533325D02*
X584910Y533325D01*
X599726Y521462D02*
X605658Y521462D01*
X608624Y524428D01*
X608624Y530360D01*
X605658Y533325D01*
X599726Y533325D01*
X596760Y530360D01*
X596760Y524428D01*
X599726Y521462D01*
X632310Y515530D02*
X632310Y533325D01*
X641208Y533325D01*
X644174Y530360D01*
X644174Y524428D01*
X641208Y521462D01*
X632310Y521462D01*
X650085Y521462D02*
X650085Y533325D01*
X650085Y527394D02*
X656017Y533325D01*
X658982Y533325D01*
X667863Y521462D02*
X673795Y521462D01*
X676761Y524428D01*
X676761Y530360D01*
X673795Y533325D01*
X667863Y533325D01*
X664897Y530360D01*
X664897Y524428D01*
X667863Y521462D01*
X688604Y515530D02*
X691570Y515530D01*
X694536Y518496D01*
X694536Y533325D01*
X685638Y533325D01*
X682672Y530360D01*
X682672Y524428D01*
X685638Y521462D01*
X694536Y521462D01*
X700447Y521462D02*
X700447Y533325D01*
X700447Y527394D02*
X706379Y533325D01*
X709345Y533325D01*
X718225Y533325D02*
X724157Y533325D01*
X727123Y530360D01*
X727123Y521462D01*
X718225Y521462D01*
X715259Y524428D01*
X718225Y527394D01*
X727123Y527394D01*
X733034Y533325D02*
X733034Y521462D01*
X733034Y533325D02*
X736000Y533325D01*
X738966Y530360D01*
X738966Y521462D01*
X738966Y530360D02*
X741932Y533325D01*
X744898Y530360D01*
X744898Y521462D01*
X750809Y521462D02*
X750809Y533325D01*
X753775Y533325D01*
X756741Y530360D01*
X756741Y521462D01*
X756741Y530360D02*
X759707Y533325D01*
X762672Y530360D01*
X762672Y521462D01*
X771550Y521462D02*
X777481Y521462D01*
X771550Y521462D02*
X768584Y524428D01*
X768584Y530360D01*
X771550Y533325D01*
X777481Y533325D01*
X780447Y530360D01*
X780447Y527394D01*
X768584Y527394D01*
X786359Y521462D02*
X786359Y533325D01*
X786359Y527394D02*
X792290Y533325D01*
X795256Y533325D01*
X821912Y533325D02*
X827844Y533325D01*
X830809Y530360D01*
X830809Y521462D01*
X821912Y521462D01*
X818946Y524428D01*
X821912Y527394D01*
X830809Y527394D01*
X836721Y521462D02*
X836721Y533325D01*
X845618Y533325D01*
X848584Y530360D01*
X848584Y521462D01*
X866359Y521462D02*
X866359Y539257D01*
X866359Y521462D02*
X857461Y521462D01*
X854496Y524428D01*
X854496Y530360D01*
X857461Y533325D01*
X866359Y533325D01*
X890045Y539257D02*
X890045Y521462D01*
X898943Y521462D01*
X901909Y524428D01*
X901909Y530360D01*
X898943Y533325D01*
X890045Y533325D01*
X907820Y533325D02*
X907820Y521462D01*
X907820Y527394D02*
X913752Y533325D01*
X916718Y533325D01*
X925598Y521462D02*
X931530Y521462D01*
X925598Y521462D02*
X922633Y524428D01*
X922633Y530360D01*
X925598Y533325D01*
X931530Y533325D01*
X934496Y530360D01*
X934496Y527394D01*
X922633Y527394D01*
X943373Y533325D02*
X949305Y533325D01*
X952271Y530360D01*
X952271Y521462D01*
X943373Y521462D01*
X940407Y524428D01*
X943373Y527394D01*
X952271Y527394D01*
X958182Y521462D02*
X958182Y539257D01*
X958182Y527394D02*
X967080Y521462D01*
X958182Y527394D02*
X967080Y533325D01*
X975960Y521462D02*
X981892Y521462D01*
X984858Y524428D01*
X984858Y530360D01*
X981892Y533325D01*
X975960Y533325D01*
X972995Y530360D01*
X972995Y524428D01*
X975960Y521462D01*
X990769Y524428D02*
X990769Y533325D01*
X990769Y524428D02*
X993735Y521462D01*
X1002633Y521462D01*
X1002633Y533325D01*
X1011510Y536291D02*
X1011510Y524428D01*
X1014476Y521462D01*
X1014476Y533325D02*
X1008544Y533325D01*
X674724Y128793D02*
X668792Y122861D01*
X674724Y128793D02*
X674724Y110998D01*
X668792Y110998D02*
X680656Y110998D01*
X686567Y110998D02*
X686567Y128793D01*
X686567Y116930D02*
X698431Y128793D01*
X689533Y119896D02*
X698431Y110998D01*
X948168Y10344D02*
X959015Y10344D01*
X964438Y15767D01*
X959015Y21191D01*
X948168Y21191D01*
X948168Y51222D02*
X950880Y53934D01*
X948168Y51222D02*
X948168Y45799D01*
X950880Y43087D01*
X961726Y43087D01*
X964438Y45799D01*
X964438Y51222D01*
X961726Y53934D01*
X956303Y53934D01*
X956303Y48510D01*
X964438Y75830D02*
X948168Y75830D01*
X948168Y83965D01*
X950880Y86677D01*
X956303Y86677D01*
X959015Y83965D01*
X959015Y75830D01*
X959015Y81254D02*
X964438Y86677D01*
X683201Y29307D02*
X680235Y32273D01*
X674303Y32273D01*
X671337Y29307D01*
X671337Y17444D01*
X674303Y14478D01*
X680235Y14478D01*
X683201Y17444D01*
X683201Y23376D01*
X677269Y23376D01*
X689112Y32273D02*
X689112Y14478D01*
X700976Y14478D02*
X689112Y32273D01*
X700976Y32273D02*
X700976Y14478D01*
X706887Y14478D02*
X706887Y32273D01*
X706887Y14478D02*
X715785Y14478D01*
X718751Y17444D01*
X718751Y29307D01*
X715785Y32273D01*
X706887Y32273D01*
X728067Y11938D02*
X733999Y11938D01*
X731033Y11938D02*
X731033Y29733D01*
X728067Y29733D02*
X733999Y29733D01*
X739917Y29733D02*
X739917Y11938D01*
X739917Y29733D02*
X748815Y29733D01*
X751781Y26767D01*
X751781Y20836D01*
X748815Y17870D01*
X739917Y17870D01*
X745849Y17870D02*
X751781Y11938D01*
X763624Y11938D02*
X763624Y29733D01*
X757692Y29733D02*
X769556Y29733D01*
X775467Y29733D02*
X787331Y11938D01*
X775467Y11938D02*
X787331Y29733D01*
X634956Y161798D02*
X623093Y161798D01*
X634956Y173661D01*
X634956Y176627D01*
X631990Y179593D01*
X626059Y179593D01*
X623093Y176627D01*
X640868Y176627D02*
X640868Y164764D01*
X640868Y176627D02*
X643833Y179593D01*
X649765Y179593D01*
X652731Y176627D01*
X652731Y164764D01*
X649765Y161798D01*
X643833Y161798D01*
X640868Y164764D01*
X652731Y176627D01*
X658642Y176627D02*
X658642Y164764D01*
X658642Y176627D02*
X661608Y179593D01*
X667540Y179593D01*
X670506Y176627D01*
X670506Y164764D01*
X667540Y161798D01*
X661608Y161798D01*
X658642Y164764D01*
X670506Y176627D01*
X679383Y161798D02*
X685315Y161798D01*
X688281Y164764D01*
X688281Y170696D01*
X685315Y173661D01*
X679383Y173661D01*
X676417Y170696D01*
X676417Y164764D01*
X679383Y161798D01*
X694192Y161798D02*
X694192Y179593D01*
X697158Y173661D02*
X694192Y170696D01*
X697158Y173661D02*
X703090Y173661D01*
X706056Y170696D01*
X706056Y161798D01*
X711967Y161798D02*
X711967Y173661D01*
X714933Y173661D01*
X717899Y170696D01*
X717899Y161798D01*
X717899Y170696D02*
X720865Y173661D01*
X723830Y170696D01*
X723830Y161798D01*
X778028Y132596D02*
X789891Y132596D01*
X783959Y138527D02*
X783959Y126664D01*
X813577Y132596D02*
X825441Y132596D01*
X849127Y141493D02*
X849127Y123698D01*
X858025Y123698D01*
X860991Y126664D01*
X860991Y138527D01*
X858025Y141493D01*
X849127Y141493D01*
X491669Y189752D02*
X480822Y189752D01*
X480822Y181617D01*
X486245Y184329D01*
X488957Y184329D01*
X491669Y181617D01*
X491669Y176194D01*
X488957Y173482D01*
X483534Y173482D01*
X480822Y176194D01*
X518988Y187040D02*
X524412Y189752D01*
X518988Y187040D02*
X513565Y181617D01*
X513565Y176194D01*
X516277Y173482D01*
X521700Y173482D01*
X524412Y176194D01*
X524412Y178905D01*
X521700Y181617D01*
X513565Y181617D01*
X478969Y62752D02*
X468122Y62752D01*
X478969Y62752D02*
X478969Y60040D01*
X468122Y49194D01*
X468122Y46482D01*
X484494Y57329D02*
X489917Y46482D01*
X495340Y57329D01*
X525372Y62752D02*
X528083Y60040D01*
X525372Y62752D02*
X519948Y62752D01*
X517237Y60040D01*
X517237Y49194D01*
X519948Y46482D01*
X525372Y46482D01*
X528083Y49194D01*
X528083Y54617D01*
X522660Y54617D01*
X549980Y62752D02*
X549980Y46482D01*
X558115Y46482D01*
X560826Y49194D01*
X560826Y60040D01*
X558115Y62752D01*
X549980Y62752D01*
X566351Y46482D02*
X577198Y46482D01*
X566351Y46482D02*
X577198Y57329D01*
X577198Y60040D01*
X574486Y62752D01*
X569063Y62752D01*
X566351Y60040D01*
D10*
X50966Y56896D02*
X31476Y56896D01*
X50966Y56896D02*
X54864Y60794D01*
X54864Y68590D01*
X50966Y72488D01*
X31476Y72488D01*
X31476Y80284D02*
X54864Y80284D01*
X54864Y91978D01*
X50966Y95876D01*
X35374Y95876D01*
X31476Y91978D01*
X31476Y80284D01*
X31476Y115366D02*
X35374Y119264D01*
X31476Y115366D02*
X31476Y107570D01*
X35374Y103672D01*
X50966Y103672D01*
X54864Y107570D01*
X54864Y115366D01*
X50966Y119264D01*
X43170Y119264D01*
X43170Y111468D01*
X31476Y127060D02*
X31476Y142652D01*
X31476Y127060D02*
X43170Y127060D01*
X39272Y134856D01*
X39272Y138754D01*
X43170Y142652D01*
X50966Y142652D01*
X54864Y138754D01*
X54864Y130958D01*
X50966Y127060D01*
X54864Y150448D02*
X31476Y150448D01*
X31476Y162142D01*
X35374Y166040D01*
X43170Y166040D01*
X47068Y162142D01*
X47068Y150448D01*
X47068Y158244D02*
X54864Y166040D01*
X54864Y173836D02*
X31476Y173836D01*
X54864Y173836D02*
X54864Y189428D01*
D11*
X773803Y331978D02*
X773803Y349773D01*
X782700Y349773D01*
X785666Y346807D01*
X785666Y340876D01*
X782700Y337910D01*
X773803Y337910D01*
X791578Y331978D02*
X791578Y343841D01*
X791578Y337910D02*
X797509Y343841D01*
X800475Y343841D01*
X809356Y331978D02*
X815288Y331978D01*
X818254Y334944D01*
X818254Y340876D01*
X815288Y343841D01*
X809356Y343841D01*
X806390Y340876D01*
X806390Y334944D01*
X809356Y331978D01*
X830097Y326046D02*
X833063Y326046D01*
X836028Y329012D01*
X836028Y343841D01*
X827131Y343841D01*
X824165Y340876D01*
X824165Y334944D01*
X827131Y331978D01*
X836028Y331978D01*
X841940Y331978D02*
X841940Y343841D01*
X841940Y337910D02*
X847872Y343841D01*
X850837Y343841D01*
X859718Y343841D02*
X865650Y343841D01*
X868616Y340876D01*
X868616Y331978D01*
X859718Y331978D01*
X856752Y334944D01*
X859718Y337910D01*
X868616Y337910D01*
X874527Y343841D02*
X874527Y331978D01*
X874527Y343841D02*
X877493Y343841D01*
X880459Y340876D01*
X880459Y331978D01*
X880459Y340876D02*
X883425Y343841D01*
X886390Y340876D01*
X886390Y331978D01*
X445301Y423007D02*
X442335Y425973D01*
X436404Y425973D01*
X433438Y423007D01*
X433438Y411144D01*
X436404Y408178D01*
X442335Y408178D01*
X445301Y411144D01*
X445301Y417076D01*
X439369Y417076D01*
X451213Y425973D02*
X451213Y408178D01*
X451213Y425973D02*
X460110Y425973D01*
X463076Y423007D01*
X463076Y417076D01*
X460110Y414110D01*
X451213Y414110D01*
X468987Y408178D02*
X474919Y408178D01*
X471953Y408178D02*
X471953Y425973D01*
X468987Y425973D02*
X474919Y425973D01*
X483803Y425973D02*
X489735Y425973D01*
X483803Y425973D02*
X480837Y423007D01*
X480837Y411144D01*
X483803Y408178D01*
X489735Y408178D01*
X492701Y411144D01*
X492701Y423007D01*
X489735Y425973D01*
X498612Y420041D02*
X504544Y425973D01*
X504544Y408178D01*
X498612Y408178D02*
X510476Y408178D01*
X516387Y408178D02*
X528251Y408178D01*
X528251Y420041D02*
X516387Y408178D01*
X528251Y420041D02*
X528251Y423007D01*
X525285Y425973D01*
X519353Y425973D01*
X516387Y423007D01*
X445301Y397607D02*
X442335Y400573D01*
X436404Y400573D01*
X433438Y397607D01*
X433438Y385744D01*
X436404Y382778D01*
X442335Y382778D01*
X445301Y385744D01*
X445301Y391676D01*
X439369Y391676D01*
X451213Y400573D02*
X451213Y382778D01*
X451213Y400573D02*
X460110Y400573D01*
X463076Y397607D01*
X463076Y391676D01*
X460110Y388710D01*
X451213Y388710D01*
X468987Y382778D02*
X474919Y382778D01*
X471953Y382778D02*
X471953Y400573D01*
X468987Y400573D02*
X474919Y400573D01*
X483803Y400573D02*
X489735Y400573D01*
X483803Y400573D02*
X480837Y397607D01*
X480837Y385744D01*
X483803Y382778D01*
X489735Y382778D01*
X492701Y385744D01*
X492701Y397607D01*
X489735Y400573D01*
X498612Y394641D02*
X504544Y400573D01*
X504544Y382778D01*
X498612Y382778D02*
X510476Y382778D01*
X516387Y397607D02*
X519353Y400573D01*
X525285Y400573D01*
X528251Y397607D01*
X528251Y394641D01*
X525285Y391676D01*
X522319Y391676D01*
X525285Y391676D02*
X528251Y388710D01*
X528251Y385744D01*
X525285Y382778D01*
X519353Y382778D01*
X516387Y385744D01*
X445301Y374747D02*
X442335Y377713D01*
X436404Y377713D01*
X433438Y374747D01*
X433438Y362884D01*
X436404Y359918D01*
X442335Y359918D01*
X445301Y362884D01*
X445301Y368816D01*
X439369Y368816D01*
X451213Y377713D02*
X451213Y359918D01*
X451213Y377713D02*
X460110Y377713D01*
X463076Y374747D01*
X463076Y368816D01*
X460110Y365850D01*
X451213Y365850D01*
X468987Y359918D02*
X474919Y359918D01*
X471953Y359918D02*
X471953Y377713D01*
X468987Y377713D02*
X474919Y377713D01*
X483803Y377713D02*
X489735Y377713D01*
X483803Y377713D02*
X480837Y374747D01*
X480837Y362884D01*
X483803Y359918D01*
X489735Y359918D01*
X492701Y362884D01*
X492701Y374747D01*
X489735Y377713D01*
X498612Y371781D02*
X504544Y377713D01*
X504544Y359918D01*
X498612Y359918D02*
X510476Y359918D01*
X516387Y377713D02*
X528251Y377713D01*
X516387Y377713D02*
X516387Y368816D01*
X522319Y371781D01*
X525285Y371781D01*
X528251Y368816D01*
X528251Y362884D01*
X525285Y359918D01*
X519353Y359918D01*
X516387Y362884D01*
X445301Y349347D02*
X442335Y352313D01*
X436404Y352313D01*
X433438Y349347D01*
X433438Y337484D01*
X436404Y334518D01*
X442335Y334518D01*
X445301Y337484D01*
X445301Y343416D01*
X439369Y343416D01*
X451213Y352313D02*
X451213Y334518D01*
X451213Y352313D02*
X460110Y352313D01*
X463076Y349347D01*
X463076Y343416D01*
X460110Y340450D01*
X451213Y340450D01*
X468987Y334518D02*
X474919Y334518D01*
X471953Y334518D02*
X471953Y352313D01*
X468987Y352313D02*
X474919Y352313D01*
X483803Y352313D02*
X489735Y352313D01*
X483803Y352313D02*
X480837Y349347D01*
X480837Y337484D01*
X483803Y334518D01*
X489735Y334518D01*
X492701Y337484D01*
X492701Y349347D01*
X489735Y352313D01*
X498612Y346381D02*
X504544Y352313D01*
X504544Y334518D01*
X498612Y334518D02*
X510476Y334518D01*
X525285Y334518D02*
X525285Y352313D01*
X516387Y343416D01*
X528251Y343416D01*
X447841Y321407D02*
X444875Y324373D01*
X438944Y324373D01*
X435978Y321407D01*
X435978Y309544D01*
X438944Y306578D01*
X444875Y306578D01*
X447841Y309544D01*
X447841Y315476D01*
X441909Y315476D01*
X453753Y324373D02*
X453753Y306578D01*
X453753Y324373D02*
X462650Y324373D01*
X465616Y321407D01*
X465616Y315476D01*
X462650Y312510D01*
X453753Y312510D01*
X471527Y306578D02*
X477459Y306578D01*
X474493Y306578D02*
X474493Y324373D01*
X471527Y324373D02*
X477459Y324373D01*
X486343Y324373D02*
X492275Y324373D01*
X486343Y324373D02*
X483377Y321407D01*
X483377Y309544D01*
X486343Y306578D01*
X492275Y306578D01*
X495241Y309544D01*
X495241Y321407D01*
X492275Y324373D01*
X501152Y321407D02*
X501152Y309544D01*
X501152Y321407D02*
X504118Y324373D01*
X510050Y324373D01*
X513016Y321407D01*
X513016Y309544D01*
X510050Y306578D01*
X504118Y306578D01*
X501152Y309544D01*
X513016Y321407D01*
X518927Y306578D02*
X530791Y306578D01*
X530791Y318441D02*
X518927Y306578D01*
X530791Y318441D02*
X530791Y321407D01*
X527825Y324373D01*
X521893Y324373D01*
X518927Y321407D01*
X447841Y298547D02*
X444875Y301513D01*
X438944Y301513D01*
X435978Y298547D01*
X435978Y286684D01*
X438944Y283718D01*
X444875Y283718D01*
X447841Y286684D01*
X447841Y292616D01*
X441909Y292616D01*
X453753Y301513D02*
X453753Y283718D01*
X453753Y301513D02*
X462650Y301513D01*
X465616Y298547D01*
X465616Y292616D01*
X462650Y289650D01*
X453753Y289650D01*
X471527Y283718D02*
X477459Y283718D01*
X474493Y283718D02*
X474493Y301513D01*
X471527Y301513D02*
X477459Y301513D01*
X486343Y301513D02*
X492275Y301513D01*
X486343Y301513D02*
X483377Y298547D01*
X483377Y286684D01*
X486343Y283718D01*
X492275Y283718D01*
X495241Y286684D01*
X495241Y298547D01*
X492275Y301513D01*
X501152Y298547D02*
X501152Y286684D01*
X501152Y298547D02*
X504118Y301513D01*
X510050Y301513D01*
X513016Y298547D01*
X513016Y286684D01*
X510050Y283718D01*
X504118Y283718D01*
X501152Y286684D01*
X513016Y298547D01*
X527825Y301513D02*
X527825Y283718D01*
X518927Y292616D02*
X527825Y301513D01*
X530791Y292616D02*
X518927Y292616D01*
X398690Y437657D02*
X386827Y437657D01*
X398690Y437657D02*
X404622Y443589D01*
X398690Y449521D01*
X386827Y449521D01*
X386827Y464330D02*
X389793Y467296D01*
X386827Y464330D02*
X386827Y458398D01*
X389793Y455432D01*
X401656Y455432D01*
X404622Y458398D01*
X404622Y464330D01*
X401656Y467296D01*
X386827Y482105D02*
X389793Y485071D01*
X386827Y482105D02*
X386827Y476173D01*
X389793Y473207D01*
X401656Y473207D01*
X404622Y476173D01*
X404622Y482105D01*
X401656Y485071D01*
X364393Y449521D02*
X361427Y446555D01*
X361427Y440623D01*
X364393Y437657D01*
X376256Y437657D01*
X379222Y440623D01*
X379222Y446555D01*
X376256Y449521D01*
X370324Y449521D01*
X370324Y443589D01*
X361427Y455432D02*
X379222Y455432D01*
X379222Y467296D02*
X361427Y455432D01*
X361427Y467296D02*
X379222Y467296D01*
X379222Y473207D02*
X361427Y473207D01*
X379222Y473207D02*
X379222Y482105D01*
X376256Y485071D01*
X364393Y485071D01*
X361427Y482105D01*
X361427Y473207D01*
X442335Y451373D02*
X445301Y448407D01*
X442335Y451373D02*
X436404Y451373D01*
X433438Y448407D01*
X433438Y436544D01*
X436404Y433578D01*
X442335Y433578D01*
X445301Y436544D01*
X445301Y442476D01*
X439369Y442476D01*
X451213Y451373D02*
X451213Y433578D01*
X451213Y451373D02*
X460110Y451373D01*
X463076Y448407D01*
X463076Y442476D01*
X460110Y439510D01*
X451213Y439510D01*
X468987Y433578D02*
X474919Y433578D01*
X471953Y433578D02*
X471953Y451373D01*
X468987Y451373D02*
X474919Y451373D01*
X483803Y451373D02*
X489735Y451373D01*
X483803Y451373D02*
X480837Y448407D01*
X480837Y436544D01*
X483803Y433578D01*
X489735Y433578D01*
X492701Y436544D01*
X492701Y448407D01*
X489735Y451373D01*
X498612Y445441D02*
X504544Y451373D01*
X504544Y433578D01*
X498612Y433578D02*
X510476Y433578D01*
X522319Y448407D02*
X528251Y451373D01*
X522319Y448407D02*
X516387Y442476D01*
X516387Y436544D01*
X519353Y433578D01*
X525285Y433578D01*
X528251Y436544D01*
X528251Y439510D01*
X525285Y442476D01*
X516387Y442476D01*
X322505Y376697D02*
X310642Y376697D01*
X310642Y367800D01*
X316574Y370765D01*
X319540Y370765D01*
X322505Y367800D01*
X322505Y361868D01*
X319540Y358902D01*
X313608Y358902D01*
X310642Y361868D01*
X328417Y364834D02*
X328417Y376697D01*
X328417Y364834D02*
X334349Y358902D01*
X340280Y364834D01*
X340280Y376697D01*
X192965Y287797D02*
X181102Y287797D01*
X181102Y278900D01*
X187034Y281865D01*
X190000Y281865D01*
X192965Y278900D01*
X192965Y272968D01*
X190000Y270002D01*
X184068Y270002D01*
X181102Y272968D01*
X198877Y275934D02*
X198877Y287797D01*
X198877Y275934D02*
X204809Y270002D01*
X210740Y275934D01*
X210740Y287797D01*
X190425Y312771D02*
X187460Y315737D01*
X181528Y315737D01*
X178562Y312771D01*
X178562Y300908D01*
X181528Y297942D01*
X187460Y297942D01*
X190425Y300908D01*
X190425Y306840D01*
X184494Y306840D01*
X196337Y315737D02*
X196337Y297942D01*
X208200Y297942D02*
X196337Y315737D01*
X208200Y315737D02*
X208200Y297942D01*
X214112Y297942D02*
X214112Y315737D01*
X214112Y297942D02*
X223009Y297942D01*
X225975Y300908D01*
X225975Y312771D01*
X223009Y315737D01*
X214112Y315737D01*
X310642Y401245D02*
X316574Y407177D01*
X316574Y389382D01*
X322505Y389382D02*
X310642Y389382D01*
X334349Y404211D02*
X340280Y407177D01*
X334349Y404211D02*
X328417Y398280D01*
X328417Y392348D01*
X331383Y389382D01*
X337314Y389382D01*
X340280Y392348D01*
X340280Y395314D01*
X337314Y398280D01*
X328417Y398280D01*
X253074Y432577D02*
X247142Y426645D01*
X253074Y432577D02*
X253074Y414782D01*
X259005Y414782D02*
X247142Y414782D01*
X264917Y414782D02*
X276780Y414782D01*
X264917Y414782D02*
X276780Y426645D01*
X276780Y429611D01*
X273814Y432577D01*
X267883Y432577D01*
X264917Y429611D01*
X745023Y410733D02*
X756887Y410733D01*
X745023Y410733D02*
X745023Y401836D01*
X750955Y404801D01*
X753921Y404801D01*
X756887Y401836D01*
X756887Y395904D01*
X753921Y392938D01*
X747989Y392938D01*
X745023Y395904D01*
X762798Y398870D02*
X762798Y410733D01*
X762798Y398870D02*
X768730Y392938D01*
X774661Y398870D01*
X774661Y410733D01*
X780573Y401836D02*
X792436Y410733D01*
X780573Y401836D02*
X792436Y392938D01*
X798348Y401836D02*
X810211Y401836D01*
X816122Y410733D02*
X827986Y401836D01*
X816122Y392938D01*
X833897Y398870D02*
X833897Y410733D01*
X833897Y398870D02*
X839829Y392938D01*
X845761Y398870D01*
X845761Y410733D01*
X860570Y410733D02*
X863536Y407767D01*
X860570Y410733D02*
X854638Y410733D01*
X851672Y407767D01*
X851672Y395904D01*
X854638Y392938D01*
X860570Y392938D01*
X863536Y395904D01*
X878345Y410733D02*
X881310Y407767D01*
X878345Y410733D02*
X872413Y410733D01*
X869447Y407767D01*
X869447Y395904D01*
X872413Y392938D01*
X878345Y392938D01*
X881310Y395904D01*
D10*
X298450Y170180D02*
X285750Y170180D01*
X279400Y176530D01*
X279400Y189230D02*
X285750Y195580D01*
X323850Y170180D02*
X330200Y176530D01*
X323850Y170180D02*
X311150Y170180D01*
X304800Y176530D01*
X304800Y189230D02*
X311150Y195580D01*
X323850Y195580D01*
X330200Y189230D01*
X304800Y176530D02*
X298450Y170180D01*
X304800Y189230D02*
X298450Y195580D01*
X285750Y195580D01*
X361950Y170180D02*
X374650Y170180D01*
X361950Y170180D02*
X355600Y176530D01*
X355600Y189230D02*
X361950Y195580D01*
X355600Y176530D02*
X349250Y170180D01*
X336550Y170180D01*
X330200Y176530D01*
X330200Y189230D02*
X336550Y195580D01*
X349250Y195580D01*
X355600Y189230D01*
X400050Y170180D02*
X406400Y176530D01*
X400050Y170180D02*
X387350Y170180D01*
X381000Y176530D01*
X381000Y189230D02*
X387350Y195580D01*
X400050Y195580D01*
X406400Y189230D01*
X381000Y176530D02*
X374650Y170180D01*
X381000Y189230D02*
X374650Y195580D01*
X361950Y195580D01*
X438150Y170180D02*
X450850Y170180D01*
X438150Y170180D02*
X431800Y176530D01*
X431800Y189230D02*
X438150Y195580D01*
X431800Y176530D02*
X425450Y170180D01*
X412750Y170180D01*
X406400Y176530D01*
X406400Y189230D02*
X412750Y195580D01*
X425450Y195580D01*
X431800Y189230D01*
X457200Y189230D02*
X457200Y176530D01*
X450850Y170180D01*
X457200Y189230D02*
X450850Y195580D01*
X438150Y195580D01*
X120650Y170180D02*
X107950Y170180D01*
X101600Y176530D01*
X101600Y189230D02*
X107950Y195580D01*
X146050Y170180D02*
X152400Y176530D01*
X146050Y170180D02*
X133350Y170180D01*
X127000Y176530D01*
X127000Y189230D02*
X133350Y195580D01*
X146050Y195580D01*
X152400Y189230D01*
X127000Y176530D02*
X120650Y170180D01*
X127000Y189230D02*
X120650Y195580D01*
X107950Y195580D01*
X184150Y170180D02*
X196850Y170180D01*
X184150Y170180D02*
X177800Y176530D01*
X177800Y189230D02*
X184150Y195580D01*
X177800Y176530D02*
X171450Y170180D01*
X158750Y170180D01*
X152400Y176530D01*
X152400Y189230D02*
X158750Y195580D01*
X171450Y195580D01*
X177800Y189230D01*
X222250Y170180D02*
X228600Y176530D01*
X222250Y170180D02*
X209550Y170180D01*
X203200Y176530D01*
X203200Y189230D02*
X209550Y195580D01*
X222250Y195580D01*
X228600Y189230D01*
X203200Y176530D02*
X196850Y170180D01*
X203200Y189230D02*
X196850Y195580D01*
X184150Y195580D01*
X260350Y170180D02*
X273050Y170180D01*
X260350Y170180D02*
X254000Y176530D01*
X254000Y189230D02*
X260350Y195580D01*
X254000Y176530D02*
X247650Y170180D01*
X234950Y170180D01*
X228600Y176530D01*
X228600Y189230D02*
X234950Y195580D01*
X247650Y195580D01*
X254000Y189230D01*
X273050Y170180D02*
X279400Y176530D01*
X279400Y189230D02*
X273050Y195580D01*
X260350Y195580D01*
X101600Y176530D02*
X95250Y170180D01*
X82550Y170180D01*
X76200Y176530D01*
X76200Y189230D01*
X82550Y195580D01*
X95250Y195580D01*
X101600Y189230D01*
X234950Y43180D02*
X247650Y43180D01*
X254000Y36830D01*
X254000Y24130D02*
X247650Y17780D01*
X209550Y43180D02*
X203200Y36830D01*
X209550Y43180D02*
X222250Y43180D01*
X228600Y36830D01*
X228600Y24130D02*
X222250Y17780D01*
X209550Y17780D01*
X203200Y24130D01*
X228600Y36830D02*
X234950Y43180D01*
X228600Y24130D02*
X234950Y17780D01*
X247650Y17780D01*
X171450Y43180D02*
X158750Y43180D01*
X171450Y43180D02*
X177800Y36830D01*
X177800Y24130D02*
X171450Y17780D01*
X177800Y36830D02*
X184150Y43180D01*
X196850Y43180D01*
X203200Y36830D01*
X203200Y24130D02*
X196850Y17780D01*
X184150Y17780D01*
X177800Y24130D01*
X133350Y43180D02*
X127000Y36830D01*
X133350Y43180D02*
X146050Y43180D01*
X152400Y36830D01*
X152400Y24130D02*
X146050Y17780D01*
X133350Y17780D01*
X127000Y24130D01*
X152400Y36830D02*
X158750Y43180D01*
X152400Y24130D02*
X158750Y17780D01*
X171450Y17780D01*
X95250Y43180D02*
X82550Y43180D01*
X95250Y43180D02*
X101600Y36830D01*
X101600Y24130D02*
X95250Y17780D01*
X101600Y36830D02*
X107950Y43180D01*
X120650Y43180D01*
X127000Y36830D01*
X127000Y24130D02*
X120650Y17780D01*
X107950Y17780D01*
X101600Y24130D01*
X76200Y24130D02*
X76200Y36830D01*
X82550Y43180D01*
X76200Y24130D02*
X82550Y17780D01*
X95250Y17780D01*
X412750Y43180D02*
X425450Y43180D01*
X431800Y36830D01*
X431800Y24130D02*
X425450Y17780D01*
X387350Y43180D02*
X381000Y36830D01*
X387350Y43180D02*
X400050Y43180D01*
X406400Y36830D01*
X406400Y24130D02*
X400050Y17780D01*
X387350Y17780D01*
X381000Y24130D01*
X406400Y36830D02*
X412750Y43180D01*
X406400Y24130D02*
X412750Y17780D01*
X425450Y17780D01*
X349250Y43180D02*
X336550Y43180D01*
X349250Y43180D02*
X355600Y36830D01*
X355600Y24130D02*
X349250Y17780D01*
X355600Y36830D02*
X361950Y43180D01*
X374650Y43180D01*
X381000Y36830D01*
X381000Y24130D02*
X374650Y17780D01*
X361950Y17780D01*
X355600Y24130D01*
X311150Y43180D02*
X304800Y36830D01*
X311150Y43180D02*
X323850Y43180D01*
X330200Y36830D01*
X330200Y24130D02*
X323850Y17780D01*
X311150Y17780D01*
X304800Y24130D01*
X330200Y36830D02*
X336550Y43180D01*
X330200Y24130D02*
X336550Y17780D01*
X349250Y17780D01*
X273050Y43180D02*
X260350Y43180D01*
X273050Y43180D02*
X279400Y36830D01*
X279400Y24130D02*
X273050Y17780D01*
X279400Y36830D02*
X285750Y43180D01*
X298450Y43180D01*
X304800Y36830D01*
X304800Y24130D02*
X298450Y17780D01*
X285750Y17780D01*
X279400Y24130D01*
X260350Y43180D02*
X254000Y36830D01*
X254000Y24130D02*
X260350Y17780D01*
X273050Y17780D01*
X431800Y36830D02*
X438150Y43180D01*
X450850Y43180D01*
X457200Y36830D01*
X457200Y24130D01*
X450850Y17780D01*
X438150Y17780D01*
X431800Y24130D01*
X929640Y52070D02*
X929640Y64770D01*
X929640Y52070D02*
X923290Y45720D01*
X910590Y45720D02*
X904240Y52070D01*
X929640Y90170D02*
X923290Y96520D01*
X929640Y90170D02*
X929640Y77470D01*
X923290Y71120D01*
X910590Y71120D02*
X904240Y77470D01*
X904240Y90170D01*
X910590Y96520D01*
X923290Y71120D02*
X929640Y64770D01*
X910590Y71120D02*
X904240Y64770D01*
X904240Y52070D01*
X929640Y128270D02*
X929640Y140970D01*
X929640Y128270D02*
X923290Y121920D01*
X910590Y121920D02*
X904240Y128270D01*
X923290Y121920D02*
X929640Y115570D01*
X929640Y102870D01*
X923290Y96520D01*
X910590Y96520D02*
X904240Y102870D01*
X904240Y115570D01*
X910590Y121920D01*
X910590Y147320D02*
X923290Y147320D01*
X929640Y140970D01*
X910590Y147320D02*
X904240Y140970D01*
X904240Y128270D01*
X910590Y45720D02*
X923290Y45720D01*
X635000Y31750D02*
X628650Y38100D01*
X615950Y38100D01*
X609600Y31750D01*
X609600Y19050D01*
X615950Y12700D01*
X628650Y12700D01*
X635000Y19050D01*
X635000Y31750D01*
X584200Y31750D02*
X577850Y38100D01*
X565150Y38100D01*
X558800Y31750D01*
X558800Y19050D01*
X565150Y12700D01*
X577850Y12700D01*
X584200Y19050D01*
X584200Y31750D01*
X565150Y673100D02*
X552450Y673100D01*
X565150Y673100D02*
X571500Y666750D01*
X571500Y654050D02*
X565150Y647700D01*
X527050Y673100D02*
X520700Y666750D01*
X527050Y673100D02*
X539750Y673100D01*
X546100Y666750D01*
X546100Y654050D02*
X539750Y647700D01*
X527050Y647700D01*
X520700Y654050D01*
X546100Y666750D02*
X552450Y673100D01*
X546100Y654050D02*
X552450Y647700D01*
X565150Y647700D01*
X488950Y673100D02*
X476250Y673100D01*
X488950Y673100D02*
X495300Y666750D01*
X495300Y654050D02*
X488950Y647700D01*
X495300Y666750D02*
X501650Y673100D01*
X514350Y673100D01*
X520700Y666750D01*
X520700Y654050D02*
X514350Y647700D01*
X501650Y647700D01*
X495300Y654050D01*
X450850Y673100D02*
X444500Y666750D01*
X450850Y673100D02*
X463550Y673100D01*
X469900Y666750D01*
X469900Y654050D02*
X463550Y647700D01*
X450850Y647700D01*
X444500Y654050D01*
X469900Y666750D02*
X476250Y673100D01*
X469900Y654050D02*
X476250Y647700D01*
X488950Y647700D01*
X412750Y673100D02*
X400050Y673100D01*
X412750Y673100D02*
X419100Y666750D01*
X419100Y654050D02*
X412750Y647700D01*
X419100Y666750D02*
X425450Y673100D01*
X438150Y673100D01*
X444500Y666750D01*
X444500Y654050D02*
X438150Y647700D01*
X425450Y647700D01*
X419100Y654050D01*
X393700Y654050D02*
X393700Y666750D01*
X400050Y673100D01*
X393700Y654050D02*
X400050Y647700D01*
X412750Y647700D01*
X730250Y673100D02*
X742950Y673100D01*
X749300Y666750D01*
X749300Y654050D02*
X742950Y647700D01*
X704850Y673100D02*
X698500Y666750D01*
X704850Y673100D02*
X717550Y673100D01*
X723900Y666750D01*
X723900Y654050D02*
X717550Y647700D01*
X704850Y647700D01*
X698500Y654050D01*
X723900Y666750D02*
X730250Y673100D01*
X723900Y654050D02*
X730250Y647700D01*
X742950Y647700D01*
X666750Y673100D02*
X654050Y673100D01*
X666750Y673100D02*
X673100Y666750D01*
X673100Y654050D02*
X666750Y647700D01*
X673100Y666750D02*
X679450Y673100D01*
X692150Y673100D01*
X698500Y666750D01*
X698500Y654050D02*
X692150Y647700D01*
X679450Y647700D01*
X673100Y654050D01*
X628650Y673100D02*
X622300Y666750D01*
X628650Y673100D02*
X641350Y673100D01*
X647700Y666750D01*
X647700Y654050D02*
X641350Y647700D01*
X628650Y647700D01*
X622300Y654050D01*
X647700Y666750D02*
X654050Y673100D01*
X647700Y654050D02*
X654050Y647700D01*
X666750Y647700D01*
X590550Y673100D02*
X577850Y673100D01*
X590550Y673100D02*
X596900Y666750D01*
X596900Y654050D02*
X590550Y647700D01*
X596900Y666750D02*
X603250Y673100D01*
X615950Y673100D01*
X622300Y666750D01*
X622300Y654050D02*
X615950Y647700D01*
X603250Y647700D01*
X596900Y654050D01*
X577850Y673100D02*
X571500Y666750D01*
X571500Y654050D02*
X577850Y647700D01*
X590550Y647700D01*
X749300Y666750D02*
X755650Y673100D01*
X768350Y673100D01*
X774700Y666750D01*
X774700Y654050D01*
X768350Y647700D01*
X755650Y647700D01*
X749300Y654050D01*
X615950Y800100D02*
X603250Y800100D01*
X596900Y806450D01*
X596900Y819150D02*
X603250Y825500D01*
X641350Y800100D02*
X647700Y806450D01*
X641350Y800100D02*
X628650Y800100D01*
X622300Y806450D01*
X622300Y819150D02*
X628650Y825500D01*
X641350Y825500D01*
X647700Y819150D01*
X622300Y806450D02*
X615950Y800100D01*
X622300Y819150D02*
X615950Y825500D01*
X603250Y825500D01*
X679450Y800100D02*
X692150Y800100D01*
X679450Y800100D02*
X673100Y806450D01*
X673100Y819150D02*
X679450Y825500D01*
X673100Y806450D02*
X666750Y800100D01*
X654050Y800100D01*
X647700Y806450D01*
X647700Y819150D02*
X654050Y825500D01*
X666750Y825500D01*
X673100Y819150D01*
X717550Y800100D02*
X723900Y806450D01*
X717550Y800100D02*
X704850Y800100D01*
X698500Y806450D01*
X698500Y819150D02*
X704850Y825500D01*
X717550Y825500D01*
X723900Y819150D01*
X698500Y806450D02*
X692150Y800100D01*
X698500Y819150D02*
X692150Y825500D01*
X679450Y825500D01*
X755650Y800100D02*
X768350Y800100D01*
X755650Y800100D02*
X749300Y806450D01*
X749300Y819150D02*
X755650Y825500D01*
X749300Y806450D02*
X742950Y800100D01*
X730250Y800100D01*
X723900Y806450D01*
X723900Y819150D02*
X730250Y825500D01*
X742950Y825500D01*
X749300Y819150D01*
X774700Y819150D02*
X774700Y806450D01*
X768350Y800100D01*
X774700Y819150D02*
X768350Y825500D01*
X755650Y825500D01*
X438150Y800100D02*
X425450Y800100D01*
X419100Y806450D01*
X419100Y819150D02*
X425450Y825500D01*
X463550Y800100D02*
X469900Y806450D01*
X463550Y800100D02*
X450850Y800100D01*
X444500Y806450D01*
X444500Y819150D02*
X450850Y825500D01*
X463550Y825500D01*
X469900Y819150D01*
X444500Y806450D02*
X438150Y800100D01*
X444500Y819150D02*
X438150Y825500D01*
X425450Y825500D01*
X501650Y800100D02*
X514350Y800100D01*
X501650Y800100D02*
X495300Y806450D01*
X495300Y819150D02*
X501650Y825500D01*
X495300Y806450D02*
X488950Y800100D01*
X476250Y800100D01*
X469900Y806450D01*
X469900Y819150D02*
X476250Y825500D01*
X488950Y825500D01*
X495300Y819150D01*
X539750Y800100D02*
X546100Y806450D01*
X539750Y800100D02*
X527050Y800100D01*
X520700Y806450D01*
X520700Y819150D02*
X527050Y825500D01*
X539750Y825500D01*
X546100Y819150D01*
X520700Y806450D02*
X514350Y800100D01*
X520700Y819150D02*
X514350Y825500D01*
X501650Y825500D01*
X577850Y800100D02*
X590550Y800100D01*
X577850Y800100D02*
X571500Y806450D01*
X571500Y819150D02*
X577850Y825500D01*
X571500Y806450D02*
X565150Y800100D01*
X552450Y800100D01*
X546100Y806450D01*
X546100Y819150D02*
X552450Y825500D01*
X565150Y825500D01*
X571500Y819150D01*
X590550Y800100D02*
X596900Y806450D01*
X596900Y819150D02*
X590550Y825500D01*
X577850Y825500D01*
X419100Y806450D02*
X412750Y800100D01*
X400050Y800100D01*
X393700Y806450D01*
X393700Y819150D01*
X400050Y825500D01*
X412750Y825500D01*
X419100Y819150D01*
X527050Y622300D02*
X539750Y622300D01*
X546100Y615950D01*
X546100Y603250D02*
X539750Y596900D01*
X546100Y615950D02*
X552450Y622300D01*
X565150Y622300D01*
X571500Y615950D01*
X571500Y603250D02*
X565150Y596900D01*
X552450Y596900D01*
X546100Y603250D01*
X501650Y622300D02*
X495300Y615950D01*
X501650Y622300D02*
X514350Y622300D01*
X520700Y615950D01*
X520700Y603250D02*
X514350Y596900D01*
X501650Y596900D01*
X495300Y603250D01*
X520700Y615950D02*
X527050Y622300D01*
X520700Y603250D02*
X527050Y596900D01*
X539750Y596900D01*
X463550Y622300D02*
X450850Y622300D01*
X463550Y622300D02*
X469900Y615950D01*
X469900Y603250D02*
X463550Y596900D01*
X469900Y615950D02*
X476250Y622300D01*
X488950Y622300D01*
X495300Y615950D01*
X495300Y603250D02*
X488950Y596900D01*
X476250Y596900D01*
X469900Y603250D01*
X444500Y603250D02*
X444500Y615950D01*
X450850Y622300D01*
X444500Y603250D02*
X450850Y596900D01*
X463550Y596900D01*
X571500Y603250D02*
X571500Y615950D01*
X730250Y622300D02*
X742950Y622300D01*
X749300Y615950D01*
X749300Y603250D02*
X742950Y596900D01*
X749300Y615950D02*
X755650Y622300D01*
X768350Y622300D01*
X774700Y615950D01*
X774700Y603250D02*
X768350Y596900D01*
X755650Y596900D01*
X749300Y603250D01*
X704850Y622300D02*
X698500Y615950D01*
X704850Y622300D02*
X717550Y622300D01*
X723900Y615950D01*
X723900Y603250D02*
X717550Y596900D01*
X704850Y596900D01*
X698500Y603250D01*
X723900Y615950D02*
X730250Y622300D01*
X723900Y603250D02*
X730250Y596900D01*
X742950Y596900D01*
X666750Y622300D02*
X654050Y622300D01*
X666750Y622300D02*
X673100Y615950D01*
X673100Y603250D02*
X666750Y596900D01*
X673100Y615950D02*
X679450Y622300D01*
X692150Y622300D01*
X698500Y615950D01*
X698500Y603250D02*
X692150Y596900D01*
X679450Y596900D01*
X673100Y603250D01*
X647700Y603250D02*
X647700Y615950D01*
X654050Y622300D01*
X647700Y603250D02*
X654050Y596900D01*
X666750Y596900D01*
X774700Y603250D02*
X774700Y615950D01*
D11*
X321310Y763270D02*
X283210Y763270D01*
X283210Y801370D01*
X321310Y801370D01*
X321310Y763270D01*
D14*
X318770Y765810D02*
X285750Y765810D01*
X285750Y798830D01*
X318770Y798830D01*
X318770Y765810D01*
D11*
X312420Y721360D02*
X312420Y717550D01*
X312420Y721360D02*
X292100Y721360D01*
X292100Y717550D02*
X312420Y717550D01*
X292100Y717550D02*
X292100Y721360D01*
X251460Y721360D02*
X241300Y731520D01*
X251460Y721360D02*
X284480Y721360D01*
X241300Y731520D02*
X241300Y744220D01*
X241300Y770890D02*
X241300Y793750D01*
X241300Y833120D02*
X251460Y843280D01*
X241300Y833120D02*
X241300Y820420D01*
X363220Y793750D02*
X363220Y770890D01*
X363220Y820420D02*
X363220Y833120D01*
X353060Y843280D01*
X320040Y843280D01*
X320040Y721360D02*
X353060Y721360D01*
X363220Y731520D01*
X363220Y744220D01*
X312420Y847090D02*
X292100Y847090D01*
X312420Y847090D02*
X312420Y843280D01*
X292100Y843280D02*
X292100Y847090D01*
X251460Y721360D02*
X254000Y718820D01*
X284480Y718820D01*
X284480Y721360D01*
X292100Y721360D01*
X320040Y721360D02*
X320040Y718820D01*
X320040Y721360D02*
X312420Y721360D01*
X320040Y718820D02*
X350520Y718820D01*
X353060Y721360D01*
X312420Y843280D02*
X292100Y843280D01*
X284480Y843280D01*
X320040Y843280D02*
X320040Y845820D01*
X320040Y843280D02*
X312420Y843280D01*
X320040Y845820D02*
X350520Y845820D01*
X353060Y843280D01*
X284480Y843280D02*
X284480Y845820D01*
X284480Y843280D02*
X251460Y843280D01*
X254000Y845820D02*
X284480Y845820D01*
X254000Y845820D02*
X251460Y843280D01*
X266700Y782320D02*
X266711Y783193D01*
X266743Y784065D01*
X266796Y784936D01*
X266871Y785805D01*
X266967Y786673D01*
X267085Y787538D01*
X267224Y788399D01*
X267383Y789257D01*
X267564Y790111D01*
X267766Y790960D01*
X267988Y791804D01*
X268231Y792643D01*
X268495Y793475D01*
X268779Y794300D01*
X269083Y795118D01*
X269407Y795928D01*
X269751Y796730D01*
X270114Y797524D01*
X270497Y798308D01*
X270899Y799083D01*
X271320Y799847D01*
X271759Y800601D01*
X272217Y801345D01*
X272693Y802076D01*
X273187Y802796D01*
X273698Y803503D01*
X274226Y804198D01*
X274772Y804879D01*
X275334Y805547D01*
X275912Y806201D01*
X276506Y806840D01*
X277115Y807465D01*
X277740Y808074D01*
X278379Y808668D01*
X279033Y809246D01*
X279701Y809808D01*
X280382Y810354D01*
X281077Y810882D01*
X281784Y811393D01*
X282504Y811887D01*
X283235Y812363D01*
X283979Y812821D01*
X284733Y813260D01*
X285497Y813681D01*
X286272Y814083D01*
X287056Y814466D01*
X287850Y814829D01*
X288652Y815173D01*
X289462Y815497D01*
X290280Y815801D01*
X291105Y816085D01*
X291937Y816349D01*
X292776Y816592D01*
X293620Y816814D01*
X294469Y817016D01*
X295323Y817197D01*
X296181Y817356D01*
X297042Y817495D01*
X297907Y817613D01*
X298775Y817709D01*
X299644Y817784D01*
X300515Y817837D01*
X301387Y817869D01*
X302260Y817880D01*
X303133Y817869D01*
X304005Y817837D01*
X304876Y817784D01*
X305745Y817709D01*
X306613Y817613D01*
X307478Y817495D01*
X308339Y817356D01*
X309197Y817197D01*
X310051Y817016D01*
X310900Y816814D01*
X311744Y816592D01*
X312583Y816349D01*
X313415Y816085D01*
X314240Y815801D01*
X315058Y815497D01*
X315868Y815173D01*
X316670Y814829D01*
X317464Y814466D01*
X318248Y814083D01*
X319023Y813681D01*
X319787Y813260D01*
X320541Y812821D01*
X321285Y812363D01*
X322016Y811887D01*
X322736Y811393D01*
X323443Y810882D01*
X324138Y810354D01*
X324819Y809808D01*
X325487Y809246D01*
X326141Y808668D01*
X326780Y808074D01*
X327405Y807465D01*
X328014Y806840D01*
X328608Y806201D01*
X329186Y805547D01*
X329748Y804879D01*
X330294Y804198D01*
X330822Y803503D01*
X331333Y802796D01*
X331827Y802076D01*
X332303Y801345D01*
X332761Y800601D01*
X333200Y799847D01*
X333621Y799083D01*
X334023Y798308D01*
X334406Y797524D01*
X334769Y796730D01*
X335113Y795928D01*
X335437Y795118D01*
X335741Y794300D01*
X336025Y793475D01*
X336289Y792643D01*
X336532Y791804D01*
X336754Y790960D01*
X336956Y790111D01*
X337137Y789257D01*
X337296Y788399D01*
X337435Y787538D01*
X337553Y786673D01*
X337649Y785805D01*
X337724Y784936D01*
X337777Y784065D01*
X337809Y783193D01*
X337820Y782320D01*
X337809Y781447D01*
X337777Y780575D01*
X337724Y779704D01*
X337649Y778835D01*
X337553Y777967D01*
X337435Y777102D01*
X337296Y776241D01*
X337137Y775383D01*
X336956Y774529D01*
X336754Y773680D01*
X336532Y772836D01*
X336289Y771997D01*
X336025Y771165D01*
X335741Y770340D01*
X335437Y769522D01*
X335113Y768712D01*
X334769Y767910D01*
X334406Y767116D01*
X334023Y766332D01*
X333621Y765557D01*
X333200Y764793D01*
X332761Y764039D01*
X332303Y763295D01*
X331827Y762564D01*
X331333Y761844D01*
X330822Y761137D01*
X330294Y760442D01*
X329748Y759761D01*
X329186Y759093D01*
X328608Y758439D01*
X328014Y757800D01*
X327405Y757175D01*
X326780Y756566D01*
X326141Y755972D01*
X325487Y755394D01*
X324819Y754832D01*
X324138Y754286D01*
X323443Y753758D01*
X322736Y753247D01*
X322016Y752753D01*
X321285Y752277D01*
X320541Y751819D01*
X319787Y751380D01*
X319023Y750959D01*
X318248Y750557D01*
X317464Y750174D01*
X316670Y749811D01*
X315868Y749467D01*
X315058Y749143D01*
X314240Y748839D01*
X313415Y748555D01*
X312583Y748291D01*
X311744Y748048D01*
X310900Y747826D01*
X310051Y747624D01*
X309197Y747443D01*
X308339Y747284D01*
X307478Y747145D01*
X306613Y747027D01*
X305745Y746931D01*
X304876Y746856D01*
X304005Y746803D01*
X303133Y746771D01*
X302260Y746760D01*
X301387Y746771D01*
X300515Y746803D01*
X299644Y746856D01*
X298775Y746931D01*
X297907Y747027D01*
X297042Y747145D01*
X296181Y747284D01*
X295323Y747443D01*
X294469Y747624D01*
X293620Y747826D01*
X292776Y748048D01*
X291937Y748291D01*
X291105Y748555D01*
X290280Y748839D01*
X289462Y749143D01*
X288652Y749467D01*
X287850Y749811D01*
X287056Y750174D01*
X286272Y750557D01*
X285497Y750959D01*
X284733Y751380D01*
X283979Y751819D01*
X283235Y752277D01*
X282504Y752753D01*
X281784Y753247D01*
X281077Y753758D01*
X280382Y754286D01*
X279701Y754832D01*
X279033Y755394D01*
X278379Y755972D01*
X277740Y756566D01*
X277115Y757175D01*
X276506Y757800D01*
X275912Y758439D01*
X275334Y759093D01*
X274772Y759761D01*
X274226Y760442D01*
X273698Y761137D01*
X273187Y761844D01*
X272693Y762564D01*
X272217Y763295D01*
X271759Y764039D01*
X271320Y764793D01*
X270899Y765557D01*
X270497Y766332D01*
X270114Y767116D01*
X269751Y767910D01*
X269407Y768712D01*
X269083Y769522D01*
X268779Y770340D01*
X268495Y771165D01*
X268231Y771997D01*
X267988Y772836D01*
X267766Y773680D01*
X267564Y774529D01*
X267383Y775383D01*
X267224Y776241D01*
X267085Y777102D01*
X266967Y777967D01*
X266871Y778835D01*
X266796Y779704D01*
X266743Y780575D01*
X266711Y781447D01*
X266700Y782320D01*
D14*
X292100Y782320D02*
X292103Y782569D01*
X292112Y782819D01*
X292128Y783067D01*
X292149Y783316D01*
X292176Y783564D01*
X292210Y783811D01*
X292250Y784057D01*
X292295Y784302D01*
X292347Y784546D01*
X292404Y784789D01*
X292468Y785030D01*
X292537Y785269D01*
X292613Y785507D01*
X292694Y785743D01*
X292781Y785977D01*
X292873Y786208D01*
X292972Y786437D01*
X293075Y786664D01*
X293185Y786888D01*
X293300Y787109D01*
X293420Y787328D01*
X293545Y787543D01*
X293676Y787756D01*
X293812Y787965D01*
X293953Y788170D01*
X294099Y788372D01*
X294250Y788571D01*
X294406Y788765D01*
X294567Y788956D01*
X294732Y789143D01*
X294902Y789326D01*
X295076Y789504D01*
X295254Y789678D01*
X295437Y789848D01*
X295624Y790013D01*
X295815Y790174D01*
X296009Y790330D01*
X296208Y790481D01*
X296410Y790627D01*
X296615Y790768D01*
X296824Y790904D01*
X297037Y791035D01*
X297252Y791160D01*
X297471Y791280D01*
X297692Y791395D01*
X297916Y791505D01*
X298143Y791608D01*
X298372Y791707D01*
X298603Y791799D01*
X298837Y791886D01*
X299073Y791967D01*
X299311Y792043D01*
X299550Y792112D01*
X299791Y792176D01*
X300034Y792233D01*
X300278Y792285D01*
X300523Y792330D01*
X300769Y792370D01*
X301016Y792404D01*
X301264Y792431D01*
X301513Y792452D01*
X301761Y792468D01*
X302011Y792477D01*
X302260Y792480D01*
X302509Y792477D01*
X302759Y792468D01*
X303007Y792452D01*
X303256Y792431D01*
X303504Y792404D01*
X303751Y792370D01*
X303997Y792330D01*
X304242Y792285D01*
X304486Y792233D01*
X304729Y792176D01*
X304970Y792112D01*
X305209Y792043D01*
X305447Y791967D01*
X305683Y791886D01*
X305917Y791799D01*
X306148Y791707D01*
X306377Y791608D01*
X306604Y791505D01*
X306828Y791395D01*
X307049Y791280D01*
X307268Y791160D01*
X307483Y791035D01*
X307696Y790904D01*
X307905Y790768D01*
X308110Y790627D01*
X308312Y790481D01*
X308511Y790330D01*
X308705Y790174D01*
X308896Y790013D01*
X309083Y789848D01*
X309266Y789678D01*
X309444Y789504D01*
X309618Y789326D01*
X309788Y789143D01*
X309953Y788956D01*
X310114Y788765D01*
X310270Y788571D01*
X310421Y788372D01*
X310567Y788170D01*
X310708Y787965D01*
X310844Y787756D01*
X310975Y787543D01*
X311100Y787328D01*
X311220Y787109D01*
X311335Y786888D01*
X311445Y786664D01*
X311548Y786437D01*
X311647Y786208D01*
X311739Y785977D01*
X311826Y785743D01*
X311907Y785507D01*
X311983Y785269D01*
X312052Y785030D01*
X312116Y784789D01*
X312173Y784546D01*
X312225Y784302D01*
X312270Y784057D01*
X312310Y783811D01*
X312344Y783564D01*
X312371Y783316D01*
X312392Y783067D01*
X312408Y782819D01*
X312417Y782569D01*
X312420Y782320D01*
X312417Y782071D01*
X312408Y781821D01*
X312392Y781573D01*
X312371Y781324D01*
X312344Y781076D01*
X312310Y780829D01*
X312270Y780583D01*
X312225Y780338D01*
X312173Y780094D01*
X312116Y779851D01*
X312052Y779610D01*
X311983Y779371D01*
X311907Y779133D01*
X311826Y778897D01*
X311739Y778663D01*
X311647Y778432D01*
X311548Y778203D01*
X311445Y777976D01*
X311335Y777752D01*
X311220Y777531D01*
X311100Y777312D01*
X310975Y777097D01*
X310844Y776884D01*
X310708Y776675D01*
X310567Y776470D01*
X310421Y776268D01*
X310270Y776069D01*
X310114Y775875D01*
X309953Y775684D01*
X309788Y775497D01*
X309618Y775314D01*
X309444Y775136D01*
X309266Y774962D01*
X309083Y774792D01*
X308896Y774627D01*
X308705Y774466D01*
X308511Y774310D01*
X308312Y774159D01*
X308110Y774013D01*
X307905Y773872D01*
X307696Y773736D01*
X307483Y773605D01*
X307268Y773480D01*
X307049Y773360D01*
X306828Y773245D01*
X306604Y773135D01*
X306377Y773032D01*
X306148Y772933D01*
X305917Y772841D01*
X305683Y772754D01*
X305447Y772673D01*
X305209Y772597D01*
X304970Y772528D01*
X304729Y772464D01*
X304486Y772407D01*
X304242Y772355D01*
X303997Y772310D01*
X303751Y772270D01*
X303504Y772236D01*
X303256Y772209D01*
X303007Y772188D01*
X302759Y772172D01*
X302509Y772163D01*
X302260Y772160D01*
X302011Y772163D01*
X301761Y772172D01*
X301513Y772188D01*
X301264Y772209D01*
X301016Y772236D01*
X300769Y772270D01*
X300523Y772310D01*
X300278Y772355D01*
X300034Y772407D01*
X299791Y772464D01*
X299550Y772528D01*
X299311Y772597D01*
X299073Y772673D01*
X298837Y772754D01*
X298603Y772841D01*
X298372Y772933D01*
X298143Y773032D01*
X297916Y773135D01*
X297692Y773245D01*
X297471Y773360D01*
X297252Y773480D01*
X297037Y773605D01*
X296824Y773736D01*
X296615Y773872D01*
X296410Y774013D01*
X296208Y774159D01*
X296009Y774310D01*
X295815Y774466D01*
X295624Y774627D01*
X295437Y774792D01*
X295254Y774962D01*
X295076Y775136D01*
X294902Y775314D01*
X294732Y775497D01*
X294567Y775684D01*
X294406Y775875D01*
X294250Y776069D01*
X294099Y776268D01*
X293953Y776470D01*
X293812Y776675D01*
X293676Y776884D01*
X293545Y777097D01*
X293420Y777312D01*
X293300Y777531D01*
X293185Y777752D01*
X293075Y777976D01*
X292972Y778203D01*
X292873Y778432D01*
X292781Y778663D01*
X292694Y778897D01*
X292613Y779133D01*
X292537Y779371D01*
X292468Y779610D01*
X292404Y779851D01*
X292347Y780094D01*
X292295Y780338D01*
X292250Y780583D01*
X292210Y780829D01*
X292176Y781076D01*
X292149Y781324D01*
X292128Y781573D01*
X292112Y781821D01*
X292103Y782071D01*
X292100Y782320D01*
X294640Y782320D02*
X294642Y782507D01*
X294649Y782694D01*
X294661Y782881D01*
X294677Y783067D01*
X294697Y783253D01*
X294722Y783438D01*
X294752Y783623D01*
X294786Y783807D01*
X294825Y783990D01*
X294868Y784172D01*
X294916Y784352D01*
X294968Y784532D01*
X295025Y784710D01*
X295085Y784887D01*
X295151Y785062D01*
X295220Y785236D01*
X295294Y785408D01*
X295372Y785578D01*
X295454Y785746D01*
X295540Y785912D01*
X295630Y786076D01*
X295724Y786237D01*
X295822Y786397D01*
X295924Y786553D01*
X296030Y786708D01*
X296140Y786859D01*
X296253Y787008D01*
X296370Y787154D01*
X296490Y787297D01*
X296614Y787437D01*
X296741Y787574D01*
X296872Y787708D01*
X297006Y787839D01*
X297143Y787966D01*
X297283Y788090D01*
X297426Y788210D01*
X297572Y788327D01*
X297721Y788440D01*
X297872Y788550D01*
X298027Y788656D01*
X298183Y788758D01*
X298343Y788856D01*
X298504Y788950D01*
X298668Y789040D01*
X298834Y789126D01*
X299002Y789208D01*
X299172Y789286D01*
X299344Y789360D01*
X299518Y789429D01*
X299693Y789495D01*
X299870Y789555D01*
X300048Y789612D01*
X300228Y789664D01*
X300408Y789712D01*
X300590Y789755D01*
X300773Y789794D01*
X300957Y789828D01*
X301142Y789858D01*
X301327Y789883D01*
X301513Y789903D01*
X301699Y789919D01*
X301886Y789931D01*
X302073Y789938D01*
X302260Y789940D01*
X302447Y789938D01*
X302634Y789931D01*
X302821Y789919D01*
X303007Y789903D01*
X303193Y789883D01*
X303378Y789858D01*
X303563Y789828D01*
X303747Y789794D01*
X303930Y789755D01*
X304112Y789712D01*
X304292Y789664D01*
X304472Y789612D01*
X304650Y789555D01*
X304827Y789495D01*
X305002Y789429D01*
X305176Y789360D01*
X305348Y789286D01*
X305518Y789208D01*
X305686Y789126D01*
X305852Y789040D01*
X306016Y788950D01*
X306177Y788856D01*
X306337Y788758D01*
X306493Y788656D01*
X306648Y788550D01*
X306799Y788440D01*
X306948Y788327D01*
X307094Y788210D01*
X307237Y788090D01*
X307377Y787966D01*
X307514Y787839D01*
X307648Y787708D01*
X307779Y787574D01*
X307906Y787437D01*
X308030Y787297D01*
X308150Y787154D01*
X308267Y787008D01*
X308380Y786859D01*
X308490Y786708D01*
X308596Y786553D01*
X308698Y786397D01*
X308796Y786237D01*
X308890Y786076D01*
X308980Y785912D01*
X309066Y785746D01*
X309148Y785578D01*
X309226Y785408D01*
X309300Y785236D01*
X309369Y785062D01*
X309435Y784887D01*
X309495Y784710D01*
X309552Y784532D01*
X309604Y784352D01*
X309652Y784172D01*
X309695Y783990D01*
X309734Y783807D01*
X309768Y783623D01*
X309798Y783438D01*
X309823Y783253D01*
X309843Y783067D01*
X309859Y782881D01*
X309871Y782694D01*
X309878Y782507D01*
X309880Y782320D01*
X309878Y782133D01*
X309871Y781946D01*
X309859Y781759D01*
X309843Y781573D01*
X309823Y781387D01*
X309798Y781202D01*
X309768Y781017D01*
X309734Y780833D01*
X309695Y780650D01*
X309652Y780468D01*
X309604Y780288D01*
X309552Y780108D01*
X309495Y779930D01*
X309435Y779753D01*
X309369Y779578D01*
X309300Y779404D01*
X309226Y779232D01*
X309148Y779062D01*
X309066Y778894D01*
X308980Y778728D01*
X308890Y778564D01*
X308796Y778403D01*
X308698Y778243D01*
X308596Y778087D01*
X308490Y777932D01*
X308380Y777781D01*
X308267Y777632D01*
X308150Y777486D01*
X308030Y777343D01*
X307906Y777203D01*
X307779Y777066D01*
X307648Y776932D01*
X307514Y776801D01*
X307377Y776674D01*
X307237Y776550D01*
X307094Y776430D01*
X306948Y776313D01*
X306799Y776200D01*
X306648Y776090D01*
X306493Y775984D01*
X306337Y775882D01*
X306177Y775784D01*
X306016Y775690D01*
X305852Y775600D01*
X305686Y775514D01*
X305518Y775432D01*
X305348Y775354D01*
X305176Y775280D01*
X305002Y775211D01*
X304827Y775145D01*
X304650Y775085D01*
X304472Y775028D01*
X304292Y774976D01*
X304112Y774928D01*
X303930Y774885D01*
X303747Y774846D01*
X303563Y774812D01*
X303378Y774782D01*
X303193Y774757D01*
X303007Y774737D01*
X302821Y774721D01*
X302634Y774709D01*
X302447Y774702D01*
X302260Y774700D01*
X302073Y774702D01*
X301886Y774709D01*
X301699Y774721D01*
X301513Y774737D01*
X301327Y774757D01*
X301142Y774782D01*
X300957Y774812D01*
X300773Y774846D01*
X300590Y774885D01*
X300408Y774928D01*
X300228Y774976D01*
X300048Y775028D01*
X299870Y775085D01*
X299693Y775145D01*
X299518Y775211D01*
X299344Y775280D01*
X299172Y775354D01*
X299002Y775432D01*
X298834Y775514D01*
X298668Y775600D01*
X298504Y775690D01*
X298343Y775784D01*
X298183Y775882D01*
X298027Y775984D01*
X297872Y776090D01*
X297721Y776200D01*
X297572Y776313D01*
X297426Y776430D01*
X297283Y776550D01*
X297143Y776674D01*
X297006Y776801D01*
X296872Y776932D01*
X296741Y777066D01*
X296614Y777203D01*
X296490Y777343D01*
X296370Y777486D01*
X296253Y777632D01*
X296140Y777781D01*
X296030Y777932D01*
X295924Y778087D01*
X295822Y778243D01*
X295724Y778403D01*
X295630Y778564D01*
X295540Y778728D01*
X295454Y778894D01*
X295372Y779062D01*
X295294Y779232D01*
X295220Y779404D01*
X295151Y779578D01*
X295085Y779753D01*
X295025Y779930D01*
X294968Y780108D01*
X294916Y780288D01*
X294868Y780468D01*
X294825Y780650D01*
X294786Y780833D01*
X294752Y781017D01*
X294722Y781202D01*
X294697Y781387D01*
X294677Y781573D01*
X294661Y781759D01*
X294649Y781946D01*
X294642Y782133D01*
X294640Y782320D01*
D15*
X343271Y744862D02*
X347084Y748675D01*
X347084Y737235D01*
X343271Y737235D02*
X350898Y737235D01*
X259458Y737235D02*
X251831Y737235D01*
X259458Y744862D01*
X259458Y746768D01*
X257551Y748675D01*
X253738Y748675D01*
X251831Y746768D01*
X343271Y826778D02*
X345178Y828685D01*
X348991Y828685D01*
X350898Y826778D01*
X350898Y824872D01*
X348991Y822965D01*
X347084Y822965D01*
X348991Y822965D02*
X350898Y821058D01*
X350898Y819152D01*
X348991Y817245D01*
X345178Y817245D01*
X343271Y819152D01*
X256281Y817245D02*
X256281Y828685D01*
X250561Y822965D01*
X258188Y822965D01*
D16*
X268605Y721360D03*
X335915Y721360D03*
X268605Y843280D03*
X335915Y843280D03*
D11*
X882650Y803910D02*
X920750Y803910D01*
X920750Y765810D01*
X882650Y765810D01*
X882650Y803910D01*
D14*
X885190Y801370D02*
X918210Y801370D01*
X918210Y768350D01*
X885190Y768350D01*
X885190Y801370D01*
D11*
X891540Y845820D02*
X891540Y849630D01*
X891540Y845820D02*
X911860Y845820D01*
X911860Y849630D02*
X891540Y849630D01*
X911860Y849630D02*
X911860Y845820D01*
X952500Y845820D02*
X962660Y835660D01*
X952500Y845820D02*
X919480Y845820D01*
X962660Y835660D02*
X962660Y822960D01*
X962660Y796290D02*
X962660Y773430D01*
X962660Y734060D02*
X952500Y723900D01*
X962660Y734060D02*
X962660Y746760D01*
X840740Y773430D02*
X840740Y796290D01*
X840740Y746760D02*
X840740Y734060D01*
X850900Y723900D01*
X883920Y723900D01*
X883920Y845820D02*
X850900Y845820D01*
X840740Y835660D01*
X840740Y822960D01*
X891540Y720090D02*
X911860Y720090D01*
X891540Y720090D02*
X891540Y723900D01*
X911860Y723900D02*
X911860Y720090D01*
X952500Y845820D02*
X949960Y848360D01*
X919480Y848360D01*
X919480Y845820D01*
X911860Y845820D01*
X883920Y845820D02*
X883920Y848360D01*
X883920Y845820D02*
X891540Y845820D01*
X883920Y848360D02*
X853440Y848360D01*
X850900Y845820D01*
X891540Y723900D02*
X911860Y723900D01*
X919480Y723900D01*
X883920Y723900D02*
X883920Y721360D01*
X883920Y723900D02*
X891540Y723900D01*
X883920Y721360D02*
X853440Y721360D01*
X850900Y723900D01*
X919480Y723900D02*
X919480Y721360D01*
X919480Y723900D02*
X952500Y723900D01*
X949960Y721360D02*
X919480Y721360D01*
X949960Y721360D02*
X952500Y723900D01*
X866140Y784860D02*
X866151Y785733D01*
X866183Y786605D01*
X866236Y787476D01*
X866311Y788345D01*
X866407Y789213D01*
X866525Y790078D01*
X866664Y790939D01*
X866823Y791797D01*
X867004Y792651D01*
X867206Y793500D01*
X867428Y794344D01*
X867671Y795183D01*
X867935Y796015D01*
X868219Y796840D01*
X868523Y797658D01*
X868847Y798468D01*
X869191Y799270D01*
X869554Y800064D01*
X869937Y800848D01*
X870339Y801623D01*
X870760Y802387D01*
X871199Y803141D01*
X871657Y803885D01*
X872133Y804616D01*
X872627Y805336D01*
X873138Y806043D01*
X873666Y806738D01*
X874212Y807419D01*
X874774Y808087D01*
X875352Y808741D01*
X875946Y809380D01*
X876555Y810005D01*
X877180Y810614D01*
X877819Y811208D01*
X878473Y811786D01*
X879141Y812348D01*
X879822Y812894D01*
X880517Y813422D01*
X881224Y813933D01*
X881944Y814427D01*
X882675Y814903D01*
X883419Y815361D01*
X884173Y815800D01*
X884937Y816221D01*
X885712Y816623D01*
X886496Y817006D01*
X887290Y817369D01*
X888092Y817713D01*
X888902Y818037D01*
X889720Y818341D01*
X890545Y818625D01*
X891377Y818889D01*
X892216Y819132D01*
X893060Y819354D01*
X893909Y819556D01*
X894763Y819737D01*
X895621Y819896D01*
X896482Y820035D01*
X897347Y820153D01*
X898215Y820249D01*
X899084Y820324D01*
X899955Y820377D01*
X900827Y820409D01*
X901700Y820420D01*
X902573Y820409D01*
X903445Y820377D01*
X904316Y820324D01*
X905185Y820249D01*
X906053Y820153D01*
X906918Y820035D01*
X907779Y819896D01*
X908637Y819737D01*
X909491Y819556D01*
X910340Y819354D01*
X911184Y819132D01*
X912023Y818889D01*
X912855Y818625D01*
X913680Y818341D01*
X914498Y818037D01*
X915308Y817713D01*
X916110Y817369D01*
X916904Y817006D01*
X917688Y816623D01*
X918463Y816221D01*
X919227Y815800D01*
X919981Y815361D01*
X920725Y814903D01*
X921456Y814427D01*
X922176Y813933D01*
X922883Y813422D01*
X923578Y812894D01*
X924259Y812348D01*
X924927Y811786D01*
X925581Y811208D01*
X926220Y810614D01*
X926845Y810005D01*
X927454Y809380D01*
X928048Y808741D01*
X928626Y808087D01*
X929188Y807419D01*
X929734Y806738D01*
X930262Y806043D01*
X930773Y805336D01*
X931267Y804616D01*
X931743Y803885D01*
X932201Y803141D01*
X932640Y802387D01*
X933061Y801623D01*
X933463Y800848D01*
X933846Y800064D01*
X934209Y799270D01*
X934553Y798468D01*
X934877Y797658D01*
X935181Y796840D01*
X935465Y796015D01*
X935729Y795183D01*
X935972Y794344D01*
X936194Y793500D01*
X936396Y792651D01*
X936577Y791797D01*
X936736Y790939D01*
X936875Y790078D01*
X936993Y789213D01*
X937089Y788345D01*
X937164Y787476D01*
X937217Y786605D01*
X937249Y785733D01*
X937260Y784860D01*
X937249Y783987D01*
X937217Y783115D01*
X937164Y782244D01*
X937089Y781375D01*
X936993Y780507D01*
X936875Y779642D01*
X936736Y778781D01*
X936577Y777923D01*
X936396Y777069D01*
X936194Y776220D01*
X935972Y775376D01*
X935729Y774537D01*
X935465Y773705D01*
X935181Y772880D01*
X934877Y772062D01*
X934553Y771252D01*
X934209Y770450D01*
X933846Y769656D01*
X933463Y768872D01*
X933061Y768097D01*
X932640Y767333D01*
X932201Y766579D01*
X931743Y765835D01*
X931267Y765104D01*
X930773Y764384D01*
X930262Y763677D01*
X929734Y762982D01*
X929188Y762301D01*
X928626Y761633D01*
X928048Y760979D01*
X927454Y760340D01*
X926845Y759715D01*
X926220Y759106D01*
X925581Y758512D01*
X924927Y757934D01*
X924259Y757372D01*
X923578Y756826D01*
X922883Y756298D01*
X922176Y755787D01*
X921456Y755293D01*
X920725Y754817D01*
X919981Y754359D01*
X919227Y753920D01*
X918463Y753499D01*
X917688Y753097D01*
X916904Y752714D01*
X916110Y752351D01*
X915308Y752007D01*
X914498Y751683D01*
X913680Y751379D01*
X912855Y751095D01*
X912023Y750831D01*
X911184Y750588D01*
X910340Y750366D01*
X909491Y750164D01*
X908637Y749983D01*
X907779Y749824D01*
X906918Y749685D01*
X906053Y749567D01*
X905185Y749471D01*
X904316Y749396D01*
X903445Y749343D01*
X902573Y749311D01*
X901700Y749300D01*
X900827Y749311D01*
X899955Y749343D01*
X899084Y749396D01*
X898215Y749471D01*
X897347Y749567D01*
X896482Y749685D01*
X895621Y749824D01*
X894763Y749983D01*
X893909Y750164D01*
X893060Y750366D01*
X892216Y750588D01*
X891377Y750831D01*
X890545Y751095D01*
X889720Y751379D01*
X888902Y751683D01*
X888092Y752007D01*
X887290Y752351D01*
X886496Y752714D01*
X885712Y753097D01*
X884937Y753499D01*
X884173Y753920D01*
X883419Y754359D01*
X882675Y754817D01*
X881944Y755293D01*
X881224Y755787D01*
X880517Y756298D01*
X879822Y756826D01*
X879141Y757372D01*
X878473Y757934D01*
X877819Y758512D01*
X877180Y759106D01*
X876555Y759715D01*
X875946Y760340D01*
X875352Y760979D01*
X874774Y761633D01*
X874212Y762301D01*
X873666Y762982D01*
X873138Y763677D01*
X872627Y764384D01*
X872133Y765104D01*
X871657Y765835D01*
X871199Y766579D01*
X870760Y767333D01*
X870339Y768097D01*
X869937Y768872D01*
X869554Y769656D01*
X869191Y770450D01*
X868847Y771252D01*
X868523Y772062D01*
X868219Y772880D01*
X867935Y773705D01*
X867671Y774537D01*
X867428Y775376D01*
X867206Y776220D01*
X867004Y777069D01*
X866823Y777923D01*
X866664Y778781D01*
X866525Y779642D01*
X866407Y780507D01*
X866311Y781375D01*
X866236Y782244D01*
X866183Y783115D01*
X866151Y783987D01*
X866140Y784860D01*
D14*
X891540Y784860D02*
X891543Y785109D01*
X891552Y785359D01*
X891568Y785607D01*
X891589Y785856D01*
X891616Y786104D01*
X891650Y786351D01*
X891690Y786597D01*
X891735Y786842D01*
X891787Y787086D01*
X891844Y787329D01*
X891908Y787570D01*
X891977Y787809D01*
X892053Y788047D01*
X892134Y788283D01*
X892221Y788517D01*
X892313Y788748D01*
X892412Y788977D01*
X892515Y789204D01*
X892625Y789428D01*
X892740Y789649D01*
X892860Y789868D01*
X892985Y790083D01*
X893116Y790296D01*
X893252Y790505D01*
X893393Y790710D01*
X893539Y790912D01*
X893690Y791111D01*
X893846Y791305D01*
X894007Y791496D01*
X894172Y791683D01*
X894342Y791866D01*
X894516Y792044D01*
X894694Y792218D01*
X894877Y792388D01*
X895064Y792553D01*
X895255Y792714D01*
X895449Y792870D01*
X895648Y793021D01*
X895850Y793167D01*
X896055Y793308D01*
X896264Y793444D01*
X896477Y793575D01*
X896692Y793700D01*
X896911Y793820D01*
X897132Y793935D01*
X897356Y794045D01*
X897583Y794148D01*
X897812Y794247D01*
X898043Y794339D01*
X898277Y794426D01*
X898513Y794507D01*
X898751Y794583D01*
X898990Y794652D01*
X899231Y794716D01*
X899474Y794773D01*
X899718Y794825D01*
X899963Y794870D01*
X900209Y794910D01*
X900456Y794944D01*
X900704Y794971D01*
X900953Y794992D01*
X901201Y795008D01*
X901451Y795017D01*
X901700Y795020D01*
X901949Y795017D01*
X902199Y795008D01*
X902447Y794992D01*
X902696Y794971D01*
X902944Y794944D01*
X903191Y794910D01*
X903437Y794870D01*
X903682Y794825D01*
X903926Y794773D01*
X904169Y794716D01*
X904410Y794652D01*
X904649Y794583D01*
X904887Y794507D01*
X905123Y794426D01*
X905357Y794339D01*
X905588Y794247D01*
X905817Y794148D01*
X906044Y794045D01*
X906268Y793935D01*
X906489Y793820D01*
X906708Y793700D01*
X906923Y793575D01*
X907136Y793444D01*
X907345Y793308D01*
X907550Y793167D01*
X907752Y793021D01*
X907951Y792870D01*
X908145Y792714D01*
X908336Y792553D01*
X908523Y792388D01*
X908706Y792218D01*
X908884Y792044D01*
X909058Y791866D01*
X909228Y791683D01*
X909393Y791496D01*
X909554Y791305D01*
X909710Y791111D01*
X909861Y790912D01*
X910007Y790710D01*
X910148Y790505D01*
X910284Y790296D01*
X910415Y790083D01*
X910540Y789868D01*
X910660Y789649D01*
X910775Y789428D01*
X910885Y789204D01*
X910988Y788977D01*
X911087Y788748D01*
X911179Y788517D01*
X911266Y788283D01*
X911347Y788047D01*
X911423Y787809D01*
X911492Y787570D01*
X911556Y787329D01*
X911613Y787086D01*
X911665Y786842D01*
X911710Y786597D01*
X911750Y786351D01*
X911784Y786104D01*
X911811Y785856D01*
X911832Y785607D01*
X911848Y785359D01*
X911857Y785109D01*
X911860Y784860D01*
X911857Y784611D01*
X911848Y784361D01*
X911832Y784113D01*
X911811Y783864D01*
X911784Y783616D01*
X911750Y783369D01*
X911710Y783123D01*
X911665Y782878D01*
X911613Y782634D01*
X911556Y782391D01*
X911492Y782150D01*
X911423Y781911D01*
X911347Y781673D01*
X911266Y781437D01*
X911179Y781203D01*
X911087Y780972D01*
X910988Y780743D01*
X910885Y780516D01*
X910775Y780292D01*
X910660Y780071D01*
X910540Y779852D01*
X910415Y779637D01*
X910284Y779424D01*
X910148Y779215D01*
X910007Y779010D01*
X909861Y778808D01*
X909710Y778609D01*
X909554Y778415D01*
X909393Y778224D01*
X909228Y778037D01*
X909058Y777854D01*
X908884Y777676D01*
X908706Y777502D01*
X908523Y777332D01*
X908336Y777167D01*
X908145Y777006D01*
X907951Y776850D01*
X907752Y776699D01*
X907550Y776553D01*
X907345Y776412D01*
X907136Y776276D01*
X906923Y776145D01*
X906708Y776020D01*
X906489Y775900D01*
X906268Y775785D01*
X906044Y775675D01*
X905817Y775572D01*
X905588Y775473D01*
X905357Y775381D01*
X905123Y775294D01*
X904887Y775213D01*
X904649Y775137D01*
X904410Y775068D01*
X904169Y775004D01*
X903926Y774947D01*
X903682Y774895D01*
X903437Y774850D01*
X903191Y774810D01*
X902944Y774776D01*
X902696Y774749D01*
X902447Y774728D01*
X902199Y774712D01*
X901949Y774703D01*
X901700Y774700D01*
X901451Y774703D01*
X901201Y774712D01*
X900953Y774728D01*
X900704Y774749D01*
X900456Y774776D01*
X900209Y774810D01*
X899963Y774850D01*
X899718Y774895D01*
X899474Y774947D01*
X899231Y775004D01*
X898990Y775068D01*
X898751Y775137D01*
X898513Y775213D01*
X898277Y775294D01*
X898043Y775381D01*
X897812Y775473D01*
X897583Y775572D01*
X897356Y775675D01*
X897132Y775785D01*
X896911Y775900D01*
X896692Y776020D01*
X896477Y776145D01*
X896264Y776276D01*
X896055Y776412D01*
X895850Y776553D01*
X895648Y776699D01*
X895449Y776850D01*
X895255Y777006D01*
X895064Y777167D01*
X894877Y777332D01*
X894694Y777502D01*
X894516Y777676D01*
X894342Y777854D01*
X894172Y778037D01*
X894007Y778224D01*
X893846Y778415D01*
X893690Y778609D01*
X893539Y778808D01*
X893393Y779010D01*
X893252Y779215D01*
X893116Y779424D01*
X892985Y779637D01*
X892860Y779852D01*
X892740Y780071D01*
X892625Y780292D01*
X892515Y780516D01*
X892412Y780743D01*
X892313Y780972D01*
X892221Y781203D01*
X892134Y781437D01*
X892053Y781673D01*
X891977Y781911D01*
X891908Y782150D01*
X891844Y782391D01*
X891787Y782634D01*
X891735Y782878D01*
X891690Y783123D01*
X891650Y783369D01*
X891616Y783616D01*
X891589Y783864D01*
X891568Y784113D01*
X891552Y784361D01*
X891543Y784611D01*
X891540Y784860D01*
X894080Y784860D02*
X894082Y785047D01*
X894089Y785234D01*
X894101Y785421D01*
X894117Y785607D01*
X894137Y785793D01*
X894162Y785978D01*
X894192Y786163D01*
X894226Y786347D01*
X894265Y786530D01*
X894308Y786712D01*
X894356Y786892D01*
X894408Y787072D01*
X894465Y787250D01*
X894525Y787427D01*
X894591Y787602D01*
X894660Y787776D01*
X894734Y787948D01*
X894812Y788118D01*
X894894Y788286D01*
X894980Y788452D01*
X895070Y788616D01*
X895164Y788777D01*
X895262Y788937D01*
X895364Y789093D01*
X895470Y789248D01*
X895580Y789399D01*
X895693Y789548D01*
X895810Y789694D01*
X895930Y789837D01*
X896054Y789977D01*
X896181Y790114D01*
X896312Y790248D01*
X896446Y790379D01*
X896583Y790506D01*
X896723Y790630D01*
X896866Y790750D01*
X897012Y790867D01*
X897161Y790980D01*
X897312Y791090D01*
X897467Y791196D01*
X897623Y791298D01*
X897783Y791396D01*
X897944Y791490D01*
X898108Y791580D01*
X898274Y791666D01*
X898442Y791748D01*
X898612Y791826D01*
X898784Y791900D01*
X898958Y791969D01*
X899133Y792035D01*
X899310Y792095D01*
X899488Y792152D01*
X899668Y792204D01*
X899848Y792252D01*
X900030Y792295D01*
X900213Y792334D01*
X900397Y792368D01*
X900582Y792398D01*
X900767Y792423D01*
X900953Y792443D01*
X901139Y792459D01*
X901326Y792471D01*
X901513Y792478D01*
X901700Y792480D01*
X901887Y792478D01*
X902074Y792471D01*
X902261Y792459D01*
X902447Y792443D01*
X902633Y792423D01*
X902818Y792398D01*
X903003Y792368D01*
X903187Y792334D01*
X903370Y792295D01*
X903552Y792252D01*
X903732Y792204D01*
X903912Y792152D01*
X904090Y792095D01*
X904267Y792035D01*
X904442Y791969D01*
X904616Y791900D01*
X904788Y791826D01*
X904958Y791748D01*
X905126Y791666D01*
X905292Y791580D01*
X905456Y791490D01*
X905617Y791396D01*
X905777Y791298D01*
X905933Y791196D01*
X906088Y791090D01*
X906239Y790980D01*
X906388Y790867D01*
X906534Y790750D01*
X906677Y790630D01*
X906817Y790506D01*
X906954Y790379D01*
X907088Y790248D01*
X907219Y790114D01*
X907346Y789977D01*
X907470Y789837D01*
X907590Y789694D01*
X907707Y789548D01*
X907820Y789399D01*
X907930Y789248D01*
X908036Y789093D01*
X908138Y788937D01*
X908236Y788777D01*
X908330Y788616D01*
X908420Y788452D01*
X908506Y788286D01*
X908588Y788118D01*
X908666Y787948D01*
X908740Y787776D01*
X908809Y787602D01*
X908875Y787427D01*
X908935Y787250D01*
X908992Y787072D01*
X909044Y786892D01*
X909092Y786712D01*
X909135Y786530D01*
X909174Y786347D01*
X909208Y786163D01*
X909238Y785978D01*
X909263Y785793D01*
X909283Y785607D01*
X909299Y785421D01*
X909311Y785234D01*
X909318Y785047D01*
X909320Y784860D01*
X909318Y784673D01*
X909311Y784486D01*
X909299Y784299D01*
X909283Y784113D01*
X909263Y783927D01*
X909238Y783742D01*
X909208Y783557D01*
X909174Y783373D01*
X909135Y783190D01*
X909092Y783008D01*
X909044Y782828D01*
X908992Y782648D01*
X908935Y782470D01*
X908875Y782293D01*
X908809Y782118D01*
X908740Y781944D01*
X908666Y781772D01*
X908588Y781602D01*
X908506Y781434D01*
X908420Y781268D01*
X908330Y781104D01*
X908236Y780943D01*
X908138Y780783D01*
X908036Y780627D01*
X907930Y780472D01*
X907820Y780321D01*
X907707Y780172D01*
X907590Y780026D01*
X907470Y779883D01*
X907346Y779743D01*
X907219Y779606D01*
X907088Y779472D01*
X906954Y779341D01*
X906817Y779214D01*
X906677Y779090D01*
X906534Y778970D01*
X906388Y778853D01*
X906239Y778740D01*
X906088Y778630D01*
X905933Y778524D01*
X905777Y778422D01*
X905617Y778324D01*
X905456Y778230D01*
X905292Y778140D01*
X905126Y778054D01*
X904958Y777972D01*
X904788Y777894D01*
X904616Y777820D01*
X904442Y777751D01*
X904267Y777685D01*
X904090Y777625D01*
X903912Y777568D01*
X903732Y777516D01*
X903552Y777468D01*
X903370Y777425D01*
X903187Y777386D01*
X903003Y777352D01*
X902818Y777322D01*
X902633Y777297D01*
X902447Y777277D01*
X902261Y777261D01*
X902074Y777249D01*
X901887Y777242D01*
X901700Y777240D01*
X901513Y777242D01*
X901326Y777249D01*
X901139Y777261D01*
X900953Y777277D01*
X900767Y777297D01*
X900582Y777322D01*
X900397Y777352D01*
X900213Y777386D01*
X900030Y777425D01*
X899848Y777468D01*
X899668Y777516D01*
X899488Y777568D01*
X899310Y777625D01*
X899133Y777685D01*
X898958Y777751D01*
X898784Y777820D01*
X898612Y777894D01*
X898442Y777972D01*
X898274Y778054D01*
X898108Y778140D01*
X897944Y778230D01*
X897783Y778324D01*
X897623Y778422D01*
X897467Y778524D01*
X897312Y778630D01*
X897161Y778740D01*
X897012Y778853D01*
X896866Y778970D01*
X896723Y779090D01*
X896583Y779214D01*
X896446Y779341D01*
X896312Y779472D01*
X896181Y779606D01*
X896054Y779743D01*
X895930Y779883D01*
X895810Y780026D01*
X895693Y780172D01*
X895580Y780321D01*
X895470Y780472D01*
X895364Y780627D01*
X895262Y780783D01*
X895164Y780943D01*
X895070Y781104D01*
X894980Y781268D01*
X894894Y781434D01*
X894812Y781602D01*
X894734Y781772D01*
X894660Y781944D01*
X894591Y782118D01*
X894525Y782293D01*
X894465Y782470D01*
X894408Y782648D01*
X894356Y782828D01*
X894308Y783008D01*
X894265Y783190D01*
X894226Y783373D01*
X894192Y783557D01*
X894162Y783742D01*
X894137Y783927D01*
X894117Y784113D01*
X894101Y784299D01*
X894089Y784486D01*
X894082Y784673D01*
X894080Y784860D01*
D15*
X850265Y826142D02*
X854078Y829955D01*
X854078Y818515D01*
X850265Y818515D02*
X857892Y818515D01*
X941705Y818515D02*
X949332Y818515D01*
X941705Y818515D02*
X949332Y826142D01*
X949332Y828048D01*
X947425Y829955D01*
X943612Y829955D01*
X941705Y828048D01*
X852172Y749945D02*
X850265Y748038D01*
X852172Y749945D02*
X855985Y749945D01*
X857892Y748038D01*
X857892Y746132D01*
X855985Y744225D01*
X854078Y744225D01*
X855985Y744225D02*
X857892Y742318D01*
X857892Y740412D01*
X855985Y738505D01*
X852172Y738505D01*
X850265Y740412D01*
X948695Y738505D02*
X948695Y749945D01*
X942975Y744225D01*
X950602Y744225D01*
D16*
X935355Y845820D03*
X868045Y845820D03*
X935355Y723900D03*
X868045Y723900D03*
D10*
X201930Y78740D02*
X189230Y78740D01*
X182880Y85090D01*
X182880Y97790D02*
X189230Y104140D01*
X227330Y78740D02*
X233680Y85090D01*
X227330Y78740D02*
X214630Y78740D01*
X208280Y85090D01*
X208280Y97790D02*
X214630Y104140D01*
X227330Y104140D01*
X233680Y97790D01*
X208280Y85090D02*
X201930Y78740D01*
X208280Y97790D02*
X201930Y104140D01*
X189230Y104140D01*
X265430Y78740D02*
X278130Y78740D01*
X265430Y78740D02*
X259080Y85090D01*
X259080Y97790D02*
X265430Y104140D01*
X259080Y85090D02*
X252730Y78740D01*
X240030Y78740D01*
X233680Y85090D01*
X233680Y97790D02*
X240030Y104140D01*
X252730Y104140D01*
X259080Y97790D01*
X303530Y78740D02*
X309880Y85090D01*
X303530Y78740D02*
X290830Y78740D01*
X284480Y85090D01*
X284480Y97790D02*
X290830Y104140D01*
X303530Y104140D01*
X309880Y97790D01*
X284480Y85090D02*
X278130Y78740D01*
X284480Y97790D02*
X278130Y104140D01*
X265430Y104140D01*
X341630Y78740D02*
X354330Y78740D01*
X341630Y78740D02*
X335280Y85090D01*
X335280Y97790D02*
X341630Y104140D01*
X335280Y85090D02*
X328930Y78740D01*
X316230Y78740D01*
X309880Y85090D01*
X309880Y97790D02*
X316230Y104140D01*
X328930Y104140D01*
X335280Y97790D01*
X360680Y97790D02*
X360680Y85090D01*
X354330Y78740D01*
X360680Y97790D02*
X354330Y104140D01*
X341630Y104140D01*
X176530Y78740D02*
X163830Y78740D01*
X157480Y85090D01*
X157480Y97790D02*
X163830Y104140D01*
X182880Y85090D02*
X176530Y78740D01*
X182880Y97790D02*
X176530Y104140D01*
X163830Y104140D01*
X151130Y78740D02*
X138430Y78740D01*
X132080Y85090D01*
X132080Y97790D02*
X138430Y104140D01*
X157480Y85090D02*
X151130Y78740D01*
X157480Y97790D02*
X151130Y104140D01*
X138430Y104140D01*
X125730Y78740D02*
X113030Y78740D01*
X106680Y85090D01*
X106680Y97790D02*
X113030Y104140D01*
X132080Y85090D02*
X125730Y78740D01*
X132080Y97790D02*
X125730Y104140D01*
X113030Y104140D01*
X100330Y78740D02*
X87630Y78740D01*
X81280Y85090D01*
X81280Y97790D01*
X87630Y104140D01*
X106680Y85090D02*
X100330Y78740D01*
X106680Y97790D02*
X100330Y104140D01*
X87630Y104140D01*
X504190Y574040D02*
X516890Y574040D01*
X523240Y567690D01*
X523240Y554990D02*
X516890Y548640D01*
X478790Y574040D02*
X472440Y567690D01*
X478790Y574040D02*
X491490Y574040D01*
X497840Y567690D01*
X497840Y554990D02*
X491490Y548640D01*
X478790Y548640D01*
X472440Y554990D01*
X497840Y567690D02*
X504190Y574040D01*
X497840Y554990D02*
X504190Y548640D01*
X516890Y548640D01*
X440690Y574040D02*
X427990Y574040D01*
X440690Y574040D02*
X447040Y567690D01*
X447040Y554990D02*
X440690Y548640D01*
X447040Y567690D02*
X453390Y574040D01*
X466090Y574040D01*
X472440Y567690D01*
X472440Y554990D02*
X466090Y548640D01*
X453390Y548640D01*
X447040Y554990D01*
X402590Y574040D02*
X396240Y567690D01*
X402590Y574040D02*
X415290Y574040D01*
X421640Y567690D01*
X421640Y554990D02*
X415290Y548640D01*
X402590Y548640D01*
X396240Y554990D01*
X421640Y567690D02*
X427990Y574040D01*
X421640Y554990D02*
X427990Y548640D01*
X440690Y548640D01*
X364490Y574040D02*
X351790Y574040D01*
X364490Y574040D02*
X370840Y567690D01*
X370840Y554990D02*
X364490Y548640D01*
X370840Y567690D02*
X377190Y574040D01*
X389890Y574040D01*
X396240Y567690D01*
X396240Y554990D02*
X389890Y548640D01*
X377190Y548640D01*
X370840Y554990D01*
X345440Y554990D02*
X345440Y567690D01*
X351790Y574040D01*
X345440Y554990D02*
X351790Y548640D01*
X364490Y548640D01*
X681990Y574040D02*
X694690Y574040D01*
X701040Y567690D01*
X701040Y554990D02*
X694690Y548640D01*
X656590Y574040D02*
X650240Y567690D01*
X656590Y574040D02*
X669290Y574040D01*
X675640Y567690D01*
X675640Y554990D02*
X669290Y548640D01*
X656590Y548640D01*
X650240Y554990D01*
X675640Y567690D02*
X681990Y574040D01*
X675640Y554990D02*
X681990Y548640D01*
X694690Y548640D01*
X618490Y574040D02*
X605790Y574040D01*
X618490Y574040D02*
X624840Y567690D01*
X624840Y554990D02*
X618490Y548640D01*
X624840Y567690D02*
X631190Y574040D01*
X643890Y574040D01*
X650240Y567690D01*
X650240Y554990D02*
X643890Y548640D01*
X631190Y548640D01*
X624840Y554990D01*
X580390Y574040D02*
X574040Y567690D01*
X580390Y574040D02*
X593090Y574040D01*
X599440Y567690D01*
X599440Y554990D02*
X593090Y548640D01*
X580390Y548640D01*
X574040Y554990D01*
X599440Y567690D02*
X605790Y574040D01*
X599440Y554990D02*
X605790Y548640D01*
X618490Y548640D01*
X542290Y574040D02*
X529590Y574040D01*
X542290Y574040D02*
X548640Y567690D01*
X548640Y554990D02*
X542290Y548640D01*
X548640Y567690D02*
X554990Y574040D01*
X567690Y574040D01*
X574040Y567690D01*
X574040Y554990D02*
X567690Y548640D01*
X554990Y548640D01*
X548640Y554990D01*
X529590Y574040D02*
X523240Y567690D01*
X523240Y554990D02*
X529590Y548640D01*
X542290Y548640D01*
X701040Y567690D02*
X707390Y574040D01*
X720090Y574040D01*
X726440Y567690D01*
X726440Y554990D01*
X720090Y548640D01*
X707390Y548640D01*
X701040Y554990D01*
X255270Y236220D02*
X242570Y236220D01*
X255270Y236220D02*
X261620Y229870D01*
X261620Y217170D02*
X255270Y210820D01*
X217170Y236220D02*
X210820Y229870D01*
X217170Y236220D02*
X229870Y236220D01*
X236220Y229870D01*
X236220Y217170D02*
X229870Y210820D01*
X217170Y210820D01*
X210820Y217170D01*
X236220Y229870D02*
X242570Y236220D01*
X236220Y217170D02*
X242570Y210820D01*
X255270Y210820D01*
X179070Y236220D02*
X166370Y236220D01*
X179070Y236220D02*
X185420Y229870D01*
X185420Y217170D02*
X179070Y210820D01*
X185420Y229870D02*
X191770Y236220D01*
X204470Y236220D01*
X210820Y229870D01*
X210820Y217170D02*
X204470Y210820D01*
X191770Y210820D01*
X185420Y217170D01*
X140970Y236220D02*
X134620Y229870D01*
X140970Y236220D02*
X153670Y236220D01*
X160020Y229870D01*
X160020Y217170D02*
X153670Y210820D01*
X140970Y210820D01*
X134620Y217170D01*
X160020Y229870D02*
X166370Y236220D01*
X160020Y217170D02*
X166370Y210820D01*
X179070Y210820D01*
X102870Y236220D02*
X90170Y236220D01*
X102870Y236220D02*
X109220Y229870D01*
X109220Y217170D02*
X102870Y210820D01*
X109220Y229870D02*
X115570Y236220D01*
X128270Y236220D01*
X134620Y229870D01*
X134620Y217170D02*
X128270Y210820D01*
X115570Y210820D01*
X109220Y217170D01*
X83820Y217170D02*
X83820Y229870D01*
X90170Y236220D01*
X83820Y217170D02*
X90170Y210820D01*
X102870Y210820D01*
X420370Y236220D02*
X433070Y236220D01*
X439420Y229870D01*
X439420Y217170D02*
X433070Y210820D01*
X394970Y236220D02*
X388620Y229870D01*
X394970Y236220D02*
X407670Y236220D01*
X414020Y229870D01*
X414020Y217170D02*
X407670Y210820D01*
X394970Y210820D01*
X388620Y217170D01*
X414020Y229870D02*
X420370Y236220D01*
X414020Y217170D02*
X420370Y210820D01*
X433070Y210820D01*
X356870Y236220D02*
X344170Y236220D01*
X356870Y236220D02*
X363220Y229870D01*
X363220Y217170D02*
X356870Y210820D01*
X363220Y229870D02*
X369570Y236220D01*
X382270Y236220D01*
X388620Y229870D01*
X388620Y217170D02*
X382270Y210820D01*
X369570Y210820D01*
X363220Y217170D01*
X318770Y236220D02*
X312420Y229870D01*
X318770Y236220D02*
X331470Y236220D01*
X337820Y229870D01*
X337820Y217170D02*
X331470Y210820D01*
X318770Y210820D01*
X312420Y217170D01*
X337820Y229870D02*
X344170Y236220D01*
X337820Y217170D02*
X344170Y210820D01*
X356870Y210820D01*
X280670Y236220D02*
X267970Y236220D01*
X280670Y236220D02*
X287020Y229870D01*
X287020Y217170D02*
X280670Y210820D01*
X287020Y229870D02*
X293370Y236220D01*
X306070Y236220D01*
X312420Y229870D01*
X312420Y217170D02*
X306070Y210820D01*
X293370Y210820D01*
X287020Y217170D01*
X267970Y236220D02*
X261620Y229870D01*
X261620Y217170D02*
X267970Y210820D01*
X280670Y210820D01*
X439420Y229870D02*
X445770Y236220D01*
X458470Y236220D01*
X464820Y229870D01*
X464820Y217170D01*
X458470Y210820D01*
X445770Y210820D01*
X439420Y217170D01*
X64770Y236220D02*
X58420Y229870D01*
X64770Y236220D02*
X77470Y236220D01*
X83820Y229870D01*
X83820Y217170D02*
X77470Y210820D01*
X64770Y210820D01*
X58420Y217170D01*
X26670Y236220D02*
X13970Y236220D01*
X26670Y236220D02*
X33020Y229870D01*
X33020Y217170D02*
X26670Y210820D01*
X33020Y229870D02*
X39370Y236220D01*
X52070Y236220D01*
X58420Y229870D01*
X58420Y217170D02*
X52070Y210820D01*
X39370Y210820D01*
X33020Y217170D01*
X7620Y217170D02*
X7620Y229870D01*
X13970Y236220D01*
X7620Y217170D02*
X13970Y210820D01*
X26670Y210820D01*
X83820Y217170D02*
X83820Y229870D01*
X320040Y567690D02*
X326390Y574040D01*
X339090Y574040D01*
X345440Y567690D01*
X345440Y554990D02*
X339090Y548640D01*
X326390Y548640D01*
X320040Y554990D01*
X288290Y574040D02*
X275590Y574040D01*
X288290Y574040D02*
X294640Y567690D01*
X294640Y554990D02*
X288290Y548640D01*
X294640Y567690D02*
X300990Y574040D01*
X313690Y574040D01*
X320040Y567690D01*
X320040Y554990D02*
X313690Y548640D01*
X300990Y548640D01*
X294640Y554990D01*
X269240Y554990D02*
X269240Y567690D01*
X275590Y574040D01*
X269240Y554990D02*
X275590Y548640D01*
X288290Y548640D01*
X345440Y554990D02*
X345440Y567690D01*
X78740Y689610D02*
X72390Y695960D01*
X78740Y689610D02*
X78740Y676910D01*
X72390Y670560D01*
X59690Y670560D02*
X53340Y676910D01*
X53340Y689610D01*
X59690Y695960D01*
X78740Y727710D02*
X78740Y740410D01*
X78740Y727710D02*
X72390Y721360D01*
X59690Y721360D02*
X53340Y727710D01*
X72390Y721360D02*
X78740Y715010D01*
X78740Y702310D01*
X72390Y695960D01*
X59690Y695960D02*
X53340Y702310D01*
X53340Y715010D01*
X59690Y721360D01*
X59690Y746760D02*
X72390Y746760D01*
X78740Y740410D01*
X59690Y746760D02*
X53340Y740410D01*
X53340Y727710D01*
X59690Y670560D02*
X72390Y670560D01*
X541020Y229870D02*
X547370Y236220D01*
X560070Y236220D01*
X566420Y229870D01*
X566420Y217170D02*
X560070Y210820D01*
X547370Y210820D01*
X541020Y217170D01*
X509270Y236220D02*
X496570Y236220D01*
X509270Y236220D02*
X515620Y229870D01*
X515620Y217170D02*
X509270Y210820D01*
X515620Y229870D02*
X521970Y236220D01*
X534670Y236220D01*
X541020Y229870D01*
X541020Y217170D02*
X534670Y210820D01*
X521970Y210820D01*
X515620Y217170D01*
X490220Y217170D02*
X490220Y229870D01*
X496570Y236220D01*
X490220Y217170D02*
X496570Y210820D01*
X509270Y210820D01*
X566420Y217170D02*
X566420Y229870D01*
X598170Y210820D02*
X610870Y210820D01*
X598170Y210820D02*
X591820Y217170D01*
X591820Y229870D02*
X598170Y236220D01*
X591820Y217170D02*
X585470Y210820D01*
X572770Y210820D01*
X566420Y217170D01*
X566420Y229870D02*
X572770Y236220D01*
X585470Y236220D01*
X591820Y229870D01*
X617220Y229870D02*
X617220Y217170D01*
X610870Y210820D01*
X617220Y229870D02*
X610870Y236220D01*
X598170Y236220D01*
X566420Y229870D02*
X566420Y217170D01*
X160020Y608330D02*
X160020Y621030D01*
X160020Y608330D02*
X153670Y601980D01*
X140970Y601980D02*
X134620Y608330D01*
X153670Y601980D02*
X160020Y595630D01*
X160020Y582930D01*
X153670Y576580D01*
X140970Y576580D02*
X134620Y582930D01*
X134620Y595630D01*
X140970Y601980D01*
X140970Y627380D02*
X153670Y627380D01*
X160020Y621030D01*
X140970Y627380D02*
X134620Y621030D01*
X134620Y608330D01*
X140970Y576580D02*
X153670Y576580D01*
X60960Y410210D02*
X60960Y397510D01*
X60960Y410210D02*
X67310Y416560D01*
X80010Y416560D02*
X86360Y410210D01*
X60960Y372110D02*
X67310Y365760D01*
X60960Y372110D02*
X60960Y384810D01*
X67310Y391160D01*
X80010Y391160D02*
X86360Y384810D01*
X86360Y372110D01*
X80010Y365760D01*
X67310Y391160D02*
X60960Y397510D01*
X80010Y391160D02*
X86360Y397510D01*
X86360Y410210D01*
X60960Y334010D02*
X60960Y321310D01*
X60960Y334010D02*
X67310Y340360D01*
X80010Y340360D02*
X86360Y334010D01*
X67310Y340360D02*
X60960Y346710D01*
X60960Y359410D01*
X67310Y365760D01*
X80010Y365760D02*
X86360Y359410D01*
X86360Y346710D01*
X80010Y340360D01*
X60960Y295910D02*
X67310Y289560D01*
X60960Y295910D02*
X60960Y308610D01*
X67310Y314960D01*
X80010Y314960D02*
X86360Y308610D01*
X86360Y295910D01*
X80010Y289560D01*
X67310Y314960D02*
X60960Y321310D01*
X80010Y314960D02*
X86360Y321310D01*
X86360Y334010D01*
X60960Y257810D02*
X60960Y245110D01*
X60960Y257810D02*
X67310Y264160D01*
X80010Y264160D02*
X86360Y257810D01*
X67310Y264160D02*
X60960Y270510D01*
X60960Y283210D01*
X67310Y289560D01*
X80010Y289560D02*
X86360Y283210D01*
X86360Y270510D01*
X80010Y264160D01*
X80010Y238760D02*
X67310Y238760D01*
X60960Y245110D01*
X80010Y238760D02*
X86360Y245110D01*
X86360Y257810D01*
X60960Y575310D02*
X60960Y588010D01*
X67310Y594360D01*
X80010Y594360D02*
X86360Y588010D01*
X60960Y549910D02*
X67310Y543560D01*
X60960Y549910D02*
X60960Y562610D01*
X67310Y568960D01*
X80010Y568960D02*
X86360Y562610D01*
X86360Y549910D01*
X80010Y543560D01*
X67310Y568960D02*
X60960Y575310D01*
X80010Y568960D02*
X86360Y575310D01*
X86360Y588010D01*
X60960Y511810D02*
X60960Y499110D01*
X60960Y511810D02*
X67310Y518160D01*
X80010Y518160D02*
X86360Y511810D01*
X67310Y518160D02*
X60960Y524510D01*
X60960Y537210D01*
X67310Y543560D01*
X80010Y543560D02*
X86360Y537210D01*
X86360Y524510D01*
X80010Y518160D01*
X60960Y473710D02*
X67310Y467360D01*
X60960Y473710D02*
X60960Y486410D01*
X67310Y492760D01*
X80010Y492760D02*
X86360Y486410D01*
X86360Y473710D01*
X80010Y467360D01*
X67310Y492760D02*
X60960Y499110D01*
X80010Y492760D02*
X86360Y499110D01*
X86360Y511810D01*
X60960Y435610D02*
X60960Y422910D01*
X60960Y435610D02*
X67310Y441960D01*
X80010Y441960D02*
X86360Y435610D01*
X67310Y441960D02*
X60960Y448310D01*
X60960Y461010D01*
X67310Y467360D01*
X80010Y467360D02*
X86360Y461010D01*
X86360Y448310D01*
X80010Y441960D01*
X60960Y422910D02*
X67310Y416560D01*
X80010Y416560D02*
X86360Y422910D01*
X86360Y435610D01*
X67310Y594360D02*
X60960Y600710D01*
X60960Y613410D01*
X67310Y619760D01*
X80010Y619760D01*
X86360Y613410D01*
X86360Y600710D01*
X80010Y594360D01*
X196850Y711200D02*
X203200Y704850D01*
X196850Y711200D02*
X184150Y711200D01*
X177800Y704850D01*
X177800Y692150D01*
X184150Y685800D01*
X196850Y685800D01*
X203200Y692150D01*
X203200Y704850D01*
X196850Y647700D02*
X203200Y641350D01*
X196850Y647700D02*
X184150Y647700D01*
X177800Y641350D01*
X177800Y628650D01*
X184150Y622300D01*
X196850Y622300D01*
X203200Y628650D01*
X203200Y641350D01*
X803910Y210820D02*
X816610Y210820D01*
X803910Y210820D02*
X797560Y217170D01*
X797560Y229870D02*
X803910Y236220D01*
X842010Y210820D02*
X848360Y217170D01*
X842010Y210820D02*
X829310Y210820D01*
X822960Y217170D01*
X822960Y229870D02*
X829310Y236220D01*
X842010Y236220D01*
X848360Y229870D01*
X822960Y217170D02*
X816610Y210820D01*
X822960Y229870D02*
X816610Y236220D01*
X803910Y236220D01*
X880110Y210820D02*
X892810Y210820D01*
X880110Y210820D02*
X873760Y217170D01*
X873760Y229870D02*
X880110Y236220D01*
X873760Y217170D02*
X867410Y210820D01*
X854710Y210820D01*
X848360Y217170D01*
X848360Y229870D02*
X854710Y236220D01*
X867410Y236220D01*
X873760Y229870D01*
X918210Y210820D02*
X924560Y217170D01*
X918210Y210820D02*
X905510Y210820D01*
X899160Y217170D01*
X899160Y229870D02*
X905510Y236220D01*
X918210Y236220D01*
X924560Y229870D01*
X899160Y217170D02*
X892810Y210820D01*
X899160Y229870D02*
X892810Y236220D01*
X880110Y236220D01*
X956310Y210820D02*
X969010Y210820D01*
X956310Y210820D02*
X949960Y217170D01*
X949960Y229870D02*
X956310Y236220D01*
X949960Y217170D02*
X943610Y210820D01*
X930910Y210820D01*
X924560Y217170D01*
X924560Y229870D02*
X930910Y236220D01*
X943610Y236220D01*
X949960Y229870D01*
X975360Y229870D02*
X975360Y217170D01*
X969010Y210820D01*
X975360Y229870D02*
X969010Y236220D01*
X956310Y236220D01*
X638810Y210820D02*
X626110Y210820D01*
X619760Y217170D01*
X619760Y229870D02*
X626110Y236220D01*
X664210Y210820D02*
X670560Y217170D01*
X664210Y210820D02*
X651510Y210820D01*
X645160Y217170D01*
X645160Y229870D02*
X651510Y236220D01*
X664210Y236220D01*
X670560Y229870D01*
X645160Y217170D02*
X638810Y210820D01*
X645160Y229870D02*
X638810Y236220D01*
X626110Y236220D01*
X702310Y210820D02*
X715010Y210820D01*
X702310Y210820D02*
X695960Y217170D01*
X695960Y229870D02*
X702310Y236220D01*
X695960Y217170D02*
X689610Y210820D01*
X676910Y210820D01*
X670560Y217170D01*
X670560Y229870D02*
X676910Y236220D01*
X689610Y236220D01*
X695960Y229870D01*
X740410Y210820D02*
X746760Y217170D01*
X740410Y210820D02*
X727710Y210820D01*
X721360Y217170D01*
X721360Y229870D02*
X727710Y236220D01*
X740410Y236220D01*
X746760Y229870D01*
X721360Y217170D02*
X715010Y210820D01*
X721360Y229870D02*
X715010Y236220D01*
X702310Y236220D01*
X778510Y210820D02*
X791210Y210820D01*
X778510Y210820D02*
X772160Y217170D01*
X772160Y229870D02*
X778510Y236220D01*
X772160Y217170D02*
X765810Y210820D01*
X753110Y210820D01*
X746760Y217170D01*
X746760Y229870D02*
X753110Y236220D01*
X765810Y236220D01*
X772160Y229870D01*
X791210Y210820D02*
X797560Y217170D01*
X797560Y229870D02*
X791210Y236220D01*
X778510Y236220D01*
X619760Y229870D02*
X619760Y217170D01*
X890270Y574040D02*
X902970Y574040D01*
X909320Y567690D01*
X909320Y554990D02*
X902970Y548640D01*
X864870Y574040D02*
X858520Y567690D01*
X864870Y574040D02*
X877570Y574040D01*
X883920Y567690D01*
X883920Y554990D02*
X877570Y548640D01*
X864870Y548640D01*
X858520Y554990D01*
X883920Y567690D02*
X890270Y574040D01*
X883920Y554990D02*
X890270Y548640D01*
X902970Y548640D01*
X826770Y574040D02*
X814070Y574040D01*
X826770Y574040D02*
X833120Y567690D01*
X833120Y554990D02*
X826770Y548640D01*
X833120Y567690D02*
X839470Y574040D01*
X852170Y574040D01*
X858520Y567690D01*
X858520Y554990D02*
X852170Y548640D01*
X839470Y548640D01*
X833120Y554990D01*
X788670Y574040D02*
X782320Y567690D01*
X788670Y574040D02*
X801370Y574040D01*
X807720Y567690D01*
X807720Y554990D02*
X801370Y548640D01*
X788670Y548640D01*
X782320Y554990D01*
X807720Y567690D02*
X814070Y574040D01*
X807720Y554990D02*
X814070Y548640D01*
X826770Y548640D01*
X750570Y574040D02*
X737870Y574040D01*
X750570Y574040D02*
X756920Y567690D01*
X756920Y554990D02*
X750570Y548640D01*
X756920Y567690D02*
X763270Y574040D01*
X775970Y574040D01*
X782320Y567690D01*
X782320Y554990D02*
X775970Y548640D01*
X763270Y548640D01*
X756920Y554990D01*
X731520Y554990D02*
X731520Y567690D01*
X737870Y574040D01*
X731520Y554990D02*
X737870Y548640D01*
X750570Y548640D01*
X915670Y574040D02*
X928370Y574040D01*
X934720Y567690D01*
X934720Y554990D02*
X928370Y548640D01*
X909320Y567690D02*
X915670Y574040D01*
X909320Y554990D02*
X915670Y548640D01*
X928370Y548640D01*
X941070Y574040D02*
X953770Y574040D01*
X960120Y567690D01*
X960120Y554990D02*
X953770Y548640D01*
X934720Y567690D02*
X941070Y574040D01*
X934720Y554990D02*
X941070Y548640D01*
X953770Y548640D01*
X966470Y574040D02*
X979170Y574040D01*
X985520Y567690D01*
X985520Y554990D01*
X979170Y548640D01*
X960120Y567690D02*
X966470Y574040D01*
X960120Y554990D02*
X966470Y548640D01*
X979170Y548640D01*
X567690Y746760D02*
X554990Y746760D01*
X548640Y753110D01*
X548640Y765810D02*
X554990Y772160D01*
X593090Y746760D02*
X599440Y753110D01*
X593090Y746760D02*
X580390Y746760D01*
X574040Y753110D01*
X574040Y765810D02*
X580390Y772160D01*
X593090Y772160D01*
X599440Y765810D01*
X574040Y753110D02*
X567690Y746760D01*
X574040Y765810D02*
X567690Y772160D01*
X554990Y772160D01*
X631190Y746760D02*
X643890Y746760D01*
X631190Y746760D02*
X624840Y753110D01*
X624840Y765810D02*
X631190Y772160D01*
X624840Y753110D02*
X618490Y746760D01*
X605790Y746760D01*
X599440Y753110D01*
X599440Y765810D02*
X605790Y772160D01*
X618490Y772160D01*
X624840Y765810D01*
X650240Y765810D02*
X650240Y753110D01*
X643890Y746760D01*
X650240Y765810D02*
X643890Y772160D01*
X631190Y772160D01*
X548640Y765810D02*
X548640Y753110D01*
X181610Y574040D02*
X168910Y574040D01*
X181610Y574040D02*
X187960Y567690D01*
X187960Y554990D02*
X181610Y548640D01*
X143510Y574040D02*
X137160Y567690D01*
X143510Y574040D02*
X156210Y574040D01*
X162560Y567690D01*
X162560Y554990D02*
X156210Y548640D01*
X143510Y548640D01*
X137160Y554990D01*
X162560Y567690D02*
X168910Y574040D01*
X162560Y554990D02*
X168910Y548640D01*
X181610Y548640D01*
X105410Y574040D02*
X92710Y574040D01*
X105410Y574040D02*
X111760Y567690D01*
X111760Y554990D02*
X105410Y548640D01*
X111760Y567690D02*
X118110Y574040D01*
X130810Y574040D01*
X137160Y567690D01*
X137160Y554990D02*
X130810Y548640D01*
X118110Y548640D01*
X111760Y554990D01*
X67310Y574040D02*
X60960Y567690D01*
X67310Y574040D02*
X80010Y574040D01*
X86360Y567690D01*
X86360Y554990D02*
X80010Y548640D01*
X67310Y548640D01*
X60960Y554990D01*
X86360Y567690D02*
X92710Y574040D01*
X86360Y554990D02*
X92710Y548640D01*
X105410Y548640D01*
X29210Y574040D02*
X16510Y574040D01*
X29210Y574040D02*
X35560Y567690D01*
X35560Y554990D02*
X29210Y548640D01*
X35560Y567690D02*
X41910Y574040D01*
X54610Y574040D01*
X60960Y567690D01*
X60960Y554990D02*
X54610Y548640D01*
X41910Y548640D01*
X35560Y554990D01*
X10160Y554990D02*
X10160Y567690D01*
X16510Y574040D01*
X10160Y554990D02*
X16510Y548640D01*
X29210Y548640D01*
X194310Y574040D02*
X207010Y574040D01*
X213360Y567690D01*
X213360Y554990D02*
X207010Y548640D01*
X187960Y567690D02*
X194310Y574040D01*
X187960Y554990D02*
X194310Y548640D01*
X207010Y548640D01*
X219710Y574040D02*
X232410Y574040D01*
X238760Y567690D01*
X238760Y554990D02*
X232410Y548640D01*
X213360Y567690D02*
X219710Y574040D01*
X213360Y554990D02*
X219710Y548640D01*
X232410Y548640D01*
X245110Y574040D02*
X257810Y574040D01*
X264160Y567690D01*
X264160Y554990D01*
X257810Y548640D01*
X238760Y567690D02*
X245110Y574040D01*
X238760Y554990D02*
X245110Y548640D01*
X257810Y548640D01*
X134620Y786130D02*
X134620Y798830D01*
X140970Y805180D01*
X153670Y805180D02*
X160020Y798830D01*
X134620Y760730D02*
X140970Y754380D01*
X134620Y760730D02*
X134620Y773430D01*
X140970Y779780D01*
X153670Y779780D02*
X160020Y773430D01*
X160020Y760730D01*
X153670Y754380D01*
X140970Y779780D02*
X134620Y786130D01*
X153670Y779780D02*
X160020Y786130D01*
X160020Y798830D01*
X134620Y722630D02*
X134620Y709930D01*
X134620Y722630D02*
X140970Y728980D01*
X153670Y728980D02*
X160020Y722630D01*
X140970Y728980D02*
X134620Y735330D01*
X134620Y748030D01*
X140970Y754380D01*
X153670Y754380D02*
X160020Y748030D01*
X160020Y735330D01*
X153670Y728980D01*
X134620Y684530D02*
X140970Y678180D01*
X134620Y684530D02*
X134620Y697230D01*
X140970Y703580D01*
X153670Y703580D02*
X160020Y697230D01*
X160020Y684530D01*
X153670Y678180D01*
X140970Y703580D02*
X134620Y709930D01*
X153670Y703580D02*
X160020Y709930D01*
X160020Y722630D01*
X134620Y646430D02*
X134620Y633730D01*
X134620Y646430D02*
X140970Y652780D01*
X153670Y652780D02*
X160020Y646430D01*
X140970Y652780D02*
X134620Y659130D01*
X134620Y671830D01*
X140970Y678180D01*
X153670Y678180D02*
X160020Y671830D01*
X160020Y659130D01*
X153670Y652780D01*
X153670Y627380D02*
X140970Y627380D01*
X134620Y633730D01*
X153670Y627380D02*
X160020Y633730D01*
X160020Y646430D01*
X134620Y811530D02*
X134620Y824230D01*
X140970Y830580D01*
X153670Y830580D01*
X160020Y824230D01*
X140970Y805180D02*
X134620Y811530D01*
X153670Y805180D02*
X160020Y811530D01*
X160020Y824230D01*
D15*
X830579Y26791D02*
X831212Y26859D01*
X831842Y26942D01*
X832470Y27041D01*
X833096Y27154D01*
X833718Y27282D01*
X834338Y27424D01*
X834954Y27582D01*
X835566Y27754D01*
X836174Y27941D01*
X836777Y28142D01*
X837375Y28357D01*
X837968Y28587D01*
X838555Y28830D01*
X839136Y29088D01*
X839711Y29359D01*
X840280Y29644D01*
X840841Y29943D01*
X841395Y30255D01*
X841942Y30580D01*
X842480Y30917D01*
X843010Y31268D01*
X843532Y31631D01*
X844045Y32007D01*
X844549Y32394D01*
X830580Y26791D02*
X829931Y26737D01*
X829282Y26699D01*
X828631Y26677D01*
X827980Y26670D01*
X827329Y26679D01*
X826679Y26705D01*
X826029Y26746D01*
X825381Y26803D01*
X824734Y26876D01*
X824089Y26964D01*
X823446Y27069D01*
X822806Y27189D01*
X822170Y27324D01*
X821536Y27475D01*
X820907Y27642D01*
X820282Y27823D01*
X819661Y28020D01*
X819046Y28232D01*
X818436Y28459D01*
X817831Y28701D01*
X817233Y28958D01*
X816641Y29229D01*
X816056Y29514D01*
X815478Y29814D01*
X814908Y30127D01*
X814345Y30455D01*
X813791Y30796D01*
X813245Y31150D01*
X812708Y31518D01*
X812179Y31899D01*
X811661Y32292D01*
X811152Y32698D01*
X810653Y33116D01*
X810165Y33547D01*
X809687Y33989D01*
X809220Y34443D01*
X808765Y34908D01*
X808321Y35384D01*
X807888Y35870D01*
X807468Y36367D01*
X807060Y36874D01*
X806664Y37391D01*
X806281Y37918D01*
X805911Y38454D01*
X805554Y38998D01*
X805211Y39551D01*
X804881Y40112D01*
X804565Y40682D01*
X804263Y41258D01*
X803976Y41842D01*
X803702Y42433D01*
X803443Y43030D01*
X803199Y43634D01*
X802969Y44243D01*
X802755Y44857D01*
X802555Y45477D01*
X802555Y61203D02*
X802754Y61818D01*
X802966Y62429D01*
X803194Y63034D01*
X803436Y63633D01*
X803693Y64226D01*
X803964Y64813D01*
X804249Y65393D01*
X804548Y65966D01*
X804861Y66532D01*
X805188Y67090D01*
X805528Y67640D01*
X805881Y68181D01*
X806247Y68714D01*
X806626Y69237D01*
X807018Y69752D01*
X807421Y70256D01*
X807838Y70751D01*
X808265Y71236D01*
X808705Y71710D01*
X809156Y72173D01*
X809618Y72625D01*
X810091Y73066D01*
X810574Y73495D01*
X811068Y73912D01*
X811571Y74318D01*
X812084Y74711D01*
X812607Y75091D01*
X813139Y75459D01*
X813679Y75813D01*
X814228Y76155D01*
X814785Y76483D01*
X815350Y76797D01*
X815922Y77098D01*
X816501Y77385D01*
X817088Y77657D01*
X817680Y77916D01*
X818279Y78159D01*
X818883Y78389D01*
X819493Y78603D01*
X820108Y78803D01*
X820727Y78988D01*
X821351Y79158D01*
X821979Y79312D01*
X822610Y79451D01*
X823244Y79575D01*
X823882Y79684D01*
X824521Y79777D01*
X825163Y79854D01*
X825806Y79916D01*
X826451Y79963D01*
X827097Y79993D01*
X827743Y80008D01*
X828389Y80008D01*
X829036Y79991D01*
X829681Y79959D01*
X830326Y79912D01*
X830969Y79849D01*
X831611Y79770D01*
X832250Y79676D01*
X832887Y79566D01*
X833522Y79441D01*
X834153Y79300D01*
X834780Y79144D01*
X835403Y78973D01*
X836022Y78787D01*
X836637Y78586D01*
X837246Y78371D01*
X837850Y78140D01*
X838448Y77895D01*
X839040Y77636D01*
X839626Y77362D01*
X840205Y77074D01*
X840776Y76772D01*
X841341Y76457D01*
X841897Y76128D01*
X842445Y75785D01*
X842985Y75429D01*
X843516Y75061D01*
X844038Y74679D01*
X844550Y74285D01*
X844550Y32395D01*
X830580Y30803D02*
X830580Y26791D01*
X830580Y50477D02*
X830580Y56203D01*
X830580Y75877D02*
X830580Y79889D01*
D11*
X738390Y103710D02*
X638290Y103710D01*
X638290Y145210D02*
X738390Y145210D01*
X638290Y145210D02*
X638290Y103710D01*
X738390Y103710D02*
X738390Y145210D01*
D17*
X633290Y124460D03*
X743390Y124460D03*
D10*
X490220Y229870D02*
X483870Y236220D01*
X471170Y236220D01*
X464820Y229870D01*
X464820Y217170D01*
X471170Y210820D01*
X483870Y210820D01*
X490220Y217170D01*
X490220Y229870D01*
X496570Y104140D02*
X502920Y97790D01*
X502920Y85090D01*
X496570Y78740D01*
X483870Y78740D02*
X477520Y85090D01*
X477520Y97790D01*
X483870Y104140D01*
X502920Y135890D02*
X502920Y148590D01*
X502920Y135890D02*
X496570Y129540D01*
X483870Y129540D02*
X477520Y135890D01*
X496570Y129540D02*
X502920Y123190D01*
X502920Y110490D01*
X496570Y104140D01*
X483870Y104140D02*
X477520Y110490D01*
X477520Y123190D01*
X483870Y129540D01*
X483870Y154940D02*
X496570Y154940D01*
X502920Y148590D01*
X483870Y154940D02*
X477520Y148590D01*
X477520Y135890D01*
X483870Y78740D02*
X496570Y78740D01*
X509270Y129540D02*
X502920Y135890D01*
X502920Y148590D01*
X509270Y154940D01*
X521970Y154940D02*
X528320Y148590D01*
X528320Y135890D01*
X521970Y129540D01*
X502920Y97790D02*
X502920Y85090D01*
X502920Y97790D02*
X509270Y104140D01*
X521970Y104140D02*
X528320Y97790D01*
X509270Y104140D02*
X502920Y110490D01*
X502920Y123190D01*
X509270Y129540D01*
X521970Y129540D02*
X528320Y123190D01*
X528320Y110490D01*
X521970Y104140D01*
X521970Y78740D02*
X509270Y78740D01*
X502920Y85090D01*
X521970Y78740D02*
X528320Y85090D01*
X528320Y97790D01*
X521970Y154940D02*
X509270Y154940D01*
X715010Y73660D02*
X727710Y73660D01*
X734060Y67310D01*
X734060Y54610D02*
X727710Y48260D01*
X734060Y67310D02*
X740410Y73660D01*
X753110Y73660D01*
X759460Y67310D01*
X759460Y54610D02*
X753110Y48260D01*
X740410Y48260D01*
X734060Y54610D01*
X708660Y54610D02*
X708660Y67310D01*
X715010Y73660D01*
X708660Y54610D02*
X715010Y48260D01*
X727710Y48260D01*
X759460Y54610D02*
X759460Y67310D01*
D11*
X738390Y196010D02*
X638290Y196010D01*
X638290Y154510D02*
X738390Y154510D01*
X738390Y196010D01*
X638290Y196010D02*
X638290Y154510D01*
D17*
X743390Y175260D03*
X633290Y175260D03*
D10*
X814070Y154940D02*
X820420Y161290D01*
X814070Y154940D02*
X801370Y154940D01*
X795020Y161290D01*
X795020Y173990D02*
X801370Y180340D01*
X814070Y180340D01*
X820420Y173990D01*
X852170Y154940D02*
X864870Y154940D01*
X852170Y154940D02*
X845820Y161290D01*
X845820Y173990D02*
X852170Y180340D01*
X845820Y161290D02*
X839470Y154940D01*
X826770Y154940D01*
X820420Y161290D01*
X820420Y173990D02*
X826770Y180340D01*
X839470Y180340D01*
X845820Y173990D01*
X871220Y173990D02*
X871220Y161290D01*
X864870Y154940D01*
X871220Y173990D02*
X864870Y180340D01*
X852170Y180340D01*
X795020Y173990D02*
X795020Y161290D01*
X495300Y24130D02*
X488950Y17780D01*
X476250Y17780D01*
X469900Y24130D01*
X469900Y36830D02*
X476250Y43180D01*
X488950Y43180D01*
X495300Y36830D01*
X527050Y17780D02*
X539750Y17780D01*
X527050Y17780D02*
X520700Y24130D01*
X520700Y36830D02*
X527050Y43180D01*
X520700Y24130D02*
X514350Y17780D01*
X501650Y17780D01*
X495300Y24130D01*
X495300Y36830D02*
X501650Y43180D01*
X514350Y43180D01*
X520700Y36830D01*
X546100Y36830D02*
X546100Y24130D01*
X539750Y17780D01*
X546100Y36830D02*
X539750Y43180D01*
X527050Y43180D01*
X469900Y36830D02*
X469900Y24130D01*
X598170Y60960D02*
X610870Y60960D01*
X598170Y60960D02*
X591820Y67310D01*
X591820Y80010D02*
X598170Y86360D01*
X591820Y67310D02*
X585470Y60960D01*
X572770Y60960D01*
X566420Y67310D01*
X566420Y80010D02*
X572770Y86360D01*
X585470Y86360D01*
X591820Y80010D01*
X617220Y80010D02*
X617220Y67310D01*
X610870Y60960D01*
X617220Y80010D02*
X610870Y86360D01*
X598170Y86360D01*
X566420Y80010D02*
X566420Y67310D01*
X552450Y482600D02*
X539750Y482600D01*
X533400Y488950D01*
X533400Y501650D02*
X539750Y508000D01*
X577850Y482600D02*
X584200Y488950D01*
X577850Y482600D02*
X565150Y482600D01*
X558800Y488950D01*
X558800Y501650D02*
X565150Y508000D01*
X577850Y508000D01*
X584200Y501650D01*
X558800Y488950D02*
X552450Y482600D01*
X558800Y501650D02*
X552450Y508000D01*
X539750Y508000D01*
X615950Y482600D02*
X628650Y482600D01*
X615950Y482600D02*
X609600Y488950D01*
X609600Y501650D02*
X615950Y508000D01*
X609600Y488950D02*
X603250Y482600D01*
X590550Y482600D01*
X584200Y488950D01*
X584200Y501650D02*
X590550Y508000D01*
X603250Y508000D01*
X609600Y501650D01*
X654050Y482600D02*
X660400Y488950D01*
X654050Y482600D02*
X641350Y482600D01*
X635000Y488950D01*
X635000Y501650D02*
X641350Y508000D01*
X654050Y508000D01*
X660400Y501650D01*
X635000Y488950D02*
X628650Y482600D01*
X635000Y501650D02*
X628650Y508000D01*
X615950Y508000D01*
X692150Y482600D02*
X704850Y482600D01*
X692150Y482600D02*
X685800Y488950D01*
X685800Y501650D02*
X692150Y508000D01*
X685800Y488950D02*
X679450Y482600D01*
X666750Y482600D01*
X660400Y488950D01*
X660400Y501650D02*
X666750Y508000D01*
X679450Y508000D01*
X685800Y501650D01*
X711200Y501650D02*
X711200Y488950D01*
X704850Y482600D01*
X711200Y501650D02*
X704850Y508000D01*
X692150Y508000D01*
X527050Y482600D02*
X514350Y482600D01*
X508000Y488950D01*
X508000Y501650D01*
X514350Y508000D01*
X533400Y488950D02*
X527050Y482600D01*
X533400Y501650D02*
X527050Y508000D01*
X514350Y508000D01*
X666750Y279400D02*
X679450Y279400D01*
X685800Y273050D01*
X685800Y260350D02*
X679450Y254000D01*
X641350Y279400D02*
X635000Y273050D01*
X641350Y279400D02*
X654050Y279400D01*
X660400Y273050D01*
X660400Y260350D02*
X654050Y254000D01*
X641350Y254000D01*
X635000Y260350D01*
X660400Y273050D02*
X666750Y279400D01*
X660400Y260350D02*
X666750Y254000D01*
X679450Y254000D01*
X603250Y279400D02*
X590550Y279400D01*
X603250Y279400D02*
X609600Y273050D01*
X609600Y260350D02*
X603250Y254000D01*
X609600Y273050D02*
X615950Y279400D01*
X628650Y279400D01*
X635000Y273050D01*
X635000Y260350D02*
X628650Y254000D01*
X615950Y254000D01*
X609600Y260350D01*
X565150Y279400D02*
X558800Y273050D01*
X565150Y279400D02*
X577850Y279400D01*
X584200Y273050D01*
X584200Y260350D02*
X577850Y254000D01*
X565150Y254000D01*
X558800Y260350D01*
X584200Y273050D02*
X590550Y279400D01*
X584200Y260350D02*
X590550Y254000D01*
X603250Y254000D01*
X527050Y279400D02*
X514350Y279400D01*
X527050Y279400D02*
X533400Y273050D01*
X533400Y260350D02*
X527050Y254000D01*
X533400Y273050D02*
X539750Y279400D01*
X552450Y279400D01*
X558800Y273050D01*
X558800Y260350D02*
X552450Y254000D01*
X539750Y254000D01*
X533400Y260350D01*
X508000Y260350D02*
X508000Y273050D01*
X514350Y279400D01*
X508000Y260350D02*
X514350Y254000D01*
X527050Y254000D01*
X692150Y279400D02*
X704850Y279400D01*
X711200Y273050D01*
X711200Y260350D01*
X704850Y254000D01*
X685800Y273050D02*
X692150Y279400D01*
X685800Y260350D02*
X692150Y254000D01*
X704850Y254000D01*
X854710Y317500D02*
X867410Y317500D01*
X873760Y311150D01*
X873760Y298450D02*
X867410Y292100D01*
X873760Y311150D02*
X880110Y317500D01*
X892810Y317500D01*
X899160Y311150D01*
X899160Y298450D02*
X892810Y292100D01*
X880110Y292100D01*
X873760Y298450D01*
X848360Y298450D02*
X848360Y311150D01*
X854710Y317500D01*
X848360Y298450D02*
X854710Y292100D01*
X867410Y292100D01*
X899160Y298450D02*
X899160Y311150D01*
X467360Y496570D02*
X467360Y509270D01*
X467360Y496570D02*
X461010Y490220D01*
X448310Y490220D02*
X441960Y496570D01*
X461010Y490220D02*
X467360Y483870D01*
X467360Y471170D01*
X461010Y464820D01*
X448310Y464820D02*
X441960Y471170D01*
X441960Y483870D01*
X448310Y490220D01*
X448310Y515620D02*
X461010Y515620D01*
X467360Y509270D01*
X448310Y515620D02*
X441960Y509270D01*
X441960Y496570D01*
X448310Y464820D02*
X461010Y464820D01*
X431800Y450850D02*
X425450Y457200D01*
X412750Y457200D01*
X406400Y450850D01*
X406400Y438150D01*
X412750Y431800D01*
X425450Y431800D01*
X431800Y438150D01*
X431800Y450850D01*
X144780Y361950D02*
X144780Y349250D01*
X144780Y361950D02*
X151130Y368300D01*
X163830Y368300D02*
X170180Y361950D01*
X144780Y323850D02*
X151130Y317500D01*
X144780Y323850D02*
X144780Y336550D01*
X151130Y342900D01*
X163830Y342900D02*
X170180Y336550D01*
X170180Y323850D01*
X163830Y317500D01*
X151130Y342900D02*
X144780Y349250D01*
X163830Y342900D02*
X170180Y349250D01*
X170180Y361950D01*
X144780Y285750D02*
X144780Y273050D01*
X144780Y285750D02*
X151130Y292100D01*
X163830Y292100D02*
X170180Y285750D01*
X151130Y292100D02*
X144780Y298450D01*
X144780Y311150D01*
X151130Y317500D01*
X163830Y317500D02*
X170180Y311150D01*
X170180Y298450D01*
X163830Y292100D01*
X163830Y266700D02*
X151130Y266700D01*
X144780Y273050D01*
X163830Y266700D02*
X170180Y273050D01*
X170180Y285750D01*
X163830Y368300D02*
X151130Y368300D01*
X271780Y387350D02*
X278130Y381000D01*
X271780Y387350D02*
X271780Y400050D01*
X278130Y406400D01*
X290830Y406400D02*
X297180Y400050D01*
X297180Y387350D01*
X290830Y381000D01*
X271780Y349250D02*
X271780Y336550D01*
X271780Y349250D02*
X278130Y355600D01*
X290830Y355600D02*
X297180Y349250D01*
X278130Y355600D02*
X271780Y361950D01*
X271780Y374650D01*
X278130Y381000D01*
X290830Y381000D02*
X297180Y374650D01*
X297180Y361950D01*
X290830Y355600D01*
X290830Y330200D02*
X278130Y330200D01*
X271780Y336550D01*
X290830Y330200D02*
X297180Y336550D01*
X297180Y349250D01*
X290830Y406400D02*
X278130Y406400D01*
X260350Y355600D02*
X266700Y349250D01*
X266700Y336550D01*
X260350Y330200D01*
X247650Y330200D02*
X241300Y336550D01*
X241300Y349250D01*
X247650Y355600D01*
X266700Y387350D02*
X266700Y400050D01*
X266700Y387350D02*
X260350Y381000D01*
X247650Y381000D02*
X241300Y387350D01*
X260350Y381000D02*
X266700Y374650D01*
X266700Y361950D01*
X260350Y355600D01*
X247650Y355600D02*
X241300Y361950D01*
X241300Y374650D01*
X247650Y381000D01*
X247650Y406400D02*
X260350Y406400D01*
X266700Y400050D01*
X247650Y406400D02*
X241300Y400050D01*
X241300Y387350D01*
X247650Y330200D02*
X260350Y330200D01*
X852170Y381000D02*
X864870Y381000D01*
X871220Y374650D01*
X871220Y361950D02*
X864870Y355600D01*
X871220Y374650D02*
X877570Y381000D01*
X890270Y381000D01*
X896620Y374650D01*
X896620Y361950D02*
X890270Y355600D01*
X877570Y355600D01*
X871220Y361950D01*
X845820Y361950D02*
X845820Y374650D01*
X852170Y381000D01*
X845820Y361950D02*
X852170Y355600D01*
X864870Y355600D01*
X896620Y361950D02*
X896620Y374650D01*
D11*
X323850Y628650D02*
X285750Y628650D01*
X285750Y666750D01*
X323850Y666750D01*
X323850Y628650D01*
D14*
X321310Y631190D02*
X288290Y631190D01*
X288290Y664210D01*
X321310Y664210D01*
X321310Y631190D01*
D11*
X314960Y586740D02*
X314960Y582930D01*
X314960Y586740D02*
X294640Y586740D01*
X294640Y582930D02*
X314960Y582930D01*
X294640Y582930D02*
X294640Y586740D01*
X254000Y586740D02*
X243840Y596900D01*
X254000Y586740D02*
X287020Y586740D01*
X243840Y596900D02*
X243840Y609600D01*
X243840Y636270D02*
X243840Y659130D01*
X243840Y698500D02*
X254000Y708660D01*
X243840Y698500D02*
X243840Y685800D01*
X365760Y659130D02*
X365760Y636270D01*
X365760Y685800D02*
X365760Y698500D01*
X355600Y708660D01*
X322580Y708660D01*
X322580Y586740D02*
X355600Y586740D01*
X365760Y596900D01*
X365760Y609600D01*
X314960Y712470D02*
X294640Y712470D01*
X314960Y712470D02*
X314960Y708660D01*
X294640Y708660D02*
X294640Y712470D01*
X254000Y586740D02*
X256540Y584200D01*
X287020Y584200D01*
X287020Y586740D01*
X294640Y586740D01*
X322580Y586740D02*
X322580Y584200D01*
X322580Y586740D02*
X314960Y586740D01*
X322580Y584200D02*
X353060Y584200D01*
X355600Y586740D01*
X314960Y708660D02*
X294640Y708660D01*
X287020Y708660D01*
X322580Y708660D02*
X322580Y711200D01*
X322580Y708660D02*
X314960Y708660D01*
X322580Y711200D02*
X353060Y711200D01*
X355600Y708660D01*
X287020Y708660D02*
X287020Y711200D01*
X287020Y708660D02*
X254000Y708660D01*
X256540Y711200D02*
X287020Y711200D01*
X256540Y711200D02*
X254000Y708660D01*
X269240Y647700D02*
X269251Y648573D01*
X269283Y649445D01*
X269336Y650316D01*
X269411Y651185D01*
X269507Y652053D01*
X269625Y652918D01*
X269764Y653779D01*
X269923Y654637D01*
X270104Y655491D01*
X270306Y656340D01*
X270528Y657184D01*
X270771Y658023D01*
X271035Y658855D01*
X271319Y659680D01*
X271623Y660498D01*
X271947Y661308D01*
X272291Y662110D01*
X272654Y662904D01*
X273037Y663688D01*
X273439Y664463D01*
X273860Y665227D01*
X274299Y665981D01*
X274757Y666725D01*
X275233Y667456D01*
X275727Y668176D01*
X276238Y668883D01*
X276766Y669578D01*
X277312Y670259D01*
X277874Y670927D01*
X278452Y671581D01*
X279046Y672220D01*
X279655Y672845D01*
X280280Y673454D01*
X280919Y674048D01*
X281573Y674626D01*
X282241Y675188D01*
X282922Y675734D01*
X283617Y676262D01*
X284324Y676773D01*
X285044Y677267D01*
X285775Y677743D01*
X286519Y678201D01*
X287273Y678640D01*
X288037Y679061D01*
X288812Y679463D01*
X289596Y679846D01*
X290390Y680209D01*
X291192Y680553D01*
X292002Y680877D01*
X292820Y681181D01*
X293645Y681465D01*
X294477Y681729D01*
X295316Y681972D01*
X296160Y682194D01*
X297009Y682396D01*
X297863Y682577D01*
X298721Y682736D01*
X299582Y682875D01*
X300447Y682993D01*
X301315Y683089D01*
X302184Y683164D01*
X303055Y683217D01*
X303927Y683249D01*
X304800Y683260D01*
X305673Y683249D01*
X306545Y683217D01*
X307416Y683164D01*
X308285Y683089D01*
X309153Y682993D01*
X310018Y682875D01*
X310879Y682736D01*
X311737Y682577D01*
X312591Y682396D01*
X313440Y682194D01*
X314284Y681972D01*
X315123Y681729D01*
X315955Y681465D01*
X316780Y681181D01*
X317598Y680877D01*
X318408Y680553D01*
X319210Y680209D01*
X320004Y679846D01*
X320788Y679463D01*
X321563Y679061D01*
X322327Y678640D01*
X323081Y678201D01*
X323825Y677743D01*
X324556Y677267D01*
X325276Y676773D01*
X325983Y676262D01*
X326678Y675734D01*
X327359Y675188D01*
X328027Y674626D01*
X328681Y674048D01*
X329320Y673454D01*
X329945Y672845D01*
X330554Y672220D01*
X331148Y671581D01*
X331726Y670927D01*
X332288Y670259D01*
X332834Y669578D01*
X333362Y668883D01*
X333873Y668176D01*
X334367Y667456D01*
X334843Y666725D01*
X335301Y665981D01*
X335740Y665227D01*
X336161Y664463D01*
X336563Y663688D01*
X336946Y662904D01*
X337309Y662110D01*
X337653Y661308D01*
X337977Y660498D01*
X338281Y659680D01*
X338565Y658855D01*
X338829Y658023D01*
X339072Y657184D01*
X339294Y656340D01*
X339496Y655491D01*
X339677Y654637D01*
X339836Y653779D01*
X339975Y652918D01*
X340093Y652053D01*
X340189Y651185D01*
X340264Y650316D01*
X340317Y649445D01*
X340349Y648573D01*
X340360Y647700D01*
X340349Y646827D01*
X340317Y645955D01*
X340264Y645084D01*
X340189Y644215D01*
X340093Y643347D01*
X339975Y642482D01*
X339836Y641621D01*
X339677Y640763D01*
X339496Y639909D01*
X339294Y639060D01*
X339072Y638216D01*
X338829Y637377D01*
X338565Y636545D01*
X338281Y635720D01*
X337977Y634902D01*
X337653Y634092D01*
X337309Y633290D01*
X336946Y632496D01*
X336563Y631712D01*
X336161Y630937D01*
X335740Y630173D01*
X335301Y629419D01*
X334843Y628675D01*
X334367Y627944D01*
X333873Y627224D01*
X333362Y626517D01*
X332834Y625822D01*
X332288Y625141D01*
X331726Y624473D01*
X331148Y623819D01*
X330554Y623180D01*
X329945Y622555D01*
X329320Y621946D01*
X328681Y621352D01*
X328027Y620774D01*
X327359Y620212D01*
X326678Y619666D01*
X325983Y619138D01*
X325276Y618627D01*
X324556Y618133D01*
X323825Y617657D01*
X323081Y617199D01*
X322327Y616760D01*
X321563Y616339D01*
X320788Y615937D01*
X320004Y615554D01*
X319210Y615191D01*
X318408Y614847D01*
X317598Y614523D01*
X316780Y614219D01*
X315955Y613935D01*
X315123Y613671D01*
X314284Y613428D01*
X313440Y613206D01*
X312591Y613004D01*
X311737Y612823D01*
X310879Y612664D01*
X310018Y612525D01*
X309153Y612407D01*
X308285Y612311D01*
X307416Y612236D01*
X306545Y612183D01*
X305673Y612151D01*
X304800Y612140D01*
X303927Y612151D01*
X303055Y612183D01*
X302184Y612236D01*
X301315Y612311D01*
X300447Y612407D01*
X299582Y612525D01*
X298721Y612664D01*
X297863Y612823D01*
X297009Y613004D01*
X296160Y613206D01*
X295316Y613428D01*
X294477Y613671D01*
X293645Y613935D01*
X292820Y614219D01*
X292002Y614523D01*
X291192Y614847D01*
X290390Y615191D01*
X289596Y615554D01*
X288812Y615937D01*
X288037Y616339D01*
X287273Y616760D01*
X286519Y617199D01*
X285775Y617657D01*
X285044Y618133D01*
X284324Y618627D01*
X283617Y619138D01*
X282922Y619666D01*
X282241Y620212D01*
X281573Y620774D01*
X280919Y621352D01*
X280280Y621946D01*
X279655Y622555D01*
X279046Y623180D01*
X278452Y623819D01*
X277874Y624473D01*
X277312Y625141D01*
X276766Y625822D01*
X276238Y626517D01*
X275727Y627224D01*
X275233Y627944D01*
X274757Y628675D01*
X274299Y629419D01*
X273860Y630173D01*
X273439Y630937D01*
X273037Y631712D01*
X272654Y632496D01*
X272291Y633290D01*
X271947Y634092D01*
X271623Y634902D01*
X271319Y635720D01*
X271035Y636545D01*
X270771Y637377D01*
X270528Y638216D01*
X270306Y639060D01*
X270104Y639909D01*
X269923Y640763D01*
X269764Y641621D01*
X269625Y642482D01*
X269507Y643347D01*
X269411Y644215D01*
X269336Y645084D01*
X269283Y645955D01*
X269251Y646827D01*
X269240Y647700D01*
D14*
X294640Y647700D02*
X294643Y647949D01*
X294652Y648199D01*
X294668Y648447D01*
X294689Y648696D01*
X294716Y648944D01*
X294750Y649191D01*
X294790Y649437D01*
X294835Y649682D01*
X294887Y649926D01*
X294944Y650169D01*
X295008Y650410D01*
X295077Y650649D01*
X295153Y650887D01*
X295234Y651123D01*
X295321Y651357D01*
X295413Y651588D01*
X295512Y651817D01*
X295615Y652044D01*
X295725Y652268D01*
X295840Y652489D01*
X295960Y652708D01*
X296085Y652923D01*
X296216Y653136D01*
X296352Y653345D01*
X296493Y653550D01*
X296639Y653752D01*
X296790Y653951D01*
X296946Y654145D01*
X297107Y654336D01*
X297272Y654523D01*
X297442Y654706D01*
X297616Y654884D01*
X297794Y655058D01*
X297977Y655228D01*
X298164Y655393D01*
X298355Y655554D01*
X298549Y655710D01*
X298748Y655861D01*
X298950Y656007D01*
X299155Y656148D01*
X299364Y656284D01*
X299577Y656415D01*
X299792Y656540D01*
X300011Y656660D01*
X300232Y656775D01*
X300456Y656885D01*
X300683Y656988D01*
X300912Y657087D01*
X301143Y657179D01*
X301377Y657266D01*
X301613Y657347D01*
X301851Y657423D01*
X302090Y657492D01*
X302331Y657556D01*
X302574Y657613D01*
X302818Y657665D01*
X303063Y657710D01*
X303309Y657750D01*
X303556Y657784D01*
X303804Y657811D01*
X304053Y657832D01*
X304301Y657848D01*
X304551Y657857D01*
X304800Y657860D01*
X305049Y657857D01*
X305299Y657848D01*
X305547Y657832D01*
X305796Y657811D01*
X306044Y657784D01*
X306291Y657750D01*
X306537Y657710D01*
X306782Y657665D01*
X307026Y657613D01*
X307269Y657556D01*
X307510Y657492D01*
X307749Y657423D01*
X307987Y657347D01*
X308223Y657266D01*
X308457Y657179D01*
X308688Y657087D01*
X308917Y656988D01*
X309144Y656885D01*
X309368Y656775D01*
X309589Y656660D01*
X309808Y656540D01*
X310023Y656415D01*
X310236Y656284D01*
X310445Y656148D01*
X310650Y656007D01*
X310852Y655861D01*
X311051Y655710D01*
X311245Y655554D01*
X311436Y655393D01*
X311623Y655228D01*
X311806Y655058D01*
X311984Y654884D01*
X312158Y654706D01*
X312328Y654523D01*
X312493Y654336D01*
X312654Y654145D01*
X312810Y653951D01*
X312961Y653752D01*
X313107Y653550D01*
X313248Y653345D01*
X313384Y653136D01*
X313515Y652923D01*
X313640Y652708D01*
X313760Y652489D01*
X313875Y652268D01*
X313985Y652044D01*
X314088Y651817D01*
X314187Y651588D01*
X314279Y651357D01*
X314366Y651123D01*
X314447Y650887D01*
X314523Y650649D01*
X314592Y650410D01*
X314656Y650169D01*
X314713Y649926D01*
X314765Y649682D01*
X314810Y649437D01*
X314850Y649191D01*
X314884Y648944D01*
X314911Y648696D01*
X314932Y648447D01*
X314948Y648199D01*
X314957Y647949D01*
X314960Y647700D01*
X314957Y647451D01*
X314948Y647201D01*
X314932Y646953D01*
X314911Y646704D01*
X314884Y646456D01*
X314850Y646209D01*
X314810Y645963D01*
X314765Y645718D01*
X314713Y645474D01*
X314656Y645231D01*
X314592Y644990D01*
X314523Y644751D01*
X314447Y644513D01*
X314366Y644277D01*
X314279Y644043D01*
X314187Y643812D01*
X314088Y643583D01*
X313985Y643356D01*
X313875Y643132D01*
X313760Y642911D01*
X313640Y642692D01*
X313515Y642477D01*
X313384Y642264D01*
X313248Y642055D01*
X313107Y641850D01*
X312961Y641648D01*
X312810Y641449D01*
X312654Y641255D01*
X312493Y641064D01*
X312328Y640877D01*
X312158Y640694D01*
X311984Y640516D01*
X311806Y640342D01*
X311623Y640172D01*
X311436Y640007D01*
X311245Y639846D01*
X311051Y639690D01*
X310852Y639539D01*
X310650Y639393D01*
X310445Y639252D01*
X310236Y639116D01*
X310023Y638985D01*
X309808Y638860D01*
X309589Y638740D01*
X309368Y638625D01*
X309144Y638515D01*
X308917Y638412D01*
X308688Y638313D01*
X308457Y638221D01*
X308223Y638134D01*
X307987Y638053D01*
X307749Y637977D01*
X307510Y637908D01*
X307269Y637844D01*
X307026Y637787D01*
X306782Y637735D01*
X306537Y637690D01*
X306291Y637650D01*
X306044Y637616D01*
X305796Y637589D01*
X305547Y637568D01*
X305299Y637552D01*
X305049Y637543D01*
X304800Y637540D01*
X304551Y637543D01*
X304301Y637552D01*
X304053Y637568D01*
X303804Y637589D01*
X303556Y637616D01*
X303309Y637650D01*
X303063Y637690D01*
X302818Y637735D01*
X302574Y637787D01*
X302331Y637844D01*
X302090Y637908D01*
X301851Y637977D01*
X301613Y638053D01*
X301377Y638134D01*
X301143Y638221D01*
X300912Y638313D01*
X300683Y638412D01*
X300456Y638515D01*
X300232Y638625D01*
X300011Y638740D01*
X299792Y638860D01*
X299577Y638985D01*
X299364Y639116D01*
X299155Y639252D01*
X298950Y639393D01*
X298748Y639539D01*
X298549Y639690D01*
X298355Y639846D01*
X298164Y640007D01*
X297977Y640172D01*
X297794Y640342D01*
X297616Y640516D01*
X297442Y640694D01*
X297272Y640877D01*
X297107Y641064D01*
X296946Y641255D01*
X296790Y641449D01*
X296639Y641648D01*
X296493Y641850D01*
X296352Y642055D01*
X296216Y642264D01*
X296085Y642477D01*
X295960Y642692D01*
X295840Y642911D01*
X295725Y643132D01*
X295615Y643356D01*
X295512Y643583D01*
X295413Y643812D01*
X295321Y644043D01*
X295234Y644277D01*
X295153Y644513D01*
X295077Y644751D01*
X295008Y644990D01*
X294944Y645231D01*
X294887Y645474D01*
X294835Y645718D01*
X294790Y645963D01*
X294750Y646209D01*
X294716Y646456D01*
X294689Y646704D01*
X294668Y646953D01*
X294652Y647201D01*
X294643Y647451D01*
X294640Y647700D01*
X297180Y647700D02*
X297182Y647887D01*
X297189Y648074D01*
X297201Y648261D01*
X297217Y648447D01*
X297237Y648633D01*
X297262Y648818D01*
X297292Y649003D01*
X297326Y649187D01*
X297365Y649370D01*
X297408Y649552D01*
X297456Y649732D01*
X297508Y649912D01*
X297565Y650090D01*
X297625Y650267D01*
X297691Y650442D01*
X297760Y650616D01*
X297834Y650788D01*
X297912Y650958D01*
X297994Y651126D01*
X298080Y651292D01*
X298170Y651456D01*
X298264Y651617D01*
X298362Y651777D01*
X298464Y651933D01*
X298570Y652088D01*
X298680Y652239D01*
X298793Y652388D01*
X298910Y652534D01*
X299030Y652677D01*
X299154Y652817D01*
X299281Y652954D01*
X299412Y653088D01*
X299546Y653219D01*
X299683Y653346D01*
X299823Y653470D01*
X299966Y653590D01*
X300112Y653707D01*
X300261Y653820D01*
X300412Y653930D01*
X300567Y654036D01*
X300723Y654138D01*
X300883Y654236D01*
X301044Y654330D01*
X301208Y654420D01*
X301374Y654506D01*
X301542Y654588D01*
X301712Y654666D01*
X301884Y654740D01*
X302058Y654809D01*
X302233Y654875D01*
X302410Y654935D01*
X302588Y654992D01*
X302768Y655044D01*
X302948Y655092D01*
X303130Y655135D01*
X303313Y655174D01*
X303497Y655208D01*
X303682Y655238D01*
X303867Y655263D01*
X304053Y655283D01*
X304239Y655299D01*
X304426Y655311D01*
X304613Y655318D01*
X304800Y655320D01*
X304987Y655318D01*
X305174Y655311D01*
X305361Y655299D01*
X305547Y655283D01*
X305733Y655263D01*
X305918Y655238D01*
X306103Y655208D01*
X306287Y655174D01*
X306470Y655135D01*
X306652Y655092D01*
X306832Y655044D01*
X307012Y654992D01*
X307190Y654935D01*
X307367Y654875D01*
X307542Y654809D01*
X307716Y654740D01*
X307888Y654666D01*
X308058Y654588D01*
X308226Y654506D01*
X308392Y654420D01*
X308556Y654330D01*
X308717Y654236D01*
X308877Y654138D01*
X309033Y654036D01*
X309188Y653930D01*
X309339Y653820D01*
X309488Y653707D01*
X309634Y653590D01*
X309777Y653470D01*
X309917Y653346D01*
X310054Y653219D01*
X310188Y653088D01*
X310319Y652954D01*
X310446Y652817D01*
X310570Y652677D01*
X310690Y652534D01*
X310807Y652388D01*
X310920Y652239D01*
X311030Y652088D01*
X311136Y651933D01*
X311238Y651777D01*
X311336Y651617D01*
X311430Y651456D01*
X311520Y651292D01*
X311606Y651126D01*
X311688Y650958D01*
X311766Y650788D01*
X311840Y650616D01*
X311909Y650442D01*
X311975Y650267D01*
X312035Y650090D01*
X312092Y649912D01*
X312144Y649732D01*
X312192Y649552D01*
X312235Y649370D01*
X312274Y649187D01*
X312308Y649003D01*
X312338Y648818D01*
X312363Y648633D01*
X312383Y648447D01*
X312399Y648261D01*
X312411Y648074D01*
X312418Y647887D01*
X312420Y647700D01*
X312418Y647513D01*
X312411Y647326D01*
X312399Y647139D01*
X312383Y646953D01*
X312363Y646767D01*
X312338Y646582D01*
X312308Y646397D01*
X312274Y646213D01*
X312235Y646030D01*
X312192Y645848D01*
X312144Y645668D01*
X312092Y645488D01*
X312035Y645310D01*
X311975Y645133D01*
X311909Y644958D01*
X311840Y644784D01*
X311766Y644612D01*
X311688Y644442D01*
X311606Y644274D01*
X311520Y644108D01*
X311430Y643944D01*
X311336Y643783D01*
X311238Y643623D01*
X311136Y643467D01*
X311030Y643312D01*
X310920Y643161D01*
X310807Y643012D01*
X310690Y642866D01*
X310570Y642723D01*
X310446Y642583D01*
X310319Y642446D01*
X310188Y642312D01*
X310054Y642181D01*
X309917Y642054D01*
X309777Y641930D01*
X309634Y641810D01*
X309488Y641693D01*
X309339Y641580D01*
X309188Y641470D01*
X309033Y641364D01*
X308877Y641262D01*
X308717Y641164D01*
X308556Y641070D01*
X308392Y640980D01*
X308226Y640894D01*
X308058Y640812D01*
X307888Y640734D01*
X307716Y640660D01*
X307542Y640591D01*
X307367Y640525D01*
X307190Y640465D01*
X307012Y640408D01*
X306832Y640356D01*
X306652Y640308D01*
X306470Y640265D01*
X306287Y640226D01*
X306103Y640192D01*
X305918Y640162D01*
X305733Y640137D01*
X305547Y640117D01*
X305361Y640101D01*
X305174Y640089D01*
X304987Y640082D01*
X304800Y640080D01*
X304613Y640082D01*
X304426Y640089D01*
X304239Y640101D01*
X304053Y640117D01*
X303867Y640137D01*
X303682Y640162D01*
X303497Y640192D01*
X303313Y640226D01*
X303130Y640265D01*
X302948Y640308D01*
X302768Y640356D01*
X302588Y640408D01*
X302410Y640465D01*
X302233Y640525D01*
X302058Y640591D01*
X301884Y640660D01*
X301712Y640734D01*
X301542Y640812D01*
X301374Y640894D01*
X301208Y640980D01*
X301044Y641070D01*
X300883Y641164D01*
X300723Y641262D01*
X300567Y641364D01*
X300412Y641470D01*
X300261Y641580D01*
X300112Y641693D01*
X299966Y641810D01*
X299823Y641930D01*
X299683Y642054D01*
X299546Y642181D01*
X299412Y642312D01*
X299281Y642446D01*
X299154Y642583D01*
X299030Y642723D01*
X298910Y642866D01*
X298793Y643012D01*
X298680Y643161D01*
X298570Y643312D01*
X298464Y643467D01*
X298362Y643623D01*
X298264Y643783D01*
X298170Y643944D01*
X298080Y644108D01*
X297994Y644274D01*
X297912Y644442D01*
X297834Y644612D01*
X297760Y644784D01*
X297691Y644958D01*
X297625Y645133D01*
X297565Y645310D01*
X297508Y645488D01*
X297456Y645668D01*
X297408Y645848D01*
X297365Y646030D01*
X297326Y646213D01*
X297292Y646397D01*
X297262Y646582D01*
X297237Y646767D01*
X297217Y646953D01*
X297201Y647139D01*
X297189Y647326D01*
X297182Y647513D01*
X297180Y647700D01*
D15*
X345811Y610242D02*
X349624Y614055D01*
X349624Y602615D01*
X345811Y602615D02*
X353438Y602615D01*
X261998Y602615D02*
X254371Y602615D01*
X261998Y610242D01*
X261998Y612148D01*
X260091Y614055D01*
X256278Y614055D01*
X254371Y612148D01*
X345811Y692158D02*
X347718Y694065D01*
X351531Y694065D01*
X353438Y692158D01*
X353438Y690252D01*
X351531Y688345D01*
X349624Y688345D01*
X351531Y688345D02*
X353438Y686438D01*
X353438Y684532D01*
X351531Y682625D01*
X347718Y682625D01*
X345811Y684532D01*
X258821Y682625D02*
X258821Y694065D01*
X253101Y688345D01*
X260728Y688345D01*
D16*
X271145Y586740D03*
X338455Y586740D03*
X271145Y708660D03*
X338455Y708660D03*
D11*
X882650Y666750D02*
X920750Y666750D01*
X920750Y628650D01*
X882650Y628650D01*
X882650Y666750D01*
D14*
X885190Y664210D02*
X918210Y664210D01*
X918210Y631190D01*
X885190Y631190D01*
X885190Y664210D01*
D11*
X891540Y708660D02*
X891540Y712470D01*
X891540Y708660D02*
X911860Y708660D01*
X911860Y712470D02*
X891540Y712470D01*
X911860Y712470D02*
X911860Y708660D01*
X952500Y708660D02*
X962660Y698500D01*
X952500Y708660D02*
X919480Y708660D01*
X962660Y698500D02*
X962660Y685800D01*
X962660Y659130D02*
X962660Y636270D01*
X962660Y596900D02*
X952500Y586740D01*
X962660Y596900D02*
X962660Y609600D01*
X840740Y636270D02*
X840740Y659130D01*
X840740Y609600D02*
X840740Y596900D01*
X850900Y586740D01*
X883920Y586740D01*
X883920Y708660D02*
X850900Y708660D01*
X840740Y698500D01*
X840740Y685800D01*
X891540Y582930D02*
X911860Y582930D01*
X891540Y582930D02*
X891540Y586740D01*
X911860Y586740D02*
X911860Y582930D01*
X952500Y708660D02*
X949960Y711200D01*
X919480Y711200D01*
X919480Y708660D01*
X911860Y708660D01*
X883920Y708660D02*
X883920Y711200D01*
X883920Y708660D02*
X891540Y708660D01*
X883920Y711200D02*
X853440Y711200D01*
X850900Y708660D01*
X891540Y586740D02*
X911860Y586740D01*
X919480Y586740D01*
X883920Y586740D02*
X883920Y584200D01*
X883920Y586740D02*
X891540Y586740D01*
X883920Y584200D02*
X853440Y584200D01*
X850900Y586740D01*
X919480Y586740D02*
X919480Y584200D01*
X919480Y586740D02*
X952500Y586740D01*
X949960Y584200D02*
X919480Y584200D01*
X949960Y584200D02*
X952500Y586740D01*
X866140Y647700D02*
X866151Y648573D01*
X866183Y649445D01*
X866236Y650316D01*
X866311Y651185D01*
X866407Y652053D01*
X866525Y652918D01*
X866664Y653779D01*
X866823Y654637D01*
X867004Y655491D01*
X867206Y656340D01*
X867428Y657184D01*
X867671Y658023D01*
X867935Y658855D01*
X868219Y659680D01*
X868523Y660498D01*
X868847Y661308D01*
X869191Y662110D01*
X869554Y662904D01*
X869937Y663688D01*
X870339Y664463D01*
X870760Y665227D01*
X871199Y665981D01*
X871657Y666725D01*
X872133Y667456D01*
X872627Y668176D01*
X873138Y668883D01*
X873666Y669578D01*
X874212Y670259D01*
X874774Y670927D01*
X875352Y671581D01*
X875946Y672220D01*
X876555Y672845D01*
X877180Y673454D01*
X877819Y674048D01*
X878473Y674626D01*
X879141Y675188D01*
X879822Y675734D01*
X880517Y676262D01*
X881224Y676773D01*
X881944Y677267D01*
X882675Y677743D01*
X883419Y678201D01*
X884173Y678640D01*
X884937Y679061D01*
X885712Y679463D01*
X886496Y679846D01*
X887290Y680209D01*
X888092Y680553D01*
X888902Y680877D01*
X889720Y681181D01*
X890545Y681465D01*
X891377Y681729D01*
X892216Y681972D01*
X893060Y682194D01*
X893909Y682396D01*
X894763Y682577D01*
X895621Y682736D01*
X896482Y682875D01*
X897347Y682993D01*
X898215Y683089D01*
X899084Y683164D01*
X899955Y683217D01*
X900827Y683249D01*
X901700Y683260D01*
X902573Y683249D01*
X903445Y683217D01*
X904316Y683164D01*
X905185Y683089D01*
X906053Y682993D01*
X906918Y682875D01*
X907779Y682736D01*
X908637Y682577D01*
X909491Y682396D01*
X910340Y682194D01*
X911184Y681972D01*
X912023Y681729D01*
X912855Y681465D01*
X913680Y681181D01*
X914498Y680877D01*
X915308Y680553D01*
X916110Y680209D01*
X916904Y679846D01*
X917688Y679463D01*
X918463Y679061D01*
X919227Y678640D01*
X919981Y678201D01*
X920725Y677743D01*
X921456Y677267D01*
X922176Y676773D01*
X922883Y676262D01*
X923578Y675734D01*
X924259Y675188D01*
X924927Y674626D01*
X925581Y674048D01*
X926220Y673454D01*
X926845Y672845D01*
X927454Y672220D01*
X928048Y671581D01*
X928626Y670927D01*
X929188Y670259D01*
X929734Y669578D01*
X930262Y668883D01*
X930773Y668176D01*
X931267Y667456D01*
X931743Y666725D01*
X932201Y665981D01*
X932640Y665227D01*
X933061Y664463D01*
X933463Y663688D01*
X933846Y662904D01*
X934209Y662110D01*
X934553Y661308D01*
X934877Y660498D01*
X935181Y659680D01*
X935465Y658855D01*
X935729Y658023D01*
X935972Y657184D01*
X936194Y656340D01*
X936396Y655491D01*
X936577Y654637D01*
X936736Y653779D01*
X936875Y652918D01*
X936993Y652053D01*
X937089Y651185D01*
X937164Y650316D01*
X937217Y649445D01*
X937249Y648573D01*
X937260Y647700D01*
X937249Y646827D01*
X937217Y645955D01*
X937164Y645084D01*
X937089Y644215D01*
X936993Y643347D01*
X936875Y642482D01*
X936736Y641621D01*
X936577Y640763D01*
X936396Y639909D01*
X936194Y639060D01*
X935972Y638216D01*
X935729Y637377D01*
X935465Y636545D01*
X935181Y635720D01*
X934877Y634902D01*
X934553Y634092D01*
X934209Y633290D01*
X933846Y632496D01*
X933463Y631712D01*
X933061Y630937D01*
X932640Y630173D01*
X932201Y629419D01*
X931743Y628675D01*
X931267Y627944D01*
X930773Y627224D01*
X930262Y626517D01*
X929734Y625822D01*
X929188Y625141D01*
X928626Y624473D01*
X928048Y623819D01*
X927454Y623180D01*
X926845Y622555D01*
X926220Y621946D01*
X925581Y621352D01*
X924927Y620774D01*
X924259Y620212D01*
X923578Y619666D01*
X922883Y619138D01*
X922176Y618627D01*
X921456Y618133D01*
X920725Y617657D01*
X919981Y617199D01*
X919227Y616760D01*
X918463Y616339D01*
X917688Y615937D01*
X916904Y615554D01*
X916110Y615191D01*
X915308Y614847D01*
X914498Y614523D01*
X913680Y614219D01*
X912855Y613935D01*
X912023Y613671D01*
X911184Y613428D01*
X910340Y613206D01*
X909491Y613004D01*
X908637Y612823D01*
X907779Y612664D01*
X906918Y612525D01*
X906053Y612407D01*
X905185Y612311D01*
X904316Y612236D01*
X903445Y612183D01*
X902573Y612151D01*
X901700Y612140D01*
X900827Y612151D01*
X899955Y612183D01*
X899084Y612236D01*
X898215Y612311D01*
X897347Y612407D01*
X896482Y612525D01*
X895621Y612664D01*
X894763Y612823D01*
X893909Y613004D01*
X893060Y613206D01*
X892216Y613428D01*
X891377Y613671D01*
X890545Y613935D01*
X889720Y614219D01*
X888902Y614523D01*
X888092Y614847D01*
X887290Y615191D01*
X886496Y615554D01*
X885712Y615937D01*
X884937Y616339D01*
X884173Y616760D01*
X883419Y617199D01*
X882675Y617657D01*
X881944Y618133D01*
X881224Y618627D01*
X880517Y619138D01*
X879822Y619666D01*
X879141Y620212D01*
X878473Y620774D01*
X877819Y621352D01*
X877180Y621946D01*
X876555Y622555D01*
X875946Y623180D01*
X875352Y623819D01*
X874774Y624473D01*
X874212Y625141D01*
X873666Y625822D01*
X873138Y626517D01*
X872627Y627224D01*
X872133Y627944D01*
X871657Y628675D01*
X871199Y629419D01*
X870760Y630173D01*
X870339Y630937D01*
X869937Y631712D01*
X869554Y632496D01*
X869191Y633290D01*
X868847Y634092D01*
X868523Y634902D01*
X868219Y635720D01*
X867935Y636545D01*
X867671Y637377D01*
X867428Y638216D01*
X867206Y639060D01*
X867004Y639909D01*
X866823Y640763D01*
X866664Y641621D01*
X866525Y642482D01*
X866407Y643347D01*
X866311Y644215D01*
X866236Y645084D01*
X866183Y645955D01*
X866151Y646827D01*
X866140Y647700D01*
D14*
X891540Y647700D02*
X891543Y647949D01*
X891552Y648199D01*
X891568Y648447D01*
X891589Y648696D01*
X891616Y648944D01*
X891650Y649191D01*
X891690Y649437D01*
X891735Y649682D01*
X891787Y649926D01*
X891844Y650169D01*
X891908Y650410D01*
X891977Y650649D01*
X892053Y650887D01*
X892134Y651123D01*
X892221Y651357D01*
X892313Y651588D01*
X892412Y651817D01*
X892515Y652044D01*
X892625Y652268D01*
X892740Y652489D01*
X892860Y652708D01*
X892985Y652923D01*
X893116Y653136D01*
X893252Y653345D01*
X893393Y653550D01*
X893539Y653752D01*
X893690Y653951D01*
X893846Y654145D01*
X894007Y654336D01*
X894172Y654523D01*
X894342Y654706D01*
X894516Y654884D01*
X894694Y655058D01*
X894877Y655228D01*
X895064Y655393D01*
X895255Y655554D01*
X895449Y655710D01*
X895648Y655861D01*
X895850Y656007D01*
X896055Y656148D01*
X896264Y656284D01*
X896477Y656415D01*
X896692Y656540D01*
X896911Y656660D01*
X897132Y656775D01*
X897356Y656885D01*
X897583Y656988D01*
X897812Y657087D01*
X898043Y657179D01*
X898277Y657266D01*
X898513Y657347D01*
X898751Y657423D01*
X898990Y657492D01*
X899231Y657556D01*
X899474Y657613D01*
X899718Y657665D01*
X899963Y657710D01*
X900209Y657750D01*
X900456Y657784D01*
X900704Y657811D01*
X900953Y657832D01*
X901201Y657848D01*
X901451Y657857D01*
X901700Y657860D01*
X901949Y657857D01*
X902199Y657848D01*
X902447Y657832D01*
X902696Y657811D01*
X902944Y657784D01*
X903191Y657750D01*
X903437Y657710D01*
X903682Y657665D01*
X903926Y657613D01*
X904169Y657556D01*
X904410Y657492D01*
X904649Y657423D01*
X904887Y657347D01*
X905123Y657266D01*
X905357Y657179D01*
X905588Y657087D01*
X905817Y656988D01*
X906044Y656885D01*
X906268Y656775D01*
X906489Y656660D01*
X906708Y656540D01*
X906923Y656415D01*
X907136Y656284D01*
X907345Y656148D01*
X907550Y656007D01*
X907752Y655861D01*
X907951Y655710D01*
X908145Y655554D01*
X908336Y655393D01*
X908523Y655228D01*
X908706Y655058D01*
X908884Y654884D01*
X909058Y654706D01*
X909228Y654523D01*
X909393Y654336D01*
X909554Y654145D01*
X909710Y653951D01*
X909861Y653752D01*
X910007Y653550D01*
X910148Y653345D01*
X910284Y653136D01*
X910415Y652923D01*
X910540Y652708D01*
X910660Y652489D01*
X910775Y652268D01*
X910885Y652044D01*
X910988Y651817D01*
X911087Y651588D01*
X911179Y651357D01*
X911266Y651123D01*
X911347Y650887D01*
X911423Y650649D01*
X911492Y650410D01*
X911556Y650169D01*
X911613Y649926D01*
X911665Y649682D01*
X911710Y649437D01*
X911750Y649191D01*
X911784Y648944D01*
X911811Y648696D01*
X911832Y648447D01*
X911848Y648199D01*
X911857Y647949D01*
X911860Y647700D01*
X911857Y647451D01*
X911848Y647201D01*
X911832Y646953D01*
X911811Y646704D01*
X911784Y646456D01*
X911750Y646209D01*
X911710Y645963D01*
X911665Y645718D01*
X911613Y645474D01*
X911556Y645231D01*
X911492Y644990D01*
X911423Y644751D01*
X911347Y644513D01*
X911266Y644277D01*
X911179Y644043D01*
X911087Y643812D01*
X910988Y643583D01*
X910885Y643356D01*
X910775Y643132D01*
X910660Y642911D01*
X910540Y642692D01*
X910415Y642477D01*
X910284Y642264D01*
X910148Y642055D01*
X910007Y641850D01*
X909861Y641648D01*
X909710Y641449D01*
X909554Y641255D01*
X909393Y641064D01*
X909228Y640877D01*
X909058Y640694D01*
X908884Y640516D01*
X908706Y640342D01*
X908523Y640172D01*
X908336Y640007D01*
X908145Y639846D01*
X907951Y639690D01*
X907752Y639539D01*
X907550Y639393D01*
X907345Y639252D01*
X907136Y639116D01*
X906923Y638985D01*
X906708Y638860D01*
X906489Y638740D01*
X906268Y638625D01*
X906044Y638515D01*
X905817Y638412D01*
X905588Y638313D01*
X905357Y638221D01*
X905123Y638134D01*
X904887Y638053D01*
X904649Y637977D01*
X904410Y637908D01*
X904169Y637844D01*
X903926Y637787D01*
X903682Y637735D01*
X903437Y637690D01*
X903191Y637650D01*
X902944Y637616D01*
X902696Y637589D01*
X902447Y637568D01*
X902199Y637552D01*
X901949Y637543D01*
X901700Y637540D01*
X901451Y637543D01*
X901201Y637552D01*
X900953Y637568D01*
X900704Y637589D01*
X900456Y637616D01*
X900209Y637650D01*
X899963Y637690D01*
X899718Y637735D01*
X899474Y637787D01*
X899231Y637844D01*
X898990Y637908D01*
X898751Y637977D01*
X898513Y638053D01*
X898277Y638134D01*
X898043Y638221D01*
X897812Y638313D01*
X897583Y638412D01*
X897356Y638515D01*
X897132Y638625D01*
X896911Y638740D01*
X896692Y638860D01*
X896477Y638985D01*
X896264Y639116D01*
X896055Y639252D01*
X895850Y639393D01*
X895648Y639539D01*
X895449Y639690D01*
X895255Y639846D01*
X895064Y640007D01*
X894877Y640172D01*
X894694Y640342D01*
X894516Y640516D01*
X894342Y640694D01*
X894172Y640877D01*
X894007Y641064D01*
X893846Y641255D01*
X893690Y641449D01*
X893539Y641648D01*
X893393Y641850D01*
X893252Y642055D01*
X893116Y642264D01*
X892985Y642477D01*
X892860Y642692D01*
X892740Y642911D01*
X892625Y643132D01*
X892515Y643356D01*
X892412Y643583D01*
X892313Y643812D01*
X892221Y644043D01*
X892134Y644277D01*
X892053Y644513D01*
X891977Y644751D01*
X891908Y644990D01*
X891844Y645231D01*
X891787Y645474D01*
X891735Y645718D01*
X891690Y645963D01*
X891650Y646209D01*
X891616Y646456D01*
X891589Y646704D01*
X891568Y646953D01*
X891552Y647201D01*
X891543Y647451D01*
X891540Y647700D01*
X894080Y647700D02*
X894082Y647887D01*
X894089Y648074D01*
X894101Y648261D01*
X894117Y648447D01*
X894137Y648633D01*
X894162Y648818D01*
X894192Y649003D01*
X894226Y649187D01*
X894265Y649370D01*
X894308Y649552D01*
X894356Y649732D01*
X894408Y649912D01*
X894465Y650090D01*
X894525Y650267D01*
X894591Y650442D01*
X894660Y650616D01*
X894734Y650788D01*
X894812Y650958D01*
X894894Y651126D01*
X894980Y651292D01*
X895070Y651456D01*
X895164Y651617D01*
X895262Y651777D01*
X895364Y651933D01*
X895470Y652088D01*
X895580Y652239D01*
X895693Y652388D01*
X895810Y652534D01*
X895930Y652677D01*
X896054Y652817D01*
X896181Y652954D01*
X896312Y653088D01*
X896446Y653219D01*
X896583Y653346D01*
X896723Y653470D01*
X896866Y653590D01*
X897012Y653707D01*
X897161Y653820D01*
X897312Y653930D01*
X897467Y654036D01*
X897623Y654138D01*
X897783Y654236D01*
X897944Y654330D01*
X898108Y654420D01*
X898274Y654506D01*
X898442Y654588D01*
X898612Y654666D01*
X898784Y654740D01*
X898958Y654809D01*
X899133Y654875D01*
X899310Y654935D01*
X899488Y654992D01*
X899668Y655044D01*
X899848Y655092D01*
X900030Y655135D01*
X900213Y655174D01*
X900397Y655208D01*
X900582Y655238D01*
X900767Y655263D01*
X900953Y655283D01*
X901139Y655299D01*
X901326Y655311D01*
X901513Y655318D01*
X901700Y655320D01*
X901887Y655318D01*
X902074Y655311D01*
X902261Y655299D01*
X902447Y655283D01*
X902633Y655263D01*
X902818Y655238D01*
X903003Y655208D01*
X903187Y655174D01*
X903370Y655135D01*
X903552Y655092D01*
X903732Y655044D01*
X903912Y654992D01*
X904090Y654935D01*
X904267Y654875D01*
X904442Y654809D01*
X904616Y654740D01*
X904788Y654666D01*
X904958Y654588D01*
X905126Y654506D01*
X905292Y654420D01*
X905456Y654330D01*
X905617Y654236D01*
X905777Y654138D01*
X905933Y654036D01*
X906088Y653930D01*
X906239Y653820D01*
X906388Y653707D01*
X906534Y653590D01*
X906677Y653470D01*
X906817Y653346D01*
X906954Y653219D01*
X907088Y653088D01*
X907219Y652954D01*
X907346Y652817D01*
X907470Y652677D01*
X907590Y652534D01*
X907707Y652388D01*
X907820Y652239D01*
X907930Y652088D01*
X908036Y651933D01*
X908138Y651777D01*
X908236Y651617D01*
X908330Y651456D01*
X908420Y651292D01*
X908506Y651126D01*
X908588Y650958D01*
X908666Y650788D01*
X908740Y650616D01*
X908809Y650442D01*
X908875Y650267D01*
X908935Y650090D01*
X908992Y649912D01*
X909044Y649732D01*
X909092Y649552D01*
X909135Y649370D01*
X909174Y649187D01*
X909208Y649003D01*
X909238Y648818D01*
X909263Y648633D01*
X909283Y648447D01*
X909299Y648261D01*
X909311Y648074D01*
X909318Y647887D01*
X909320Y647700D01*
X909318Y647513D01*
X909311Y647326D01*
X909299Y647139D01*
X909283Y646953D01*
X909263Y646767D01*
X909238Y646582D01*
X909208Y646397D01*
X909174Y646213D01*
X909135Y646030D01*
X909092Y645848D01*
X909044Y645668D01*
X908992Y645488D01*
X908935Y645310D01*
X908875Y645133D01*
X908809Y644958D01*
X908740Y644784D01*
X908666Y644612D01*
X908588Y644442D01*
X908506Y644274D01*
X908420Y644108D01*
X908330Y643944D01*
X908236Y643783D01*
X908138Y643623D01*
X908036Y643467D01*
X907930Y643312D01*
X907820Y643161D01*
X907707Y643012D01*
X907590Y642866D01*
X907470Y642723D01*
X907346Y642583D01*
X907219Y642446D01*
X907088Y642312D01*
X906954Y642181D01*
X906817Y642054D01*
X906677Y641930D01*
X906534Y641810D01*
X906388Y641693D01*
X906239Y641580D01*
X906088Y641470D01*
X905933Y641364D01*
X905777Y641262D01*
X905617Y641164D01*
X905456Y641070D01*
X905292Y640980D01*
X905126Y640894D01*
X904958Y640812D01*
X904788Y640734D01*
X904616Y640660D01*
X904442Y640591D01*
X904267Y640525D01*
X904090Y640465D01*
X903912Y640408D01*
X903732Y640356D01*
X903552Y640308D01*
X903370Y640265D01*
X903187Y640226D01*
X903003Y640192D01*
X902818Y640162D01*
X902633Y640137D01*
X902447Y640117D01*
X902261Y640101D01*
X902074Y640089D01*
X901887Y640082D01*
X901700Y640080D01*
X901513Y640082D01*
X901326Y640089D01*
X901139Y640101D01*
X900953Y640117D01*
X900767Y640137D01*
X900582Y640162D01*
X900397Y640192D01*
X900213Y640226D01*
X900030Y640265D01*
X899848Y640308D01*
X899668Y640356D01*
X899488Y640408D01*
X899310Y640465D01*
X899133Y640525D01*
X898958Y640591D01*
X898784Y640660D01*
X898612Y640734D01*
X898442Y640812D01*
X898274Y640894D01*
X898108Y640980D01*
X897944Y641070D01*
X897783Y641164D01*
X897623Y641262D01*
X897467Y641364D01*
X897312Y641470D01*
X897161Y641580D01*
X897012Y641693D01*
X896866Y641810D01*
X896723Y641930D01*
X896583Y642054D01*
X896446Y642181D01*
X896312Y642312D01*
X896181Y642446D01*
X896054Y642583D01*
X895930Y642723D01*
X895810Y642866D01*
X895693Y643012D01*
X895580Y643161D01*
X895470Y643312D01*
X895364Y643467D01*
X895262Y643623D01*
X895164Y643783D01*
X895070Y643944D01*
X894980Y644108D01*
X894894Y644274D01*
X894812Y644442D01*
X894734Y644612D01*
X894660Y644784D01*
X894591Y644958D01*
X894525Y645133D01*
X894465Y645310D01*
X894408Y645488D01*
X894356Y645668D01*
X894308Y645848D01*
X894265Y646030D01*
X894226Y646213D01*
X894192Y646397D01*
X894162Y646582D01*
X894137Y646767D01*
X894117Y646953D01*
X894101Y647139D01*
X894089Y647326D01*
X894082Y647513D01*
X894080Y647700D01*
D15*
X850265Y688982D02*
X854078Y692795D01*
X854078Y681355D01*
X850265Y681355D02*
X857892Y681355D01*
X941705Y681355D02*
X949332Y681355D01*
X941705Y681355D02*
X949332Y688982D01*
X949332Y690888D01*
X947425Y692795D01*
X943612Y692795D01*
X941705Y690888D01*
X852172Y612785D02*
X850265Y610878D01*
X852172Y612785D02*
X855985Y612785D01*
X857892Y610878D01*
X857892Y608972D01*
X855985Y607065D01*
X854078Y607065D01*
X855985Y607065D02*
X857892Y605158D01*
X857892Y603252D01*
X855985Y601345D01*
X852172Y601345D01*
X850265Y603252D01*
X948695Y601345D02*
X948695Y612785D01*
X942975Y607065D01*
X950602Y607065D01*
D16*
X935355Y708660D03*
X868045Y708660D03*
X935355Y586740D03*
X868045Y586740D03*
D11*
X185420Y539750D02*
X185420Y435610D01*
X26670Y435610D02*
X26670Y539750D01*
X60960Y539750D02*
X185420Y539750D01*
X60960Y539750D02*
X60960Y530860D01*
X45720Y530860D01*
X45720Y539750D01*
X26670Y539750D01*
X60960Y435610D02*
X185420Y435610D01*
X60960Y435610D02*
X60960Y444500D01*
X45720Y444500D01*
X45720Y435610D01*
X26670Y435610D01*
D14*
X179070Y441960D02*
X179070Y533400D01*
X96520Y533400D01*
X96520Y441960D01*
X179070Y441960D01*
D11*
X42926Y487680D02*
X42931Y488123D01*
X42948Y488565D01*
X42975Y489007D01*
X43013Y489448D01*
X43062Y489888D01*
X43121Y490326D01*
X43192Y490763D01*
X43273Y491198D01*
X43364Y491631D01*
X43466Y492062D01*
X43579Y492490D01*
X43703Y492915D01*
X43836Y493337D01*
X43980Y493755D01*
X44134Y494170D01*
X44299Y494581D01*
X44473Y494988D01*
X44657Y495391D01*
X44852Y495788D01*
X45055Y496181D01*
X45269Y496569D01*
X45492Y496951D01*
X45724Y497328D01*
X45965Y497699D01*
X46216Y498064D01*
X46475Y498423D01*
X46743Y498775D01*
X47020Y499121D01*
X47304Y499459D01*
X47598Y499791D01*
X47899Y500115D01*
X48208Y500432D01*
X48525Y500741D01*
X48849Y501042D01*
X49181Y501336D01*
X49519Y501620D01*
X49865Y501897D01*
X50217Y502165D01*
X50576Y502424D01*
X50941Y502675D01*
X51312Y502916D01*
X51689Y503148D01*
X52071Y503371D01*
X52459Y503585D01*
X52852Y503788D01*
X53249Y503983D01*
X53652Y504167D01*
X54059Y504341D01*
X54470Y504506D01*
X54885Y504660D01*
X55303Y504804D01*
X55725Y504937D01*
X56150Y505061D01*
X56578Y505174D01*
X57009Y505276D01*
X57442Y505367D01*
X57877Y505448D01*
X58314Y505519D01*
X58752Y505578D01*
X59192Y505627D01*
X59633Y505665D01*
X60075Y505692D01*
X60517Y505709D01*
X60960Y505714D01*
X61403Y505709D01*
X61845Y505692D01*
X62287Y505665D01*
X62728Y505627D01*
X63168Y505578D01*
X63606Y505519D01*
X64043Y505448D01*
X64478Y505367D01*
X64911Y505276D01*
X65342Y505174D01*
X65770Y505061D01*
X66195Y504937D01*
X66617Y504804D01*
X67035Y504660D01*
X67450Y504506D01*
X67861Y504341D01*
X68268Y504167D01*
X68671Y503983D01*
X69068Y503788D01*
X69461Y503585D01*
X69849Y503371D01*
X70231Y503148D01*
X70608Y502916D01*
X70979Y502675D01*
X71344Y502424D01*
X71703Y502165D01*
X72055Y501897D01*
X72401Y501620D01*
X72739Y501336D01*
X73071Y501042D01*
X73395Y500741D01*
X73712Y500432D01*
X74021Y500115D01*
X74322Y499791D01*
X74616Y499459D01*
X74900Y499121D01*
X75177Y498775D01*
X75445Y498423D01*
X75704Y498064D01*
X75955Y497699D01*
X76196Y497328D01*
X76428Y496951D01*
X76651Y496569D01*
X76865Y496181D01*
X77068Y495788D01*
X77263Y495391D01*
X77447Y494988D01*
X77621Y494581D01*
X77786Y494170D01*
X77940Y493755D01*
X78084Y493337D01*
X78217Y492915D01*
X78341Y492490D01*
X78454Y492062D01*
X78556Y491631D01*
X78647Y491198D01*
X78728Y490763D01*
X78799Y490326D01*
X78858Y489888D01*
X78907Y489448D01*
X78945Y489007D01*
X78972Y488565D01*
X78989Y488123D01*
X78994Y487680D01*
X78989Y487237D01*
X78972Y486795D01*
X78945Y486353D01*
X78907Y485912D01*
X78858Y485472D01*
X78799Y485034D01*
X78728Y484597D01*
X78647Y484162D01*
X78556Y483729D01*
X78454Y483298D01*
X78341Y482870D01*
X78217Y482445D01*
X78084Y482023D01*
X77940Y481605D01*
X77786Y481190D01*
X77621Y480779D01*
X77447Y480372D01*
X77263Y479969D01*
X77068Y479572D01*
X76865Y479179D01*
X76651Y478791D01*
X76428Y478409D01*
X76196Y478032D01*
X75955Y477661D01*
X75704Y477296D01*
X75445Y476937D01*
X75177Y476585D01*
X74900Y476239D01*
X74616Y475901D01*
X74322Y475569D01*
X74021Y475245D01*
X73712Y474928D01*
X73395Y474619D01*
X73071Y474318D01*
X72739Y474024D01*
X72401Y473740D01*
X72055Y473463D01*
X71703Y473195D01*
X71344Y472936D01*
X70979Y472685D01*
X70608Y472444D01*
X70231Y472212D01*
X69849Y471989D01*
X69461Y471775D01*
X69068Y471572D01*
X68671Y471377D01*
X68268Y471193D01*
X67861Y471019D01*
X67450Y470854D01*
X67035Y470700D01*
X66617Y470556D01*
X66195Y470423D01*
X65770Y470299D01*
X65342Y470186D01*
X64911Y470084D01*
X64478Y469993D01*
X64043Y469912D01*
X63606Y469841D01*
X63168Y469782D01*
X62728Y469733D01*
X62287Y469695D01*
X61845Y469668D01*
X61403Y469651D01*
X60960Y469646D01*
X60517Y469651D01*
X60075Y469668D01*
X59633Y469695D01*
X59192Y469733D01*
X58752Y469782D01*
X58314Y469841D01*
X57877Y469912D01*
X57442Y469993D01*
X57009Y470084D01*
X56578Y470186D01*
X56150Y470299D01*
X55725Y470423D01*
X55303Y470556D01*
X54885Y470700D01*
X54470Y470854D01*
X54059Y471019D01*
X53652Y471193D01*
X53249Y471377D01*
X52852Y471572D01*
X52459Y471775D01*
X52071Y471989D01*
X51689Y472212D01*
X51312Y472444D01*
X50941Y472685D01*
X50576Y472936D01*
X50217Y473195D01*
X49865Y473463D01*
X49519Y473740D01*
X49181Y474024D01*
X48849Y474318D01*
X48525Y474619D01*
X48208Y474928D01*
X47899Y475245D01*
X47598Y475569D01*
X47304Y475901D01*
X47020Y476239D01*
X46743Y476585D01*
X46475Y476937D01*
X46216Y477296D01*
X45965Y477661D01*
X45724Y478032D01*
X45492Y478409D01*
X45269Y478791D01*
X45055Y479179D01*
X44852Y479572D01*
X44657Y479969D01*
X44473Y480372D01*
X44299Y480779D01*
X44134Y481190D01*
X43980Y481605D01*
X43836Y482023D01*
X43703Y482445D01*
X43579Y482870D01*
X43466Y483298D01*
X43364Y483729D01*
X43273Y484162D01*
X43192Y484597D01*
X43121Y485034D01*
X43062Y485472D01*
X43013Y485912D01*
X42975Y486353D01*
X42948Y486795D01*
X42931Y487237D01*
X42926Y487680D01*
D13*
X87540Y443738D02*
X93472Y443738D01*
X87540Y443738D02*
X84574Y446704D01*
X87540Y449670D01*
X93472Y449670D01*
X89023Y449670D02*
X89023Y443738D01*
X87540Y452859D02*
X84574Y455825D01*
X93472Y455825D01*
X93472Y452859D02*
X93472Y458791D01*
X84574Y461981D02*
X84574Y467912D01*
X84574Y461981D02*
X89023Y461981D01*
X87540Y464946D01*
X87540Y466429D01*
X89023Y467912D01*
X91989Y467912D01*
X93472Y466429D01*
X93472Y463464D01*
X91989Y461981D01*
X96438Y471102D02*
X93472Y474068D01*
X91989Y474068D01*
X91989Y472585D01*
X93472Y472585D01*
X93472Y474068D01*
X93472Y477183D02*
X93472Y483115D01*
X93472Y477183D02*
X87540Y483115D01*
X86057Y483115D01*
X84574Y481632D01*
X84574Y478666D01*
X86057Y477183D01*
X87540Y486304D02*
X93472Y486304D01*
X87540Y486304D02*
X87540Y487787D01*
X89023Y489270D01*
X93472Y489270D01*
X89023Y489270D02*
X87540Y490753D01*
X89023Y492236D01*
X93472Y492236D01*
X93472Y495425D02*
X87540Y495425D01*
X87540Y496908D01*
X89023Y498391D01*
X93472Y498391D01*
X89023Y498391D02*
X87540Y499874D01*
X89023Y501357D01*
X93472Y501357D01*
D18*
X189865Y513080D03*
X189865Y487680D03*
X189865Y462280D03*
D10*
X249320Y474980D02*
X249328Y475594D01*
X249350Y476207D01*
X249388Y476819D01*
X249440Y477430D01*
X249508Y478040D01*
X249591Y478648D01*
X249688Y479254D01*
X249800Y479857D01*
X249927Y480458D01*
X250069Y481055D01*
X250226Y481648D01*
X250396Y482237D01*
X250582Y482822D01*
X250781Y483402D01*
X250995Y483977D01*
X251223Y484547D01*
X251465Y485111D01*
X251720Y485669D01*
X251989Y486220D01*
X252272Y486765D01*
X252568Y487302D01*
X252877Y487833D01*
X253199Y488355D01*
X253533Y488869D01*
X253880Y489375D01*
X254240Y489872D01*
X254611Y490361D01*
X254995Y490840D01*
X255390Y491309D01*
X255796Y491769D01*
X256214Y492219D01*
X256642Y492658D01*
X257081Y493086D01*
X257531Y493504D01*
X257991Y493910D01*
X258460Y494305D01*
X258939Y494689D01*
X259428Y495060D01*
X259925Y495420D01*
X260431Y495767D01*
X260945Y496101D01*
X261467Y496423D01*
X261998Y496732D01*
X262535Y497028D01*
X263080Y497311D01*
X263631Y497580D01*
X264189Y497835D01*
X264753Y498077D01*
X265323Y498305D01*
X265898Y498519D01*
X266478Y498718D01*
X267063Y498904D01*
X267652Y499074D01*
X268245Y499231D01*
X268842Y499373D01*
X269443Y499500D01*
X270046Y499612D01*
X270652Y499709D01*
X271260Y499792D01*
X271870Y499860D01*
X272481Y499912D01*
X273093Y499950D01*
X273706Y499972D01*
X274320Y499980D01*
X274934Y499972D01*
X275547Y499950D01*
X276159Y499912D01*
X276770Y499860D01*
X277380Y499792D01*
X277988Y499709D01*
X278594Y499612D01*
X279197Y499500D01*
X279798Y499373D01*
X280395Y499231D01*
X280988Y499074D01*
X281577Y498904D01*
X282162Y498718D01*
X282742Y498519D01*
X283317Y498305D01*
X283887Y498077D01*
X284451Y497835D01*
X285009Y497580D01*
X285560Y497311D01*
X286105Y497028D01*
X286642Y496732D01*
X287173Y496423D01*
X287695Y496101D01*
X288209Y495767D01*
X288715Y495420D01*
X289212Y495060D01*
X289701Y494689D01*
X290180Y494305D01*
X290649Y493910D01*
X291109Y493504D01*
X291559Y493086D01*
X291998Y492658D01*
X292426Y492219D01*
X292844Y491769D01*
X293250Y491309D01*
X293645Y490840D01*
X294029Y490361D01*
X294400Y489872D01*
X294760Y489375D01*
X295107Y488869D01*
X295441Y488355D01*
X295763Y487833D01*
X296072Y487302D01*
X296368Y486765D01*
X296651Y486220D01*
X296920Y485669D01*
X297175Y485111D01*
X297417Y484547D01*
X297645Y483977D01*
X297859Y483402D01*
X298058Y482822D01*
X298244Y482237D01*
X298414Y481648D01*
X298571Y481055D01*
X298713Y480458D01*
X298840Y479857D01*
X298952Y479254D01*
X299049Y478648D01*
X299132Y478040D01*
X299200Y477430D01*
X299252Y476819D01*
X299290Y476207D01*
X299312Y475594D01*
X299320Y474980D01*
X299312Y474366D01*
X299290Y473753D01*
X299252Y473141D01*
X299200Y472530D01*
X299132Y471920D01*
X299049Y471312D01*
X298952Y470706D01*
X298840Y470103D01*
X298713Y469502D01*
X298571Y468905D01*
X298414Y468312D01*
X298244Y467723D01*
X298058Y467138D01*
X297859Y466558D01*
X297645Y465983D01*
X297417Y465413D01*
X297175Y464849D01*
X296920Y464291D01*
X296651Y463740D01*
X296368Y463195D01*
X296072Y462658D01*
X295763Y462127D01*
X295441Y461605D01*
X295107Y461091D01*
X294760Y460585D01*
X294400Y460088D01*
X294029Y459599D01*
X293645Y459120D01*
X293250Y458651D01*
X292844Y458191D01*
X292426Y457741D01*
X291998Y457302D01*
X291559Y456874D01*
X291109Y456456D01*
X290649Y456050D01*
X290180Y455655D01*
X289701Y455271D01*
X289212Y454900D01*
X288715Y454540D01*
X288209Y454193D01*
X287695Y453859D01*
X287173Y453537D01*
X286642Y453228D01*
X286105Y452932D01*
X285560Y452649D01*
X285009Y452380D01*
X284451Y452125D01*
X283887Y451883D01*
X283317Y451655D01*
X282742Y451441D01*
X282162Y451242D01*
X281577Y451056D01*
X280988Y450886D01*
X280395Y450729D01*
X279798Y450587D01*
X279197Y450460D01*
X278594Y450348D01*
X277988Y450251D01*
X277380Y450168D01*
X276770Y450100D01*
X276159Y450048D01*
X275547Y450010D01*
X274934Y449988D01*
X274320Y449980D01*
X273706Y449988D01*
X273093Y450010D01*
X272481Y450048D01*
X271870Y450100D01*
X271260Y450168D01*
X270652Y450251D01*
X270046Y450348D01*
X269443Y450460D01*
X268842Y450587D01*
X268245Y450729D01*
X267652Y450886D01*
X267063Y451056D01*
X266478Y451242D01*
X265898Y451441D01*
X265323Y451655D01*
X264753Y451883D01*
X264189Y452125D01*
X263631Y452380D01*
X263080Y452649D01*
X262535Y452932D01*
X261998Y453228D01*
X261467Y453537D01*
X260945Y453859D01*
X260431Y454193D01*
X259925Y454540D01*
X259428Y454900D01*
X258939Y455271D01*
X258460Y455655D01*
X257991Y456050D01*
X257531Y456456D01*
X257081Y456874D01*
X256642Y457302D01*
X256214Y457741D01*
X255796Y458191D01*
X255390Y458651D01*
X254995Y459120D01*
X254611Y459599D01*
X254240Y460088D01*
X253880Y460585D01*
X253533Y461091D01*
X253199Y461605D01*
X252877Y462127D01*
X252568Y462658D01*
X252272Y463195D01*
X251989Y463740D01*
X251720Y464291D01*
X251465Y464849D01*
X251223Y465413D01*
X250995Y465983D01*
X250781Y466558D01*
X250582Y467138D01*
X250396Y467723D01*
X250226Y468312D01*
X250069Y468905D01*
X249927Y469502D01*
X249800Y470103D01*
X249688Y470706D01*
X249591Y471312D01*
X249508Y471920D01*
X249440Y472530D01*
X249388Y473141D01*
X249350Y473753D01*
X249328Y474366D01*
X249320Y474980D01*
X260350Y467560D02*
X260350Y457400D01*
X260350Y482400D02*
X260350Y492560D01*
X255270Y487480D02*
X265430Y487480D01*
M02*
