G04 EAGLE Gerber RS-274X export*
G75*
%MOMM*%
%FSLAX34Y34*%
%LPD*%
%INSilkscreen Top*%
%IPPOS*%
%AMOC8*
5,1,8,0,0,1.08239X$1,22.5*%
G01*
%ADD10C,0.203200*%
%ADD11C,0.152400*%
%ADD12C,0.228600*%
%ADD13C,0.050800*%
%ADD14C,0.127000*%
%ADD15R,2.159000X0.508000*%
%ADD16R,15.250000X0.375000*%
%ADD17R,0.850000X0.812800*%


D10*
X13716Y71130D02*
X29308Y71130D01*
X562356Y55890D02*
X577948Y55890D01*
D11*
X565329Y133872D02*
X554482Y133872D01*
X565329Y133872D02*
X565329Y131160D01*
X554482Y120314D01*
X554482Y117602D01*
X570854Y123025D02*
X570854Y133872D01*
X570854Y123025D02*
X576277Y117602D01*
X581700Y123025D01*
X581700Y133872D01*
D12*
X82423Y133499D02*
X82423Y107823D01*
X99540Y107823D01*
X108150Y107823D02*
X108150Y133499D01*
X120988Y133499D01*
X125267Y129220D01*
X125267Y120661D01*
X120988Y116382D01*
X108150Y116382D01*
X116708Y116382D02*
X125267Y107823D01*
X133877Y112102D02*
X133877Y133499D01*
X133877Y112102D02*
X138156Y107823D01*
X146715Y107823D01*
X150994Y112102D01*
X150994Y133499D01*
X159603Y133499D02*
X159603Y107823D01*
X172441Y107823D01*
X176721Y112102D01*
X176721Y129220D01*
X172441Y133499D01*
X159603Y133499D01*
X185330Y133499D02*
X202447Y133499D01*
X185330Y133499D02*
X185330Y107823D01*
X202447Y107823D01*
X193889Y120661D02*
X185330Y120661D01*
X211057Y107823D02*
X211057Y133499D01*
X223895Y133499D01*
X228174Y129220D01*
X228174Y120661D01*
X223895Y116382D01*
X211057Y116382D01*
X249622Y133499D02*
X253901Y129220D01*
X249622Y133499D02*
X241063Y133499D01*
X236784Y129220D01*
X236784Y112102D01*
X241063Y107823D01*
X249622Y107823D01*
X253901Y112102D01*
X271069Y107823D02*
X271069Y133499D01*
X262510Y133499D02*
X279628Y133499D01*
X288237Y133499D02*
X305355Y133499D01*
X305355Y129220D01*
X288237Y112102D01*
X288237Y107823D01*
X313964Y133499D02*
X331081Y133499D01*
X313964Y133499D02*
X313964Y120661D01*
X322523Y124940D01*
X326802Y124940D01*
X331081Y120661D01*
X331081Y112102D01*
X326802Y107823D01*
X318243Y107823D01*
X313964Y112102D01*
X352529Y133499D02*
X356808Y129220D01*
X352529Y133499D02*
X343970Y133499D01*
X339691Y129220D01*
X339691Y112102D01*
X343970Y107823D01*
X352529Y107823D01*
X356808Y112102D01*
X356808Y120661D01*
X348249Y120661D01*
D11*
X26849Y177052D02*
X16002Y177052D01*
X16002Y168917D01*
X21425Y171629D01*
X24137Y171629D01*
X26849Y168917D01*
X26849Y163494D01*
X24137Y160782D01*
X18714Y160782D01*
X16002Y163494D01*
X32374Y166205D02*
X32374Y177052D01*
X32374Y166205D02*
X37797Y160782D01*
X43220Y166205D01*
X43220Y177052D01*
X440168Y48959D02*
X442880Y51671D01*
X440168Y48959D02*
X440168Y43536D01*
X442880Y40824D01*
X453726Y40824D01*
X456438Y43536D01*
X456438Y48959D01*
X453726Y51671D01*
X448303Y51671D01*
X448303Y46247D01*
X451015Y73567D02*
X440168Y73567D01*
X451015Y73567D02*
X456438Y78990D01*
X451015Y84414D01*
X440168Y84414D01*
X440168Y106310D02*
X456438Y106310D01*
X445591Y111734D02*
X440168Y106310D01*
X445591Y111734D02*
X440168Y117157D01*
X456438Y117157D01*
X825425Y691231D02*
X822460Y694197D01*
X816528Y694197D01*
X813562Y691231D01*
X813562Y679368D01*
X816528Y676402D01*
X822460Y676402D01*
X825425Y679368D01*
X825425Y685300D01*
X819494Y685300D01*
X831337Y694197D02*
X831337Y676402D01*
X843200Y676402D02*
X831337Y694197D01*
X843200Y694197D02*
X843200Y676402D01*
X849112Y676402D02*
X849112Y694197D01*
X849112Y676402D02*
X858009Y676402D01*
X860975Y679368D01*
X860975Y691231D01*
X858009Y694197D01*
X849112Y694197D01*
X833045Y640857D02*
X821182Y640857D01*
X821182Y631960D01*
X827114Y634925D01*
X830080Y634925D01*
X833045Y631960D01*
X833045Y626028D01*
X830080Y623062D01*
X824148Y623062D01*
X821182Y626028D01*
X838957Y628994D02*
X838957Y640857D01*
X838957Y628994D02*
X844889Y623062D01*
X850820Y628994D01*
X850820Y640857D01*
X564642Y711962D02*
X564642Y729757D01*
X564642Y720860D02*
X576505Y720860D01*
X576505Y729757D02*
X576505Y711962D01*
X594280Y726791D02*
X591314Y729757D01*
X585383Y729757D01*
X582417Y726791D01*
X582417Y714928D01*
X585383Y711962D01*
X591314Y711962D01*
X594280Y714928D01*
X600192Y720860D02*
X612055Y720860D01*
X617967Y714928D02*
X617967Y726791D01*
X620932Y729757D01*
X626864Y729757D01*
X629830Y726791D01*
X629830Y714928D01*
X626864Y711962D01*
X620932Y711962D01*
X617967Y714928D01*
X629830Y726791D01*
X641673Y726791D02*
X647605Y729757D01*
X641673Y726791D02*
X635741Y720860D01*
X635741Y714928D01*
X638707Y711962D01*
X644639Y711962D01*
X647605Y714928D01*
X647605Y717894D01*
X644639Y720860D01*
X635741Y720860D01*
X380925Y526557D02*
X369062Y526557D01*
X369062Y517660D01*
X374994Y520625D01*
X377960Y520625D01*
X380925Y517660D01*
X380925Y511728D01*
X377960Y508762D01*
X372028Y508762D01*
X369062Y511728D01*
X386837Y514694D02*
X386837Y526557D01*
X386837Y514694D02*
X392769Y508762D01*
X398700Y514694D01*
X398700Y526557D01*
X370340Y397017D02*
X373305Y394051D01*
X370340Y397017D02*
X364408Y397017D01*
X361442Y394051D01*
X361442Y382188D01*
X364408Y379222D01*
X370340Y379222D01*
X373305Y382188D01*
X373305Y388120D01*
X367374Y388120D01*
X379217Y397017D02*
X379217Y379222D01*
X391080Y379222D02*
X379217Y397017D01*
X391080Y397017D02*
X391080Y379222D01*
X396992Y379222D02*
X396992Y397017D01*
X396992Y379222D02*
X405889Y379222D01*
X408855Y382188D01*
X408855Y394051D01*
X405889Y397017D01*
X396992Y397017D01*
X234442Y440182D02*
X234442Y457977D01*
X234442Y440182D02*
X243340Y440182D01*
X246305Y443148D01*
X246305Y455011D01*
X243340Y457977D01*
X234442Y457977D01*
X261114Y457977D02*
X261114Y440182D01*
X252217Y449080D02*
X261114Y457977D01*
X264080Y449080D02*
X252217Y449080D01*
X241225Y424957D02*
X229362Y424957D01*
X229362Y416060D01*
X235294Y419025D01*
X238260Y419025D01*
X241225Y416060D01*
X241225Y410128D01*
X238260Y407162D01*
X232328Y407162D01*
X229362Y410128D01*
X247137Y413094D02*
X247137Y424957D01*
X247137Y413094D02*
X253069Y407162D01*
X259000Y413094D01*
X259000Y424957D01*
X220905Y399131D02*
X217940Y402097D01*
X212008Y402097D01*
X209042Y399131D01*
X209042Y387268D01*
X212008Y384302D01*
X217940Y384302D01*
X220905Y387268D01*
X220905Y393200D01*
X214974Y393200D01*
X226817Y402097D02*
X226817Y384302D01*
X238680Y384302D02*
X226817Y402097D01*
X238680Y402097D02*
X238680Y384302D01*
X244592Y384302D02*
X244592Y402097D01*
X244592Y384302D02*
X253489Y384302D01*
X256455Y387268D01*
X256455Y399131D01*
X253489Y402097D01*
X244592Y402097D01*
X59182Y440182D02*
X59182Y457977D01*
X68080Y457977D01*
X71045Y455011D01*
X71045Y449080D01*
X68080Y446114D01*
X59182Y446114D01*
X76957Y440182D02*
X82889Y440182D01*
X79923Y440182D02*
X79923Y457977D01*
X76957Y457977D02*
X82889Y457977D01*
X88807Y457977D02*
X100670Y440182D01*
X88807Y440182D02*
X100670Y457977D01*
X106582Y457977D02*
X118445Y457977D01*
X106582Y457977D02*
X106582Y440182D01*
X118445Y440182D01*
X112513Y449080D02*
X106582Y449080D01*
X124356Y457977D02*
X124356Y440182D01*
X136220Y440182D01*
X71045Y430037D02*
X59182Y430037D01*
X71045Y430037D02*
X71045Y427071D01*
X59182Y415208D01*
X59182Y412242D01*
X76957Y418174D02*
X76957Y430037D01*
X76957Y418174D02*
X82889Y412242D01*
X88820Y418174D01*
X88820Y430037D01*
X63000Y402097D02*
X65965Y399131D01*
X63000Y402097D02*
X57068Y402097D01*
X54102Y399131D01*
X54102Y387268D01*
X57068Y384302D01*
X63000Y384302D01*
X65965Y387268D01*
X65965Y393200D01*
X60034Y393200D01*
X71877Y402097D02*
X71877Y384302D01*
X83740Y384302D02*
X71877Y402097D01*
X83740Y402097D02*
X83740Y384302D01*
X89652Y384302D02*
X89652Y402097D01*
X89652Y384302D02*
X98549Y384302D01*
X101515Y387268D01*
X101515Y399131D01*
X98549Y402097D01*
X89652Y402097D01*
X20245Y559151D02*
X17280Y562117D01*
X11348Y562117D01*
X8382Y559151D01*
X8382Y547288D01*
X11348Y544322D01*
X17280Y544322D01*
X20245Y547288D01*
X20245Y553220D01*
X14314Y553220D01*
X26157Y562117D02*
X26157Y544322D01*
X38020Y544322D02*
X26157Y562117D01*
X38020Y562117D02*
X38020Y544322D01*
X43932Y544322D02*
X43932Y562117D01*
X43932Y544322D02*
X52829Y544322D01*
X55795Y547288D01*
X55795Y559151D01*
X52829Y562117D01*
X43932Y562117D01*
X136234Y562117D02*
X136234Y544322D01*
X130302Y562117D02*
X142165Y562117D01*
X148077Y556185D02*
X159940Y544322D01*
X148077Y544322D02*
X159940Y556185D01*
X219202Y524017D02*
X231065Y524017D01*
X219202Y524017D02*
X219202Y515120D01*
X225134Y518085D01*
X228100Y518085D01*
X231065Y515120D01*
X231065Y509188D01*
X228100Y506222D01*
X222168Y506222D01*
X219202Y509188D01*
X245874Y524017D02*
X248840Y521051D01*
X245874Y524017D02*
X239943Y524017D01*
X236977Y521051D01*
X236977Y509188D01*
X239943Y506222D01*
X245874Y506222D01*
X248840Y509188D01*
X248840Y515120D01*
X242909Y515120D01*
X254752Y524017D02*
X254752Y506222D01*
X263649Y506222D01*
X266615Y509188D01*
X266615Y521051D01*
X263649Y524017D01*
X254752Y524017D01*
D10*
X557276Y367304D02*
X557276Y343916D01*
X572868Y343916D01*
X580664Y343916D02*
X580664Y367304D01*
X592358Y367304D01*
X596256Y363406D01*
X596256Y355610D01*
X592358Y351712D01*
X580664Y351712D01*
X588460Y351712D02*
X596256Y343916D01*
X604052Y347814D02*
X604052Y367304D01*
X604052Y347814D02*
X607950Y343916D01*
X615746Y343916D01*
X619644Y347814D01*
X619644Y367304D01*
X627440Y367304D02*
X627440Y343916D01*
X639134Y343916D01*
X643032Y347814D01*
X643032Y363406D01*
X639134Y367304D01*
X627440Y367304D01*
X650828Y367304D02*
X666420Y367304D01*
X650828Y367304D02*
X650828Y343916D01*
X666420Y343916D01*
X658624Y355610D02*
X650828Y355610D01*
X674216Y343916D02*
X674216Y367304D01*
X685910Y367304D01*
X689808Y363406D01*
X689808Y355610D01*
X685910Y351712D01*
X674216Y351712D01*
X709298Y367304D02*
X713196Y363406D01*
X709298Y367304D02*
X701502Y367304D01*
X697604Y363406D01*
X697604Y347814D01*
X701502Y343916D01*
X709298Y343916D01*
X713196Y347814D01*
X728788Y343916D02*
X728788Y367304D01*
X720992Y367304D02*
X736584Y367304D01*
X767768Y367304D02*
X783360Y367304D01*
X783360Y363406D01*
X767768Y347814D01*
X767768Y343916D01*
X814544Y367304D02*
X830136Y367304D01*
X814544Y367304D02*
X814544Y355610D01*
X822340Y359508D01*
X826238Y359508D01*
X830136Y355610D01*
X830136Y347814D01*
X826238Y343916D01*
X818442Y343916D01*
X814544Y347814D01*
X849626Y367304D02*
X853524Y363406D01*
X849626Y367304D02*
X841830Y367304D01*
X837932Y363406D01*
X837932Y347814D01*
X841830Y343916D01*
X849626Y343916D01*
X853524Y347814D01*
X853524Y355610D01*
X845728Y355610D01*
D11*
X436805Y394051D02*
X433840Y397017D01*
X427908Y397017D01*
X424942Y394051D01*
X424942Y382188D01*
X427908Y379222D01*
X433840Y379222D01*
X436805Y382188D01*
X436805Y388120D01*
X430874Y388120D01*
X442717Y397017D02*
X442717Y379222D01*
X454580Y379222D02*
X442717Y397017D01*
X454580Y397017D02*
X454580Y379222D01*
X460492Y379222D02*
X460492Y397017D01*
X460492Y379222D02*
X469389Y379222D01*
X472355Y382188D01*
X472355Y394051D01*
X469389Y397017D01*
X460492Y397017D01*
X429185Y529097D02*
X417322Y529097D01*
X429185Y529097D02*
X429185Y526131D01*
X417322Y514268D01*
X417322Y511302D01*
X435097Y511302D02*
X435097Y514268D01*
X438063Y514268D01*
X438063Y511302D01*
X435097Y511302D01*
X452882Y511302D02*
X452882Y529097D01*
X443984Y520200D01*
X455848Y520200D01*
X461759Y517234D02*
X461759Y529097D01*
X461759Y517234D02*
X467691Y511302D01*
X473623Y517234D01*
X473623Y529097D01*
X72734Y511317D02*
X66802Y505385D01*
X72734Y511317D02*
X72734Y493522D01*
X78665Y493522D02*
X66802Y493522D01*
X84577Y493522D02*
X84577Y511317D01*
X84577Y499454D02*
X96440Y511317D01*
X87543Y502420D02*
X96440Y493522D01*
X178562Y579882D02*
X190425Y579882D01*
X178562Y579882D02*
X190425Y591745D01*
X190425Y594711D01*
X187460Y597677D01*
X181528Y597677D01*
X178562Y594711D01*
X196337Y594711D02*
X196337Y582848D01*
X196337Y594711D02*
X199303Y597677D01*
X205234Y597677D01*
X208200Y594711D01*
X208200Y582848D01*
X205234Y579882D01*
X199303Y579882D01*
X196337Y582848D01*
X208200Y594711D01*
X214112Y594711D02*
X214112Y582848D01*
X214112Y594711D02*
X217078Y597677D01*
X223009Y597677D01*
X225975Y594711D01*
X225975Y582848D01*
X223009Y579882D01*
X217078Y579882D01*
X214112Y582848D01*
X225975Y594711D01*
X803402Y373305D02*
X809334Y379237D01*
X809334Y361442D01*
X815265Y361442D02*
X803402Y361442D01*
X821177Y361442D02*
X821177Y379237D01*
X821177Y367374D02*
X833040Y379237D01*
X824143Y370340D02*
X833040Y361442D01*
X715364Y161813D02*
X709432Y155881D01*
X715364Y161813D02*
X715364Y144018D01*
X709432Y144018D02*
X721296Y144018D01*
X727207Y144018D02*
X727207Y161813D01*
X727207Y149950D02*
X739071Y161813D01*
X730173Y152916D02*
X739071Y144018D01*
X583095Y139884D02*
X572248Y139884D01*
X583095Y139884D02*
X588518Y145307D01*
X583095Y150731D01*
X572248Y150731D01*
X572248Y180762D02*
X574960Y183474D01*
X572248Y180762D02*
X572248Y175339D01*
X574960Y172627D01*
X585806Y172627D01*
X588518Y175339D01*
X588518Y180762D01*
X585806Y183474D01*
X580383Y183474D01*
X580383Y178050D01*
X588518Y205370D02*
X572248Y205370D01*
X572248Y213505D01*
X574960Y216217D01*
X580383Y216217D01*
X583095Y213505D01*
X583095Y205370D01*
X583095Y210794D02*
X588518Y216217D01*
X809775Y62753D02*
X812741Y59787D01*
X809775Y62753D02*
X803843Y62753D01*
X800877Y59787D01*
X800877Y47924D01*
X803843Y44958D01*
X809775Y44958D01*
X812741Y47924D01*
X812741Y53856D01*
X806809Y53856D01*
X818652Y62753D02*
X818652Y44958D01*
X830516Y44958D02*
X818652Y62753D01*
X830516Y62753D02*
X830516Y44958D01*
X836427Y44958D02*
X836427Y62753D01*
X836427Y44958D02*
X845325Y44958D01*
X848291Y47924D01*
X848291Y59787D01*
X845325Y62753D01*
X836427Y62753D01*
X880467Y50038D02*
X886399Y50038D01*
X883433Y50038D02*
X883433Y67833D01*
X880467Y67833D02*
X886399Y67833D01*
X892317Y67833D02*
X892317Y50038D01*
X892317Y67833D02*
X901215Y67833D01*
X904181Y64867D01*
X904181Y58936D01*
X901215Y55970D01*
X892317Y55970D01*
X898249Y55970D02*
X904181Y50038D01*
X916024Y50038D02*
X916024Y67833D01*
X910092Y67833D02*
X921956Y67833D01*
X927867Y67833D02*
X939731Y50038D01*
X927867Y50038D02*
X939731Y67833D01*
X718776Y204978D02*
X706913Y204978D01*
X718776Y216841D01*
X718776Y219807D01*
X715810Y222773D01*
X709879Y222773D01*
X706913Y219807D01*
X724688Y219807D02*
X724688Y207944D01*
X724688Y219807D02*
X727653Y222773D01*
X733585Y222773D01*
X736551Y219807D01*
X736551Y207944D01*
X733585Y204978D01*
X727653Y204978D01*
X724688Y207944D01*
X736551Y219807D01*
X742462Y219807D02*
X742462Y207944D01*
X742462Y219807D02*
X745428Y222773D01*
X751360Y222773D01*
X754326Y219807D01*
X754326Y207944D01*
X751360Y204978D01*
X745428Y204978D01*
X742462Y207944D01*
X754326Y219807D01*
X763203Y204978D02*
X769135Y204978D01*
X772101Y207944D01*
X772101Y213876D01*
X769135Y216841D01*
X763203Y216841D01*
X760237Y213876D01*
X760237Y207944D01*
X763203Y204978D01*
X778012Y204978D02*
X778012Y222773D01*
X780978Y216841D02*
X778012Y213876D01*
X780978Y216841D02*
X786910Y216841D01*
X789876Y213876D01*
X789876Y204978D01*
X795787Y204978D02*
X795787Y216841D01*
X798753Y216841D01*
X801719Y213876D01*
X801719Y204978D01*
X801719Y213876D02*
X804685Y216841D01*
X807650Y213876D01*
X807650Y204978D01*
X854228Y221496D02*
X866091Y221496D01*
X860159Y227427D02*
X860159Y215564D01*
X889777Y221496D02*
X901641Y221496D01*
X925327Y230393D02*
X925327Y212598D01*
X934225Y212598D01*
X937191Y215564D01*
X937191Y227427D01*
X934225Y230393D01*
X925327Y230393D01*
X486589Y151652D02*
X475742Y151652D01*
X475742Y143517D01*
X481165Y146229D01*
X483877Y146229D01*
X486589Y143517D01*
X486589Y138094D01*
X483877Y135382D01*
X478454Y135382D01*
X475742Y138094D01*
X513908Y148940D02*
X519332Y151652D01*
X513908Y148940D02*
X508485Y143517D01*
X508485Y138094D01*
X511197Y135382D01*
X516620Y135382D01*
X519332Y138094D01*
X519332Y140805D01*
X516620Y143517D01*
X508485Y143517D01*
X407849Y227852D02*
X397002Y227852D01*
X407849Y227852D02*
X407849Y225140D01*
X397002Y214294D01*
X397002Y211582D01*
X413374Y222429D02*
X418797Y211582D01*
X424220Y222429D01*
X454252Y227852D02*
X456963Y225140D01*
X454252Y227852D02*
X448828Y227852D01*
X446117Y225140D01*
X446117Y214294D01*
X448828Y211582D01*
X454252Y211582D01*
X456963Y214294D01*
X456963Y219717D01*
X451540Y219717D01*
X478860Y227852D02*
X478860Y211582D01*
X486995Y211582D01*
X489706Y214294D01*
X489706Y225140D01*
X486995Y227852D01*
X478860Y227852D01*
X495231Y211582D02*
X506078Y211582D01*
X495231Y211582D02*
X506078Y222429D01*
X506078Y225140D01*
X503366Y227852D01*
X497943Y227852D01*
X495231Y225140D01*
D10*
X135636Y225894D02*
X135636Y245384D01*
X135636Y225894D02*
X139534Y221996D01*
X147330Y221996D01*
X151228Y225894D01*
X151228Y245384D01*
X159024Y245384D02*
X159024Y221996D01*
X170718Y221996D01*
X174616Y225894D01*
X174616Y241486D01*
X170718Y245384D01*
X159024Y245384D01*
X194106Y245384D02*
X198004Y241486D01*
X194106Y245384D02*
X186310Y245384D01*
X182412Y241486D01*
X182412Y225894D01*
X186310Y221996D01*
X194106Y221996D01*
X198004Y225894D01*
X198004Y233690D01*
X190208Y233690D01*
X205800Y245384D02*
X221392Y245384D01*
X205800Y245384D02*
X205800Y233690D01*
X213596Y237588D01*
X217494Y237588D01*
X221392Y233690D01*
X221392Y225894D01*
X217494Y221996D01*
X209698Y221996D01*
X205800Y225894D01*
X229188Y221996D02*
X229188Y245384D01*
X240882Y245384D01*
X244780Y241486D01*
X244780Y233690D01*
X240882Y229792D01*
X229188Y229792D01*
X236984Y229792D02*
X244780Y221996D01*
X252576Y221996D02*
X252576Y245384D01*
X252576Y221996D02*
X268168Y221996D01*
X285750Y170180D02*
X298450Y170180D01*
X285750Y170180D02*
X279400Y176530D01*
X279400Y189230D02*
X285750Y195580D01*
X323850Y170180D02*
X330200Y176530D01*
X323850Y170180D02*
X311150Y170180D01*
X304800Y176530D01*
X304800Y189230D02*
X311150Y195580D01*
X323850Y195580D01*
X330200Y189230D01*
X304800Y176530D02*
X298450Y170180D01*
X304800Y189230D02*
X298450Y195580D01*
X285750Y195580D01*
X361950Y170180D02*
X374650Y170180D01*
X361950Y170180D02*
X355600Y176530D01*
X355600Y189230D02*
X361950Y195580D01*
X355600Y176530D02*
X349250Y170180D01*
X336550Y170180D01*
X330200Y176530D01*
X330200Y189230D02*
X336550Y195580D01*
X349250Y195580D01*
X355600Y189230D01*
X400050Y170180D02*
X406400Y176530D01*
X400050Y170180D02*
X387350Y170180D01*
X381000Y176530D01*
X381000Y189230D02*
X387350Y195580D01*
X400050Y195580D01*
X406400Y189230D01*
X381000Y176530D02*
X374650Y170180D01*
X381000Y189230D02*
X374650Y195580D01*
X361950Y195580D01*
X438150Y170180D02*
X450850Y170180D01*
X438150Y170180D02*
X431800Y176530D01*
X431800Y189230D02*
X438150Y195580D01*
X431800Y176530D02*
X425450Y170180D01*
X412750Y170180D01*
X406400Y176530D01*
X406400Y189230D02*
X412750Y195580D01*
X425450Y195580D01*
X431800Y189230D01*
X457200Y189230D02*
X457200Y176530D01*
X450850Y170180D01*
X457200Y189230D02*
X450850Y195580D01*
X438150Y195580D01*
X120650Y170180D02*
X107950Y170180D01*
X101600Y176530D01*
X101600Y189230D02*
X107950Y195580D01*
X146050Y170180D02*
X152400Y176530D01*
X146050Y170180D02*
X133350Y170180D01*
X127000Y176530D01*
X127000Y189230D02*
X133350Y195580D01*
X146050Y195580D01*
X152400Y189230D01*
X127000Y176530D02*
X120650Y170180D01*
X127000Y189230D02*
X120650Y195580D01*
X107950Y195580D01*
X184150Y170180D02*
X196850Y170180D01*
X184150Y170180D02*
X177800Y176530D01*
X177800Y189230D02*
X184150Y195580D01*
X177800Y176530D02*
X171450Y170180D01*
X158750Y170180D01*
X152400Y176530D01*
X152400Y189230D02*
X158750Y195580D01*
X171450Y195580D01*
X177800Y189230D01*
X222250Y170180D02*
X228600Y176530D01*
X222250Y170180D02*
X209550Y170180D01*
X203200Y176530D01*
X203200Y189230D02*
X209550Y195580D01*
X222250Y195580D01*
X228600Y189230D01*
X203200Y176530D02*
X196850Y170180D01*
X203200Y189230D02*
X196850Y195580D01*
X184150Y195580D01*
X260350Y170180D02*
X273050Y170180D01*
X260350Y170180D02*
X254000Y176530D01*
X254000Y189230D02*
X260350Y195580D01*
X254000Y176530D02*
X247650Y170180D01*
X234950Y170180D01*
X228600Y176530D01*
X228600Y189230D02*
X234950Y195580D01*
X247650Y195580D01*
X254000Y189230D01*
X273050Y170180D02*
X279400Y176530D01*
X279400Y189230D02*
X273050Y195580D01*
X260350Y195580D01*
X101600Y176530D02*
X95250Y170180D01*
X82550Y170180D01*
X76200Y176530D01*
X76200Y189230D01*
X82550Y195580D01*
X95250Y195580D01*
X101600Y189230D01*
X234950Y43180D02*
X247650Y43180D01*
X254000Y36830D01*
X254000Y24130D02*
X247650Y17780D01*
X209550Y43180D02*
X203200Y36830D01*
X209550Y43180D02*
X222250Y43180D01*
X228600Y36830D01*
X228600Y24130D02*
X222250Y17780D01*
X209550Y17780D01*
X203200Y24130D01*
X228600Y36830D02*
X234950Y43180D01*
X228600Y24130D02*
X234950Y17780D01*
X247650Y17780D01*
X171450Y43180D02*
X158750Y43180D01*
X171450Y43180D02*
X177800Y36830D01*
X177800Y24130D02*
X171450Y17780D01*
X177800Y36830D02*
X184150Y43180D01*
X196850Y43180D01*
X203200Y36830D01*
X203200Y24130D02*
X196850Y17780D01*
X184150Y17780D01*
X177800Y24130D01*
X133350Y43180D02*
X127000Y36830D01*
X133350Y43180D02*
X146050Y43180D01*
X152400Y36830D01*
X152400Y24130D02*
X146050Y17780D01*
X133350Y17780D01*
X127000Y24130D01*
X152400Y36830D02*
X158750Y43180D01*
X152400Y24130D02*
X158750Y17780D01*
X171450Y17780D01*
X95250Y43180D02*
X82550Y43180D01*
X95250Y43180D02*
X101600Y36830D01*
X101600Y24130D02*
X95250Y17780D01*
X101600Y36830D02*
X107950Y43180D01*
X120650Y43180D01*
X127000Y36830D01*
X127000Y24130D02*
X120650Y17780D01*
X107950Y17780D01*
X101600Y24130D01*
X76200Y24130D02*
X76200Y36830D01*
X82550Y43180D01*
X76200Y24130D02*
X82550Y17780D01*
X95250Y17780D01*
X412750Y43180D02*
X425450Y43180D01*
X431800Y36830D01*
X431800Y24130D02*
X425450Y17780D01*
X387350Y43180D02*
X381000Y36830D01*
X387350Y43180D02*
X400050Y43180D01*
X406400Y36830D01*
X406400Y24130D02*
X400050Y17780D01*
X387350Y17780D01*
X381000Y24130D01*
X406400Y36830D02*
X412750Y43180D01*
X406400Y24130D02*
X412750Y17780D01*
X425450Y17780D01*
X349250Y43180D02*
X336550Y43180D01*
X349250Y43180D02*
X355600Y36830D01*
X355600Y24130D02*
X349250Y17780D01*
X355600Y36830D02*
X361950Y43180D01*
X374650Y43180D01*
X381000Y36830D01*
X381000Y24130D02*
X374650Y17780D01*
X361950Y17780D01*
X355600Y24130D01*
X311150Y43180D02*
X304800Y36830D01*
X311150Y43180D02*
X323850Y43180D01*
X330200Y36830D01*
X330200Y24130D02*
X323850Y17780D01*
X311150Y17780D01*
X304800Y24130D01*
X330200Y36830D02*
X336550Y43180D01*
X330200Y24130D02*
X336550Y17780D01*
X349250Y17780D01*
X273050Y43180D02*
X260350Y43180D01*
X273050Y43180D02*
X279400Y36830D01*
X279400Y24130D02*
X273050Y17780D01*
X279400Y36830D02*
X285750Y43180D01*
X298450Y43180D01*
X304800Y36830D01*
X304800Y24130D02*
X298450Y17780D01*
X285750Y17780D01*
X279400Y24130D01*
X260350Y43180D02*
X254000Y36830D01*
X254000Y24130D02*
X260350Y17780D01*
X273050Y17780D01*
X431800Y36830D02*
X438150Y43180D01*
X450850Y43180D01*
X457200Y36830D01*
X457200Y24130D01*
X450850Y17780D01*
X438150Y17780D01*
X431800Y24130D01*
X561340Y158750D02*
X561340Y171450D01*
X561340Y158750D02*
X554990Y152400D01*
X542290Y152400D02*
X535940Y158750D01*
X561340Y196850D02*
X554990Y203200D01*
X561340Y196850D02*
X561340Y184150D01*
X554990Y177800D01*
X542290Y177800D02*
X535940Y184150D01*
X535940Y196850D01*
X542290Y203200D01*
X554990Y177800D02*
X561340Y171450D01*
X542290Y177800D02*
X535940Y171450D01*
X535940Y158750D01*
X561340Y234950D02*
X561340Y247650D01*
X561340Y234950D02*
X554990Y228600D01*
X542290Y228600D02*
X535940Y234950D01*
X554990Y228600D02*
X561340Y222250D01*
X561340Y209550D01*
X554990Y203200D01*
X542290Y203200D02*
X535940Y209550D01*
X535940Y222250D01*
X542290Y228600D01*
X542290Y254000D02*
X554990Y254000D01*
X561340Y247650D01*
X542290Y254000D02*
X535940Y247650D01*
X535940Y234950D01*
X542290Y152400D02*
X554990Y152400D01*
X572770Y101600D02*
X579120Y95250D01*
X572770Y101600D02*
X560070Y101600D01*
X553720Y95250D01*
X553720Y82550D01*
X560070Y76200D01*
X572770Y76200D01*
X579120Y82550D01*
X579120Y95250D01*
X572770Y45720D02*
X579120Y39370D01*
X572770Y45720D02*
X560070Y45720D01*
X553720Y39370D01*
X553720Y26670D01*
X560070Y20320D01*
X572770Y20320D01*
X579120Y26670D01*
X579120Y39370D01*
X33020Y146050D02*
X26670Y152400D01*
X13970Y152400D01*
X7620Y146050D01*
X7620Y133350D01*
X13970Y127000D01*
X26670Y127000D01*
X33020Y133350D01*
X33020Y146050D01*
X26670Y101600D02*
X33020Y95250D01*
X26670Y101600D02*
X13970Y101600D01*
X7620Y95250D01*
X7620Y82550D01*
X13970Y76200D01*
X26670Y76200D01*
X33020Y82550D01*
X33020Y95250D01*
X577850Y673100D02*
X590550Y673100D01*
X596900Y666750D01*
X596900Y654050D02*
X590550Y647700D01*
X552450Y673100D02*
X546100Y666750D01*
X552450Y673100D02*
X565150Y673100D01*
X571500Y666750D01*
X571500Y654050D02*
X565150Y647700D01*
X552450Y647700D01*
X546100Y654050D01*
X571500Y666750D02*
X577850Y673100D01*
X571500Y654050D02*
X577850Y647700D01*
X590550Y647700D01*
X514350Y673100D02*
X501650Y673100D01*
X514350Y673100D02*
X520700Y666750D01*
X520700Y654050D02*
X514350Y647700D01*
X520700Y666750D02*
X527050Y673100D01*
X539750Y673100D01*
X546100Y666750D01*
X546100Y654050D02*
X539750Y647700D01*
X527050Y647700D01*
X520700Y654050D01*
X476250Y673100D02*
X469900Y666750D01*
X476250Y673100D02*
X488950Y673100D01*
X495300Y666750D01*
X495300Y654050D02*
X488950Y647700D01*
X476250Y647700D01*
X469900Y654050D01*
X495300Y666750D02*
X501650Y673100D01*
X495300Y654050D02*
X501650Y647700D01*
X514350Y647700D01*
X438150Y673100D02*
X425450Y673100D01*
X438150Y673100D02*
X444500Y666750D01*
X444500Y654050D02*
X438150Y647700D01*
X444500Y666750D02*
X450850Y673100D01*
X463550Y673100D01*
X469900Y666750D01*
X469900Y654050D02*
X463550Y647700D01*
X450850Y647700D01*
X444500Y654050D01*
X419100Y654050D02*
X419100Y666750D01*
X425450Y673100D01*
X419100Y654050D02*
X425450Y647700D01*
X438150Y647700D01*
X755650Y673100D02*
X768350Y673100D01*
X774700Y666750D01*
X774700Y654050D02*
X768350Y647700D01*
X730250Y673100D02*
X723900Y666750D01*
X730250Y673100D02*
X742950Y673100D01*
X749300Y666750D01*
X749300Y654050D02*
X742950Y647700D01*
X730250Y647700D01*
X723900Y654050D01*
X749300Y666750D02*
X755650Y673100D01*
X749300Y654050D02*
X755650Y647700D01*
X768350Y647700D01*
X692150Y673100D02*
X679450Y673100D01*
X692150Y673100D02*
X698500Y666750D01*
X698500Y654050D02*
X692150Y647700D01*
X698500Y666750D02*
X704850Y673100D01*
X717550Y673100D01*
X723900Y666750D01*
X723900Y654050D02*
X717550Y647700D01*
X704850Y647700D01*
X698500Y654050D01*
X654050Y673100D02*
X647700Y666750D01*
X654050Y673100D02*
X666750Y673100D01*
X673100Y666750D01*
X673100Y654050D02*
X666750Y647700D01*
X654050Y647700D01*
X647700Y654050D01*
X673100Y666750D02*
X679450Y673100D01*
X673100Y654050D02*
X679450Y647700D01*
X692150Y647700D01*
X615950Y673100D02*
X603250Y673100D01*
X615950Y673100D02*
X622300Y666750D01*
X622300Y654050D02*
X615950Y647700D01*
X622300Y666750D02*
X628650Y673100D01*
X641350Y673100D01*
X647700Y666750D01*
X647700Y654050D02*
X641350Y647700D01*
X628650Y647700D01*
X622300Y654050D01*
X603250Y673100D02*
X596900Y666750D01*
X596900Y654050D02*
X603250Y647700D01*
X615950Y647700D01*
X774700Y666750D02*
X781050Y673100D01*
X793750Y673100D01*
X800100Y666750D01*
X800100Y654050D01*
X793750Y647700D01*
X781050Y647700D01*
X774700Y654050D01*
X641350Y800100D02*
X628650Y800100D01*
X622300Y806450D01*
X622300Y819150D02*
X628650Y825500D01*
X666750Y800100D02*
X673100Y806450D01*
X666750Y800100D02*
X654050Y800100D01*
X647700Y806450D01*
X647700Y819150D02*
X654050Y825500D01*
X666750Y825500D01*
X673100Y819150D01*
X647700Y806450D02*
X641350Y800100D01*
X647700Y819150D02*
X641350Y825500D01*
X628650Y825500D01*
X704850Y800100D02*
X717550Y800100D01*
X704850Y800100D02*
X698500Y806450D01*
X698500Y819150D02*
X704850Y825500D01*
X698500Y806450D02*
X692150Y800100D01*
X679450Y800100D01*
X673100Y806450D01*
X673100Y819150D02*
X679450Y825500D01*
X692150Y825500D01*
X698500Y819150D01*
X742950Y800100D02*
X749300Y806450D01*
X742950Y800100D02*
X730250Y800100D01*
X723900Y806450D01*
X723900Y819150D02*
X730250Y825500D01*
X742950Y825500D01*
X749300Y819150D01*
X723900Y806450D02*
X717550Y800100D01*
X723900Y819150D02*
X717550Y825500D01*
X704850Y825500D01*
X781050Y800100D02*
X793750Y800100D01*
X781050Y800100D02*
X774700Y806450D01*
X774700Y819150D02*
X781050Y825500D01*
X774700Y806450D02*
X768350Y800100D01*
X755650Y800100D01*
X749300Y806450D01*
X749300Y819150D02*
X755650Y825500D01*
X768350Y825500D01*
X774700Y819150D01*
X800100Y819150D02*
X800100Y806450D01*
X793750Y800100D01*
X800100Y819150D02*
X793750Y825500D01*
X781050Y825500D01*
X463550Y800100D02*
X450850Y800100D01*
X444500Y806450D01*
X444500Y819150D02*
X450850Y825500D01*
X488950Y800100D02*
X495300Y806450D01*
X488950Y800100D02*
X476250Y800100D01*
X469900Y806450D01*
X469900Y819150D02*
X476250Y825500D01*
X488950Y825500D01*
X495300Y819150D01*
X469900Y806450D02*
X463550Y800100D01*
X469900Y819150D02*
X463550Y825500D01*
X450850Y825500D01*
X527050Y800100D02*
X539750Y800100D01*
X527050Y800100D02*
X520700Y806450D01*
X520700Y819150D02*
X527050Y825500D01*
X520700Y806450D02*
X514350Y800100D01*
X501650Y800100D01*
X495300Y806450D01*
X495300Y819150D02*
X501650Y825500D01*
X514350Y825500D01*
X520700Y819150D01*
X565150Y800100D02*
X571500Y806450D01*
X565150Y800100D02*
X552450Y800100D01*
X546100Y806450D01*
X546100Y819150D02*
X552450Y825500D01*
X565150Y825500D01*
X571500Y819150D01*
X546100Y806450D02*
X539750Y800100D01*
X546100Y819150D02*
X539750Y825500D01*
X527050Y825500D01*
X603250Y800100D02*
X615950Y800100D01*
X603250Y800100D02*
X596900Y806450D01*
X596900Y819150D02*
X603250Y825500D01*
X596900Y806450D02*
X590550Y800100D01*
X577850Y800100D01*
X571500Y806450D01*
X571500Y819150D02*
X577850Y825500D01*
X590550Y825500D01*
X596900Y819150D01*
X615950Y800100D02*
X622300Y806450D01*
X622300Y819150D02*
X615950Y825500D01*
X603250Y825500D01*
X444500Y806450D02*
X438150Y800100D01*
X425450Y800100D01*
X419100Y806450D01*
X419100Y819150D01*
X425450Y825500D01*
X438150Y825500D01*
X444500Y819150D01*
X527050Y622300D02*
X539750Y622300D01*
X546100Y615950D01*
X546100Y603250D02*
X539750Y596900D01*
X546100Y615950D02*
X552450Y622300D01*
X565150Y622300D01*
X571500Y615950D01*
X571500Y603250D02*
X565150Y596900D01*
X552450Y596900D01*
X546100Y603250D01*
X501650Y622300D02*
X495300Y615950D01*
X501650Y622300D02*
X514350Y622300D01*
X520700Y615950D01*
X520700Y603250D02*
X514350Y596900D01*
X501650Y596900D01*
X495300Y603250D01*
X520700Y615950D02*
X527050Y622300D01*
X520700Y603250D02*
X527050Y596900D01*
X539750Y596900D01*
X463550Y622300D02*
X450850Y622300D01*
X463550Y622300D02*
X469900Y615950D01*
X469900Y603250D02*
X463550Y596900D01*
X469900Y615950D02*
X476250Y622300D01*
X488950Y622300D01*
X495300Y615950D01*
X495300Y603250D02*
X488950Y596900D01*
X476250Y596900D01*
X469900Y603250D01*
X444500Y603250D02*
X444500Y615950D01*
X450850Y622300D01*
X444500Y603250D02*
X450850Y596900D01*
X463550Y596900D01*
X571500Y603250D02*
X571500Y615950D01*
X730250Y622300D02*
X742950Y622300D01*
X749300Y615950D01*
X749300Y603250D02*
X742950Y596900D01*
X749300Y615950D02*
X755650Y622300D01*
X768350Y622300D01*
X774700Y615950D01*
X774700Y603250D02*
X768350Y596900D01*
X755650Y596900D01*
X749300Y603250D01*
X704850Y622300D02*
X698500Y615950D01*
X704850Y622300D02*
X717550Y622300D01*
X723900Y615950D01*
X723900Y603250D02*
X717550Y596900D01*
X704850Y596900D01*
X698500Y603250D01*
X723900Y615950D02*
X730250Y622300D01*
X723900Y603250D02*
X730250Y596900D01*
X742950Y596900D01*
X666750Y622300D02*
X654050Y622300D01*
X666750Y622300D02*
X673100Y615950D01*
X673100Y603250D02*
X666750Y596900D01*
X673100Y615950D02*
X679450Y622300D01*
X692150Y622300D01*
X698500Y615950D01*
X698500Y603250D02*
X692150Y596900D01*
X679450Y596900D01*
X673100Y603250D01*
X647700Y603250D02*
X647700Y615950D01*
X654050Y622300D01*
X647700Y603250D02*
X654050Y596900D01*
X666750Y596900D01*
X774700Y603250D02*
X774700Y615950D01*
D11*
X336550Y755650D02*
X298450Y755650D01*
X298450Y793750D01*
X336550Y793750D01*
X336550Y755650D01*
D13*
X334010Y758190D02*
X300990Y758190D01*
X300990Y791210D01*
X334010Y791210D01*
X334010Y758190D01*
D11*
X327660Y713740D02*
X327660Y709930D01*
X327660Y713740D02*
X307340Y713740D01*
X307340Y709930D02*
X327660Y709930D01*
X307340Y709930D02*
X307340Y713740D01*
X266700Y713740D02*
X256540Y723900D01*
X266700Y713740D02*
X299720Y713740D01*
X256540Y723900D02*
X256540Y736600D01*
X256540Y763270D02*
X256540Y786130D01*
X256540Y825500D02*
X266700Y835660D01*
X256540Y825500D02*
X256540Y812800D01*
X378460Y786130D02*
X378460Y763270D01*
X378460Y812800D02*
X378460Y825500D01*
X368300Y835660D01*
X335280Y835660D01*
X335280Y713740D02*
X368300Y713740D01*
X378460Y723900D01*
X378460Y736600D01*
X327660Y839470D02*
X307340Y839470D01*
X327660Y839470D02*
X327660Y835660D01*
X307340Y835660D02*
X307340Y839470D01*
X266700Y713740D02*
X269240Y711200D01*
X299720Y711200D01*
X299720Y713740D01*
X307340Y713740D01*
X335280Y713740D02*
X335280Y711200D01*
X335280Y713740D02*
X327660Y713740D01*
X335280Y711200D02*
X365760Y711200D01*
X368300Y713740D01*
X327660Y835660D02*
X307340Y835660D01*
X299720Y835660D01*
X335280Y835660D02*
X335280Y838200D01*
X335280Y835660D02*
X327660Y835660D01*
X335280Y838200D02*
X365760Y838200D01*
X368300Y835660D01*
X299720Y835660D02*
X299720Y838200D01*
X299720Y835660D02*
X266700Y835660D01*
X269240Y838200D02*
X299720Y838200D01*
X269240Y838200D02*
X266700Y835660D01*
X281940Y774700D02*
X281951Y775573D01*
X281983Y776445D01*
X282036Y777316D01*
X282111Y778185D01*
X282207Y779053D01*
X282325Y779918D01*
X282464Y780779D01*
X282623Y781637D01*
X282804Y782491D01*
X283006Y783340D01*
X283228Y784184D01*
X283471Y785023D01*
X283735Y785855D01*
X284019Y786680D01*
X284323Y787498D01*
X284647Y788308D01*
X284991Y789110D01*
X285354Y789904D01*
X285737Y790688D01*
X286139Y791463D01*
X286560Y792227D01*
X286999Y792981D01*
X287457Y793725D01*
X287933Y794456D01*
X288427Y795176D01*
X288938Y795883D01*
X289466Y796578D01*
X290012Y797259D01*
X290574Y797927D01*
X291152Y798581D01*
X291746Y799220D01*
X292355Y799845D01*
X292980Y800454D01*
X293619Y801048D01*
X294273Y801626D01*
X294941Y802188D01*
X295622Y802734D01*
X296317Y803262D01*
X297024Y803773D01*
X297744Y804267D01*
X298475Y804743D01*
X299219Y805201D01*
X299973Y805640D01*
X300737Y806061D01*
X301512Y806463D01*
X302296Y806846D01*
X303090Y807209D01*
X303892Y807553D01*
X304702Y807877D01*
X305520Y808181D01*
X306345Y808465D01*
X307177Y808729D01*
X308016Y808972D01*
X308860Y809194D01*
X309709Y809396D01*
X310563Y809577D01*
X311421Y809736D01*
X312282Y809875D01*
X313147Y809993D01*
X314015Y810089D01*
X314884Y810164D01*
X315755Y810217D01*
X316627Y810249D01*
X317500Y810260D01*
X318373Y810249D01*
X319245Y810217D01*
X320116Y810164D01*
X320985Y810089D01*
X321853Y809993D01*
X322718Y809875D01*
X323579Y809736D01*
X324437Y809577D01*
X325291Y809396D01*
X326140Y809194D01*
X326984Y808972D01*
X327823Y808729D01*
X328655Y808465D01*
X329480Y808181D01*
X330298Y807877D01*
X331108Y807553D01*
X331910Y807209D01*
X332704Y806846D01*
X333488Y806463D01*
X334263Y806061D01*
X335027Y805640D01*
X335781Y805201D01*
X336525Y804743D01*
X337256Y804267D01*
X337976Y803773D01*
X338683Y803262D01*
X339378Y802734D01*
X340059Y802188D01*
X340727Y801626D01*
X341381Y801048D01*
X342020Y800454D01*
X342645Y799845D01*
X343254Y799220D01*
X343848Y798581D01*
X344426Y797927D01*
X344988Y797259D01*
X345534Y796578D01*
X346062Y795883D01*
X346573Y795176D01*
X347067Y794456D01*
X347543Y793725D01*
X348001Y792981D01*
X348440Y792227D01*
X348861Y791463D01*
X349263Y790688D01*
X349646Y789904D01*
X350009Y789110D01*
X350353Y788308D01*
X350677Y787498D01*
X350981Y786680D01*
X351265Y785855D01*
X351529Y785023D01*
X351772Y784184D01*
X351994Y783340D01*
X352196Y782491D01*
X352377Y781637D01*
X352536Y780779D01*
X352675Y779918D01*
X352793Y779053D01*
X352889Y778185D01*
X352964Y777316D01*
X353017Y776445D01*
X353049Y775573D01*
X353060Y774700D01*
X353049Y773827D01*
X353017Y772955D01*
X352964Y772084D01*
X352889Y771215D01*
X352793Y770347D01*
X352675Y769482D01*
X352536Y768621D01*
X352377Y767763D01*
X352196Y766909D01*
X351994Y766060D01*
X351772Y765216D01*
X351529Y764377D01*
X351265Y763545D01*
X350981Y762720D01*
X350677Y761902D01*
X350353Y761092D01*
X350009Y760290D01*
X349646Y759496D01*
X349263Y758712D01*
X348861Y757937D01*
X348440Y757173D01*
X348001Y756419D01*
X347543Y755675D01*
X347067Y754944D01*
X346573Y754224D01*
X346062Y753517D01*
X345534Y752822D01*
X344988Y752141D01*
X344426Y751473D01*
X343848Y750819D01*
X343254Y750180D01*
X342645Y749555D01*
X342020Y748946D01*
X341381Y748352D01*
X340727Y747774D01*
X340059Y747212D01*
X339378Y746666D01*
X338683Y746138D01*
X337976Y745627D01*
X337256Y745133D01*
X336525Y744657D01*
X335781Y744199D01*
X335027Y743760D01*
X334263Y743339D01*
X333488Y742937D01*
X332704Y742554D01*
X331910Y742191D01*
X331108Y741847D01*
X330298Y741523D01*
X329480Y741219D01*
X328655Y740935D01*
X327823Y740671D01*
X326984Y740428D01*
X326140Y740206D01*
X325291Y740004D01*
X324437Y739823D01*
X323579Y739664D01*
X322718Y739525D01*
X321853Y739407D01*
X320985Y739311D01*
X320116Y739236D01*
X319245Y739183D01*
X318373Y739151D01*
X317500Y739140D01*
X316627Y739151D01*
X315755Y739183D01*
X314884Y739236D01*
X314015Y739311D01*
X313147Y739407D01*
X312282Y739525D01*
X311421Y739664D01*
X310563Y739823D01*
X309709Y740004D01*
X308860Y740206D01*
X308016Y740428D01*
X307177Y740671D01*
X306345Y740935D01*
X305520Y741219D01*
X304702Y741523D01*
X303892Y741847D01*
X303090Y742191D01*
X302296Y742554D01*
X301512Y742937D01*
X300737Y743339D01*
X299973Y743760D01*
X299219Y744199D01*
X298475Y744657D01*
X297744Y745133D01*
X297024Y745627D01*
X296317Y746138D01*
X295622Y746666D01*
X294941Y747212D01*
X294273Y747774D01*
X293619Y748352D01*
X292980Y748946D01*
X292355Y749555D01*
X291746Y750180D01*
X291152Y750819D01*
X290574Y751473D01*
X290012Y752141D01*
X289466Y752822D01*
X288938Y753517D01*
X288427Y754224D01*
X287933Y754944D01*
X287457Y755675D01*
X286999Y756419D01*
X286560Y757173D01*
X286139Y757937D01*
X285737Y758712D01*
X285354Y759496D01*
X284991Y760290D01*
X284647Y761092D01*
X284323Y761902D01*
X284019Y762720D01*
X283735Y763545D01*
X283471Y764377D01*
X283228Y765216D01*
X283006Y766060D01*
X282804Y766909D01*
X282623Y767763D01*
X282464Y768621D01*
X282325Y769482D01*
X282207Y770347D01*
X282111Y771215D01*
X282036Y772084D01*
X281983Y772955D01*
X281951Y773827D01*
X281940Y774700D01*
D13*
X307340Y774700D02*
X307343Y774949D01*
X307352Y775199D01*
X307368Y775447D01*
X307389Y775696D01*
X307416Y775944D01*
X307450Y776191D01*
X307490Y776437D01*
X307535Y776682D01*
X307587Y776926D01*
X307644Y777169D01*
X307708Y777410D01*
X307777Y777649D01*
X307853Y777887D01*
X307934Y778123D01*
X308021Y778357D01*
X308113Y778588D01*
X308212Y778817D01*
X308315Y779044D01*
X308425Y779268D01*
X308540Y779489D01*
X308660Y779708D01*
X308785Y779923D01*
X308916Y780136D01*
X309052Y780345D01*
X309193Y780550D01*
X309339Y780752D01*
X309490Y780951D01*
X309646Y781145D01*
X309807Y781336D01*
X309972Y781523D01*
X310142Y781706D01*
X310316Y781884D01*
X310494Y782058D01*
X310677Y782228D01*
X310864Y782393D01*
X311055Y782554D01*
X311249Y782710D01*
X311448Y782861D01*
X311650Y783007D01*
X311855Y783148D01*
X312064Y783284D01*
X312277Y783415D01*
X312492Y783540D01*
X312711Y783660D01*
X312932Y783775D01*
X313156Y783885D01*
X313383Y783988D01*
X313612Y784087D01*
X313843Y784179D01*
X314077Y784266D01*
X314313Y784347D01*
X314551Y784423D01*
X314790Y784492D01*
X315031Y784556D01*
X315274Y784613D01*
X315518Y784665D01*
X315763Y784710D01*
X316009Y784750D01*
X316256Y784784D01*
X316504Y784811D01*
X316753Y784832D01*
X317001Y784848D01*
X317251Y784857D01*
X317500Y784860D01*
X317749Y784857D01*
X317999Y784848D01*
X318247Y784832D01*
X318496Y784811D01*
X318744Y784784D01*
X318991Y784750D01*
X319237Y784710D01*
X319482Y784665D01*
X319726Y784613D01*
X319969Y784556D01*
X320210Y784492D01*
X320449Y784423D01*
X320687Y784347D01*
X320923Y784266D01*
X321157Y784179D01*
X321388Y784087D01*
X321617Y783988D01*
X321844Y783885D01*
X322068Y783775D01*
X322289Y783660D01*
X322508Y783540D01*
X322723Y783415D01*
X322936Y783284D01*
X323145Y783148D01*
X323350Y783007D01*
X323552Y782861D01*
X323751Y782710D01*
X323945Y782554D01*
X324136Y782393D01*
X324323Y782228D01*
X324506Y782058D01*
X324684Y781884D01*
X324858Y781706D01*
X325028Y781523D01*
X325193Y781336D01*
X325354Y781145D01*
X325510Y780951D01*
X325661Y780752D01*
X325807Y780550D01*
X325948Y780345D01*
X326084Y780136D01*
X326215Y779923D01*
X326340Y779708D01*
X326460Y779489D01*
X326575Y779268D01*
X326685Y779044D01*
X326788Y778817D01*
X326887Y778588D01*
X326979Y778357D01*
X327066Y778123D01*
X327147Y777887D01*
X327223Y777649D01*
X327292Y777410D01*
X327356Y777169D01*
X327413Y776926D01*
X327465Y776682D01*
X327510Y776437D01*
X327550Y776191D01*
X327584Y775944D01*
X327611Y775696D01*
X327632Y775447D01*
X327648Y775199D01*
X327657Y774949D01*
X327660Y774700D01*
X327657Y774451D01*
X327648Y774201D01*
X327632Y773953D01*
X327611Y773704D01*
X327584Y773456D01*
X327550Y773209D01*
X327510Y772963D01*
X327465Y772718D01*
X327413Y772474D01*
X327356Y772231D01*
X327292Y771990D01*
X327223Y771751D01*
X327147Y771513D01*
X327066Y771277D01*
X326979Y771043D01*
X326887Y770812D01*
X326788Y770583D01*
X326685Y770356D01*
X326575Y770132D01*
X326460Y769911D01*
X326340Y769692D01*
X326215Y769477D01*
X326084Y769264D01*
X325948Y769055D01*
X325807Y768850D01*
X325661Y768648D01*
X325510Y768449D01*
X325354Y768255D01*
X325193Y768064D01*
X325028Y767877D01*
X324858Y767694D01*
X324684Y767516D01*
X324506Y767342D01*
X324323Y767172D01*
X324136Y767007D01*
X323945Y766846D01*
X323751Y766690D01*
X323552Y766539D01*
X323350Y766393D01*
X323145Y766252D01*
X322936Y766116D01*
X322723Y765985D01*
X322508Y765860D01*
X322289Y765740D01*
X322068Y765625D01*
X321844Y765515D01*
X321617Y765412D01*
X321388Y765313D01*
X321157Y765221D01*
X320923Y765134D01*
X320687Y765053D01*
X320449Y764977D01*
X320210Y764908D01*
X319969Y764844D01*
X319726Y764787D01*
X319482Y764735D01*
X319237Y764690D01*
X318991Y764650D01*
X318744Y764616D01*
X318496Y764589D01*
X318247Y764568D01*
X317999Y764552D01*
X317749Y764543D01*
X317500Y764540D01*
X317251Y764543D01*
X317001Y764552D01*
X316753Y764568D01*
X316504Y764589D01*
X316256Y764616D01*
X316009Y764650D01*
X315763Y764690D01*
X315518Y764735D01*
X315274Y764787D01*
X315031Y764844D01*
X314790Y764908D01*
X314551Y764977D01*
X314313Y765053D01*
X314077Y765134D01*
X313843Y765221D01*
X313612Y765313D01*
X313383Y765412D01*
X313156Y765515D01*
X312932Y765625D01*
X312711Y765740D01*
X312492Y765860D01*
X312277Y765985D01*
X312064Y766116D01*
X311855Y766252D01*
X311650Y766393D01*
X311448Y766539D01*
X311249Y766690D01*
X311055Y766846D01*
X310864Y767007D01*
X310677Y767172D01*
X310494Y767342D01*
X310316Y767516D01*
X310142Y767694D01*
X309972Y767877D01*
X309807Y768064D01*
X309646Y768255D01*
X309490Y768449D01*
X309339Y768648D01*
X309193Y768850D01*
X309052Y769055D01*
X308916Y769264D01*
X308785Y769477D01*
X308660Y769692D01*
X308540Y769911D01*
X308425Y770132D01*
X308315Y770356D01*
X308212Y770583D01*
X308113Y770812D01*
X308021Y771043D01*
X307934Y771277D01*
X307853Y771513D01*
X307777Y771751D01*
X307708Y771990D01*
X307644Y772231D01*
X307587Y772474D01*
X307535Y772718D01*
X307490Y772963D01*
X307450Y773209D01*
X307416Y773456D01*
X307389Y773704D01*
X307368Y773953D01*
X307352Y774201D01*
X307343Y774451D01*
X307340Y774700D01*
X309880Y774700D02*
X309882Y774887D01*
X309889Y775074D01*
X309901Y775261D01*
X309917Y775447D01*
X309937Y775633D01*
X309962Y775818D01*
X309992Y776003D01*
X310026Y776187D01*
X310065Y776370D01*
X310108Y776552D01*
X310156Y776732D01*
X310208Y776912D01*
X310265Y777090D01*
X310325Y777267D01*
X310391Y777442D01*
X310460Y777616D01*
X310534Y777788D01*
X310612Y777958D01*
X310694Y778126D01*
X310780Y778292D01*
X310870Y778456D01*
X310964Y778617D01*
X311062Y778777D01*
X311164Y778933D01*
X311270Y779088D01*
X311380Y779239D01*
X311493Y779388D01*
X311610Y779534D01*
X311730Y779677D01*
X311854Y779817D01*
X311981Y779954D01*
X312112Y780088D01*
X312246Y780219D01*
X312383Y780346D01*
X312523Y780470D01*
X312666Y780590D01*
X312812Y780707D01*
X312961Y780820D01*
X313112Y780930D01*
X313267Y781036D01*
X313423Y781138D01*
X313583Y781236D01*
X313744Y781330D01*
X313908Y781420D01*
X314074Y781506D01*
X314242Y781588D01*
X314412Y781666D01*
X314584Y781740D01*
X314758Y781809D01*
X314933Y781875D01*
X315110Y781935D01*
X315288Y781992D01*
X315468Y782044D01*
X315648Y782092D01*
X315830Y782135D01*
X316013Y782174D01*
X316197Y782208D01*
X316382Y782238D01*
X316567Y782263D01*
X316753Y782283D01*
X316939Y782299D01*
X317126Y782311D01*
X317313Y782318D01*
X317500Y782320D01*
X317687Y782318D01*
X317874Y782311D01*
X318061Y782299D01*
X318247Y782283D01*
X318433Y782263D01*
X318618Y782238D01*
X318803Y782208D01*
X318987Y782174D01*
X319170Y782135D01*
X319352Y782092D01*
X319532Y782044D01*
X319712Y781992D01*
X319890Y781935D01*
X320067Y781875D01*
X320242Y781809D01*
X320416Y781740D01*
X320588Y781666D01*
X320758Y781588D01*
X320926Y781506D01*
X321092Y781420D01*
X321256Y781330D01*
X321417Y781236D01*
X321577Y781138D01*
X321733Y781036D01*
X321888Y780930D01*
X322039Y780820D01*
X322188Y780707D01*
X322334Y780590D01*
X322477Y780470D01*
X322617Y780346D01*
X322754Y780219D01*
X322888Y780088D01*
X323019Y779954D01*
X323146Y779817D01*
X323270Y779677D01*
X323390Y779534D01*
X323507Y779388D01*
X323620Y779239D01*
X323730Y779088D01*
X323836Y778933D01*
X323938Y778777D01*
X324036Y778617D01*
X324130Y778456D01*
X324220Y778292D01*
X324306Y778126D01*
X324388Y777958D01*
X324466Y777788D01*
X324540Y777616D01*
X324609Y777442D01*
X324675Y777267D01*
X324735Y777090D01*
X324792Y776912D01*
X324844Y776732D01*
X324892Y776552D01*
X324935Y776370D01*
X324974Y776187D01*
X325008Y776003D01*
X325038Y775818D01*
X325063Y775633D01*
X325083Y775447D01*
X325099Y775261D01*
X325111Y775074D01*
X325118Y774887D01*
X325120Y774700D01*
X325118Y774513D01*
X325111Y774326D01*
X325099Y774139D01*
X325083Y773953D01*
X325063Y773767D01*
X325038Y773582D01*
X325008Y773397D01*
X324974Y773213D01*
X324935Y773030D01*
X324892Y772848D01*
X324844Y772668D01*
X324792Y772488D01*
X324735Y772310D01*
X324675Y772133D01*
X324609Y771958D01*
X324540Y771784D01*
X324466Y771612D01*
X324388Y771442D01*
X324306Y771274D01*
X324220Y771108D01*
X324130Y770944D01*
X324036Y770783D01*
X323938Y770623D01*
X323836Y770467D01*
X323730Y770312D01*
X323620Y770161D01*
X323507Y770012D01*
X323390Y769866D01*
X323270Y769723D01*
X323146Y769583D01*
X323019Y769446D01*
X322888Y769312D01*
X322754Y769181D01*
X322617Y769054D01*
X322477Y768930D01*
X322334Y768810D01*
X322188Y768693D01*
X322039Y768580D01*
X321888Y768470D01*
X321733Y768364D01*
X321577Y768262D01*
X321417Y768164D01*
X321256Y768070D01*
X321092Y767980D01*
X320926Y767894D01*
X320758Y767812D01*
X320588Y767734D01*
X320416Y767660D01*
X320242Y767591D01*
X320067Y767525D01*
X319890Y767465D01*
X319712Y767408D01*
X319532Y767356D01*
X319352Y767308D01*
X319170Y767265D01*
X318987Y767226D01*
X318803Y767192D01*
X318618Y767162D01*
X318433Y767137D01*
X318247Y767117D01*
X318061Y767101D01*
X317874Y767089D01*
X317687Y767082D01*
X317500Y767080D01*
X317313Y767082D01*
X317126Y767089D01*
X316939Y767101D01*
X316753Y767117D01*
X316567Y767137D01*
X316382Y767162D01*
X316197Y767192D01*
X316013Y767226D01*
X315830Y767265D01*
X315648Y767308D01*
X315468Y767356D01*
X315288Y767408D01*
X315110Y767465D01*
X314933Y767525D01*
X314758Y767591D01*
X314584Y767660D01*
X314412Y767734D01*
X314242Y767812D01*
X314074Y767894D01*
X313908Y767980D01*
X313744Y768070D01*
X313583Y768164D01*
X313423Y768262D01*
X313267Y768364D01*
X313112Y768470D01*
X312961Y768580D01*
X312812Y768693D01*
X312666Y768810D01*
X312523Y768930D01*
X312383Y769054D01*
X312246Y769181D01*
X312112Y769312D01*
X311981Y769446D01*
X311854Y769583D01*
X311730Y769723D01*
X311610Y769866D01*
X311493Y770012D01*
X311380Y770161D01*
X311270Y770312D01*
X311164Y770467D01*
X311062Y770623D01*
X310964Y770783D01*
X310870Y770944D01*
X310780Y771108D01*
X310694Y771274D01*
X310612Y771442D01*
X310534Y771612D01*
X310460Y771784D01*
X310391Y771958D01*
X310325Y772133D01*
X310265Y772310D01*
X310208Y772488D01*
X310156Y772668D01*
X310108Y772848D01*
X310065Y773030D01*
X310026Y773213D01*
X309992Y773397D01*
X309962Y773582D01*
X309937Y773767D01*
X309917Y773953D01*
X309901Y774139D01*
X309889Y774326D01*
X309882Y774513D01*
X309880Y774700D01*
D14*
X358511Y737242D02*
X362324Y741055D01*
X362324Y729615D01*
X358511Y729615D02*
X366138Y729615D01*
X274698Y729615D02*
X267071Y729615D01*
X274698Y737242D01*
X274698Y739148D01*
X272791Y741055D01*
X268978Y741055D01*
X267071Y739148D01*
X358511Y819158D02*
X360418Y821065D01*
X364231Y821065D01*
X366138Y819158D01*
X366138Y817252D01*
X364231Y815345D01*
X362324Y815345D01*
X364231Y815345D02*
X366138Y813438D01*
X366138Y811532D01*
X364231Y809625D01*
X360418Y809625D01*
X358511Y811532D01*
X271521Y809625D02*
X271521Y821065D01*
X265801Y815345D01*
X273428Y815345D01*
D15*
X283845Y713740D03*
X351155Y713740D03*
X283845Y835660D03*
X351155Y835660D03*
D11*
X880110Y786130D02*
X918210Y786130D01*
X918210Y748030D01*
X880110Y748030D01*
X880110Y786130D01*
D13*
X882650Y783590D02*
X915670Y783590D01*
X915670Y750570D01*
X882650Y750570D01*
X882650Y783590D01*
D11*
X889000Y828040D02*
X889000Y831850D01*
X889000Y828040D02*
X909320Y828040D01*
X909320Y831850D02*
X889000Y831850D01*
X909320Y831850D02*
X909320Y828040D01*
X949960Y828040D02*
X960120Y817880D01*
X949960Y828040D02*
X916940Y828040D01*
X960120Y817880D02*
X960120Y805180D01*
X960120Y778510D02*
X960120Y755650D01*
X960120Y716280D02*
X949960Y706120D01*
X960120Y716280D02*
X960120Y728980D01*
X838200Y755650D02*
X838200Y778510D01*
X838200Y728980D02*
X838200Y716280D01*
X848360Y706120D01*
X881380Y706120D01*
X881380Y828040D02*
X848360Y828040D01*
X838200Y817880D01*
X838200Y805180D01*
X889000Y702310D02*
X909320Y702310D01*
X889000Y702310D02*
X889000Y706120D01*
X909320Y706120D02*
X909320Y702310D01*
X949960Y828040D02*
X947420Y830580D01*
X916940Y830580D01*
X916940Y828040D01*
X909320Y828040D01*
X881380Y828040D02*
X881380Y830580D01*
X881380Y828040D02*
X889000Y828040D01*
X881380Y830580D02*
X850900Y830580D01*
X848360Y828040D01*
X889000Y706120D02*
X909320Y706120D01*
X916940Y706120D01*
X881380Y706120D02*
X881380Y703580D01*
X881380Y706120D02*
X889000Y706120D01*
X881380Y703580D02*
X850900Y703580D01*
X848360Y706120D01*
X916940Y706120D02*
X916940Y703580D01*
X916940Y706120D02*
X949960Y706120D01*
X947420Y703580D02*
X916940Y703580D01*
X947420Y703580D02*
X949960Y706120D01*
X863600Y767080D02*
X863611Y767953D01*
X863643Y768825D01*
X863696Y769696D01*
X863771Y770565D01*
X863867Y771433D01*
X863985Y772298D01*
X864124Y773159D01*
X864283Y774017D01*
X864464Y774871D01*
X864666Y775720D01*
X864888Y776564D01*
X865131Y777403D01*
X865395Y778235D01*
X865679Y779060D01*
X865983Y779878D01*
X866307Y780688D01*
X866651Y781490D01*
X867014Y782284D01*
X867397Y783068D01*
X867799Y783843D01*
X868220Y784607D01*
X868659Y785361D01*
X869117Y786105D01*
X869593Y786836D01*
X870087Y787556D01*
X870598Y788263D01*
X871126Y788958D01*
X871672Y789639D01*
X872234Y790307D01*
X872812Y790961D01*
X873406Y791600D01*
X874015Y792225D01*
X874640Y792834D01*
X875279Y793428D01*
X875933Y794006D01*
X876601Y794568D01*
X877282Y795114D01*
X877977Y795642D01*
X878684Y796153D01*
X879404Y796647D01*
X880135Y797123D01*
X880879Y797581D01*
X881633Y798020D01*
X882397Y798441D01*
X883172Y798843D01*
X883956Y799226D01*
X884750Y799589D01*
X885552Y799933D01*
X886362Y800257D01*
X887180Y800561D01*
X888005Y800845D01*
X888837Y801109D01*
X889676Y801352D01*
X890520Y801574D01*
X891369Y801776D01*
X892223Y801957D01*
X893081Y802116D01*
X893942Y802255D01*
X894807Y802373D01*
X895675Y802469D01*
X896544Y802544D01*
X897415Y802597D01*
X898287Y802629D01*
X899160Y802640D01*
X900033Y802629D01*
X900905Y802597D01*
X901776Y802544D01*
X902645Y802469D01*
X903513Y802373D01*
X904378Y802255D01*
X905239Y802116D01*
X906097Y801957D01*
X906951Y801776D01*
X907800Y801574D01*
X908644Y801352D01*
X909483Y801109D01*
X910315Y800845D01*
X911140Y800561D01*
X911958Y800257D01*
X912768Y799933D01*
X913570Y799589D01*
X914364Y799226D01*
X915148Y798843D01*
X915923Y798441D01*
X916687Y798020D01*
X917441Y797581D01*
X918185Y797123D01*
X918916Y796647D01*
X919636Y796153D01*
X920343Y795642D01*
X921038Y795114D01*
X921719Y794568D01*
X922387Y794006D01*
X923041Y793428D01*
X923680Y792834D01*
X924305Y792225D01*
X924914Y791600D01*
X925508Y790961D01*
X926086Y790307D01*
X926648Y789639D01*
X927194Y788958D01*
X927722Y788263D01*
X928233Y787556D01*
X928727Y786836D01*
X929203Y786105D01*
X929661Y785361D01*
X930100Y784607D01*
X930521Y783843D01*
X930923Y783068D01*
X931306Y782284D01*
X931669Y781490D01*
X932013Y780688D01*
X932337Y779878D01*
X932641Y779060D01*
X932925Y778235D01*
X933189Y777403D01*
X933432Y776564D01*
X933654Y775720D01*
X933856Y774871D01*
X934037Y774017D01*
X934196Y773159D01*
X934335Y772298D01*
X934453Y771433D01*
X934549Y770565D01*
X934624Y769696D01*
X934677Y768825D01*
X934709Y767953D01*
X934720Y767080D01*
X934709Y766207D01*
X934677Y765335D01*
X934624Y764464D01*
X934549Y763595D01*
X934453Y762727D01*
X934335Y761862D01*
X934196Y761001D01*
X934037Y760143D01*
X933856Y759289D01*
X933654Y758440D01*
X933432Y757596D01*
X933189Y756757D01*
X932925Y755925D01*
X932641Y755100D01*
X932337Y754282D01*
X932013Y753472D01*
X931669Y752670D01*
X931306Y751876D01*
X930923Y751092D01*
X930521Y750317D01*
X930100Y749553D01*
X929661Y748799D01*
X929203Y748055D01*
X928727Y747324D01*
X928233Y746604D01*
X927722Y745897D01*
X927194Y745202D01*
X926648Y744521D01*
X926086Y743853D01*
X925508Y743199D01*
X924914Y742560D01*
X924305Y741935D01*
X923680Y741326D01*
X923041Y740732D01*
X922387Y740154D01*
X921719Y739592D01*
X921038Y739046D01*
X920343Y738518D01*
X919636Y738007D01*
X918916Y737513D01*
X918185Y737037D01*
X917441Y736579D01*
X916687Y736140D01*
X915923Y735719D01*
X915148Y735317D01*
X914364Y734934D01*
X913570Y734571D01*
X912768Y734227D01*
X911958Y733903D01*
X911140Y733599D01*
X910315Y733315D01*
X909483Y733051D01*
X908644Y732808D01*
X907800Y732586D01*
X906951Y732384D01*
X906097Y732203D01*
X905239Y732044D01*
X904378Y731905D01*
X903513Y731787D01*
X902645Y731691D01*
X901776Y731616D01*
X900905Y731563D01*
X900033Y731531D01*
X899160Y731520D01*
X898287Y731531D01*
X897415Y731563D01*
X896544Y731616D01*
X895675Y731691D01*
X894807Y731787D01*
X893942Y731905D01*
X893081Y732044D01*
X892223Y732203D01*
X891369Y732384D01*
X890520Y732586D01*
X889676Y732808D01*
X888837Y733051D01*
X888005Y733315D01*
X887180Y733599D01*
X886362Y733903D01*
X885552Y734227D01*
X884750Y734571D01*
X883956Y734934D01*
X883172Y735317D01*
X882397Y735719D01*
X881633Y736140D01*
X880879Y736579D01*
X880135Y737037D01*
X879404Y737513D01*
X878684Y738007D01*
X877977Y738518D01*
X877282Y739046D01*
X876601Y739592D01*
X875933Y740154D01*
X875279Y740732D01*
X874640Y741326D01*
X874015Y741935D01*
X873406Y742560D01*
X872812Y743199D01*
X872234Y743853D01*
X871672Y744521D01*
X871126Y745202D01*
X870598Y745897D01*
X870087Y746604D01*
X869593Y747324D01*
X869117Y748055D01*
X868659Y748799D01*
X868220Y749553D01*
X867799Y750317D01*
X867397Y751092D01*
X867014Y751876D01*
X866651Y752670D01*
X866307Y753472D01*
X865983Y754282D01*
X865679Y755100D01*
X865395Y755925D01*
X865131Y756757D01*
X864888Y757596D01*
X864666Y758440D01*
X864464Y759289D01*
X864283Y760143D01*
X864124Y761001D01*
X863985Y761862D01*
X863867Y762727D01*
X863771Y763595D01*
X863696Y764464D01*
X863643Y765335D01*
X863611Y766207D01*
X863600Y767080D01*
D13*
X889000Y767080D02*
X889003Y767329D01*
X889012Y767579D01*
X889028Y767827D01*
X889049Y768076D01*
X889076Y768324D01*
X889110Y768571D01*
X889150Y768817D01*
X889195Y769062D01*
X889247Y769306D01*
X889304Y769549D01*
X889368Y769790D01*
X889437Y770029D01*
X889513Y770267D01*
X889594Y770503D01*
X889681Y770737D01*
X889773Y770968D01*
X889872Y771197D01*
X889975Y771424D01*
X890085Y771648D01*
X890200Y771869D01*
X890320Y772088D01*
X890445Y772303D01*
X890576Y772516D01*
X890712Y772725D01*
X890853Y772930D01*
X890999Y773132D01*
X891150Y773331D01*
X891306Y773525D01*
X891467Y773716D01*
X891632Y773903D01*
X891802Y774086D01*
X891976Y774264D01*
X892154Y774438D01*
X892337Y774608D01*
X892524Y774773D01*
X892715Y774934D01*
X892909Y775090D01*
X893108Y775241D01*
X893310Y775387D01*
X893515Y775528D01*
X893724Y775664D01*
X893937Y775795D01*
X894152Y775920D01*
X894371Y776040D01*
X894592Y776155D01*
X894816Y776265D01*
X895043Y776368D01*
X895272Y776467D01*
X895503Y776559D01*
X895737Y776646D01*
X895973Y776727D01*
X896211Y776803D01*
X896450Y776872D01*
X896691Y776936D01*
X896934Y776993D01*
X897178Y777045D01*
X897423Y777090D01*
X897669Y777130D01*
X897916Y777164D01*
X898164Y777191D01*
X898413Y777212D01*
X898661Y777228D01*
X898911Y777237D01*
X899160Y777240D01*
X899409Y777237D01*
X899659Y777228D01*
X899907Y777212D01*
X900156Y777191D01*
X900404Y777164D01*
X900651Y777130D01*
X900897Y777090D01*
X901142Y777045D01*
X901386Y776993D01*
X901629Y776936D01*
X901870Y776872D01*
X902109Y776803D01*
X902347Y776727D01*
X902583Y776646D01*
X902817Y776559D01*
X903048Y776467D01*
X903277Y776368D01*
X903504Y776265D01*
X903728Y776155D01*
X903949Y776040D01*
X904168Y775920D01*
X904383Y775795D01*
X904596Y775664D01*
X904805Y775528D01*
X905010Y775387D01*
X905212Y775241D01*
X905411Y775090D01*
X905605Y774934D01*
X905796Y774773D01*
X905983Y774608D01*
X906166Y774438D01*
X906344Y774264D01*
X906518Y774086D01*
X906688Y773903D01*
X906853Y773716D01*
X907014Y773525D01*
X907170Y773331D01*
X907321Y773132D01*
X907467Y772930D01*
X907608Y772725D01*
X907744Y772516D01*
X907875Y772303D01*
X908000Y772088D01*
X908120Y771869D01*
X908235Y771648D01*
X908345Y771424D01*
X908448Y771197D01*
X908547Y770968D01*
X908639Y770737D01*
X908726Y770503D01*
X908807Y770267D01*
X908883Y770029D01*
X908952Y769790D01*
X909016Y769549D01*
X909073Y769306D01*
X909125Y769062D01*
X909170Y768817D01*
X909210Y768571D01*
X909244Y768324D01*
X909271Y768076D01*
X909292Y767827D01*
X909308Y767579D01*
X909317Y767329D01*
X909320Y767080D01*
X909317Y766831D01*
X909308Y766581D01*
X909292Y766333D01*
X909271Y766084D01*
X909244Y765836D01*
X909210Y765589D01*
X909170Y765343D01*
X909125Y765098D01*
X909073Y764854D01*
X909016Y764611D01*
X908952Y764370D01*
X908883Y764131D01*
X908807Y763893D01*
X908726Y763657D01*
X908639Y763423D01*
X908547Y763192D01*
X908448Y762963D01*
X908345Y762736D01*
X908235Y762512D01*
X908120Y762291D01*
X908000Y762072D01*
X907875Y761857D01*
X907744Y761644D01*
X907608Y761435D01*
X907467Y761230D01*
X907321Y761028D01*
X907170Y760829D01*
X907014Y760635D01*
X906853Y760444D01*
X906688Y760257D01*
X906518Y760074D01*
X906344Y759896D01*
X906166Y759722D01*
X905983Y759552D01*
X905796Y759387D01*
X905605Y759226D01*
X905411Y759070D01*
X905212Y758919D01*
X905010Y758773D01*
X904805Y758632D01*
X904596Y758496D01*
X904383Y758365D01*
X904168Y758240D01*
X903949Y758120D01*
X903728Y758005D01*
X903504Y757895D01*
X903277Y757792D01*
X903048Y757693D01*
X902817Y757601D01*
X902583Y757514D01*
X902347Y757433D01*
X902109Y757357D01*
X901870Y757288D01*
X901629Y757224D01*
X901386Y757167D01*
X901142Y757115D01*
X900897Y757070D01*
X900651Y757030D01*
X900404Y756996D01*
X900156Y756969D01*
X899907Y756948D01*
X899659Y756932D01*
X899409Y756923D01*
X899160Y756920D01*
X898911Y756923D01*
X898661Y756932D01*
X898413Y756948D01*
X898164Y756969D01*
X897916Y756996D01*
X897669Y757030D01*
X897423Y757070D01*
X897178Y757115D01*
X896934Y757167D01*
X896691Y757224D01*
X896450Y757288D01*
X896211Y757357D01*
X895973Y757433D01*
X895737Y757514D01*
X895503Y757601D01*
X895272Y757693D01*
X895043Y757792D01*
X894816Y757895D01*
X894592Y758005D01*
X894371Y758120D01*
X894152Y758240D01*
X893937Y758365D01*
X893724Y758496D01*
X893515Y758632D01*
X893310Y758773D01*
X893108Y758919D01*
X892909Y759070D01*
X892715Y759226D01*
X892524Y759387D01*
X892337Y759552D01*
X892154Y759722D01*
X891976Y759896D01*
X891802Y760074D01*
X891632Y760257D01*
X891467Y760444D01*
X891306Y760635D01*
X891150Y760829D01*
X890999Y761028D01*
X890853Y761230D01*
X890712Y761435D01*
X890576Y761644D01*
X890445Y761857D01*
X890320Y762072D01*
X890200Y762291D01*
X890085Y762512D01*
X889975Y762736D01*
X889872Y762963D01*
X889773Y763192D01*
X889681Y763423D01*
X889594Y763657D01*
X889513Y763893D01*
X889437Y764131D01*
X889368Y764370D01*
X889304Y764611D01*
X889247Y764854D01*
X889195Y765098D01*
X889150Y765343D01*
X889110Y765589D01*
X889076Y765836D01*
X889049Y766084D01*
X889028Y766333D01*
X889012Y766581D01*
X889003Y766831D01*
X889000Y767080D01*
X891540Y767080D02*
X891542Y767267D01*
X891549Y767454D01*
X891561Y767641D01*
X891577Y767827D01*
X891597Y768013D01*
X891622Y768198D01*
X891652Y768383D01*
X891686Y768567D01*
X891725Y768750D01*
X891768Y768932D01*
X891816Y769112D01*
X891868Y769292D01*
X891925Y769470D01*
X891985Y769647D01*
X892051Y769822D01*
X892120Y769996D01*
X892194Y770168D01*
X892272Y770338D01*
X892354Y770506D01*
X892440Y770672D01*
X892530Y770836D01*
X892624Y770997D01*
X892722Y771157D01*
X892824Y771313D01*
X892930Y771468D01*
X893040Y771619D01*
X893153Y771768D01*
X893270Y771914D01*
X893390Y772057D01*
X893514Y772197D01*
X893641Y772334D01*
X893772Y772468D01*
X893906Y772599D01*
X894043Y772726D01*
X894183Y772850D01*
X894326Y772970D01*
X894472Y773087D01*
X894621Y773200D01*
X894772Y773310D01*
X894927Y773416D01*
X895083Y773518D01*
X895243Y773616D01*
X895404Y773710D01*
X895568Y773800D01*
X895734Y773886D01*
X895902Y773968D01*
X896072Y774046D01*
X896244Y774120D01*
X896418Y774189D01*
X896593Y774255D01*
X896770Y774315D01*
X896948Y774372D01*
X897128Y774424D01*
X897308Y774472D01*
X897490Y774515D01*
X897673Y774554D01*
X897857Y774588D01*
X898042Y774618D01*
X898227Y774643D01*
X898413Y774663D01*
X898599Y774679D01*
X898786Y774691D01*
X898973Y774698D01*
X899160Y774700D01*
X899347Y774698D01*
X899534Y774691D01*
X899721Y774679D01*
X899907Y774663D01*
X900093Y774643D01*
X900278Y774618D01*
X900463Y774588D01*
X900647Y774554D01*
X900830Y774515D01*
X901012Y774472D01*
X901192Y774424D01*
X901372Y774372D01*
X901550Y774315D01*
X901727Y774255D01*
X901902Y774189D01*
X902076Y774120D01*
X902248Y774046D01*
X902418Y773968D01*
X902586Y773886D01*
X902752Y773800D01*
X902916Y773710D01*
X903077Y773616D01*
X903237Y773518D01*
X903393Y773416D01*
X903548Y773310D01*
X903699Y773200D01*
X903848Y773087D01*
X903994Y772970D01*
X904137Y772850D01*
X904277Y772726D01*
X904414Y772599D01*
X904548Y772468D01*
X904679Y772334D01*
X904806Y772197D01*
X904930Y772057D01*
X905050Y771914D01*
X905167Y771768D01*
X905280Y771619D01*
X905390Y771468D01*
X905496Y771313D01*
X905598Y771157D01*
X905696Y770997D01*
X905790Y770836D01*
X905880Y770672D01*
X905966Y770506D01*
X906048Y770338D01*
X906126Y770168D01*
X906200Y769996D01*
X906269Y769822D01*
X906335Y769647D01*
X906395Y769470D01*
X906452Y769292D01*
X906504Y769112D01*
X906552Y768932D01*
X906595Y768750D01*
X906634Y768567D01*
X906668Y768383D01*
X906698Y768198D01*
X906723Y768013D01*
X906743Y767827D01*
X906759Y767641D01*
X906771Y767454D01*
X906778Y767267D01*
X906780Y767080D01*
X906778Y766893D01*
X906771Y766706D01*
X906759Y766519D01*
X906743Y766333D01*
X906723Y766147D01*
X906698Y765962D01*
X906668Y765777D01*
X906634Y765593D01*
X906595Y765410D01*
X906552Y765228D01*
X906504Y765048D01*
X906452Y764868D01*
X906395Y764690D01*
X906335Y764513D01*
X906269Y764338D01*
X906200Y764164D01*
X906126Y763992D01*
X906048Y763822D01*
X905966Y763654D01*
X905880Y763488D01*
X905790Y763324D01*
X905696Y763163D01*
X905598Y763003D01*
X905496Y762847D01*
X905390Y762692D01*
X905280Y762541D01*
X905167Y762392D01*
X905050Y762246D01*
X904930Y762103D01*
X904806Y761963D01*
X904679Y761826D01*
X904548Y761692D01*
X904414Y761561D01*
X904277Y761434D01*
X904137Y761310D01*
X903994Y761190D01*
X903848Y761073D01*
X903699Y760960D01*
X903548Y760850D01*
X903393Y760744D01*
X903237Y760642D01*
X903077Y760544D01*
X902916Y760450D01*
X902752Y760360D01*
X902586Y760274D01*
X902418Y760192D01*
X902248Y760114D01*
X902076Y760040D01*
X901902Y759971D01*
X901727Y759905D01*
X901550Y759845D01*
X901372Y759788D01*
X901192Y759736D01*
X901012Y759688D01*
X900830Y759645D01*
X900647Y759606D01*
X900463Y759572D01*
X900278Y759542D01*
X900093Y759517D01*
X899907Y759497D01*
X899721Y759481D01*
X899534Y759469D01*
X899347Y759462D01*
X899160Y759460D01*
X898973Y759462D01*
X898786Y759469D01*
X898599Y759481D01*
X898413Y759497D01*
X898227Y759517D01*
X898042Y759542D01*
X897857Y759572D01*
X897673Y759606D01*
X897490Y759645D01*
X897308Y759688D01*
X897128Y759736D01*
X896948Y759788D01*
X896770Y759845D01*
X896593Y759905D01*
X896418Y759971D01*
X896244Y760040D01*
X896072Y760114D01*
X895902Y760192D01*
X895734Y760274D01*
X895568Y760360D01*
X895404Y760450D01*
X895243Y760544D01*
X895083Y760642D01*
X894927Y760744D01*
X894772Y760850D01*
X894621Y760960D01*
X894472Y761073D01*
X894326Y761190D01*
X894183Y761310D01*
X894043Y761434D01*
X893906Y761561D01*
X893772Y761692D01*
X893641Y761826D01*
X893514Y761963D01*
X893390Y762103D01*
X893270Y762246D01*
X893153Y762392D01*
X893040Y762541D01*
X892930Y762692D01*
X892824Y762847D01*
X892722Y763003D01*
X892624Y763163D01*
X892530Y763324D01*
X892440Y763488D01*
X892354Y763654D01*
X892272Y763822D01*
X892194Y763992D01*
X892120Y764164D01*
X892051Y764338D01*
X891985Y764513D01*
X891925Y764690D01*
X891868Y764868D01*
X891816Y765048D01*
X891768Y765228D01*
X891725Y765410D01*
X891686Y765593D01*
X891652Y765777D01*
X891622Y765962D01*
X891597Y766147D01*
X891577Y766333D01*
X891561Y766519D01*
X891549Y766706D01*
X891542Y766893D01*
X891540Y767080D01*
D14*
X847725Y808362D02*
X851538Y812175D01*
X851538Y800735D01*
X847725Y800735D02*
X855352Y800735D01*
X939165Y800735D02*
X946792Y800735D01*
X939165Y800735D02*
X946792Y808362D01*
X946792Y810268D01*
X944885Y812175D01*
X941072Y812175D01*
X939165Y810268D01*
X849632Y732165D02*
X847725Y730258D01*
X849632Y732165D02*
X853445Y732165D01*
X855352Y730258D01*
X855352Y728352D01*
X853445Y726445D01*
X851538Y726445D01*
X853445Y726445D02*
X855352Y724538D01*
X855352Y722632D01*
X853445Y720725D01*
X849632Y720725D01*
X847725Y722632D01*
X946155Y720725D02*
X946155Y732165D01*
X940435Y726445D01*
X948062Y726445D01*
D15*
X932815Y828040D03*
X865505Y828040D03*
X932815Y706120D03*
X865505Y706120D03*
D10*
X201930Y78740D02*
X189230Y78740D01*
X182880Y85090D01*
X182880Y97790D02*
X189230Y104140D01*
X227330Y78740D02*
X233680Y85090D01*
X227330Y78740D02*
X214630Y78740D01*
X208280Y85090D01*
X208280Y97790D02*
X214630Y104140D01*
X227330Y104140D01*
X233680Y97790D01*
X208280Y85090D02*
X201930Y78740D01*
X208280Y97790D02*
X201930Y104140D01*
X189230Y104140D01*
X265430Y78740D02*
X278130Y78740D01*
X265430Y78740D02*
X259080Y85090D01*
X259080Y97790D02*
X265430Y104140D01*
X259080Y85090D02*
X252730Y78740D01*
X240030Y78740D01*
X233680Y85090D01*
X233680Y97790D02*
X240030Y104140D01*
X252730Y104140D01*
X259080Y97790D01*
X303530Y78740D02*
X309880Y85090D01*
X303530Y78740D02*
X290830Y78740D01*
X284480Y85090D01*
X284480Y97790D02*
X290830Y104140D01*
X303530Y104140D01*
X309880Y97790D01*
X284480Y85090D02*
X278130Y78740D01*
X284480Y97790D02*
X278130Y104140D01*
X265430Y104140D01*
X341630Y78740D02*
X354330Y78740D01*
X341630Y78740D02*
X335280Y85090D01*
X335280Y97790D02*
X341630Y104140D01*
X335280Y85090D02*
X328930Y78740D01*
X316230Y78740D01*
X309880Y85090D01*
X309880Y97790D02*
X316230Y104140D01*
X328930Y104140D01*
X335280Y97790D01*
X360680Y97790D02*
X360680Y85090D01*
X354330Y78740D01*
X360680Y97790D02*
X354330Y104140D01*
X341630Y104140D01*
X176530Y78740D02*
X163830Y78740D01*
X157480Y85090D01*
X157480Y97790D02*
X163830Y104140D01*
X182880Y85090D02*
X176530Y78740D01*
X182880Y97790D02*
X176530Y104140D01*
X163830Y104140D01*
X151130Y78740D02*
X138430Y78740D01*
X132080Y85090D01*
X132080Y97790D02*
X138430Y104140D01*
X157480Y85090D02*
X151130Y78740D01*
X157480Y97790D02*
X151130Y104140D01*
X138430Y104140D01*
X125730Y78740D02*
X113030Y78740D01*
X106680Y85090D01*
X106680Y97790D02*
X113030Y104140D01*
X132080Y85090D02*
X125730Y78740D01*
X132080Y97790D02*
X125730Y104140D01*
X113030Y104140D01*
X100330Y78740D02*
X87630Y78740D01*
X81280Y85090D01*
X81280Y97790D01*
X87630Y104140D01*
X106680Y85090D02*
X100330Y78740D01*
X106680Y97790D02*
X100330Y104140D01*
X87630Y104140D01*
X504190Y574040D02*
X516890Y574040D01*
X523240Y567690D01*
X523240Y554990D02*
X516890Y548640D01*
X478790Y574040D02*
X472440Y567690D01*
X478790Y574040D02*
X491490Y574040D01*
X497840Y567690D01*
X497840Y554990D02*
X491490Y548640D01*
X478790Y548640D01*
X472440Y554990D01*
X497840Y567690D02*
X504190Y574040D01*
X497840Y554990D02*
X504190Y548640D01*
X516890Y548640D01*
X440690Y574040D02*
X427990Y574040D01*
X440690Y574040D02*
X447040Y567690D01*
X447040Y554990D02*
X440690Y548640D01*
X447040Y567690D02*
X453390Y574040D01*
X466090Y574040D01*
X472440Y567690D01*
X472440Y554990D02*
X466090Y548640D01*
X453390Y548640D01*
X447040Y554990D01*
X402590Y574040D02*
X396240Y567690D01*
X402590Y574040D02*
X415290Y574040D01*
X421640Y567690D01*
X421640Y554990D02*
X415290Y548640D01*
X402590Y548640D01*
X396240Y554990D01*
X421640Y567690D02*
X427990Y574040D01*
X421640Y554990D02*
X427990Y548640D01*
X440690Y548640D01*
X364490Y574040D02*
X351790Y574040D01*
X364490Y574040D02*
X370840Y567690D01*
X370840Y554990D02*
X364490Y548640D01*
X370840Y567690D02*
X377190Y574040D01*
X389890Y574040D01*
X396240Y567690D01*
X396240Y554990D02*
X389890Y548640D01*
X377190Y548640D01*
X370840Y554990D01*
X345440Y554990D02*
X345440Y567690D01*
X351790Y574040D01*
X345440Y554990D02*
X351790Y548640D01*
X364490Y548640D01*
X681990Y574040D02*
X694690Y574040D01*
X701040Y567690D01*
X701040Y554990D02*
X694690Y548640D01*
X656590Y574040D02*
X650240Y567690D01*
X656590Y574040D02*
X669290Y574040D01*
X675640Y567690D01*
X675640Y554990D02*
X669290Y548640D01*
X656590Y548640D01*
X650240Y554990D01*
X675640Y567690D02*
X681990Y574040D01*
X675640Y554990D02*
X681990Y548640D01*
X694690Y548640D01*
X618490Y574040D02*
X605790Y574040D01*
X618490Y574040D02*
X624840Y567690D01*
X624840Y554990D02*
X618490Y548640D01*
X624840Y567690D02*
X631190Y574040D01*
X643890Y574040D01*
X650240Y567690D01*
X650240Y554990D02*
X643890Y548640D01*
X631190Y548640D01*
X624840Y554990D01*
X580390Y574040D02*
X574040Y567690D01*
X580390Y574040D02*
X593090Y574040D01*
X599440Y567690D01*
X599440Y554990D02*
X593090Y548640D01*
X580390Y548640D01*
X574040Y554990D01*
X599440Y567690D02*
X605790Y574040D01*
X599440Y554990D02*
X605790Y548640D01*
X618490Y548640D01*
X542290Y574040D02*
X529590Y574040D01*
X542290Y574040D02*
X548640Y567690D01*
X548640Y554990D02*
X542290Y548640D01*
X548640Y567690D02*
X554990Y574040D01*
X567690Y574040D01*
X574040Y567690D01*
X574040Y554990D02*
X567690Y548640D01*
X554990Y548640D01*
X548640Y554990D01*
X529590Y574040D02*
X523240Y567690D01*
X523240Y554990D02*
X529590Y548640D01*
X542290Y548640D01*
X701040Y567690D02*
X707390Y574040D01*
X720090Y574040D01*
X726440Y567690D01*
X726440Y554990D01*
X720090Y548640D01*
X707390Y548640D01*
X701040Y554990D01*
X252730Y304800D02*
X240030Y304800D01*
X252730Y304800D02*
X259080Y298450D01*
X259080Y285750D02*
X252730Y279400D01*
X214630Y304800D02*
X208280Y298450D01*
X214630Y304800D02*
X227330Y304800D01*
X233680Y298450D01*
X233680Y285750D02*
X227330Y279400D01*
X214630Y279400D01*
X208280Y285750D01*
X233680Y298450D02*
X240030Y304800D01*
X233680Y285750D02*
X240030Y279400D01*
X252730Y279400D01*
X176530Y304800D02*
X163830Y304800D01*
X176530Y304800D02*
X182880Y298450D01*
X182880Y285750D02*
X176530Y279400D01*
X182880Y298450D02*
X189230Y304800D01*
X201930Y304800D01*
X208280Y298450D01*
X208280Y285750D02*
X201930Y279400D01*
X189230Y279400D01*
X182880Y285750D01*
X138430Y304800D02*
X132080Y298450D01*
X138430Y304800D02*
X151130Y304800D01*
X157480Y298450D01*
X157480Y285750D02*
X151130Y279400D01*
X138430Y279400D01*
X132080Y285750D01*
X157480Y298450D02*
X163830Y304800D01*
X157480Y285750D02*
X163830Y279400D01*
X176530Y279400D01*
X100330Y304800D02*
X87630Y304800D01*
X100330Y304800D02*
X106680Y298450D01*
X106680Y285750D02*
X100330Y279400D01*
X106680Y298450D02*
X113030Y304800D01*
X125730Y304800D01*
X132080Y298450D01*
X132080Y285750D02*
X125730Y279400D01*
X113030Y279400D01*
X106680Y285750D01*
X81280Y285750D02*
X81280Y298450D01*
X87630Y304800D01*
X81280Y285750D02*
X87630Y279400D01*
X100330Y279400D01*
X417830Y304800D02*
X430530Y304800D01*
X436880Y298450D01*
X436880Y285750D02*
X430530Y279400D01*
X392430Y304800D02*
X386080Y298450D01*
X392430Y304800D02*
X405130Y304800D01*
X411480Y298450D01*
X411480Y285750D02*
X405130Y279400D01*
X392430Y279400D01*
X386080Y285750D01*
X411480Y298450D02*
X417830Y304800D01*
X411480Y285750D02*
X417830Y279400D01*
X430530Y279400D01*
X354330Y304800D02*
X341630Y304800D01*
X354330Y304800D02*
X360680Y298450D01*
X360680Y285750D02*
X354330Y279400D01*
X360680Y298450D02*
X367030Y304800D01*
X379730Y304800D01*
X386080Y298450D01*
X386080Y285750D02*
X379730Y279400D01*
X367030Y279400D01*
X360680Y285750D01*
X316230Y304800D02*
X309880Y298450D01*
X316230Y304800D02*
X328930Y304800D01*
X335280Y298450D01*
X335280Y285750D02*
X328930Y279400D01*
X316230Y279400D01*
X309880Y285750D01*
X335280Y298450D02*
X341630Y304800D01*
X335280Y285750D02*
X341630Y279400D01*
X354330Y279400D01*
X278130Y304800D02*
X265430Y304800D01*
X278130Y304800D02*
X284480Y298450D01*
X284480Y285750D02*
X278130Y279400D01*
X284480Y298450D02*
X290830Y304800D01*
X303530Y304800D01*
X309880Y298450D01*
X309880Y285750D02*
X303530Y279400D01*
X290830Y279400D01*
X284480Y285750D01*
X265430Y304800D02*
X259080Y298450D01*
X259080Y285750D02*
X265430Y279400D01*
X278130Y279400D01*
X436880Y298450D02*
X443230Y304800D01*
X455930Y304800D01*
X462280Y298450D01*
X462280Y285750D01*
X455930Y279400D01*
X443230Y279400D01*
X436880Y285750D01*
X798830Y434340D02*
X805180Y440690D01*
X798830Y434340D02*
X786130Y434340D01*
X779780Y440690D01*
X779780Y453390D02*
X786130Y459740D01*
X798830Y459740D01*
X805180Y453390D01*
X836930Y434340D02*
X849630Y434340D01*
X836930Y434340D02*
X830580Y440690D01*
X830580Y453390D02*
X836930Y459740D01*
X830580Y440690D02*
X824230Y434340D01*
X811530Y434340D01*
X805180Y440690D01*
X805180Y453390D02*
X811530Y459740D01*
X824230Y459740D01*
X830580Y453390D01*
X855980Y453390D02*
X855980Y440690D01*
X849630Y434340D01*
X855980Y453390D02*
X849630Y459740D01*
X836930Y459740D01*
X779780Y453390D02*
X779780Y440690D01*
X62230Y304800D02*
X55880Y298450D01*
X62230Y304800D02*
X74930Y304800D01*
X81280Y298450D01*
X81280Y285750D02*
X74930Y279400D01*
X62230Y279400D01*
X55880Y285750D01*
X24130Y304800D02*
X11430Y304800D01*
X24130Y304800D02*
X30480Y298450D01*
X30480Y285750D02*
X24130Y279400D01*
X30480Y298450D02*
X36830Y304800D01*
X49530Y304800D01*
X55880Y298450D01*
X55880Y285750D02*
X49530Y279400D01*
X36830Y279400D01*
X30480Y285750D01*
X5080Y285750D02*
X5080Y298450D01*
X11430Y304800D01*
X5080Y285750D02*
X11430Y279400D01*
X24130Y279400D01*
X81280Y285750D02*
X81280Y298450D01*
X312420Y641350D02*
X318770Y647700D01*
X331470Y647700D01*
X337820Y641350D01*
X337820Y628650D02*
X331470Y622300D01*
X318770Y622300D01*
X312420Y628650D01*
X280670Y647700D02*
X267970Y647700D01*
X280670Y647700D02*
X287020Y641350D01*
X287020Y628650D02*
X280670Y622300D01*
X287020Y641350D02*
X293370Y647700D01*
X306070Y647700D01*
X312420Y641350D01*
X312420Y628650D02*
X306070Y622300D01*
X293370Y622300D01*
X287020Y628650D01*
X261620Y628650D02*
X261620Y641350D01*
X267970Y647700D01*
X261620Y628650D02*
X267970Y622300D01*
X280670Y622300D01*
X337820Y628650D02*
X337820Y641350D01*
X697230Y431800D02*
X703580Y438150D01*
X697230Y431800D02*
X684530Y431800D01*
X678180Y438150D01*
X678180Y450850D02*
X684530Y457200D01*
X697230Y457200D01*
X703580Y450850D01*
X735330Y431800D02*
X748030Y431800D01*
X735330Y431800D02*
X728980Y438150D01*
X728980Y450850D02*
X735330Y457200D01*
X728980Y438150D02*
X722630Y431800D01*
X709930Y431800D01*
X703580Y438150D01*
X703580Y450850D02*
X709930Y457200D01*
X722630Y457200D01*
X728980Y450850D01*
X754380Y450850D02*
X754380Y438150D01*
X748030Y431800D01*
X754380Y450850D02*
X748030Y457200D01*
X735330Y457200D01*
X678180Y450850D02*
X678180Y438150D01*
X86360Y656590D02*
X80010Y650240D01*
X67310Y650240D01*
X60960Y656590D01*
X60960Y669290D02*
X67310Y675640D01*
X80010Y675640D01*
X86360Y669290D01*
X118110Y650240D02*
X130810Y650240D01*
X118110Y650240D02*
X111760Y656590D01*
X111760Y669290D02*
X118110Y675640D01*
X111760Y656590D02*
X105410Y650240D01*
X92710Y650240D01*
X86360Y656590D01*
X86360Y669290D02*
X92710Y675640D01*
X105410Y675640D01*
X111760Y669290D01*
X137160Y669290D02*
X137160Y656590D01*
X130810Y650240D01*
X137160Y669290D02*
X130810Y675640D01*
X118110Y675640D01*
X60960Y669290D02*
X60960Y656590D01*
X538480Y298450D02*
X544830Y304800D01*
X557530Y304800D01*
X563880Y298450D01*
X563880Y285750D02*
X557530Y279400D01*
X544830Y279400D01*
X538480Y285750D01*
X506730Y304800D02*
X494030Y304800D01*
X506730Y304800D02*
X513080Y298450D01*
X513080Y285750D02*
X506730Y279400D01*
X513080Y298450D02*
X519430Y304800D01*
X532130Y304800D01*
X538480Y298450D01*
X538480Y285750D02*
X532130Y279400D01*
X519430Y279400D01*
X513080Y285750D01*
X487680Y285750D02*
X487680Y298450D01*
X494030Y304800D01*
X487680Y285750D02*
X494030Y279400D01*
X506730Y279400D01*
X563880Y285750D02*
X563880Y298450D01*
X580390Y421640D02*
X586740Y427990D01*
X580390Y421640D02*
X567690Y421640D01*
X561340Y427990D01*
X561340Y440690D02*
X567690Y447040D01*
X580390Y447040D01*
X586740Y440690D01*
X618490Y421640D02*
X631190Y421640D01*
X618490Y421640D02*
X612140Y427990D01*
X612140Y440690D02*
X618490Y447040D01*
X612140Y427990D02*
X605790Y421640D01*
X593090Y421640D01*
X586740Y427990D01*
X586740Y440690D02*
X593090Y447040D01*
X605790Y447040D01*
X612140Y440690D01*
X637540Y440690D02*
X637540Y427990D01*
X631190Y421640D01*
X637540Y440690D02*
X631190Y447040D01*
X618490Y447040D01*
X561340Y440690D02*
X561340Y427990D01*
X595630Y279400D02*
X608330Y279400D01*
X595630Y279400D02*
X589280Y285750D01*
X589280Y298450D02*
X595630Y304800D01*
X589280Y285750D02*
X582930Y279400D01*
X570230Y279400D01*
X563880Y285750D01*
X563880Y298450D02*
X570230Y304800D01*
X582930Y304800D01*
X589280Y298450D01*
X614680Y298450D02*
X614680Y285750D01*
X608330Y279400D01*
X614680Y298450D02*
X608330Y304800D01*
X595630Y304800D01*
X563880Y298450D02*
X563880Y285750D01*
X157480Y768350D02*
X157480Y781050D01*
X157480Y768350D02*
X151130Y762000D01*
X138430Y762000D02*
X132080Y768350D01*
X151130Y762000D02*
X157480Y755650D01*
X157480Y742950D01*
X151130Y736600D01*
X138430Y736600D02*
X132080Y742950D01*
X132080Y755650D01*
X138430Y762000D01*
X138430Y787400D02*
X151130Y787400D01*
X157480Y781050D01*
X138430Y787400D02*
X132080Y781050D01*
X132080Y768350D01*
X138430Y736600D02*
X151130Y736600D01*
X307340Y471170D02*
X307340Y458470D01*
X307340Y471170D02*
X313690Y477520D01*
X326390Y477520D02*
X332740Y471170D01*
X307340Y433070D02*
X313690Y426720D01*
X307340Y433070D02*
X307340Y445770D01*
X313690Y452120D01*
X326390Y452120D02*
X332740Y445770D01*
X332740Y433070D01*
X326390Y426720D01*
X313690Y452120D02*
X307340Y458470D01*
X326390Y452120D02*
X332740Y458470D01*
X332740Y471170D01*
X307340Y394970D02*
X307340Y382270D01*
X307340Y394970D02*
X313690Y401320D01*
X326390Y401320D02*
X332740Y394970D01*
X313690Y401320D02*
X307340Y407670D01*
X307340Y420370D01*
X313690Y426720D01*
X326390Y426720D02*
X332740Y420370D01*
X332740Y407670D01*
X326390Y401320D01*
X307340Y356870D02*
X313690Y350520D01*
X307340Y356870D02*
X307340Y369570D01*
X313690Y375920D01*
X326390Y375920D02*
X332740Y369570D01*
X332740Y356870D01*
X326390Y350520D01*
X313690Y375920D02*
X307340Y382270D01*
X326390Y375920D02*
X332740Y382270D01*
X332740Y394970D01*
X307340Y318770D02*
X307340Y306070D01*
X307340Y318770D02*
X313690Y325120D01*
X326390Y325120D02*
X332740Y318770D01*
X313690Y325120D02*
X307340Y331470D01*
X307340Y344170D01*
X313690Y350520D01*
X326390Y350520D02*
X332740Y344170D01*
X332740Y331470D01*
X326390Y325120D01*
X326390Y299720D02*
X313690Y299720D01*
X307340Y306070D01*
X326390Y299720D02*
X332740Y306070D01*
X332740Y318770D01*
X307340Y636270D02*
X307340Y648970D01*
X313690Y655320D01*
X326390Y655320D02*
X332740Y648970D01*
X307340Y610870D02*
X313690Y604520D01*
X307340Y610870D02*
X307340Y623570D01*
X313690Y629920D01*
X326390Y629920D02*
X332740Y623570D01*
X332740Y610870D01*
X326390Y604520D01*
X313690Y629920D02*
X307340Y636270D01*
X326390Y629920D02*
X332740Y636270D01*
X332740Y648970D01*
X307340Y572770D02*
X307340Y560070D01*
X307340Y572770D02*
X313690Y579120D01*
X326390Y579120D02*
X332740Y572770D01*
X313690Y579120D02*
X307340Y585470D01*
X307340Y598170D01*
X313690Y604520D01*
X326390Y604520D02*
X332740Y598170D01*
X332740Y585470D01*
X326390Y579120D01*
X307340Y534670D02*
X313690Y528320D01*
X307340Y534670D02*
X307340Y547370D01*
X313690Y553720D01*
X326390Y553720D02*
X332740Y547370D01*
X332740Y534670D01*
X326390Y528320D01*
X313690Y553720D02*
X307340Y560070D01*
X326390Y553720D02*
X332740Y560070D01*
X332740Y572770D01*
X307340Y496570D02*
X307340Y483870D01*
X307340Y496570D02*
X313690Y502920D01*
X326390Y502920D02*
X332740Y496570D01*
X313690Y502920D02*
X307340Y509270D01*
X307340Y521970D01*
X313690Y528320D01*
X326390Y528320D02*
X332740Y521970D01*
X332740Y509270D01*
X326390Y502920D01*
X307340Y483870D02*
X313690Y477520D01*
X326390Y477520D02*
X332740Y483870D01*
X332740Y496570D01*
X313690Y655320D02*
X307340Y661670D01*
X307340Y674370D01*
X313690Y680720D01*
X326390Y680720D01*
X332740Y674370D01*
X332740Y661670D01*
X326390Y655320D01*
X839470Y673100D02*
X845820Y666750D01*
X839470Y673100D02*
X826770Y673100D01*
X820420Y666750D01*
X820420Y654050D01*
X826770Y647700D01*
X839470Y647700D01*
X845820Y654050D01*
X845820Y666750D01*
X839470Y619760D02*
X845820Y613410D01*
X839470Y619760D02*
X826770Y619760D01*
X820420Y613410D01*
X820420Y600710D01*
X826770Y594360D01*
X839470Y594360D01*
X845820Y600710D01*
X845820Y613410D01*
X811530Y279400D02*
X798830Y279400D01*
X792480Y285750D01*
X792480Y298450D02*
X798830Y304800D01*
X836930Y279400D02*
X843280Y285750D01*
X836930Y279400D02*
X824230Y279400D01*
X817880Y285750D01*
X817880Y298450D02*
X824230Y304800D01*
X836930Y304800D01*
X843280Y298450D01*
X817880Y285750D02*
X811530Y279400D01*
X817880Y298450D02*
X811530Y304800D01*
X798830Y304800D01*
X875030Y279400D02*
X887730Y279400D01*
X875030Y279400D02*
X868680Y285750D01*
X868680Y298450D02*
X875030Y304800D01*
X868680Y285750D02*
X862330Y279400D01*
X849630Y279400D01*
X843280Y285750D01*
X843280Y298450D02*
X849630Y304800D01*
X862330Y304800D01*
X868680Y298450D01*
X913130Y279400D02*
X919480Y285750D01*
X913130Y279400D02*
X900430Y279400D01*
X894080Y285750D01*
X894080Y298450D02*
X900430Y304800D01*
X913130Y304800D01*
X919480Y298450D01*
X894080Y285750D02*
X887730Y279400D01*
X894080Y298450D02*
X887730Y304800D01*
X875030Y304800D01*
X951230Y279400D02*
X963930Y279400D01*
X951230Y279400D02*
X944880Y285750D01*
X944880Y298450D02*
X951230Y304800D01*
X944880Y285750D02*
X938530Y279400D01*
X925830Y279400D01*
X919480Y285750D01*
X919480Y298450D02*
X925830Y304800D01*
X938530Y304800D01*
X944880Y298450D01*
X970280Y298450D02*
X970280Y285750D01*
X963930Y279400D01*
X970280Y298450D02*
X963930Y304800D01*
X951230Y304800D01*
X633730Y279400D02*
X621030Y279400D01*
X614680Y285750D01*
X614680Y298450D02*
X621030Y304800D01*
X659130Y279400D02*
X665480Y285750D01*
X659130Y279400D02*
X646430Y279400D01*
X640080Y285750D01*
X640080Y298450D02*
X646430Y304800D01*
X659130Y304800D01*
X665480Y298450D01*
X640080Y285750D02*
X633730Y279400D01*
X640080Y298450D02*
X633730Y304800D01*
X621030Y304800D01*
X697230Y279400D02*
X709930Y279400D01*
X697230Y279400D02*
X690880Y285750D01*
X690880Y298450D02*
X697230Y304800D01*
X690880Y285750D02*
X684530Y279400D01*
X671830Y279400D01*
X665480Y285750D01*
X665480Y298450D02*
X671830Y304800D01*
X684530Y304800D01*
X690880Y298450D01*
X735330Y279400D02*
X741680Y285750D01*
X735330Y279400D02*
X722630Y279400D01*
X716280Y285750D01*
X716280Y298450D02*
X722630Y304800D01*
X735330Y304800D01*
X741680Y298450D01*
X716280Y285750D02*
X709930Y279400D01*
X716280Y298450D02*
X709930Y304800D01*
X697230Y304800D01*
X773430Y279400D02*
X786130Y279400D01*
X773430Y279400D02*
X767080Y285750D01*
X767080Y298450D02*
X773430Y304800D01*
X767080Y285750D02*
X760730Y279400D01*
X748030Y279400D01*
X741680Y285750D01*
X741680Y298450D02*
X748030Y304800D01*
X760730Y304800D01*
X767080Y298450D01*
X786130Y279400D02*
X792480Y285750D01*
X792480Y298450D02*
X786130Y304800D01*
X773430Y304800D01*
X614680Y298450D02*
X614680Y285750D01*
X890270Y574040D02*
X902970Y574040D01*
X909320Y567690D01*
X909320Y554990D02*
X902970Y548640D01*
X864870Y574040D02*
X858520Y567690D01*
X864870Y574040D02*
X877570Y574040D01*
X883920Y567690D01*
X883920Y554990D02*
X877570Y548640D01*
X864870Y548640D01*
X858520Y554990D01*
X883920Y567690D02*
X890270Y574040D01*
X883920Y554990D02*
X890270Y548640D01*
X902970Y548640D01*
X826770Y574040D02*
X814070Y574040D01*
X826770Y574040D02*
X833120Y567690D01*
X833120Y554990D02*
X826770Y548640D01*
X833120Y567690D02*
X839470Y574040D01*
X852170Y574040D01*
X858520Y567690D01*
X858520Y554990D02*
X852170Y548640D01*
X839470Y548640D01*
X833120Y554990D01*
X788670Y574040D02*
X782320Y567690D01*
X788670Y574040D02*
X801370Y574040D01*
X807720Y567690D01*
X807720Y554990D02*
X801370Y548640D01*
X788670Y548640D01*
X782320Y554990D01*
X807720Y567690D02*
X814070Y574040D01*
X807720Y554990D02*
X814070Y548640D01*
X826770Y548640D01*
X750570Y574040D02*
X737870Y574040D01*
X750570Y574040D02*
X756920Y567690D01*
X756920Y554990D02*
X750570Y548640D01*
X756920Y567690D02*
X763270Y574040D01*
X775970Y574040D01*
X782320Y567690D01*
X782320Y554990D02*
X775970Y548640D01*
X763270Y548640D01*
X756920Y554990D01*
X731520Y554990D02*
X731520Y567690D01*
X737870Y574040D01*
X731520Y554990D02*
X737870Y548640D01*
X750570Y548640D01*
X915670Y574040D02*
X928370Y574040D01*
X934720Y567690D01*
X934720Y554990D02*
X928370Y548640D01*
X909320Y567690D02*
X915670Y574040D01*
X909320Y554990D02*
X915670Y548640D01*
X928370Y548640D01*
X941070Y574040D02*
X953770Y574040D01*
X960120Y567690D01*
X960120Y554990D02*
X953770Y548640D01*
X934720Y567690D02*
X941070Y574040D01*
X934720Y554990D02*
X941070Y548640D01*
X953770Y548640D01*
X966470Y574040D02*
X979170Y574040D01*
X985520Y567690D01*
X985520Y554990D01*
X979170Y548640D01*
X960120Y567690D02*
X966470Y574040D01*
X960120Y554990D02*
X966470Y548640D01*
X979170Y548640D01*
X567690Y746760D02*
X554990Y746760D01*
X548640Y753110D01*
X548640Y765810D02*
X554990Y772160D01*
X593090Y746760D02*
X599440Y753110D01*
X593090Y746760D02*
X580390Y746760D01*
X574040Y753110D01*
X574040Y765810D02*
X580390Y772160D01*
X593090Y772160D01*
X599440Y765810D01*
X574040Y753110D02*
X567690Y746760D01*
X574040Y765810D02*
X567690Y772160D01*
X554990Y772160D01*
X631190Y746760D02*
X643890Y746760D01*
X631190Y746760D02*
X624840Y753110D01*
X624840Y765810D02*
X631190Y772160D01*
X624840Y753110D02*
X618490Y746760D01*
X605790Y746760D01*
X599440Y753110D01*
X599440Y765810D02*
X605790Y772160D01*
X618490Y772160D01*
X624840Y765810D01*
X650240Y765810D02*
X650240Y753110D01*
X643890Y746760D01*
X650240Y765810D02*
X643890Y772160D01*
X631190Y772160D01*
X548640Y765810D02*
X548640Y753110D01*
X387350Y495300D02*
X393700Y488950D01*
X387350Y495300D02*
X374650Y495300D01*
X368300Y488950D01*
X368300Y476250D01*
X374650Y469900D01*
X387350Y469900D01*
X393700Y476250D01*
X393700Y488950D01*
X387350Y444500D02*
X393700Y438150D01*
X387350Y444500D02*
X374650Y444500D01*
X368300Y438150D01*
X368300Y425450D01*
X374650Y419100D01*
X387350Y419100D01*
X393700Y425450D01*
X393700Y438150D01*
X228900Y355840D02*
X75900Y355840D01*
X228900Y355840D02*
X228900Y385840D01*
X75900Y385840D01*
X75900Y355840D01*
D13*
X76150Y368340D02*
X79900Y368340D01*
X79900Y358340D01*
X224900Y368340D02*
X228650Y368340D01*
X224900Y368340D02*
X224900Y358340D01*
X79900Y374590D02*
X76150Y374590D01*
X224900Y374590D02*
X228650Y374590D01*
X79900Y374590D02*
X79900Y382090D01*
X224900Y382090D01*
X224900Y374590D01*
X224900Y382090D02*
X227400Y384590D01*
X79900Y382090D02*
X77400Y384590D01*
D16*
X152400Y357715D03*
D10*
X271780Y440690D02*
X278130Y434340D01*
X271780Y440690D02*
X271780Y453390D01*
X278130Y459740D01*
X290830Y459740D02*
X297180Y453390D01*
X297180Y440690D01*
X290830Y434340D01*
X271780Y402590D02*
X271780Y389890D01*
X271780Y402590D02*
X278130Y408940D01*
X290830Y408940D02*
X297180Y402590D01*
X278130Y408940D02*
X271780Y415290D01*
X271780Y427990D01*
X278130Y434340D01*
X290830Y434340D02*
X297180Y427990D01*
X297180Y415290D01*
X290830Y408940D01*
X290830Y383540D02*
X278130Y383540D01*
X271780Y389890D01*
X290830Y383540D02*
X297180Y389890D01*
X297180Y402590D01*
X290830Y459740D02*
X278130Y459740D01*
X43180Y397510D02*
X36830Y403860D01*
X43180Y397510D02*
X43180Y384810D01*
X36830Y378460D01*
X24130Y378460D02*
X17780Y384810D01*
X17780Y397510D01*
X24130Y403860D01*
X43180Y435610D02*
X43180Y448310D01*
X43180Y435610D02*
X36830Y429260D01*
X24130Y429260D02*
X17780Y435610D01*
X36830Y429260D02*
X43180Y422910D01*
X43180Y410210D01*
X36830Y403860D01*
X24130Y403860D02*
X17780Y410210D01*
X17780Y422910D01*
X24130Y429260D01*
X24130Y454660D02*
X36830Y454660D01*
X43180Y448310D01*
X24130Y454660D02*
X17780Y448310D01*
X17780Y435610D01*
X24130Y378460D02*
X36830Y378460D01*
X100330Y541020D02*
X113030Y541020D01*
X100330Y541020D02*
X93980Y547370D01*
X93980Y560070D02*
X100330Y566420D01*
X93980Y547370D02*
X87630Y541020D01*
X74930Y541020D01*
X68580Y547370D01*
X68580Y560070D02*
X74930Y566420D01*
X87630Y566420D01*
X93980Y560070D01*
X119380Y560070D02*
X119380Y547370D01*
X113030Y541020D01*
X119380Y560070D02*
X113030Y566420D01*
X100330Y566420D01*
X68580Y560070D02*
X68580Y547370D01*
X224790Y535940D02*
X231140Y542290D01*
X224790Y535940D02*
X212090Y535940D01*
X205740Y542290D01*
X205740Y554990D02*
X212090Y561340D01*
X224790Y561340D01*
X231140Y554990D01*
X262890Y535940D02*
X275590Y535940D01*
X262890Y535940D02*
X256540Y542290D01*
X256540Y554990D02*
X262890Y561340D01*
X256540Y542290D02*
X250190Y535940D01*
X237490Y535940D01*
X231140Y542290D01*
X231140Y554990D02*
X237490Y561340D01*
X250190Y561340D01*
X256540Y554990D01*
X281940Y554990D02*
X281940Y542290D01*
X275590Y535940D01*
X281940Y554990D02*
X275590Y561340D01*
X262890Y561340D01*
X205740Y554990D02*
X205740Y542290D01*
X176530Y647700D02*
X163830Y647700D01*
X176530Y647700D02*
X182880Y641350D01*
X182880Y628650D02*
X176530Y622300D01*
X138430Y647700D02*
X132080Y641350D01*
X138430Y647700D02*
X151130Y647700D01*
X157480Y641350D01*
X157480Y628650D02*
X151130Y622300D01*
X138430Y622300D01*
X132080Y628650D01*
X157480Y641350D02*
X163830Y647700D01*
X157480Y628650D02*
X163830Y622300D01*
X176530Y622300D01*
X100330Y647700D02*
X87630Y647700D01*
X100330Y647700D02*
X106680Y641350D01*
X106680Y628650D02*
X100330Y622300D01*
X106680Y641350D02*
X113030Y647700D01*
X125730Y647700D01*
X132080Y641350D01*
X132080Y628650D02*
X125730Y622300D01*
X113030Y622300D01*
X106680Y628650D01*
X62230Y647700D02*
X55880Y641350D01*
X62230Y647700D02*
X74930Y647700D01*
X81280Y641350D01*
X81280Y628650D02*
X74930Y622300D01*
X62230Y622300D01*
X55880Y628650D01*
X81280Y641350D02*
X87630Y647700D01*
X81280Y628650D02*
X87630Y622300D01*
X100330Y622300D01*
X24130Y647700D02*
X11430Y647700D01*
X24130Y647700D02*
X30480Y641350D01*
X30480Y628650D02*
X24130Y622300D01*
X30480Y641350D02*
X36830Y647700D01*
X49530Y647700D01*
X55880Y641350D01*
X55880Y628650D02*
X49530Y622300D01*
X36830Y622300D01*
X30480Y628650D01*
X5080Y628650D02*
X5080Y641350D01*
X11430Y647700D01*
X5080Y628650D02*
X11430Y622300D01*
X24130Y622300D01*
X189230Y647700D02*
X201930Y647700D01*
X208280Y641350D01*
X208280Y628650D02*
X201930Y622300D01*
X182880Y641350D02*
X189230Y647700D01*
X182880Y628650D02*
X189230Y622300D01*
X201930Y622300D01*
X214630Y647700D02*
X227330Y647700D01*
X233680Y641350D01*
X233680Y628650D02*
X227330Y622300D01*
X208280Y641350D02*
X214630Y647700D01*
X208280Y628650D02*
X214630Y622300D01*
X227330Y622300D01*
X240030Y647700D02*
X252730Y647700D01*
X259080Y641350D01*
X259080Y628650D01*
X252730Y622300D01*
X233680Y641350D02*
X240030Y647700D01*
X233680Y628650D02*
X240030Y622300D01*
X252730Y622300D01*
X182880Y783590D02*
X182880Y796290D01*
X189230Y802640D01*
X201930Y802640D02*
X208280Y796290D01*
X182880Y758190D02*
X189230Y751840D01*
X182880Y758190D02*
X182880Y770890D01*
X189230Y777240D01*
X201930Y777240D02*
X208280Y770890D01*
X208280Y758190D01*
X201930Y751840D01*
X189230Y777240D02*
X182880Y783590D01*
X201930Y777240D02*
X208280Y783590D01*
X208280Y796290D01*
X182880Y720090D02*
X182880Y707390D01*
X182880Y720090D02*
X189230Y726440D01*
X201930Y726440D02*
X208280Y720090D01*
X189230Y726440D02*
X182880Y732790D01*
X182880Y745490D01*
X189230Y751840D01*
X201930Y751840D02*
X208280Y745490D01*
X208280Y732790D01*
X201930Y726440D01*
X182880Y681990D02*
X189230Y675640D01*
X182880Y681990D02*
X182880Y694690D01*
X189230Y701040D01*
X201930Y701040D02*
X208280Y694690D01*
X208280Y681990D01*
X201930Y675640D01*
X189230Y701040D02*
X182880Y707390D01*
X201930Y701040D02*
X208280Y707390D01*
X208280Y720090D01*
X182880Y643890D02*
X182880Y631190D01*
X182880Y643890D02*
X189230Y650240D01*
X201930Y650240D02*
X208280Y643890D01*
X189230Y650240D02*
X182880Y656590D01*
X182880Y669290D01*
X189230Y675640D01*
X201930Y675640D02*
X208280Y669290D01*
X208280Y656590D01*
X201930Y650240D01*
X201930Y624840D02*
X189230Y624840D01*
X182880Y631190D01*
X201930Y624840D02*
X208280Y631190D01*
X208280Y643890D01*
X182880Y808990D02*
X182880Y821690D01*
X189230Y828040D01*
X201930Y828040D01*
X208280Y821690D01*
X189230Y802640D02*
X182880Y808990D01*
X201930Y802640D02*
X208280Y808990D01*
X208280Y821690D01*
X450850Y495300D02*
X457200Y488950D01*
X450850Y495300D02*
X438150Y495300D01*
X431800Y488950D01*
X431800Y476250D01*
X438150Y469900D01*
X450850Y469900D01*
X457200Y476250D01*
X457200Y488950D01*
X453390Y436880D02*
X459740Y430530D01*
X453390Y436880D02*
X440690Y436880D01*
X434340Y430530D01*
X434340Y417830D01*
X440690Y411480D01*
X453390Y411480D01*
X459740Y417830D01*
X459740Y430530D01*
D14*
X886459Y130931D02*
X887092Y130999D01*
X887722Y131082D01*
X888350Y131181D01*
X888976Y131294D01*
X889598Y131422D01*
X890218Y131564D01*
X890834Y131722D01*
X891446Y131894D01*
X892054Y132081D01*
X892657Y132282D01*
X893255Y132497D01*
X893848Y132727D01*
X894435Y132970D01*
X895016Y133228D01*
X895591Y133499D01*
X896160Y133784D01*
X896721Y134083D01*
X897275Y134395D01*
X897822Y134720D01*
X898360Y135057D01*
X898890Y135408D01*
X899412Y135771D01*
X899925Y136147D01*
X900429Y136534D01*
X886460Y130931D02*
X885811Y130877D01*
X885162Y130839D01*
X884511Y130817D01*
X883860Y130810D01*
X883209Y130819D01*
X882559Y130845D01*
X881909Y130886D01*
X881261Y130943D01*
X880614Y131016D01*
X879969Y131104D01*
X879326Y131209D01*
X878686Y131329D01*
X878050Y131464D01*
X877416Y131615D01*
X876787Y131782D01*
X876162Y131963D01*
X875541Y132160D01*
X874926Y132372D01*
X874316Y132599D01*
X873711Y132841D01*
X873113Y133098D01*
X872521Y133369D01*
X871936Y133654D01*
X871358Y133954D01*
X870788Y134267D01*
X870225Y134595D01*
X869671Y134936D01*
X869125Y135290D01*
X868588Y135658D01*
X868059Y136039D01*
X867541Y136432D01*
X867032Y136838D01*
X866533Y137256D01*
X866045Y137687D01*
X865567Y138129D01*
X865100Y138583D01*
X864645Y139048D01*
X864201Y139524D01*
X863768Y140010D01*
X863348Y140507D01*
X862940Y141014D01*
X862544Y141531D01*
X862161Y142058D01*
X861791Y142594D01*
X861434Y143138D01*
X861091Y143691D01*
X860761Y144252D01*
X860445Y144822D01*
X860143Y145398D01*
X859856Y145982D01*
X859582Y146573D01*
X859323Y147170D01*
X859079Y147774D01*
X858849Y148383D01*
X858635Y148997D01*
X858435Y149617D01*
X858435Y165343D02*
X858634Y165958D01*
X858846Y166569D01*
X859074Y167174D01*
X859316Y167773D01*
X859573Y168366D01*
X859844Y168953D01*
X860129Y169533D01*
X860428Y170106D01*
X860741Y170672D01*
X861068Y171230D01*
X861408Y171780D01*
X861761Y172321D01*
X862127Y172854D01*
X862506Y173377D01*
X862898Y173892D01*
X863301Y174396D01*
X863718Y174891D01*
X864145Y175376D01*
X864585Y175850D01*
X865036Y176313D01*
X865498Y176765D01*
X865971Y177206D01*
X866454Y177635D01*
X866948Y178052D01*
X867451Y178458D01*
X867964Y178851D01*
X868487Y179231D01*
X869019Y179599D01*
X869559Y179953D01*
X870108Y180295D01*
X870665Y180623D01*
X871230Y180937D01*
X871802Y181238D01*
X872381Y181525D01*
X872968Y181797D01*
X873560Y182056D01*
X874159Y182299D01*
X874763Y182529D01*
X875373Y182743D01*
X875988Y182943D01*
X876607Y183128D01*
X877231Y183298D01*
X877859Y183452D01*
X878490Y183591D01*
X879124Y183715D01*
X879762Y183824D01*
X880401Y183917D01*
X881043Y183994D01*
X881686Y184056D01*
X882331Y184103D01*
X882977Y184133D01*
X883623Y184148D01*
X884269Y184148D01*
X884916Y184131D01*
X885561Y184099D01*
X886206Y184052D01*
X886849Y183989D01*
X887491Y183910D01*
X888130Y183816D01*
X888767Y183706D01*
X889402Y183581D01*
X890033Y183440D01*
X890660Y183284D01*
X891283Y183113D01*
X891902Y182927D01*
X892517Y182726D01*
X893126Y182511D01*
X893730Y182280D01*
X894328Y182035D01*
X894920Y181776D01*
X895506Y181502D01*
X896085Y181214D01*
X896656Y180912D01*
X897221Y180597D01*
X897777Y180268D01*
X898325Y179925D01*
X898865Y179569D01*
X899396Y179201D01*
X899918Y178819D01*
X900430Y178425D01*
X900430Y136535D01*
X886460Y134943D02*
X886460Y130931D01*
X886460Y154617D02*
X886460Y160343D01*
X886460Y180017D02*
X886460Y184029D01*
D11*
X776490Y131650D02*
X676390Y131650D01*
X676390Y173150D02*
X776490Y173150D01*
X676390Y173150D02*
X676390Y131650D01*
X776490Y131650D02*
X776490Y173150D01*
D17*
X671390Y152400D03*
X781490Y152400D03*
D14*
X204469Y431174D02*
X203965Y430787D01*
X203452Y430411D01*
X202930Y430048D01*
X202400Y429697D01*
X201862Y429360D01*
X201315Y429035D01*
X200761Y428723D01*
X200200Y428424D01*
X199631Y428139D01*
X199056Y427868D01*
X198475Y427610D01*
X197888Y427367D01*
X197295Y427137D01*
X196697Y426922D01*
X196094Y426721D01*
X195486Y426534D01*
X194874Y426362D01*
X194258Y426204D01*
X193638Y426062D01*
X193016Y425934D01*
X192390Y425821D01*
X191762Y425722D01*
X191132Y425639D01*
X190499Y425571D01*
X190500Y425571D02*
X189851Y425517D01*
X189202Y425479D01*
X188551Y425457D01*
X187900Y425450D01*
X187249Y425459D01*
X186599Y425485D01*
X185949Y425526D01*
X185301Y425583D01*
X184654Y425656D01*
X184009Y425744D01*
X183366Y425849D01*
X182726Y425969D01*
X182090Y426104D01*
X181456Y426255D01*
X180827Y426422D01*
X180202Y426603D01*
X179581Y426800D01*
X178966Y427012D01*
X178356Y427239D01*
X177751Y427481D01*
X177153Y427738D01*
X176561Y428009D01*
X175976Y428294D01*
X175398Y428594D01*
X174828Y428907D01*
X174265Y429235D01*
X173711Y429576D01*
X173165Y429930D01*
X172628Y430298D01*
X172099Y430679D01*
X171581Y431072D01*
X171072Y431478D01*
X170573Y431896D01*
X170085Y432327D01*
X169607Y432769D01*
X169140Y433223D01*
X168685Y433688D01*
X168241Y434164D01*
X167808Y434650D01*
X167388Y435147D01*
X166980Y435654D01*
X166584Y436171D01*
X166201Y436698D01*
X165831Y437234D01*
X165474Y437778D01*
X165131Y438331D01*
X164801Y438892D01*
X164485Y439462D01*
X164183Y440038D01*
X163896Y440622D01*
X163622Y441213D01*
X163363Y441810D01*
X163119Y442414D01*
X162889Y443023D01*
X162675Y443637D01*
X162475Y444257D01*
X162475Y459983D02*
X162674Y460598D01*
X162886Y461209D01*
X163114Y461814D01*
X163356Y462413D01*
X163613Y463006D01*
X163884Y463593D01*
X164169Y464173D01*
X164468Y464746D01*
X164781Y465312D01*
X165108Y465870D01*
X165448Y466420D01*
X165801Y466961D01*
X166167Y467494D01*
X166546Y468017D01*
X166938Y468532D01*
X167341Y469036D01*
X167758Y469531D01*
X168185Y470016D01*
X168625Y470490D01*
X169076Y470953D01*
X169538Y471405D01*
X170011Y471846D01*
X170494Y472275D01*
X170988Y472692D01*
X171491Y473098D01*
X172004Y473491D01*
X172527Y473871D01*
X173059Y474239D01*
X173599Y474593D01*
X174148Y474935D01*
X174705Y475263D01*
X175270Y475577D01*
X175842Y475878D01*
X176421Y476165D01*
X177008Y476437D01*
X177600Y476696D01*
X178199Y476939D01*
X178803Y477169D01*
X179413Y477383D01*
X180028Y477583D01*
X180647Y477768D01*
X181271Y477938D01*
X181899Y478092D01*
X182530Y478231D01*
X183164Y478355D01*
X183802Y478464D01*
X184441Y478557D01*
X185083Y478634D01*
X185726Y478696D01*
X186371Y478743D01*
X187017Y478773D01*
X187663Y478788D01*
X188309Y478788D01*
X188956Y478771D01*
X189601Y478739D01*
X190246Y478692D01*
X190889Y478629D01*
X191531Y478550D01*
X192170Y478456D01*
X192807Y478346D01*
X193442Y478221D01*
X194073Y478080D01*
X194700Y477924D01*
X195323Y477753D01*
X195942Y477567D01*
X196557Y477366D01*
X197166Y477151D01*
X197770Y476920D01*
X198368Y476675D01*
X198960Y476416D01*
X199546Y476142D01*
X200125Y475854D01*
X200696Y475552D01*
X201261Y475237D01*
X201817Y474908D01*
X202365Y474565D01*
X202905Y474209D01*
X203436Y473841D01*
X203958Y473459D01*
X204470Y473065D01*
X204470Y431175D01*
X190500Y429583D02*
X190500Y425571D01*
X190500Y449257D02*
X190500Y454983D01*
X190500Y474657D02*
X190500Y478669D01*
D11*
X144030Y482170D02*
X43930Y482170D01*
X43930Y523670D02*
X144030Y523670D01*
X43930Y523670D02*
X43930Y482170D01*
X144030Y482170D02*
X144030Y523670D01*
D17*
X38930Y502920D03*
X149030Y502920D03*
D11*
X142990Y612570D02*
X243090Y612570D01*
X243090Y571070D02*
X142990Y571070D01*
X243090Y571070D02*
X243090Y612570D01*
X142990Y612570D02*
X142990Y571070D01*
D17*
X248090Y591820D03*
X137990Y591820D03*
D10*
X481330Y304800D02*
X487680Y298450D01*
X481330Y304800D02*
X468630Y304800D01*
X462280Y298450D01*
X462280Y285750D01*
X468630Y279400D01*
X481330Y279400D01*
X487680Y285750D01*
X487680Y298450D01*
X483870Y76200D02*
X490220Y69850D01*
X490220Y57150D01*
X483870Y50800D01*
X471170Y50800D02*
X464820Y57150D01*
X464820Y69850D01*
X471170Y76200D01*
X490220Y107950D02*
X490220Y120650D01*
X490220Y107950D02*
X483870Y101600D01*
X471170Y101600D02*
X464820Y107950D01*
X483870Y101600D02*
X490220Y95250D01*
X490220Y82550D01*
X483870Y76200D01*
X471170Y76200D02*
X464820Y82550D01*
X464820Y95250D01*
X471170Y101600D01*
X471170Y127000D02*
X483870Y127000D01*
X490220Y120650D01*
X471170Y127000D02*
X464820Y120650D01*
X464820Y107950D01*
X471170Y50800D02*
X483870Y50800D01*
X496570Y101600D02*
X490220Y107950D01*
X490220Y120650D01*
X496570Y127000D01*
X509270Y127000D02*
X515620Y120650D01*
X515620Y107950D01*
X509270Y101600D01*
X490220Y69850D02*
X490220Y57150D01*
X490220Y69850D02*
X496570Y76200D01*
X509270Y76200D02*
X515620Y69850D01*
X496570Y76200D02*
X490220Y82550D01*
X490220Y95250D01*
X496570Y101600D01*
X509270Y101600D02*
X515620Y95250D01*
X515620Y82550D01*
X509270Y76200D01*
X509270Y50800D02*
X496570Y50800D01*
X490220Y57150D01*
X509270Y50800D02*
X515620Y57150D01*
X515620Y69850D01*
X509270Y127000D02*
X496570Y127000D01*
X857250Y109220D02*
X869950Y109220D01*
X876300Y102870D01*
X876300Y90170D02*
X869950Y83820D01*
X876300Y102870D02*
X882650Y109220D01*
X895350Y109220D01*
X901700Y102870D01*
X901700Y90170D02*
X895350Y83820D01*
X882650Y83820D01*
X876300Y90170D01*
X850900Y90170D02*
X850900Y102870D01*
X857250Y109220D01*
X850900Y90170D02*
X857250Y83820D01*
X869950Y83820D01*
X901700Y90170D02*
X901700Y102870D01*
D11*
X814590Y234110D02*
X714490Y234110D01*
X714490Y192610D02*
X814590Y192610D01*
X814590Y234110D01*
X714490Y234110D02*
X714490Y192610D01*
D17*
X819590Y213360D03*
X709490Y213360D03*
D10*
X897890Y241300D02*
X904240Y247650D01*
X897890Y241300D02*
X885190Y241300D01*
X878840Y247650D01*
X878840Y260350D02*
X885190Y266700D01*
X897890Y266700D01*
X904240Y260350D01*
X935990Y241300D02*
X948690Y241300D01*
X935990Y241300D02*
X929640Y247650D01*
X929640Y260350D02*
X935990Y266700D01*
X929640Y247650D02*
X923290Y241300D01*
X910590Y241300D01*
X904240Y247650D01*
X904240Y260350D02*
X910590Y266700D01*
X923290Y266700D01*
X929640Y260350D01*
X955040Y260350D02*
X955040Y247650D01*
X948690Y241300D01*
X955040Y260350D02*
X948690Y266700D01*
X935990Y266700D01*
X878840Y260350D02*
X878840Y247650D01*
X426720Y240030D02*
X420370Y233680D01*
X407670Y233680D01*
X401320Y240030D01*
X401320Y252730D02*
X407670Y259080D01*
X420370Y259080D01*
X426720Y252730D01*
X458470Y233680D02*
X471170Y233680D01*
X458470Y233680D02*
X452120Y240030D01*
X452120Y252730D02*
X458470Y259080D01*
X452120Y240030D02*
X445770Y233680D01*
X433070Y233680D01*
X426720Y240030D01*
X426720Y252730D02*
X433070Y259080D01*
X445770Y259080D01*
X452120Y252730D01*
X477520Y252730D02*
X477520Y240030D01*
X471170Y233680D01*
X477520Y252730D02*
X471170Y259080D01*
X458470Y259080D01*
X401320Y252730D02*
X401320Y240030D01*
M02*
