G04 EAGLE Gerber RS-274X export*
G75*
%MOMM*%
%FSLAX34Y34*%
%LPD*%
%INSoldermask Bottom*%
%IPPOS*%
%AMOC8*
5,1,8,0,0,1.08239X$1,22.5*%
G01*
%ADD10C,2.082800*%
%ADD11C,1.993900*%
%ADD12C,2.006600*%
%ADD13P,1.649562X8X112.500000*%
%ADD14C,2.203200*%
%ADD15C,1.727200*%
%ADD16C,3.505200*%
%ADD17C,1.930400*%
%ADD18R,1.930400X1.930400*%
%ADD19C,1.270000*%


D10*
X444500Y182880D03*
X419100Y182880D03*
X393700Y182880D03*
X368300Y182880D03*
X342900Y182880D03*
X317500Y182880D03*
X292100Y182880D03*
X266700Y182880D03*
X241300Y182880D03*
X215900Y182880D03*
X190500Y182880D03*
X165100Y182880D03*
X139700Y182880D03*
X114300Y182880D03*
X88900Y182880D03*
X88900Y30480D03*
X114300Y30480D03*
X139700Y30480D03*
X165100Y30480D03*
X190500Y30480D03*
X215900Y30480D03*
X241300Y30480D03*
X266700Y30480D03*
X292100Y30480D03*
X317500Y30480D03*
X342900Y30480D03*
X368300Y30480D03*
X393700Y30480D03*
X419100Y30480D03*
X444500Y30480D03*
X916940Y134620D03*
X916940Y109220D03*
X916940Y83820D03*
X916940Y58420D03*
X622300Y25400D03*
X571500Y25400D03*
X406400Y660400D03*
X431800Y660400D03*
X457200Y660400D03*
X482600Y660400D03*
X508000Y660400D03*
X533400Y660400D03*
X558800Y660400D03*
X584200Y660400D03*
X609600Y660400D03*
X635000Y660400D03*
X660400Y660400D03*
X685800Y660400D03*
X711200Y660400D03*
X736600Y660400D03*
X762000Y660400D03*
X762000Y812800D03*
X736600Y812800D03*
X711200Y812800D03*
X685800Y812800D03*
X660400Y812800D03*
X635000Y812800D03*
X609600Y812800D03*
X584200Y812800D03*
X558800Y812800D03*
X533400Y812800D03*
X508000Y812800D03*
X482600Y812800D03*
X457200Y812800D03*
X431800Y812800D03*
X406400Y812800D03*
X457200Y609600D03*
X482600Y609600D03*
X508000Y609600D03*
X533400Y609600D03*
X558800Y609600D03*
X660400Y609600D03*
X685800Y609600D03*
X711200Y609600D03*
X736600Y609600D03*
X762000Y609600D03*
D11*
X373698Y807212D02*
X355791Y807212D01*
X248730Y807212D02*
X230823Y807212D01*
X355791Y757428D02*
X373698Y757428D01*
X248730Y757428D02*
X230823Y757428D01*
D12*
X302260Y827278D03*
X302260Y737362D03*
D11*
X830263Y759968D02*
X848170Y759968D01*
X955231Y759968D02*
X973138Y759968D01*
X848170Y809752D02*
X830263Y809752D01*
X955231Y809752D02*
X973138Y809752D01*
D12*
X901700Y739902D03*
X901700Y829818D03*
D10*
X347980Y91440D03*
X322580Y91440D03*
X297180Y91440D03*
X271780Y91440D03*
X246380Y91440D03*
X220980Y91440D03*
X195580Y91440D03*
X170180Y91440D03*
X144780Y91440D03*
X119380Y91440D03*
X93980Y91440D03*
X358140Y561340D03*
X383540Y561340D03*
X408940Y561340D03*
X434340Y561340D03*
X459740Y561340D03*
X485140Y561340D03*
X510540Y561340D03*
X535940Y561340D03*
X561340Y561340D03*
X586740Y561340D03*
X612140Y561340D03*
X637540Y561340D03*
X662940Y561340D03*
X688340Y561340D03*
X713740Y561340D03*
X96520Y223520D03*
X121920Y223520D03*
X147320Y223520D03*
X172720Y223520D03*
X198120Y223520D03*
X223520Y223520D03*
X248920Y223520D03*
X274320Y223520D03*
X299720Y223520D03*
X325120Y223520D03*
X350520Y223520D03*
X375920Y223520D03*
X401320Y223520D03*
X426720Y223520D03*
X452120Y223520D03*
X20320Y223520D03*
X45720Y223520D03*
X71120Y223520D03*
X281940Y561340D03*
X307340Y561340D03*
X332740Y561340D03*
X66040Y734060D03*
X66040Y708660D03*
X66040Y683260D03*
X502920Y223520D03*
X528320Y223520D03*
X553720Y223520D03*
X604520Y223520D03*
X579120Y223520D03*
X147320Y614680D03*
X147320Y589280D03*
X73660Y251460D03*
X73660Y276860D03*
X73660Y302260D03*
X73660Y327660D03*
X73660Y353060D03*
X73660Y378460D03*
X73660Y403860D03*
X73660Y429260D03*
X73660Y454660D03*
X73660Y480060D03*
X73660Y505460D03*
X73660Y530860D03*
X73660Y556260D03*
X73660Y581660D03*
X73660Y607060D03*
X190500Y698500D03*
X190500Y635000D03*
X962660Y223520D03*
X937260Y223520D03*
X911860Y223520D03*
X886460Y223520D03*
X861060Y223520D03*
X835660Y223520D03*
X810260Y223520D03*
X784860Y223520D03*
X759460Y223520D03*
X734060Y223520D03*
X708660Y223520D03*
X683260Y223520D03*
X657860Y223520D03*
X632460Y223520D03*
X744220Y561340D03*
X769620Y561340D03*
X795020Y561340D03*
X820420Y561340D03*
X845820Y561340D03*
X871220Y561340D03*
X896620Y561340D03*
X922020Y561340D03*
X947420Y561340D03*
X972820Y561340D03*
X637540Y759460D03*
X612140Y759460D03*
X586740Y759460D03*
X561340Y759460D03*
X22860Y561340D03*
X48260Y561340D03*
X73660Y561340D03*
X99060Y561340D03*
X124460Y561340D03*
X149860Y561340D03*
X175260Y561340D03*
X200660Y561340D03*
X226060Y561340D03*
X251460Y561340D03*
X147320Y640080D03*
X147320Y665480D03*
X147320Y690880D03*
X147320Y716280D03*
X147320Y741680D03*
X147320Y767080D03*
X147320Y792480D03*
X147320Y817880D03*
X20320Y187960D03*
X20320Y162560D03*
X20320Y137160D03*
X20320Y111760D03*
X20320Y86360D03*
X20320Y60960D03*
D13*
X828040Y66040D03*
X808990Y53340D03*
X828040Y40640D03*
D14*
X612140Y124460D03*
X764540Y124460D03*
D10*
X477520Y223520D03*
X490220Y142240D03*
X490220Y116840D03*
X490220Y91440D03*
X515620Y91440D03*
X515620Y116840D03*
X515620Y142240D03*
X721360Y60960D03*
X746760Y60960D03*
D14*
X764540Y175260D03*
X612140Y175260D03*
D10*
X858520Y167640D03*
X833120Y167640D03*
X807720Y167640D03*
X533400Y30480D03*
X508000Y30480D03*
X482600Y30480D03*
X604520Y73660D03*
X579120Y73660D03*
X919480Y322580D03*
X919480Y347980D03*
X919480Y373380D03*
X919480Y398780D03*
X919480Y424180D03*
X919480Y449580D03*
X419100Y419100D03*
X419100Y393700D03*
X419100Y368300D03*
X419100Y342900D03*
X419100Y317500D03*
X419100Y292100D03*
X698500Y495300D03*
X673100Y495300D03*
X647700Y495300D03*
X622300Y495300D03*
X596900Y495300D03*
X571500Y495300D03*
X546100Y495300D03*
X520700Y495300D03*
X520700Y266700D03*
X546100Y266700D03*
X571500Y266700D03*
X596900Y266700D03*
X622300Y266700D03*
X647700Y266700D03*
X673100Y266700D03*
X698500Y266700D03*
X861060Y304800D03*
X886460Y304800D03*
X393700Y292100D03*
X393700Y317500D03*
X393700Y342900D03*
X393700Y368300D03*
X393700Y393700D03*
X393700Y419100D03*
X368300Y292100D03*
X368300Y317500D03*
X368300Y342900D03*
X368300Y368300D03*
X368300Y393700D03*
X368300Y419100D03*
X454660Y502920D03*
X454660Y477520D03*
X419100Y444500D03*
X157480Y279400D03*
X157480Y304800D03*
X157480Y330200D03*
X157480Y355600D03*
X284480Y342900D03*
X284480Y368300D03*
X284480Y393700D03*
X254000Y393700D03*
X254000Y368300D03*
X254000Y342900D03*
X858520Y368300D03*
X883920Y368300D03*
D11*
X376238Y672592D02*
X358331Y672592D01*
X251270Y672592D02*
X233363Y672592D01*
X358331Y622808D02*
X376238Y622808D01*
X251270Y622808D02*
X233363Y622808D01*
D12*
X304800Y692658D03*
X304800Y602742D03*
D11*
X830263Y622808D02*
X848170Y622808D01*
X955231Y622808D02*
X973138Y622808D01*
X848170Y672592D02*
X830263Y672592D01*
X955231Y672592D02*
X973138Y672592D01*
D12*
X901700Y602742D03*
X901700Y692658D03*
D15*
X218440Y462280D02*
X203200Y462280D01*
X203200Y487680D02*
X218440Y487680D01*
X218440Y513080D02*
X203200Y513080D01*
D16*
X60960Y487680D03*
D17*
X274320Y462480D03*
D18*
X274320Y487480D03*
D10*
X114300Y406400D03*
X114300Y381000D03*
X114300Y355600D03*
X114300Y330200D03*
X114300Y304800D03*
X114300Y279400D03*
D19*
X273050Y123825D03*
X155575Y120650D03*
X266700Y161925D03*
X298450Y133350D03*
X733425Y784225D03*
X327025Y434975D03*
X473075Y393700D03*
X514350Y368300D03*
X552450Y285750D03*
M02*
