G04 EAGLE Gerber RS-274X export*
G75*
%MOMM*%
%FSLAX34Y34*%
%LPD*%
%INSoldermask Top*%
%IPPOS*%
%AMOC8*
5,1,8,0,0,1.08239X$1,22.5*%
G01*
%ADD10C,2.082800*%
%ADD11C,1.993900*%
%ADD12C,2.006600*%
%ADD13C,1.211200*%
%ADD14P,1.649562X8X112.500000*%
%ADD15C,2.203200*%
%ADD16C,1.270000*%


D10*
X444500Y182880D03*
X419100Y182880D03*
X393700Y182880D03*
X368300Y182880D03*
X342900Y182880D03*
X317500Y182880D03*
X292100Y182880D03*
X266700Y182880D03*
X241300Y182880D03*
X215900Y182880D03*
X190500Y182880D03*
X165100Y182880D03*
X139700Y182880D03*
X114300Y182880D03*
X88900Y182880D03*
X88900Y30480D03*
X114300Y30480D03*
X139700Y30480D03*
X165100Y30480D03*
X190500Y30480D03*
X215900Y30480D03*
X241300Y30480D03*
X266700Y30480D03*
X292100Y30480D03*
X317500Y30480D03*
X342900Y30480D03*
X368300Y30480D03*
X393700Y30480D03*
X419100Y30480D03*
X444500Y30480D03*
X548640Y241300D03*
X548640Y215900D03*
X548640Y190500D03*
X548640Y165100D03*
X566420Y88900D03*
X566420Y33020D03*
X20320Y139700D03*
X20320Y88900D03*
X431800Y660400D03*
X457200Y660400D03*
X482600Y660400D03*
X508000Y660400D03*
X533400Y660400D03*
X558800Y660400D03*
X584200Y660400D03*
X609600Y660400D03*
X635000Y660400D03*
X660400Y660400D03*
X685800Y660400D03*
X711200Y660400D03*
X736600Y660400D03*
X762000Y660400D03*
X787400Y660400D03*
X787400Y812800D03*
X762000Y812800D03*
X736600Y812800D03*
X711200Y812800D03*
X685800Y812800D03*
X660400Y812800D03*
X635000Y812800D03*
X609600Y812800D03*
X584200Y812800D03*
X558800Y812800D03*
X533400Y812800D03*
X508000Y812800D03*
X482600Y812800D03*
X457200Y812800D03*
X431800Y812800D03*
X457200Y609600D03*
X482600Y609600D03*
X508000Y609600D03*
X533400Y609600D03*
X558800Y609600D03*
X660400Y609600D03*
X685800Y609600D03*
X711200Y609600D03*
X736600Y609600D03*
X762000Y609600D03*
D11*
X388938Y799592D02*
X371031Y799592D01*
X263970Y799592D02*
X246063Y799592D01*
X371031Y749808D02*
X388938Y749808D01*
X263970Y749808D02*
X246063Y749808D01*
D12*
X317500Y819658D03*
X317500Y729742D03*
D11*
X827723Y742188D02*
X845630Y742188D01*
X952691Y742188D02*
X970598Y742188D01*
X845630Y791972D02*
X827723Y791972D01*
X952691Y791972D02*
X970598Y791972D01*
D12*
X899160Y722122D03*
X899160Y812038D03*
D10*
X347980Y91440D03*
X322580Y91440D03*
X297180Y91440D03*
X271780Y91440D03*
X246380Y91440D03*
X220980Y91440D03*
X195580Y91440D03*
X170180Y91440D03*
X144780Y91440D03*
X119380Y91440D03*
X93980Y91440D03*
X358140Y561340D03*
X383540Y561340D03*
X408940Y561340D03*
X434340Y561340D03*
X459740Y561340D03*
X485140Y561340D03*
X510540Y561340D03*
X535940Y561340D03*
X561340Y561340D03*
X586740Y561340D03*
X612140Y561340D03*
X637540Y561340D03*
X662940Y561340D03*
X688340Y561340D03*
X713740Y561340D03*
X93980Y292100D03*
X119380Y292100D03*
X144780Y292100D03*
X170180Y292100D03*
X195580Y292100D03*
X220980Y292100D03*
X246380Y292100D03*
X271780Y292100D03*
X297180Y292100D03*
X322580Y292100D03*
X347980Y292100D03*
X373380Y292100D03*
X398780Y292100D03*
X424180Y292100D03*
X449580Y292100D03*
X843280Y447040D03*
X817880Y447040D03*
X792480Y447040D03*
X17780Y292100D03*
X43180Y292100D03*
X68580Y292100D03*
X274320Y635000D03*
X299720Y635000D03*
X325120Y635000D03*
X741680Y444500D03*
X716280Y444500D03*
X690880Y444500D03*
X124460Y662940D03*
X99060Y662940D03*
X73660Y662940D03*
X500380Y292100D03*
X525780Y292100D03*
X551180Y292100D03*
X624840Y434340D03*
X599440Y434340D03*
X574040Y434340D03*
X601980Y292100D03*
X576580Y292100D03*
X144780Y774700D03*
X144780Y749300D03*
X320040Y312420D03*
X320040Y337820D03*
X320040Y363220D03*
X320040Y388620D03*
X320040Y414020D03*
X320040Y439420D03*
X320040Y464820D03*
X320040Y490220D03*
X320040Y515620D03*
X320040Y541020D03*
X320040Y566420D03*
X320040Y591820D03*
X320040Y617220D03*
X320040Y642620D03*
X320040Y668020D03*
X833120Y660400D03*
X833120Y607060D03*
X957580Y292100D03*
X932180Y292100D03*
X906780Y292100D03*
X881380Y292100D03*
X855980Y292100D03*
X830580Y292100D03*
X805180Y292100D03*
X779780Y292100D03*
X754380Y292100D03*
X728980Y292100D03*
X703580Y292100D03*
X678180Y292100D03*
X652780Y292100D03*
X627380Y292100D03*
X744220Y561340D03*
X769620Y561340D03*
X795020Y561340D03*
X820420Y561340D03*
X845820Y561340D03*
X871220Y561340D03*
X896620Y561340D03*
X922020Y561340D03*
X947420Y561340D03*
X972820Y561340D03*
X637540Y759460D03*
X612140Y759460D03*
X586740Y759460D03*
X561340Y759460D03*
X381000Y482600D03*
X381000Y431800D03*
D13*
X214900Y380380D02*
X214900Y370300D01*
X202400Y370300D02*
X202400Y380380D01*
X189900Y380380D02*
X189900Y370300D01*
X177400Y370300D02*
X177400Y380380D01*
X164900Y380380D02*
X164900Y370300D01*
X152400Y370300D02*
X152400Y380380D01*
X139900Y380380D02*
X139900Y370300D01*
X127400Y370300D02*
X127400Y380380D01*
X114900Y380380D02*
X114900Y370300D01*
X102400Y370300D02*
X102400Y380380D01*
X89900Y380380D02*
X89900Y370300D01*
D10*
X218440Y327660D03*
X193040Y327660D03*
X167640Y327660D03*
X142240Y327660D03*
X116840Y327660D03*
X91440Y327660D03*
X284480Y396240D03*
X284480Y421640D03*
X284480Y447040D03*
X30480Y441960D03*
X30480Y416560D03*
X30480Y391160D03*
X106680Y553720D03*
X81280Y553720D03*
X269240Y548640D03*
X243840Y548640D03*
X218440Y548640D03*
X17780Y635000D03*
X43180Y635000D03*
X68580Y635000D03*
X93980Y635000D03*
X119380Y635000D03*
X144780Y635000D03*
X170180Y635000D03*
X195580Y635000D03*
X220980Y635000D03*
X246380Y635000D03*
X195580Y637540D03*
X195580Y662940D03*
X195580Y688340D03*
X195580Y713740D03*
X195580Y739140D03*
X195580Y764540D03*
X195580Y789940D03*
X195580Y815340D03*
X444500Y482600D03*
X447040Y424180D03*
X274320Y256540D03*
X248920Y256540D03*
X223520Y256540D03*
X198120Y256540D03*
X172720Y256540D03*
X147320Y256540D03*
D14*
X883920Y170180D03*
X864870Y157480D03*
X883920Y144780D03*
D15*
X650240Y152400D03*
X802640Y152400D03*
D14*
X187960Y464820D03*
X168910Y452120D03*
X187960Y439420D03*
D15*
X17780Y502920D03*
X170180Y502920D03*
X269240Y591820D03*
X116840Y591820D03*
D10*
X474980Y292100D03*
X477520Y114300D03*
X477520Y88900D03*
X477520Y63500D03*
X502920Y63500D03*
X502920Y88900D03*
X502920Y114300D03*
X863600Y96520D03*
X889000Y96520D03*
D15*
X840740Y213360D03*
X688340Y213360D03*
D10*
X942340Y254000D03*
X916940Y254000D03*
X891540Y254000D03*
X464820Y246380D03*
X439420Y246380D03*
X414020Y246380D03*
D16*
X527050Y196850D03*
X282575Y112713D03*
X174625Y352425D03*
X74613Y371475D03*
X139700Y438150D03*
X150813Y407988D03*
X187325Y401638D03*
M02*
