G04 EAGLE Gerber RS-274X export*
G75*
%MOMM*%
%FSLAX34Y34*%
%LPD*%
%INTop Copper*%
%IPPOS*%
%AMOC8*
5,1,8,0,0,1.08239X$1,22.5*%
G01*
%ADD10C,1.422400*%
%ADD11C,1.320800*%
%ADD12C,1.879600*%
%ADD13C,1.524000*%
%ADD14C,1.651000*%
%ADD15R,1.651000X1.651000*%
%ADD16C,0.254000*%
%ADD17C,1.066800*%


D10*
X318300Y353060D03*
X338300Y353060D03*
X358300Y353060D03*
X378300Y353060D03*
X398300Y353060D03*
X418300Y353060D03*
D11*
X77724Y538480D02*
X64516Y538480D01*
X166116Y538480D02*
X179324Y538480D01*
D12*
X281940Y398780D03*
X281940Y424180D03*
X281940Y449580D03*
X281940Y474980D03*
X281940Y500380D03*
X281940Y525780D03*
X281940Y551180D03*
X281940Y576580D03*
D13*
X73660Y579120D02*
X73660Y563880D01*
X99060Y563880D02*
X99060Y579120D01*
X124460Y579120D02*
X124460Y563880D01*
D14*
X223520Y546300D03*
D15*
X223520Y571300D03*
D12*
X190500Y383540D03*
X215900Y383540D03*
X241300Y383540D03*
X175260Y495300D03*
X114300Y381000D03*
X66040Y482600D03*
X66040Y457200D03*
X66040Y431800D03*
X66040Y406400D03*
D16*
X400050Y355600D02*
X415925Y355600D01*
X400050Y355600D02*
X398300Y353060D01*
X415925Y355600D02*
X418300Y353060D01*
X190500Y381000D02*
X114300Y381000D01*
X190500Y381000D02*
X190500Y383540D01*
X190500Y514350D02*
X222250Y546100D01*
X190500Y514350D02*
X190500Y383540D01*
X222250Y546100D02*
X223520Y546300D01*
X123825Y571500D02*
X117475Y565150D01*
X117475Y457200D01*
X66675Y406400D01*
X123825Y571500D02*
X124460Y571500D01*
X66675Y406400D02*
X66040Y406400D01*
X327025Y384175D02*
X355600Y355600D01*
X358300Y353060D01*
D17*
X327025Y384175D03*
D16*
X307975Y384175D02*
X336550Y355600D01*
X307975Y384175D02*
X257175Y384175D01*
X257175Y561975D01*
X228600Y590550D01*
X111125Y590550D01*
X111125Y527050D01*
X66675Y482600D01*
X336550Y355600D02*
X338300Y353060D01*
X66675Y482600D02*
X66040Y482600D01*
X355600Y377825D02*
X377825Y355600D01*
X378300Y353060D01*
D17*
X355600Y377825D03*
D16*
X317500Y355600D02*
X241300Y355600D01*
X241300Y383540D01*
X317500Y355600D02*
X318300Y353060D01*
X98425Y565150D02*
X73025Y539750D01*
X98425Y565150D02*
X98425Y571500D01*
X73025Y539750D02*
X71120Y538480D01*
X98425Y571500D02*
X99060Y571500D01*
X238125Y387350D02*
X241300Y384175D01*
X238125Y387350D02*
X238125Y555625D01*
X225425Y568325D01*
X241300Y384175D02*
X241300Y383540D01*
X225425Y568325D02*
X223520Y571300D01*
X174625Y536575D02*
X174625Y495300D01*
X174625Y536575D02*
X172720Y538480D01*
X174625Y495300D02*
X175260Y495300D01*
M02*
