G04 EAGLE Gerber RS-274X export*
G75*
%MOMM*%
%FSLAX34Y34*%
%LPD*%
%INTop Copper*%
%IPPOS*%
%AMOC8*
5,1,8,0,0,1.08239X$1,22.5*%
G01*
%ADD10C,1.422400*%
%ADD11C,1.320800*%
%ADD12C,1.879600*%
%ADD13C,1.524000*%
%ADD14C,1.651000*%
%ADD15R,1.651000X1.651000*%
%ADD16C,0.254000*%
%ADD17C,1.066800*%


D10*
X336080Y353060D03*
X356080Y353060D03*
X376080Y353060D03*
X396080Y353060D03*
X416080Y353060D03*
X436080Y353060D03*
D11*
X77724Y538480D02*
X64516Y538480D01*
X166116Y538480D02*
X179324Y538480D01*
D12*
X284480Y383540D03*
X284480Y408940D03*
X284480Y434340D03*
X284480Y459740D03*
X284480Y485140D03*
X284480Y510540D03*
X284480Y535940D03*
X284480Y561340D03*
D13*
X73660Y563880D02*
X73660Y579120D01*
X99060Y579120D02*
X99060Y563880D01*
X124460Y563880D02*
X124460Y579120D01*
D14*
X223520Y546300D03*
D15*
X223520Y571300D03*
D12*
X190500Y383540D03*
X215900Y383540D03*
X241300Y383540D03*
X175260Y495300D03*
X114300Y381000D03*
X66040Y482600D03*
X66040Y457200D03*
X66040Y431800D03*
X66040Y406400D03*
D10*
X317500Y378460D03*
X317500Y398780D03*
X317500Y419100D03*
X317500Y439420D03*
X317500Y459740D03*
X317500Y480060D03*
X317500Y500380D03*
X317500Y523240D03*
D16*
X419100Y355600D02*
X434975Y355600D01*
X419100Y355600D02*
X416080Y353060D01*
X434975Y355600D02*
X436080Y353060D01*
X123825Y571500D02*
X117475Y565150D01*
X117475Y457200D01*
X66675Y406400D01*
X123825Y571500D02*
X124460Y571500D01*
X66675Y406400D02*
X66040Y406400D01*
X342900Y387350D02*
X374650Y355600D01*
X342900Y387350D02*
X342900Y523875D01*
X374650Y355600D02*
X376080Y353060D01*
D17*
X342900Y523875D03*
D16*
X330200Y381000D02*
X355600Y355600D01*
X330200Y381000D02*
X330200Y536575D01*
X276225Y590550D01*
X111125Y590550D01*
X111125Y527050D01*
X66675Y482600D01*
X355600Y355600D02*
X356080Y353060D01*
X66675Y482600D02*
X66040Y482600D01*
X215900Y368300D02*
X231775Y352425D01*
X215900Y368300D02*
X215900Y383540D01*
D17*
X231775Y352425D03*
D16*
X241300Y355600D02*
X333375Y355600D01*
X241300Y355600D02*
X241300Y383540D01*
X333375Y355600D02*
X336080Y353060D01*
X98425Y565150D02*
X73025Y539750D01*
X98425Y565150D02*
X98425Y571500D01*
X73025Y539750D02*
X71120Y538480D01*
X98425Y571500D02*
X99060Y571500D01*
X174625Y536575D02*
X174625Y495300D01*
X174625Y536575D02*
X172720Y538480D01*
X174625Y495300D02*
X175260Y495300D01*
X285750Y381000D02*
X317500Y381000D01*
X317500Y378460D01*
X285750Y381000D02*
X284480Y383540D01*
X317500Y501650D02*
X285750Y533400D01*
X317500Y501650D02*
X317500Y500380D01*
X285750Y533400D02*
X284480Y535940D01*
X285750Y555625D02*
X317500Y523875D01*
X285750Y555625D02*
X285750Y558800D01*
X317500Y523875D02*
X317500Y523240D01*
X285750Y558800D02*
X284480Y561340D01*
M02*
