G04 EAGLE Gerber RS-274X export*
G75*
%MOMM*%
%FSLAX34Y34*%
%LPD*%
%INBottom Copper*%
%IPPOS*%
%AMOC8*
5,1,8,0,0,1.08239X$1,22.5*%
G01*
%ADD10C,1.422400*%
%ADD11C,1.320800*%
%ADD12C,1.879600*%
%ADD13C,1.524000*%
%ADD14C,1.651000*%
%ADD15R,1.651000X1.651000*%
%ADD16C,0.254000*%
%ADD17C,1.066800*%


D10*
X336080Y353060D03*
X356080Y353060D03*
X376080Y353060D03*
X396080Y353060D03*
X416080Y353060D03*
X436080Y353060D03*
D11*
X77724Y538480D02*
X64516Y538480D01*
X166116Y538480D02*
X179324Y538480D01*
D12*
X284480Y383540D03*
X284480Y408940D03*
X284480Y434340D03*
X284480Y459740D03*
X284480Y485140D03*
X284480Y510540D03*
X284480Y535940D03*
X284480Y561340D03*
D13*
X73660Y563880D02*
X73660Y579120D01*
X99060Y579120D02*
X99060Y563880D01*
X124460Y563880D02*
X124460Y579120D01*
D14*
X223520Y546300D03*
D15*
X223520Y571300D03*
D12*
X190500Y383540D03*
X215900Y383540D03*
X241300Y383540D03*
X175260Y495300D03*
X114300Y381000D03*
X66040Y482600D03*
X66040Y457200D03*
X66040Y431800D03*
X66040Y406400D03*
D10*
X317500Y378460D03*
X317500Y398780D03*
X317500Y419100D03*
X317500Y439420D03*
X317500Y459740D03*
X317500Y480060D03*
X317500Y500380D03*
X317500Y523240D03*
D16*
X400050Y371475D02*
X415925Y355600D01*
X400050Y371475D02*
X327025Y371475D01*
X320675Y365125D01*
X206375Y365125D01*
X190500Y381000D01*
X415925Y355600D02*
X416080Y353060D01*
X190500Y381000D02*
X190500Y383540D01*
X76200Y555625D02*
X76200Y571500D01*
X76200Y555625D02*
X85725Y555625D01*
X95250Y546100D01*
X95250Y527050D02*
X95250Y431800D01*
X95250Y527050D02*
X95250Y546100D01*
X95250Y431800D02*
X66040Y431800D01*
X73660Y571500D02*
X76200Y571500D01*
X203200Y527050D02*
X222250Y546100D01*
X203200Y527050D02*
X95250Y527050D01*
X222250Y546100D02*
X223520Y546300D01*
X114300Y431800D02*
X114300Y384175D01*
X114300Y431800D02*
X95250Y431800D01*
X114300Y384175D02*
X190500Y384175D01*
X190500Y383540D01*
X114300Y384175D02*
X114300Y381000D01*
X276225Y590550D02*
X342900Y523875D01*
X276225Y590550D02*
X66675Y590550D01*
X60325Y584200D01*
X60325Y549275D01*
X82550Y549275D01*
X88900Y542925D01*
X88900Y457200D01*
X66040Y457200D01*
D17*
X342900Y523875D03*
D16*
X384175Y365125D02*
X393700Y355600D01*
X384175Y365125D02*
X330200Y365125D01*
X317500Y352425D01*
X231775Y352425D01*
X393700Y355600D02*
X396080Y353060D01*
D17*
X231775Y352425D03*
D16*
X206375Y552450D02*
X222250Y568325D01*
X206375Y552450D02*
X117475Y552450D01*
X98425Y571500D01*
X222250Y568325D02*
X223520Y571300D01*
X99060Y571500D02*
X98425Y571500D01*
X241300Y568325D02*
X241300Y383540D01*
X241300Y568325D02*
X225425Y568325D01*
X223520Y571300D01*
X311150Y406400D02*
X317500Y400050D01*
X311150Y406400D02*
X285750Y406400D01*
X317500Y400050D02*
X317500Y398780D01*
X285750Y406400D02*
X284480Y408940D01*
X304800Y431800D02*
X317500Y419100D01*
X304800Y431800D02*
X285750Y431800D01*
X284480Y434340D01*
X301625Y457200D02*
X317500Y441325D01*
X301625Y457200D02*
X285750Y457200D01*
X317500Y441325D02*
X317500Y439420D01*
X285750Y457200D02*
X284480Y459740D01*
X295275Y482600D02*
X317500Y460375D01*
X295275Y482600D02*
X285750Y482600D01*
X317500Y460375D02*
X317500Y459740D01*
X285750Y482600D02*
X284480Y485140D01*
X292100Y508000D02*
X317500Y482600D01*
X292100Y508000D02*
X285750Y508000D01*
X317500Y482600D02*
X317500Y480060D01*
X285750Y508000D02*
X284480Y510540D01*
M02*
