G04 EAGLE Gerber RS-274X export*
G75*
%MOMM*%
%FSLAX34Y34*%
%LPD*%
%INBottom Copper*%
%IPPOS*%
%AMOC8*
5,1,8,0,0,1.08239X$1,22.5*%
G01*
%ADD10C,1.422400*%
%ADD11C,1.320800*%
%ADD12C,1.879600*%
%ADD13C,1.524000*%
%ADD14C,1.651000*%
%ADD15R,1.651000X1.651000*%
%ADD16C,0.254000*%
%ADD17C,1.066800*%


D10*
X424980Y375920D03*
X444980Y375920D03*
X464980Y375920D03*
X484980Y375920D03*
X504980Y375920D03*
X524980Y375920D03*
D11*
X298704Y515620D02*
X285496Y515620D01*
X197104Y515620D02*
X183896Y515620D01*
D10*
X406400Y389740D03*
X406400Y409740D03*
X406400Y429740D03*
X406400Y449740D03*
X406400Y469740D03*
X406400Y489740D03*
X406400Y509740D03*
X406400Y529740D03*
D12*
X355600Y386080D03*
X355600Y411480D03*
X355600Y436880D03*
X355600Y462280D03*
X355600Y487680D03*
X355600Y513080D03*
X355600Y538480D03*
X355600Y563880D03*
D13*
X254000Y568960D02*
X254000Y553720D01*
X279400Y553720D02*
X279400Y568960D01*
X304800Y568960D02*
X304800Y553720D01*
D14*
X274520Y462280D03*
D15*
X299520Y462280D03*
D12*
X254000Y386080D03*
X279400Y386080D03*
X304800Y386080D03*
X576580Y444500D03*
X576580Y469900D03*
X576580Y495300D03*
X190500Y472440D03*
X187960Y398780D03*
X505460Y553720D03*
X530860Y553720D03*
X66040Y482600D03*
X66040Y457200D03*
X66040Y431800D03*
X66040Y406400D03*
X121920Y530860D03*
X96520Y530860D03*
D16*
X525463Y469900D02*
X525463Y376238D01*
X525463Y469900D02*
X576580Y469900D01*
X525463Y376238D02*
X524980Y375920D01*
X200025Y387350D02*
X188913Y398463D01*
X200025Y387350D02*
X254000Y387350D01*
X188913Y398463D02*
X187960Y398780D01*
X254000Y387350D02*
X254000Y386080D01*
X155575Y431800D02*
X66040Y431800D01*
X155575Y431800D02*
X187325Y400050D01*
X187960Y398780D01*
X493713Y363538D02*
X504825Y374650D01*
X493713Y363538D02*
X276225Y363538D01*
X254000Y385763D01*
X504825Y374650D02*
X504980Y375920D01*
X254000Y385763D02*
X254000Y386080D01*
X285750Y541338D02*
X304800Y560388D01*
X285750Y541338D02*
X130175Y541338D01*
X127000Y544513D01*
X109538Y544513D01*
X96838Y531813D01*
X304800Y560388D02*
X304800Y561340D01*
X96838Y531813D02*
X96520Y530860D01*
X80963Y420688D02*
X66675Y406400D01*
X80963Y420688D02*
X104775Y420688D01*
X66675Y406400D02*
X66040Y406400D01*
X531813Y539750D02*
X576263Y495300D01*
X531813Y539750D02*
X412750Y539750D01*
X374650Y577850D01*
X320675Y577850D01*
X304800Y561975D01*
X576263Y495300D02*
X576580Y495300D01*
X304800Y561340D02*
X304800Y561975D01*
D17*
X104775Y420688D03*
D16*
X404813Y387350D02*
X406400Y388938D01*
X404813Y387350D02*
X355600Y387350D01*
X406400Y388938D02*
X406400Y389740D01*
X355600Y387350D02*
X355600Y386080D01*
X400050Y436563D02*
X406400Y430213D01*
X400050Y436563D02*
X355600Y436563D01*
X406400Y430213D02*
X406400Y429740D01*
X355600Y436563D02*
X355600Y436880D01*
X395288Y461963D02*
X406400Y450850D01*
X395288Y461963D02*
X355600Y461963D01*
X406400Y450850D02*
X406400Y449740D01*
X355600Y461963D02*
X355600Y462280D01*
X388938Y487363D02*
X406400Y469900D01*
X388938Y487363D02*
X355600Y487363D01*
X406400Y469900D02*
X406400Y469740D01*
X355600Y487363D02*
X355600Y487680D01*
X384175Y512763D02*
X406400Y490538D01*
X384175Y512763D02*
X355600Y512763D01*
X406400Y490538D02*
X406400Y489740D01*
X355600Y512763D02*
X355600Y513080D01*
X379413Y538163D02*
X406400Y511175D01*
X379413Y538163D02*
X355600Y538163D01*
X406400Y511175D02*
X406400Y509740D01*
X355600Y538163D02*
X355600Y538480D01*
X373063Y563563D02*
X406400Y530225D01*
X373063Y563563D02*
X355600Y563563D01*
X406400Y530225D02*
X406400Y529740D01*
X355600Y563563D02*
X355600Y563880D01*
X423863Y374650D02*
X420688Y371475D01*
X319088Y371475D01*
X304800Y385763D01*
X423863Y374650D02*
X424980Y375920D01*
X304800Y385763D02*
X304800Y386080D01*
X136525Y515938D02*
X122238Y530225D01*
X136525Y515938D02*
X190500Y515938D01*
X122238Y530225D02*
X121920Y530860D01*
X190500Y515938D02*
X190500Y515620D01*
M02*
