G04 EAGLE Gerber RS-274X export*
G75*
%MOMM*%
%FSLAX34Y34*%
%LPD*%
%INSilkscreen Top*%
%IPPOS*%
%AMOC8*
5,1,8,0,0,1.08239X$1,22.5*%
G01*
%ADD10C,0.152400*%
%ADD11R,0.508000X0.508000*%
%ADD12R,0.508000X2.032000*%
%ADD13R,1.905000X0.508000*%
%ADD14C,0.203200*%
%ADD15C,0.050800*%
%ADD16C,0.101600*%
%ADD17R,1.270000X0.889000*%


D10*
X226832Y347218D02*
X226832Y359081D01*
X232764Y365013D01*
X238696Y359081D01*
X238696Y347218D01*
X238696Y356116D02*
X226832Y356116D01*
X250539Y347218D02*
X250539Y365013D01*
X244607Y365013D02*
X256471Y365013D01*
X300482Y369077D02*
X300482Y351282D01*
X309380Y351282D01*
X312345Y354248D01*
X312345Y366111D01*
X309380Y369077D01*
X300482Y369077D01*
X318257Y363145D02*
X318257Y351282D01*
X318257Y363145D02*
X324189Y369077D01*
X330120Y363145D01*
X330120Y351282D01*
X330120Y360180D02*
X318257Y360180D01*
X341963Y351282D02*
X341963Y369077D01*
X336032Y369077D02*
X347895Y369077D01*
X353807Y363145D02*
X353807Y351282D01*
X353807Y363145D02*
X359738Y369077D01*
X365670Y363145D01*
X365670Y351282D01*
X365670Y360180D02*
X353807Y360180D01*
X170105Y381351D02*
X167140Y384317D01*
X161208Y384317D01*
X158242Y381351D01*
X158242Y369488D01*
X161208Y366522D01*
X167140Y366522D01*
X170105Y369488D01*
X170105Y375420D01*
X164174Y375420D01*
X176017Y384317D02*
X176017Y366522D01*
X187880Y366522D02*
X176017Y384317D01*
X187880Y384317D02*
X187880Y366522D01*
X193792Y366522D02*
X193792Y384317D01*
X193792Y366522D02*
X202689Y366522D01*
X205655Y369488D01*
X205655Y381351D01*
X202689Y384317D01*
X193792Y384317D01*
X145542Y440182D02*
X145542Y457977D01*
X154440Y457977D01*
X157405Y455011D01*
X157405Y452045D01*
X154440Y449080D01*
X157405Y446114D01*
X157405Y443148D01*
X154440Y440182D01*
X145542Y440182D01*
X145542Y449080D02*
X154440Y449080D01*
X163317Y452045D02*
X163317Y440182D01*
X163317Y452045D02*
X169249Y457977D01*
X175180Y452045D01*
X175180Y440182D01*
X175180Y449080D02*
X163317Y449080D01*
X187023Y440182D02*
X187023Y457977D01*
X181092Y457977D02*
X192955Y457977D01*
X204798Y457977D02*
X204798Y440182D01*
X198867Y457977D02*
X210730Y457977D01*
X216641Y449080D02*
X228505Y449080D01*
X222573Y455011D02*
X222573Y443148D01*
X486764Y570738D02*
X486764Y588533D01*
X480832Y588533D02*
X492696Y588533D01*
X498607Y588533D02*
X510471Y570738D01*
X498607Y570738D02*
X510471Y588533D01*
X532900Y590057D02*
X535865Y587091D01*
X532900Y590057D02*
X526968Y590057D01*
X524002Y587091D01*
X524002Y575228D01*
X526968Y572262D01*
X532900Y572262D01*
X535865Y575228D01*
X535865Y581160D01*
X529934Y581160D01*
X541777Y590057D02*
X541777Y572262D01*
X553640Y572262D02*
X541777Y590057D01*
X553640Y590057D02*
X553640Y572262D01*
X559552Y572262D02*
X559552Y590057D01*
X559552Y572262D02*
X568449Y572262D01*
X571415Y575228D01*
X571415Y587091D01*
X568449Y590057D01*
X559552Y590057D01*
X115062Y562117D02*
X115062Y544322D01*
X115062Y562117D02*
X123960Y562117D01*
X126925Y559151D01*
X126925Y556185D01*
X123960Y553220D01*
X126925Y550254D01*
X126925Y547288D01*
X123960Y544322D01*
X115062Y544322D01*
X115062Y553220D02*
X123960Y553220D01*
X132837Y556185D02*
X132837Y544322D01*
X132837Y556185D02*
X138769Y562117D01*
X144700Y556185D01*
X144700Y544322D01*
X144700Y553220D02*
X132837Y553220D01*
X156543Y544322D02*
X156543Y562117D01*
X150612Y562117D02*
X162475Y562117D01*
X174318Y562117D02*
X174318Y544322D01*
X168387Y562117D02*
X180250Y562117D01*
X186161Y553220D02*
X198025Y553220D01*
X192093Y559151D02*
X192093Y547288D01*
X78676Y560593D02*
X66812Y560593D01*
X66812Y551696D01*
X72744Y554661D01*
X75710Y554661D01*
X78676Y551696D01*
X78676Y545764D01*
X75710Y542798D01*
X69778Y542798D01*
X66812Y545764D01*
X84587Y554661D02*
X90519Y542798D01*
X96451Y554661D01*
X54954Y391937D02*
X54954Y374142D01*
X49022Y391937D02*
X60885Y391937D01*
X66797Y391937D02*
X78660Y374142D01*
X66797Y374142D02*
X78660Y391937D01*
X559572Y413258D02*
X559572Y431053D01*
X568470Y431053D01*
X571436Y428087D01*
X571436Y422156D01*
X568470Y419190D01*
X559572Y419190D01*
X565504Y419190D02*
X571436Y413258D01*
X589211Y413258D02*
X577347Y431053D01*
X589211Y431053D02*
X577347Y413258D01*
X524012Y431038D02*
X524012Y448833D01*
X532910Y448833D01*
X535876Y445867D01*
X535876Y439936D01*
X532910Y436970D01*
X524012Y436970D01*
X529944Y436970D02*
X535876Y431038D01*
X541787Y442901D02*
X553651Y431038D01*
X553651Y442901D02*
X541787Y431038D01*
X518101Y473807D02*
X515135Y476773D01*
X509203Y476773D01*
X506237Y473807D01*
X506237Y461944D01*
X509203Y458978D01*
X515135Y458978D01*
X518101Y461944D01*
X518101Y467876D01*
X512169Y467876D01*
X524012Y476773D02*
X524012Y458978D01*
X535876Y458978D02*
X524012Y476773D01*
X535876Y476773D02*
X535876Y458978D01*
X541787Y458978D02*
X541787Y476773D01*
X541787Y458978D02*
X550685Y458978D01*
X553651Y461944D01*
X553651Y473807D01*
X550685Y476773D01*
X541787Y476773D01*
X533336Y502173D02*
X521472Y502173D01*
X521472Y493276D01*
X527404Y496241D01*
X530370Y496241D01*
X533336Y493276D01*
X533336Y487344D01*
X530370Y484378D01*
X524438Y484378D01*
X521472Y487344D01*
X539247Y496241D02*
X545179Y484378D01*
X551111Y496241D01*
X91365Y417337D02*
X79502Y417337D01*
X79502Y408440D01*
X85434Y411405D01*
X88400Y411405D01*
X91365Y408440D01*
X91365Y402508D01*
X88400Y399542D01*
X82468Y399542D01*
X79502Y402508D01*
X97277Y405474D02*
X97277Y417337D01*
X97277Y405474D02*
X103209Y399542D01*
X109140Y405474D01*
X109140Y417337D01*
X93905Y442311D02*
X90940Y445277D01*
X85008Y445277D01*
X82042Y442311D01*
X82042Y430448D01*
X85008Y427482D01*
X90940Y427482D01*
X93905Y430448D01*
X93905Y436380D01*
X87974Y436380D01*
X99817Y445277D02*
X99817Y427482D01*
X111680Y427482D02*
X99817Y445277D01*
X111680Y445277D02*
X111680Y427482D01*
X117592Y427482D02*
X117592Y445277D01*
X117592Y427482D02*
X126489Y427482D01*
X129455Y430448D01*
X129455Y442311D01*
X126489Y445277D01*
X117592Y445277D01*
X82042Y452882D02*
X82042Y470677D01*
X90940Y470677D01*
X93905Y467711D01*
X93905Y461780D01*
X90940Y458814D01*
X82042Y458814D01*
X87974Y458814D02*
X93905Y452882D01*
X99817Y464745D02*
X111680Y452882D01*
X99817Y452882D02*
X111680Y464745D01*
X87974Y478282D02*
X87974Y496077D01*
X93905Y496077D02*
X82042Y496077D01*
X99817Y490145D02*
X111680Y478282D01*
X99817Y478282D02*
X111680Y490145D01*
D11*
X424980Y375920D03*
X444980Y375920D03*
X464980Y375920D03*
X484980Y375920D03*
X504980Y375920D03*
X524980Y375920D03*
D10*
X247650Y515620D02*
X241300Y515620D01*
X231140Y509270D02*
X231140Y521970D01*
X241300Y515620D01*
X226060Y515620D01*
X231140Y509270D02*
X241300Y515620D01*
X241300Y521970D01*
X241300Y509270D02*
X238760Y509270D01*
X241300Y509270D02*
X241300Y515620D01*
X220980Y505460D02*
X220880Y505462D01*
X220781Y505468D01*
X220681Y505478D01*
X220583Y505491D01*
X220484Y505509D01*
X220387Y505530D01*
X220291Y505555D01*
X220195Y505584D01*
X220101Y505617D01*
X220008Y505653D01*
X219917Y505693D01*
X219827Y505737D01*
X219739Y505784D01*
X219653Y505834D01*
X219569Y505888D01*
X219487Y505945D01*
X219408Y506005D01*
X219330Y506069D01*
X219256Y506135D01*
X219184Y506204D01*
X219115Y506276D01*
X219049Y506350D01*
X218985Y506428D01*
X218925Y506507D01*
X218868Y506589D01*
X218814Y506673D01*
X218764Y506759D01*
X218717Y506847D01*
X218673Y506937D01*
X218633Y507028D01*
X218597Y507121D01*
X218564Y507215D01*
X218535Y507311D01*
X218510Y507407D01*
X218489Y507504D01*
X218471Y507603D01*
X218458Y507701D01*
X218448Y507801D01*
X218442Y507900D01*
X218440Y508000D01*
X261620Y505460D02*
X261720Y505462D01*
X261819Y505468D01*
X261919Y505478D01*
X262017Y505491D01*
X262116Y505509D01*
X262213Y505530D01*
X262309Y505555D01*
X262405Y505584D01*
X262499Y505617D01*
X262592Y505653D01*
X262683Y505693D01*
X262773Y505737D01*
X262861Y505784D01*
X262947Y505834D01*
X263031Y505888D01*
X263113Y505945D01*
X263192Y506005D01*
X263270Y506069D01*
X263344Y506135D01*
X263416Y506204D01*
X263485Y506276D01*
X263551Y506350D01*
X263615Y506428D01*
X263675Y506507D01*
X263732Y506589D01*
X263786Y506673D01*
X263836Y506759D01*
X263883Y506847D01*
X263927Y506937D01*
X263967Y507028D01*
X264003Y507121D01*
X264036Y507215D01*
X264065Y507311D01*
X264090Y507407D01*
X264111Y507504D01*
X264129Y507603D01*
X264142Y507701D01*
X264152Y507801D01*
X264158Y507900D01*
X264160Y508000D01*
X264160Y523240D02*
X264158Y523340D01*
X264152Y523439D01*
X264142Y523539D01*
X264129Y523637D01*
X264111Y523736D01*
X264090Y523833D01*
X264065Y523929D01*
X264036Y524025D01*
X264003Y524119D01*
X263967Y524212D01*
X263927Y524303D01*
X263883Y524393D01*
X263836Y524481D01*
X263786Y524567D01*
X263732Y524651D01*
X263675Y524733D01*
X263615Y524812D01*
X263551Y524890D01*
X263485Y524964D01*
X263416Y525036D01*
X263344Y525105D01*
X263270Y525171D01*
X263192Y525235D01*
X263113Y525295D01*
X263031Y525352D01*
X262947Y525406D01*
X262861Y525456D01*
X262773Y525503D01*
X262683Y525547D01*
X262592Y525587D01*
X262499Y525623D01*
X262405Y525656D01*
X262309Y525685D01*
X262213Y525710D01*
X262116Y525731D01*
X262017Y525749D01*
X261919Y525762D01*
X261819Y525772D01*
X261720Y525778D01*
X261620Y525780D01*
X220980Y525780D02*
X220880Y525778D01*
X220781Y525772D01*
X220681Y525762D01*
X220583Y525749D01*
X220484Y525731D01*
X220387Y525710D01*
X220291Y525685D01*
X220195Y525656D01*
X220101Y525623D01*
X220008Y525587D01*
X219917Y525547D01*
X219827Y525503D01*
X219739Y525456D01*
X219653Y525406D01*
X219569Y525352D01*
X219487Y525295D01*
X219408Y525235D01*
X219330Y525171D01*
X219256Y525105D01*
X219184Y525036D01*
X219115Y524964D01*
X219049Y524890D01*
X218985Y524812D01*
X218925Y524733D01*
X218868Y524651D01*
X218814Y524567D01*
X218764Y524481D01*
X218717Y524393D01*
X218673Y524303D01*
X218633Y524212D01*
X218597Y524119D01*
X218564Y524025D01*
X218535Y523929D01*
X218510Y523833D01*
X218489Y523736D01*
X218471Y523637D01*
X218458Y523539D01*
X218448Y523439D01*
X218442Y523340D01*
X218440Y523240D01*
X218440Y508000D01*
X264160Y508000D02*
X264160Y523240D01*
X261620Y505460D02*
X220980Y505460D01*
X220980Y525780D02*
X261620Y525780D01*
D12*
X257810Y515620D03*
D13*
X208915Y515620D03*
X273685Y515620D03*
D11*
X406400Y389740D03*
X406400Y409740D03*
X406400Y429740D03*
X406400Y449740D03*
X406400Y469740D03*
X406400Y489740D03*
X406400Y509740D03*
X406400Y529740D03*
D14*
X342900Y532130D02*
X342900Y544830D01*
X349250Y551180D01*
X361950Y551180D02*
X368300Y544830D01*
X342900Y506730D02*
X349250Y500380D01*
X342900Y506730D02*
X342900Y519430D01*
X349250Y525780D01*
X361950Y525780D02*
X368300Y519430D01*
X368300Y506730D01*
X361950Y500380D01*
X349250Y525780D02*
X342900Y532130D01*
X361950Y525780D02*
X368300Y532130D01*
X368300Y544830D01*
X342900Y468630D02*
X342900Y455930D01*
X342900Y468630D02*
X349250Y474980D01*
X361950Y474980D02*
X368300Y468630D01*
X349250Y474980D02*
X342900Y481330D01*
X342900Y494030D01*
X349250Y500380D01*
X361950Y500380D02*
X368300Y494030D01*
X368300Y481330D01*
X361950Y474980D01*
X342900Y430530D02*
X349250Y424180D01*
X342900Y430530D02*
X342900Y443230D01*
X349250Y449580D01*
X361950Y449580D02*
X368300Y443230D01*
X368300Y430530D01*
X361950Y424180D01*
X349250Y449580D02*
X342900Y455930D01*
X361950Y449580D02*
X368300Y455930D01*
X368300Y468630D01*
X342900Y392430D02*
X342900Y379730D01*
X342900Y392430D02*
X349250Y398780D01*
X361950Y398780D02*
X368300Y392430D01*
X349250Y398780D02*
X342900Y405130D01*
X342900Y417830D01*
X349250Y424180D01*
X361950Y424180D02*
X368300Y417830D01*
X368300Y405130D01*
X361950Y398780D01*
X361950Y373380D02*
X349250Y373380D01*
X342900Y379730D01*
X361950Y373380D02*
X368300Y379730D01*
X368300Y392430D01*
X342900Y557530D02*
X342900Y570230D01*
X349250Y576580D01*
X361950Y576580D01*
X368300Y570230D01*
X349250Y551180D02*
X342900Y557530D01*
X361950Y551180D02*
X368300Y557530D01*
X368300Y570230D01*
D10*
X331470Y586740D02*
X227330Y586740D01*
X227330Y745490D02*
X331470Y745490D01*
X331470Y711200D02*
X331470Y586740D01*
X331470Y711200D02*
X322580Y711200D01*
X322580Y726440D01*
X331470Y726440D01*
X331470Y745490D01*
X227330Y711200D02*
X227330Y586740D01*
X227330Y711200D02*
X236220Y711200D01*
X236220Y726440D01*
X227330Y726440D01*
X227330Y745490D01*
D15*
X233680Y593090D02*
X325120Y593090D01*
X325120Y675640D01*
X233680Y675640D01*
X233680Y593090D01*
D10*
X261366Y711200D02*
X261371Y711643D01*
X261388Y712085D01*
X261415Y712527D01*
X261453Y712968D01*
X261502Y713408D01*
X261561Y713846D01*
X261632Y714283D01*
X261713Y714718D01*
X261804Y715151D01*
X261906Y715582D01*
X262019Y716010D01*
X262143Y716435D01*
X262276Y716857D01*
X262420Y717275D01*
X262574Y717690D01*
X262739Y718101D01*
X262913Y718508D01*
X263097Y718911D01*
X263292Y719308D01*
X263495Y719701D01*
X263709Y720089D01*
X263932Y720471D01*
X264164Y720848D01*
X264405Y721219D01*
X264656Y721584D01*
X264915Y721943D01*
X265183Y722295D01*
X265460Y722641D01*
X265744Y722979D01*
X266038Y723311D01*
X266339Y723635D01*
X266648Y723952D01*
X266965Y724261D01*
X267289Y724562D01*
X267621Y724856D01*
X267959Y725140D01*
X268305Y725417D01*
X268657Y725685D01*
X269016Y725944D01*
X269381Y726195D01*
X269752Y726436D01*
X270129Y726668D01*
X270511Y726891D01*
X270899Y727105D01*
X271292Y727308D01*
X271689Y727503D01*
X272092Y727687D01*
X272499Y727861D01*
X272910Y728026D01*
X273325Y728180D01*
X273743Y728324D01*
X274165Y728457D01*
X274590Y728581D01*
X275018Y728694D01*
X275449Y728796D01*
X275882Y728887D01*
X276317Y728968D01*
X276754Y729039D01*
X277192Y729098D01*
X277632Y729147D01*
X278073Y729185D01*
X278515Y729212D01*
X278957Y729229D01*
X279400Y729234D01*
X279843Y729229D01*
X280285Y729212D01*
X280727Y729185D01*
X281168Y729147D01*
X281608Y729098D01*
X282046Y729039D01*
X282483Y728968D01*
X282918Y728887D01*
X283351Y728796D01*
X283782Y728694D01*
X284210Y728581D01*
X284635Y728457D01*
X285057Y728324D01*
X285475Y728180D01*
X285890Y728026D01*
X286301Y727861D01*
X286708Y727687D01*
X287111Y727503D01*
X287508Y727308D01*
X287901Y727105D01*
X288289Y726891D01*
X288671Y726668D01*
X289048Y726436D01*
X289419Y726195D01*
X289784Y725944D01*
X290143Y725685D01*
X290495Y725417D01*
X290841Y725140D01*
X291179Y724856D01*
X291511Y724562D01*
X291835Y724261D01*
X292152Y723952D01*
X292461Y723635D01*
X292762Y723311D01*
X293056Y722979D01*
X293340Y722641D01*
X293617Y722295D01*
X293885Y721943D01*
X294144Y721584D01*
X294395Y721219D01*
X294636Y720848D01*
X294868Y720471D01*
X295091Y720089D01*
X295305Y719701D01*
X295508Y719308D01*
X295703Y718911D01*
X295887Y718508D01*
X296061Y718101D01*
X296226Y717690D01*
X296380Y717275D01*
X296524Y716857D01*
X296657Y716435D01*
X296781Y716010D01*
X296894Y715582D01*
X296996Y715151D01*
X297087Y714718D01*
X297168Y714283D01*
X297239Y713846D01*
X297298Y713408D01*
X297347Y712968D01*
X297385Y712527D01*
X297412Y712085D01*
X297429Y711643D01*
X297434Y711200D01*
X297429Y710757D01*
X297412Y710315D01*
X297385Y709873D01*
X297347Y709432D01*
X297298Y708992D01*
X297239Y708554D01*
X297168Y708117D01*
X297087Y707682D01*
X296996Y707249D01*
X296894Y706818D01*
X296781Y706390D01*
X296657Y705965D01*
X296524Y705543D01*
X296380Y705125D01*
X296226Y704710D01*
X296061Y704299D01*
X295887Y703892D01*
X295703Y703489D01*
X295508Y703092D01*
X295305Y702699D01*
X295091Y702311D01*
X294868Y701929D01*
X294636Y701552D01*
X294395Y701181D01*
X294144Y700816D01*
X293885Y700457D01*
X293617Y700105D01*
X293340Y699759D01*
X293056Y699421D01*
X292762Y699089D01*
X292461Y698765D01*
X292152Y698448D01*
X291835Y698139D01*
X291511Y697838D01*
X291179Y697544D01*
X290841Y697260D01*
X290495Y696983D01*
X290143Y696715D01*
X289784Y696456D01*
X289419Y696205D01*
X289048Y695964D01*
X288671Y695732D01*
X288289Y695509D01*
X287901Y695295D01*
X287508Y695092D01*
X287111Y694897D01*
X286708Y694713D01*
X286301Y694539D01*
X285890Y694374D01*
X285475Y694220D01*
X285057Y694076D01*
X284635Y693943D01*
X284210Y693819D01*
X283782Y693706D01*
X283351Y693604D01*
X282918Y693513D01*
X282483Y693432D01*
X282046Y693361D01*
X281608Y693302D01*
X281168Y693253D01*
X280727Y693215D01*
X280285Y693188D01*
X279843Y693171D01*
X279400Y693166D01*
X278957Y693171D01*
X278515Y693188D01*
X278073Y693215D01*
X277632Y693253D01*
X277192Y693302D01*
X276754Y693361D01*
X276317Y693432D01*
X275882Y693513D01*
X275449Y693604D01*
X275018Y693706D01*
X274590Y693819D01*
X274165Y693943D01*
X273743Y694076D01*
X273325Y694220D01*
X272910Y694374D01*
X272499Y694539D01*
X272092Y694713D01*
X271689Y694897D01*
X271292Y695092D01*
X270899Y695295D01*
X270511Y695509D01*
X270129Y695732D01*
X269752Y695964D01*
X269381Y696205D01*
X269016Y696456D01*
X268657Y696715D01*
X268305Y696983D01*
X267959Y697260D01*
X267621Y697544D01*
X267289Y697838D01*
X266965Y698139D01*
X266648Y698448D01*
X266339Y698765D01*
X266038Y699089D01*
X265744Y699421D01*
X265460Y699759D01*
X265183Y700105D01*
X264915Y700457D01*
X264656Y700816D01*
X264405Y701181D01*
X264164Y701552D01*
X263932Y701929D01*
X263709Y702311D01*
X263495Y702699D01*
X263292Y703092D01*
X263097Y703489D01*
X262913Y703892D01*
X262739Y704299D01*
X262574Y704710D01*
X262420Y705125D01*
X262276Y705543D01*
X262143Y705965D01*
X262019Y706390D01*
X261906Y706818D01*
X261804Y707249D01*
X261713Y707682D01*
X261632Y708117D01*
X261561Y708554D01*
X261502Y708992D01*
X261453Y709432D01*
X261415Y709873D01*
X261388Y710315D01*
X261371Y710757D01*
X261366Y711200D01*
D16*
X235458Y684620D02*
X235458Y678688D01*
X235458Y684620D02*
X238424Y687586D01*
X241390Y684620D01*
X241390Y678688D01*
X241390Y683137D02*
X235458Y683137D01*
X244579Y684620D02*
X247545Y687586D01*
X247545Y678688D01*
X244579Y678688D02*
X250511Y678688D01*
X253701Y687586D02*
X259632Y687586D01*
X253701Y687586D02*
X253701Y683137D01*
X256666Y684620D01*
X258149Y684620D01*
X259632Y683137D01*
X259632Y680171D01*
X258149Y678688D01*
X255184Y678688D01*
X253701Y680171D01*
X262822Y675722D02*
X265788Y678688D01*
X265788Y680171D01*
X264305Y680171D01*
X264305Y678688D01*
X265788Y678688D01*
X268903Y678688D02*
X274835Y678688D01*
X268903Y678688D02*
X274835Y684620D01*
X274835Y686103D01*
X273352Y687586D01*
X270386Y687586D01*
X268903Y686103D01*
X278024Y684620D02*
X278024Y678688D01*
X278024Y684620D02*
X279507Y684620D01*
X280990Y683137D01*
X280990Y678688D01*
X280990Y683137D02*
X282473Y684620D01*
X283956Y683137D01*
X283956Y678688D01*
X287145Y678688D02*
X287145Y684620D01*
X288628Y684620D01*
X290111Y683137D01*
X290111Y678688D01*
X290111Y683137D02*
X291594Y684620D01*
X293077Y683137D01*
X293077Y678688D01*
D17*
X304800Y582295D03*
X279400Y582295D03*
X254000Y582295D03*
D14*
X267970Y480060D02*
X280670Y480060D01*
X254520Y462280D02*
X254530Y463078D01*
X254559Y463875D01*
X254608Y464671D01*
X254676Y465466D01*
X254764Y466258D01*
X254872Y467049D01*
X254998Y467836D01*
X255144Y468620D01*
X255310Y469401D01*
X255494Y470177D01*
X255697Y470948D01*
X255919Y471714D01*
X256160Y472475D01*
X256420Y473229D01*
X256698Y473977D01*
X256994Y474717D01*
X257308Y475450D01*
X257640Y476176D01*
X257990Y476892D01*
X258358Y477600D01*
X258742Y478299D01*
X259144Y478988D01*
X259562Y479667D01*
X259997Y480336D01*
X260448Y480994D01*
X260916Y481640D01*
X261399Y482275D01*
X261897Y482898D01*
X262411Y483508D01*
X262939Y484106D01*
X263482Y484690D01*
X264039Y485261D01*
X264610Y485818D01*
X265194Y486361D01*
X265792Y486889D01*
X266402Y487403D01*
X267025Y487901D01*
X267660Y488384D01*
X268306Y488852D01*
X268964Y489303D01*
X269633Y489738D01*
X270312Y490156D01*
X271001Y490558D01*
X271700Y490942D01*
X272408Y491310D01*
X273124Y491660D01*
X273850Y491992D01*
X274583Y492306D01*
X275323Y492602D01*
X276071Y492880D01*
X276825Y493140D01*
X277586Y493381D01*
X278352Y493603D01*
X279123Y493806D01*
X279899Y493990D01*
X280680Y494156D01*
X281464Y494302D01*
X282251Y494428D01*
X283042Y494536D01*
X283834Y494624D01*
X284629Y494692D01*
X285425Y494741D01*
X286222Y494770D01*
X287020Y494780D01*
X287818Y494770D01*
X288615Y494741D01*
X289411Y494692D01*
X290206Y494624D01*
X290998Y494536D01*
X291789Y494428D01*
X292576Y494302D01*
X293360Y494156D01*
X294141Y493990D01*
X294917Y493806D01*
X295688Y493603D01*
X296454Y493381D01*
X297215Y493140D01*
X297969Y492880D01*
X298717Y492602D01*
X299457Y492306D01*
X300190Y491992D01*
X300916Y491660D01*
X301632Y491310D01*
X302340Y490942D01*
X303039Y490558D01*
X303728Y490156D01*
X304407Y489738D01*
X305076Y489303D01*
X305734Y488852D01*
X306380Y488384D01*
X307015Y487901D01*
X307638Y487403D01*
X308248Y486889D01*
X308846Y486361D01*
X309430Y485818D01*
X310001Y485261D01*
X310558Y484690D01*
X311101Y484106D01*
X311629Y483508D01*
X312143Y482898D01*
X312641Y482275D01*
X313124Y481640D01*
X313592Y480994D01*
X314043Y480336D01*
X314478Y479667D01*
X314896Y478988D01*
X315298Y478299D01*
X315682Y477600D01*
X316050Y476892D01*
X316400Y476176D01*
X316732Y475450D01*
X317046Y474717D01*
X317342Y473977D01*
X317620Y473229D01*
X317880Y472475D01*
X318121Y471714D01*
X318343Y470948D01*
X318546Y470177D01*
X318730Y469401D01*
X318896Y468620D01*
X319042Y467836D01*
X319168Y467049D01*
X319276Y466258D01*
X319364Y465466D01*
X319432Y464671D01*
X319481Y463875D01*
X319510Y463078D01*
X319520Y462280D01*
X319510Y461482D01*
X319481Y460685D01*
X319432Y459889D01*
X319364Y459094D01*
X319276Y458302D01*
X319168Y457511D01*
X319042Y456724D01*
X318896Y455940D01*
X318730Y455159D01*
X318546Y454383D01*
X318343Y453612D01*
X318121Y452846D01*
X317880Y452085D01*
X317620Y451331D01*
X317342Y450583D01*
X317046Y449843D01*
X316732Y449110D01*
X316400Y448384D01*
X316050Y447668D01*
X315682Y446960D01*
X315298Y446261D01*
X314896Y445572D01*
X314478Y444893D01*
X314043Y444224D01*
X313592Y443566D01*
X313124Y442920D01*
X312641Y442285D01*
X312143Y441662D01*
X311629Y441052D01*
X311101Y440454D01*
X310558Y439870D01*
X310001Y439299D01*
X309430Y438742D01*
X308846Y438199D01*
X308248Y437671D01*
X307638Y437157D01*
X307015Y436659D01*
X306380Y436176D01*
X305734Y435708D01*
X305076Y435257D01*
X304407Y434822D01*
X303728Y434404D01*
X303039Y434002D01*
X302340Y433618D01*
X301632Y433250D01*
X300916Y432900D01*
X300190Y432568D01*
X299457Y432254D01*
X298717Y431958D01*
X297969Y431680D01*
X297215Y431420D01*
X296454Y431179D01*
X295688Y430957D01*
X294917Y430754D01*
X294141Y430570D01*
X293360Y430404D01*
X292576Y430258D01*
X291789Y430132D01*
X290998Y430024D01*
X290206Y429936D01*
X289411Y429868D01*
X288615Y429819D01*
X287818Y429790D01*
X287020Y429780D01*
X286222Y429790D01*
X285425Y429819D01*
X284629Y429868D01*
X283834Y429936D01*
X283042Y430024D01*
X282251Y430132D01*
X281464Y430258D01*
X280680Y430404D01*
X279899Y430570D01*
X279123Y430754D01*
X278352Y430957D01*
X277586Y431179D01*
X276825Y431420D01*
X276071Y431680D01*
X275323Y431958D01*
X274583Y432254D01*
X273850Y432568D01*
X273124Y432900D01*
X272408Y433250D01*
X271700Y433618D01*
X271001Y434002D01*
X270312Y434404D01*
X269633Y434822D01*
X268964Y435257D01*
X268306Y435708D01*
X267660Y436176D01*
X267025Y436659D01*
X266402Y437157D01*
X265792Y437671D01*
X265194Y438199D01*
X264610Y438742D01*
X264039Y439299D01*
X263482Y439870D01*
X262939Y440454D01*
X262411Y441052D01*
X261897Y441662D01*
X261399Y442285D01*
X260916Y442920D01*
X260448Y443566D01*
X259997Y444224D01*
X259562Y444893D01*
X259144Y445572D01*
X258742Y446261D01*
X258358Y446960D01*
X257990Y447668D01*
X257640Y448384D01*
X257308Y449110D01*
X256994Y449843D01*
X256698Y450583D01*
X256420Y451331D01*
X256160Y452085D01*
X255919Y452846D01*
X255697Y453612D01*
X255494Y454383D01*
X255310Y455159D01*
X255144Y455940D01*
X254998Y456724D01*
X254872Y457511D01*
X254764Y458302D01*
X254676Y459094D01*
X254608Y459889D01*
X254559Y460685D01*
X254530Y461482D01*
X254520Y462280D01*
X293370Y480060D02*
X306070Y480060D01*
X299720Y486410D02*
X299720Y473710D01*
X298450Y398780D02*
X292100Y392430D01*
X298450Y398780D02*
X311150Y398780D01*
X317500Y392430D01*
X317500Y379730D02*
X311150Y373380D01*
X298450Y373380D01*
X292100Y379730D01*
X260350Y398780D02*
X247650Y398780D01*
X260350Y398780D02*
X266700Y392430D01*
X266700Y379730D02*
X260350Y373380D01*
X266700Y392430D02*
X273050Y398780D01*
X285750Y398780D01*
X292100Y392430D01*
X292100Y379730D02*
X285750Y373380D01*
X273050Y373380D01*
X266700Y379730D01*
X241300Y379730D02*
X241300Y392430D01*
X247650Y398780D01*
X241300Y379730D02*
X247650Y373380D01*
X260350Y373380D01*
X317500Y379730D02*
X317500Y392430D01*
X563880Y488950D02*
X570230Y482600D01*
X563880Y488950D02*
X563880Y501650D01*
X570230Y508000D01*
X582930Y508000D02*
X589280Y501650D01*
X589280Y488950D01*
X582930Y482600D01*
X563880Y450850D02*
X563880Y438150D01*
X563880Y450850D02*
X570230Y457200D01*
X582930Y457200D02*
X589280Y450850D01*
X570230Y457200D02*
X563880Y463550D01*
X563880Y476250D01*
X570230Y482600D01*
X582930Y482600D02*
X589280Y476250D01*
X589280Y463550D01*
X582930Y457200D01*
X582930Y431800D02*
X570230Y431800D01*
X563880Y438150D01*
X582930Y431800D02*
X589280Y438150D01*
X589280Y450850D01*
X582930Y508000D02*
X570230Y508000D01*
X203200Y478790D02*
X196850Y485140D01*
X184150Y485140D01*
X177800Y478790D01*
X177800Y466090D01*
X184150Y459740D01*
X196850Y459740D01*
X203200Y466090D01*
X203200Y478790D01*
X194310Y411480D02*
X200660Y405130D01*
X194310Y411480D02*
X181610Y411480D01*
X175260Y405130D01*
X175260Y392430D01*
X181610Y386080D01*
X194310Y386080D01*
X200660Y392430D01*
X200660Y405130D01*
X499110Y566420D02*
X511810Y566420D01*
X518160Y560070D01*
X518160Y547370D02*
X511810Y541020D01*
X518160Y560070D02*
X524510Y566420D01*
X537210Y566420D01*
X543560Y560070D01*
X543560Y547370D02*
X537210Y541020D01*
X524510Y541020D01*
X518160Y547370D01*
X492760Y547370D02*
X492760Y560070D01*
X499110Y566420D01*
X492760Y547370D02*
X499110Y541020D01*
X511810Y541020D01*
X543560Y547370D02*
X543560Y560070D01*
X78740Y412750D02*
X78740Y400050D01*
X72390Y393700D01*
X59690Y393700D02*
X53340Y400050D01*
X78740Y438150D02*
X72390Y444500D01*
X78740Y438150D02*
X78740Y425450D01*
X72390Y419100D01*
X59690Y419100D02*
X53340Y425450D01*
X53340Y438150D01*
X59690Y444500D01*
X72390Y419100D02*
X78740Y412750D01*
X59690Y419100D02*
X53340Y412750D01*
X53340Y400050D01*
X78740Y476250D02*
X78740Y488950D01*
X78740Y476250D02*
X72390Y469900D01*
X59690Y469900D02*
X53340Y476250D01*
X72390Y469900D02*
X78740Y463550D01*
X78740Y450850D01*
X72390Y444500D01*
X59690Y444500D02*
X53340Y450850D01*
X53340Y463550D01*
X59690Y469900D01*
X59690Y495300D02*
X72390Y495300D01*
X78740Y488950D01*
X59690Y495300D02*
X53340Y488950D01*
X53340Y476250D01*
X59690Y393700D02*
X72390Y393700D01*
X115570Y518160D02*
X128270Y518160D01*
X115570Y518160D02*
X109220Y524510D01*
X109220Y537210D02*
X115570Y543560D01*
X109220Y524510D02*
X102870Y518160D01*
X90170Y518160D01*
X83820Y524510D01*
X83820Y537210D02*
X90170Y543560D01*
X102870Y543560D01*
X109220Y537210D01*
X134620Y537210D02*
X134620Y524510D01*
X128270Y518160D01*
X134620Y537210D02*
X128270Y543560D01*
X115570Y543560D01*
X83820Y537210D02*
X83820Y524510D01*
M02*
