G04 EAGLE Gerber RS-274X export*
G75*
%MOMM*%
%FSLAX34Y34*%
%LPD*%
%INSilkscreen Top*%
%IPPOS*%
%AMOC8*
5,1,8,0,0,1.08239X$1,22.5*%
G01*
%ADD10C,0.152400*%
%ADD11R,0.508000X0.508000*%
%ADD12R,0.508000X2.032000*%
%ADD13R,1.905000X0.508000*%
%ADD14C,0.203200*%
%ADD15C,0.050800*%
%ADD16C,0.101600*%
%ADD17R,1.270000X0.889000*%


D10*
X163332Y347218D02*
X163332Y359081D01*
X169264Y365013D01*
X175196Y359081D01*
X175196Y347218D01*
X175196Y356116D02*
X163332Y356116D01*
X187039Y347218D02*
X187039Y365013D01*
X181107Y365013D02*
X192971Y365013D01*
X234442Y366537D02*
X234442Y348742D01*
X243340Y348742D01*
X246305Y351708D01*
X246305Y363571D01*
X243340Y366537D01*
X234442Y366537D01*
X252217Y360605D02*
X252217Y348742D01*
X252217Y360605D02*
X258149Y366537D01*
X264080Y360605D01*
X264080Y348742D01*
X264080Y357640D02*
X252217Y357640D01*
X275923Y348742D02*
X275923Y366537D01*
X269992Y366537D02*
X281855Y366537D01*
X287767Y360605D02*
X287767Y348742D01*
X287767Y360605D02*
X293698Y366537D01*
X299630Y360605D01*
X299630Y348742D01*
X299630Y357640D02*
X287767Y357640D01*
X93905Y361031D02*
X90940Y363997D01*
X85008Y363997D01*
X82042Y361031D01*
X82042Y349168D01*
X85008Y346202D01*
X90940Y346202D01*
X93905Y349168D01*
X93905Y355100D01*
X87974Y355100D01*
X99817Y363997D02*
X99817Y346202D01*
X111680Y346202D02*
X99817Y363997D01*
X111680Y363997D02*
X111680Y346202D01*
X117592Y346202D02*
X117592Y363997D01*
X117592Y346202D02*
X126489Y346202D01*
X129455Y349168D01*
X129455Y361031D01*
X126489Y363997D01*
X117592Y363997D01*
X143002Y463042D02*
X143002Y480837D01*
X151900Y480837D01*
X154865Y477871D01*
X154865Y474905D01*
X151900Y471940D01*
X154865Y468974D01*
X154865Y466008D01*
X151900Y463042D01*
X143002Y463042D01*
X143002Y471940D02*
X151900Y471940D01*
X160777Y474905D02*
X160777Y463042D01*
X160777Y474905D02*
X166709Y480837D01*
X172640Y474905D01*
X172640Y463042D01*
X172640Y471940D02*
X160777Y471940D01*
X184483Y463042D02*
X184483Y480837D01*
X178552Y480837D02*
X190415Y480837D01*
X202258Y480837D02*
X202258Y463042D01*
X196327Y480837D02*
X208190Y480837D01*
X214101Y471940D02*
X225965Y471940D01*
X220033Y477871D02*
X220033Y466008D01*
X54954Y391937D02*
X54954Y374142D01*
X49022Y391937D02*
X60885Y391937D01*
X66797Y391937D02*
X78660Y374142D01*
X66797Y374142D02*
X78660Y391937D01*
X79502Y417337D02*
X91365Y417337D01*
X79502Y417337D02*
X79502Y408440D01*
X85434Y411405D01*
X88400Y411405D01*
X91365Y408440D01*
X91365Y402508D01*
X88400Y399542D01*
X82468Y399542D01*
X79502Y402508D01*
X97277Y405474D02*
X97277Y417337D01*
X97277Y405474D02*
X103209Y399542D01*
X109140Y405474D01*
X109140Y417337D01*
X93905Y442311D02*
X90940Y445277D01*
X85008Y445277D01*
X82042Y442311D01*
X82042Y430448D01*
X85008Y427482D01*
X90940Y427482D01*
X93905Y430448D01*
X93905Y436380D01*
X87974Y436380D01*
X99817Y445277D02*
X99817Y427482D01*
X111680Y427482D02*
X99817Y445277D01*
X111680Y445277D02*
X111680Y427482D01*
X117592Y427482D02*
X117592Y445277D01*
X117592Y427482D02*
X126489Y427482D01*
X129455Y430448D01*
X129455Y442311D01*
X126489Y445277D01*
X117592Y445277D01*
X82042Y452882D02*
X82042Y470677D01*
X90940Y470677D01*
X93905Y467711D01*
X93905Y461780D01*
X90940Y458814D01*
X82042Y458814D01*
X87974Y458814D02*
X93905Y452882D01*
X99817Y464745D02*
X111680Y452882D01*
X99817Y452882D02*
X111680Y464745D01*
X87974Y478282D02*
X87974Y496077D01*
X93905Y496077D02*
X82042Y496077D01*
X99817Y490145D02*
X111680Y478282D01*
X99817Y478282D02*
X111680Y490145D01*
D11*
X318300Y353060D03*
X338300Y353060D03*
X358300Y353060D03*
X378300Y353060D03*
X398300Y353060D03*
X418300Y353060D03*
D10*
X121920Y538480D02*
X115570Y538480D01*
X132080Y544830D02*
X132080Y532130D01*
X121920Y538480D01*
X137160Y538480D01*
X132080Y544830D02*
X121920Y538480D01*
X121920Y532130D01*
X121920Y544830D02*
X124460Y544830D01*
X121920Y544830D02*
X121920Y538480D01*
X142240Y548640D02*
X142340Y548638D01*
X142439Y548632D01*
X142539Y548622D01*
X142637Y548609D01*
X142736Y548591D01*
X142833Y548570D01*
X142929Y548545D01*
X143025Y548516D01*
X143119Y548483D01*
X143212Y548447D01*
X143303Y548407D01*
X143393Y548363D01*
X143481Y548316D01*
X143567Y548266D01*
X143651Y548212D01*
X143733Y548155D01*
X143812Y548095D01*
X143890Y548031D01*
X143964Y547965D01*
X144036Y547896D01*
X144105Y547824D01*
X144171Y547750D01*
X144235Y547672D01*
X144295Y547593D01*
X144352Y547511D01*
X144406Y547427D01*
X144456Y547341D01*
X144503Y547253D01*
X144547Y547163D01*
X144587Y547072D01*
X144623Y546979D01*
X144656Y546885D01*
X144685Y546789D01*
X144710Y546693D01*
X144731Y546596D01*
X144749Y546497D01*
X144762Y546399D01*
X144772Y546299D01*
X144778Y546200D01*
X144780Y546100D01*
X101600Y548640D02*
X101500Y548638D01*
X101401Y548632D01*
X101301Y548622D01*
X101203Y548609D01*
X101104Y548591D01*
X101007Y548570D01*
X100911Y548545D01*
X100815Y548516D01*
X100721Y548483D01*
X100628Y548447D01*
X100537Y548407D01*
X100447Y548363D01*
X100359Y548316D01*
X100273Y548266D01*
X100189Y548212D01*
X100107Y548155D01*
X100028Y548095D01*
X99950Y548031D01*
X99876Y547965D01*
X99804Y547896D01*
X99735Y547824D01*
X99669Y547750D01*
X99605Y547672D01*
X99545Y547593D01*
X99488Y547511D01*
X99434Y547427D01*
X99384Y547341D01*
X99337Y547253D01*
X99293Y547163D01*
X99253Y547072D01*
X99217Y546979D01*
X99184Y546885D01*
X99155Y546789D01*
X99130Y546693D01*
X99109Y546596D01*
X99091Y546497D01*
X99078Y546399D01*
X99068Y546299D01*
X99062Y546200D01*
X99060Y546100D01*
X99060Y530860D02*
X99062Y530760D01*
X99068Y530661D01*
X99078Y530561D01*
X99091Y530463D01*
X99109Y530364D01*
X99130Y530267D01*
X99155Y530171D01*
X99184Y530075D01*
X99217Y529981D01*
X99253Y529888D01*
X99293Y529797D01*
X99337Y529707D01*
X99384Y529619D01*
X99434Y529533D01*
X99488Y529449D01*
X99545Y529367D01*
X99605Y529288D01*
X99669Y529210D01*
X99735Y529136D01*
X99804Y529064D01*
X99876Y528995D01*
X99950Y528929D01*
X100028Y528865D01*
X100107Y528805D01*
X100189Y528748D01*
X100273Y528694D01*
X100359Y528644D01*
X100447Y528597D01*
X100537Y528553D01*
X100628Y528513D01*
X100721Y528477D01*
X100815Y528444D01*
X100911Y528415D01*
X101007Y528390D01*
X101104Y528369D01*
X101203Y528351D01*
X101301Y528338D01*
X101401Y528328D01*
X101500Y528322D01*
X101600Y528320D01*
X142240Y528320D02*
X142340Y528322D01*
X142439Y528328D01*
X142539Y528338D01*
X142637Y528351D01*
X142736Y528369D01*
X142833Y528390D01*
X142929Y528415D01*
X143025Y528444D01*
X143119Y528477D01*
X143212Y528513D01*
X143303Y528553D01*
X143393Y528597D01*
X143481Y528644D01*
X143567Y528694D01*
X143651Y528748D01*
X143733Y528805D01*
X143812Y528865D01*
X143890Y528929D01*
X143964Y528995D01*
X144036Y529064D01*
X144105Y529136D01*
X144171Y529210D01*
X144235Y529288D01*
X144295Y529367D01*
X144352Y529449D01*
X144406Y529533D01*
X144456Y529619D01*
X144503Y529707D01*
X144547Y529797D01*
X144587Y529888D01*
X144623Y529981D01*
X144656Y530075D01*
X144685Y530171D01*
X144710Y530267D01*
X144731Y530364D01*
X144749Y530463D01*
X144762Y530561D01*
X144772Y530661D01*
X144778Y530760D01*
X144780Y530860D01*
X144780Y546100D01*
X99060Y546100D02*
X99060Y530860D01*
X101600Y548640D02*
X142240Y548640D01*
X142240Y528320D02*
X101600Y528320D01*
D12*
X105410Y538480D03*
D13*
X154305Y538480D03*
X89535Y538480D03*
D14*
X269240Y544830D02*
X269240Y557530D01*
X275590Y563880D01*
X288290Y563880D02*
X294640Y557530D01*
X269240Y519430D02*
X275590Y513080D01*
X269240Y519430D02*
X269240Y532130D01*
X275590Y538480D01*
X288290Y538480D02*
X294640Y532130D01*
X294640Y519430D01*
X288290Y513080D01*
X275590Y538480D02*
X269240Y544830D01*
X288290Y538480D02*
X294640Y544830D01*
X294640Y557530D01*
X269240Y481330D02*
X269240Y468630D01*
X269240Y481330D02*
X275590Y487680D01*
X288290Y487680D02*
X294640Y481330D01*
X275590Y487680D02*
X269240Y494030D01*
X269240Y506730D01*
X275590Y513080D01*
X288290Y513080D02*
X294640Y506730D01*
X294640Y494030D01*
X288290Y487680D01*
X269240Y443230D02*
X275590Y436880D01*
X269240Y443230D02*
X269240Y455930D01*
X275590Y462280D01*
X288290Y462280D02*
X294640Y455930D01*
X294640Y443230D01*
X288290Y436880D01*
X275590Y462280D02*
X269240Y468630D01*
X288290Y462280D02*
X294640Y468630D01*
X294640Y481330D01*
X269240Y405130D02*
X269240Y392430D01*
X269240Y405130D02*
X275590Y411480D01*
X288290Y411480D02*
X294640Y405130D01*
X275590Y411480D02*
X269240Y417830D01*
X269240Y430530D01*
X275590Y436880D01*
X288290Y436880D02*
X294640Y430530D01*
X294640Y417830D01*
X288290Y411480D01*
X288290Y386080D02*
X275590Y386080D01*
X269240Y392430D01*
X288290Y386080D02*
X294640Y392430D01*
X294640Y405130D01*
X269240Y570230D02*
X269240Y582930D01*
X275590Y589280D01*
X288290Y589280D01*
X294640Y582930D01*
X275590Y563880D02*
X269240Y570230D01*
X288290Y563880D02*
X294640Y570230D01*
X294640Y582930D01*
D10*
X151130Y596900D02*
X46990Y596900D01*
X46990Y755650D02*
X151130Y755650D01*
X151130Y721360D02*
X151130Y596900D01*
X151130Y721360D02*
X142240Y721360D01*
X142240Y736600D01*
X151130Y736600D01*
X151130Y755650D01*
X46990Y721360D02*
X46990Y596900D01*
X46990Y721360D02*
X55880Y721360D01*
X55880Y736600D01*
X46990Y736600D01*
X46990Y755650D01*
D15*
X53340Y603250D02*
X144780Y603250D01*
X144780Y685800D01*
X53340Y685800D01*
X53340Y603250D01*
D10*
X81026Y721360D02*
X81031Y721803D01*
X81048Y722245D01*
X81075Y722687D01*
X81113Y723128D01*
X81162Y723568D01*
X81221Y724006D01*
X81292Y724443D01*
X81373Y724878D01*
X81464Y725311D01*
X81566Y725742D01*
X81679Y726170D01*
X81803Y726595D01*
X81936Y727017D01*
X82080Y727435D01*
X82234Y727850D01*
X82399Y728261D01*
X82573Y728668D01*
X82757Y729071D01*
X82952Y729468D01*
X83155Y729861D01*
X83369Y730249D01*
X83592Y730631D01*
X83824Y731008D01*
X84065Y731379D01*
X84316Y731744D01*
X84575Y732103D01*
X84843Y732455D01*
X85120Y732801D01*
X85404Y733139D01*
X85698Y733471D01*
X85999Y733795D01*
X86308Y734112D01*
X86625Y734421D01*
X86949Y734722D01*
X87281Y735016D01*
X87619Y735300D01*
X87965Y735577D01*
X88317Y735845D01*
X88676Y736104D01*
X89041Y736355D01*
X89412Y736596D01*
X89789Y736828D01*
X90171Y737051D01*
X90559Y737265D01*
X90952Y737468D01*
X91349Y737663D01*
X91752Y737847D01*
X92159Y738021D01*
X92570Y738186D01*
X92985Y738340D01*
X93403Y738484D01*
X93825Y738617D01*
X94250Y738741D01*
X94678Y738854D01*
X95109Y738956D01*
X95542Y739047D01*
X95977Y739128D01*
X96414Y739199D01*
X96852Y739258D01*
X97292Y739307D01*
X97733Y739345D01*
X98175Y739372D01*
X98617Y739389D01*
X99060Y739394D01*
X99503Y739389D01*
X99945Y739372D01*
X100387Y739345D01*
X100828Y739307D01*
X101268Y739258D01*
X101706Y739199D01*
X102143Y739128D01*
X102578Y739047D01*
X103011Y738956D01*
X103442Y738854D01*
X103870Y738741D01*
X104295Y738617D01*
X104717Y738484D01*
X105135Y738340D01*
X105550Y738186D01*
X105961Y738021D01*
X106368Y737847D01*
X106771Y737663D01*
X107168Y737468D01*
X107561Y737265D01*
X107949Y737051D01*
X108331Y736828D01*
X108708Y736596D01*
X109079Y736355D01*
X109444Y736104D01*
X109803Y735845D01*
X110155Y735577D01*
X110501Y735300D01*
X110839Y735016D01*
X111171Y734722D01*
X111495Y734421D01*
X111812Y734112D01*
X112121Y733795D01*
X112422Y733471D01*
X112716Y733139D01*
X113000Y732801D01*
X113277Y732455D01*
X113545Y732103D01*
X113804Y731744D01*
X114055Y731379D01*
X114296Y731008D01*
X114528Y730631D01*
X114751Y730249D01*
X114965Y729861D01*
X115168Y729468D01*
X115363Y729071D01*
X115547Y728668D01*
X115721Y728261D01*
X115886Y727850D01*
X116040Y727435D01*
X116184Y727017D01*
X116317Y726595D01*
X116441Y726170D01*
X116554Y725742D01*
X116656Y725311D01*
X116747Y724878D01*
X116828Y724443D01*
X116899Y724006D01*
X116958Y723568D01*
X117007Y723128D01*
X117045Y722687D01*
X117072Y722245D01*
X117089Y721803D01*
X117094Y721360D01*
X117089Y720917D01*
X117072Y720475D01*
X117045Y720033D01*
X117007Y719592D01*
X116958Y719152D01*
X116899Y718714D01*
X116828Y718277D01*
X116747Y717842D01*
X116656Y717409D01*
X116554Y716978D01*
X116441Y716550D01*
X116317Y716125D01*
X116184Y715703D01*
X116040Y715285D01*
X115886Y714870D01*
X115721Y714459D01*
X115547Y714052D01*
X115363Y713649D01*
X115168Y713252D01*
X114965Y712859D01*
X114751Y712471D01*
X114528Y712089D01*
X114296Y711712D01*
X114055Y711341D01*
X113804Y710976D01*
X113545Y710617D01*
X113277Y710265D01*
X113000Y709919D01*
X112716Y709581D01*
X112422Y709249D01*
X112121Y708925D01*
X111812Y708608D01*
X111495Y708299D01*
X111171Y707998D01*
X110839Y707704D01*
X110501Y707420D01*
X110155Y707143D01*
X109803Y706875D01*
X109444Y706616D01*
X109079Y706365D01*
X108708Y706124D01*
X108331Y705892D01*
X107949Y705669D01*
X107561Y705455D01*
X107168Y705252D01*
X106771Y705057D01*
X106368Y704873D01*
X105961Y704699D01*
X105550Y704534D01*
X105135Y704380D01*
X104717Y704236D01*
X104295Y704103D01*
X103870Y703979D01*
X103442Y703866D01*
X103011Y703764D01*
X102578Y703673D01*
X102143Y703592D01*
X101706Y703521D01*
X101268Y703462D01*
X100828Y703413D01*
X100387Y703375D01*
X99945Y703348D01*
X99503Y703331D01*
X99060Y703326D01*
X98617Y703331D01*
X98175Y703348D01*
X97733Y703375D01*
X97292Y703413D01*
X96852Y703462D01*
X96414Y703521D01*
X95977Y703592D01*
X95542Y703673D01*
X95109Y703764D01*
X94678Y703866D01*
X94250Y703979D01*
X93825Y704103D01*
X93403Y704236D01*
X92985Y704380D01*
X92570Y704534D01*
X92159Y704699D01*
X91752Y704873D01*
X91349Y705057D01*
X90952Y705252D01*
X90559Y705455D01*
X90171Y705669D01*
X89789Y705892D01*
X89412Y706124D01*
X89041Y706365D01*
X88676Y706616D01*
X88317Y706875D01*
X87965Y707143D01*
X87619Y707420D01*
X87281Y707704D01*
X86949Y707998D01*
X86625Y708299D01*
X86308Y708608D01*
X85999Y708925D01*
X85698Y709249D01*
X85404Y709581D01*
X85120Y709919D01*
X84843Y710265D01*
X84575Y710617D01*
X84316Y710976D01*
X84065Y711341D01*
X83824Y711712D01*
X83592Y712089D01*
X83369Y712471D01*
X83155Y712859D01*
X82952Y713252D01*
X82757Y713649D01*
X82573Y714052D01*
X82399Y714459D01*
X82234Y714870D01*
X82080Y715285D01*
X81936Y715703D01*
X81803Y716125D01*
X81679Y716550D01*
X81566Y716978D01*
X81464Y717409D01*
X81373Y717842D01*
X81292Y718277D01*
X81221Y718714D01*
X81162Y719152D01*
X81113Y719592D01*
X81075Y720033D01*
X81048Y720475D01*
X81031Y720917D01*
X81026Y721360D01*
D16*
X55118Y694780D02*
X55118Y688848D01*
X55118Y694780D02*
X58084Y697746D01*
X61050Y694780D01*
X61050Y688848D01*
X61050Y693297D02*
X55118Y693297D01*
X64239Y694780D02*
X67205Y697746D01*
X67205Y688848D01*
X64239Y688848D02*
X70171Y688848D01*
X73361Y697746D02*
X79292Y697746D01*
X73361Y697746D02*
X73361Y693297D01*
X76326Y694780D01*
X77809Y694780D01*
X79292Y693297D01*
X79292Y690331D01*
X77809Y688848D01*
X74844Y688848D01*
X73361Y690331D01*
X82482Y685882D02*
X85448Y688848D01*
X85448Y690331D01*
X83965Y690331D01*
X83965Y688848D01*
X85448Y688848D01*
X88563Y688848D02*
X94495Y688848D01*
X88563Y688848D02*
X94495Y694780D01*
X94495Y696263D01*
X93012Y697746D01*
X90046Y697746D01*
X88563Y696263D01*
X97684Y694780D02*
X97684Y688848D01*
X97684Y694780D02*
X99167Y694780D01*
X100650Y693297D01*
X100650Y688848D01*
X100650Y693297D02*
X102133Y694780D01*
X103616Y693297D01*
X103616Y688848D01*
X106805Y688848D02*
X106805Y694780D01*
X108288Y694780D01*
X109771Y693297D01*
X109771Y688848D01*
X109771Y693297D02*
X111254Y694780D01*
X112737Y693297D01*
X112737Y688848D01*
D17*
X124460Y592455D03*
X99060Y592455D03*
X73660Y592455D03*
D14*
X205740Y552450D02*
X205740Y539750D01*
X191020Y558800D02*
X191030Y559598D01*
X191059Y560395D01*
X191108Y561191D01*
X191176Y561986D01*
X191264Y562778D01*
X191372Y563569D01*
X191498Y564356D01*
X191644Y565140D01*
X191810Y565921D01*
X191994Y566697D01*
X192197Y567468D01*
X192419Y568234D01*
X192660Y568995D01*
X192920Y569749D01*
X193198Y570497D01*
X193494Y571237D01*
X193808Y571970D01*
X194140Y572696D01*
X194490Y573412D01*
X194858Y574120D01*
X195242Y574819D01*
X195644Y575508D01*
X196062Y576187D01*
X196497Y576856D01*
X196948Y577514D01*
X197416Y578160D01*
X197899Y578795D01*
X198397Y579418D01*
X198911Y580028D01*
X199439Y580626D01*
X199982Y581210D01*
X200539Y581781D01*
X201110Y582338D01*
X201694Y582881D01*
X202292Y583409D01*
X202902Y583923D01*
X203525Y584421D01*
X204160Y584904D01*
X204806Y585372D01*
X205464Y585823D01*
X206133Y586258D01*
X206812Y586676D01*
X207501Y587078D01*
X208200Y587462D01*
X208908Y587830D01*
X209624Y588180D01*
X210350Y588512D01*
X211083Y588826D01*
X211823Y589122D01*
X212571Y589400D01*
X213325Y589660D01*
X214086Y589901D01*
X214852Y590123D01*
X215623Y590326D01*
X216399Y590510D01*
X217180Y590676D01*
X217964Y590822D01*
X218751Y590948D01*
X219542Y591056D01*
X220334Y591144D01*
X221129Y591212D01*
X221925Y591261D01*
X222722Y591290D01*
X223520Y591300D01*
X224318Y591290D01*
X225115Y591261D01*
X225911Y591212D01*
X226706Y591144D01*
X227498Y591056D01*
X228289Y590948D01*
X229076Y590822D01*
X229860Y590676D01*
X230641Y590510D01*
X231417Y590326D01*
X232188Y590123D01*
X232954Y589901D01*
X233715Y589660D01*
X234469Y589400D01*
X235217Y589122D01*
X235957Y588826D01*
X236690Y588512D01*
X237416Y588180D01*
X238132Y587830D01*
X238840Y587462D01*
X239539Y587078D01*
X240228Y586676D01*
X240907Y586258D01*
X241576Y585823D01*
X242234Y585372D01*
X242880Y584904D01*
X243515Y584421D01*
X244138Y583923D01*
X244748Y583409D01*
X245346Y582881D01*
X245930Y582338D01*
X246501Y581781D01*
X247058Y581210D01*
X247601Y580626D01*
X248129Y580028D01*
X248643Y579418D01*
X249141Y578795D01*
X249624Y578160D01*
X250092Y577514D01*
X250543Y576856D01*
X250978Y576187D01*
X251396Y575508D01*
X251798Y574819D01*
X252182Y574120D01*
X252550Y573412D01*
X252900Y572696D01*
X253232Y571970D01*
X253546Y571237D01*
X253842Y570497D01*
X254120Y569749D01*
X254380Y568995D01*
X254621Y568234D01*
X254843Y567468D01*
X255046Y566697D01*
X255230Y565921D01*
X255396Y565140D01*
X255542Y564356D01*
X255668Y563569D01*
X255776Y562778D01*
X255864Y561986D01*
X255932Y561191D01*
X255981Y560395D01*
X256010Y559598D01*
X256020Y558800D01*
X256010Y558002D01*
X255981Y557205D01*
X255932Y556409D01*
X255864Y555614D01*
X255776Y554822D01*
X255668Y554031D01*
X255542Y553244D01*
X255396Y552460D01*
X255230Y551679D01*
X255046Y550903D01*
X254843Y550132D01*
X254621Y549366D01*
X254380Y548605D01*
X254120Y547851D01*
X253842Y547103D01*
X253546Y546363D01*
X253232Y545630D01*
X252900Y544904D01*
X252550Y544188D01*
X252182Y543480D01*
X251798Y542781D01*
X251396Y542092D01*
X250978Y541413D01*
X250543Y540744D01*
X250092Y540086D01*
X249624Y539440D01*
X249141Y538805D01*
X248643Y538182D01*
X248129Y537572D01*
X247601Y536974D01*
X247058Y536390D01*
X246501Y535819D01*
X245930Y535262D01*
X245346Y534719D01*
X244748Y534191D01*
X244138Y533677D01*
X243515Y533179D01*
X242880Y532696D01*
X242234Y532228D01*
X241576Y531777D01*
X240907Y531342D01*
X240228Y530924D01*
X239539Y530522D01*
X238840Y530138D01*
X238132Y529770D01*
X237416Y529420D01*
X236690Y529088D01*
X235957Y528774D01*
X235217Y528478D01*
X234469Y528200D01*
X233715Y527940D01*
X232954Y527699D01*
X232188Y527477D01*
X231417Y527274D01*
X230641Y527090D01*
X229860Y526924D01*
X229076Y526778D01*
X228289Y526652D01*
X227498Y526544D01*
X226706Y526456D01*
X225911Y526388D01*
X225115Y526339D01*
X224318Y526310D01*
X223520Y526300D01*
X222722Y526310D01*
X221925Y526339D01*
X221129Y526388D01*
X220334Y526456D01*
X219542Y526544D01*
X218751Y526652D01*
X217964Y526778D01*
X217180Y526924D01*
X216399Y527090D01*
X215623Y527274D01*
X214852Y527477D01*
X214086Y527699D01*
X213325Y527940D01*
X212571Y528200D01*
X211823Y528478D01*
X211083Y528774D01*
X210350Y529088D01*
X209624Y529420D01*
X208908Y529770D01*
X208200Y530138D01*
X207501Y530522D01*
X206812Y530924D01*
X206133Y531342D01*
X205464Y531777D01*
X204806Y532228D01*
X204160Y532696D01*
X203525Y533179D01*
X202902Y533677D01*
X202292Y534191D01*
X201694Y534719D01*
X201110Y535262D01*
X200539Y535819D01*
X199982Y536390D01*
X199439Y536974D01*
X198911Y537572D01*
X198397Y538182D01*
X197899Y538805D01*
X197416Y539440D01*
X196948Y540086D01*
X196497Y540744D01*
X196062Y541413D01*
X195644Y542092D01*
X195242Y542781D01*
X194858Y543480D01*
X194490Y544188D01*
X194140Y544904D01*
X193808Y545630D01*
X193494Y546363D01*
X193198Y547103D01*
X192920Y547851D01*
X192660Y548605D01*
X192419Y549366D01*
X192197Y550132D01*
X191994Y550903D01*
X191810Y551679D01*
X191644Y552460D01*
X191498Y553244D01*
X191372Y554031D01*
X191264Y554822D01*
X191176Y555614D01*
X191108Y556409D01*
X191059Y557205D01*
X191030Y558002D01*
X191020Y558800D01*
X205740Y565150D02*
X205740Y577850D01*
X199390Y571500D02*
X212090Y571500D01*
X234950Y396240D02*
X228600Y389890D01*
X234950Y396240D02*
X247650Y396240D01*
X254000Y389890D01*
X254000Y377190D02*
X247650Y370840D01*
X234950Y370840D01*
X228600Y377190D01*
X196850Y396240D02*
X184150Y396240D01*
X196850Y396240D02*
X203200Y389890D01*
X203200Y377190D02*
X196850Y370840D01*
X203200Y389890D02*
X209550Y396240D01*
X222250Y396240D01*
X228600Y389890D01*
X228600Y377190D02*
X222250Y370840D01*
X209550Y370840D01*
X203200Y377190D01*
X177800Y377190D02*
X177800Y389890D01*
X184150Y396240D01*
X177800Y377190D02*
X184150Y370840D01*
X196850Y370840D01*
X254000Y377190D02*
X254000Y389890D01*
X187960Y501650D02*
X181610Y508000D01*
X168910Y508000D01*
X162560Y501650D01*
X162560Y488950D01*
X168910Y482600D01*
X181610Y482600D01*
X187960Y488950D01*
X187960Y501650D01*
X120650Y393700D02*
X127000Y387350D01*
X120650Y393700D02*
X107950Y393700D01*
X101600Y387350D01*
X101600Y374650D01*
X107950Y368300D01*
X120650Y368300D01*
X127000Y374650D01*
X127000Y387350D01*
X78740Y400050D02*
X78740Y412750D01*
X78740Y400050D02*
X72390Y393700D01*
X59690Y393700D02*
X53340Y400050D01*
X78740Y438150D02*
X72390Y444500D01*
X78740Y438150D02*
X78740Y425450D01*
X72390Y419100D01*
X59690Y419100D02*
X53340Y425450D01*
X53340Y438150D01*
X59690Y444500D01*
X72390Y419100D02*
X78740Y412750D01*
X59690Y419100D02*
X53340Y412750D01*
X53340Y400050D01*
X78740Y476250D02*
X78740Y488950D01*
X78740Y476250D02*
X72390Y469900D01*
X59690Y469900D02*
X53340Y476250D01*
X72390Y469900D02*
X78740Y463550D01*
X78740Y450850D01*
X72390Y444500D01*
X59690Y444500D02*
X53340Y450850D01*
X53340Y463550D01*
X59690Y469900D01*
X59690Y495300D02*
X72390Y495300D01*
X78740Y488950D01*
X59690Y495300D02*
X53340Y488950D01*
X53340Y476250D01*
X59690Y393700D02*
X72390Y393700D01*
M02*
