G04 EAGLE Gerber RS-274X export*
G75*
%MOMM*%
%FSLAX34Y34*%
%LPD*%
%INSoldermask Bottom*%
%IPPOS*%
%AMOC8*
5,1,8,0,0,1.08239X$1,22.5*%
G01*
%ADD10C,1.625600*%
%ADD11C,1.524000*%
%ADD12C,2.082800*%
%ADD13C,1.727200*%
%ADD14C,3.505200*%
%ADD15C,1.854200*%
%ADD16R,1.854200X1.854200*%
%ADD17C,1.270000*%


D10*
X336080Y353060D03*
X356080Y353060D03*
X376080Y353060D03*
X396080Y353060D03*
X416080Y353060D03*
X436080Y353060D03*
D11*
X77724Y538480D02*
X64516Y538480D01*
X166116Y538480D02*
X179324Y538480D01*
D12*
X284480Y383540D03*
X284480Y408940D03*
X284480Y434340D03*
X284480Y459740D03*
X284480Y485140D03*
X284480Y510540D03*
X284480Y535940D03*
X284480Y561340D03*
D13*
X73660Y563880D02*
X73660Y579120D01*
X99060Y579120D02*
X99060Y563880D01*
X124460Y563880D02*
X124460Y579120D01*
D14*
X99060Y721360D03*
D15*
X223520Y546300D03*
D16*
X223520Y571300D03*
D12*
X190500Y383540D03*
X215900Y383540D03*
X241300Y383540D03*
X175260Y495300D03*
X114300Y381000D03*
X66040Y482600D03*
X66040Y457200D03*
X66040Y431800D03*
X66040Y406400D03*
D10*
X317500Y378460D03*
X317500Y398780D03*
X317500Y419100D03*
X317500Y439420D03*
X317500Y459740D03*
X317500Y480060D03*
X317500Y500380D03*
X317500Y523240D03*
D17*
X342900Y523875D03*
X231775Y352425D03*
M02*
