G04 EAGLE Gerber RS-274X export*
G75*
%MOMM*%
%FSLAX34Y34*%
%LPD*%
%INSoldermask Top*%
%IPPOS*%
%AMOC8*
5,1,8,0,0,1.08239X$1,22.5*%
G01*
%ADD10C,1.625600*%
%ADD11C,1.524000*%
%ADD12C,2.082800*%
%ADD13C,1.727200*%
%ADD14C,3.505200*%
%ADD15C,1.854200*%
%ADD16R,1.854200X1.854200*%
%ADD17C,1.270000*%


D10*
X424980Y375920D03*
X444980Y375920D03*
X464980Y375920D03*
X484980Y375920D03*
X504980Y375920D03*
X524980Y375920D03*
D11*
X298704Y515620D02*
X285496Y515620D01*
X197104Y515620D02*
X183896Y515620D01*
D10*
X406400Y389740D03*
X406400Y409740D03*
X406400Y429740D03*
X406400Y449740D03*
X406400Y469740D03*
X406400Y489740D03*
X406400Y509740D03*
X406400Y529740D03*
D12*
X355600Y386080D03*
X355600Y411480D03*
X355600Y436880D03*
X355600Y462280D03*
X355600Y487680D03*
X355600Y513080D03*
X355600Y538480D03*
X355600Y563880D03*
D13*
X254000Y568960D02*
X254000Y553720D01*
X279400Y553720D02*
X279400Y568960D01*
X304800Y568960D02*
X304800Y553720D01*
D14*
X279400Y711200D03*
D15*
X274520Y462280D03*
D16*
X299520Y462280D03*
D12*
X254000Y386080D03*
X279400Y386080D03*
X304800Y386080D03*
X576580Y444500D03*
X576580Y469900D03*
X576580Y495300D03*
X190500Y472440D03*
X187960Y398780D03*
X505460Y553720D03*
X530860Y553720D03*
X66040Y482600D03*
X66040Y457200D03*
X66040Y431800D03*
X66040Y406400D03*
X121920Y530860D03*
X96520Y530860D03*
D17*
X104775Y420688D03*
M02*
