G04 EAGLE Gerber RS-274X export*
G75*
%MOMM*%
%FSLAX34Y34*%
%LPD*%
%INBottom Copper*%
%IPPOS*%
%AMOC8*
5,1,8,0,0,1.08239X$1,22.5*%
G01*
%ADD10C,1.879600*%
%ADD11P,1.429621X8X112.500000*%
%ADD12C,2.000000*%
%ADD13C,0.254000*%
%ADD14C,1.066800*%


D10*
X358140Y561340D03*
X383540Y561340D03*
X408940Y561340D03*
X434340Y561340D03*
X459740Y561340D03*
X485140Y561340D03*
X510540Y561340D03*
X535940Y561340D03*
X561340Y561340D03*
X586740Y561340D03*
X612140Y561340D03*
X637540Y561340D03*
X662940Y561340D03*
X688340Y561340D03*
X713740Y561340D03*
X76200Y114300D03*
X101600Y114300D03*
X127000Y114300D03*
X152400Y114300D03*
X177800Y114300D03*
X203200Y114300D03*
X228600Y114300D03*
X254000Y114300D03*
X279400Y114300D03*
X304800Y114300D03*
X330200Y114300D03*
X355600Y114300D03*
X381000Y114300D03*
X406400Y114300D03*
X431800Y114300D03*
X589280Y63500D03*
X589280Y88900D03*
X589280Y114300D03*
X22860Y86360D03*
X48260Y86360D03*
X73660Y86360D03*
X271780Y561340D03*
X297180Y561340D03*
X322580Y561340D03*
X614680Y114300D03*
X614680Y88900D03*
X614680Y63500D03*
X510540Y114300D03*
X535940Y114300D03*
X561340Y114300D03*
X340360Y35560D03*
X340360Y60960D03*
X340360Y86360D03*
X485140Y114300D03*
X459740Y114300D03*
X330200Y182880D03*
X330200Y208280D03*
X330200Y233680D03*
X330200Y259080D03*
X330200Y284480D03*
X330200Y309880D03*
X330200Y335280D03*
X330200Y360680D03*
X330200Y386080D03*
X330200Y411480D03*
X330200Y436880D03*
X330200Y462280D03*
X330200Y487680D03*
X330200Y513080D03*
X330200Y538480D03*
X972820Y114300D03*
X947420Y114300D03*
X922020Y114300D03*
X896620Y114300D03*
X871220Y114300D03*
X845820Y114300D03*
X820420Y114300D03*
X795020Y114300D03*
X769620Y114300D03*
X744220Y114300D03*
X718820Y114300D03*
X693420Y114300D03*
X668020Y114300D03*
X642620Y114300D03*
X744220Y561340D03*
X769620Y561340D03*
X795020Y561340D03*
X820420Y561340D03*
X845820Y561340D03*
X871220Y561340D03*
X896620Y561340D03*
X922020Y561340D03*
X947420Y561340D03*
X972820Y561340D03*
X962660Y502920D03*
X937260Y502920D03*
X911860Y502920D03*
X886460Y502920D03*
X861060Y502920D03*
X835660Y502920D03*
X810260Y502920D03*
X784860Y502920D03*
X759460Y502920D03*
X734060Y502920D03*
X708660Y502920D03*
X683260Y502920D03*
X657860Y502920D03*
X632460Y502920D03*
X607060Y502920D03*
X581660Y502920D03*
X556260Y502920D03*
X530860Y502920D03*
X505460Y502920D03*
X480060Y502920D03*
X480060Y477520D03*
X505460Y477520D03*
X530860Y477520D03*
X556260Y477520D03*
X581660Y477520D03*
X607060Y477520D03*
X632460Y477520D03*
X657860Y477520D03*
X683260Y477520D03*
X708660Y477520D03*
X734060Y477520D03*
X759460Y477520D03*
X784860Y477520D03*
X810260Y477520D03*
X835660Y477520D03*
X861060Y477520D03*
X886460Y477520D03*
X911860Y477520D03*
X937260Y477520D03*
X962660Y477520D03*
X381000Y482600D03*
X381000Y431800D03*
X889000Y431800D03*
X863600Y431800D03*
X838200Y431800D03*
X812800Y431800D03*
X787400Y431800D03*
X762000Y431800D03*
X736600Y431800D03*
X711200Y431800D03*
X685800Y431800D03*
X660400Y431800D03*
X635000Y431800D03*
X609600Y431800D03*
X584200Y431800D03*
X558800Y431800D03*
X533400Y431800D03*
X533400Y279400D03*
X558800Y279400D03*
X584200Y279400D03*
X609600Y279400D03*
X635000Y279400D03*
X660400Y279400D03*
X685800Y279400D03*
X711200Y279400D03*
X736600Y279400D03*
X762000Y279400D03*
X787400Y279400D03*
X812800Y279400D03*
X838200Y279400D03*
X863600Y279400D03*
X889000Y279400D03*
X20320Y289560D03*
X20320Y264160D03*
X20320Y238760D03*
X86360Y398780D03*
X60960Y398780D03*
X281940Y299720D03*
X256540Y299720D03*
X231140Y299720D03*
X17780Y561340D03*
X43180Y561340D03*
X68580Y561340D03*
X93980Y561340D03*
X119380Y561340D03*
X144780Y561340D03*
X170180Y561340D03*
X195580Y561340D03*
X220980Y561340D03*
X246380Y561340D03*
X754380Y640080D03*
X754380Y665480D03*
X754380Y690880D03*
X754380Y716280D03*
X754380Y741680D03*
X754380Y767080D03*
X754380Y792480D03*
X754380Y817880D03*
X655320Y243840D03*
X680720Y243840D03*
X706120Y243840D03*
X731520Y243840D03*
X756920Y243840D03*
X782320Y243840D03*
X807720Y243840D03*
X833120Y243840D03*
X858520Y243840D03*
X883920Y243840D03*
X909320Y243840D03*
X383540Y330200D03*
X381000Y279400D03*
X726440Y177800D03*
X751840Y177800D03*
X777240Y177800D03*
X802640Y177800D03*
X828040Y177800D03*
X853440Y177800D03*
D11*
X960120Y383540D03*
X941070Y370840D03*
X960120Y358140D03*
D12*
X746760Y370840D03*
X899160Y370840D03*
X960120Y175260D03*
X960120Y327660D03*
D11*
X175260Y294640D03*
X156210Y281940D03*
X175260Y269240D03*
D12*
X20320Y345440D03*
X172720Y345440D03*
X289560Y401320D03*
X137160Y401320D03*
D10*
X337820Y149860D03*
X213360Y205740D03*
X187960Y205740D03*
X162560Y205740D03*
X137160Y205740D03*
X111760Y205740D03*
X86360Y205740D03*
X381000Y812800D03*
X406400Y812800D03*
X431800Y812800D03*
X457200Y812800D03*
X482600Y812800D03*
X508000Y812800D03*
X533400Y812800D03*
X558800Y812800D03*
X584200Y812800D03*
X609600Y812800D03*
X635000Y812800D03*
X660400Y812800D03*
X660400Y660400D03*
X635000Y660400D03*
X609600Y660400D03*
X584200Y660400D03*
X558800Y660400D03*
X533400Y660400D03*
X508000Y660400D03*
X482600Y660400D03*
X457200Y660400D03*
X431800Y660400D03*
X406400Y660400D03*
X381000Y660400D03*
X685800Y673100D03*
X685800Y698500D03*
X685800Y723900D03*
X685800Y749300D03*
X685800Y774700D03*
X685800Y800100D03*
X327660Y754380D03*
X327660Y728980D03*
X327660Y703580D03*
X546100Y685800D03*
X571500Y685800D03*
X302260Y754380D03*
X302260Y728980D03*
X302260Y703580D03*
X276860Y754380D03*
X276860Y728980D03*
X276860Y703580D03*
X251460Y754380D03*
X251460Y728980D03*
X251460Y703580D03*
X226060Y754380D03*
X226060Y728980D03*
X226060Y703580D03*
X200660Y754380D03*
X200660Y728980D03*
X200660Y703580D03*
X139700Y795020D03*
X139700Y769620D03*
X139700Y744220D03*
X139700Y718820D03*
X139700Y693420D03*
X139700Y668020D03*
X139700Y642620D03*
X139700Y617220D03*
X728980Y586740D03*
X728980Y612140D03*
X728980Y637540D03*
X728980Y662940D03*
X728980Y688340D03*
X728980Y713740D03*
X728980Y739140D03*
X728980Y764540D03*
X728980Y789940D03*
X728980Y815340D03*
X83820Y589280D03*
X83820Y614680D03*
X83820Y640080D03*
X83820Y665480D03*
X83820Y690880D03*
X83820Y716280D03*
X83820Y741680D03*
X83820Y767080D03*
X83820Y792480D03*
X83820Y817880D03*
D13*
X781050Y177800D02*
X831850Y228600D01*
X869950Y228600D01*
X882650Y241300D01*
X781050Y177800D02*
X777240Y177800D01*
X882650Y241300D02*
X883920Y243840D01*
X609600Y431800D02*
X577850Y463550D01*
X469900Y463550D01*
X463550Y469900D01*
X463550Y501650D01*
X476250Y501650D01*
X480060Y502920D01*
X730250Y222250D02*
X774700Y177800D01*
X730250Y222250D02*
X571500Y222250D01*
X488950Y304800D01*
X488950Y419100D01*
X527050Y419100D01*
X533400Y412750D01*
X590550Y412750D01*
X609600Y431800D01*
X774700Y177800D02*
X777240Y177800D01*
X958850Y387350D02*
X939800Y406400D01*
X501650Y406400D01*
X958850Y387350D02*
X960120Y383540D01*
D14*
X501650Y406400D03*
D13*
X914400Y241300D02*
X914400Y177800D01*
X958850Y177800D01*
X914400Y241300D02*
X909320Y243840D01*
X958850Y177800D02*
X960120Y175260D01*
X914400Y177800D02*
X853440Y177800D01*
X527050Y508000D02*
X514350Y520700D01*
X469900Y520700D01*
X406400Y457200D02*
X381000Y431800D01*
X406400Y457200D02*
X469900Y520700D01*
X527050Y508000D02*
X530860Y502920D01*
X533400Y457200D02*
X558800Y431800D01*
X533400Y457200D02*
X406400Y457200D01*
X908050Y298450D02*
X908050Y247650D01*
X908050Y298450D02*
X628650Y298450D01*
X609600Y279400D01*
X908050Y247650D02*
X909320Y243840D01*
X228600Y298450D02*
X190500Y298450D01*
X177800Y298450D01*
X175260Y294640D01*
X228600Y298450D02*
X231140Y299720D01*
X190500Y298450D02*
X190500Y209550D01*
X187960Y205740D01*
X69850Y190500D02*
X25400Y234950D01*
X69850Y190500D02*
X196850Y190500D01*
X209550Y203200D01*
X25400Y234950D02*
X20320Y238760D01*
X209550Y203200D02*
X213360Y205740D01*
X95250Y361950D02*
X63500Y393700D01*
X95250Y361950D02*
X196850Y361950D01*
X254000Y304800D01*
X63500Y393700D02*
X60960Y398780D01*
X254000Y304800D02*
X256540Y299720D01*
X215900Y285750D02*
X215900Y209550D01*
X215900Y285750D02*
X241300Y285750D01*
X254000Y298450D01*
X215900Y209550D02*
X213360Y205740D01*
X254000Y298450D02*
X256540Y299720D01*
X82550Y285750D02*
X82550Y209550D01*
X82550Y285750D02*
X25400Y285750D01*
X82550Y209550D02*
X86360Y205740D01*
X25400Y285750D02*
X20320Y289560D01*
X133350Y342900D02*
X133350Y209550D01*
X133350Y342900D02*
X25400Y342900D01*
X133350Y209550D02*
X137160Y205740D01*
X25400Y342900D02*
X20320Y345440D01*
X641350Y260350D02*
X660400Y279400D01*
X641350Y260350D02*
X641350Y228600D01*
X819150Y228600D01*
X831850Y241300D01*
X833120Y243840D01*
X850900Y196850D02*
X882650Y196850D01*
X850900Y196850D02*
X831850Y177800D01*
X828040Y177800D01*
D14*
X882650Y196850D03*
D13*
X958850Y508000D02*
X933450Y533400D01*
X450850Y533400D01*
X958850Y508000D02*
X962660Y502920D01*
D14*
X450850Y533400D03*
D13*
X742950Y260350D02*
X755650Y247650D01*
X742950Y260350D02*
X704850Y260350D01*
X685800Y279400D01*
X755650Y247650D02*
X756920Y243840D01*
X812800Y431800D02*
X844550Y463550D01*
X971550Y463550D01*
X977900Y469900D01*
X977900Y533400D01*
X952500Y533400D01*
D14*
X952500Y533400D03*
D13*
X857250Y508000D02*
X838200Y527050D01*
X463550Y527050D01*
X387350Y450850D01*
X381000Y450850D01*
X361950Y431800D01*
X361950Y158750D01*
X965200Y158750D01*
X977900Y171450D01*
X977900Y323850D01*
X965200Y323850D01*
X861060Y502920D02*
X857250Y508000D01*
X960120Y327660D02*
X965200Y323850D01*
X158750Y342900D02*
X158750Y285750D01*
X158750Y342900D02*
X171450Y342900D01*
X158750Y285750D02*
X156210Y281940D01*
X171450Y342900D02*
X172720Y345440D01*
X209550Y692150D02*
X215900Y698500D01*
X209550Y692150D02*
X139700Y622300D01*
X215900Y698500D02*
X222250Y698500D01*
X139700Y622300D02*
X139700Y617220D01*
X222250Y698500D02*
X226060Y703580D01*
X209550Y692150D02*
X203200Y698500D01*
X200660Y703580D01*
X476250Y704850D02*
X584200Y812800D01*
X476250Y704850D02*
X330200Y704850D01*
X327660Y703580D01*
X139700Y641350D02*
X120650Y622300D01*
X120650Y603250D01*
X527050Y603250D01*
X584200Y660400D01*
X139700Y642620D02*
X139700Y641350D01*
X641350Y679450D02*
X685800Y723900D01*
X641350Y679450D02*
X603250Y679450D01*
X584200Y660400D01*
X317500Y793750D02*
X279400Y755650D01*
X317500Y793750D02*
X425450Y793750D01*
X279400Y755650D02*
X276860Y754380D01*
D14*
X425450Y793750D03*
D13*
X349250Y774700D02*
X330200Y755650D01*
X349250Y774700D02*
X444500Y774700D01*
X482600Y812800D01*
X330200Y755650D02*
X327660Y754380D01*
X304800Y755650D02*
X330200Y781050D01*
X431800Y781050D01*
X457200Y806450D01*
X457200Y812800D01*
X304800Y755650D02*
X302260Y754380D01*
X254000Y755650D02*
X311150Y812800D01*
X381000Y812800D01*
X254000Y755650D02*
X251460Y754380D01*
M02*
