M48
;GenerationSoftware,Autodesk,EAGLE,9.5.1*%
;CreationDate,2020-04-30T20:40:53Z*%
FMAT,2
ICI,OFF
METRIC,TZ,000.000
T8C0.559
T7C0.700
T6C0.813
T5C1.016
T4C1.100
T3C1.194
T2C1.803
T1C3.302
%
G90
M71
T1
X6096Y48768
T2
X30226Y82728
X30226Y73736
X90170Y73990
X90170Y82982
X30480Y69266
X30480Y60274
X90170Y60274
X90170Y69266
T3
X23978Y75743
X83922Y62281
X24232Y62281
X36728Y62281
X24232Y67259
X36728Y67259
X83922Y75997
X96418Y75997
X83922Y80975
X96418Y80975
X36474Y80721
X23978Y80721
X36474Y75743
X96418Y62281
X83922Y67259
X96418Y67259
T4
X61214Y17526
X76454Y17526
X76454Y12446
X61214Y12446
T5
X39370Y18288
X36830Y18288
X34290Y18288
X31750Y18288
X29210Y18288
X26670Y18288
X24130Y18288
X21590Y18288
X19050Y18288
X16510Y18288
X13970Y18288
X11430Y18288
X8890Y18288
X8890Y3048
X11430Y3048
X13970Y3048
X16510Y3048
X19050Y3048
X21590Y3048
X24130Y3048
X26670Y3048
X43180Y81280
X31750Y3048
X34290Y3048
X36830Y3048
X39370Y3048
X41910Y3048
X44450Y3048
X91694Y13462
X91694Y10922
X91694Y8382
X91694Y5842
X62230Y2540
X57150Y2540
X40640Y66040
X43180Y66040
X45720Y66040
X48260Y66040
X50800Y66040
X53340Y66040
X55880Y66040
X58420Y66040
X60960Y66040
X63500Y66040
X66040Y66040
X68580Y66040
X71120Y66040
X73660Y66040
X76200Y66040
X76200Y81280
X73660Y81280
X71120Y81280
X68580Y81280
X66040Y81280
X63500Y81280
X60960Y81280
X58420Y81280
X55880Y81280
X53340Y81280
X50800Y81280
X48260Y81280
X45720Y81280
X40640Y81280
X45720Y60960
X48260Y60960
X50800Y60960
X53340Y60960
X55880Y60960
X66040Y60960
X68580Y60960
X71120Y60960
X73660Y60960
X76200Y60960
X34798Y9144
X32258Y9144
X29718Y9144
X27178Y9144
X24638Y9144
X22098Y9144
X19558Y9144
X17018Y9144
X14478Y9144
X11938Y9144
X9398Y9144
X35814Y56134
X38354Y56134
X40894Y56134
X43434Y56134
X45974Y56134
X48514Y56134
X51054Y56134
X53594Y56134
X56134Y56134
X58674Y56134
X61214Y56134
X63754Y56134
X66294Y56134
X68834Y56134
X71374Y56134
X9652Y22352
X12192Y22352
X14732Y22352
X17272Y22352
X19812Y22352
X22352Y22352
X24892Y22352
X27432Y22352
X29972Y22352
X32512Y22352
X35052Y22352
X37592Y22352
X40132Y22352
X42672Y22352
X45212Y22352
X2032Y22352
X4572Y22352
X7112Y22352
X28194Y56134
X30734Y56134
X33274Y56134
X6604Y73406
X6604Y70866
X6604Y68326
X50292Y22352
X52832Y22352
X55372Y22352
X60452Y22352
X57912Y22352
X14732Y61468
X14732Y58928
X7366Y25146
X7366Y27686
X7366Y30226
X7366Y32766
X7366Y35306
X7366Y37846
X7366Y40386
X7366Y42926
X7366Y45466
X7366Y48006
X7366Y50546
X7366Y53086
X7366Y55626
X7366Y58166
X7366Y60706
X19050Y69850
X19050Y63500
X96266Y22352
X93726Y22352
X91186Y22352
X88646Y22352
X86106Y22352
X83566Y22352
X81026Y22352
X78486Y22352
X75946Y22352
X73406Y22352
X70866Y22352
X68326Y22352
X65786Y22352
X63246Y22352
X74422Y56134
X76962Y56134
X79502Y56134
X82042Y56134
X84582Y56134
X87122Y56134
X89662Y56134
X92202Y56134
X94742Y56134
X97282Y56134
X63754Y75946
X61214Y75946
X58674Y75946
X56134Y75946
X2286Y56134
X4826Y56134
X7366Y56134
X9906Y56134
X12446Y56134
X14986Y56134
X17526Y56134
X20066Y56134
X22606Y56134
X25146Y56134
X14732Y64008
X14732Y66548
X14732Y69088
X14732Y71628
X14732Y74168
X14732Y76708
X14732Y79248
X14732Y81788
X2032Y18796
X2032Y16256
X2032Y13716
X2032Y11176
X2032Y8636
X2032Y6096
X47752Y22352
X49022Y14224
X49022Y11684
X49022Y9144
X51562Y9144
X51562Y11684
X51562Y14224
X72136Y6096
X74676Y6096
X85852Y16764
X83312Y16764
X80772Y16764
X53340Y3048
X50800Y3048
X48260Y3048
X60452Y7366
X57912Y7366
X91948Y32258
X91948Y34798
X91948Y37338
X91948Y39878
X91948Y42418
X91948Y44958
X41910Y41910
X41910Y39370
X41910Y36830
X41910Y34290
X41910Y31750
X41910Y29210
X69850Y49530
X67310Y49530
X64770Y49530
X62230Y49530
X59690Y49530
X57150Y49530
X54610Y49530
X52070Y49530
X52070Y26670
X54610Y26670
X57150Y26670
X59690Y26670
X62230Y26670
X64770Y26670
X67310Y26670
X69850Y26670
X86106Y30480
X88646Y30480
X39370Y29210
X39370Y31750
X39370Y34290
X39370Y36830
X39370Y39370
X39370Y41910
X36830Y29210
X36830Y31750
X36830Y34290
X36830Y36830
X36830Y39370
X36830Y41910
X45466Y50292
X45466Y47752
X41910Y44450
X15748Y27940
X15748Y30480
X15748Y33020
X15748Y35560
X28448Y34290
X28448Y36830
X28448Y39370
X25400Y39370
X25400Y36830
X25400Y34290
X85852Y36830
X88392Y36830
X29210Y3048
X44450Y18288
X41910Y18288
X21082Y46228
X21082Y48768
X21082Y51308
X11430Y40640
X11430Y38100
X11430Y35560
X11430Y33020
X11430Y30480
X11430Y27940
T6
X80899Y5334
X82804Y4064
X82804Y6604
T7
X27432Y48748
X27432Y46248
T8
X27305Y12382
X51435Y36830
X47307Y39370
X55245Y28575
X32702Y43498
X73343Y78423
X29845Y13335
X26670Y16192
X15557Y12065
M30