M48
;GenerationSoftware,Autodesk,EAGLE,9.5.1*%
;CreationDate,2020-04-23T03:41:45Z*%
FMAT,2
ICI,OFF
METRIC,TZ,000.000
T7C0.500
T6C0.559
T5C0.813
T4C1.016
T3C1.100
T2C1.194
T1C1.803
%
G90
M71
T1
X31750Y81966
X31750Y72974
X89916Y72212
X89916Y81204
T2
X37998Y79959
X25502Y79959
X37998Y74981
X25502Y74981
X83668Y74219
X96164Y74219
X83668Y79197
X96164Y79197
T3
X84074Y21336
X11684Y59182
X26924Y59182
X17018Y50292
X1778Y50292
X80264Y15240
X65024Y15240
X68834Y21336
T4
X44450Y18288
X41910Y18288
X39370Y18288
X36830Y18288
X34290Y18288
X31750Y18288
X29210Y18288
X26670Y18288
X24130Y18288
X21590Y18288
X19050Y18288
X16510Y18288
X13970Y18288
X11430Y18288
X8890Y18288
X8890Y3048
X11430Y3048
X13970Y3048
X16510Y3048
X19050Y3048
X21590Y3048
X24130Y3048
X26670Y3048
X29210Y3048
X31750Y3048
X58420Y81280
X36830Y3048
X39370Y3048
X41910Y3048
X44450Y3048
X54864Y24130
X54864Y21590
X54864Y19050
X54864Y16510
X56642Y8890
X56642Y3302
X2032Y13970
X2032Y8890
X43180Y66040
X45720Y66040
X48260Y66040
X50800Y66040
X53340Y66040
X55880Y66040
X58420Y66040
X60960Y66040
X63500Y66040
X66040Y66040
X68580Y66040
X71120Y66040
X73660Y66040
X76200Y66040
X78740Y66040
X78740Y81280
X76200Y81280
X73660Y81280
X71120Y81280
X68580Y81280
X66040Y81280
X63500Y81280
X60960Y81280
X55880Y81280
X53340Y81280
X50800Y81280
X48260Y81280
X45720Y81280
X43180Y81280
X45720Y60960
X48260Y60960
X50800Y60960
X53340Y60960
X55880Y60960
X66040Y60960
X68580Y60960
X71120Y60960
X73660Y60960
X76200Y60960
X34798Y9144
X32258Y9144
X29718Y9144
X27178Y9144
X24638Y9144
X22098Y9144
X19558Y9144
X17018Y9144
X14478Y9144
X11938Y9144
X9398Y9144
X35814Y56134
X38354Y56134
X40894Y56134
X43434Y56134
X45974Y56134
X48514Y56134
X51054Y56134
X53594Y56134
X56134Y56134
X58674Y56134
X61214Y56134
X63754Y56134
X66294Y56134
X68834Y56134
X71374Y56134
X9398Y29210
X11938Y29210
X14478Y29210
X17018Y29210
X19558Y29210
X22098Y29210
X24638Y29210
X27178Y29210
X29718Y29210
X32258Y29210
X34798Y29210
X37338Y29210
X39878Y29210
X42418Y29210
X44958Y29210
X84328Y44704
X81788Y44704
X79248Y44704
X1778Y29210
X4318Y29210
X6858Y29210
X27432Y63500
X29972Y63500
X32512Y63500
X74168Y44450
X71628Y44450
X69088Y44450
X12446Y66294
X9906Y66294
X7366Y66294
X50038Y29210
X52578Y29210
X55118Y29210
X62484Y43434
X59944Y43434
X57404Y43434
X60198Y29210
X57658Y29210
X14478Y77470
X14478Y74930
X32004Y31242
X32004Y33782
X32004Y36322
X32004Y38862
X32004Y41402
X32004Y43942
X32004Y46482
X32004Y49022
X32004Y51562
X32004Y54102
X32004Y56642
X32004Y59182
X32004Y61722
X32004Y64262
X32004Y66802
X83312Y66040
X83312Y60706
X95758Y29210
X93218Y29210
X90678Y29210
X88138Y29210
X85598Y29210
X83058Y29210
X80518Y29210
X77978Y29210
X75438Y29210
X72898Y29210
X70358Y29210
X67818Y29210
X65278Y29210
X62738Y29210
X74422Y56134
X76962Y56134
X79502Y56134
X82042Y56134
X84582Y56134
X87122Y56134
X89662Y56134
X92202Y56134
X94742Y56134
X97282Y56134
X63754Y75946
X61214Y75946
X58674Y75946
X56134Y75946
X38100Y48260
X38100Y43180
X44450Y48260
X21844Y32766
X19304Y32766
X16764Y32766
X14224Y32766
X11684Y32766
X9144Y32766
X28448Y39624
X28448Y42164
X28448Y44704
X3048Y44196
X3048Y41656
X3048Y39116
X10668Y55372
X8128Y55372
X26924Y54864
X24384Y54864
X21844Y54864
X1778Y63500
X4318Y63500
X6858Y63500
X9398Y63500
X11938Y63500
X14478Y63500
X17018Y63500
X19558Y63500
X22098Y63500
X24638Y63500
X19558Y63754
X19558Y66294
X19558Y68834
X19558Y71374
X19558Y73914
X19558Y76454
X19558Y78994
X19558Y81534
X41402Y24638
X44704Y42418
X27432Y25654
X24892Y25654
X22352Y25654
X19812Y25654
X17272Y25654
X14732Y25654
X47498Y29210
X47752Y11430
X47752Y8890
X47752Y6350
X50292Y6350
X50292Y8890
X50292Y11430
X86360Y9652
X88900Y9652
X34290Y3048
X94234Y25400
X91694Y25400
X89154Y25400
X46482Y24638
X43942Y24638
T5
X18796Y46482
X16891Y45212
X18796Y43942
X88392Y17018
X86487Y15748
X88392Y14478
T6
X15081Y40799
X13970Y43815
X7461Y37148
X17463Y35243
X28257Y11271
X52705Y19685
X18733Y40164
T7
X16490Y37534
X15240Y37534
X13990Y37534
X12740Y37534
X11490Y37534
X10240Y37534
X21490Y37534
X20240Y37534
X18990Y37534
X17740Y37534
X8990Y37534
M30