G04 EAGLE Gerber RS-274X export*
G75*
%MOMM*%
%FSLAX34Y34*%
%LPD*%
%INBottom Copper*%
%IPPOS*%
%AMOC8*
5,1,8,0,0,1.08239X$1,22.5*%
G01*
%ADD10C,1.879600*%
%ADD11C,1.790700*%
%ADD12C,1.008000*%
%ADD13P,1.429621X8X112.500000*%
%ADD14C,2.000000*%
%ADD15C,0.304800*%
%ADD16C,0.254000*%
%ADD17C,1.066800*%


D10*
X444500Y182880D03*
X419100Y182880D03*
X393700Y182880D03*
X368300Y182880D03*
X342900Y182880D03*
X317500Y182880D03*
X292100Y182880D03*
X266700Y182880D03*
X241300Y182880D03*
X215900Y182880D03*
X190500Y182880D03*
X165100Y182880D03*
X139700Y182880D03*
X114300Y182880D03*
X88900Y182880D03*
X88900Y30480D03*
X114300Y30480D03*
X139700Y30480D03*
X165100Y30480D03*
X190500Y30480D03*
X215900Y30480D03*
X241300Y30480D03*
X266700Y30480D03*
X292100Y30480D03*
X317500Y30480D03*
X342900Y30480D03*
X368300Y30480D03*
X393700Y30480D03*
X419100Y30480D03*
X444500Y30480D03*
X55880Y71120D03*
X55880Y96520D03*
X55880Y121920D03*
X55880Y147320D03*
X490220Y124460D03*
X490220Y99060D03*
X490220Y73660D03*
X490220Y48260D03*
X566420Y88900D03*
X566420Y33020D03*
X20320Y139700D03*
X20320Y88900D03*
X431800Y660400D03*
X457200Y660400D03*
X482600Y660400D03*
X508000Y660400D03*
X533400Y660400D03*
X558800Y660400D03*
X584200Y660400D03*
X609600Y660400D03*
X635000Y660400D03*
X660400Y660400D03*
X685800Y660400D03*
X711200Y660400D03*
X736600Y660400D03*
X762000Y660400D03*
X787400Y660400D03*
X787400Y812800D03*
X762000Y812800D03*
X736600Y812800D03*
X711200Y812800D03*
X685800Y812800D03*
X660400Y812800D03*
X635000Y812800D03*
X609600Y812800D03*
X584200Y812800D03*
X558800Y812800D03*
X533400Y812800D03*
X508000Y812800D03*
X482600Y812800D03*
X457200Y812800D03*
X431800Y812800D03*
X457200Y609600D03*
X482600Y609600D03*
X508000Y609600D03*
X533400Y609600D03*
X558800Y609600D03*
X660400Y609600D03*
X685800Y609600D03*
X711200Y609600D03*
X736600Y609600D03*
X762000Y609600D03*
D11*
X388938Y799592D02*
X371031Y799592D01*
X263970Y799592D02*
X246063Y799592D01*
X371031Y749808D02*
X388938Y749808D01*
X263970Y749808D02*
X246063Y749808D01*
X827723Y742188D02*
X845630Y742188D01*
X952691Y742188D02*
X970598Y742188D01*
X845630Y791972D02*
X827723Y791972D01*
X952691Y791972D02*
X970598Y791972D01*
D10*
X386080Y83820D03*
X360680Y83820D03*
X335280Y83820D03*
X309880Y83820D03*
X284480Y83820D03*
X259080Y83820D03*
X233680Y83820D03*
X208280Y83820D03*
X182880Y83820D03*
X157480Y83820D03*
X132080Y83820D03*
X358140Y561340D03*
X383540Y561340D03*
X408940Y561340D03*
X434340Y561340D03*
X459740Y561340D03*
X485140Y561340D03*
X510540Y561340D03*
X535940Y561340D03*
X561340Y561340D03*
X586740Y561340D03*
X612140Y561340D03*
X637540Y561340D03*
X662940Y561340D03*
X688340Y561340D03*
X713740Y561340D03*
X96520Y226060D03*
X121920Y226060D03*
X147320Y226060D03*
X172720Y226060D03*
X198120Y226060D03*
X223520Y226060D03*
X248920Y226060D03*
X274320Y226060D03*
X299720Y226060D03*
X325120Y226060D03*
X350520Y226060D03*
X375920Y226060D03*
X401320Y226060D03*
X426720Y226060D03*
X452120Y226060D03*
X609600Y20320D03*
X609600Y45720D03*
X609600Y71120D03*
X20320Y226060D03*
X45720Y226060D03*
X71120Y226060D03*
X274320Y635000D03*
X299720Y635000D03*
X325120Y635000D03*
X929640Y40640D03*
X904240Y40640D03*
X878840Y40640D03*
X124460Y662940D03*
X99060Y662940D03*
X73660Y662940D03*
X533400Y180340D03*
X558800Y180340D03*
X584200Y180340D03*
X604520Y104140D03*
X604520Y129540D03*
X604520Y154940D03*
X510540Y180340D03*
X485140Y180340D03*
X144780Y774700D03*
X144780Y749300D03*
X327660Y251460D03*
X327660Y276860D03*
X327660Y302260D03*
X327660Y327660D03*
X327660Y353060D03*
X327660Y378460D03*
X327660Y403860D03*
X327660Y429260D03*
X327660Y454660D03*
X327660Y480060D03*
X327660Y505460D03*
X327660Y530860D03*
X327660Y556260D03*
X327660Y581660D03*
X327660Y607060D03*
X833120Y660400D03*
X833120Y607060D03*
X972820Y101600D03*
X947420Y101600D03*
X922020Y101600D03*
X896620Y101600D03*
X871220Y101600D03*
X845820Y101600D03*
X820420Y101600D03*
X795020Y101600D03*
X769620Y101600D03*
X744220Y101600D03*
X718820Y101600D03*
X693420Y101600D03*
X668020Y101600D03*
X642620Y101600D03*
X744220Y561340D03*
X769620Y561340D03*
X795020Y561340D03*
X820420Y561340D03*
X845820Y561340D03*
X871220Y561340D03*
X896620Y561340D03*
X922020Y561340D03*
X947420Y561340D03*
X972820Y561340D03*
X637540Y759460D03*
X612140Y759460D03*
X586740Y759460D03*
X561340Y759460D03*
X962660Y502920D03*
X937260Y502920D03*
X911860Y502920D03*
X886460Y502920D03*
X861060Y502920D03*
X835660Y502920D03*
X810260Y502920D03*
X784860Y502920D03*
X759460Y502920D03*
X734060Y502920D03*
X708660Y502920D03*
X683260Y502920D03*
X657860Y502920D03*
X632460Y502920D03*
X607060Y502920D03*
X581660Y502920D03*
X556260Y502920D03*
X530860Y502920D03*
X505460Y502920D03*
X480060Y502920D03*
X480060Y477520D03*
X505460Y477520D03*
X530860Y477520D03*
X556260Y477520D03*
X581660Y477520D03*
X607060Y477520D03*
X632460Y477520D03*
X657860Y477520D03*
X683260Y477520D03*
X708660Y477520D03*
X734060Y477520D03*
X759460Y477520D03*
X784860Y477520D03*
X810260Y477520D03*
X835660Y477520D03*
X861060Y477520D03*
X886460Y477520D03*
X911860Y477520D03*
X937260Y477520D03*
X962660Y477520D03*
X381000Y482600D03*
X381000Y431800D03*
X889000Y431800D03*
X863600Y431800D03*
X838200Y431800D03*
X812800Y431800D03*
X787400Y431800D03*
X762000Y431800D03*
X736600Y431800D03*
X711200Y431800D03*
X685800Y431800D03*
X660400Y431800D03*
X635000Y431800D03*
X609600Y431800D03*
X584200Y431800D03*
X558800Y431800D03*
X533400Y431800D03*
X533400Y279400D03*
X558800Y279400D03*
X584200Y279400D03*
X609600Y279400D03*
X635000Y279400D03*
X660400Y279400D03*
X685800Y279400D03*
X711200Y279400D03*
X736600Y279400D03*
X762000Y279400D03*
X787400Y279400D03*
X812800Y279400D03*
X838200Y279400D03*
X863600Y279400D03*
X889000Y279400D03*
D12*
X217440Y347440D02*
X217440Y357520D01*
X204940Y357520D02*
X204940Y347440D01*
X192440Y347440D02*
X192440Y357520D01*
X179940Y357520D02*
X179940Y347440D01*
X167440Y347440D02*
X167440Y357520D01*
X154940Y357520D02*
X154940Y347440D01*
X142440Y347440D02*
X142440Y357520D01*
X129940Y357520D02*
X129940Y347440D01*
X117440Y347440D02*
X117440Y357520D01*
X104940Y357520D02*
X104940Y347440D01*
X92440Y347440D02*
X92440Y357520D01*
D10*
X215900Y271780D03*
X190500Y271780D03*
X165100Y271780D03*
X139700Y271780D03*
X114300Y271780D03*
X88900Y271780D03*
X284480Y396240D03*
X284480Y421640D03*
X284480Y447040D03*
X30480Y441960D03*
X30480Y416560D03*
X30480Y391160D03*
X106680Y553720D03*
X81280Y553720D03*
X269240Y548640D03*
X243840Y548640D03*
X218440Y548640D03*
X17780Y635000D03*
X43180Y635000D03*
X68580Y635000D03*
X93980Y635000D03*
X119380Y635000D03*
X144780Y635000D03*
X170180Y635000D03*
X195580Y635000D03*
X220980Y635000D03*
X246380Y635000D03*
X195580Y637540D03*
X195580Y662940D03*
X195580Y688340D03*
X195580Y713740D03*
X195580Y739140D03*
X195580Y764540D03*
X195580Y789940D03*
X195580Y815340D03*
X655320Y243840D03*
X680720Y243840D03*
X706120Y243840D03*
X731520Y243840D03*
X756920Y243840D03*
X782320Y243840D03*
X807720Y243840D03*
X833120Y243840D03*
X858520Y243840D03*
X883920Y243840D03*
X909320Y243840D03*
X383540Y330200D03*
X381000Y279400D03*
X726440Y177800D03*
X751840Y177800D03*
X777240Y177800D03*
X802640Y177800D03*
X828040Y177800D03*
X853440Y177800D03*
D13*
X960120Y383540D03*
X941070Y370840D03*
X960120Y358140D03*
D14*
X746760Y370840D03*
X899160Y370840D03*
X960120Y175260D03*
X960120Y327660D03*
D13*
X187960Y464820D03*
X168910Y452120D03*
X187960Y439420D03*
D14*
X17780Y502920D03*
X170180Y502920D03*
X269240Y591820D03*
X116840Y591820D03*
D10*
X474980Y205740D03*
D15*
X490538Y73025D02*
X530225Y33338D01*
X565150Y33338D01*
X490538Y73025D02*
X490220Y73660D01*
X565150Y33338D02*
X566420Y33020D01*
X20638Y57150D02*
X20638Y88900D01*
X20638Y57150D02*
X360363Y57150D01*
X385763Y82550D01*
X20638Y88900D02*
X20320Y88900D01*
X385763Y82550D02*
X386080Y83820D01*
X368300Y95250D02*
X368300Y182880D01*
X368300Y95250D02*
X382588Y80963D01*
X386080Y83820D01*
D16*
X317500Y142875D02*
X317500Y182880D01*
D17*
X317500Y142875D03*
D16*
X63500Y153988D02*
X57150Y147638D01*
X63500Y153988D02*
X238125Y153988D01*
X57150Y147638D02*
X55880Y147320D01*
D17*
X238125Y153988D03*
D16*
X215900Y115888D02*
X184150Y84138D01*
X182880Y83820D01*
D17*
X215900Y115888D03*
D16*
X128588Y142875D02*
X57150Y71438D01*
X55880Y71120D01*
D17*
X128588Y142875D03*
D16*
X46038Y165100D02*
X20638Y139700D01*
X46038Y165100D02*
X279400Y165100D01*
X360680Y83820D01*
X20638Y139700D02*
X20320Y139700D01*
X485775Y44450D02*
X488950Y47625D01*
X485775Y44450D02*
X381000Y44450D01*
X368300Y31750D01*
X488950Y47625D02*
X490220Y48260D01*
X368300Y31750D02*
X368300Y30480D01*
X488950Y100013D02*
X419100Y169863D01*
X419100Y182880D01*
X488950Y100013D02*
X490220Y99060D01*
X762000Y660400D02*
X776288Y674688D01*
X817563Y674688D01*
X831850Y660400D01*
X833120Y660400D01*
X836613Y792163D02*
X830263Y798513D01*
X776288Y798513D02*
X725488Y798513D01*
X776288Y798513D02*
X830263Y798513D01*
X725488Y798513D02*
X711200Y812800D01*
X836613Y792163D02*
X836676Y791972D01*
X644525Y792163D02*
X612775Y760413D01*
X644525Y792163D02*
X692150Y792163D01*
X711200Y811213D01*
X612775Y760413D02*
X612140Y759460D01*
X711200Y811213D02*
X711200Y812800D01*
X776288Y798513D02*
X776288Y674688D01*
X660400Y609600D02*
X646113Y595313D01*
X471488Y595313D01*
X457200Y609600D01*
X468313Y623888D02*
X482600Y609600D01*
X468313Y623888D02*
X452438Y623888D01*
X442913Y614363D01*
X442913Y588963D01*
X665163Y588963D01*
X685800Y609600D01*
X793750Y646113D02*
X805656Y634206D01*
X831850Y608013D01*
X793750Y646113D02*
X725488Y646113D01*
X711200Y660400D01*
X831850Y608013D02*
X833120Y607060D01*
X698500Y595313D02*
X685800Y608013D01*
X698500Y595313D02*
X766763Y595313D01*
X805656Y634206D01*
X685800Y609600D02*
X685800Y608013D01*
X620713Y623888D02*
X584200Y660400D01*
X620713Y623888D02*
X722313Y623888D01*
X736600Y609600D01*
X671513Y798513D02*
X381000Y798513D01*
X671513Y798513D02*
X685800Y812800D01*
X381000Y798513D02*
X379984Y799592D01*
X838200Y742950D02*
X873125Y777875D01*
X873125Y827088D01*
X674688Y827088D01*
X660400Y812800D01*
X836676Y742188D02*
X838200Y742950D01*
X558800Y660400D02*
X508000Y609600D01*
X806450Y206375D02*
X777875Y177800D01*
X806450Y206375D02*
X846138Y206375D01*
X882650Y242888D01*
X777875Y177800D02*
X777240Y177800D01*
X882650Y242888D02*
X883920Y243840D01*
X884238Y242888D02*
X896938Y230188D01*
X914400Y230188D01*
X974725Y290513D01*
X974725Y347663D01*
X693738Y347663D01*
X609600Y431800D01*
X883920Y243840D02*
X884238Y242888D01*
X958850Y384175D02*
X892175Y450850D01*
X846138Y450850D01*
X958850Y384175D02*
X960120Y383540D01*
D17*
X846138Y450850D03*
D16*
X817563Y192088D02*
X803275Y177800D01*
X817563Y192088D02*
X838200Y192088D01*
X852488Y177800D01*
X803275Y177800D02*
X802640Y177800D01*
X852488Y177800D02*
X853440Y177800D01*
X718344Y256381D02*
X709613Y265113D01*
X718344Y256381D02*
X730250Y244475D01*
X709613Y265113D02*
X623888Y265113D01*
X609600Y279400D01*
X730250Y244475D02*
X731520Y243840D01*
X530225Y503238D02*
X515938Y517525D01*
X474663Y517525D01*
X446881Y489744D02*
X388938Y431800D01*
X446881Y489744D02*
X474663Y517525D01*
X388938Y431800D02*
X381000Y431800D01*
X530225Y503238D02*
X530860Y502920D01*
X527050Y463550D02*
X558800Y431800D01*
X527050Y463550D02*
X473075Y463550D01*
X446881Y489744D01*
X895350Y257175D02*
X908050Y244475D01*
X895350Y257175D02*
X719138Y257175D01*
X908050Y244475D02*
X909320Y243840D01*
X719138Y257175D02*
X718344Y256381D01*
X92075Y273050D02*
X92075Y352425D01*
X92075Y273050D02*
X88900Y273050D01*
X92075Y352425D02*
X92440Y352480D01*
X88900Y273050D02*
X88900Y271780D01*
X104775Y273050D02*
X104775Y352425D01*
X104775Y273050D02*
X114300Y273050D01*
X104775Y352425D02*
X104940Y352480D01*
X114300Y273050D02*
X114300Y271780D01*
X204788Y422275D02*
X204788Y463550D01*
X204788Y422275D02*
X204788Y354013D01*
X204788Y463550D02*
X188913Y463550D01*
X204788Y354013D02*
X204940Y352480D01*
X188913Y463550D02*
X187960Y464820D01*
X204788Y338138D02*
X139700Y273050D01*
X204788Y338138D02*
X204788Y352425D01*
X139700Y273050D02*
X139700Y271780D01*
X204788Y352425D02*
X204940Y352480D01*
X204788Y422275D02*
X284163Y422275D01*
X284480Y421640D01*
X258763Y395288D02*
X217488Y354013D01*
X258763Y395288D02*
X284163Y395288D01*
X217488Y354013D02*
X217440Y352480D01*
X284163Y395288D02*
X284480Y396240D01*
X165100Y290513D02*
X165100Y271780D01*
X165100Y290513D02*
X215900Y341313D01*
X215900Y352425D01*
X217440Y352480D01*
X80963Y441325D02*
X31750Y392113D01*
X80963Y534988D02*
X80963Y552450D01*
X80963Y534988D02*
X80963Y441325D01*
X31750Y392113D02*
X30480Y391160D01*
X80963Y552450D02*
X81280Y553720D01*
X230188Y534988D02*
X243840Y548640D01*
X230188Y534988D02*
X80963Y534988D01*
X192088Y352425D02*
X192088Y333375D01*
X117475Y333375D01*
X115888Y331788D01*
X192088Y352425D02*
X192440Y352480D01*
D17*
X115888Y331788D03*
D16*
X166688Y354013D02*
X166688Y441325D01*
X163513Y441325D01*
X155575Y449263D01*
X155575Y528638D01*
X249238Y528638D01*
X269240Y548640D01*
X166688Y354013D02*
X167440Y352480D01*
X769938Y228600D02*
X771525Y230188D01*
X819150Y230188D01*
X831850Y242888D01*
X833120Y243840D01*
D17*
X769938Y228600D03*
D16*
X731838Y217488D02*
X706438Y242888D01*
X731838Y217488D02*
X808038Y217488D01*
X706438Y242888D02*
X706120Y243840D01*
X862013Y163513D02*
X976313Y277813D01*
X862013Y163513D02*
X842963Y163513D01*
X828675Y177800D01*
X828040Y177800D01*
D17*
X808038Y217488D03*
X976313Y277813D03*
D16*
X746125Y177800D02*
X681038Y242888D01*
X746125Y177800D02*
X751840Y177800D01*
X681038Y242888D02*
X680720Y243840D01*
X962025Y528638D02*
X960438Y530225D01*
X409575Y530225D01*
X366713Y487363D01*
X366713Y257175D01*
X666750Y257175D01*
X679450Y244475D01*
X680720Y243840D01*
D17*
X962025Y528638D03*
D16*
X655638Y242888D02*
X720725Y177800D01*
X726440Y177800D01*
X655638Y242888D02*
X655320Y243840D01*
X812800Y431800D02*
X844550Y463550D01*
X968375Y463550D01*
X976313Y471488D01*
X976313Y517525D01*
X927100Y517525D01*
X912813Y503238D01*
X911860Y502920D01*
X593725Y328613D02*
X450850Y471488D01*
X593725Y328613D02*
X958850Y328613D01*
X960120Y327660D01*
D17*
X450850Y471488D03*
M02*
