G04 EAGLE Gerber RS-274X export*
G75*
%MOMM*%
%FSLAX34Y34*%
%LPD*%
%IN*%
%IPPOS*%
%AMOC8*
5,1,8,0,0,1.08239X$1,22.5*%
G01*
%ADD10C,0.254000*%


D10*
X0Y0D02*
X990600Y5080D01*
X990600Y855980D01*
X0Y850900D01*
X0Y0D01*
X308483Y820052D02*
X308552Y820836D01*
X308688Y821612D01*
X308892Y822372D01*
X309161Y823112D01*
X309494Y823826D01*
X309888Y824507D01*
X310340Y825152D01*
X310846Y825756D01*
X311402Y826312D01*
X312006Y826818D01*
X312651Y827270D01*
X313332Y827664D01*
X314046Y827997D01*
X314786Y828266D01*
X315547Y828470D01*
X316322Y828606D01*
X317106Y828675D01*
X317894Y828675D01*
X318678Y828606D01*
X319454Y828470D01*
X320214Y828266D01*
X320954Y827997D01*
X321668Y827664D01*
X322349Y827270D01*
X322994Y826818D01*
X323598Y826312D01*
X324154Y825756D01*
X324660Y825152D01*
X325112Y824507D01*
X325506Y823826D01*
X325839Y823112D01*
X326108Y822372D01*
X326312Y821612D01*
X326448Y820836D01*
X326517Y820052D01*
X326517Y819264D01*
X326448Y818480D01*
X326312Y817705D01*
X326108Y816944D01*
X325839Y816204D01*
X325506Y815490D01*
X325112Y814809D01*
X324660Y814164D01*
X324154Y813560D01*
X323598Y813004D01*
X322994Y812498D01*
X322349Y812046D01*
X321668Y811652D01*
X320954Y811319D01*
X320214Y811050D01*
X319454Y810846D01*
X318678Y810710D01*
X317894Y810641D01*
X317106Y810641D01*
X316322Y810710D01*
X315547Y810846D01*
X314786Y811050D01*
X314046Y811319D01*
X313332Y811652D01*
X312651Y812046D01*
X312006Y812498D01*
X311402Y813004D01*
X310846Y813560D01*
X310340Y814164D01*
X309888Y814809D01*
X309494Y815490D01*
X309161Y816204D01*
X308892Y816944D01*
X308688Y817705D01*
X308552Y818480D01*
X308483Y819264D01*
X308483Y820052D01*
X308483Y730136D02*
X308552Y730920D01*
X308688Y731696D01*
X308892Y732456D01*
X309161Y733196D01*
X309494Y733910D01*
X309888Y734591D01*
X310340Y735236D01*
X310846Y735840D01*
X311402Y736396D01*
X312006Y736902D01*
X312651Y737354D01*
X313332Y737748D01*
X314046Y738081D01*
X314786Y738350D01*
X315547Y738554D01*
X316322Y738690D01*
X317106Y738759D01*
X317894Y738759D01*
X318678Y738690D01*
X319454Y738554D01*
X320214Y738350D01*
X320954Y738081D01*
X321668Y737748D01*
X322349Y737354D01*
X322994Y736902D01*
X323598Y736396D01*
X324154Y735840D01*
X324660Y735236D01*
X325112Y734591D01*
X325506Y733910D01*
X325839Y733196D01*
X326108Y732456D01*
X326312Y731696D01*
X326448Y730920D01*
X326517Y730136D01*
X326517Y729348D01*
X326448Y728564D01*
X326312Y727789D01*
X326108Y727028D01*
X325839Y726288D01*
X325506Y725574D01*
X325112Y724893D01*
X324660Y724248D01*
X324154Y723644D01*
X323598Y723088D01*
X322994Y722582D01*
X322349Y722130D01*
X321668Y721736D01*
X320954Y721403D01*
X320214Y721134D01*
X319454Y720930D01*
X318678Y720794D01*
X317894Y720725D01*
X317106Y720725D01*
X316322Y720794D01*
X315547Y720930D01*
X314786Y721134D01*
X314046Y721403D01*
X313332Y721736D01*
X312651Y722130D01*
X312006Y722582D01*
X311402Y723088D01*
X310846Y723644D01*
X310340Y724248D01*
X309888Y724893D01*
X309494Y725574D01*
X309161Y726288D01*
X308892Y727028D01*
X308688Y727789D01*
X308552Y728564D01*
X308483Y729348D01*
X308483Y730136D01*
X908177Y721728D02*
X908108Y720944D01*
X907972Y720169D01*
X907768Y719408D01*
X907499Y718668D01*
X907166Y717954D01*
X906772Y717273D01*
X906320Y716628D01*
X905814Y716024D01*
X905258Y715468D01*
X904654Y714962D01*
X904009Y714510D01*
X903328Y714116D01*
X902614Y713783D01*
X901874Y713514D01*
X901114Y713310D01*
X900338Y713174D01*
X899554Y713105D01*
X898766Y713105D01*
X897982Y713174D01*
X897207Y713310D01*
X896446Y713514D01*
X895706Y713783D01*
X894992Y714116D01*
X894311Y714510D01*
X893666Y714962D01*
X893062Y715468D01*
X892506Y716024D01*
X892000Y716628D01*
X891548Y717273D01*
X891154Y717954D01*
X890821Y718668D01*
X890552Y719408D01*
X890348Y720169D01*
X890212Y720944D01*
X890143Y721728D01*
X890143Y722516D01*
X890212Y723300D01*
X890348Y724076D01*
X890552Y724836D01*
X890821Y725576D01*
X891154Y726290D01*
X891548Y726971D01*
X892000Y727616D01*
X892506Y728220D01*
X893062Y728776D01*
X893666Y729282D01*
X894311Y729734D01*
X894992Y730128D01*
X895706Y730461D01*
X896446Y730730D01*
X897207Y730934D01*
X897982Y731070D01*
X898766Y731139D01*
X899554Y731139D01*
X900338Y731070D01*
X901114Y730934D01*
X901874Y730730D01*
X902614Y730461D01*
X903328Y730128D01*
X904009Y729734D01*
X904654Y729282D01*
X905258Y728776D01*
X905814Y728220D01*
X906320Y727616D01*
X906772Y726971D01*
X907166Y726290D01*
X907499Y725576D01*
X907768Y724836D01*
X907972Y724076D01*
X908108Y723300D01*
X908177Y722516D01*
X908177Y721728D01*
X908177Y811644D02*
X908108Y810860D01*
X907972Y810085D01*
X907768Y809324D01*
X907499Y808584D01*
X907166Y807870D01*
X906772Y807189D01*
X906320Y806544D01*
X905814Y805940D01*
X905258Y805384D01*
X904654Y804878D01*
X904009Y804426D01*
X903328Y804032D01*
X902614Y803699D01*
X901874Y803430D01*
X901114Y803226D01*
X900338Y803090D01*
X899554Y803021D01*
X898766Y803021D01*
X897982Y803090D01*
X897207Y803226D01*
X896446Y803430D01*
X895706Y803699D01*
X894992Y804032D01*
X894311Y804426D01*
X893666Y804878D01*
X893062Y805384D01*
X892506Y805940D01*
X892000Y806544D01*
X891548Y807189D01*
X891154Y807870D01*
X890821Y808584D01*
X890552Y809324D01*
X890348Y810085D01*
X890212Y810860D01*
X890143Y811644D01*
X890143Y812432D01*
X890212Y813216D01*
X890348Y813992D01*
X890552Y814752D01*
X890821Y815492D01*
X891154Y816206D01*
X891548Y816887D01*
X892000Y817532D01*
X892506Y818136D01*
X893062Y818692D01*
X893666Y819198D01*
X894311Y819650D01*
X894992Y820044D01*
X895706Y820377D01*
X896446Y820646D01*
X897207Y820850D01*
X897982Y820986D01*
X898766Y821055D01*
X899554Y821055D01*
X900338Y820986D01*
X901114Y820850D01*
X901874Y820646D01*
X902614Y820377D01*
X903328Y820044D01*
X904009Y819650D01*
X904654Y819198D01*
X905258Y818692D01*
X905814Y818136D01*
X906320Y817532D01*
X906772Y816887D01*
X907166Y816206D01*
X907499Y815492D01*
X907768Y814752D01*
X907972Y813992D01*
X908108Y813216D01*
X908177Y812432D01*
X908177Y811644D01*
M02*
