M48
;GenerationSoftware,Autodesk,EAGLE,9.5.1*%
;CreationDate,2020-06-01T20:06:07Z*%
FMAT,2
ICI,OFF
METRIC,TZ,000.000
T6C0.559
T5C0.700
T4C0.800
T3C0.813
T2C1.016
T1C3.302
%
G90
M71
T1
X9906Y72136
T2
X9906Y57150
X12446Y57150
X28448Y45974
X28448Y48514
X28448Y51054
X28448Y53594
X28448Y56134
X7366Y57150
X28448Y38354
X28448Y40894
X28448Y43434
X19050Y38354
X21590Y38354
X24130Y38354
X17526Y49530
X11430Y38100
X6604Y48260
X6604Y45720
X6604Y43180
X6604Y40640
T3
X7112Y53848
X17272Y53848
T4
X37608Y35306
X39608Y35306
X41608Y35306
X43608Y35306
X31750Y52324
X33608Y35306
X35608Y35306
X31750Y37846
X31750Y39878
X31750Y41910
X31750Y43942
X31750Y45974
X31750Y48006
X31750Y50038
T5
X22352Y54630
X22352Y57130
T6
X23177Y35243
X34290Y52387
M30