M48
;GenerationSoftware,Autodesk,EAGLE,9.5.1*%
;CreationDate,2020-05-29T14:45:46Z*%
FMAT,2
ICI,OFF
METRIC,TZ,000.000
T6C0.559
T5C0.700
T4C0.800
T3C0.813
T2C1.016
T1C3.302
%
G90
M71
T1
X9906Y72136
T2
X28194Y52578
X12446Y57150
X19050Y38354
X21590Y38354
X24130Y38354
X17526Y49530
X11430Y38100
X6604Y48260
X6604Y45720
X6604Y43180
X28194Y39878
X28194Y42418
X28194Y44958
X28194Y47498
X28194Y50038
X6604Y40640
X28194Y55118
X28194Y57658
X7366Y57150
X9906Y57150
T3
X7112Y53848
X17272Y53848
T4
X31830Y35306
X33830Y35306
X35830Y35306
X37830Y35306
X39830Y35306
X41830Y35306
T5
X22352Y54630
X22352Y57130
T6
X35560Y37783
X32702Y38418
M30