M48
;GenerationSoftware,Autodesk,EAGLE,9.5.1*%
;CreationDate,2020-05-22T19:47:13Z*%
FMAT,2
ICI,OFF
METRIC,TZ,000.000
T6C0.559
T5C0.700
T4C0.800
T3C0.813
T2C1.016
T1C3.302
%
G90
M71
T1
X27940Y71120
T2
X30480Y56134
X25400Y38608
X27940Y38608
X30480Y38608
X35560Y51308
X57658Y44450
X57658Y46990
X57658Y49530
X19050Y47244
X18796Y39878
X50546Y55372
X53086Y55372
X6604Y45720
X6604Y43180
X6604Y40640
X12192Y53086
X9652Y53086
X35560Y38608
X35560Y41148
X35560Y43688
X35560Y46228
X35560Y48768
X6604Y48260
X35560Y53848
X35560Y56388
X25400Y56134
X27940Y56134
T3
X29210Y51562
X19050Y51562
T4
X48498Y37592
X42498Y37592
X44498Y37592
X46498Y37592
X50498Y37592
X52498Y37592
X40640Y40974
X40640Y42974
X40640Y44974
X40640Y46974
X40640Y48974
X40640Y50974
X40640Y52974
X40640Y38974
T5
X27452Y46228
X29952Y46228
T6
X10478Y42069
M30