M48
;GenerationSoftware,Autodesk,EAGLE,9.5.1*%
;CreationDate,2020-03-15T19:03:06Z*%
FMAT,2
ICI,OFF
METRIC,TZ,000.000
T8C0.559
T7C0.700
T6C0.813
T5C1.016
T4C1.118
T3C1.194
T2C1.200
T1C1.803
%
G90
M71
T1
X32004Y59360
X32004Y50368
X90424Y49860
X90424Y58852
T2
X87320Y3810
X83820Y3810
T3
X38252Y57353
X25756Y57353
X38252Y52375
X25756Y52375
X84176Y51867
X96672Y51867
X84176Y56845
X96672Y56845
T4
X24384Y26670
X21844Y26670
X19304Y26670
X16764Y26670
X14224Y26670
X11684Y26670
T5
X6350Y6350
X82042Y30734
X84582Y30734
X87122Y30734
X44450Y18288
X41910Y18288
X39370Y18288
X36830Y18288
X34290Y18288
X31750Y18288
X29210Y18288
X26670Y18288
X24130Y18288
X21590Y18288
X19050Y18288
X16510Y18288
X13970Y18288
X11430Y18288
X8890Y18288
X8890Y3048
X11430Y3048
X13970Y3048
X16510Y3048
X19050Y3048
X21590Y3048
X24130Y3048
X26670Y3048
X29210Y3048
X31750Y3048
X34290Y3048
X36830Y3048
X39370Y3048
X41910Y3048
X44450Y3048
X43180Y41910
X6350Y8890
X6350Y11430
X6350Y13970
X48006Y14986
X48006Y12446
X48006Y9906
X48006Y7366
X53594Y13640
X53594Y8382
X2032Y14148
X2032Y8890
X62230Y2540
X64770Y2540
X67310Y2540
X69850Y2540
X72390Y2540
X74930Y2540
X77470Y2540
X80010Y2540
X80010Y25400
X77470Y25400
X74930Y25400
X72390Y25400
X69850Y25400
X67310Y25400
X64770Y25400
X62230Y25400
X60452Y11430
X60452Y13970
X60452Y16510
X60452Y19050
X85090Y13970
X85090Y16510
X85090Y19050
X85090Y21590
X89662Y30734
X92202Y30734
X94742Y30734
X45720Y41910
X48260Y41910
X50800Y41910
X53340Y41910
X55880Y41910
X58420Y41910
X60960Y41910
X63500Y41910
X66040Y41910
X68580Y41910
X71120Y41910
X73660Y41910
X76200Y41910
X78740Y41910
X78740Y57150
X76200Y57150
X73660Y57150
X71120Y57150
X68580Y57150
X66040Y57150
X63500Y57150
X60960Y57150
X58420Y57150
X55880Y57150
X53340Y57150
X50800Y57150
X48260Y57150
X45720Y57150
X43180Y57150
X45720Y35560
X48260Y35560
X50800Y35560
X53340Y35560
X55880Y35560
X66040Y35560
X68580Y35560
X71120Y35560
X73660Y35560
X76200Y35560
X6350Y31750
X6350Y34290
X6350Y36830
X6350Y39370
X3810Y39370
X3810Y36830
X3810Y34290
X3810Y31750
X17272Y42672
X14732Y42672
X12192Y42672
X30226Y37338
X30226Y34798
X30226Y32258
X30226Y29718
X28448Y42672
X30988Y42672
X97282Y30734
X38608Y8382
X36068Y8382
X33528Y8382
X30988Y8382
X28448Y8382
X25908Y8382
X23368Y8382
X20828Y8382
X18288Y8382
X15748Y8382
X13208Y8382
X94742Y13970
X94742Y16510
X94742Y19050
X94742Y21590
X92202Y21590
X92202Y19050
X92202Y16510
X92202Y13970
X96520Y2540
X93980Y2540
X91440Y2540
X37338Y28956
X39878Y28956
X42418Y28956
X44958Y28956
X47498Y28956
X50038Y28956
X52578Y28956
X55118Y28956
X57658Y28956
X60198Y28956
X62738Y28956
X65278Y28956
X67818Y28956
X70358Y28956
X72898Y28956
X9652Y22606
X12192Y22606
X14732Y22606
X17272Y22606
X19812Y22606
X22352Y22606
X24892Y22606
X27432Y22606
X29972Y22606
X32512Y22606
X35052Y22606
X37592Y22606
X40132Y22606
X42672Y22606
X45212Y22606
X35052Y25400
X35052Y27940
X35052Y30480
X2032Y22606
X4572Y22606
X7112Y22606
X35052Y38100
X35052Y35560
X35052Y33020
X52832Y22606
X50292Y22606
X47752Y22606
X54864Y21336
X54864Y23876
X54864Y26416
X56896Y15494
X56896Y18034
X56896Y20574
X56896Y8128
X56896Y10668
X56896Y13208
X56896Y3048
X56896Y5588
X35052Y40640
X35052Y43180
X2286Y46228
X4826Y46228
X7366Y46228
X9906Y46228
X12446Y46228
X14986Y46228
X17526Y46228
X20066Y46228
X22606Y46228
X25146Y46228
X27686Y46228
X30226Y46228
X32766Y46228
X35306Y46228
X37846Y46228
X60960Y51562
X60960Y46228
X71120Y60960
X71120Y63500
X71120Y66040
X71120Y68580
X71120Y71120
X71120Y73660
X71120Y76200
X71120Y78740
X48260Y60960
X48260Y63500
X48260Y66040
X48260Y68580
X48260Y71120
X48260Y73660
X48260Y76200
X48260Y78740
X85344Y33528
X85344Y36068
X85344Y38608
X85344Y41148
X85344Y43688
X86868Y45212
X89408Y45212
X91948Y45212
X94488Y45212
X97028Y45212
X21336Y49022
X21336Y51562
X21336Y54102
X21336Y56642
X21336Y59182
X21336Y61722
X21336Y64262
X21336Y66802
X21336Y69342
X21336Y71882
X21336Y74422
X21336Y76962
X21336Y79502
X21336Y82042
X74422Y30734
X76962Y30734
X79502Y30734
T6
X80010Y19050
X67310Y19050
X12192Y36068
X12700Y39624
X25400Y39624
X12700Y30480
X25400Y30480
X12192Y33528
X10287Y34798
T7
X94000Y7620
X96500Y7620
X25888Y34798
X23388Y34798
T8
X6667Y16828
X22860Y14287
X21590Y11747
X31115Y11747
M30