G04 EAGLE Gerber RS-274X export*
G75*
%MOMM*%
%FSLAX34Y34*%
%LPD*%
%INBottom Copper*%
%IPPOS*%
%AMOC8*
5,1,8,0,0,1.08239X$1,22.5*%
G01*
%ADD10C,1.879600*%
%ADD11P,1.429621X8X202.500000*%
%ADD12C,1.790700*%
%ADD13P,1.429621X8X112.500000*%
%ADD14R,1.651000X1.651000*%
%ADD15C,1.651000*%
%ADD16R,2.032000X2.032000*%
%ADD17C,2.032000*%
%ADD18C,1.879600*%
%ADD19C,0.304800*%
%ADD20C,0.254000*%
%ADD21C,1.066800*%


D10*
X444500Y182880D03*
X419100Y182880D03*
X393700Y182880D03*
X368300Y182880D03*
X342900Y182880D03*
X317500Y182880D03*
X292100Y182880D03*
X266700Y182880D03*
X241300Y182880D03*
X215900Y182880D03*
X190500Y182880D03*
X165100Y182880D03*
X139700Y182880D03*
X114300Y182880D03*
X88900Y182880D03*
X88900Y30480D03*
X114300Y30480D03*
X139700Y30480D03*
X165100Y30480D03*
X190500Y30480D03*
X215900Y30480D03*
X241300Y30480D03*
X266700Y30480D03*
X292100Y30480D03*
X317500Y30480D03*
X342900Y30480D03*
X368300Y30480D03*
X393700Y30480D03*
X419100Y30480D03*
X444500Y30480D03*
X63500Y63500D03*
X63500Y88900D03*
X63500Y114300D03*
X63500Y139700D03*
X480060Y149860D03*
X480060Y124460D03*
X480060Y99060D03*
X480060Y73660D03*
X535940Y136398D03*
X535940Y83820D03*
X20320Y141478D03*
X20320Y88900D03*
X622300Y25400D03*
X647700Y25400D03*
X673100Y25400D03*
X698500Y25400D03*
X723900Y25400D03*
X749300Y25400D03*
X774700Y25400D03*
X800100Y25400D03*
X800100Y254000D03*
X774700Y254000D03*
X749300Y254000D03*
X723900Y254000D03*
X698500Y254000D03*
X673100Y254000D03*
X647700Y254000D03*
X622300Y254000D03*
X604520Y114300D03*
X604520Y139700D03*
X604520Y165100D03*
X604520Y190500D03*
X850900Y139700D03*
X850900Y165100D03*
X850900Y190500D03*
X850900Y215900D03*
D11*
X800100Y190500D03*
X673100Y190500D03*
D10*
X431800Y419100D03*
X457200Y419100D03*
X482600Y419100D03*
X508000Y419100D03*
X533400Y419100D03*
X558800Y419100D03*
X584200Y419100D03*
X609600Y419100D03*
X635000Y419100D03*
X660400Y419100D03*
X685800Y419100D03*
X711200Y419100D03*
X736600Y419100D03*
X762000Y419100D03*
X787400Y419100D03*
X787400Y571500D03*
X762000Y571500D03*
X736600Y571500D03*
X711200Y571500D03*
X685800Y571500D03*
X660400Y571500D03*
X635000Y571500D03*
X609600Y571500D03*
X584200Y571500D03*
X558800Y571500D03*
X533400Y571500D03*
X508000Y571500D03*
X482600Y571500D03*
X457200Y571500D03*
X431800Y571500D03*
X457200Y355600D03*
X482600Y355600D03*
X508000Y355600D03*
X533400Y355600D03*
X558800Y355600D03*
X660400Y355600D03*
X685800Y355600D03*
X711200Y355600D03*
X736600Y355600D03*
X762000Y355600D03*
D12*
X391478Y573532D02*
X373571Y573532D01*
X266510Y573532D02*
X248603Y573532D01*
X373571Y523748D02*
X391478Y523748D01*
X266510Y523748D02*
X248603Y523748D01*
X832803Y518668D02*
X850710Y518668D01*
X957771Y518668D02*
X975678Y518668D01*
X850710Y568452D02*
X832803Y568452D01*
X957771Y568452D02*
X975678Y568452D01*
D10*
X63500Y317500D03*
X63500Y342900D03*
X63500Y368300D03*
X63500Y393700D03*
X38100Y393700D03*
X38100Y368300D03*
X38100Y342900D03*
X38100Y317500D03*
X172720Y426720D03*
X147320Y426720D03*
X121920Y426720D03*
X302260Y373380D03*
X302260Y347980D03*
X302260Y322580D03*
X302260Y297180D03*
X284480Y426720D03*
X309880Y426720D03*
D13*
X121920Y360680D03*
X102870Y347980D03*
X121920Y335280D03*
D11*
X254000Y304800D03*
X127000Y304800D03*
X254000Y396240D03*
X127000Y396240D03*
D14*
X233880Y347980D03*
D15*
X258880Y347980D03*
D10*
X386080Y83820D03*
X360680Y83820D03*
X335280Y83820D03*
X309880Y83820D03*
X284480Y83820D03*
X259080Y83820D03*
X233680Y83820D03*
X208280Y83820D03*
X182880Y83820D03*
X157480Y83820D03*
X132080Y83820D03*
X947420Y139700D03*
X947420Y165100D03*
X947420Y190500D03*
X947420Y215900D03*
X922020Y215900D03*
X922020Y190500D03*
X922020Y165100D03*
X922020Y139700D03*
X965200Y25400D03*
X939800Y25400D03*
X914400Y25400D03*
D14*
X940000Y76200D03*
D15*
X965000Y76200D03*
D16*
X838200Y38100D03*
D17*
X873200Y38100D03*
D10*
X373380Y289560D03*
X398780Y289560D03*
X424180Y289560D03*
X449580Y289560D03*
X474980Y289560D03*
X500380Y289560D03*
X525780Y289560D03*
X551180Y289560D03*
X576580Y289560D03*
X601980Y289560D03*
X627380Y289560D03*
X652780Y289560D03*
X678180Y289560D03*
X703580Y289560D03*
X728980Y289560D03*
X96520Y226060D03*
X121920Y226060D03*
X147320Y226060D03*
X172720Y226060D03*
X198120Y226060D03*
X223520Y226060D03*
X248920Y226060D03*
X274320Y226060D03*
X299720Y226060D03*
X325120Y226060D03*
X350520Y226060D03*
X375920Y226060D03*
X401320Y226060D03*
X426720Y226060D03*
X452120Y226060D03*
X350520Y254000D03*
X350520Y279400D03*
X350520Y304800D03*
X20320Y226060D03*
X45720Y226060D03*
X71120Y226060D03*
X350520Y381000D03*
X350520Y355600D03*
X350520Y330200D03*
X528320Y226060D03*
X502920Y226060D03*
X477520Y226060D03*
X548640Y213360D03*
X548640Y238760D03*
X548640Y264160D03*
X568960Y154940D03*
X568960Y180340D03*
X568960Y205740D03*
X568960Y81280D03*
X568960Y106680D03*
X568960Y132080D03*
X568960Y30480D03*
X568960Y55880D03*
X350520Y406400D03*
X350520Y431800D03*
X22860Y462280D03*
X48260Y462280D03*
X73660Y462280D03*
X99060Y462280D03*
X124460Y462280D03*
X149860Y462280D03*
X175260Y462280D03*
X200660Y462280D03*
X226060Y462280D03*
X251460Y462280D03*
X276860Y462280D03*
X302260Y462280D03*
X327660Y462280D03*
X353060Y462280D03*
X378460Y462280D03*
D18*
X116840Y276098D02*
X116840Y257302D01*
X142240Y257302D02*
X142240Y276098D01*
X167640Y276098D02*
X167640Y257302D01*
X193040Y257302D02*
X193040Y276098D01*
X218440Y276098D02*
X218440Y257302D01*
X243840Y257302D02*
X243840Y276098D01*
D10*
X609600Y515620D03*
X609600Y462280D03*
X711200Y609600D03*
X711200Y635000D03*
X711200Y660400D03*
X711200Y685800D03*
X711200Y711200D03*
X711200Y736600D03*
X711200Y762000D03*
X711200Y787400D03*
X482600Y609600D03*
X482600Y635000D03*
X482600Y660400D03*
X482600Y685800D03*
X482600Y711200D03*
X482600Y736600D03*
X482600Y762000D03*
X482600Y787400D03*
X853440Y335280D03*
X853440Y360680D03*
X853440Y386080D03*
X853440Y411480D03*
X853440Y436880D03*
X868680Y452120D03*
X894080Y452120D03*
X919480Y452120D03*
X944880Y452120D03*
X970280Y452120D03*
X213360Y490220D03*
X213360Y515620D03*
X213360Y541020D03*
X213360Y566420D03*
X213360Y591820D03*
X213360Y617220D03*
X213360Y642620D03*
X213360Y668020D03*
X213360Y693420D03*
X213360Y718820D03*
X213360Y744220D03*
X213360Y769620D03*
X213360Y795020D03*
X213360Y820420D03*
X744220Y307340D03*
X769620Y307340D03*
X795020Y307340D03*
X820420Y307340D03*
X845820Y307340D03*
X871220Y307340D03*
X896620Y307340D03*
X922020Y307340D03*
X947420Y307340D03*
X972820Y307340D03*
D19*
X400050Y98425D02*
X387350Y85725D01*
X422275Y98425D02*
X479425Y98425D01*
X422275Y98425D02*
X400050Y98425D01*
X387350Y85725D02*
X386080Y83820D01*
X479425Y98425D02*
X480060Y99060D01*
X520700Y98425D02*
X533400Y85725D01*
X520700Y98425D02*
X482600Y98425D01*
X533400Y85725D02*
X535940Y83820D01*
X482600Y98425D02*
X480060Y99060D01*
X22225Y88900D02*
X22225Y15875D01*
X406400Y15875D01*
X419100Y28575D01*
X22225Y88900D02*
X20320Y88900D01*
X419100Y30480D02*
X419100Y28575D01*
X422275Y31750D02*
X422275Y98425D01*
X422275Y31750D02*
X419100Y31750D01*
X419100Y30480D01*
D20*
X311150Y85725D02*
X311150Y117475D01*
X311150Y85725D02*
X309880Y83820D01*
D21*
X311150Y117475D03*
D20*
X254000Y168275D02*
X66675Y168275D01*
X254000Y168275D02*
X266700Y180975D01*
X266700Y182880D01*
D21*
X66675Y168275D03*
D20*
X92075Y142875D02*
X63500Y114300D01*
X92075Y142875D02*
X228600Y142875D01*
D21*
X228600Y142875D03*
D20*
X215900Y117475D02*
X184150Y85725D01*
X182880Y83820D01*
D21*
X215900Y117475D03*
D20*
X34925Y155575D02*
X22225Y142875D01*
X34925Y155575D02*
X288925Y155575D01*
X360680Y83820D01*
X22225Y142875D02*
X20320Y141478D01*
X368300Y82550D02*
X368300Y30480D01*
X368300Y82550D02*
X361950Y82550D01*
X360680Y83820D01*
X425450Y180975D02*
X479425Y127000D01*
X425450Y180975D02*
X419100Y180975D01*
X479425Y127000D02*
X480060Y124460D01*
X419100Y180975D02*
X419100Y182880D01*
X673100Y190500D02*
X673100Y114300D01*
X622300Y114300D02*
X604520Y114300D01*
X622300Y114300D02*
X673100Y114300D01*
X622300Y114300D02*
X622300Y25400D01*
X647700Y25400D02*
X663575Y9525D01*
X949325Y9525D01*
X965200Y25400D01*
X619125Y203200D02*
X606425Y190500D01*
X619125Y203200D02*
X676275Y203200D01*
X774700Y104775D01*
X774700Y25400D01*
X606425Y190500D02*
X604520Y190500D01*
X698500Y254000D02*
X787400Y165100D01*
X850900Y165100D01*
X762000Y139700D02*
X647700Y254000D01*
X762000Y139700D02*
X850900Y139700D01*
X841375Y571500D02*
X777875Y635000D01*
X711200Y635000D01*
X841375Y571500D02*
X841756Y568452D01*
X708025Y403225D02*
X660400Y355600D01*
X708025Y403225D02*
X746125Y403225D01*
X762000Y419100D01*
X387350Y517525D02*
X384175Y520700D01*
X409575Y517525D02*
X609600Y517525D01*
X409575Y517525D02*
X387350Y517525D01*
X384175Y520700D02*
X382524Y523748D01*
X409575Y403225D02*
X441325Y371475D01*
X457200Y355600D01*
X409575Y403225D02*
X409575Y517525D01*
X644525Y371475D02*
X660400Y355600D01*
X644525Y371475D02*
X441325Y371475D01*
X657225Y517525D02*
X711200Y571500D01*
X657225Y517525D02*
X609600Y517525D01*
X609600Y515620D01*
X482600Y355600D02*
X498475Y339725D01*
X669925Y339725D01*
X685800Y355600D01*
X635000Y434975D02*
X609600Y460375D01*
X635000Y434975D02*
X695325Y434975D01*
X711200Y419100D01*
X609600Y460375D02*
X609600Y462280D01*
X733425Y587375D02*
X711200Y609600D01*
X733425Y587375D02*
X790575Y587375D01*
X803275Y574675D01*
X803275Y434975D01*
X695325Y434975D01*
X727075Y396875D02*
X685800Y355600D01*
X727075Y396875D02*
X784225Y396875D01*
X803275Y415925D01*
X803275Y434975D01*
X396875Y587375D02*
X384175Y574675D01*
X396875Y587375D02*
X669925Y587375D01*
X685800Y571500D01*
X384175Y574675D02*
X382524Y573532D01*
X282575Y425450D02*
X254000Y396875D01*
X282575Y425450D02*
X284480Y426720D01*
X152400Y396875D02*
X123825Y425450D01*
X152400Y396875D02*
X254000Y396875D01*
X123825Y425450D02*
X121920Y426720D01*
X254000Y396875D02*
X254000Y396240D01*
X241300Y333375D02*
X241300Y292100D01*
X241300Y266700D01*
X241300Y333375D02*
X244475Y333375D01*
X257175Y346075D01*
X243840Y266700D02*
X241300Y266700D01*
X257175Y346075D02*
X258880Y347980D01*
X63500Y292100D02*
X38100Y317500D01*
X63500Y292100D02*
X241300Y292100D01*
X101600Y381000D02*
X88900Y393700D01*
X101600Y381000D02*
X121920Y360680D01*
X88900Y393700D02*
X63500Y393700D01*
X222250Y358775D02*
X231775Y349250D01*
X222250Y358775D02*
X123825Y358775D01*
X231775Y349250D02*
X233880Y347980D01*
X123825Y358775D02*
X121920Y360680D01*
X101600Y381000D02*
X63500Y342900D01*
X117475Y266700D02*
X117475Y241300D01*
X266700Y241300D01*
X317500Y292100D01*
X317500Y371475D01*
X304800Y371475D01*
X117475Y266700D02*
X116840Y266700D01*
X302260Y373380D02*
X304800Y371475D01*
X53975Y409575D02*
X38100Y393700D01*
X53975Y409575D02*
X114300Y409575D01*
X127000Y396875D01*
X127000Y396240D01*
X254000Y304800D02*
X260350Y298450D01*
X301625Y298450D01*
X302260Y297180D01*
X911225Y22225D02*
X914400Y25400D01*
X911225Y22225D02*
X854075Y22225D01*
X838200Y38100D01*
M02*
