G04 EAGLE Gerber RS-274X export*
G75*
%MOMM*%
%FSLAX34Y34*%
%LPD*%
%INSilkscreen Top*%
%IPPOS*%
%AMOC8*
5,1,8,0,0,1.08239X$1,22.5*%
G01*
%ADD10C,0.203200*%
%ADD11C,0.152400*%
%ADD12C,0.228600*%
%ADD13C,0.609600*%
%ADD14R,0.863600X0.609600*%
%ADD15C,0.050800*%
%ADD16C,0.127000*%
%ADD17R,2.159000X0.508000*%


D10*
X23876Y66050D02*
X39468Y66050D01*
X534416Y66050D02*
X550008Y66050D01*
D11*
X534849Y174512D02*
X524002Y174512D01*
X534849Y174512D02*
X534849Y171800D01*
X524002Y160954D01*
X524002Y158242D01*
X540374Y163665D02*
X540374Y174512D01*
X540374Y163665D02*
X545797Y158242D01*
X551220Y163665D01*
X551220Y174512D01*
D12*
X117983Y133499D02*
X117983Y107823D01*
X135100Y107823D01*
X143710Y107823D02*
X143710Y133499D01*
X156548Y133499D01*
X160827Y129220D01*
X160827Y120661D01*
X156548Y116382D01*
X143710Y116382D01*
X152268Y116382D02*
X160827Y107823D01*
X169437Y112102D02*
X169437Y133499D01*
X169437Y112102D02*
X173716Y107823D01*
X182275Y107823D01*
X186554Y112102D01*
X186554Y133499D01*
X195163Y133499D02*
X195163Y107823D01*
X208001Y107823D01*
X212281Y112102D01*
X212281Y129220D01*
X208001Y133499D01*
X195163Y133499D01*
X220890Y133499D02*
X238007Y133499D01*
X220890Y133499D02*
X220890Y107823D01*
X238007Y107823D01*
X229449Y120661D02*
X220890Y120661D01*
X246617Y107823D02*
X246617Y133499D01*
X259455Y133499D01*
X263734Y129220D01*
X263734Y120661D01*
X259455Y116382D01*
X246617Y116382D01*
X285182Y133499D02*
X289461Y129220D01*
X285182Y133499D02*
X276623Y133499D01*
X272344Y129220D01*
X272344Y112102D01*
X276623Y107823D01*
X285182Y107823D01*
X289461Y112102D01*
X306629Y107823D02*
X306629Y133499D01*
X298070Y133499D02*
X315188Y133499D01*
X323797Y133499D02*
X340915Y133499D01*
X340915Y129220D01*
X323797Y112102D01*
X323797Y107823D01*
X349524Y133499D02*
X366641Y133499D01*
X349524Y133499D02*
X349524Y120661D01*
X358083Y124940D01*
X362362Y124940D01*
X366641Y120661D01*
X366641Y112102D01*
X362362Y107823D01*
X353803Y107823D01*
X349524Y112102D01*
X388089Y133499D02*
X392368Y129220D01*
X388089Y133499D02*
X379530Y133499D01*
X375251Y129220D01*
X375251Y112102D01*
X379530Y107823D01*
X388089Y107823D01*
X392368Y112102D01*
X392368Y120661D01*
X383809Y120661D01*
D11*
X34469Y202452D02*
X23622Y202452D01*
X23622Y194317D01*
X29045Y197029D01*
X31757Y197029D01*
X34469Y194317D01*
X34469Y188894D01*
X31757Y186182D01*
X26334Y186182D01*
X23622Y188894D01*
X39994Y191605D02*
X39994Y202452D01*
X39994Y191605D02*
X45417Y186182D01*
X50840Y191605D01*
X50840Y202452D01*
X498588Y50984D02*
X509435Y50984D01*
X514858Y56407D01*
X509435Y61831D01*
X498588Y61831D01*
X498588Y91862D02*
X501300Y94574D01*
X498588Y91862D02*
X498588Y86439D01*
X501300Y83727D01*
X512146Y83727D01*
X514858Y86439D01*
X514858Y91862D01*
X512146Y94574D01*
X506723Y94574D01*
X506723Y89150D01*
X514858Y116470D02*
X498588Y116470D01*
X498588Y124605D01*
X501300Y127317D01*
X506723Y127317D01*
X509435Y124605D01*
X509435Y116470D01*
X509435Y121894D02*
X514858Y127317D01*
X643382Y118632D02*
X643382Y107785D01*
X648805Y102362D01*
X654229Y107785D01*
X654229Y118632D01*
X667889Y118632D02*
X670600Y115920D01*
X667889Y118632D02*
X662465Y118632D01*
X659754Y115920D01*
X659754Y105074D01*
X662465Y102362D01*
X667889Y102362D01*
X670600Y105074D01*
X684260Y118632D02*
X686972Y115920D01*
X684260Y118632D02*
X678837Y118632D01*
X676125Y115920D01*
X676125Y105074D01*
X678837Y102362D01*
X684260Y102362D01*
X686972Y105074D01*
X654229Y143860D02*
X651517Y146572D01*
X646094Y146572D01*
X643382Y143860D01*
X643382Y133014D01*
X646094Y130302D01*
X651517Y130302D01*
X654229Y133014D01*
X654229Y138437D01*
X648805Y138437D01*
X659754Y130302D02*
X659754Y146572D01*
X670600Y130302D01*
X670600Y146572D01*
X676125Y146572D02*
X676125Y130302D01*
X684260Y130302D01*
X686972Y133014D01*
X686972Y143860D01*
X684260Y146572D01*
X676125Y146572D01*
X546025Y521051D02*
X543060Y524017D01*
X537128Y524017D01*
X534162Y521051D01*
X534162Y509188D01*
X537128Y506222D01*
X543060Y506222D01*
X546025Y509188D01*
X546025Y515120D01*
X540094Y515120D01*
X551937Y524017D02*
X551937Y506222D01*
X563800Y506222D02*
X551937Y524017D01*
X563800Y524017D02*
X563800Y506222D01*
X569712Y506222D02*
X569712Y524017D01*
X569712Y506222D02*
X578609Y506222D01*
X581575Y509188D01*
X581575Y521051D01*
X578609Y524017D01*
X569712Y524017D01*
X633222Y465597D02*
X645085Y465597D01*
X633222Y465597D02*
X633222Y456700D01*
X639154Y459665D01*
X642120Y459665D01*
X645085Y456700D01*
X645085Y450768D01*
X642120Y447802D01*
X636188Y447802D01*
X633222Y450768D01*
X650997Y453734D02*
X650997Y465597D01*
X650997Y453734D02*
X656929Y447802D01*
X662860Y453734D01*
X662860Y465597D01*
X221742Y440197D02*
X221742Y422402D01*
X221742Y440197D02*
X230640Y440197D01*
X233605Y437231D01*
X233605Y431300D01*
X230640Y428334D01*
X221742Y428334D01*
X239517Y422402D02*
X239517Y434265D01*
X239517Y428334D02*
X245449Y434265D01*
X248414Y434265D01*
X257295Y422402D02*
X263227Y422402D01*
X266193Y425368D01*
X266193Y431300D01*
X263227Y434265D01*
X257295Y434265D01*
X254329Y431300D01*
X254329Y425368D01*
X257295Y422402D01*
X278036Y416470D02*
X281002Y416470D01*
X283968Y419436D01*
X283968Y434265D01*
X275070Y434265D01*
X272104Y431300D01*
X272104Y425368D01*
X275070Y422402D01*
X283968Y422402D01*
X318247Y264958D02*
X336042Y264958D01*
X318247Y264958D02*
X318247Y273856D01*
X321213Y276821D01*
X327144Y276821D01*
X330110Y273856D01*
X330110Y264958D01*
X330110Y270890D02*
X336042Y276821D01*
X336042Y288664D02*
X318247Y288664D01*
X318247Y282733D02*
X318247Y294596D01*
X324179Y300508D02*
X336042Y312371D01*
X336042Y300508D02*
X324179Y312371D01*
X318247Y327180D02*
X321213Y330146D01*
X318247Y327180D02*
X318247Y321248D01*
X321213Y318282D01*
X333076Y318282D01*
X336042Y321248D01*
X336042Y327180D01*
X333076Y330146D01*
X327144Y330146D01*
X327144Y324214D01*
X324179Y336057D02*
X336042Y336057D01*
X324179Y336057D02*
X324179Y344955D01*
X327144Y347921D01*
X336042Y347921D01*
X318247Y353832D02*
X318247Y365696D01*
X318247Y353832D02*
X327144Y353832D01*
X324179Y359764D01*
X324179Y362730D01*
X327144Y365696D01*
X333076Y365696D01*
X336042Y362730D01*
X336042Y356798D01*
X333076Y353832D01*
X330110Y371607D02*
X318247Y371607D01*
X330110Y371607D02*
X336042Y377539D01*
X330110Y383470D01*
X318247Y383470D01*
X831342Y87637D02*
X842189Y87637D01*
X836765Y93060D02*
X836765Y82214D01*
X877062Y95257D02*
X887909Y95257D01*
X554482Y793242D02*
X554482Y811037D01*
X560414Y799174D02*
X554482Y793242D01*
X560414Y799174D02*
X566345Y793242D01*
X566345Y811037D01*
X575223Y793242D02*
X581154Y793242D01*
X575223Y793242D02*
X572257Y796208D01*
X572257Y802140D01*
X575223Y805105D01*
X581154Y805105D01*
X584120Y802140D01*
X584120Y799174D01*
X572257Y799174D01*
X590032Y793242D02*
X590032Y805105D01*
X592998Y805105D01*
X595963Y802140D01*
X595963Y793242D01*
X595963Y802140D02*
X598929Y805105D01*
X601895Y802140D01*
X601895Y793242D01*
X610772Y793242D02*
X616704Y793242D01*
X619670Y796208D01*
X619670Y802140D01*
X616704Y805105D01*
X610772Y805105D01*
X607807Y802140D01*
X607807Y796208D01*
X610772Y793242D01*
X625581Y793242D02*
X634479Y793242D01*
X637445Y796208D01*
X634479Y799174D01*
X628547Y799174D01*
X625581Y802140D01*
X628547Y805105D01*
X637445Y805105D01*
X179414Y346217D02*
X173482Y340285D01*
X179414Y346217D02*
X179414Y328422D01*
X185345Y328422D02*
X173482Y328422D01*
X191257Y328422D02*
X191257Y346217D01*
X191257Y334354D02*
X203120Y346217D01*
X194223Y337320D02*
X203120Y328422D01*
X160782Y375845D02*
X166714Y381777D01*
X166714Y363982D01*
X172645Y363982D02*
X160782Y363982D01*
X178557Y366948D02*
X178557Y378811D01*
X181523Y381777D01*
X187454Y381777D01*
X190420Y378811D01*
X190420Y366948D01*
X187454Y363982D01*
X181523Y363982D01*
X178557Y366948D01*
X190420Y378811D01*
X214107Y381777D02*
X214107Y363982D01*
X214107Y369914D02*
X225970Y381777D01*
X217072Y372880D02*
X225970Y363982D01*
D10*
X285750Y170180D02*
X298450Y170180D01*
X285750Y170180D02*
X279400Y176530D01*
X279400Y189230D02*
X285750Y195580D01*
X323850Y170180D02*
X330200Y176530D01*
X323850Y170180D02*
X311150Y170180D01*
X304800Y176530D01*
X304800Y189230D02*
X311150Y195580D01*
X323850Y195580D01*
X330200Y189230D01*
X304800Y176530D02*
X298450Y170180D01*
X304800Y189230D02*
X298450Y195580D01*
X285750Y195580D01*
X361950Y170180D02*
X374650Y170180D01*
X361950Y170180D02*
X355600Y176530D01*
X355600Y189230D02*
X361950Y195580D01*
X355600Y176530D02*
X349250Y170180D01*
X336550Y170180D01*
X330200Y176530D01*
X330200Y189230D02*
X336550Y195580D01*
X349250Y195580D01*
X355600Y189230D01*
X400050Y170180D02*
X406400Y176530D01*
X400050Y170180D02*
X387350Y170180D01*
X381000Y176530D01*
X381000Y189230D02*
X387350Y195580D01*
X400050Y195580D01*
X406400Y189230D01*
X381000Y176530D02*
X374650Y170180D01*
X381000Y189230D02*
X374650Y195580D01*
X361950Y195580D01*
X438150Y170180D02*
X450850Y170180D01*
X438150Y170180D02*
X431800Y176530D01*
X431800Y189230D02*
X438150Y195580D01*
X431800Y176530D02*
X425450Y170180D01*
X412750Y170180D01*
X406400Y176530D01*
X406400Y189230D02*
X412750Y195580D01*
X425450Y195580D01*
X431800Y189230D01*
X457200Y189230D02*
X457200Y176530D01*
X450850Y170180D01*
X457200Y189230D02*
X450850Y195580D01*
X438150Y195580D01*
X120650Y170180D02*
X107950Y170180D01*
X101600Y176530D01*
X101600Y189230D02*
X107950Y195580D01*
X146050Y170180D02*
X152400Y176530D01*
X146050Y170180D02*
X133350Y170180D01*
X127000Y176530D01*
X127000Y189230D02*
X133350Y195580D01*
X146050Y195580D01*
X152400Y189230D01*
X127000Y176530D02*
X120650Y170180D01*
X127000Y189230D02*
X120650Y195580D01*
X107950Y195580D01*
X184150Y170180D02*
X196850Y170180D01*
X184150Y170180D02*
X177800Y176530D01*
X177800Y189230D02*
X184150Y195580D01*
X177800Y176530D02*
X171450Y170180D01*
X158750Y170180D01*
X152400Y176530D01*
X152400Y189230D02*
X158750Y195580D01*
X171450Y195580D01*
X177800Y189230D01*
X222250Y170180D02*
X228600Y176530D01*
X222250Y170180D02*
X209550Y170180D01*
X203200Y176530D01*
X203200Y189230D02*
X209550Y195580D01*
X222250Y195580D01*
X228600Y189230D01*
X203200Y176530D02*
X196850Y170180D01*
X203200Y189230D02*
X196850Y195580D01*
X184150Y195580D01*
X260350Y170180D02*
X273050Y170180D01*
X260350Y170180D02*
X254000Y176530D01*
X254000Y189230D02*
X260350Y195580D01*
X254000Y176530D02*
X247650Y170180D01*
X234950Y170180D01*
X228600Y176530D01*
X228600Y189230D02*
X234950Y195580D01*
X247650Y195580D01*
X254000Y189230D01*
X273050Y170180D02*
X279400Y176530D01*
X279400Y189230D02*
X273050Y195580D01*
X260350Y195580D01*
X101600Y176530D02*
X95250Y170180D01*
X82550Y170180D01*
X76200Y176530D01*
X76200Y189230D01*
X82550Y195580D01*
X95250Y195580D01*
X101600Y189230D01*
X234950Y43180D02*
X247650Y43180D01*
X254000Y36830D01*
X254000Y24130D02*
X247650Y17780D01*
X209550Y43180D02*
X203200Y36830D01*
X209550Y43180D02*
X222250Y43180D01*
X228600Y36830D01*
X228600Y24130D02*
X222250Y17780D01*
X209550Y17780D01*
X203200Y24130D01*
X228600Y36830D02*
X234950Y43180D01*
X228600Y24130D02*
X234950Y17780D01*
X247650Y17780D01*
X171450Y43180D02*
X158750Y43180D01*
X171450Y43180D02*
X177800Y36830D01*
X177800Y24130D02*
X171450Y17780D01*
X177800Y36830D02*
X184150Y43180D01*
X196850Y43180D01*
X203200Y36830D01*
X203200Y24130D02*
X196850Y17780D01*
X184150Y17780D01*
X177800Y24130D01*
X133350Y43180D02*
X127000Y36830D01*
X133350Y43180D02*
X146050Y43180D01*
X152400Y36830D01*
X152400Y24130D02*
X146050Y17780D01*
X133350Y17780D01*
X127000Y24130D01*
X152400Y36830D02*
X158750Y43180D01*
X152400Y24130D02*
X158750Y17780D01*
X171450Y17780D01*
X95250Y43180D02*
X82550Y43180D01*
X95250Y43180D02*
X101600Y36830D01*
X101600Y24130D02*
X95250Y17780D01*
X101600Y36830D02*
X107950Y43180D01*
X120650Y43180D01*
X127000Y36830D01*
X127000Y24130D02*
X120650Y17780D01*
X107950Y17780D01*
X101600Y24130D01*
X76200Y24130D02*
X76200Y36830D01*
X82550Y43180D01*
X76200Y24130D02*
X82550Y17780D01*
X95250Y17780D01*
X412750Y43180D02*
X425450Y43180D01*
X431800Y36830D01*
X431800Y24130D02*
X425450Y17780D01*
X387350Y43180D02*
X381000Y36830D01*
X387350Y43180D02*
X400050Y43180D01*
X406400Y36830D01*
X406400Y24130D02*
X400050Y17780D01*
X387350Y17780D01*
X381000Y24130D01*
X406400Y36830D02*
X412750Y43180D01*
X406400Y24130D02*
X412750Y17780D01*
X425450Y17780D01*
X349250Y43180D02*
X336550Y43180D01*
X349250Y43180D02*
X355600Y36830D01*
X355600Y24130D02*
X349250Y17780D01*
X355600Y36830D02*
X361950Y43180D01*
X374650Y43180D01*
X381000Y36830D01*
X381000Y24130D02*
X374650Y17780D01*
X361950Y17780D01*
X355600Y24130D01*
X311150Y43180D02*
X304800Y36830D01*
X311150Y43180D02*
X323850Y43180D01*
X330200Y36830D01*
X330200Y24130D02*
X323850Y17780D01*
X311150Y17780D01*
X304800Y24130D01*
X330200Y36830D02*
X336550Y43180D01*
X330200Y24130D02*
X336550Y17780D01*
X349250Y17780D01*
X273050Y43180D02*
X260350Y43180D01*
X273050Y43180D02*
X279400Y36830D01*
X279400Y24130D02*
X273050Y17780D01*
X279400Y36830D02*
X285750Y43180D01*
X298450Y43180D01*
X304800Y36830D01*
X304800Y24130D02*
X298450Y17780D01*
X285750Y17780D01*
X279400Y24130D01*
X260350Y43180D02*
X254000Y36830D01*
X254000Y24130D02*
X260350Y17780D01*
X273050Y17780D01*
X431800Y36830D02*
X438150Y43180D01*
X450850Y43180D01*
X457200Y36830D01*
X457200Y24130D01*
X450850Y17780D01*
X438150Y17780D01*
X431800Y24130D01*
X50800Y133350D02*
X50800Y146050D01*
X57150Y152400D01*
X69850Y152400D02*
X76200Y146050D01*
X50800Y107950D02*
X57150Y101600D01*
X50800Y107950D02*
X50800Y120650D01*
X57150Y127000D01*
X69850Y127000D02*
X76200Y120650D01*
X76200Y107950D01*
X69850Y101600D01*
X57150Y127000D02*
X50800Y133350D01*
X69850Y127000D02*
X76200Y133350D01*
X76200Y146050D01*
X50800Y69850D02*
X50800Y57150D01*
X50800Y69850D02*
X57150Y76200D01*
X69850Y76200D02*
X76200Y69850D01*
X57150Y76200D02*
X50800Y82550D01*
X50800Y95250D01*
X57150Y101600D01*
X69850Y101600D02*
X76200Y95250D01*
X76200Y82550D01*
X69850Y76200D01*
X69850Y50800D02*
X57150Y50800D01*
X50800Y57150D01*
X69850Y50800D02*
X76200Y57150D01*
X76200Y69850D01*
X69850Y152400D02*
X57150Y152400D01*
X492760Y80010D02*
X492760Y67310D01*
X486410Y60960D01*
X473710Y60960D02*
X467360Y67310D01*
X492760Y105410D02*
X486410Y111760D01*
X492760Y105410D02*
X492760Y92710D01*
X486410Y86360D01*
X473710Y86360D02*
X467360Y92710D01*
X467360Y105410D01*
X473710Y111760D01*
X486410Y86360D02*
X492760Y80010D01*
X473710Y86360D02*
X467360Y80010D01*
X467360Y67310D01*
X492760Y143510D02*
X492760Y156210D01*
X492760Y143510D02*
X486410Y137160D01*
X473710Y137160D02*
X467360Y143510D01*
X486410Y137160D02*
X492760Y130810D01*
X492760Y118110D01*
X486410Y111760D01*
X473710Y111760D02*
X467360Y118110D01*
X467360Y130810D01*
X473710Y137160D01*
X473710Y162560D02*
X486410Y162560D01*
X492760Y156210D01*
X473710Y162560D02*
X467360Y156210D01*
X467360Y143510D01*
X473710Y60960D02*
X486410Y60960D01*
X548640Y142748D02*
X542290Y149098D01*
X529590Y149098D01*
X523240Y142748D01*
X523240Y130048D01*
X529590Y123698D01*
X542290Y123698D01*
X548640Y130048D01*
X548640Y142748D01*
X542290Y96520D02*
X548640Y90170D01*
X542290Y96520D02*
X529590Y96520D01*
X523240Y90170D01*
X523240Y77470D01*
X529590Y71120D01*
X542290Y71120D01*
X548640Y77470D01*
X548640Y90170D01*
X33020Y147828D02*
X26670Y154178D01*
X13970Y154178D01*
X7620Y147828D01*
X7620Y135128D01*
X13970Y128778D01*
X26670Y128778D01*
X33020Y135128D01*
X33020Y147828D01*
X26670Y101600D02*
X33020Y95250D01*
X26670Y101600D02*
X13970Y101600D01*
X7620Y95250D01*
X7620Y82550D01*
X13970Y76200D01*
X26670Y76200D01*
X33020Y82550D01*
X33020Y95250D01*
X768350Y38100D02*
X781050Y38100D01*
X787400Y31750D01*
X787400Y19050D02*
X781050Y12700D01*
X742950Y38100D02*
X736600Y31750D01*
X742950Y38100D02*
X755650Y38100D01*
X762000Y31750D01*
X762000Y19050D02*
X755650Y12700D01*
X742950Y12700D01*
X736600Y19050D01*
X762000Y31750D02*
X768350Y38100D01*
X762000Y19050D02*
X768350Y12700D01*
X781050Y12700D01*
X704850Y38100D02*
X692150Y38100D01*
X704850Y38100D02*
X711200Y31750D01*
X711200Y19050D02*
X704850Y12700D01*
X711200Y31750D02*
X717550Y38100D01*
X730250Y38100D01*
X736600Y31750D01*
X736600Y19050D02*
X730250Y12700D01*
X717550Y12700D01*
X711200Y19050D01*
X666750Y38100D02*
X660400Y31750D01*
X666750Y38100D02*
X679450Y38100D01*
X685800Y31750D01*
X685800Y19050D02*
X679450Y12700D01*
X666750Y12700D01*
X660400Y19050D01*
X685800Y31750D02*
X692150Y38100D01*
X685800Y19050D02*
X692150Y12700D01*
X704850Y12700D01*
X628650Y38100D02*
X615950Y38100D01*
X628650Y38100D02*
X635000Y31750D01*
X635000Y19050D02*
X628650Y12700D01*
X635000Y31750D02*
X641350Y38100D01*
X654050Y38100D01*
X660400Y31750D01*
X660400Y19050D02*
X654050Y12700D01*
X641350Y12700D01*
X635000Y19050D01*
X609600Y19050D02*
X609600Y31750D01*
X615950Y38100D01*
X609600Y19050D02*
X615950Y12700D01*
X628650Y12700D01*
X793750Y38100D02*
X806450Y38100D01*
X812800Y31750D01*
X812800Y19050D01*
X806450Y12700D01*
X787400Y31750D02*
X793750Y38100D01*
X787400Y19050D02*
X793750Y12700D01*
X806450Y12700D01*
X654050Y241300D02*
X641350Y241300D01*
X635000Y247650D01*
X635000Y260350D02*
X641350Y266700D01*
X679450Y241300D02*
X685800Y247650D01*
X679450Y241300D02*
X666750Y241300D01*
X660400Y247650D01*
X660400Y260350D02*
X666750Y266700D01*
X679450Y266700D01*
X685800Y260350D01*
X660400Y247650D02*
X654050Y241300D01*
X660400Y260350D02*
X654050Y266700D01*
X641350Y266700D01*
X717550Y241300D02*
X730250Y241300D01*
X717550Y241300D02*
X711200Y247650D01*
X711200Y260350D02*
X717550Y266700D01*
X711200Y247650D02*
X704850Y241300D01*
X692150Y241300D01*
X685800Y247650D01*
X685800Y260350D02*
X692150Y266700D01*
X704850Y266700D01*
X711200Y260350D01*
X755650Y241300D02*
X762000Y247650D01*
X755650Y241300D02*
X742950Y241300D01*
X736600Y247650D01*
X736600Y260350D02*
X742950Y266700D01*
X755650Y266700D01*
X762000Y260350D01*
X736600Y247650D02*
X730250Y241300D01*
X736600Y260350D02*
X730250Y266700D01*
X717550Y266700D01*
X793750Y241300D02*
X806450Y241300D01*
X793750Y241300D02*
X787400Y247650D01*
X787400Y260350D02*
X793750Y266700D01*
X787400Y247650D02*
X781050Y241300D01*
X768350Y241300D01*
X762000Y247650D01*
X762000Y260350D02*
X768350Y266700D01*
X781050Y266700D01*
X787400Y260350D01*
X812800Y260350D02*
X812800Y247650D01*
X806450Y241300D01*
X812800Y260350D02*
X806450Y266700D01*
X793750Y266700D01*
X628650Y241300D02*
X615950Y241300D01*
X609600Y247650D01*
X609600Y260350D01*
X615950Y266700D01*
X635000Y247650D02*
X628650Y241300D01*
X635000Y260350D02*
X628650Y266700D01*
X615950Y266700D01*
X591820Y196850D02*
X591820Y184150D01*
X591820Y196850D02*
X598170Y203200D01*
X610870Y203200D02*
X617220Y196850D01*
X591820Y158750D02*
X598170Y152400D01*
X591820Y158750D02*
X591820Y171450D01*
X598170Y177800D01*
X610870Y177800D02*
X617220Y171450D01*
X617220Y158750D01*
X610870Y152400D01*
X598170Y177800D02*
X591820Y184150D01*
X610870Y177800D02*
X617220Y184150D01*
X617220Y196850D01*
X591820Y120650D02*
X591820Y107950D01*
X591820Y120650D02*
X598170Y127000D01*
X610870Y127000D02*
X617220Y120650D01*
X598170Y127000D02*
X591820Y133350D01*
X591820Y146050D01*
X598170Y152400D01*
X610870Y152400D02*
X617220Y146050D01*
X617220Y133350D01*
X610870Y127000D01*
X610870Y101600D02*
X598170Y101600D01*
X591820Y107950D01*
X610870Y101600D02*
X617220Y107950D01*
X617220Y120650D01*
X610870Y203200D02*
X598170Y203200D01*
X838200Y209550D02*
X838200Y222250D01*
X844550Y228600D01*
X857250Y228600D02*
X863600Y222250D01*
X838200Y184150D02*
X844550Y177800D01*
X838200Y184150D02*
X838200Y196850D01*
X844550Y203200D01*
X857250Y203200D02*
X863600Y196850D01*
X863600Y184150D01*
X857250Y177800D01*
X844550Y203200D02*
X838200Y209550D01*
X857250Y203200D02*
X863600Y209550D01*
X863600Y222250D01*
X838200Y146050D02*
X838200Y133350D01*
X838200Y146050D02*
X844550Y152400D01*
X857250Y152400D02*
X863600Y146050D01*
X844550Y152400D02*
X838200Y158750D01*
X838200Y171450D01*
X844550Y177800D01*
X857250Y177800D02*
X863600Y171450D01*
X863600Y158750D01*
X857250Y152400D01*
X857250Y127000D02*
X844550Y127000D01*
X838200Y133350D01*
X857250Y127000D02*
X863600Y133350D01*
X863600Y146050D01*
X857250Y228600D02*
X844550Y228600D01*
D11*
X768350Y181610D02*
X768348Y181510D01*
X768342Y181411D01*
X768332Y181311D01*
X768319Y181213D01*
X768301Y181114D01*
X768280Y181017D01*
X768255Y180921D01*
X768226Y180825D01*
X768193Y180731D01*
X768157Y180638D01*
X768117Y180547D01*
X768073Y180457D01*
X768026Y180369D01*
X767976Y180283D01*
X767922Y180199D01*
X767865Y180117D01*
X767805Y180038D01*
X767741Y179960D01*
X767675Y179886D01*
X767606Y179814D01*
X767534Y179745D01*
X767460Y179679D01*
X767382Y179615D01*
X767303Y179555D01*
X767221Y179498D01*
X767137Y179444D01*
X767051Y179394D01*
X766963Y179347D01*
X766873Y179303D01*
X766782Y179263D01*
X766689Y179227D01*
X766595Y179194D01*
X766499Y179165D01*
X766403Y179140D01*
X766306Y179119D01*
X766207Y179101D01*
X766109Y179088D01*
X766009Y179078D01*
X765910Y179072D01*
X765810Y179070D01*
X768350Y199390D02*
X768348Y199490D01*
X768342Y199589D01*
X768332Y199689D01*
X768319Y199787D01*
X768301Y199886D01*
X768280Y199983D01*
X768255Y200079D01*
X768226Y200175D01*
X768193Y200269D01*
X768157Y200362D01*
X768117Y200453D01*
X768073Y200543D01*
X768026Y200631D01*
X767976Y200717D01*
X767922Y200801D01*
X767865Y200883D01*
X767805Y200962D01*
X767741Y201040D01*
X767675Y201114D01*
X767606Y201186D01*
X767534Y201255D01*
X767460Y201321D01*
X767382Y201385D01*
X767303Y201445D01*
X767221Y201502D01*
X767137Y201556D01*
X767051Y201606D01*
X766963Y201653D01*
X766873Y201697D01*
X766782Y201737D01*
X766689Y201773D01*
X766595Y201806D01*
X766499Y201835D01*
X766403Y201860D01*
X766306Y201881D01*
X766207Y201899D01*
X766109Y201912D01*
X766009Y201922D01*
X765910Y201928D01*
X765810Y201930D01*
X707390Y201930D02*
X707290Y201928D01*
X707191Y201922D01*
X707091Y201912D01*
X706993Y201899D01*
X706894Y201881D01*
X706797Y201860D01*
X706701Y201835D01*
X706605Y201806D01*
X706511Y201773D01*
X706418Y201737D01*
X706327Y201697D01*
X706237Y201653D01*
X706149Y201606D01*
X706063Y201556D01*
X705979Y201502D01*
X705897Y201445D01*
X705818Y201385D01*
X705740Y201321D01*
X705666Y201255D01*
X705594Y201186D01*
X705525Y201114D01*
X705459Y201040D01*
X705395Y200962D01*
X705335Y200883D01*
X705278Y200801D01*
X705224Y200717D01*
X705174Y200631D01*
X705127Y200543D01*
X705083Y200453D01*
X705043Y200362D01*
X705007Y200269D01*
X704974Y200175D01*
X704945Y200079D01*
X704920Y199983D01*
X704899Y199886D01*
X704881Y199787D01*
X704868Y199689D01*
X704858Y199589D01*
X704852Y199490D01*
X704850Y199390D01*
X704850Y181610D02*
X704852Y181510D01*
X704858Y181411D01*
X704868Y181311D01*
X704881Y181213D01*
X704899Y181114D01*
X704920Y181017D01*
X704945Y180921D01*
X704974Y180825D01*
X705007Y180731D01*
X705043Y180638D01*
X705083Y180547D01*
X705127Y180457D01*
X705174Y180369D01*
X705224Y180283D01*
X705278Y180199D01*
X705335Y180117D01*
X705395Y180038D01*
X705459Y179960D01*
X705525Y179886D01*
X705594Y179814D01*
X705666Y179745D01*
X705740Y179679D01*
X705818Y179615D01*
X705897Y179555D01*
X705979Y179498D01*
X706063Y179444D01*
X706149Y179394D01*
X706237Y179347D01*
X706327Y179303D01*
X706418Y179263D01*
X706511Y179227D01*
X706605Y179194D01*
X706701Y179165D01*
X706797Y179140D01*
X706894Y179119D01*
X706993Y179101D01*
X707091Y179088D01*
X707191Y179078D01*
X707290Y179072D01*
X707390Y179070D01*
X768350Y181610D02*
X768350Y199390D01*
X765810Y179070D02*
X762000Y179070D01*
X760730Y180340D01*
X762000Y201930D02*
X765810Y201930D01*
X762000Y201930D02*
X760730Y200660D01*
X712470Y180340D02*
X711200Y179070D01*
X712470Y180340D02*
X760730Y180340D01*
X712470Y200660D02*
X711200Y201930D01*
X712470Y200660D02*
X760730Y200660D01*
X711200Y179070D02*
X707390Y179070D01*
X707390Y201930D02*
X711200Y201930D01*
X704850Y199390D02*
X704850Y181610D01*
D13*
X695960Y190500D02*
X692150Y190500D01*
X777240Y190500D02*
X781050Y190500D01*
D14*
X700532Y190500D03*
X772668Y190500D03*
X687832Y190500D03*
X785368Y190500D03*
D10*
X590550Y431800D02*
X577850Y431800D01*
X590550Y431800D02*
X596900Y425450D01*
X596900Y412750D02*
X590550Y406400D01*
X552450Y431800D02*
X546100Y425450D01*
X552450Y431800D02*
X565150Y431800D01*
X571500Y425450D01*
X571500Y412750D02*
X565150Y406400D01*
X552450Y406400D01*
X546100Y412750D01*
X571500Y425450D02*
X577850Y431800D01*
X571500Y412750D02*
X577850Y406400D01*
X590550Y406400D01*
X514350Y431800D02*
X501650Y431800D01*
X514350Y431800D02*
X520700Y425450D01*
X520700Y412750D02*
X514350Y406400D01*
X520700Y425450D02*
X527050Y431800D01*
X539750Y431800D01*
X546100Y425450D01*
X546100Y412750D02*
X539750Y406400D01*
X527050Y406400D01*
X520700Y412750D01*
X476250Y431800D02*
X469900Y425450D01*
X476250Y431800D02*
X488950Y431800D01*
X495300Y425450D01*
X495300Y412750D02*
X488950Y406400D01*
X476250Y406400D01*
X469900Y412750D01*
X495300Y425450D02*
X501650Y431800D01*
X495300Y412750D02*
X501650Y406400D01*
X514350Y406400D01*
X438150Y431800D02*
X425450Y431800D01*
X438150Y431800D02*
X444500Y425450D01*
X444500Y412750D02*
X438150Y406400D01*
X444500Y425450D02*
X450850Y431800D01*
X463550Y431800D01*
X469900Y425450D01*
X469900Y412750D02*
X463550Y406400D01*
X450850Y406400D01*
X444500Y412750D01*
X419100Y412750D02*
X419100Y425450D01*
X425450Y431800D01*
X419100Y412750D02*
X425450Y406400D01*
X438150Y406400D01*
X755650Y431800D02*
X768350Y431800D01*
X774700Y425450D01*
X774700Y412750D02*
X768350Y406400D01*
X730250Y431800D02*
X723900Y425450D01*
X730250Y431800D02*
X742950Y431800D01*
X749300Y425450D01*
X749300Y412750D02*
X742950Y406400D01*
X730250Y406400D01*
X723900Y412750D01*
X749300Y425450D02*
X755650Y431800D01*
X749300Y412750D02*
X755650Y406400D01*
X768350Y406400D01*
X692150Y431800D02*
X679450Y431800D01*
X692150Y431800D02*
X698500Y425450D01*
X698500Y412750D02*
X692150Y406400D01*
X698500Y425450D02*
X704850Y431800D01*
X717550Y431800D01*
X723900Y425450D01*
X723900Y412750D02*
X717550Y406400D01*
X704850Y406400D01*
X698500Y412750D01*
X654050Y431800D02*
X647700Y425450D01*
X654050Y431800D02*
X666750Y431800D01*
X673100Y425450D01*
X673100Y412750D02*
X666750Y406400D01*
X654050Y406400D01*
X647700Y412750D01*
X673100Y425450D02*
X679450Y431800D01*
X673100Y412750D02*
X679450Y406400D01*
X692150Y406400D01*
X615950Y431800D02*
X603250Y431800D01*
X615950Y431800D02*
X622300Y425450D01*
X622300Y412750D02*
X615950Y406400D01*
X622300Y425450D02*
X628650Y431800D01*
X641350Y431800D01*
X647700Y425450D01*
X647700Y412750D02*
X641350Y406400D01*
X628650Y406400D01*
X622300Y412750D01*
X603250Y431800D02*
X596900Y425450D01*
X596900Y412750D02*
X603250Y406400D01*
X615950Y406400D01*
X774700Y425450D02*
X781050Y431800D01*
X793750Y431800D01*
X800100Y425450D01*
X800100Y412750D01*
X793750Y406400D01*
X781050Y406400D01*
X774700Y412750D01*
X641350Y558800D02*
X628650Y558800D01*
X622300Y565150D01*
X622300Y577850D02*
X628650Y584200D01*
X666750Y558800D02*
X673100Y565150D01*
X666750Y558800D02*
X654050Y558800D01*
X647700Y565150D01*
X647700Y577850D02*
X654050Y584200D01*
X666750Y584200D01*
X673100Y577850D01*
X647700Y565150D02*
X641350Y558800D01*
X647700Y577850D02*
X641350Y584200D01*
X628650Y584200D01*
X704850Y558800D02*
X717550Y558800D01*
X704850Y558800D02*
X698500Y565150D01*
X698500Y577850D02*
X704850Y584200D01*
X698500Y565150D02*
X692150Y558800D01*
X679450Y558800D01*
X673100Y565150D01*
X673100Y577850D02*
X679450Y584200D01*
X692150Y584200D01*
X698500Y577850D01*
X742950Y558800D02*
X749300Y565150D01*
X742950Y558800D02*
X730250Y558800D01*
X723900Y565150D01*
X723900Y577850D02*
X730250Y584200D01*
X742950Y584200D01*
X749300Y577850D01*
X723900Y565150D02*
X717550Y558800D01*
X723900Y577850D02*
X717550Y584200D01*
X704850Y584200D01*
X781050Y558800D02*
X793750Y558800D01*
X781050Y558800D02*
X774700Y565150D01*
X774700Y577850D02*
X781050Y584200D01*
X774700Y565150D02*
X768350Y558800D01*
X755650Y558800D01*
X749300Y565150D01*
X749300Y577850D02*
X755650Y584200D01*
X768350Y584200D01*
X774700Y577850D01*
X800100Y577850D02*
X800100Y565150D01*
X793750Y558800D01*
X800100Y577850D02*
X793750Y584200D01*
X781050Y584200D01*
X463550Y558800D02*
X450850Y558800D01*
X444500Y565150D01*
X444500Y577850D02*
X450850Y584200D01*
X488950Y558800D02*
X495300Y565150D01*
X488950Y558800D02*
X476250Y558800D01*
X469900Y565150D01*
X469900Y577850D02*
X476250Y584200D01*
X488950Y584200D01*
X495300Y577850D01*
X469900Y565150D02*
X463550Y558800D01*
X469900Y577850D02*
X463550Y584200D01*
X450850Y584200D01*
X527050Y558800D02*
X539750Y558800D01*
X527050Y558800D02*
X520700Y565150D01*
X520700Y577850D02*
X527050Y584200D01*
X520700Y565150D02*
X514350Y558800D01*
X501650Y558800D01*
X495300Y565150D01*
X495300Y577850D02*
X501650Y584200D01*
X514350Y584200D01*
X520700Y577850D01*
X565150Y558800D02*
X571500Y565150D01*
X565150Y558800D02*
X552450Y558800D01*
X546100Y565150D01*
X546100Y577850D02*
X552450Y584200D01*
X565150Y584200D01*
X571500Y577850D01*
X546100Y565150D02*
X539750Y558800D01*
X546100Y577850D02*
X539750Y584200D01*
X527050Y584200D01*
X603250Y558800D02*
X615950Y558800D01*
X603250Y558800D02*
X596900Y565150D01*
X596900Y577850D02*
X603250Y584200D01*
X596900Y565150D02*
X590550Y558800D01*
X577850Y558800D01*
X571500Y565150D01*
X571500Y577850D02*
X577850Y584200D01*
X590550Y584200D01*
X596900Y577850D01*
X615950Y558800D02*
X622300Y565150D01*
X622300Y577850D02*
X615950Y584200D01*
X603250Y584200D01*
X444500Y565150D02*
X438150Y558800D01*
X425450Y558800D01*
X419100Y565150D01*
X419100Y577850D01*
X425450Y584200D01*
X438150Y584200D01*
X444500Y577850D01*
X527050Y368300D02*
X539750Y368300D01*
X546100Y361950D01*
X546100Y349250D02*
X539750Y342900D01*
X546100Y361950D02*
X552450Y368300D01*
X565150Y368300D01*
X571500Y361950D01*
X571500Y349250D02*
X565150Y342900D01*
X552450Y342900D01*
X546100Y349250D01*
X501650Y368300D02*
X495300Y361950D01*
X501650Y368300D02*
X514350Y368300D01*
X520700Y361950D01*
X520700Y349250D02*
X514350Y342900D01*
X501650Y342900D01*
X495300Y349250D01*
X520700Y361950D02*
X527050Y368300D01*
X520700Y349250D02*
X527050Y342900D01*
X539750Y342900D01*
X463550Y368300D02*
X450850Y368300D01*
X463550Y368300D02*
X469900Y361950D01*
X469900Y349250D02*
X463550Y342900D01*
X469900Y361950D02*
X476250Y368300D01*
X488950Y368300D01*
X495300Y361950D01*
X495300Y349250D02*
X488950Y342900D01*
X476250Y342900D01*
X469900Y349250D01*
X444500Y349250D02*
X444500Y361950D01*
X450850Y368300D01*
X444500Y349250D02*
X450850Y342900D01*
X463550Y342900D01*
X571500Y349250D02*
X571500Y361950D01*
X730250Y368300D02*
X742950Y368300D01*
X749300Y361950D01*
X749300Y349250D02*
X742950Y342900D01*
X749300Y361950D02*
X755650Y368300D01*
X768350Y368300D01*
X774700Y361950D01*
X774700Y349250D02*
X768350Y342900D01*
X755650Y342900D01*
X749300Y349250D01*
X704850Y368300D02*
X698500Y361950D01*
X704850Y368300D02*
X717550Y368300D01*
X723900Y361950D01*
X723900Y349250D02*
X717550Y342900D01*
X704850Y342900D01*
X698500Y349250D01*
X723900Y361950D02*
X730250Y368300D01*
X723900Y349250D02*
X730250Y342900D01*
X742950Y342900D01*
X666750Y368300D02*
X654050Y368300D01*
X666750Y368300D02*
X673100Y361950D01*
X673100Y349250D02*
X666750Y342900D01*
X673100Y361950D02*
X679450Y368300D01*
X692150Y368300D01*
X698500Y361950D01*
X698500Y349250D02*
X692150Y342900D01*
X679450Y342900D01*
X673100Y349250D01*
X647700Y349250D02*
X647700Y361950D01*
X654050Y368300D01*
X647700Y349250D02*
X654050Y342900D01*
X666750Y342900D01*
X774700Y349250D02*
X774700Y361950D01*
D11*
X339090Y529590D02*
X300990Y529590D01*
X300990Y567690D01*
X339090Y567690D01*
X339090Y529590D01*
D15*
X336550Y532130D02*
X303530Y532130D01*
X303530Y565150D01*
X336550Y565150D01*
X336550Y532130D01*
D11*
X330200Y487680D02*
X330200Y483870D01*
X330200Y487680D02*
X309880Y487680D01*
X309880Y483870D02*
X330200Y483870D01*
X309880Y483870D02*
X309880Y487680D01*
X269240Y487680D02*
X259080Y497840D01*
X269240Y487680D02*
X302260Y487680D01*
X259080Y497840D02*
X259080Y510540D01*
X259080Y537210D02*
X259080Y560070D01*
X259080Y599440D02*
X269240Y609600D01*
X259080Y599440D02*
X259080Y586740D01*
X381000Y560070D02*
X381000Y537210D01*
X381000Y586740D02*
X381000Y599440D01*
X370840Y609600D01*
X337820Y609600D01*
X337820Y487680D02*
X370840Y487680D01*
X381000Y497840D01*
X381000Y510540D01*
X330200Y613410D02*
X309880Y613410D01*
X330200Y613410D02*
X330200Y609600D01*
X309880Y609600D02*
X309880Y613410D01*
X269240Y487680D02*
X271780Y485140D01*
X302260Y485140D01*
X302260Y487680D01*
X309880Y487680D01*
X337820Y487680D02*
X337820Y485140D01*
X337820Y487680D02*
X330200Y487680D01*
X337820Y485140D02*
X368300Y485140D01*
X370840Y487680D01*
X330200Y609600D02*
X309880Y609600D01*
X302260Y609600D01*
X337820Y609600D02*
X337820Y612140D01*
X337820Y609600D02*
X330200Y609600D01*
X337820Y612140D02*
X368300Y612140D01*
X370840Y609600D01*
X302260Y609600D02*
X302260Y612140D01*
X302260Y609600D02*
X269240Y609600D01*
X271780Y612140D02*
X302260Y612140D01*
X271780Y612140D02*
X269240Y609600D01*
X284480Y548640D02*
X284491Y549513D01*
X284523Y550385D01*
X284576Y551256D01*
X284651Y552125D01*
X284747Y552993D01*
X284865Y553858D01*
X285004Y554719D01*
X285163Y555577D01*
X285344Y556431D01*
X285546Y557280D01*
X285768Y558124D01*
X286011Y558963D01*
X286275Y559795D01*
X286559Y560620D01*
X286863Y561438D01*
X287187Y562248D01*
X287531Y563050D01*
X287894Y563844D01*
X288277Y564628D01*
X288679Y565403D01*
X289100Y566167D01*
X289539Y566921D01*
X289997Y567665D01*
X290473Y568396D01*
X290967Y569116D01*
X291478Y569823D01*
X292006Y570518D01*
X292552Y571199D01*
X293114Y571867D01*
X293692Y572521D01*
X294286Y573160D01*
X294895Y573785D01*
X295520Y574394D01*
X296159Y574988D01*
X296813Y575566D01*
X297481Y576128D01*
X298162Y576674D01*
X298857Y577202D01*
X299564Y577713D01*
X300284Y578207D01*
X301015Y578683D01*
X301759Y579141D01*
X302513Y579580D01*
X303277Y580001D01*
X304052Y580403D01*
X304836Y580786D01*
X305630Y581149D01*
X306432Y581493D01*
X307242Y581817D01*
X308060Y582121D01*
X308885Y582405D01*
X309717Y582669D01*
X310556Y582912D01*
X311400Y583134D01*
X312249Y583336D01*
X313103Y583517D01*
X313961Y583676D01*
X314822Y583815D01*
X315687Y583933D01*
X316555Y584029D01*
X317424Y584104D01*
X318295Y584157D01*
X319167Y584189D01*
X320040Y584200D01*
X320913Y584189D01*
X321785Y584157D01*
X322656Y584104D01*
X323525Y584029D01*
X324393Y583933D01*
X325258Y583815D01*
X326119Y583676D01*
X326977Y583517D01*
X327831Y583336D01*
X328680Y583134D01*
X329524Y582912D01*
X330363Y582669D01*
X331195Y582405D01*
X332020Y582121D01*
X332838Y581817D01*
X333648Y581493D01*
X334450Y581149D01*
X335244Y580786D01*
X336028Y580403D01*
X336803Y580001D01*
X337567Y579580D01*
X338321Y579141D01*
X339065Y578683D01*
X339796Y578207D01*
X340516Y577713D01*
X341223Y577202D01*
X341918Y576674D01*
X342599Y576128D01*
X343267Y575566D01*
X343921Y574988D01*
X344560Y574394D01*
X345185Y573785D01*
X345794Y573160D01*
X346388Y572521D01*
X346966Y571867D01*
X347528Y571199D01*
X348074Y570518D01*
X348602Y569823D01*
X349113Y569116D01*
X349607Y568396D01*
X350083Y567665D01*
X350541Y566921D01*
X350980Y566167D01*
X351401Y565403D01*
X351803Y564628D01*
X352186Y563844D01*
X352549Y563050D01*
X352893Y562248D01*
X353217Y561438D01*
X353521Y560620D01*
X353805Y559795D01*
X354069Y558963D01*
X354312Y558124D01*
X354534Y557280D01*
X354736Y556431D01*
X354917Y555577D01*
X355076Y554719D01*
X355215Y553858D01*
X355333Y552993D01*
X355429Y552125D01*
X355504Y551256D01*
X355557Y550385D01*
X355589Y549513D01*
X355600Y548640D01*
X355589Y547767D01*
X355557Y546895D01*
X355504Y546024D01*
X355429Y545155D01*
X355333Y544287D01*
X355215Y543422D01*
X355076Y542561D01*
X354917Y541703D01*
X354736Y540849D01*
X354534Y540000D01*
X354312Y539156D01*
X354069Y538317D01*
X353805Y537485D01*
X353521Y536660D01*
X353217Y535842D01*
X352893Y535032D01*
X352549Y534230D01*
X352186Y533436D01*
X351803Y532652D01*
X351401Y531877D01*
X350980Y531113D01*
X350541Y530359D01*
X350083Y529615D01*
X349607Y528884D01*
X349113Y528164D01*
X348602Y527457D01*
X348074Y526762D01*
X347528Y526081D01*
X346966Y525413D01*
X346388Y524759D01*
X345794Y524120D01*
X345185Y523495D01*
X344560Y522886D01*
X343921Y522292D01*
X343267Y521714D01*
X342599Y521152D01*
X341918Y520606D01*
X341223Y520078D01*
X340516Y519567D01*
X339796Y519073D01*
X339065Y518597D01*
X338321Y518139D01*
X337567Y517700D01*
X336803Y517279D01*
X336028Y516877D01*
X335244Y516494D01*
X334450Y516131D01*
X333648Y515787D01*
X332838Y515463D01*
X332020Y515159D01*
X331195Y514875D01*
X330363Y514611D01*
X329524Y514368D01*
X328680Y514146D01*
X327831Y513944D01*
X326977Y513763D01*
X326119Y513604D01*
X325258Y513465D01*
X324393Y513347D01*
X323525Y513251D01*
X322656Y513176D01*
X321785Y513123D01*
X320913Y513091D01*
X320040Y513080D01*
X319167Y513091D01*
X318295Y513123D01*
X317424Y513176D01*
X316555Y513251D01*
X315687Y513347D01*
X314822Y513465D01*
X313961Y513604D01*
X313103Y513763D01*
X312249Y513944D01*
X311400Y514146D01*
X310556Y514368D01*
X309717Y514611D01*
X308885Y514875D01*
X308060Y515159D01*
X307242Y515463D01*
X306432Y515787D01*
X305630Y516131D01*
X304836Y516494D01*
X304052Y516877D01*
X303277Y517279D01*
X302513Y517700D01*
X301759Y518139D01*
X301015Y518597D01*
X300284Y519073D01*
X299564Y519567D01*
X298857Y520078D01*
X298162Y520606D01*
X297481Y521152D01*
X296813Y521714D01*
X296159Y522292D01*
X295520Y522886D01*
X294895Y523495D01*
X294286Y524120D01*
X293692Y524759D01*
X293114Y525413D01*
X292552Y526081D01*
X292006Y526762D01*
X291478Y527457D01*
X290967Y528164D01*
X290473Y528884D01*
X289997Y529615D01*
X289539Y530359D01*
X289100Y531113D01*
X288679Y531877D01*
X288277Y532652D01*
X287894Y533436D01*
X287531Y534230D01*
X287187Y535032D01*
X286863Y535842D01*
X286559Y536660D01*
X286275Y537485D01*
X286011Y538317D01*
X285768Y539156D01*
X285546Y540000D01*
X285344Y540849D01*
X285163Y541703D01*
X285004Y542561D01*
X284865Y543422D01*
X284747Y544287D01*
X284651Y545155D01*
X284576Y546024D01*
X284523Y546895D01*
X284491Y547767D01*
X284480Y548640D01*
D15*
X309880Y548640D02*
X309883Y548889D01*
X309892Y549139D01*
X309908Y549387D01*
X309929Y549636D01*
X309956Y549884D01*
X309990Y550131D01*
X310030Y550377D01*
X310075Y550622D01*
X310127Y550866D01*
X310184Y551109D01*
X310248Y551350D01*
X310317Y551589D01*
X310393Y551827D01*
X310474Y552063D01*
X310561Y552297D01*
X310653Y552528D01*
X310752Y552757D01*
X310855Y552984D01*
X310965Y553208D01*
X311080Y553429D01*
X311200Y553648D01*
X311325Y553863D01*
X311456Y554076D01*
X311592Y554285D01*
X311733Y554490D01*
X311879Y554692D01*
X312030Y554891D01*
X312186Y555085D01*
X312347Y555276D01*
X312512Y555463D01*
X312682Y555646D01*
X312856Y555824D01*
X313034Y555998D01*
X313217Y556168D01*
X313404Y556333D01*
X313595Y556494D01*
X313789Y556650D01*
X313988Y556801D01*
X314190Y556947D01*
X314395Y557088D01*
X314604Y557224D01*
X314817Y557355D01*
X315032Y557480D01*
X315251Y557600D01*
X315472Y557715D01*
X315696Y557825D01*
X315923Y557928D01*
X316152Y558027D01*
X316383Y558119D01*
X316617Y558206D01*
X316853Y558287D01*
X317091Y558363D01*
X317330Y558432D01*
X317571Y558496D01*
X317814Y558553D01*
X318058Y558605D01*
X318303Y558650D01*
X318549Y558690D01*
X318796Y558724D01*
X319044Y558751D01*
X319293Y558772D01*
X319541Y558788D01*
X319791Y558797D01*
X320040Y558800D01*
X320289Y558797D01*
X320539Y558788D01*
X320787Y558772D01*
X321036Y558751D01*
X321284Y558724D01*
X321531Y558690D01*
X321777Y558650D01*
X322022Y558605D01*
X322266Y558553D01*
X322509Y558496D01*
X322750Y558432D01*
X322989Y558363D01*
X323227Y558287D01*
X323463Y558206D01*
X323697Y558119D01*
X323928Y558027D01*
X324157Y557928D01*
X324384Y557825D01*
X324608Y557715D01*
X324829Y557600D01*
X325048Y557480D01*
X325263Y557355D01*
X325476Y557224D01*
X325685Y557088D01*
X325890Y556947D01*
X326092Y556801D01*
X326291Y556650D01*
X326485Y556494D01*
X326676Y556333D01*
X326863Y556168D01*
X327046Y555998D01*
X327224Y555824D01*
X327398Y555646D01*
X327568Y555463D01*
X327733Y555276D01*
X327894Y555085D01*
X328050Y554891D01*
X328201Y554692D01*
X328347Y554490D01*
X328488Y554285D01*
X328624Y554076D01*
X328755Y553863D01*
X328880Y553648D01*
X329000Y553429D01*
X329115Y553208D01*
X329225Y552984D01*
X329328Y552757D01*
X329427Y552528D01*
X329519Y552297D01*
X329606Y552063D01*
X329687Y551827D01*
X329763Y551589D01*
X329832Y551350D01*
X329896Y551109D01*
X329953Y550866D01*
X330005Y550622D01*
X330050Y550377D01*
X330090Y550131D01*
X330124Y549884D01*
X330151Y549636D01*
X330172Y549387D01*
X330188Y549139D01*
X330197Y548889D01*
X330200Y548640D01*
X330197Y548391D01*
X330188Y548141D01*
X330172Y547893D01*
X330151Y547644D01*
X330124Y547396D01*
X330090Y547149D01*
X330050Y546903D01*
X330005Y546658D01*
X329953Y546414D01*
X329896Y546171D01*
X329832Y545930D01*
X329763Y545691D01*
X329687Y545453D01*
X329606Y545217D01*
X329519Y544983D01*
X329427Y544752D01*
X329328Y544523D01*
X329225Y544296D01*
X329115Y544072D01*
X329000Y543851D01*
X328880Y543632D01*
X328755Y543417D01*
X328624Y543204D01*
X328488Y542995D01*
X328347Y542790D01*
X328201Y542588D01*
X328050Y542389D01*
X327894Y542195D01*
X327733Y542004D01*
X327568Y541817D01*
X327398Y541634D01*
X327224Y541456D01*
X327046Y541282D01*
X326863Y541112D01*
X326676Y540947D01*
X326485Y540786D01*
X326291Y540630D01*
X326092Y540479D01*
X325890Y540333D01*
X325685Y540192D01*
X325476Y540056D01*
X325263Y539925D01*
X325048Y539800D01*
X324829Y539680D01*
X324608Y539565D01*
X324384Y539455D01*
X324157Y539352D01*
X323928Y539253D01*
X323697Y539161D01*
X323463Y539074D01*
X323227Y538993D01*
X322989Y538917D01*
X322750Y538848D01*
X322509Y538784D01*
X322266Y538727D01*
X322022Y538675D01*
X321777Y538630D01*
X321531Y538590D01*
X321284Y538556D01*
X321036Y538529D01*
X320787Y538508D01*
X320539Y538492D01*
X320289Y538483D01*
X320040Y538480D01*
X319791Y538483D01*
X319541Y538492D01*
X319293Y538508D01*
X319044Y538529D01*
X318796Y538556D01*
X318549Y538590D01*
X318303Y538630D01*
X318058Y538675D01*
X317814Y538727D01*
X317571Y538784D01*
X317330Y538848D01*
X317091Y538917D01*
X316853Y538993D01*
X316617Y539074D01*
X316383Y539161D01*
X316152Y539253D01*
X315923Y539352D01*
X315696Y539455D01*
X315472Y539565D01*
X315251Y539680D01*
X315032Y539800D01*
X314817Y539925D01*
X314604Y540056D01*
X314395Y540192D01*
X314190Y540333D01*
X313988Y540479D01*
X313789Y540630D01*
X313595Y540786D01*
X313404Y540947D01*
X313217Y541112D01*
X313034Y541282D01*
X312856Y541456D01*
X312682Y541634D01*
X312512Y541817D01*
X312347Y542004D01*
X312186Y542195D01*
X312030Y542389D01*
X311879Y542588D01*
X311733Y542790D01*
X311592Y542995D01*
X311456Y543204D01*
X311325Y543417D01*
X311200Y543632D01*
X311080Y543851D01*
X310965Y544072D01*
X310855Y544296D01*
X310752Y544523D01*
X310653Y544752D01*
X310561Y544983D01*
X310474Y545217D01*
X310393Y545453D01*
X310317Y545691D01*
X310248Y545930D01*
X310184Y546171D01*
X310127Y546414D01*
X310075Y546658D01*
X310030Y546903D01*
X309990Y547149D01*
X309956Y547396D01*
X309929Y547644D01*
X309908Y547893D01*
X309892Y548141D01*
X309883Y548391D01*
X309880Y548640D01*
X312420Y548640D02*
X312422Y548827D01*
X312429Y549014D01*
X312441Y549201D01*
X312457Y549387D01*
X312477Y549573D01*
X312502Y549758D01*
X312532Y549943D01*
X312566Y550127D01*
X312605Y550310D01*
X312648Y550492D01*
X312696Y550672D01*
X312748Y550852D01*
X312805Y551030D01*
X312865Y551207D01*
X312931Y551382D01*
X313000Y551556D01*
X313074Y551728D01*
X313152Y551898D01*
X313234Y552066D01*
X313320Y552232D01*
X313410Y552396D01*
X313504Y552557D01*
X313602Y552717D01*
X313704Y552873D01*
X313810Y553028D01*
X313920Y553179D01*
X314033Y553328D01*
X314150Y553474D01*
X314270Y553617D01*
X314394Y553757D01*
X314521Y553894D01*
X314652Y554028D01*
X314786Y554159D01*
X314923Y554286D01*
X315063Y554410D01*
X315206Y554530D01*
X315352Y554647D01*
X315501Y554760D01*
X315652Y554870D01*
X315807Y554976D01*
X315963Y555078D01*
X316123Y555176D01*
X316284Y555270D01*
X316448Y555360D01*
X316614Y555446D01*
X316782Y555528D01*
X316952Y555606D01*
X317124Y555680D01*
X317298Y555749D01*
X317473Y555815D01*
X317650Y555875D01*
X317828Y555932D01*
X318008Y555984D01*
X318188Y556032D01*
X318370Y556075D01*
X318553Y556114D01*
X318737Y556148D01*
X318922Y556178D01*
X319107Y556203D01*
X319293Y556223D01*
X319479Y556239D01*
X319666Y556251D01*
X319853Y556258D01*
X320040Y556260D01*
X320227Y556258D01*
X320414Y556251D01*
X320601Y556239D01*
X320787Y556223D01*
X320973Y556203D01*
X321158Y556178D01*
X321343Y556148D01*
X321527Y556114D01*
X321710Y556075D01*
X321892Y556032D01*
X322072Y555984D01*
X322252Y555932D01*
X322430Y555875D01*
X322607Y555815D01*
X322782Y555749D01*
X322956Y555680D01*
X323128Y555606D01*
X323298Y555528D01*
X323466Y555446D01*
X323632Y555360D01*
X323796Y555270D01*
X323957Y555176D01*
X324117Y555078D01*
X324273Y554976D01*
X324428Y554870D01*
X324579Y554760D01*
X324728Y554647D01*
X324874Y554530D01*
X325017Y554410D01*
X325157Y554286D01*
X325294Y554159D01*
X325428Y554028D01*
X325559Y553894D01*
X325686Y553757D01*
X325810Y553617D01*
X325930Y553474D01*
X326047Y553328D01*
X326160Y553179D01*
X326270Y553028D01*
X326376Y552873D01*
X326478Y552717D01*
X326576Y552557D01*
X326670Y552396D01*
X326760Y552232D01*
X326846Y552066D01*
X326928Y551898D01*
X327006Y551728D01*
X327080Y551556D01*
X327149Y551382D01*
X327215Y551207D01*
X327275Y551030D01*
X327332Y550852D01*
X327384Y550672D01*
X327432Y550492D01*
X327475Y550310D01*
X327514Y550127D01*
X327548Y549943D01*
X327578Y549758D01*
X327603Y549573D01*
X327623Y549387D01*
X327639Y549201D01*
X327651Y549014D01*
X327658Y548827D01*
X327660Y548640D01*
X327658Y548453D01*
X327651Y548266D01*
X327639Y548079D01*
X327623Y547893D01*
X327603Y547707D01*
X327578Y547522D01*
X327548Y547337D01*
X327514Y547153D01*
X327475Y546970D01*
X327432Y546788D01*
X327384Y546608D01*
X327332Y546428D01*
X327275Y546250D01*
X327215Y546073D01*
X327149Y545898D01*
X327080Y545724D01*
X327006Y545552D01*
X326928Y545382D01*
X326846Y545214D01*
X326760Y545048D01*
X326670Y544884D01*
X326576Y544723D01*
X326478Y544563D01*
X326376Y544407D01*
X326270Y544252D01*
X326160Y544101D01*
X326047Y543952D01*
X325930Y543806D01*
X325810Y543663D01*
X325686Y543523D01*
X325559Y543386D01*
X325428Y543252D01*
X325294Y543121D01*
X325157Y542994D01*
X325017Y542870D01*
X324874Y542750D01*
X324728Y542633D01*
X324579Y542520D01*
X324428Y542410D01*
X324273Y542304D01*
X324117Y542202D01*
X323957Y542104D01*
X323796Y542010D01*
X323632Y541920D01*
X323466Y541834D01*
X323298Y541752D01*
X323128Y541674D01*
X322956Y541600D01*
X322782Y541531D01*
X322607Y541465D01*
X322430Y541405D01*
X322252Y541348D01*
X322072Y541296D01*
X321892Y541248D01*
X321710Y541205D01*
X321527Y541166D01*
X321343Y541132D01*
X321158Y541102D01*
X320973Y541077D01*
X320787Y541057D01*
X320601Y541041D01*
X320414Y541029D01*
X320227Y541022D01*
X320040Y541020D01*
X319853Y541022D01*
X319666Y541029D01*
X319479Y541041D01*
X319293Y541057D01*
X319107Y541077D01*
X318922Y541102D01*
X318737Y541132D01*
X318553Y541166D01*
X318370Y541205D01*
X318188Y541248D01*
X318008Y541296D01*
X317828Y541348D01*
X317650Y541405D01*
X317473Y541465D01*
X317298Y541531D01*
X317124Y541600D01*
X316952Y541674D01*
X316782Y541752D01*
X316614Y541834D01*
X316448Y541920D01*
X316284Y542010D01*
X316123Y542104D01*
X315963Y542202D01*
X315807Y542304D01*
X315652Y542410D01*
X315501Y542520D01*
X315352Y542633D01*
X315206Y542750D01*
X315063Y542870D01*
X314923Y542994D01*
X314786Y543121D01*
X314652Y543252D01*
X314521Y543386D01*
X314394Y543523D01*
X314270Y543663D01*
X314150Y543806D01*
X314033Y543952D01*
X313920Y544101D01*
X313810Y544252D01*
X313704Y544407D01*
X313602Y544563D01*
X313504Y544723D01*
X313410Y544884D01*
X313320Y545048D01*
X313234Y545214D01*
X313152Y545382D01*
X313074Y545552D01*
X313000Y545724D01*
X312931Y545898D01*
X312865Y546073D01*
X312805Y546250D01*
X312748Y546428D01*
X312696Y546608D01*
X312648Y546788D01*
X312605Y546970D01*
X312566Y547153D01*
X312532Y547337D01*
X312502Y547522D01*
X312477Y547707D01*
X312457Y547893D01*
X312441Y548079D01*
X312429Y548266D01*
X312422Y548453D01*
X312420Y548640D01*
D16*
X361051Y511182D02*
X364864Y514995D01*
X364864Y503555D01*
X361051Y503555D02*
X368678Y503555D01*
X277238Y503555D02*
X269611Y503555D01*
X277238Y511182D01*
X277238Y513088D01*
X275331Y514995D01*
X271518Y514995D01*
X269611Y513088D01*
X361051Y593098D02*
X362958Y595005D01*
X366771Y595005D01*
X368678Y593098D01*
X368678Y591192D01*
X366771Y589285D01*
X364864Y589285D01*
X366771Y589285D02*
X368678Y587378D01*
X368678Y585472D01*
X366771Y583565D01*
X362958Y583565D01*
X361051Y585472D01*
X274061Y583565D02*
X274061Y595005D01*
X268341Y589285D01*
X275968Y589285D01*
D17*
X286385Y487680D03*
X353695Y487680D03*
X286385Y609600D03*
X353695Y609600D03*
D11*
X885190Y562610D02*
X923290Y562610D01*
X923290Y524510D01*
X885190Y524510D01*
X885190Y562610D01*
D15*
X887730Y560070D02*
X920750Y560070D01*
X920750Y527050D01*
X887730Y527050D01*
X887730Y560070D01*
D11*
X894080Y604520D02*
X894080Y608330D01*
X894080Y604520D02*
X914400Y604520D01*
X914400Y608330D02*
X894080Y608330D01*
X914400Y608330D02*
X914400Y604520D01*
X955040Y604520D02*
X965200Y594360D01*
X955040Y604520D02*
X922020Y604520D01*
X965200Y594360D02*
X965200Y581660D01*
X965200Y554990D02*
X965200Y532130D01*
X965200Y492760D02*
X955040Y482600D01*
X965200Y492760D02*
X965200Y505460D01*
X843280Y532130D02*
X843280Y554990D01*
X843280Y505460D02*
X843280Y492760D01*
X853440Y482600D01*
X886460Y482600D01*
X886460Y604520D02*
X853440Y604520D01*
X843280Y594360D01*
X843280Y581660D01*
X894080Y478790D02*
X914400Y478790D01*
X894080Y478790D02*
X894080Y482600D01*
X914400Y482600D02*
X914400Y478790D01*
X955040Y604520D02*
X952500Y607060D01*
X922020Y607060D01*
X922020Y604520D01*
X914400Y604520D01*
X886460Y604520D02*
X886460Y607060D01*
X886460Y604520D02*
X894080Y604520D01*
X886460Y607060D02*
X855980Y607060D01*
X853440Y604520D01*
X894080Y482600D02*
X914400Y482600D01*
X922020Y482600D01*
X886460Y482600D02*
X886460Y480060D01*
X886460Y482600D02*
X894080Y482600D01*
X886460Y480060D02*
X855980Y480060D01*
X853440Y482600D01*
X922020Y482600D02*
X922020Y480060D01*
X922020Y482600D02*
X955040Y482600D01*
X952500Y480060D02*
X922020Y480060D01*
X952500Y480060D02*
X955040Y482600D01*
X868680Y543560D02*
X868691Y544433D01*
X868723Y545305D01*
X868776Y546176D01*
X868851Y547045D01*
X868947Y547913D01*
X869065Y548778D01*
X869204Y549639D01*
X869363Y550497D01*
X869544Y551351D01*
X869746Y552200D01*
X869968Y553044D01*
X870211Y553883D01*
X870475Y554715D01*
X870759Y555540D01*
X871063Y556358D01*
X871387Y557168D01*
X871731Y557970D01*
X872094Y558764D01*
X872477Y559548D01*
X872879Y560323D01*
X873300Y561087D01*
X873739Y561841D01*
X874197Y562585D01*
X874673Y563316D01*
X875167Y564036D01*
X875678Y564743D01*
X876206Y565438D01*
X876752Y566119D01*
X877314Y566787D01*
X877892Y567441D01*
X878486Y568080D01*
X879095Y568705D01*
X879720Y569314D01*
X880359Y569908D01*
X881013Y570486D01*
X881681Y571048D01*
X882362Y571594D01*
X883057Y572122D01*
X883764Y572633D01*
X884484Y573127D01*
X885215Y573603D01*
X885959Y574061D01*
X886713Y574500D01*
X887477Y574921D01*
X888252Y575323D01*
X889036Y575706D01*
X889830Y576069D01*
X890632Y576413D01*
X891442Y576737D01*
X892260Y577041D01*
X893085Y577325D01*
X893917Y577589D01*
X894756Y577832D01*
X895600Y578054D01*
X896449Y578256D01*
X897303Y578437D01*
X898161Y578596D01*
X899022Y578735D01*
X899887Y578853D01*
X900755Y578949D01*
X901624Y579024D01*
X902495Y579077D01*
X903367Y579109D01*
X904240Y579120D01*
X905113Y579109D01*
X905985Y579077D01*
X906856Y579024D01*
X907725Y578949D01*
X908593Y578853D01*
X909458Y578735D01*
X910319Y578596D01*
X911177Y578437D01*
X912031Y578256D01*
X912880Y578054D01*
X913724Y577832D01*
X914563Y577589D01*
X915395Y577325D01*
X916220Y577041D01*
X917038Y576737D01*
X917848Y576413D01*
X918650Y576069D01*
X919444Y575706D01*
X920228Y575323D01*
X921003Y574921D01*
X921767Y574500D01*
X922521Y574061D01*
X923265Y573603D01*
X923996Y573127D01*
X924716Y572633D01*
X925423Y572122D01*
X926118Y571594D01*
X926799Y571048D01*
X927467Y570486D01*
X928121Y569908D01*
X928760Y569314D01*
X929385Y568705D01*
X929994Y568080D01*
X930588Y567441D01*
X931166Y566787D01*
X931728Y566119D01*
X932274Y565438D01*
X932802Y564743D01*
X933313Y564036D01*
X933807Y563316D01*
X934283Y562585D01*
X934741Y561841D01*
X935180Y561087D01*
X935601Y560323D01*
X936003Y559548D01*
X936386Y558764D01*
X936749Y557970D01*
X937093Y557168D01*
X937417Y556358D01*
X937721Y555540D01*
X938005Y554715D01*
X938269Y553883D01*
X938512Y553044D01*
X938734Y552200D01*
X938936Y551351D01*
X939117Y550497D01*
X939276Y549639D01*
X939415Y548778D01*
X939533Y547913D01*
X939629Y547045D01*
X939704Y546176D01*
X939757Y545305D01*
X939789Y544433D01*
X939800Y543560D01*
X939789Y542687D01*
X939757Y541815D01*
X939704Y540944D01*
X939629Y540075D01*
X939533Y539207D01*
X939415Y538342D01*
X939276Y537481D01*
X939117Y536623D01*
X938936Y535769D01*
X938734Y534920D01*
X938512Y534076D01*
X938269Y533237D01*
X938005Y532405D01*
X937721Y531580D01*
X937417Y530762D01*
X937093Y529952D01*
X936749Y529150D01*
X936386Y528356D01*
X936003Y527572D01*
X935601Y526797D01*
X935180Y526033D01*
X934741Y525279D01*
X934283Y524535D01*
X933807Y523804D01*
X933313Y523084D01*
X932802Y522377D01*
X932274Y521682D01*
X931728Y521001D01*
X931166Y520333D01*
X930588Y519679D01*
X929994Y519040D01*
X929385Y518415D01*
X928760Y517806D01*
X928121Y517212D01*
X927467Y516634D01*
X926799Y516072D01*
X926118Y515526D01*
X925423Y514998D01*
X924716Y514487D01*
X923996Y513993D01*
X923265Y513517D01*
X922521Y513059D01*
X921767Y512620D01*
X921003Y512199D01*
X920228Y511797D01*
X919444Y511414D01*
X918650Y511051D01*
X917848Y510707D01*
X917038Y510383D01*
X916220Y510079D01*
X915395Y509795D01*
X914563Y509531D01*
X913724Y509288D01*
X912880Y509066D01*
X912031Y508864D01*
X911177Y508683D01*
X910319Y508524D01*
X909458Y508385D01*
X908593Y508267D01*
X907725Y508171D01*
X906856Y508096D01*
X905985Y508043D01*
X905113Y508011D01*
X904240Y508000D01*
X903367Y508011D01*
X902495Y508043D01*
X901624Y508096D01*
X900755Y508171D01*
X899887Y508267D01*
X899022Y508385D01*
X898161Y508524D01*
X897303Y508683D01*
X896449Y508864D01*
X895600Y509066D01*
X894756Y509288D01*
X893917Y509531D01*
X893085Y509795D01*
X892260Y510079D01*
X891442Y510383D01*
X890632Y510707D01*
X889830Y511051D01*
X889036Y511414D01*
X888252Y511797D01*
X887477Y512199D01*
X886713Y512620D01*
X885959Y513059D01*
X885215Y513517D01*
X884484Y513993D01*
X883764Y514487D01*
X883057Y514998D01*
X882362Y515526D01*
X881681Y516072D01*
X881013Y516634D01*
X880359Y517212D01*
X879720Y517806D01*
X879095Y518415D01*
X878486Y519040D01*
X877892Y519679D01*
X877314Y520333D01*
X876752Y521001D01*
X876206Y521682D01*
X875678Y522377D01*
X875167Y523084D01*
X874673Y523804D01*
X874197Y524535D01*
X873739Y525279D01*
X873300Y526033D01*
X872879Y526797D01*
X872477Y527572D01*
X872094Y528356D01*
X871731Y529150D01*
X871387Y529952D01*
X871063Y530762D01*
X870759Y531580D01*
X870475Y532405D01*
X870211Y533237D01*
X869968Y534076D01*
X869746Y534920D01*
X869544Y535769D01*
X869363Y536623D01*
X869204Y537481D01*
X869065Y538342D01*
X868947Y539207D01*
X868851Y540075D01*
X868776Y540944D01*
X868723Y541815D01*
X868691Y542687D01*
X868680Y543560D01*
D15*
X894080Y543560D02*
X894083Y543809D01*
X894092Y544059D01*
X894108Y544307D01*
X894129Y544556D01*
X894156Y544804D01*
X894190Y545051D01*
X894230Y545297D01*
X894275Y545542D01*
X894327Y545786D01*
X894384Y546029D01*
X894448Y546270D01*
X894517Y546509D01*
X894593Y546747D01*
X894674Y546983D01*
X894761Y547217D01*
X894853Y547448D01*
X894952Y547677D01*
X895055Y547904D01*
X895165Y548128D01*
X895280Y548349D01*
X895400Y548568D01*
X895525Y548783D01*
X895656Y548996D01*
X895792Y549205D01*
X895933Y549410D01*
X896079Y549612D01*
X896230Y549811D01*
X896386Y550005D01*
X896547Y550196D01*
X896712Y550383D01*
X896882Y550566D01*
X897056Y550744D01*
X897234Y550918D01*
X897417Y551088D01*
X897604Y551253D01*
X897795Y551414D01*
X897989Y551570D01*
X898188Y551721D01*
X898390Y551867D01*
X898595Y552008D01*
X898804Y552144D01*
X899017Y552275D01*
X899232Y552400D01*
X899451Y552520D01*
X899672Y552635D01*
X899896Y552745D01*
X900123Y552848D01*
X900352Y552947D01*
X900583Y553039D01*
X900817Y553126D01*
X901053Y553207D01*
X901291Y553283D01*
X901530Y553352D01*
X901771Y553416D01*
X902014Y553473D01*
X902258Y553525D01*
X902503Y553570D01*
X902749Y553610D01*
X902996Y553644D01*
X903244Y553671D01*
X903493Y553692D01*
X903741Y553708D01*
X903991Y553717D01*
X904240Y553720D01*
X904489Y553717D01*
X904739Y553708D01*
X904987Y553692D01*
X905236Y553671D01*
X905484Y553644D01*
X905731Y553610D01*
X905977Y553570D01*
X906222Y553525D01*
X906466Y553473D01*
X906709Y553416D01*
X906950Y553352D01*
X907189Y553283D01*
X907427Y553207D01*
X907663Y553126D01*
X907897Y553039D01*
X908128Y552947D01*
X908357Y552848D01*
X908584Y552745D01*
X908808Y552635D01*
X909029Y552520D01*
X909248Y552400D01*
X909463Y552275D01*
X909676Y552144D01*
X909885Y552008D01*
X910090Y551867D01*
X910292Y551721D01*
X910491Y551570D01*
X910685Y551414D01*
X910876Y551253D01*
X911063Y551088D01*
X911246Y550918D01*
X911424Y550744D01*
X911598Y550566D01*
X911768Y550383D01*
X911933Y550196D01*
X912094Y550005D01*
X912250Y549811D01*
X912401Y549612D01*
X912547Y549410D01*
X912688Y549205D01*
X912824Y548996D01*
X912955Y548783D01*
X913080Y548568D01*
X913200Y548349D01*
X913315Y548128D01*
X913425Y547904D01*
X913528Y547677D01*
X913627Y547448D01*
X913719Y547217D01*
X913806Y546983D01*
X913887Y546747D01*
X913963Y546509D01*
X914032Y546270D01*
X914096Y546029D01*
X914153Y545786D01*
X914205Y545542D01*
X914250Y545297D01*
X914290Y545051D01*
X914324Y544804D01*
X914351Y544556D01*
X914372Y544307D01*
X914388Y544059D01*
X914397Y543809D01*
X914400Y543560D01*
X914397Y543311D01*
X914388Y543061D01*
X914372Y542813D01*
X914351Y542564D01*
X914324Y542316D01*
X914290Y542069D01*
X914250Y541823D01*
X914205Y541578D01*
X914153Y541334D01*
X914096Y541091D01*
X914032Y540850D01*
X913963Y540611D01*
X913887Y540373D01*
X913806Y540137D01*
X913719Y539903D01*
X913627Y539672D01*
X913528Y539443D01*
X913425Y539216D01*
X913315Y538992D01*
X913200Y538771D01*
X913080Y538552D01*
X912955Y538337D01*
X912824Y538124D01*
X912688Y537915D01*
X912547Y537710D01*
X912401Y537508D01*
X912250Y537309D01*
X912094Y537115D01*
X911933Y536924D01*
X911768Y536737D01*
X911598Y536554D01*
X911424Y536376D01*
X911246Y536202D01*
X911063Y536032D01*
X910876Y535867D01*
X910685Y535706D01*
X910491Y535550D01*
X910292Y535399D01*
X910090Y535253D01*
X909885Y535112D01*
X909676Y534976D01*
X909463Y534845D01*
X909248Y534720D01*
X909029Y534600D01*
X908808Y534485D01*
X908584Y534375D01*
X908357Y534272D01*
X908128Y534173D01*
X907897Y534081D01*
X907663Y533994D01*
X907427Y533913D01*
X907189Y533837D01*
X906950Y533768D01*
X906709Y533704D01*
X906466Y533647D01*
X906222Y533595D01*
X905977Y533550D01*
X905731Y533510D01*
X905484Y533476D01*
X905236Y533449D01*
X904987Y533428D01*
X904739Y533412D01*
X904489Y533403D01*
X904240Y533400D01*
X903991Y533403D01*
X903741Y533412D01*
X903493Y533428D01*
X903244Y533449D01*
X902996Y533476D01*
X902749Y533510D01*
X902503Y533550D01*
X902258Y533595D01*
X902014Y533647D01*
X901771Y533704D01*
X901530Y533768D01*
X901291Y533837D01*
X901053Y533913D01*
X900817Y533994D01*
X900583Y534081D01*
X900352Y534173D01*
X900123Y534272D01*
X899896Y534375D01*
X899672Y534485D01*
X899451Y534600D01*
X899232Y534720D01*
X899017Y534845D01*
X898804Y534976D01*
X898595Y535112D01*
X898390Y535253D01*
X898188Y535399D01*
X897989Y535550D01*
X897795Y535706D01*
X897604Y535867D01*
X897417Y536032D01*
X897234Y536202D01*
X897056Y536376D01*
X896882Y536554D01*
X896712Y536737D01*
X896547Y536924D01*
X896386Y537115D01*
X896230Y537309D01*
X896079Y537508D01*
X895933Y537710D01*
X895792Y537915D01*
X895656Y538124D01*
X895525Y538337D01*
X895400Y538552D01*
X895280Y538771D01*
X895165Y538992D01*
X895055Y539216D01*
X894952Y539443D01*
X894853Y539672D01*
X894761Y539903D01*
X894674Y540137D01*
X894593Y540373D01*
X894517Y540611D01*
X894448Y540850D01*
X894384Y541091D01*
X894327Y541334D01*
X894275Y541578D01*
X894230Y541823D01*
X894190Y542069D01*
X894156Y542316D01*
X894129Y542564D01*
X894108Y542813D01*
X894092Y543061D01*
X894083Y543311D01*
X894080Y543560D01*
X896620Y543560D02*
X896622Y543747D01*
X896629Y543934D01*
X896641Y544121D01*
X896657Y544307D01*
X896677Y544493D01*
X896702Y544678D01*
X896732Y544863D01*
X896766Y545047D01*
X896805Y545230D01*
X896848Y545412D01*
X896896Y545592D01*
X896948Y545772D01*
X897005Y545950D01*
X897065Y546127D01*
X897131Y546302D01*
X897200Y546476D01*
X897274Y546648D01*
X897352Y546818D01*
X897434Y546986D01*
X897520Y547152D01*
X897610Y547316D01*
X897704Y547477D01*
X897802Y547637D01*
X897904Y547793D01*
X898010Y547948D01*
X898120Y548099D01*
X898233Y548248D01*
X898350Y548394D01*
X898470Y548537D01*
X898594Y548677D01*
X898721Y548814D01*
X898852Y548948D01*
X898986Y549079D01*
X899123Y549206D01*
X899263Y549330D01*
X899406Y549450D01*
X899552Y549567D01*
X899701Y549680D01*
X899852Y549790D01*
X900007Y549896D01*
X900163Y549998D01*
X900323Y550096D01*
X900484Y550190D01*
X900648Y550280D01*
X900814Y550366D01*
X900982Y550448D01*
X901152Y550526D01*
X901324Y550600D01*
X901498Y550669D01*
X901673Y550735D01*
X901850Y550795D01*
X902028Y550852D01*
X902208Y550904D01*
X902388Y550952D01*
X902570Y550995D01*
X902753Y551034D01*
X902937Y551068D01*
X903122Y551098D01*
X903307Y551123D01*
X903493Y551143D01*
X903679Y551159D01*
X903866Y551171D01*
X904053Y551178D01*
X904240Y551180D01*
X904427Y551178D01*
X904614Y551171D01*
X904801Y551159D01*
X904987Y551143D01*
X905173Y551123D01*
X905358Y551098D01*
X905543Y551068D01*
X905727Y551034D01*
X905910Y550995D01*
X906092Y550952D01*
X906272Y550904D01*
X906452Y550852D01*
X906630Y550795D01*
X906807Y550735D01*
X906982Y550669D01*
X907156Y550600D01*
X907328Y550526D01*
X907498Y550448D01*
X907666Y550366D01*
X907832Y550280D01*
X907996Y550190D01*
X908157Y550096D01*
X908317Y549998D01*
X908473Y549896D01*
X908628Y549790D01*
X908779Y549680D01*
X908928Y549567D01*
X909074Y549450D01*
X909217Y549330D01*
X909357Y549206D01*
X909494Y549079D01*
X909628Y548948D01*
X909759Y548814D01*
X909886Y548677D01*
X910010Y548537D01*
X910130Y548394D01*
X910247Y548248D01*
X910360Y548099D01*
X910470Y547948D01*
X910576Y547793D01*
X910678Y547637D01*
X910776Y547477D01*
X910870Y547316D01*
X910960Y547152D01*
X911046Y546986D01*
X911128Y546818D01*
X911206Y546648D01*
X911280Y546476D01*
X911349Y546302D01*
X911415Y546127D01*
X911475Y545950D01*
X911532Y545772D01*
X911584Y545592D01*
X911632Y545412D01*
X911675Y545230D01*
X911714Y545047D01*
X911748Y544863D01*
X911778Y544678D01*
X911803Y544493D01*
X911823Y544307D01*
X911839Y544121D01*
X911851Y543934D01*
X911858Y543747D01*
X911860Y543560D01*
X911858Y543373D01*
X911851Y543186D01*
X911839Y542999D01*
X911823Y542813D01*
X911803Y542627D01*
X911778Y542442D01*
X911748Y542257D01*
X911714Y542073D01*
X911675Y541890D01*
X911632Y541708D01*
X911584Y541528D01*
X911532Y541348D01*
X911475Y541170D01*
X911415Y540993D01*
X911349Y540818D01*
X911280Y540644D01*
X911206Y540472D01*
X911128Y540302D01*
X911046Y540134D01*
X910960Y539968D01*
X910870Y539804D01*
X910776Y539643D01*
X910678Y539483D01*
X910576Y539327D01*
X910470Y539172D01*
X910360Y539021D01*
X910247Y538872D01*
X910130Y538726D01*
X910010Y538583D01*
X909886Y538443D01*
X909759Y538306D01*
X909628Y538172D01*
X909494Y538041D01*
X909357Y537914D01*
X909217Y537790D01*
X909074Y537670D01*
X908928Y537553D01*
X908779Y537440D01*
X908628Y537330D01*
X908473Y537224D01*
X908317Y537122D01*
X908157Y537024D01*
X907996Y536930D01*
X907832Y536840D01*
X907666Y536754D01*
X907498Y536672D01*
X907328Y536594D01*
X907156Y536520D01*
X906982Y536451D01*
X906807Y536385D01*
X906630Y536325D01*
X906452Y536268D01*
X906272Y536216D01*
X906092Y536168D01*
X905910Y536125D01*
X905727Y536086D01*
X905543Y536052D01*
X905358Y536022D01*
X905173Y535997D01*
X904987Y535977D01*
X904801Y535961D01*
X904614Y535949D01*
X904427Y535942D01*
X904240Y535940D01*
X904053Y535942D01*
X903866Y535949D01*
X903679Y535961D01*
X903493Y535977D01*
X903307Y535997D01*
X903122Y536022D01*
X902937Y536052D01*
X902753Y536086D01*
X902570Y536125D01*
X902388Y536168D01*
X902208Y536216D01*
X902028Y536268D01*
X901850Y536325D01*
X901673Y536385D01*
X901498Y536451D01*
X901324Y536520D01*
X901152Y536594D01*
X900982Y536672D01*
X900814Y536754D01*
X900648Y536840D01*
X900484Y536930D01*
X900323Y537024D01*
X900163Y537122D01*
X900007Y537224D01*
X899852Y537330D01*
X899701Y537440D01*
X899552Y537553D01*
X899406Y537670D01*
X899263Y537790D01*
X899123Y537914D01*
X898986Y538041D01*
X898852Y538172D01*
X898721Y538306D01*
X898594Y538443D01*
X898470Y538583D01*
X898350Y538726D01*
X898233Y538872D01*
X898120Y539021D01*
X898010Y539172D01*
X897904Y539327D01*
X897802Y539483D01*
X897704Y539643D01*
X897610Y539804D01*
X897520Y539968D01*
X897434Y540134D01*
X897352Y540302D01*
X897274Y540472D01*
X897200Y540644D01*
X897131Y540818D01*
X897065Y540993D01*
X897005Y541170D01*
X896948Y541348D01*
X896896Y541528D01*
X896848Y541708D01*
X896805Y541890D01*
X896766Y542073D01*
X896732Y542257D01*
X896702Y542442D01*
X896677Y542627D01*
X896657Y542813D01*
X896641Y542999D01*
X896629Y543186D01*
X896622Y543373D01*
X896620Y543560D01*
D16*
X852805Y584842D02*
X856618Y588655D01*
X856618Y577215D01*
X852805Y577215D02*
X860432Y577215D01*
X944245Y577215D02*
X951872Y577215D01*
X944245Y577215D02*
X951872Y584842D01*
X951872Y586748D01*
X949965Y588655D01*
X946152Y588655D01*
X944245Y586748D01*
X854712Y508645D02*
X852805Y506738D01*
X854712Y508645D02*
X858525Y508645D01*
X860432Y506738D01*
X860432Y504832D01*
X858525Y502925D01*
X856618Y502925D01*
X858525Y502925D02*
X860432Y501018D01*
X860432Y499112D01*
X858525Y497205D01*
X854712Y497205D01*
X852805Y499112D01*
X951235Y497205D02*
X951235Y508645D01*
X945515Y502925D01*
X953142Y502925D01*
D17*
X937895Y604520D03*
X870585Y604520D03*
X937895Y482600D03*
X870585Y482600D03*
D10*
X50800Y400050D02*
X50800Y387350D01*
X50800Y400050D02*
X57150Y406400D01*
X69850Y406400D02*
X76200Y400050D01*
X50800Y361950D02*
X57150Y355600D01*
X50800Y361950D02*
X50800Y374650D01*
X57150Y381000D01*
X69850Y381000D02*
X76200Y374650D01*
X76200Y361950D01*
X69850Y355600D01*
X57150Y381000D02*
X50800Y387350D01*
X69850Y381000D02*
X76200Y387350D01*
X76200Y400050D01*
X50800Y323850D02*
X50800Y311150D01*
X50800Y323850D02*
X57150Y330200D01*
X69850Y330200D02*
X76200Y323850D01*
X57150Y330200D02*
X50800Y336550D01*
X50800Y349250D01*
X57150Y355600D01*
X69850Y355600D02*
X76200Y349250D01*
X76200Y336550D01*
X69850Y330200D01*
X69850Y304800D02*
X57150Y304800D01*
X50800Y311150D01*
X69850Y304800D02*
X76200Y311150D01*
X76200Y323850D01*
X69850Y406400D02*
X57150Y406400D01*
X50800Y323850D02*
X50800Y311150D01*
X44450Y304800D01*
X31750Y304800D02*
X25400Y311150D01*
X50800Y349250D02*
X44450Y355600D01*
X50800Y349250D02*
X50800Y336550D01*
X44450Y330200D01*
X31750Y330200D02*
X25400Y336550D01*
X25400Y349250D01*
X31750Y355600D01*
X44450Y330200D02*
X50800Y323850D01*
X31750Y330200D02*
X25400Y323850D01*
X25400Y311150D01*
X50800Y387350D02*
X50800Y400050D01*
X50800Y387350D02*
X44450Y381000D01*
X31750Y381000D02*
X25400Y387350D01*
X44450Y381000D02*
X50800Y374650D01*
X50800Y361950D01*
X44450Y355600D01*
X31750Y355600D02*
X25400Y361950D01*
X25400Y374650D01*
X31750Y381000D01*
X31750Y406400D02*
X44450Y406400D01*
X50800Y400050D01*
X31750Y406400D02*
X25400Y400050D01*
X25400Y387350D01*
X31750Y304800D02*
X44450Y304800D01*
X128270Y414020D02*
X134620Y420370D01*
X128270Y414020D02*
X115570Y414020D01*
X109220Y420370D01*
X109220Y433070D02*
X115570Y439420D01*
X128270Y439420D01*
X134620Y433070D01*
X166370Y414020D02*
X179070Y414020D01*
X166370Y414020D02*
X160020Y420370D01*
X160020Y433070D02*
X166370Y439420D01*
X160020Y420370D02*
X153670Y414020D01*
X140970Y414020D01*
X134620Y420370D01*
X134620Y433070D02*
X140970Y439420D01*
X153670Y439420D01*
X160020Y433070D01*
X185420Y433070D02*
X185420Y420370D01*
X179070Y414020D01*
X185420Y433070D02*
X179070Y439420D01*
X166370Y439420D01*
X109220Y433070D02*
X109220Y420370D01*
X314960Y303530D02*
X314960Y290830D01*
X308610Y284480D01*
X295910Y284480D02*
X289560Y290830D01*
X314960Y328930D02*
X308610Y335280D01*
X314960Y328930D02*
X314960Y316230D01*
X308610Y309880D01*
X295910Y309880D02*
X289560Y316230D01*
X289560Y328930D01*
X295910Y335280D01*
X308610Y309880D02*
X314960Y303530D01*
X295910Y309880D02*
X289560Y303530D01*
X289560Y290830D01*
X314960Y367030D02*
X314960Y379730D01*
X314960Y367030D02*
X308610Y360680D01*
X295910Y360680D02*
X289560Y367030D01*
X308610Y360680D02*
X314960Y354330D01*
X314960Y341630D01*
X308610Y335280D01*
X295910Y335280D02*
X289560Y341630D01*
X289560Y354330D01*
X295910Y360680D01*
X295910Y386080D02*
X308610Y386080D01*
X314960Y379730D01*
X295910Y386080D02*
X289560Y379730D01*
X289560Y367030D01*
X295910Y284480D02*
X308610Y284480D01*
X290830Y439420D02*
X278130Y439420D01*
X290830Y439420D02*
X297180Y433070D01*
X297180Y420370D02*
X290830Y414020D01*
X297180Y433070D02*
X303530Y439420D01*
X316230Y439420D01*
X322580Y433070D01*
X322580Y420370D02*
X316230Y414020D01*
X303530Y414020D01*
X297180Y420370D01*
X271780Y420370D02*
X271780Y433070D01*
X278130Y439420D01*
X271780Y420370D02*
X278130Y414020D01*
X290830Y414020D01*
X322580Y420370D02*
X322580Y433070D01*
D16*
X138429Y327034D02*
X137925Y326647D01*
X137412Y326271D01*
X136890Y325908D01*
X136360Y325557D01*
X135822Y325220D01*
X135275Y324895D01*
X134721Y324583D01*
X134160Y324284D01*
X133591Y323999D01*
X133016Y323728D01*
X132435Y323470D01*
X131848Y323227D01*
X131255Y322997D01*
X130657Y322782D01*
X130054Y322581D01*
X129446Y322394D01*
X128834Y322222D01*
X128218Y322064D01*
X127598Y321922D01*
X126976Y321794D01*
X126350Y321681D01*
X125722Y321582D01*
X125092Y321499D01*
X124459Y321431D01*
X124460Y321431D02*
X123811Y321377D01*
X123162Y321339D01*
X122511Y321317D01*
X121860Y321310D01*
X121209Y321319D01*
X120559Y321345D01*
X119909Y321386D01*
X119261Y321443D01*
X118614Y321516D01*
X117969Y321604D01*
X117326Y321709D01*
X116686Y321829D01*
X116050Y321964D01*
X115416Y322115D01*
X114787Y322282D01*
X114162Y322463D01*
X113541Y322660D01*
X112926Y322872D01*
X112316Y323099D01*
X111711Y323341D01*
X111113Y323598D01*
X110521Y323869D01*
X109936Y324154D01*
X109358Y324454D01*
X108788Y324767D01*
X108225Y325095D01*
X107671Y325436D01*
X107125Y325790D01*
X106588Y326158D01*
X106059Y326539D01*
X105541Y326932D01*
X105032Y327338D01*
X104533Y327756D01*
X104045Y328187D01*
X103567Y328629D01*
X103100Y329083D01*
X102645Y329548D01*
X102201Y330024D01*
X101768Y330510D01*
X101348Y331007D01*
X100940Y331514D01*
X100544Y332031D01*
X100161Y332558D01*
X99791Y333094D01*
X99434Y333638D01*
X99091Y334191D01*
X98761Y334752D01*
X98445Y335322D01*
X98143Y335898D01*
X97856Y336482D01*
X97582Y337073D01*
X97323Y337670D01*
X97079Y338274D01*
X96849Y338883D01*
X96635Y339497D01*
X96435Y340117D01*
X96435Y355843D02*
X96634Y356458D01*
X96846Y357069D01*
X97074Y357674D01*
X97316Y358273D01*
X97573Y358866D01*
X97844Y359453D01*
X98129Y360033D01*
X98428Y360606D01*
X98741Y361172D01*
X99068Y361730D01*
X99408Y362280D01*
X99761Y362821D01*
X100127Y363354D01*
X100506Y363877D01*
X100898Y364392D01*
X101301Y364896D01*
X101718Y365391D01*
X102145Y365876D01*
X102585Y366350D01*
X103036Y366813D01*
X103498Y367265D01*
X103971Y367706D01*
X104454Y368135D01*
X104948Y368552D01*
X105451Y368958D01*
X105964Y369351D01*
X106487Y369731D01*
X107019Y370099D01*
X107559Y370453D01*
X108108Y370795D01*
X108665Y371123D01*
X109230Y371437D01*
X109802Y371738D01*
X110381Y372025D01*
X110968Y372297D01*
X111560Y372556D01*
X112159Y372799D01*
X112763Y373029D01*
X113373Y373243D01*
X113988Y373443D01*
X114607Y373628D01*
X115231Y373798D01*
X115859Y373952D01*
X116490Y374091D01*
X117124Y374215D01*
X117762Y374324D01*
X118401Y374417D01*
X119043Y374494D01*
X119686Y374556D01*
X120331Y374603D01*
X120977Y374633D01*
X121623Y374648D01*
X122269Y374648D01*
X122916Y374631D01*
X123561Y374599D01*
X124206Y374552D01*
X124849Y374489D01*
X125491Y374410D01*
X126130Y374316D01*
X126767Y374206D01*
X127402Y374081D01*
X128033Y373940D01*
X128660Y373784D01*
X129283Y373613D01*
X129902Y373427D01*
X130517Y373226D01*
X131126Y373011D01*
X131730Y372780D01*
X132328Y372535D01*
X132920Y372276D01*
X133506Y372002D01*
X134085Y371714D01*
X134656Y371412D01*
X135221Y371097D01*
X135777Y370768D01*
X136325Y370425D01*
X136865Y370069D01*
X137396Y369701D01*
X137918Y369319D01*
X138430Y368925D01*
X138430Y327035D01*
X124460Y325443D02*
X124460Y321431D01*
X124460Y345117D02*
X124460Y350843D01*
X124460Y370517D02*
X124460Y374529D01*
D11*
X219710Y293370D02*
X219810Y293372D01*
X219909Y293378D01*
X220009Y293388D01*
X220107Y293401D01*
X220206Y293419D01*
X220303Y293440D01*
X220399Y293465D01*
X220495Y293494D01*
X220589Y293527D01*
X220682Y293563D01*
X220773Y293603D01*
X220863Y293647D01*
X220951Y293694D01*
X221037Y293744D01*
X221121Y293798D01*
X221203Y293855D01*
X221282Y293915D01*
X221360Y293979D01*
X221434Y294045D01*
X221506Y294114D01*
X221575Y294186D01*
X221641Y294260D01*
X221705Y294338D01*
X221765Y294417D01*
X221822Y294499D01*
X221876Y294583D01*
X221926Y294669D01*
X221973Y294757D01*
X222017Y294847D01*
X222057Y294938D01*
X222093Y295031D01*
X222126Y295125D01*
X222155Y295221D01*
X222180Y295317D01*
X222201Y295414D01*
X222219Y295513D01*
X222232Y295611D01*
X222242Y295711D01*
X222248Y295810D01*
X222250Y295910D01*
X222250Y313690D02*
X222248Y313790D01*
X222242Y313889D01*
X222232Y313989D01*
X222219Y314087D01*
X222201Y314186D01*
X222180Y314283D01*
X222155Y314379D01*
X222126Y314475D01*
X222093Y314569D01*
X222057Y314662D01*
X222017Y314753D01*
X221973Y314843D01*
X221926Y314931D01*
X221876Y315017D01*
X221822Y315101D01*
X221765Y315183D01*
X221705Y315262D01*
X221641Y315340D01*
X221575Y315414D01*
X221506Y315486D01*
X221434Y315555D01*
X221360Y315621D01*
X221282Y315685D01*
X221203Y315745D01*
X221121Y315802D01*
X221037Y315856D01*
X220951Y315906D01*
X220863Y315953D01*
X220773Y315997D01*
X220682Y316037D01*
X220589Y316073D01*
X220495Y316106D01*
X220399Y316135D01*
X220303Y316160D01*
X220206Y316181D01*
X220107Y316199D01*
X220009Y316212D01*
X219909Y316222D01*
X219810Y316228D01*
X219710Y316230D01*
X161290Y316230D02*
X161190Y316228D01*
X161091Y316222D01*
X160991Y316212D01*
X160893Y316199D01*
X160794Y316181D01*
X160697Y316160D01*
X160601Y316135D01*
X160505Y316106D01*
X160411Y316073D01*
X160318Y316037D01*
X160227Y315997D01*
X160137Y315953D01*
X160049Y315906D01*
X159963Y315856D01*
X159879Y315802D01*
X159797Y315745D01*
X159718Y315685D01*
X159640Y315621D01*
X159566Y315555D01*
X159494Y315486D01*
X159425Y315414D01*
X159359Y315340D01*
X159295Y315262D01*
X159235Y315183D01*
X159178Y315101D01*
X159124Y315017D01*
X159074Y314931D01*
X159027Y314843D01*
X158983Y314753D01*
X158943Y314662D01*
X158907Y314569D01*
X158874Y314475D01*
X158845Y314379D01*
X158820Y314283D01*
X158799Y314186D01*
X158781Y314087D01*
X158768Y313989D01*
X158758Y313889D01*
X158752Y313790D01*
X158750Y313690D01*
X158750Y295910D02*
X158752Y295810D01*
X158758Y295711D01*
X158768Y295611D01*
X158781Y295513D01*
X158799Y295414D01*
X158820Y295317D01*
X158845Y295221D01*
X158874Y295125D01*
X158907Y295031D01*
X158943Y294938D01*
X158983Y294847D01*
X159027Y294757D01*
X159074Y294669D01*
X159124Y294583D01*
X159178Y294499D01*
X159235Y294417D01*
X159295Y294338D01*
X159359Y294260D01*
X159425Y294186D01*
X159494Y294114D01*
X159566Y294045D01*
X159640Y293979D01*
X159718Y293915D01*
X159797Y293855D01*
X159879Y293798D01*
X159963Y293744D01*
X160049Y293694D01*
X160137Y293647D01*
X160227Y293603D01*
X160318Y293563D01*
X160411Y293527D01*
X160505Y293494D01*
X160601Y293465D01*
X160697Y293440D01*
X160794Y293419D01*
X160893Y293401D01*
X160991Y293388D01*
X161091Y293378D01*
X161190Y293372D01*
X161290Y293370D01*
X222250Y295910D02*
X222250Y313690D01*
X219710Y293370D02*
X215900Y293370D01*
X214630Y294640D01*
X215900Y316230D02*
X219710Y316230D01*
X215900Y316230D02*
X214630Y314960D01*
X166370Y294640D02*
X165100Y293370D01*
X166370Y294640D02*
X214630Y294640D01*
X166370Y314960D02*
X165100Y316230D01*
X166370Y314960D02*
X214630Y314960D01*
X165100Y293370D02*
X161290Y293370D01*
X161290Y316230D02*
X165100Y316230D01*
X158750Y313690D02*
X158750Y295910D01*
D13*
X149860Y304800D02*
X146050Y304800D01*
X231140Y304800D02*
X234950Y304800D01*
D14*
X154432Y304800D03*
X226568Y304800D03*
X141732Y304800D03*
X239268Y304800D03*
D11*
X219710Y384810D02*
X219810Y384812D01*
X219909Y384818D01*
X220009Y384828D01*
X220107Y384841D01*
X220206Y384859D01*
X220303Y384880D01*
X220399Y384905D01*
X220495Y384934D01*
X220589Y384967D01*
X220682Y385003D01*
X220773Y385043D01*
X220863Y385087D01*
X220951Y385134D01*
X221037Y385184D01*
X221121Y385238D01*
X221203Y385295D01*
X221282Y385355D01*
X221360Y385419D01*
X221434Y385485D01*
X221506Y385554D01*
X221575Y385626D01*
X221641Y385700D01*
X221705Y385778D01*
X221765Y385857D01*
X221822Y385939D01*
X221876Y386023D01*
X221926Y386109D01*
X221973Y386197D01*
X222017Y386287D01*
X222057Y386378D01*
X222093Y386471D01*
X222126Y386565D01*
X222155Y386661D01*
X222180Y386757D01*
X222201Y386854D01*
X222219Y386953D01*
X222232Y387051D01*
X222242Y387151D01*
X222248Y387250D01*
X222250Y387350D01*
X222250Y405130D02*
X222248Y405230D01*
X222242Y405329D01*
X222232Y405429D01*
X222219Y405527D01*
X222201Y405626D01*
X222180Y405723D01*
X222155Y405819D01*
X222126Y405915D01*
X222093Y406009D01*
X222057Y406102D01*
X222017Y406193D01*
X221973Y406283D01*
X221926Y406371D01*
X221876Y406457D01*
X221822Y406541D01*
X221765Y406623D01*
X221705Y406702D01*
X221641Y406780D01*
X221575Y406854D01*
X221506Y406926D01*
X221434Y406995D01*
X221360Y407061D01*
X221282Y407125D01*
X221203Y407185D01*
X221121Y407242D01*
X221037Y407296D01*
X220951Y407346D01*
X220863Y407393D01*
X220773Y407437D01*
X220682Y407477D01*
X220589Y407513D01*
X220495Y407546D01*
X220399Y407575D01*
X220303Y407600D01*
X220206Y407621D01*
X220107Y407639D01*
X220009Y407652D01*
X219909Y407662D01*
X219810Y407668D01*
X219710Y407670D01*
X161290Y407670D02*
X161190Y407668D01*
X161091Y407662D01*
X160991Y407652D01*
X160893Y407639D01*
X160794Y407621D01*
X160697Y407600D01*
X160601Y407575D01*
X160505Y407546D01*
X160411Y407513D01*
X160318Y407477D01*
X160227Y407437D01*
X160137Y407393D01*
X160049Y407346D01*
X159963Y407296D01*
X159879Y407242D01*
X159797Y407185D01*
X159718Y407125D01*
X159640Y407061D01*
X159566Y406995D01*
X159494Y406926D01*
X159425Y406854D01*
X159359Y406780D01*
X159295Y406702D01*
X159235Y406623D01*
X159178Y406541D01*
X159124Y406457D01*
X159074Y406371D01*
X159027Y406283D01*
X158983Y406193D01*
X158943Y406102D01*
X158907Y406009D01*
X158874Y405915D01*
X158845Y405819D01*
X158820Y405723D01*
X158799Y405626D01*
X158781Y405527D01*
X158768Y405429D01*
X158758Y405329D01*
X158752Y405230D01*
X158750Y405130D01*
X158750Y387350D02*
X158752Y387250D01*
X158758Y387151D01*
X158768Y387051D01*
X158781Y386953D01*
X158799Y386854D01*
X158820Y386757D01*
X158845Y386661D01*
X158874Y386565D01*
X158907Y386471D01*
X158943Y386378D01*
X158983Y386287D01*
X159027Y386197D01*
X159074Y386109D01*
X159124Y386023D01*
X159178Y385939D01*
X159235Y385857D01*
X159295Y385778D01*
X159359Y385700D01*
X159425Y385626D01*
X159494Y385554D01*
X159566Y385485D01*
X159640Y385419D01*
X159718Y385355D01*
X159797Y385295D01*
X159879Y385238D01*
X159963Y385184D01*
X160049Y385134D01*
X160137Y385087D01*
X160227Y385043D01*
X160318Y385003D01*
X160411Y384967D01*
X160505Y384934D01*
X160601Y384905D01*
X160697Y384880D01*
X160794Y384859D01*
X160893Y384841D01*
X160991Y384828D01*
X161091Y384818D01*
X161190Y384812D01*
X161290Y384810D01*
X222250Y387350D02*
X222250Y405130D01*
X219710Y384810D02*
X215900Y384810D01*
X214630Y386080D01*
X215900Y407670D02*
X219710Y407670D01*
X215900Y407670D02*
X214630Y406400D01*
X166370Y386080D02*
X165100Y384810D01*
X166370Y386080D02*
X214630Y386080D01*
X166370Y406400D02*
X165100Y407670D01*
X166370Y406400D02*
X214630Y406400D01*
X165100Y384810D02*
X161290Y384810D01*
X161290Y407670D02*
X165100Y407670D01*
X158750Y405130D02*
X158750Y387350D01*
D13*
X149860Y396240D02*
X146050Y396240D01*
X231140Y396240D02*
X234950Y396240D01*
D14*
X154432Y396240D03*
X226568Y396240D03*
X141732Y396240D03*
X239268Y396240D03*
D10*
X221380Y347980D02*
X221388Y348594D01*
X221410Y349207D01*
X221448Y349819D01*
X221500Y350430D01*
X221568Y351040D01*
X221651Y351648D01*
X221748Y352254D01*
X221860Y352857D01*
X221987Y353458D01*
X222129Y354055D01*
X222286Y354648D01*
X222456Y355237D01*
X222642Y355822D01*
X222841Y356402D01*
X223055Y356977D01*
X223283Y357547D01*
X223525Y358111D01*
X223780Y358669D01*
X224049Y359220D01*
X224332Y359765D01*
X224628Y360302D01*
X224937Y360833D01*
X225259Y361355D01*
X225593Y361869D01*
X225940Y362375D01*
X226300Y362872D01*
X226671Y363361D01*
X227055Y363840D01*
X227450Y364309D01*
X227856Y364769D01*
X228274Y365219D01*
X228702Y365658D01*
X229141Y366086D01*
X229591Y366504D01*
X230051Y366910D01*
X230520Y367305D01*
X230999Y367689D01*
X231488Y368060D01*
X231985Y368420D01*
X232491Y368767D01*
X233005Y369101D01*
X233527Y369423D01*
X234058Y369732D01*
X234595Y370028D01*
X235140Y370311D01*
X235691Y370580D01*
X236249Y370835D01*
X236813Y371077D01*
X237383Y371305D01*
X237958Y371519D01*
X238538Y371718D01*
X239123Y371904D01*
X239712Y372074D01*
X240305Y372231D01*
X240902Y372373D01*
X241503Y372500D01*
X242106Y372612D01*
X242712Y372709D01*
X243320Y372792D01*
X243930Y372860D01*
X244541Y372912D01*
X245153Y372950D01*
X245766Y372972D01*
X246380Y372980D01*
X246994Y372972D01*
X247607Y372950D01*
X248219Y372912D01*
X248830Y372860D01*
X249440Y372792D01*
X250048Y372709D01*
X250654Y372612D01*
X251257Y372500D01*
X251858Y372373D01*
X252455Y372231D01*
X253048Y372074D01*
X253637Y371904D01*
X254222Y371718D01*
X254802Y371519D01*
X255377Y371305D01*
X255947Y371077D01*
X256511Y370835D01*
X257069Y370580D01*
X257620Y370311D01*
X258165Y370028D01*
X258702Y369732D01*
X259233Y369423D01*
X259755Y369101D01*
X260269Y368767D01*
X260775Y368420D01*
X261272Y368060D01*
X261761Y367689D01*
X262240Y367305D01*
X262709Y366910D01*
X263169Y366504D01*
X263619Y366086D01*
X264058Y365658D01*
X264486Y365219D01*
X264904Y364769D01*
X265310Y364309D01*
X265705Y363840D01*
X266089Y363361D01*
X266460Y362872D01*
X266820Y362375D01*
X267167Y361869D01*
X267501Y361355D01*
X267823Y360833D01*
X268132Y360302D01*
X268428Y359765D01*
X268711Y359220D01*
X268980Y358669D01*
X269235Y358111D01*
X269477Y357547D01*
X269705Y356977D01*
X269919Y356402D01*
X270118Y355822D01*
X270304Y355237D01*
X270474Y354648D01*
X270631Y354055D01*
X270773Y353458D01*
X270900Y352857D01*
X271012Y352254D01*
X271109Y351648D01*
X271192Y351040D01*
X271260Y350430D01*
X271312Y349819D01*
X271350Y349207D01*
X271372Y348594D01*
X271380Y347980D01*
X271372Y347366D01*
X271350Y346753D01*
X271312Y346141D01*
X271260Y345530D01*
X271192Y344920D01*
X271109Y344312D01*
X271012Y343706D01*
X270900Y343103D01*
X270773Y342502D01*
X270631Y341905D01*
X270474Y341312D01*
X270304Y340723D01*
X270118Y340138D01*
X269919Y339558D01*
X269705Y338983D01*
X269477Y338413D01*
X269235Y337849D01*
X268980Y337291D01*
X268711Y336740D01*
X268428Y336195D01*
X268132Y335658D01*
X267823Y335127D01*
X267501Y334605D01*
X267167Y334091D01*
X266820Y333585D01*
X266460Y333088D01*
X266089Y332599D01*
X265705Y332120D01*
X265310Y331651D01*
X264904Y331191D01*
X264486Y330741D01*
X264058Y330302D01*
X263619Y329874D01*
X263169Y329456D01*
X262709Y329050D01*
X262240Y328655D01*
X261761Y328271D01*
X261272Y327900D01*
X260775Y327540D01*
X260269Y327193D01*
X259755Y326859D01*
X259233Y326537D01*
X258702Y326228D01*
X258165Y325932D01*
X257620Y325649D01*
X257069Y325380D01*
X256511Y325125D01*
X255947Y324883D01*
X255377Y324655D01*
X254802Y324441D01*
X254222Y324242D01*
X253637Y324056D01*
X253048Y323886D01*
X252455Y323729D01*
X251858Y323587D01*
X251257Y323460D01*
X250654Y323348D01*
X250048Y323251D01*
X249440Y323168D01*
X248830Y323100D01*
X248219Y323048D01*
X247607Y323010D01*
X246994Y322988D01*
X246380Y322980D01*
X245766Y322988D01*
X245153Y323010D01*
X244541Y323048D01*
X243930Y323100D01*
X243320Y323168D01*
X242712Y323251D01*
X242106Y323348D01*
X241503Y323460D01*
X240902Y323587D01*
X240305Y323729D01*
X239712Y323886D01*
X239123Y324056D01*
X238538Y324242D01*
X237958Y324441D01*
X237383Y324655D01*
X236813Y324883D01*
X236249Y325125D01*
X235691Y325380D01*
X235140Y325649D01*
X234595Y325932D01*
X234058Y326228D01*
X233527Y326537D01*
X233005Y326859D01*
X232491Y327193D01*
X231985Y327540D01*
X231488Y327900D01*
X230999Y328271D01*
X230520Y328655D01*
X230051Y329050D01*
X229591Y329456D01*
X229141Y329874D01*
X228702Y330302D01*
X228274Y330741D01*
X227856Y331191D01*
X227450Y331651D01*
X227055Y332120D01*
X226671Y332599D01*
X226300Y333088D01*
X225940Y333585D01*
X225593Y334091D01*
X225259Y334605D01*
X224937Y335127D01*
X224628Y335658D01*
X224332Y336195D01*
X224049Y336740D01*
X223780Y337291D01*
X223525Y337849D01*
X223283Y338413D01*
X223055Y338983D01*
X222841Y339558D01*
X222642Y340138D01*
X222456Y340723D01*
X222286Y341312D01*
X222129Y341905D01*
X221987Y342502D01*
X221860Y343103D01*
X221748Y343706D01*
X221651Y344312D01*
X221568Y344920D01*
X221500Y345530D01*
X221448Y346141D01*
X221410Y346753D01*
X221388Y347366D01*
X221380Y347980D01*
X253800Y334010D02*
X263960Y334010D01*
X238960Y334010D02*
X228800Y334010D01*
X233880Y328930D02*
X233880Y339090D01*
X240030Y71120D02*
X227330Y71120D01*
X220980Y77470D01*
X220980Y90170D02*
X227330Y96520D01*
X265430Y71120D02*
X271780Y77470D01*
X265430Y71120D02*
X252730Y71120D01*
X246380Y77470D01*
X246380Y90170D02*
X252730Y96520D01*
X265430Y96520D01*
X271780Y90170D01*
X246380Y77470D02*
X240030Y71120D01*
X246380Y90170D02*
X240030Y96520D01*
X227330Y96520D01*
X303530Y71120D02*
X316230Y71120D01*
X303530Y71120D02*
X297180Y77470D01*
X297180Y90170D02*
X303530Y96520D01*
X297180Y77470D02*
X290830Y71120D01*
X278130Y71120D01*
X271780Y77470D01*
X271780Y90170D02*
X278130Y96520D01*
X290830Y96520D01*
X297180Y90170D01*
X341630Y71120D02*
X347980Y77470D01*
X341630Y71120D02*
X328930Y71120D01*
X322580Y77470D01*
X322580Y90170D02*
X328930Y96520D01*
X341630Y96520D01*
X347980Y90170D01*
X322580Y77470D02*
X316230Y71120D01*
X322580Y90170D02*
X316230Y96520D01*
X303530Y96520D01*
X379730Y71120D02*
X392430Y71120D01*
X379730Y71120D02*
X373380Y77470D01*
X373380Y90170D02*
X379730Y96520D01*
X373380Y77470D02*
X367030Y71120D01*
X354330Y71120D01*
X347980Y77470D01*
X347980Y90170D02*
X354330Y96520D01*
X367030Y96520D01*
X373380Y90170D01*
X398780Y90170D02*
X398780Y77470D01*
X392430Y71120D01*
X398780Y90170D02*
X392430Y96520D01*
X379730Y96520D01*
X214630Y71120D02*
X201930Y71120D01*
X195580Y77470D01*
X195580Y90170D02*
X201930Y96520D01*
X220980Y77470D02*
X214630Y71120D01*
X220980Y90170D02*
X214630Y96520D01*
X201930Y96520D01*
X189230Y71120D02*
X176530Y71120D01*
X170180Y77470D01*
X170180Y90170D02*
X176530Y96520D01*
X195580Y77470D02*
X189230Y71120D01*
X195580Y90170D02*
X189230Y96520D01*
X176530Y96520D01*
X163830Y71120D02*
X151130Y71120D01*
X144780Y77470D01*
X144780Y90170D02*
X151130Y96520D01*
X170180Y77470D02*
X163830Y71120D01*
X170180Y90170D02*
X163830Y96520D01*
X151130Y96520D01*
X138430Y71120D02*
X125730Y71120D01*
X119380Y77470D01*
X119380Y90170D01*
X125730Y96520D01*
X144780Y77470D02*
X138430Y71120D01*
X144780Y90170D02*
X138430Y96520D01*
X125730Y96520D01*
X934720Y209550D02*
X934720Y222250D01*
X941070Y228600D01*
X953770Y228600D02*
X960120Y222250D01*
X934720Y184150D02*
X941070Y177800D01*
X934720Y184150D02*
X934720Y196850D01*
X941070Y203200D01*
X953770Y203200D02*
X960120Y196850D01*
X960120Y184150D01*
X953770Y177800D01*
X941070Y203200D02*
X934720Y209550D01*
X953770Y203200D02*
X960120Y209550D01*
X960120Y222250D01*
X934720Y146050D02*
X934720Y133350D01*
X934720Y146050D02*
X941070Y152400D01*
X953770Y152400D02*
X960120Y146050D01*
X941070Y152400D02*
X934720Y158750D01*
X934720Y171450D01*
X941070Y177800D01*
X953770Y177800D02*
X960120Y171450D01*
X960120Y158750D01*
X953770Y152400D01*
X953770Y127000D02*
X941070Y127000D01*
X934720Y133350D01*
X953770Y127000D02*
X960120Y133350D01*
X960120Y146050D01*
X953770Y228600D02*
X941070Y228600D01*
X934720Y146050D02*
X934720Y133350D01*
X928370Y127000D01*
X915670Y127000D02*
X909320Y133350D01*
X934720Y171450D02*
X928370Y177800D01*
X934720Y171450D02*
X934720Y158750D01*
X928370Y152400D01*
X915670Y152400D02*
X909320Y158750D01*
X909320Y171450D01*
X915670Y177800D01*
X928370Y152400D02*
X934720Y146050D01*
X915670Y152400D02*
X909320Y146050D01*
X909320Y133350D01*
X934720Y209550D02*
X934720Y222250D01*
X934720Y209550D02*
X928370Y203200D01*
X915670Y203200D02*
X909320Y209550D01*
X928370Y203200D02*
X934720Y196850D01*
X934720Y184150D01*
X928370Y177800D01*
X915670Y177800D02*
X909320Y184150D01*
X909320Y196850D01*
X915670Y203200D01*
X915670Y228600D02*
X928370Y228600D01*
X934720Y222250D01*
X915670Y228600D02*
X909320Y222250D01*
X909320Y209550D01*
X915670Y127000D02*
X928370Y127000D01*
X927100Y19050D02*
X920750Y12700D01*
X908050Y12700D01*
X901700Y19050D01*
X901700Y31750D02*
X908050Y38100D01*
X920750Y38100D01*
X927100Y31750D01*
X958850Y12700D02*
X971550Y12700D01*
X958850Y12700D02*
X952500Y19050D01*
X952500Y31750D02*
X958850Y38100D01*
X952500Y19050D02*
X946150Y12700D01*
X933450Y12700D01*
X927100Y19050D01*
X927100Y31750D02*
X933450Y38100D01*
X946150Y38100D01*
X952500Y31750D01*
X977900Y31750D02*
X977900Y19050D01*
X971550Y12700D01*
X977900Y31750D02*
X971550Y38100D01*
X958850Y38100D01*
X901700Y31750D02*
X901700Y19050D01*
X927500Y76200D02*
X927508Y76814D01*
X927530Y77427D01*
X927568Y78039D01*
X927620Y78650D01*
X927688Y79260D01*
X927771Y79868D01*
X927868Y80474D01*
X927980Y81077D01*
X928107Y81678D01*
X928249Y82275D01*
X928406Y82868D01*
X928576Y83457D01*
X928762Y84042D01*
X928961Y84622D01*
X929175Y85197D01*
X929403Y85767D01*
X929645Y86331D01*
X929900Y86889D01*
X930169Y87440D01*
X930452Y87985D01*
X930748Y88522D01*
X931057Y89053D01*
X931379Y89575D01*
X931713Y90089D01*
X932060Y90595D01*
X932420Y91092D01*
X932791Y91581D01*
X933175Y92060D01*
X933570Y92529D01*
X933976Y92989D01*
X934394Y93439D01*
X934822Y93878D01*
X935261Y94306D01*
X935711Y94724D01*
X936171Y95130D01*
X936640Y95525D01*
X937119Y95909D01*
X937608Y96280D01*
X938105Y96640D01*
X938611Y96987D01*
X939125Y97321D01*
X939647Y97643D01*
X940178Y97952D01*
X940715Y98248D01*
X941260Y98531D01*
X941811Y98800D01*
X942369Y99055D01*
X942933Y99297D01*
X943503Y99525D01*
X944078Y99739D01*
X944658Y99938D01*
X945243Y100124D01*
X945832Y100294D01*
X946425Y100451D01*
X947022Y100593D01*
X947623Y100720D01*
X948226Y100832D01*
X948832Y100929D01*
X949440Y101012D01*
X950050Y101080D01*
X950661Y101132D01*
X951273Y101170D01*
X951886Y101192D01*
X952500Y101200D01*
X953114Y101192D01*
X953727Y101170D01*
X954339Y101132D01*
X954950Y101080D01*
X955560Y101012D01*
X956168Y100929D01*
X956774Y100832D01*
X957377Y100720D01*
X957978Y100593D01*
X958575Y100451D01*
X959168Y100294D01*
X959757Y100124D01*
X960342Y99938D01*
X960922Y99739D01*
X961497Y99525D01*
X962067Y99297D01*
X962631Y99055D01*
X963189Y98800D01*
X963740Y98531D01*
X964285Y98248D01*
X964822Y97952D01*
X965353Y97643D01*
X965875Y97321D01*
X966389Y96987D01*
X966895Y96640D01*
X967392Y96280D01*
X967881Y95909D01*
X968360Y95525D01*
X968829Y95130D01*
X969289Y94724D01*
X969739Y94306D01*
X970178Y93878D01*
X970606Y93439D01*
X971024Y92989D01*
X971430Y92529D01*
X971825Y92060D01*
X972209Y91581D01*
X972580Y91092D01*
X972940Y90595D01*
X973287Y90089D01*
X973621Y89575D01*
X973943Y89053D01*
X974252Y88522D01*
X974548Y87985D01*
X974831Y87440D01*
X975100Y86889D01*
X975355Y86331D01*
X975597Y85767D01*
X975825Y85197D01*
X976039Y84622D01*
X976238Y84042D01*
X976424Y83457D01*
X976594Y82868D01*
X976751Y82275D01*
X976893Y81678D01*
X977020Y81077D01*
X977132Y80474D01*
X977229Y79868D01*
X977312Y79260D01*
X977380Y78650D01*
X977432Y78039D01*
X977470Y77427D01*
X977492Y76814D01*
X977500Y76200D01*
X977492Y75586D01*
X977470Y74973D01*
X977432Y74361D01*
X977380Y73750D01*
X977312Y73140D01*
X977229Y72532D01*
X977132Y71926D01*
X977020Y71323D01*
X976893Y70722D01*
X976751Y70125D01*
X976594Y69532D01*
X976424Y68943D01*
X976238Y68358D01*
X976039Y67778D01*
X975825Y67203D01*
X975597Y66633D01*
X975355Y66069D01*
X975100Y65511D01*
X974831Y64960D01*
X974548Y64415D01*
X974252Y63878D01*
X973943Y63347D01*
X973621Y62825D01*
X973287Y62311D01*
X972940Y61805D01*
X972580Y61308D01*
X972209Y60819D01*
X971825Y60340D01*
X971430Y59871D01*
X971024Y59411D01*
X970606Y58961D01*
X970178Y58522D01*
X969739Y58094D01*
X969289Y57676D01*
X968829Y57270D01*
X968360Y56875D01*
X967881Y56491D01*
X967392Y56120D01*
X966895Y55760D01*
X966389Y55413D01*
X965875Y55079D01*
X965353Y54757D01*
X964822Y54448D01*
X964285Y54152D01*
X963740Y53869D01*
X963189Y53600D01*
X962631Y53345D01*
X962067Y53103D01*
X961497Y52875D01*
X960922Y52661D01*
X960342Y52462D01*
X959757Y52276D01*
X959168Y52106D01*
X958575Y51949D01*
X957978Y51807D01*
X957377Y51680D01*
X956774Y51568D01*
X956168Y51471D01*
X955560Y51388D01*
X954950Y51320D01*
X954339Y51268D01*
X953727Y51230D01*
X953114Y51208D01*
X952500Y51200D01*
X951886Y51208D01*
X951273Y51230D01*
X950661Y51268D01*
X950050Y51320D01*
X949440Y51388D01*
X948832Y51471D01*
X948226Y51568D01*
X947623Y51680D01*
X947022Y51807D01*
X946425Y51949D01*
X945832Y52106D01*
X945243Y52276D01*
X944658Y52462D01*
X944078Y52661D01*
X943503Y52875D01*
X942933Y53103D01*
X942369Y53345D01*
X941811Y53600D01*
X941260Y53869D01*
X940715Y54152D01*
X940178Y54448D01*
X939647Y54757D01*
X939125Y55079D01*
X938611Y55413D01*
X938105Y55760D01*
X937608Y56120D01*
X937119Y56491D01*
X936640Y56875D01*
X936171Y57270D01*
X935711Y57676D01*
X935261Y58094D01*
X934822Y58522D01*
X934394Y58961D01*
X933976Y59411D01*
X933570Y59871D01*
X933175Y60340D01*
X932791Y60819D01*
X932420Y61308D01*
X932060Y61805D01*
X931713Y62311D01*
X931379Y62825D01*
X931057Y63347D01*
X930748Y63878D01*
X930452Y64415D01*
X930169Y64960D01*
X929900Y65511D01*
X929645Y66069D01*
X929403Y66633D01*
X929175Y67203D01*
X928961Y67778D01*
X928762Y68358D01*
X928576Y68943D01*
X928406Y69532D01*
X928249Y70125D01*
X928107Y70722D01*
X927980Y71323D01*
X927868Y71926D01*
X927771Y72532D01*
X927688Y73140D01*
X927620Y73750D01*
X927568Y74361D01*
X927530Y74973D01*
X927508Y75586D01*
X927500Y76200D01*
X959920Y62230D02*
X970080Y62230D01*
X945080Y62230D02*
X934920Y62230D01*
X940000Y57150D02*
X940000Y67310D01*
X890700Y72100D02*
X820700Y72100D01*
X890700Y72100D02*
X890700Y10100D01*
X890700Y2100D01*
X820700Y2100D01*
X820700Y10100D01*
X820700Y72100D01*
X820700Y10100D02*
X890700Y10100D01*
X532130Y302260D02*
X519430Y302260D01*
X532130Y302260D02*
X538480Y295910D01*
X538480Y283210D02*
X532130Y276860D01*
X494030Y302260D02*
X487680Y295910D01*
X494030Y302260D02*
X506730Y302260D01*
X513080Y295910D01*
X513080Y283210D02*
X506730Y276860D01*
X494030Y276860D01*
X487680Y283210D01*
X513080Y295910D02*
X519430Y302260D01*
X513080Y283210D02*
X519430Y276860D01*
X532130Y276860D01*
X455930Y302260D02*
X443230Y302260D01*
X455930Y302260D02*
X462280Y295910D01*
X462280Y283210D02*
X455930Y276860D01*
X462280Y295910D02*
X468630Y302260D01*
X481330Y302260D01*
X487680Y295910D01*
X487680Y283210D02*
X481330Y276860D01*
X468630Y276860D01*
X462280Y283210D01*
X417830Y302260D02*
X411480Y295910D01*
X417830Y302260D02*
X430530Y302260D01*
X436880Y295910D01*
X436880Y283210D02*
X430530Y276860D01*
X417830Y276860D01*
X411480Y283210D01*
X436880Y295910D02*
X443230Y302260D01*
X436880Y283210D02*
X443230Y276860D01*
X455930Y276860D01*
X379730Y302260D02*
X367030Y302260D01*
X379730Y302260D02*
X386080Y295910D01*
X386080Y283210D02*
X379730Y276860D01*
X386080Y295910D02*
X392430Y302260D01*
X405130Y302260D01*
X411480Y295910D01*
X411480Y283210D02*
X405130Y276860D01*
X392430Y276860D01*
X386080Y283210D01*
X360680Y283210D02*
X360680Y295910D01*
X367030Y302260D01*
X360680Y283210D02*
X367030Y276860D01*
X379730Y276860D01*
X697230Y302260D02*
X709930Y302260D01*
X716280Y295910D01*
X716280Y283210D02*
X709930Y276860D01*
X671830Y302260D02*
X665480Y295910D01*
X671830Y302260D02*
X684530Y302260D01*
X690880Y295910D01*
X690880Y283210D02*
X684530Y276860D01*
X671830Y276860D01*
X665480Y283210D01*
X690880Y295910D02*
X697230Y302260D01*
X690880Y283210D02*
X697230Y276860D01*
X709930Y276860D01*
X633730Y302260D02*
X621030Y302260D01*
X633730Y302260D02*
X640080Y295910D01*
X640080Y283210D02*
X633730Y276860D01*
X640080Y295910D02*
X646430Y302260D01*
X659130Y302260D01*
X665480Y295910D01*
X665480Y283210D02*
X659130Y276860D01*
X646430Y276860D01*
X640080Y283210D01*
X595630Y302260D02*
X589280Y295910D01*
X595630Y302260D02*
X608330Y302260D01*
X614680Y295910D01*
X614680Y283210D02*
X608330Y276860D01*
X595630Y276860D01*
X589280Y283210D01*
X614680Y295910D02*
X621030Y302260D01*
X614680Y283210D02*
X621030Y276860D01*
X633730Y276860D01*
X557530Y302260D02*
X544830Y302260D01*
X557530Y302260D02*
X563880Y295910D01*
X563880Y283210D02*
X557530Y276860D01*
X563880Y295910D02*
X570230Y302260D01*
X582930Y302260D01*
X589280Y295910D01*
X589280Y283210D02*
X582930Y276860D01*
X570230Y276860D01*
X563880Y283210D01*
X544830Y302260D02*
X538480Y295910D01*
X538480Y283210D02*
X544830Y276860D01*
X557530Y276860D01*
X716280Y295910D02*
X722630Y302260D01*
X735330Y302260D01*
X741680Y295910D01*
X741680Y283210D01*
X735330Y276860D01*
X722630Y276860D01*
X716280Y283210D01*
X255270Y238760D02*
X242570Y238760D01*
X255270Y238760D02*
X261620Y232410D01*
X261620Y219710D02*
X255270Y213360D01*
X217170Y238760D02*
X210820Y232410D01*
X217170Y238760D02*
X229870Y238760D01*
X236220Y232410D01*
X236220Y219710D02*
X229870Y213360D01*
X217170Y213360D01*
X210820Y219710D01*
X236220Y232410D02*
X242570Y238760D01*
X236220Y219710D02*
X242570Y213360D01*
X255270Y213360D01*
X179070Y238760D02*
X166370Y238760D01*
X179070Y238760D02*
X185420Y232410D01*
X185420Y219710D02*
X179070Y213360D01*
X185420Y232410D02*
X191770Y238760D01*
X204470Y238760D01*
X210820Y232410D01*
X210820Y219710D02*
X204470Y213360D01*
X191770Y213360D01*
X185420Y219710D01*
X140970Y238760D02*
X134620Y232410D01*
X140970Y238760D02*
X153670Y238760D01*
X160020Y232410D01*
X160020Y219710D02*
X153670Y213360D01*
X140970Y213360D01*
X134620Y219710D01*
X160020Y232410D02*
X166370Y238760D01*
X160020Y219710D02*
X166370Y213360D01*
X179070Y213360D01*
X102870Y238760D02*
X90170Y238760D01*
X102870Y238760D02*
X109220Y232410D01*
X109220Y219710D02*
X102870Y213360D01*
X109220Y232410D02*
X115570Y238760D01*
X128270Y238760D01*
X134620Y232410D01*
X134620Y219710D02*
X128270Y213360D01*
X115570Y213360D01*
X109220Y219710D01*
X83820Y219710D02*
X83820Y232410D01*
X90170Y238760D01*
X83820Y219710D02*
X90170Y213360D01*
X102870Y213360D01*
X420370Y238760D02*
X433070Y238760D01*
X439420Y232410D01*
X439420Y219710D02*
X433070Y213360D01*
X394970Y238760D02*
X388620Y232410D01*
X394970Y238760D02*
X407670Y238760D01*
X414020Y232410D01*
X414020Y219710D02*
X407670Y213360D01*
X394970Y213360D01*
X388620Y219710D01*
X414020Y232410D02*
X420370Y238760D01*
X414020Y219710D02*
X420370Y213360D01*
X433070Y213360D01*
X356870Y238760D02*
X344170Y238760D01*
X356870Y238760D02*
X363220Y232410D01*
X363220Y219710D02*
X356870Y213360D01*
X363220Y232410D02*
X369570Y238760D01*
X382270Y238760D01*
X388620Y232410D01*
X388620Y219710D02*
X382270Y213360D01*
X369570Y213360D01*
X363220Y219710D01*
X318770Y238760D02*
X312420Y232410D01*
X318770Y238760D02*
X331470Y238760D01*
X337820Y232410D01*
X337820Y219710D02*
X331470Y213360D01*
X318770Y213360D01*
X312420Y219710D01*
X337820Y232410D02*
X344170Y238760D01*
X337820Y219710D02*
X344170Y213360D01*
X356870Y213360D01*
X280670Y238760D02*
X267970Y238760D01*
X280670Y238760D02*
X287020Y232410D01*
X287020Y219710D02*
X280670Y213360D01*
X287020Y232410D02*
X293370Y238760D01*
X306070Y238760D01*
X312420Y232410D01*
X312420Y219710D02*
X306070Y213360D01*
X293370Y213360D01*
X287020Y219710D01*
X267970Y238760D02*
X261620Y232410D01*
X261620Y219710D02*
X267970Y213360D01*
X280670Y213360D01*
X439420Y232410D02*
X445770Y238760D01*
X458470Y238760D01*
X464820Y232410D01*
X464820Y219710D01*
X458470Y213360D01*
X445770Y213360D01*
X439420Y219710D01*
X344170Y292100D02*
X337820Y298450D01*
X337820Y311150D01*
X344170Y317500D01*
X356870Y317500D02*
X363220Y311150D01*
X363220Y298450D01*
X356870Y292100D01*
X337820Y260350D02*
X337820Y247650D01*
X337820Y260350D02*
X344170Y266700D01*
X356870Y266700D02*
X363220Y260350D01*
X344170Y266700D02*
X337820Y273050D01*
X337820Y285750D01*
X344170Y292100D01*
X356870Y292100D02*
X363220Y285750D01*
X363220Y273050D01*
X356870Y266700D01*
X356870Y241300D02*
X344170Y241300D01*
X337820Y247650D01*
X356870Y241300D02*
X363220Y247650D01*
X363220Y260350D01*
X356870Y317500D02*
X344170Y317500D01*
X64770Y238760D02*
X58420Y232410D01*
X64770Y238760D02*
X77470Y238760D01*
X83820Y232410D01*
X83820Y219710D02*
X77470Y213360D01*
X64770Y213360D01*
X58420Y219710D01*
X26670Y238760D02*
X13970Y238760D01*
X26670Y238760D02*
X33020Y232410D01*
X33020Y219710D02*
X26670Y213360D01*
X33020Y232410D02*
X39370Y238760D01*
X52070Y238760D01*
X58420Y232410D01*
X58420Y219710D02*
X52070Y213360D01*
X39370Y213360D01*
X33020Y219710D01*
X7620Y219710D02*
X7620Y232410D01*
X13970Y238760D01*
X7620Y219710D02*
X13970Y213360D01*
X26670Y213360D01*
X83820Y219710D02*
X83820Y232410D01*
X356870Y342900D02*
X363220Y336550D01*
X363220Y323850D01*
X356870Y317500D01*
X344170Y317500D02*
X337820Y323850D01*
X337820Y336550D01*
X344170Y342900D01*
X363220Y374650D02*
X363220Y387350D01*
X363220Y374650D02*
X356870Y368300D01*
X344170Y368300D02*
X337820Y374650D01*
X356870Y368300D02*
X363220Y361950D01*
X363220Y349250D01*
X356870Y342900D01*
X344170Y342900D02*
X337820Y349250D01*
X337820Y361950D01*
X344170Y368300D01*
X344170Y393700D02*
X356870Y393700D01*
X363220Y387350D01*
X344170Y393700D02*
X337820Y387350D01*
X337820Y374650D01*
X344170Y317500D02*
X356870Y317500D01*
X483870Y213360D02*
X490220Y219710D01*
X483870Y213360D02*
X471170Y213360D01*
X464820Y219710D01*
X464820Y232410D02*
X471170Y238760D01*
X483870Y238760D01*
X490220Y232410D01*
X521970Y213360D02*
X534670Y213360D01*
X521970Y213360D02*
X515620Y219710D01*
X515620Y232410D02*
X521970Y238760D01*
X515620Y219710D02*
X509270Y213360D01*
X496570Y213360D01*
X490220Y219710D01*
X490220Y232410D02*
X496570Y238760D01*
X509270Y238760D01*
X515620Y232410D01*
X541020Y232410D02*
X541020Y219710D01*
X534670Y213360D01*
X541020Y232410D02*
X534670Y238760D01*
X521970Y238760D01*
X464820Y232410D02*
X464820Y219710D01*
X535940Y257810D02*
X542290Y251460D01*
X535940Y257810D02*
X535940Y270510D01*
X542290Y276860D01*
X554990Y276860D02*
X561340Y270510D01*
X561340Y257810D01*
X554990Y251460D01*
X535940Y219710D02*
X535940Y207010D01*
X535940Y219710D02*
X542290Y226060D01*
X554990Y226060D02*
X561340Y219710D01*
X542290Y226060D02*
X535940Y232410D01*
X535940Y245110D01*
X542290Y251460D01*
X554990Y251460D02*
X561340Y245110D01*
X561340Y232410D01*
X554990Y226060D01*
X554990Y200660D02*
X542290Y200660D01*
X535940Y207010D01*
X554990Y200660D02*
X561340Y207010D01*
X561340Y219710D01*
X554990Y276860D02*
X542290Y276860D01*
X556260Y199390D02*
X562610Y193040D01*
X556260Y199390D02*
X556260Y212090D01*
X562610Y218440D01*
X575310Y218440D02*
X581660Y212090D01*
X581660Y199390D01*
X575310Y193040D01*
X556260Y161290D02*
X556260Y148590D01*
X556260Y161290D02*
X562610Y167640D01*
X575310Y167640D02*
X581660Y161290D01*
X562610Y167640D02*
X556260Y173990D01*
X556260Y186690D01*
X562610Y193040D01*
X575310Y193040D02*
X581660Y186690D01*
X581660Y173990D01*
X575310Y167640D01*
X575310Y142240D02*
X562610Y142240D01*
X556260Y148590D01*
X575310Y142240D02*
X581660Y148590D01*
X581660Y161290D01*
X575310Y218440D02*
X562610Y218440D01*
X556260Y125730D02*
X562610Y119380D01*
X556260Y125730D02*
X556260Y138430D01*
X562610Y144780D01*
X575310Y144780D02*
X581660Y138430D01*
X581660Y125730D01*
X575310Y119380D01*
X556260Y87630D02*
X556260Y74930D01*
X556260Y87630D02*
X562610Y93980D01*
X575310Y93980D02*
X581660Y87630D01*
X562610Y93980D02*
X556260Y100330D01*
X556260Y113030D01*
X562610Y119380D01*
X575310Y119380D02*
X581660Y113030D01*
X581660Y100330D01*
X575310Y93980D01*
X575310Y68580D02*
X562610Y68580D01*
X556260Y74930D01*
X575310Y68580D02*
X581660Y74930D01*
X581660Y87630D01*
X575310Y144780D02*
X562610Y144780D01*
X556260Y36830D02*
X556260Y24130D01*
X556260Y36830D02*
X562610Y43180D01*
X575310Y43180D02*
X581660Y36830D01*
X562610Y43180D02*
X556260Y49530D01*
X556260Y62230D01*
X562610Y68580D01*
X575310Y68580D02*
X581660Y62230D01*
X581660Y49530D01*
X575310Y43180D01*
X575310Y17780D02*
X562610Y17780D01*
X556260Y24130D01*
X575310Y17780D02*
X581660Y24130D01*
X581660Y36830D01*
X575310Y68580D02*
X562610Y68580D01*
X337820Y400050D02*
X337820Y412750D01*
X344170Y419100D01*
X356870Y419100D02*
X363220Y412750D01*
X344170Y419100D02*
X337820Y425450D01*
X337820Y438150D01*
X344170Y444500D01*
X356870Y444500D02*
X363220Y438150D01*
X363220Y425450D01*
X356870Y419100D01*
X356870Y393700D02*
X344170Y393700D01*
X337820Y400050D01*
X356870Y393700D02*
X363220Y400050D01*
X363220Y412750D01*
X356870Y444500D02*
X344170Y444500D01*
X181610Y474980D02*
X168910Y474980D01*
X181610Y474980D02*
X187960Y468630D01*
X187960Y455930D02*
X181610Y449580D01*
X143510Y474980D02*
X137160Y468630D01*
X143510Y474980D02*
X156210Y474980D01*
X162560Y468630D01*
X162560Y455930D02*
X156210Y449580D01*
X143510Y449580D01*
X137160Y455930D01*
X162560Y468630D02*
X168910Y474980D01*
X162560Y455930D02*
X168910Y449580D01*
X181610Y449580D01*
X105410Y474980D02*
X92710Y474980D01*
X105410Y474980D02*
X111760Y468630D01*
X111760Y455930D02*
X105410Y449580D01*
X111760Y468630D02*
X118110Y474980D01*
X130810Y474980D01*
X137160Y468630D01*
X137160Y455930D02*
X130810Y449580D01*
X118110Y449580D01*
X111760Y455930D01*
X67310Y474980D02*
X60960Y468630D01*
X67310Y474980D02*
X80010Y474980D01*
X86360Y468630D01*
X86360Y455930D02*
X80010Y449580D01*
X67310Y449580D01*
X60960Y455930D01*
X86360Y468630D02*
X92710Y474980D01*
X86360Y455930D02*
X92710Y449580D01*
X105410Y449580D01*
X29210Y474980D02*
X16510Y474980D01*
X29210Y474980D02*
X35560Y468630D01*
X35560Y455930D02*
X29210Y449580D01*
X35560Y468630D02*
X41910Y474980D01*
X54610Y474980D01*
X60960Y468630D01*
X60960Y455930D02*
X54610Y449580D01*
X41910Y449580D01*
X35560Y455930D01*
X10160Y455930D02*
X10160Y468630D01*
X16510Y474980D01*
X10160Y455930D02*
X16510Y449580D01*
X29210Y449580D01*
X346710Y474980D02*
X359410Y474980D01*
X365760Y468630D01*
X365760Y455930D02*
X359410Y449580D01*
X321310Y474980D02*
X314960Y468630D01*
X321310Y474980D02*
X334010Y474980D01*
X340360Y468630D01*
X340360Y455930D02*
X334010Y449580D01*
X321310Y449580D01*
X314960Y455930D01*
X340360Y468630D02*
X346710Y474980D01*
X340360Y455930D02*
X346710Y449580D01*
X359410Y449580D01*
X283210Y474980D02*
X270510Y474980D01*
X283210Y474980D02*
X289560Y468630D01*
X289560Y455930D02*
X283210Y449580D01*
X289560Y468630D02*
X295910Y474980D01*
X308610Y474980D01*
X314960Y468630D01*
X314960Y455930D02*
X308610Y449580D01*
X295910Y449580D01*
X289560Y455930D01*
X245110Y474980D02*
X238760Y468630D01*
X245110Y474980D02*
X257810Y474980D01*
X264160Y468630D01*
X264160Y455930D02*
X257810Y449580D01*
X245110Y449580D01*
X238760Y455930D01*
X264160Y468630D02*
X270510Y474980D01*
X264160Y455930D02*
X270510Y449580D01*
X283210Y449580D01*
X207010Y474980D02*
X194310Y474980D01*
X207010Y474980D02*
X213360Y468630D01*
X213360Y455930D02*
X207010Y449580D01*
X213360Y468630D02*
X219710Y474980D01*
X232410Y474980D01*
X238760Y468630D01*
X238760Y455930D02*
X232410Y449580D01*
X219710Y449580D01*
X213360Y455930D01*
X194310Y474980D02*
X187960Y468630D01*
X187960Y455930D02*
X194310Y449580D01*
X207010Y449580D01*
X365760Y468630D02*
X372110Y474980D01*
X384810Y474980D01*
X391160Y468630D01*
X391160Y455930D01*
X384810Y449580D01*
X372110Y449580D01*
X365760Y455930D01*
X104140Y273050D02*
X104140Y260350D01*
X256540Y260350D02*
X256540Y273050D01*
X615950Y528320D02*
X622300Y521970D01*
X615950Y528320D02*
X603250Y528320D01*
X596900Y521970D01*
X596900Y509270D01*
X603250Y502920D01*
X615950Y502920D01*
X622300Y509270D01*
X622300Y521970D01*
X615950Y474980D02*
X622300Y468630D01*
X615950Y474980D02*
X603250Y474980D01*
X596900Y468630D01*
X596900Y455930D01*
X603250Y449580D01*
X615950Y449580D01*
X622300Y455930D01*
X622300Y468630D01*
X698500Y755650D02*
X698500Y768350D01*
X704850Y774700D01*
X717550Y774700D02*
X723900Y768350D01*
X698500Y730250D02*
X704850Y723900D01*
X698500Y730250D02*
X698500Y742950D01*
X704850Y749300D01*
X717550Y749300D02*
X723900Y742950D01*
X723900Y730250D01*
X717550Y723900D01*
X704850Y749300D02*
X698500Y755650D01*
X717550Y749300D02*
X723900Y755650D01*
X723900Y768350D01*
X698500Y692150D02*
X698500Y679450D01*
X698500Y692150D02*
X704850Y698500D01*
X717550Y698500D02*
X723900Y692150D01*
X704850Y698500D02*
X698500Y704850D01*
X698500Y717550D01*
X704850Y723900D01*
X717550Y723900D02*
X723900Y717550D01*
X723900Y704850D01*
X717550Y698500D01*
X698500Y654050D02*
X704850Y647700D01*
X698500Y654050D02*
X698500Y666750D01*
X704850Y673100D01*
X717550Y673100D02*
X723900Y666750D01*
X723900Y654050D01*
X717550Y647700D01*
X704850Y673100D02*
X698500Y679450D01*
X717550Y673100D02*
X723900Y679450D01*
X723900Y692150D01*
X698500Y615950D02*
X698500Y603250D01*
X698500Y615950D02*
X704850Y622300D01*
X717550Y622300D02*
X723900Y615950D01*
X704850Y622300D02*
X698500Y628650D01*
X698500Y641350D01*
X704850Y647700D01*
X717550Y647700D02*
X723900Y641350D01*
X723900Y628650D01*
X717550Y622300D01*
X717550Y596900D02*
X704850Y596900D01*
X698500Y603250D01*
X717550Y596900D02*
X723900Y603250D01*
X723900Y615950D01*
X698500Y781050D02*
X698500Y793750D01*
X704850Y800100D01*
X717550Y800100D01*
X723900Y793750D01*
X704850Y774700D02*
X698500Y781050D01*
X717550Y774700D02*
X723900Y781050D01*
X723900Y793750D01*
X469900Y768350D02*
X469900Y755650D01*
X469900Y768350D02*
X476250Y774700D01*
X488950Y774700D02*
X495300Y768350D01*
X469900Y730250D02*
X476250Y723900D01*
X469900Y730250D02*
X469900Y742950D01*
X476250Y749300D01*
X488950Y749300D02*
X495300Y742950D01*
X495300Y730250D01*
X488950Y723900D01*
X476250Y749300D02*
X469900Y755650D01*
X488950Y749300D02*
X495300Y755650D01*
X495300Y768350D01*
X469900Y692150D02*
X469900Y679450D01*
X469900Y692150D02*
X476250Y698500D01*
X488950Y698500D02*
X495300Y692150D01*
X476250Y698500D02*
X469900Y704850D01*
X469900Y717550D01*
X476250Y723900D01*
X488950Y723900D02*
X495300Y717550D01*
X495300Y704850D01*
X488950Y698500D01*
X469900Y654050D02*
X476250Y647700D01*
X469900Y654050D02*
X469900Y666750D01*
X476250Y673100D01*
X488950Y673100D02*
X495300Y666750D01*
X495300Y654050D01*
X488950Y647700D01*
X476250Y673100D02*
X469900Y679450D01*
X488950Y673100D02*
X495300Y679450D01*
X495300Y692150D01*
X469900Y615950D02*
X469900Y603250D01*
X469900Y615950D02*
X476250Y622300D01*
X488950Y622300D02*
X495300Y615950D01*
X476250Y622300D02*
X469900Y628650D01*
X469900Y641350D01*
X476250Y647700D01*
X488950Y647700D02*
X495300Y641350D01*
X495300Y628650D01*
X488950Y622300D01*
X488950Y596900D02*
X476250Y596900D01*
X469900Y603250D01*
X488950Y596900D02*
X495300Y603250D01*
X495300Y615950D01*
X469900Y781050D02*
X469900Y793750D01*
X476250Y800100D01*
X488950Y800100D01*
X495300Y793750D01*
X476250Y774700D02*
X469900Y781050D01*
X488950Y774700D02*
X495300Y781050D01*
X495300Y793750D01*
X840740Y417830D02*
X840740Y405130D01*
X840740Y417830D02*
X847090Y424180D01*
X859790Y424180D02*
X866140Y417830D01*
X847090Y424180D02*
X840740Y430530D01*
X840740Y443230D01*
X847090Y449580D01*
X859790Y449580D02*
X866140Y443230D01*
X866140Y430530D01*
X859790Y424180D01*
X840740Y379730D02*
X847090Y373380D01*
X840740Y379730D02*
X840740Y392430D01*
X847090Y398780D01*
X859790Y398780D02*
X866140Y392430D01*
X866140Y379730D01*
X859790Y373380D01*
X847090Y398780D02*
X840740Y405130D01*
X859790Y398780D02*
X866140Y405130D01*
X866140Y417830D01*
X840740Y341630D02*
X840740Y328930D01*
X840740Y341630D02*
X847090Y347980D01*
X859790Y347980D02*
X866140Y341630D01*
X847090Y347980D02*
X840740Y354330D01*
X840740Y367030D01*
X847090Y373380D01*
X859790Y373380D02*
X866140Y367030D01*
X866140Y354330D01*
X859790Y347980D01*
X859790Y322580D02*
X847090Y322580D01*
X840740Y328930D01*
X859790Y322580D02*
X866140Y328930D01*
X866140Y341630D01*
X859790Y449580D02*
X847090Y449580D01*
X938530Y464820D02*
X951230Y464820D01*
X957580Y458470D01*
X957580Y445770D02*
X951230Y439420D01*
X957580Y458470D02*
X963930Y464820D01*
X976630Y464820D01*
X982980Y458470D01*
X982980Y445770D02*
X976630Y439420D01*
X963930Y439420D01*
X957580Y445770D01*
X913130Y464820D02*
X906780Y458470D01*
X913130Y464820D02*
X925830Y464820D01*
X932180Y458470D01*
X932180Y445770D02*
X925830Y439420D01*
X913130Y439420D01*
X906780Y445770D01*
X932180Y458470D02*
X938530Y464820D01*
X932180Y445770D02*
X938530Y439420D01*
X951230Y439420D01*
X875030Y464820D02*
X862330Y464820D01*
X875030Y464820D02*
X881380Y458470D01*
X881380Y445770D02*
X875030Y439420D01*
X881380Y458470D02*
X887730Y464820D01*
X900430Y464820D01*
X906780Y458470D01*
X906780Y445770D02*
X900430Y439420D01*
X887730Y439420D01*
X881380Y445770D01*
X855980Y445770D02*
X855980Y458470D01*
X862330Y464820D01*
X855980Y445770D02*
X862330Y439420D01*
X875030Y439420D01*
X982980Y445770D02*
X982980Y458470D01*
X200660Y636270D02*
X200660Y648970D01*
X207010Y655320D01*
X219710Y655320D02*
X226060Y648970D01*
X200660Y610870D02*
X207010Y604520D01*
X200660Y610870D02*
X200660Y623570D01*
X207010Y629920D01*
X219710Y629920D02*
X226060Y623570D01*
X226060Y610870D01*
X219710Y604520D01*
X207010Y629920D02*
X200660Y636270D01*
X219710Y629920D02*
X226060Y636270D01*
X226060Y648970D01*
X200660Y572770D02*
X200660Y560070D01*
X200660Y572770D02*
X207010Y579120D01*
X219710Y579120D02*
X226060Y572770D01*
X207010Y579120D02*
X200660Y585470D01*
X200660Y598170D01*
X207010Y604520D01*
X219710Y604520D02*
X226060Y598170D01*
X226060Y585470D01*
X219710Y579120D01*
X200660Y534670D02*
X207010Y528320D01*
X200660Y534670D02*
X200660Y547370D01*
X207010Y553720D01*
X219710Y553720D02*
X226060Y547370D01*
X226060Y534670D01*
X219710Y528320D01*
X207010Y553720D02*
X200660Y560070D01*
X219710Y553720D02*
X226060Y560070D01*
X226060Y572770D01*
X200660Y496570D02*
X200660Y483870D01*
X200660Y496570D02*
X207010Y502920D01*
X219710Y502920D02*
X226060Y496570D01*
X207010Y502920D02*
X200660Y509270D01*
X200660Y521970D01*
X207010Y528320D01*
X219710Y528320D02*
X226060Y521970D01*
X226060Y509270D01*
X219710Y502920D01*
X219710Y477520D02*
X207010Y477520D01*
X200660Y483870D01*
X219710Y477520D02*
X226060Y483870D01*
X226060Y496570D01*
X200660Y814070D02*
X200660Y826770D01*
X207010Y833120D01*
X219710Y833120D02*
X226060Y826770D01*
X200660Y788670D02*
X207010Y782320D01*
X200660Y788670D02*
X200660Y801370D01*
X207010Y807720D01*
X219710Y807720D02*
X226060Y801370D01*
X226060Y788670D01*
X219710Y782320D01*
X207010Y807720D02*
X200660Y814070D01*
X219710Y807720D02*
X226060Y814070D01*
X226060Y826770D01*
X200660Y750570D02*
X200660Y737870D01*
X200660Y750570D02*
X207010Y756920D01*
X219710Y756920D02*
X226060Y750570D01*
X207010Y756920D02*
X200660Y763270D01*
X200660Y775970D01*
X207010Y782320D01*
X219710Y782320D02*
X226060Y775970D01*
X226060Y763270D01*
X219710Y756920D01*
X200660Y712470D02*
X207010Y706120D01*
X200660Y712470D02*
X200660Y725170D01*
X207010Y731520D01*
X219710Y731520D02*
X226060Y725170D01*
X226060Y712470D01*
X219710Y706120D01*
X207010Y731520D02*
X200660Y737870D01*
X219710Y731520D02*
X226060Y737870D01*
X226060Y750570D01*
X200660Y674370D02*
X200660Y661670D01*
X200660Y674370D02*
X207010Y680720D01*
X219710Y680720D02*
X226060Y674370D01*
X207010Y680720D02*
X200660Y687070D01*
X200660Y699770D01*
X207010Y706120D01*
X219710Y706120D02*
X226060Y699770D01*
X226060Y687070D01*
X219710Y680720D01*
X200660Y661670D02*
X207010Y655320D01*
X219710Y655320D02*
X226060Y661670D01*
X226060Y674370D01*
X219710Y833120D02*
X207010Y833120D01*
X890270Y320040D02*
X902970Y320040D01*
X909320Y313690D01*
X909320Y300990D02*
X902970Y294640D01*
X864870Y320040D02*
X858520Y313690D01*
X864870Y320040D02*
X877570Y320040D01*
X883920Y313690D01*
X883920Y300990D02*
X877570Y294640D01*
X864870Y294640D01*
X858520Y300990D01*
X883920Y313690D02*
X890270Y320040D01*
X883920Y300990D02*
X890270Y294640D01*
X902970Y294640D01*
X826770Y320040D02*
X814070Y320040D01*
X826770Y320040D02*
X833120Y313690D01*
X833120Y300990D02*
X826770Y294640D01*
X833120Y313690D02*
X839470Y320040D01*
X852170Y320040D01*
X858520Y313690D01*
X858520Y300990D02*
X852170Y294640D01*
X839470Y294640D01*
X833120Y300990D01*
X788670Y320040D02*
X782320Y313690D01*
X788670Y320040D02*
X801370Y320040D01*
X807720Y313690D01*
X807720Y300990D02*
X801370Y294640D01*
X788670Y294640D01*
X782320Y300990D01*
X807720Y313690D02*
X814070Y320040D01*
X807720Y300990D02*
X814070Y294640D01*
X826770Y294640D01*
X750570Y320040D02*
X737870Y320040D01*
X750570Y320040D02*
X756920Y313690D01*
X756920Y300990D02*
X750570Y294640D01*
X756920Y313690D02*
X763270Y320040D01*
X775970Y320040D01*
X782320Y313690D01*
X782320Y300990D02*
X775970Y294640D01*
X763270Y294640D01*
X756920Y300990D01*
X731520Y300990D02*
X731520Y313690D01*
X737870Y320040D01*
X731520Y300990D02*
X737870Y294640D01*
X750570Y294640D01*
X915670Y320040D02*
X928370Y320040D01*
X934720Y313690D01*
X934720Y300990D02*
X928370Y294640D01*
X909320Y313690D02*
X915670Y320040D01*
X909320Y300990D02*
X915670Y294640D01*
X928370Y294640D01*
X941070Y320040D02*
X953770Y320040D01*
X960120Y313690D01*
X960120Y300990D02*
X953770Y294640D01*
X934720Y313690D02*
X941070Y320040D01*
X934720Y300990D02*
X941070Y294640D01*
X953770Y294640D01*
X966470Y320040D02*
X979170Y320040D01*
X985520Y313690D01*
X985520Y300990D01*
X979170Y294640D01*
X960120Y313690D02*
X966470Y320040D01*
X960120Y300990D02*
X966470Y294640D01*
X979170Y294640D01*
M02*
