G04 EAGLE Gerber RS-274X export*
G75*
%MOMM*%
%FSLAX34Y34*%
%LPD*%
%INSoldermask Bottom*%
%IPPOS*%
%AMOC8*
5,1,8,0,0,1.08239X$1,22.5*%
G01*
%ADD10C,2.082800*%
%ADD11P,1.649562X8X202.500000*%
%ADD12C,1.993900*%
%ADD13C,2.006600*%
%ADD14P,1.649562X8X112.500000*%
%ADD15R,1.854200X1.854200*%
%ADD16C,1.854200*%
%ADD17R,2.235200X2.235200*%
%ADD18C,2.235200*%
%ADD19C,2.082800*%
%ADD20C,1.270000*%


D10*
X444500Y182880D03*
X419100Y182880D03*
X393700Y182880D03*
X368300Y182880D03*
X342900Y182880D03*
X317500Y182880D03*
X292100Y182880D03*
X266700Y182880D03*
X241300Y182880D03*
X215900Y182880D03*
X190500Y182880D03*
X165100Y182880D03*
X139700Y182880D03*
X114300Y182880D03*
X88900Y182880D03*
X88900Y30480D03*
X114300Y30480D03*
X139700Y30480D03*
X165100Y30480D03*
X190500Y30480D03*
X215900Y30480D03*
X241300Y30480D03*
X266700Y30480D03*
X292100Y30480D03*
X317500Y30480D03*
X342900Y30480D03*
X368300Y30480D03*
X393700Y30480D03*
X419100Y30480D03*
X444500Y30480D03*
X63500Y63500D03*
X63500Y88900D03*
X63500Y114300D03*
X63500Y139700D03*
X480060Y149860D03*
X480060Y124460D03*
X480060Y99060D03*
X480060Y73660D03*
X535940Y136398D03*
X535940Y83820D03*
X20320Y141478D03*
X20320Y88900D03*
X622300Y25400D03*
X647700Y25400D03*
X673100Y25400D03*
X698500Y25400D03*
X723900Y25400D03*
X749300Y25400D03*
X774700Y25400D03*
X800100Y25400D03*
X800100Y254000D03*
X774700Y254000D03*
X749300Y254000D03*
X723900Y254000D03*
X698500Y254000D03*
X673100Y254000D03*
X647700Y254000D03*
X622300Y254000D03*
X604520Y114300D03*
X604520Y139700D03*
X604520Y165100D03*
X604520Y190500D03*
X850900Y139700D03*
X850900Y165100D03*
X850900Y190500D03*
X850900Y215900D03*
D11*
X800100Y190500D03*
X673100Y190500D03*
D10*
X431800Y419100D03*
X457200Y419100D03*
X482600Y419100D03*
X508000Y419100D03*
X533400Y419100D03*
X558800Y419100D03*
X584200Y419100D03*
X609600Y419100D03*
X635000Y419100D03*
X660400Y419100D03*
X685800Y419100D03*
X711200Y419100D03*
X736600Y419100D03*
X762000Y419100D03*
X787400Y419100D03*
X787400Y571500D03*
X762000Y571500D03*
X736600Y571500D03*
X711200Y571500D03*
X685800Y571500D03*
X660400Y571500D03*
X635000Y571500D03*
X609600Y571500D03*
X584200Y571500D03*
X558800Y571500D03*
X533400Y571500D03*
X508000Y571500D03*
X482600Y571500D03*
X457200Y571500D03*
X431800Y571500D03*
X457200Y355600D03*
X482600Y355600D03*
X508000Y355600D03*
X533400Y355600D03*
X558800Y355600D03*
X660400Y355600D03*
X685800Y355600D03*
X711200Y355600D03*
X736600Y355600D03*
X762000Y355600D03*
D12*
X391478Y573532D02*
X373571Y573532D01*
X266510Y573532D02*
X248603Y573532D01*
X373571Y523748D02*
X391478Y523748D01*
X266510Y523748D02*
X248603Y523748D01*
D13*
X320040Y593598D03*
X320040Y503682D03*
D12*
X832803Y518668D02*
X850710Y518668D01*
X957771Y518668D02*
X975678Y518668D01*
X850710Y568452D02*
X832803Y568452D01*
X957771Y568452D02*
X975678Y568452D01*
D13*
X904240Y498602D03*
X904240Y588518D03*
D10*
X63500Y317500D03*
X63500Y342900D03*
X63500Y368300D03*
X63500Y393700D03*
X38100Y393700D03*
X38100Y368300D03*
X38100Y342900D03*
X38100Y317500D03*
X172720Y426720D03*
X147320Y426720D03*
X121920Y426720D03*
X302260Y373380D03*
X302260Y347980D03*
X302260Y322580D03*
X302260Y297180D03*
X284480Y426720D03*
X309880Y426720D03*
D14*
X121920Y360680D03*
X102870Y347980D03*
X121920Y335280D03*
D11*
X254000Y304800D03*
X127000Y304800D03*
X254000Y396240D03*
X127000Y396240D03*
D15*
X233880Y347980D03*
D16*
X258880Y347980D03*
D10*
X386080Y83820D03*
X360680Y83820D03*
X335280Y83820D03*
X309880Y83820D03*
X284480Y83820D03*
X259080Y83820D03*
X233680Y83820D03*
X208280Y83820D03*
X182880Y83820D03*
X157480Y83820D03*
X132080Y83820D03*
X947420Y139700D03*
X947420Y165100D03*
X947420Y190500D03*
X947420Y215900D03*
X922020Y215900D03*
X922020Y190500D03*
X922020Y165100D03*
X922020Y139700D03*
X965200Y25400D03*
X939800Y25400D03*
X914400Y25400D03*
D15*
X940000Y76200D03*
D16*
X965000Y76200D03*
D17*
X838200Y38100D03*
D18*
X873200Y38100D03*
D10*
X373380Y289560D03*
X398780Y289560D03*
X424180Y289560D03*
X449580Y289560D03*
X474980Y289560D03*
X500380Y289560D03*
X525780Y289560D03*
X551180Y289560D03*
X576580Y289560D03*
X601980Y289560D03*
X627380Y289560D03*
X652780Y289560D03*
X678180Y289560D03*
X703580Y289560D03*
X728980Y289560D03*
X96520Y226060D03*
X121920Y226060D03*
X147320Y226060D03*
X172720Y226060D03*
X198120Y226060D03*
X223520Y226060D03*
X248920Y226060D03*
X274320Y226060D03*
X299720Y226060D03*
X325120Y226060D03*
X350520Y226060D03*
X375920Y226060D03*
X401320Y226060D03*
X426720Y226060D03*
X452120Y226060D03*
X350520Y254000D03*
X350520Y279400D03*
X350520Y304800D03*
X20320Y226060D03*
X45720Y226060D03*
X71120Y226060D03*
X350520Y381000D03*
X350520Y355600D03*
X350520Y330200D03*
X528320Y226060D03*
X502920Y226060D03*
X477520Y226060D03*
X548640Y213360D03*
X548640Y238760D03*
X548640Y264160D03*
X568960Y154940D03*
X568960Y180340D03*
X568960Y205740D03*
X568960Y81280D03*
X568960Y106680D03*
X568960Y132080D03*
X568960Y30480D03*
X568960Y55880D03*
X350520Y406400D03*
X350520Y431800D03*
X22860Y462280D03*
X48260Y462280D03*
X73660Y462280D03*
X99060Y462280D03*
X124460Y462280D03*
X149860Y462280D03*
X175260Y462280D03*
X200660Y462280D03*
X226060Y462280D03*
X251460Y462280D03*
X276860Y462280D03*
X302260Y462280D03*
X327660Y462280D03*
X353060Y462280D03*
X378460Y462280D03*
D19*
X116840Y276098D02*
X116840Y257302D01*
X142240Y257302D02*
X142240Y276098D01*
X167640Y276098D02*
X167640Y257302D01*
X193040Y257302D02*
X193040Y276098D01*
X218440Y276098D02*
X218440Y257302D01*
X243840Y257302D02*
X243840Y276098D01*
D10*
X609600Y515620D03*
X609600Y462280D03*
X711200Y609600D03*
X711200Y635000D03*
X711200Y660400D03*
X711200Y685800D03*
X711200Y711200D03*
X711200Y736600D03*
X711200Y762000D03*
X711200Y787400D03*
X482600Y609600D03*
X482600Y635000D03*
X482600Y660400D03*
X482600Y685800D03*
X482600Y711200D03*
X482600Y736600D03*
X482600Y762000D03*
X482600Y787400D03*
X853440Y335280D03*
X853440Y360680D03*
X853440Y386080D03*
X853440Y411480D03*
X853440Y436880D03*
X868680Y452120D03*
X894080Y452120D03*
X919480Y452120D03*
X944880Y452120D03*
X970280Y452120D03*
X213360Y490220D03*
X213360Y515620D03*
X213360Y541020D03*
X213360Y566420D03*
X213360Y591820D03*
X213360Y617220D03*
X213360Y642620D03*
X213360Y668020D03*
X213360Y693420D03*
X213360Y718820D03*
X213360Y744220D03*
X213360Y769620D03*
X213360Y795020D03*
X213360Y820420D03*
X744220Y307340D03*
X769620Y307340D03*
X795020Y307340D03*
X820420Y307340D03*
X845820Y307340D03*
X871220Y307340D03*
X896620Y307340D03*
X922020Y307340D03*
X947420Y307340D03*
X972820Y307340D03*
D20*
X311150Y117475D03*
X66675Y168275D03*
X228600Y142875D03*
X215900Y117475D03*
M02*
